<svg xmlns="http://www.w3.org/2000/svg" viewBox="0 0 1024 1024" width="1024" height="1024">
  <path d="M 818.0,529.0 C 814.3,517.7 805.0,499.0 794.0,489.0 C 783.0,479.0 759.2,483.3 752.0,469.0 C 744.8,454.7 756.0,423.3 751.0,403.0 C 746.0,382.7 733.2,361.7 722.0,347.0 C 710.8,332.3 699.7,323.2 684.0,315.0 C 668.3,306.8 645.3,300.0 628.0,298.0 C 610.7,296.0 595.2,298.7 580.0,303.0 C 564.8,307.3 553.8,323.3 537.0,324.0 C 520.2,324.7 500.5,308.2 479.0,307.0 C 457.5,305.8 429.0,308.3 408.0,317.0 C 387.0,325.7 366.2,342.5 353.0,359.0 C 339.8,375.5 342.3,405.8 329.0,416.0 C 315.7,426.2 288.5,416.0 273.0,420.0 C 257.5,424.0 245.8,432.3 236.0,440.0 C 226.2,447.7 219.7,455.8 214.0,466.0 C 208.3,476.2 203.5,488.8 202.0,501.0 C 200.5,513.2 201.8,527.7 205.0,539.0 C 208.2,550.3 214.3,560.7 221.0,569.0 C 227.7,577.3 234.5,583.7 245.0,589.0 C 255.5,594.3 198.0,599.2 284.0,601.0 C 370.0,602.8 674.3,603.8 761.0,600.0 C 847.7,596.2 794.8,585.2 804.0,578.0 C 813.2,570.8 813.7,565.2 816.0,557.0 C 818.3,548.8 821.7,540.3 818.0,529.0 Z M 722.0,486.0 C 722.0,488.3 719.8,493.7 719.0,496.0 C 718.2,498.3 718.5,498.2 717.0,500.0 C 715.5,501.8 711.7,505.5 710.0,507.0 C 708.3,508.5 708.5,508.3 707.0,509.0 C 705.5,509.7 703.2,510.7 701.0,511.0 C 698.8,511.3 695.7,511.2 694.0,511.0 C 692.3,510.8 692.3,511.0 691.0,510.0 C 689.7,509.0 686.8,506.5 686.0,505.0 C 685.2,503.5 685.8,502.0 686.0,501.0 C 686.2,500.0 685.5,500.7 687.0,499.0 C 688.5,497.3 692.8,492.8 695.0,491.0 C 697.2,489.2 697.7,489.2 700.0,488.0 C 702.3,486.8 706.3,485.0 709.0,484.0 C 711.7,483.0 714.3,482.3 716.0,482.0 C 717.7,481.7 718.0,481.3 719.0,482.0 C 720.0,482.7 722.0,483.7 722.0,486.0 Z M 339.0,434.0 C 340.8,434.3 343.7,437.0 346.0,439.0 C 348.3,441.0 351.2,443.7 353.0,446.0 C 354.8,448.3 356.3,450.8 357.0,453.0 C 357.7,455.2 357.8,457.3 357.0,459.0 C 356.2,460.7 353.2,462.3 352.0,463.0 C 350.8,463.7 351.0,463.3 350.0,463.0 C 349.0,462.7 347.5,462.2 346.0,461.0 C 344.5,459.8 342.3,457.8 341.0,456.0 C 339.7,454.2 338.8,452.0 338.0,450.0 C 337.2,448.0 336.5,446.2 336.0,444.0 C 335.5,441.8 334.5,438.7 335.0,437.0 C 335.5,435.3 337.2,433.7 339.0,434.0 Z M 210.0,506.0 C 213.7,492.2 223.3,466.2 235.0,453.0 C 246.7,439.8 265.2,431.2 280.0,427.0 C 294.8,422.8 314.8,422.2 324.0,428.0 C 333.2,433.8 331.2,454.8 335.0,462.0 C 338.8,469.2 342.7,470.0 347.0,471.0 C 351.3,472.0 358.5,472.5 361.0,468.0 C 363.5,463.5 366.2,451.7 362.0,444.0 C 357.8,436.3 336.2,435.5 336.0,422.0 C 335.8,408.5 347.2,379.7 361.0,363.0 C 374.8,346.3 399.3,329.8 419.0,322.0 C 438.7,314.2 459.8,314.2 479.0,316.0 C 498.2,317.8 517.7,323.0 534.0,333.0 C 550.3,343.0 568.0,364.7 577.0,376.0 C 586.0,387.3 592.2,391.7 588.0,401.0 C 583.8,410.3 548.8,431.2 552.0,432.0 C 555.2,432.8 587.7,409.3 607.0,406.0 C 626.3,402.7 651.5,406.2 668.0,412.0 C 684.5,417.8 697.2,431.2 706.0,441.0 C 714.8,450.8 725.2,462.5 721.0,471.0 C 716.8,479.5 688.3,486.3 681.0,492.0 C 673.7,497.7 676.5,501.0 677.0,505.0 C 677.5,509.0 678.5,514.0 684.0,516.0 C 689.5,518.0 703.3,518.8 710.0,517.0 C 716.7,515.2 720.2,511.2 724.0,505.0 C 727.8,498.8 727.5,484.0 733.0,480.0 C 738.5,476.0 746.0,476.7 757.0,481.0 C 768.0,485.3 790.2,495.3 799.0,506.0 C 807.8,516.7 812.0,532.5 810.0,545.0 C 808.0,557.5 797.2,573.0 787.0,581.0 C 776.8,589.0 831.8,591.0 749.0,593.0 C 666.2,595.0 372.5,594.5 290.0,593.0 C 207.5,591.5 264.2,588.7 254.0,584.0 C 243.8,579.3 235.8,573.0 229.0,565.0 C 222.2,557.0 216.2,545.8 213.0,536.0 C 209.8,526.2 206.3,519.8 210.0,506.0 Z M 545.0,329.0 C 543.8,321.2 560.5,318.7 571.0,315.0 C 581.5,311.3 595.0,307.8 608.0,307.0 C 621.0,306.2 635.8,306.7 649.0,310.0 C 662.2,313.3 675.8,319.8 687.0,327.0 C 698.2,334.2 707.7,342.8 716.0,353.0 C 724.3,363.2 731.8,375.7 737.0,388.0 C 742.2,400.3 745.7,413.7 747.0,427.0 C 748.3,440.3 746.0,460.5 745.0,468.0 C 744.0,475.5 743.3,471.3 741.0,472.0 C 738.7,472.7 734.7,476.5 731.0,472.0 C 727.3,467.5 723.2,452.3 719.0,445.0 C 714.8,437.7 710.5,432.8 706.0,428.0 C 701.5,423.2 697.5,419.8 692.0,416.0 C 686.5,412.2 682.2,408.3 673.0,405.0 C 663.8,401.7 646.3,397.5 637.0,396.0 C 627.7,394.5 623.5,395.3 617.0,396.0 C 610.5,396.7 604.5,405.7 598.0,400.0 C 591.5,394.3 586.8,373.8 578.0,362.0 C 569.2,350.2 546.2,336.8 545.0,329.0 Z" fill="#000000" fill-rule="evenodd" stroke="none"/>
  <path d="M 606.0,613.0 C 604.0,614.2 604.3,613.7 601.0,620.0 C 597.7,626.3 589.3,643.0 586.0,651.0 C 582.7,659.0 581.8,662.7 581.0,668.0 C 580.2,673.3 580.8,679.8 581.0,683.0 C 581.2,686.2 581.0,684.8 582.0,687.0 C 583.0,689.2 585.0,693.5 587.0,696.0 C 589.0,698.5 591.2,700.3 594.0,702.0 C 596.8,703.7 599.8,705.3 604.0,706.0 C 608.2,706.7 615.0,706.7 619.0,706.0 C 623.0,705.3 624.8,704.5 628.0,702.0 C 631.2,699.5 636.0,693.7 638.0,691.0 C 640.0,688.3 639.7,689.5 640.0,686.0 C 640.3,682.5 640.5,674.7 640.0,670.0 C 639.5,665.3 638.2,661.7 637.0,658.0 C 635.8,654.3 636.2,654.5 633.0,648.0 C 629.8,641.5 621.3,624.8 618.0,619.0 C 614.7,613.2 615.0,614.0 613.0,613.0 C 611.0,612.0 608.0,611.8 606.0,613.0 Z M 610.0,624.0 C 611.0,624.0 610.3,622.2 613.0,627.0 C 615.7,631.8 623.0,646.3 626.0,653.0 C 629.0,659.7 630.0,663.8 631.0,667.0 C 632.0,670.2 631.8,669.8 632.0,672.0 C 632.2,674.2 632.5,677.3 632.0,680.0 C 631.5,682.7 630.7,685.5 629.0,688.0 C 627.3,690.5 624.2,693.3 622.0,695.0 C 619.8,696.7 618.7,697.5 616.0,698.0 C 613.3,698.5 608.8,698.5 606.0,698.0 C 603.2,697.5 601.5,697.0 599.0,695.0 C 596.5,693.0 592.7,688.7 591.0,686.0 C 589.3,683.3 589.3,681.7 589.0,679.0 C 588.7,676.3 588.5,673.3 589.0,670.0 C 589.5,666.7 590.8,662.5 592.0,659.0 C 593.2,655.5 593.5,654.3 596.0,649.0 C 598.5,643.7 604.7,631.2 607.0,627.0 C 609.3,622.8 609.0,624.0 610.0,624.0 Z" fill="#000000" fill-rule="evenodd" stroke="none"/>
  <path d="M 504.0,613.0 C 502.0,614.0 502.5,612.3 499.0,619.0 C 495.5,625.7 486.3,644.8 483.0,653.0 C 479.7,661.2 479.7,662.8 479.0,668.0 C 478.3,673.2 478.2,679.5 479.0,684.0 C 479.8,688.5 481.7,691.8 484.0,695.0 C 486.3,698.2 490.2,701.2 493.0,703.0 C 495.8,704.8 497.2,705.5 501.0,706.0 C 504.8,706.5 511.7,706.8 516.0,706.0 C 520.3,705.2 524.0,703.2 527.0,701.0 C 530.0,698.8 532.3,695.3 534.0,693.0 C 535.7,690.7 536.3,688.8 537.0,687.0 C 537.7,685.2 537.8,684.5 538.0,682.0 C 538.2,679.5 539.2,677.5 538.0,672.0 C 536.8,666.5 534.3,657.2 531.0,649.0 C 527.7,640.8 521.3,629.0 518.0,623.0 C 514.7,617.0 513.3,614.7 511.0,613.0 C 508.7,611.3 506.0,612.0 504.0,613.0 Z M 508.0,625.0 C 509.2,625.0 508.7,623.8 511.0,628.0 C 513.3,632.2 519.0,643.0 522.0,650.0 C 525.0,657.0 527.8,664.5 529.0,670.0 C 530.2,675.5 529.3,680.0 529.0,683.0 C 528.7,686.0 528.5,686.0 527.0,688.0 C 525.5,690.0 522.3,693.3 520.0,695.0 C 517.7,696.7 515.8,697.5 513.0,698.0 C 510.2,698.5 505.7,698.5 503.0,698.0 C 500.3,697.5 499.2,696.7 497.0,695.0 C 494.8,693.3 491.7,690.5 490.0,688.0 C 488.3,685.5 487.5,682.7 487.0,680.0 C 486.5,677.3 486.3,676.0 487.0,672.0 C 487.7,668.0 489.7,660.3 491.0,656.0 C 492.3,651.7 492.8,650.7 495.0,646.0 C 497.2,641.3 501.8,631.5 504.0,628.0 C 506.2,624.5 506.8,625.0 508.0,625.0 Z" fill="#000000" fill-rule="evenodd" stroke="none"/>
  <path d="M 403.0,612.0 C 401.2,613.0 399.5,613.2 396.0,619.0 C 392.5,624.8 385.2,640.0 382.0,647.0 C 378.8,654.0 378.2,656.8 377.0,661.0 C 375.8,665.2 375.3,668.8 375.0,672.0 C 374.7,675.2 374.7,677.3 375.0,680.0 C 375.3,682.7 376.2,685.7 377.0,688.0 C 377.8,690.3 378.2,691.7 380.0,694.0 C 381.8,696.3 385.0,700.0 388.0,702.0 C 391.0,704.0 393.8,705.3 398.0,706.0 C 402.2,706.7 409.0,706.7 413.0,706.0 C 417.0,705.3 419.2,704.0 422.0,702.0 C 424.8,700.0 428.0,696.8 430.0,694.0 C 432.0,691.2 433.3,689.2 434.0,685.0 C 434.7,680.8 435.2,675.2 434.0,669.0 C 432.8,662.8 430.8,656.7 427.0,648.0 C 423.2,639.3 414.3,622.8 411.0,617.0 C 407.7,611.2 408.3,613.8 407.0,613.0 C 405.7,612.2 404.8,611.0 403.0,612.0 Z M 404.0,624.0 C 405.0,624.0 405.3,624.3 407.0,627.0 C 408.7,629.7 411.3,634.3 414.0,640.0 C 416.7,645.7 421.0,655.7 423.0,661.0 C 425.0,666.3 425.5,668.5 426.0,672.0 C 426.5,675.5 426.3,679.5 426.0,682.0 C 425.7,684.5 425.3,685.0 424.0,687.0 C 422.7,689.0 420.3,692.2 418.0,694.0 C 415.7,695.8 413.0,697.3 410.0,698.0 C 407.0,698.7 402.5,698.3 400.0,698.0 C 397.5,697.7 397.0,697.3 395.0,696.0 C 393.0,694.7 389.8,692.3 388.0,690.0 C 386.2,687.7 384.7,685.7 384.0,682.0 C 383.3,678.3 383.3,672.5 384.0,668.0 C 384.7,663.5 386.3,659.5 388.0,655.0 C 389.7,650.5 392.2,644.7 394.0,641.0 C 395.8,637.3 397.8,635.3 399.0,633.0 C 400.2,630.7 400.2,628.5 401.0,627.0 C 401.8,625.5 403.0,624.0 404.0,624.0 Z" fill="#000000" fill-rule="evenodd" stroke="none"/>
  <path d="M 780.0,267.0 C 779.0,266.5 779.2,262.8 775.0,266.0 C 770.8,269.2 760.2,280.5 755.0,286.0 C 749.8,291.5 749.8,292.7 744.0,299.0 C 738.2,305.3 724.0,319.3 720.0,324.0 C 716.0,328.7 719.8,326.2 720.0,327.0 C 720.2,327.8 719.8,328.5 721.0,329.0 C 722.2,329.5 723.7,332.2 727.0,330.0 C 730.3,327.8 732.2,325.3 741.0,316.0 C 749.8,306.7 773.3,281.3 780.0,274.0 C 786.7,266.7 780.8,272.8 781.0,272.0 C 781.2,271.2 781.2,269.8 781.0,269.0 C 780.8,268.2 781.0,267.5 780.0,267.0 Z" fill="#000000" fill-rule="evenodd" stroke="none"/>
  <path d="M 847.0,395.0 C 846.5,394.0 845.3,392.5 844.0,392.0 C 842.7,391.5 841.7,391.5 839.0,392.0 C 836.3,392.5 838.5,393.2 828.0,395.0 C 817.5,396.8 785.7,401.3 776.0,403.0 C 766.3,404.7 771.7,404.7 770.0,405.0 C 768.3,405.3 767.0,404.7 766.0,405.0 C 765.0,405.3 764.2,405.7 764.0,407.0 C 763.8,408.3 764.5,411.8 765.0,413.0 C 765.5,414.2 766.2,413.8 767.0,414.0 C 767.8,414.2 764.7,415.0 770.0,414.0 C 775.3,413.0 792.2,409.2 799.0,408.0 C 805.8,406.8 803.5,408.2 811.0,407.0 C 818.5,405.8 838.0,402.5 844.0,401.0 C 850.0,399.5 846.5,399.0 847.0,398.0 C 847.5,397.0 847.5,396.0 847.0,395.0 Z" fill="#000000" fill-rule="evenodd" stroke="none"/>
  <path d="M 655.0,210.0 C 653.7,209.8 650.2,210.3 649.0,211.0 C 647.8,211.7 649.0,208.8 648.0,214.0 C 647.0,219.2 644.2,234.5 643.0,242.0 C 641.8,249.5 642.2,252.3 641.0,259.0 C 639.8,265.7 636.8,277.0 636.0,282.0 C 635.2,287.0 635.7,287.5 636.0,289.0 C 636.3,290.5 637.0,290.7 638.0,291.0 C 639.0,291.3 641.0,291.3 642.0,291.0 C 643.0,290.7 643.3,290.7 644.0,289.0 C 644.7,287.3 645.7,283.3 646.0,281.0 C 646.3,278.7 644.8,281.7 646.0,275.0 C 647.2,268.3 651.8,247.7 653.0,241.0 C 654.2,234.3 652.3,238.8 653.0,235.0 C 653.7,231.2 656.3,221.8 657.0,218.0 C 657.7,214.2 657.3,213.3 657.0,212.0 C 656.7,210.7 656.3,210.2 655.0,210.0 Z" fill="#000000" fill-rule="evenodd" stroke="none"/>
  <path d="M 518.0,226.0 C 517.2,226.2 516.5,225.8 516.0,227.0 C 515.5,228.2 515.0,231.5 515.0,233.0 C 515.0,234.5 515.5,235.2 516.0,236.0 C 516.5,236.8 514.0,229.2 518.0,238.0 C 522.0,246.8 535.2,278.2 540.0,289.0 C 544.8,299.8 545.0,300.5 547.0,303.0 C 549.0,305.5 550.7,304.3 552.0,304.0 C 553.3,303.7 554.7,302.3 555.0,301.0 C 555.3,299.7 554.8,298.0 554.0,296.0 C 553.2,294.0 553.3,296.0 550.0,289.0 C 546.7,282.0 538.5,264.2 534.0,254.0 C 529.5,243.8 525.2,232.7 523.0,228.0 C 520.8,223.3 521.8,226.3 521.0,226.0 C 520.2,225.7 518.8,225.8 518.0,226.0 Z" fill="#000000" fill-rule="evenodd" stroke="none"/>
</svg>