<svg xmlns="http://www.w3.org/2000/svg" viewBox="0 0 1024 1024" width="1024" height="1024">
  <path d="M 600.0,700.0 C 604.0,702.0 619.0,701.0 601.0,701.0" fill="none" stroke="black" stroke-width="1"/>
  <path d="M 498.0,700.0 C 501.0,702.0 516.0,702.0 519.0,700.0" fill="none" stroke="black" stroke-width="1"/>
  <path d="M 519.0,700.0 C 513.0,702.0 503.0,702.0 500.0,700.0" fill="none" stroke="black" stroke-width="1"/>
  <path d="M 500.0,700.0 C 499.67,700.33 499.33,700.67 499.0,701.0" fill="none" stroke="black" stroke-width="1"/>
  <path d="M 486.0,689.0 C 490.0,695.0 496.0,699.0 487.0,690.0" fill="none" stroke="black" stroke-width="1"/>
  <path d="M 428.0,687.0 C 425.0,693.0 415.0,700.0 420.0,698.0" fill="none" stroke="black" stroke-width="1"/>
  <path d="M 420.0,698.0 C 422.67,694.67 425.33,691.33 428.0,688.0" fill="none" stroke="black" stroke-width="1"/>
  <path d="M 528.0,654.0 C 533.0,670.0 533.0,686.0 529.0,692.0" fill="none" stroke="black" stroke-width="1"/>
  <path d="M 529.0,692.0 C 521.0,699.0 526.0,695.0 527.0,696.0" fill="none" stroke="black" stroke-width="1"/>
  <path d="M 527.0,696.0 C 526.0,695.0 530.0,691.0 534.0,682.0" fill="none" stroke="black" stroke-width="1"/>
  <path d="M 534.0,682.0 C 534.0,672.0 531.0,660.0 528.0,656.0" fill="none" stroke="black" stroke-width="1"/>
  <path d="M 528.0,656.0 C 528.33,655.67 528.67,655.33 529.0,655.0" fill="none" stroke="black" stroke-width="1"/>
  <path d="M 526.0,649.0 C 526.67,651.0 527.0,651.33 527.0,650.0" fill="none" stroke="black" stroke-width="1"/>
  <path d="M 628.0,648.0 C 636.0,672.0 636.0,684.0 633.0,690.0" fill="none" stroke="black" stroke-width="1"/>
  <path d="M 633.0,690.0 C 625.0,698.0 621.0,700.0 628.0,696.0" fill="none" stroke="black" stroke-width="1"/>
  <path d="M 628.0,696.0 C 633.0,690.0 637.0,678.0 635.0,665.0" fill="none" stroke="black" stroke-width="1"/>
  <path d="M 635.0,665.0 C 633.0,659.67 631.0,654.33 629.0,649.0" fill="none" stroke="black" stroke-width="1"/>
  <path d="M 422.0,648.0 C 425.0,654.0 424.0,655.0 427.0,659.0" fill="none" stroke="black" stroke-width="1"/>
  <path d="M 427.0,659.0 C 426.0,660.0 430.0,672.0 429.0,685.0" fill="none" stroke="black" stroke-width="1"/>
  <path d="M 429.0,685.0 C 429.67,674.33 427.67,662.33 423.0,649.0" fill="none" stroke="black" stroke-width="1"/>
  <path d="M 387.0,647.0 C 380.0,666.0 380.0,685.0 384.0,692.0" fill="none" stroke="black" stroke-width="1"/>
  <path d="M 384.0,692.0 C 395.0,701.0 412.0,702.0 413.0,701.0" fill="none" stroke="black" stroke-width="1"/>
  <path d="M 413.0,701.0 C 395.0,701.0 389.0,697.0 381.0,687.0" fill="none" stroke="black" stroke-width="1"/>
  <path d="M 381.0,687.0 C 382.0,686.0 380.0,682.0 380.0,668.0" fill="none" stroke="black" stroke-width="1"/>
  <path d="M 380.0,668.0 C 385.0,654.0 384.0,653.0 387.0,649.0" fill="none" stroke="black" stroke-width="1"/>
  <path d="M 387.0,649.0 C 386.67,648.67 386.33,648.33 386.0,648.0" fill="none" stroke="black" stroke-width="1"/>
  <path d="M 594.0,644.0 C 586.0,663.0 585.0,683.0 589.0,691.0" fill="none" stroke="black" stroke-width="1"/>
  <path d="M 589.0,691.0 C 598.0,699.0 588.0,689.0 585.0,679.0" fill="none" stroke="black" stroke-width="1"/>
  <path d="M 585.0,679.0 C 586.0,666.0 591.0,653.0 590.0,652.0" fill="none" stroke="black" stroke-width="1"/>
  <path d="M 590.0,652.0 C 592.67,648.0 593.67,645.67 593.0,645.0" fill="none" stroke="black" stroke-width="1"/>
  <path d="M 492.0,643.0 C 488.0,651.0 489.0,652.0 486.0,656.0" fill="none" stroke="black" stroke-width="1"/>
  <path d="M 486.0,656.0 C 482.0,676.0 483.0,684.0 485.0,687.0" fill="none" stroke="black" stroke-width="1"/>
  <path d="M 485.0,687.0 C 483.0,672.0 488.0,655.0 487.0,654.0" fill="none" stroke="black" stroke-width="1"/>
  <path d="M 487.0,654.0 C 490.33,648.0 491.67,644.67 491.0,644.0" fill="none" stroke="black" stroke-width="1"/>
  <path d="M 519.0,635.0 C 519.33,635.33 519.67,635.67 520.0,636.0" fill="none" stroke="black" stroke-width="1"/>
  <path d="M 394.0,633.0 C 391.33,638.33 391.0,638.67 393.0,634.0" fill="none" stroke="black" stroke-width="1"/>
  <path d="M 414.0,632.0 C 417.33,638.67 417.67,639.0 415.0,633.0" fill="none" stroke="black" stroke-width="1"/>
  <path d="M 609.0,618.0 C 604.0,624.0 609.0,618.0 611.0,618.0" fill="none" stroke="black" stroke-width="1"/>
  <path d="M 611.0,618.0 C 614.33,622.0 614.0,622.0 610.0,618.0" fill="none" stroke="black" stroke-width="1"/>
  <path d="M 509.0,618.0 C 511.67,621.33 512.0,621.33 510.0,618.0" fill="none" stroke="black" stroke-width="1"/>
  <path d="M 507.0,618.0 C 503.0,622.67 502.67,623.0 506.0,619.0" fill="none" stroke="black" stroke-width="1"/>
  <path d="M 404.0,617.0 C 399.0,623.0 404.0,617.0 410.0,624.0" fill="none" stroke="black" stroke-width="1"/>
  <path d="M 410.0,624.0 C 408.33,622.0 406.67,620.0 405.0,618.0" fill="none" stroke="black" stroke-width="1"/>
  <path d="M 258.0,590.0 C 284.0,597.0 753.0,597.0 779.0,590.0" fill="none" stroke="black" stroke-width="1"/>
  <path d="M 779.0,590.0 C 748.0,597.0 291.0,597.0 259.0,591.0" fill="none" stroke="black" stroke-width="1"/>
  <path d="M 809.0,562.0 C 803.0,572.0 794.0,581.0 783.0,588.0" fill="none" stroke="black" stroke-width="1"/>
  <path d="M 783.0,588.0 C 794.0,581.0 805.0,570.0 808.0,563.0" fill="none" stroke="black" stroke-width="1"/>
  <path d="M 810.0,517.0 C 814.0,531.0 814.0,545.0 810.0,560.0" fill="none" stroke="black" stroke-width="1"/>
  <path d="M 810.0,560.0 C 814.0,549.0 814.0,529.0 811.0,518.0" fill="none" stroke="black" stroke-width="1"/>
  <path d="M 780.0,485.0 C 793.0,494.0 807.0,511.0 803.0,504.0" fill="none" stroke="black" stroke-width="1"/>
  <path d="M 803.0,504.0 C 794.33,495.33 787.0,489.33 781.0,486.0" fill="none" stroke="black" stroke-width="1"/>
  <path d="M 726.0,482.0 C 725.0,490.0 722.0,497.0 723.0,498.0" fill="none" stroke="black" stroke-width="1"/>
  <path d="M 723.0,498.0 C 713.0,510.0 708.0,513.0 694.0,515.0" fill="none" stroke="black" stroke-width="1"/>
  <path d="M 694.0,515.0 C 690.0,513.0 689.0,514.0 683.0,508.0" fill="none" stroke="black" stroke-width="1"/>
  <path d="M 683.0,508.0 C 682.0,499.0 691.0,489.0 699.0,484.0" fill="none" stroke="black" stroke-width="1"/>
  <path d="M 699.0,484.0 C 687.0,492.0 682.0,499.0 681.0,505.0" fill="none" stroke="black" stroke-width="1"/>
  <path d="M 681.0,505.0 C 684.0,511.0 691.0,515.0 704.0,515.0" fill="none" stroke="black" stroke-width="1"/>
  <path d="M 704.0,515.0 C 712.0,511.0 723.0,498.0 726.0,483.0" fill="none" stroke="black" stroke-width="1"/>
  <path d="M 212.0,481.0 C 206.0,501.0 206.0,525.0 210.0,542.0" fill="none" stroke="black" stroke-width="1"/>
  <path d="M 210.0,542.0 C 225.0,567.0 240.0,581.0 251.0,587.0" fill="none" stroke="black" stroke-width="1"/>
  <path d="M 251.0,587.0 C 234.0,576.0 226.0,568.0 211.0,544.0" fill="none" stroke="black" stroke-width="1"/>
  <path d="M 211.0,544.0 C 206.0,521.0 206.0,506.0 211.0,482.0" fill="none" stroke="black" stroke-width="1"/>
  <path d="M 718.0,477.0 C 701.0,483.0 716.0,478.0 720.0,478.0" fill="none" stroke="black" stroke-width="1"/>
  <path d="M 720.0,478.0 C 719.67,477.67 719.33,477.33 719.0,477.0" fill="none" stroke="black" stroke-width="1"/>
  <path d="M 747.0,473.0 C 743.0,476.0 731.0,476.0 743.0,476.0" fill="none" stroke="black" stroke-width="1"/>
  <path d="M 743.0,476.0 C 749.0,474.0 753.0,477.0 765.0,479.0" fill="none" stroke="black" stroke-width="1"/>
  <path d="M 765.0,479.0 C 776.0,483.0 768.0,479.0 753.0,477.0" fill="none" stroke="black" stroke-width="1"/>
  <path d="M 753.0,477.0 C 751.33,475.67 749.67,474.33 748.0,473.0" fill="none" stroke="black" stroke-width="1"/>
  <path d="M 360.0,461.0 C 354.0,467.0 347.0,466.0 354.0,467.0" fill="none" stroke="black" stroke-width="1"/>
  <path d="M 354.0,467.0 C 356.0,465.33 358.0,463.67 360.0,462.0" fill="none" stroke="black" stroke-width="1"/>
  <path d="M 720.0,457.0 C 723.33,466.33 723.67,466.67 721.0,458.0" fill="none" stroke="black" stroke-width="1"/>
  <path d="M 360.0,450.0 C 362.0,458.0 361.0,459.0 361.0,451.0" fill="none" stroke="black" stroke-width="1"/>
  <path d="M 236.0,446.0 C 223.0,460.0 214.0,477.0 225.0,458.0" fill="none" stroke="black" stroke-width="1"/>
  <path d="M 225.0,458.0 C 228.33,454.33 231.67,450.67 235.0,447.0" fill="none" stroke="black" stroke-width="1"/>
  <path d="M 256.0,432.0 C 244.0,439.0 238.0,445.0 255.0,433.0" fill="none" stroke="black" stroke-width="1"/>
  <path d="M 332.0,431.0 C 331.0,439.0 334.0,452.0 338.0,459.0" fill="none" stroke="black" stroke-width="1"/>
  <path d="M 338.0,459.0 C 345.0,465.0 340.0,461.0 335.0,454.0" fill="none" stroke="black" stroke-width="1"/>
  <path d="M 335.0,454.0 C 336.0,453.0 331.0,439.0 332.0,432.0" fill="none" stroke="black" stroke-width="1"/>
  <path d="M 340.0,430.0 C 350.0,437.0 359.0,448.0 357.0,444.0" fill="none" stroke="black" stroke-width="1"/>
  <path d="M 357.0,444.0 C 350.33,437.33 345.0,433.0 341.0,431.0" fill="none" stroke="black" stroke-width="1"/>
  <path d="M 330.0,425.0 C 332.0,427.0 332.33,427.33 331.0,426.0" fill="none" stroke="black" stroke-width="1"/>
  <path d="M 295.0,420.0 C 273.0,424.0 262.0,429.0 268.0,426.0" fill="none" stroke="black" stroke-width="1"/>
  <path d="M 268.0,426.0 C 269.0,427.0 291.0,421.0 311.0,421.0" fill="none" stroke="black" stroke-width="1"/>
  <path d="M 311.0,421.0 C 325.0,425.0 326.0,424.0 307.0,420.0" fill="none" stroke="black" stroke-width="1"/>
  <path d="M 307.0,420.0 C 303.33,420.0 299.67,420.0 296.0,420.0" fill="none" stroke="black" stroke-width="1"/>
  <path d="M 573.0,415.0 C 562.0,422.0 554.0,430.0 572.0,416.0" fill="none" stroke="black" stroke-width="1"/>
  <path d="M 576.0,413.0 C 575.33,413.67 575.67,413.67 577.0,413.0" fill="none" stroke="black" stroke-width="1"/>
  <path d="M 675.0,411.0 C 696.0,425.0 707.0,436.0 715.0,447.0" fill="none" stroke="black" stroke-width="1"/>
  <path d="M 715.0,447.0 C 710.0,439.0 692.0,421.0 676.0,412.0" fill="none" stroke="black" stroke-width="1"/>
  <path d="M 593.0,404.0 C 579.0,412.0 586.0,408.0 587.0,409.0" fill="none" stroke="black" stroke-width="1"/>
  <path d="M 587.0,409.0 C 593.0,404.0 595.0,405.0 594.0,404.0" fill="none" stroke="black" stroke-width="1"/>
  <path d="M 617.0,400.0 C 599.0,403.0 597.0,405.0 614.0,401.0" fill="none" stroke="black" stroke-width="1"/>
  <path d="M 614.0,401.0 C 641.0,401.0 653.0,403.0 673.0,410.0" fill="none" stroke="black" stroke-width="1"/>
  <path d="M 673.0,410.0 C 665.0,406.0 646.0,401.0 618.0,400.0" fill="none" stroke="black" stroke-width="1"/>
  <path d="M 844.0,395.0 C 838.0,398.0 835.0,397.0 833.0,399.0" fill="none" stroke="black" stroke-width="1"/>
  <path d="M 833.0,399.0 C 823.0,399.0 821.0,401.0 818.0,400.0" fill="none" stroke="black" stroke-width="1"/>
  <path d="M 818.0,400.0 C 816.0,402.0 812.0,401.0 810.0,403.0" fill="none" stroke="black" stroke-width="1"/>
  <path d="M 810.0,403.0 C 805.0,402.0 800.0,403.0 798.0,405.0" fill="none" stroke="black" stroke-width="1"/>
  <path d="M 798.0,405.0 C 794.0,404.0 777.0,407.0 775.0,409.0" fill="none" stroke="black" stroke-width="1"/>
  <path d="M 775.0,409.0 C 768.0,409.0 766.0,407.0 768.0,410.0" fill="none" stroke="black" stroke-width="1"/>
  <path d="M 768.0,410.0 C 775.0,409.0 777.0,407.0 781.0,408.0" fill="none" stroke="black" stroke-width="1"/>
  <path d="M 781.0,408.0 C 798.0,405.0 800.0,403.0 804.0,404.0" fill="none" stroke="black" stroke-width="1"/>
  <path d="M 804.0,404.0 C 810.0,403.0 812.0,401.0 816.0,402.0" fill="none" stroke="black" stroke-width="1"/>
  <path d="M 816.0,402.0 C 818.0,400.0 827.0,400.0 829.0,398.0" fill="none" stroke="black" stroke-width="1"/>
  <path d="M 829.0,398.0 C 833.0,399.0 835.0,397.0 838.0,398.0" fill="none" stroke="black" stroke-width="1"/>
  <path d="M 838.0,398.0 C 841.0,396.0 844.0,398.0 843.0,396.0" fill="none" stroke="black" stroke-width="1"/>
  <path d="M 342.0,386.0 C 335.0,403.0 331.0,422.0 336.0,402.0" fill="none" stroke="black" stroke-width="1"/>
  <path d="M 336.0,402.0 C 340.0,393.0 339.0,392.0 342.0,388.0" fill="none" stroke="black" stroke-width="1"/>
  <path d="M 342.0,388.0 C 341.67,387.67 341.33,387.33 341.0,387.0" fill="none" stroke="black" stroke-width="1"/>
  <path d="M 586.0,385.0 C 591.0,400.0 593.0,402.0 587.0,386.0" fill="none" stroke="black" stroke-width="1"/>
  <path d="M 739.0,383.0 C 746.0,402.0 751.0,427.0 751.0,455.0" fill="none" stroke="black" stroke-width="1"/>
  <path d="M 751.0,455.0 C 748.0,470.0 751.0,457.0 751.0,426.0" fill="none" stroke="black" stroke-width="1"/>
  <path d="M 751.0,426.0 C 748.33,410.67 744.67,396.67 740.0,384.0" fill="none" stroke="black" stroke-width="1"/>
  <path d="M 396.0,328.0 C 380.0,338.0 355.0,363.0 345.0,380.0" fill="none" stroke="black" stroke-width="1"/>
  <path d="M 345.0,380.0 C 350.0,371.0 363.0,354.0 377.0,341.0" fill="none" stroke="black" stroke-width="1"/>
  <path d="M 377.0,341.0 C 383.0,337.0 389.0,333.0 395.0,329.0" fill="none" stroke="black" stroke-width="1"/>
  <path d="M 527.0,325.0 C 533.0,328.33 533.33,328.33 528.0,325.0" fill="none" stroke="black" stroke-width="1"/>
  <path d="M 520.0,322.0 C 522.0,322.67 522.33,323.0 521.0,323.0" fill="none" stroke="black" stroke-width="1"/>
  <path d="M 549.0,321.0 C 542.0,325.0 538.0,330.0 556.0,344.0" fill="none" stroke="black" stroke-width="1"/>
  <path d="M 556.0,344.0 C 566.0,354.0 582.0,377.0 573.0,362.0" fill="none" stroke="black" stroke-width="1"/>
  <path d="M 573.0,362.0 C 567.0,355.0 538.0,329.0 548.0,322.0" fill="none" stroke="black" stroke-width="1"/>
  <path d="M 409.0,321.0 C 408.0,322.0 411.0,321.0 410.0,322.0" fill="none" stroke="black" stroke-width="1"/>
  <path d="M 556.0,317.0 C 552.67,319.0 553.0,319.0 557.0,317.0" fill="none" stroke="black" stroke-width="1"/>
  <path d="M 671.0,314.0 C 682.0,319.0 703.0,334.0 717.0,348.0" fill="none" stroke="black" stroke-width="1"/>
  <path d="M 717.0,348.0 C 733.0,371.0 721.0,352.0 699.0,330.0" fill="none" stroke="black" stroke-width="1"/>
  <path d="M 699.0,330.0 C 690.33,324.0 681.33,318.67 672.0,314.0" fill="none" stroke="black" stroke-width="1"/>
  <path d="M 664.0,311.0 C 666.0,311.67 666.33,312.0 665.0,312.0" fill="none" stroke="black" stroke-width="1"/>
  <path d="M 448.0,311.0 C 446.0,313.0 440.0,312.0 426.0,315.0" fill="none" stroke="black" stroke-width="1"/>
  <path d="M 426.0,315.0 C 413.0,320.0 423.0,316.0 425.0,317.0" fill="none" stroke="black" stroke-width="1"/>
  <path d="M 425.0,317.0 C 446.0,313.0 448.0,311.0 487.0,313.0" fill="none" stroke="black" stroke-width="1"/>
  <path d="M 487.0,313.0 C 498.0,316.0 501.0,315.0 503.0,317.0" fill="none" stroke="black" stroke-width="1"/>
  <path d="M 503.0,317.0 C 505.0,316.0 518.0,321.0 487.0,312.0" fill="none" stroke="black" stroke-width="1"/>
  <path d="M 487.0,312.0 C 474.33,311.67 461.67,311.33 449.0,311.0" fill="none" stroke="black" stroke-width="1"/>
  <path d="M 609.0,302.0 C 580.0,307.0 563.0,314.0 588.0,306.0" fill="none" stroke="black" stroke-width="1"/>
  <path d="M 588.0,306.0 C 608.0,303.0 638.0,304.0 662.0,310.0" fill="none" stroke="black" stroke-width="1"/>
  <path d="M 662.0,310.0 C 652.0,306.0 637.0,303.0 610.0,302.0" fill="none" stroke="black" stroke-width="1"/>
  <path d="M 550.0,299.0 C 551.33,300.33 551.67,300.67 551.0,300.0" fill="none" stroke="black" stroke-width="1"/>
  <path d="M 541.0,279.0 C 546.33,291.0 546.33,291.33 541.0,280.0" fill="none" stroke="black" stroke-width="1"/>
  <path d="M 537.0,270.0 C 538.33,273.33 538.33,273.67 537.0,271.0" fill="none" stroke="black" stroke-width="1"/>
  <path d="M 778.0,269.0 C 723.0,327.0 736.0,315.0 777.0,270.0" fill="none" stroke="black" stroke-width="1"/>
  <path d="M 532.0,259.0 C 533.33,262.33 533.33,262.67 532.0,260.0" fill="none" stroke="black" stroke-width="1"/>
  <path d="M 527.0,248.0 C 528.33,251.33 528.33,251.67 527.0,249.0" fill="none" stroke="black" stroke-width="1"/>
  <path d="M 518.0,229.0 C 522.67,239.0 523.0,239.33 519.0,230.0" fill="none" stroke="black" stroke-width="1"/>
  <path d="M 655.0,212.0 C 652.0,214.0 639.0,288.0 640.0,287.0" fill="none" stroke="black" stroke-width="1"/>
  <path d="M 640.0,287.0 C 642.0,289.0 640.0,287.0 654.0,213.0" fill="none" stroke="black" stroke-width="1"/>
</svg>