<svg xmlns="http://www.w3.org/2000/svg" viewBox="0 0 1024 1024" width="1024" height="1024">
<g fill="none" stroke="#000000" stroke-width="2.8" stroke-linecap="round" stroke-linejoin="round">
  <path d="M 273.9,278.3 C 273.4,277.9 271.8,276.4 271.3,275.6 C 270.8,274.9 270.8,274.7 270.8,273.9 C 270.8,273.1 270.7,272.5 271.2,271.0 C 271.8,269.5 272.5,267.5 274.2,265.0 C 275.8,262.5 276.9,260.5 281.2,256.0 C 285.5,251.5 294.4,242.7 300.0,237.8 C 305.6,232.9 310.5,229.6 315.0,226.5 C 319.5,223.3 321.5,221.9 327.0,218.9 C 332.5,215.9 342.7,211.0 348.0,208.6 C 353.3,206.2 355.3,205.6 359.0,204.4 C 362.7,203.1 365.3,202.3 370.0,201.2 C 374.7,200.2 380.0,198.6 387.0,198.1 C 394.0,197.7 405.0,197.8 412.0,198.4 C 419.0,199.1 424.5,200.8 429.0,202.0 C 433.5,203.2 436.0,204.4 439.0,205.6 C 442.0,206.8 443.2,207.0 447.0,209.3 C 450.8,211.7 457.1,215.4 462.0,219.5 C 466.9,223.6 473.2,230.3 476.7,234.0 C 480.1,237.7 480.7,239.2 482.6,242.0 C 484.5,244.8 485.6,246.0 488.1,251.0 C 490.6,256.0 495.3,265.8 497.8,272.0 C 500.2,278.2 501.3,282.7 502.7,288.0 C 504.1,293.3 505.5,300.2 506.2,304.0 C 506.9,307.8 506.9,309.7 507.0,310.8"/>
  <path d="M 514.2,310.8 C 514.3,309.3 515.2,307.5 516.8,304.0 C 518.4,300.5 521.2,294.7 523.8,290.0 C 526.4,285.3 528.5,281.5 532.4,276.0 C 536.4,270.5 542.2,262.7 547.3,257.0 C 552.4,251.3 557.6,246.2 563.0,241.6 C 568.4,237.0 574.3,232.9 580.0,229.5 C 585.7,226.0 590.8,223.5 597.0,221.0 C 603.2,218.6 610.8,216.1 617.0,214.7 C 623.2,213.2 629.2,212.6 634.0,212.2 C 638.8,211.8 642.3,212.1 646.0,212.4 C 649.7,212.7 652.5,213.3 656.0,214.0 C 659.5,214.7 662.3,215.2 667.0,216.7 C 671.7,218.3 678.8,220.9 684.0,223.3 C 689.2,225.8 693.2,228.2 698.0,231.4 C 702.8,234.5 707.7,237.8 713.0,242.3 C 718.3,246.7 725.5,253.7 729.8,258.0 C 734.0,262.3 736.1,265.0 738.5,268.0 C 740.9,271.0 742.8,273.5 744.4,276.0 C 746.0,278.5 747.2,281.0 748.1,283.0 C 748.9,285.0 749.3,286.7 749.5,288.0 C 749.7,289.2 749.4,289.9 749.2,290.6 C 749.0,291.3 748.8,291.6 748.2,291.9 C 747.7,292.3 746.8,292.7 745.9,292.7 C 745.0,292.8 746.0,293.8 743.0,292.2 C 740.0,290.6 732.8,285.7 728.0,282.9 C 723.2,280.1 718.2,277.3 714.0,275.3 C 709.8,273.4 707.3,272.5 703.0,271.0 C 698.7,269.5 692.2,267.6 688.0,266.5 C 683.8,265.4 682.3,265.0 678.0,264.3 C 673.7,263.6 667.7,262.6 662.0,262.2 C 656.3,261.9 650.7,261.7 644.0,262.2 C 637.3,262.7 629.0,263.9 622.0,265.4 C 615.0,267.0 607.3,269.6 602.0,271.4 C 596.7,273.3 594.7,274.2 590.0,276.3 C 585.3,278.5 581.3,280.0 574.0,284.3 C 566.7,288.6 552.8,297.9 546.0,302.1 C 539.2,306.2 536.3,307.5 533.0,309.1 C 529.7,310.7 528.2,311.1 526.0,311.8 C 523.8,312.4 521.7,312.7 520.1,312.9 C 518.4,313.1 517.2,313.3 516.2,313.0 C 515.2,312.7 514.1,312.3 514.2,310.8 Z"/>
  <path d="M 285.8,273.1 C 287.3,272.0 291.0,269.1 295.0,266.9 C 299.0,264.6 305.0,261.6 310.0,259.4 C 315.0,257.3 320.2,255.5 325.0,254.0 C 329.8,252.5 333.0,251.5 339.0,250.4 C 345.0,249.2 355.3,247.6 361.0,247.1 C 366.7,246.5 369.0,246.9 373.0,247.1 C 377.0,247.4 380.8,247.9 385.0,248.6 C 389.2,249.4 393.3,250.2 398.0,251.4 C 402.7,252.7 406.8,253.9 413.0,256.4 C 419.2,258.8 427.8,262.5 435.0,266.3 C 442.2,270.2 446.8,272.9 456.0,279.4 C 465.2,286.0 483.0,300.5 490.0,305.6 C 497.0,310.7 495.5,309.0 498.0,310.2 C 500.5,311.4 503.7,312.3 504.8,312.8"/>
  <path d="M 288.2,276.9 C 291.8,276.3 302.4,273.8 310.0,273.2 C 317.6,272.6 326.3,272.6 334.0,273.2 C 341.7,273.8 348.3,275.0 356.0,276.9 C 363.7,278.8 372.5,281.5 380.0,284.4 C 387.5,287.4 395.8,291.8 401.0,294.6 C 406.2,297.4 408.2,299.1 411.0,301.2 C 413.8,303.3 415.9,305.1 417.9,307.1 C 419.9,309.0 421.7,311.2 423.0,313.0 C 424.3,314.8 425.2,316.3 425.9,318.0 C 426.5,319.7 426.8,321.0 426.9,323.0 C 427.0,325.0 426.5,328.7 426.4,329.8"/>
  <path d="M 274.2,281.2 C 273.7,281.7 273.9,282.1 270.9,284.5 C 267.8,286.9 259.6,292.8 256.0,295.8 C 252.4,298.7 252.5,298.5 249.3,302.0 C 246.1,305.6 240.5,311.7 236.7,317.0 C 233.0,322.3 229.1,329.5 226.8,334.0 C 224.5,338.5 224.0,340.3 222.7,344.0 C 221.3,347.7 220.1,350.3 218.7,356.0 C 217.3,361.7 215.2,373.0 214.4,378.0 C 213.7,383.0 214.0,383.3 214.0,386.0 C 214.0,388.7 214.1,392.0 214.4,394.0 C 214.7,396.0 215.0,396.8 215.7,397.9 C 216.3,398.9 217.5,400.0 218.1,400.4 C 218.8,400.8 219.0,400.6 219.6,400.4 C 220.2,400.1 219.9,401.4 221.5,398.7 C 223.2,396.0 226.8,388.5 229.5,384.0 C 232.2,379.5 234.5,375.8 237.6,372.0 C 240.7,368.2 244.1,364.9 248.0,361.5 C 251.9,358.0 256.7,354.5 261.0,351.5 C 265.3,348.5 269.5,346.0 274.0,343.4 C 278.5,340.9 283.8,338.2 288.0,336.3 C 292.2,334.4 292.5,334.0 299.0,332.0 C 305.5,330.0 319.8,326.1 327.0,324.5 C 334.2,322.9 338.5,322.7 342.0,322.3 C 345.5,321.9 342.3,322.0 348.0,322.0 C 353.7,322.0 367.8,321.8 376.0,322.3 C 384.2,322.9 389.8,323.9 397.0,325.3 C 404.2,326.6 414.5,329.5 419.0,330.4 C 423.4,331.4 423.0,330.9 423.8,331.0"/>
  <path d="M 599.2,319.7 C 601.0,318.0 604.0,316.0 606.0,314.7 C 608.0,313.4 608.8,312.9 611.0,311.9 C 613.2,311.0 614.8,310.3 619.0,308.9 C 623.2,307.5 631.2,304.8 636.0,303.4 C 640.8,302.1 641.8,301.7 648.0,300.7 C 654.2,299.6 664.7,297.7 673.0,297.1 C 681.3,296.5 690.8,296.7 698.0,297.1 C 705.2,297.5 709.7,298.4 716.0,299.6 C 722.3,300.9 731.0,303.2 736.0,304.7 C 741.0,306.1 742.8,306.9 746.0,308.2 C 749.2,309.5 751.3,310.3 755.0,312.3 C 758.7,314.3 764.0,317.2 768.0,320.2 C 772.0,323.1 775.7,326.5 778.9,330.0 C 782.1,333.5 784.5,336.7 787.2,341.0 C 789.9,345.3 792.6,350.3 795.0,356.0 C 797.3,361.7 799.6,367.8 801.4,375.0 C 803.2,382.2 804.9,391.0 805.7,399.0 C 806.4,407.0 806.1,417.9 805.9,423.0 C 805.7,428.1 805.0,428.3 804.4,429.9 C 803.9,431.4 803.2,431.7 802.6,432.2 C 802.0,432.7 801.5,432.9 800.9,433.0 C 800.3,433.1 799.8,433.3 799.0,433.0 C 798.2,432.8 797.2,432.4 796.2,431.5 C 795.3,430.7 795.2,431.1 793.1,428.0 C 791.1,424.9 787.0,417.5 784.0,413.0 C 781.0,408.5 780.1,406.5 775.3,401.0 C 770.5,395.5 759.7,384.7 755.0,380.1 C 750.3,375.4 750.3,375.8 747.0,373.2 C 743.7,370.6 740.8,368.1 735.0,364.4 C 729.2,360.6 719.7,354.7 712.0,350.8 C 704.3,346.8 695.7,343.3 689.0,340.7 C 682.3,338.1 677.5,336.7 672.0,335.0 C 666.5,333.4 663.7,332.1 656.0,330.7 C 648.3,329.2 634.3,326.9 626.0,326.1 C 617.7,325.3 610.8,325.9 606.0,326.0 C 601.2,326.2 599.0,327.1 597.2,326.9 C 595.4,326.7 595.0,326.0 595.3,324.8 C 595.7,323.6 597.4,321.4 599.2,319.7 Z"/>
  <path d="M 585.8,329.2 C 575.3,332.8 534.6,347.1 523.0,350.5 C 511.4,353.9 518.4,351.0 516.0,349.7 C 513.7,348.4 510.1,343.9 508.9,342.8"/>
  <path d="M 587.9,331.2 C 587.9,332.3 587.3,336.0 587.5,338.0 C 587.7,340.0 588.0,341.0 589.2,343.0 C 590.5,345.0 592.9,347.8 595.0,349.9 C 597.2,351.9 598.7,353.1 602.0,355.1 C 605.3,357.1 611.2,359.9 615.0,361.7 C 618.8,363.4 611.3,361.1 625.0,365.5 C 638.7,370.0 680.0,382.5 697.0,388.4 C 714.0,394.2 719.0,397.1 727.0,400.8 C 735.0,404.4 739.0,406.6 745.0,410.2 C 751.0,413.8 757.7,418.3 763.0,422.4 C 768.3,426.6 773.0,430.9 777.0,435.0 C 780.9,439.1 783.6,442.2 786.8,447.0 C 790.0,451.8 793.8,458.7 796.1,464.0 C 798.4,469.3 799.7,473.3 800.7,479.0 C 801.6,484.7 801.9,492.7 801.9,498.0 C 801.9,503.3 801.2,507.0 800.5,511.0 C 799.9,515.0 799.0,518.5 798.1,522.0 C 797.2,525.5 796.3,528.3 794.9,532.0 C 793.5,535.7 791.6,540.2 789.7,544.0 C 787.7,547.8 785.6,551.5 783.2,555.0 C 780.9,558.5 777.9,562.4 775.7,565.0 C 773.5,567.5 771.9,568.8 770.0,570.3 C 768.1,571.7 766.0,573.0 764.0,573.8 C 762.0,574.5 759.8,574.8 758.0,574.7 C 756.2,574.6 754.0,573.2 753.2,572.9"/>
  <path d="M 427.2,332.6 C 435.3,335.8 465.9,347.4 476.0,351.8 C 486.1,356.1 484.2,356.0 488.0,358.8 C 491.8,361.7 497.0,367.2 498.8,368.8"/>
  <path d="M 409.4,398.8 C 410.0,397.5 412.2,393.1 412.9,391.0 C 413.7,388.9 413.8,387.5 413.7,386.0 C 413.7,384.5 413.5,383.4 412.7,382.0 C 411.9,380.6 410.4,378.7 408.9,377.5 C 407.5,376.2 406.0,375.3 404.0,374.4 C 402.0,373.5 400.7,372.8 397.0,371.9 C 393.3,371.1 385.7,369.8 382.0,369.3 C 378.3,368.8 382.2,368.5 375.0,369.1 C 367.8,369.6 348.3,371.3 339.0,372.4 C 329.7,373.6 325.2,374.7 319.0,376.0 C 312.8,377.3 310.0,377.6 302.0,380.0 C 294.0,382.4 278.2,387.8 271.0,390.4 C 263.8,393.1 263.5,393.6 259.0,396.0 C 254.5,398.5 248.7,401.7 244.0,405.0 C 239.3,408.4 233.9,413.3 231.0,416.0 C 228.1,418.7 228.0,419.2 226.6,421.0 C 225.2,422.8 224.3,423.5 222.6,427.0 C 220.9,430.5 217.9,437.0 216.4,442.0 C 214.8,447.0 214.0,451.5 213.4,457.0 C 212.9,462.5 212.7,469.0 213.1,475.0 C 213.6,481.0 214.6,487.0 216.0,493.0 C 217.4,499.0 219.4,505.8 221.5,511.0 C 223.5,516.2 226.5,521.0 228.2,524.0 C 230.0,526.9 230.9,527.5 232.2,528.7 C 233.5,529.9 234.7,530.8 236.0,531.4 C 237.3,532.0 238.7,532.3 239.9,532.2 C 241.1,532.0 242.2,531.6 243.0,530.4 C 243.8,529.2 244.6,527.9 244.8,525.0 C 245.0,522.1 244.0,516.8 244.0,513.0 C 244.0,509.2 243.9,506.0 244.7,502.0 C 245.5,498.0 247.0,493.3 248.6,489.0 C 250.3,484.7 252.5,480.2 254.8,476.0 C 257.1,471.8 259.3,468.3 262.5,464.0 C 265.7,459.7 270.5,454.0 274.2,450.1 C 278.0,446.1 281.4,443.5 285.0,440.5 C 288.6,437.5 292.8,434.4 296.0,432.2 C 299.2,430.0 300.0,429.5 304.0,427.3 C 308.0,425.2 313.7,422.0 320.0,419.3 C 326.3,416.7 333.3,413.8 342.0,411.4 C 350.7,409.1 362.2,406.9 372.0,405.4 C 381.8,404.0 396.0,403.2 400.8,402.8"/>
  <path d="M 503.2,382.9 C 505.3,382.6 512.7,381.5 516.0,381.2 C 519.3,380.9 521.0,381.0 523.0,381.0 C 525.0,381.0 524.5,380.8 528.0,381.2 C 531.5,381.6 537.5,382.0 544.0,383.1 C 550.5,384.3 558.3,385.8 567.0,387.9 C 575.7,390.1 587.3,393.3 596.0,396.0 C 604.7,398.8 612.7,401.8 619.0,404.2 C 625.3,406.6 628.7,408.0 634.0,410.4 C 639.3,412.9 646.2,416.3 651.0,418.9 C 655.8,421.4 657.7,422.4 663.0,425.8 C 668.3,429.2 678.2,435.9 683.0,439.4 C 687.8,442.8 689.0,444.0 692.0,446.5 C 695.0,448.9 698.0,451.6 701.0,454.3 C 704.0,457.1 706.9,459.9 709.8,463.0 C 712.7,466.1 715.8,469.7 718.5,473.0 C 721.3,476.3 724.3,480.0 726.5,483.0 C 728.7,486.0 730.1,488.2 731.9,491.0 C 733.7,493.8 734.7,495.2 737.2,500.0 C 739.7,504.8 744.9,515.3 746.9,520.0 C 749.0,524.7 748.7,524.8 749.6,528.0 C 750.5,531.2 751.6,535.8 752.3,539.0 C 753.0,542.2 753.4,544.8 753.7,547.0 C 754.0,549.2 754.0,549.0 754.0,552.0 C 754.0,555.0 754.1,562.0 753.8,565.0 C 753.6,567.9 752.8,569.0 752.6,569.8"/>
  <path d="M 497.8,383.5 C 495.8,384.3 491.3,386.9 486.0,388.5 C 480.7,390.2 475.7,391.6 466.0,393.4 C 456.3,395.2 437.1,398.3 428.0,399.6 C 418.9,400.8 414.0,400.8 411.2,401.0"/>
  <path d="M 401.1,405.1 C 400.4,405.8 399.1,407.4 396.9,409.1 C 394.7,410.9 397.0,410.0 388.0,415.5 C 379.0,421.1 353.2,436.0 343.0,442.2 C 332.8,448.4 332.3,449.0 327.0,452.7 C 321.7,456.3 315.7,460.6 311.0,464.1 C 306.3,467.7 304.5,468.9 299.0,473.9 C 293.5,478.9 283.6,488.3 278.0,494.0 C 272.4,499.7 269.0,503.7 265.5,508.0 C 261.9,512.3 259.2,516.2 256.7,520.0 C 254.3,523.8 252.8,526.2 250.8,531.0 C 248.8,535.8 246.0,543.3 244.8,549.0 C 243.7,554.7 243.7,560.0 244.1,565.0 C 244.4,570.0 245.2,573.7 246.7,579.0 C 248.3,584.3 251.4,592.5 253.3,597.0 C 255.3,601.5 256.5,603.2 258.3,606.0 C 260.0,608.8 261.9,611.5 263.9,614.0 C 265.9,616.5 268.0,618.9 270.0,621.0 C 272.0,623.1 274.0,624.9 276.0,626.4 C 278.0,627.9 280.2,629.2 282.0,630.0 C 283.8,630.9 285.5,631.3 287.0,631.4 C 288.5,631.6 289.5,631.3 291.0,630.8 C 292.4,630.3 295.0,628.9 295.8,628.5"/>
  <path d="M 575.3,463.8 C 573.2,461.2 565.6,452.0 562.8,448.0 C 560.0,444.0 559.5,442.0 558.6,440.0 C 557.8,438.0 557.9,437.2 557.8,436.0 C 557.7,434.8 557.8,434.0 558.1,433.0 C 558.5,432.1 558.8,431.2 559.6,430.3 C 560.5,429.4 561.7,428.3 563.1,427.5 C 564.4,426.7 566.0,426.1 568.0,425.5 C 570.0,425.0 571.8,424.2 575.0,424.2 C 578.2,424.2 582.3,424.5 587.0,425.5 C 591.7,426.5 597.3,427.9 603.0,430.2 C 608.7,432.5 615.7,436.0 621.0,439.1 C 626.3,442.2 630.2,445.1 635.0,448.6 C 639.8,452.2 643.8,455.0 650.0,460.6 C 656.2,466.2 666.0,475.9 672.0,482.0 C 677.9,488.1 680.8,491.5 685.6,497.0 C 690.3,502.5 692.2,504.7 700.2,515.0 C 708.2,525.3 726.4,550.3 733.3,559.0 C 740.3,567.7 739.9,565.6 742.0,567.4 C 744.1,569.2 744.6,569.2 745.9,569.8 C 747.2,570.4 749.2,570.7 749.8,570.9"/>
  <path d="M 498.2,437.0 C 500.8,437.5 504.9,436.5 514.0,440.1 C 523.1,443.7 543.0,454.3 553.0,458.6 C 563.0,462.9 570.3,464.7 573.8,465.9"/>
  <path d="M 491.9,445.9 C 487.8,449.4 478.6,459.6 467.0,466.9 C 455.4,474.3 429.7,486.0 422.2,489.8"/>
  <path d="M 420.4,487.8 C 421.4,485.3 425.3,476.5 426.5,473.0 C 427.8,469.5 427.6,468.7 427.7,467.0 C 427.9,465.3 427.8,464.3 427.4,463.0 C 427.1,461.7 426.4,460.3 425.4,459.2 C 424.5,458.1 423.2,457.1 422.0,456.4 C 420.7,455.8 419.7,455.5 418.0,455.3 C 416.3,455.1 415.7,454.5 412.0,455.2 C 408.3,456.0 401.0,457.9 396.0,459.8 C 391.0,461.8 387.5,463.5 382.0,466.8 C 376.5,470.1 369.5,474.6 363.0,479.7 C 356.5,484.7 348.7,491.7 343.2,497.1 C 337.7,502.5 334.3,506.8 330.2,512.0 C 326.1,517.2 321.6,523.2 318.4,528.0 C 315.1,532.8 313.5,535.7 310.8,541.0 C 308.0,546.3 304.3,554.0 302.1,560.0 C 299.8,566.0 298.5,570.8 297.2,577.0 C 295.9,583.2 294.5,591.3 294.2,597.0 C 293.9,602.7 294.8,607.5 295.3,611.0 C 295.8,614.5 296.9,616.7 297.2,617.8"/>
  <path d="M 593.2,474.2 C 597.7,475.8 611.2,480.1 620.0,483.4 C 628.8,486.8 638.5,490.9 646.0,494.3 C 653.5,497.8 659.3,501.0 665.0,504.3 C 670.7,507.6 675.7,510.9 680.0,514.0 C 684.3,517.2 686.5,518.7 691.0,523.1 C 695.5,527.4 703.1,535.0 707.3,540.0 C 711.5,545.0 713.4,548.3 716.1,553.0 C 718.8,557.7 721.6,564.2 723.3,568.0 C 725.0,571.8 725.3,573.2 726.1,576.0 C 726.9,578.8 727.6,582.3 728.1,585.0 C 728.6,587.7 728.8,589.2 728.9,592.0 C 729.1,594.8 729.3,598.0 729.0,602.0 C 728.7,606.0 728.1,611.8 727.1,616.0 C 726.0,620.2 725.2,622.3 722.7,627.0 C 720.3,631.7 716.2,638.7 712.2,644.0 C 708.2,649.3 702.7,655.0 699.0,658.7 C 695.3,662.4 692.8,664.0 690.0,666.1 C 687.2,668.2 684.5,669.9 682.0,671.4 C 679.5,672.8 677.1,673.9 675.0,674.7 C 672.9,675.5 670.2,675.8 669.2,676.0"/>
  <path d="M 591.3,476.2 C 591.6,476.7 592.1,478.0 592.9,479.1 C 593.7,480.3 593.6,480.5 596.1,483.0 C 598.6,485.5 603.5,489.7 608.0,494.0 C 612.5,498.4 617.6,503.2 622.8,509.0 C 628.0,514.8 634.7,523.2 639.1,529.0 C 643.5,534.8 646.6,539.8 649.3,544.0 C 652.0,548.2 652.7,549.5 655.1,554.0 C 657.5,558.5 661.7,566.7 663.7,571.0 C 665.8,575.3 666.1,576.0 667.6,580.0 C 669.0,584.0 671.3,590.3 672.6,595.0 C 673.9,599.7 674.6,603.8 675.4,608.0 C 676.1,612.2 676.6,615.7 676.9,620.0 C 677.2,624.3 677.0,630.5 677.0,634.0 C 677.0,637.5 677.1,637.5 676.7,641.0 C 676.2,644.5 675.1,651.5 674.3,655.0 C 673.6,658.5 673.3,658.9 672.2,662.0 C 671.0,665.1 668.1,671.8 667.3,673.8"/>
  <path d="M 407.8,498.4 C 404.5,500.3 394.5,505.6 388.0,509.7 C 381.5,513.8 374.8,518.5 369.0,522.9 C 363.2,527.3 357.8,531.9 353.0,536.2 C 348.2,540.5 344.4,544.4 340.2,549.0 C 336.0,553.6 331.4,559.3 327.9,564.0 C 324.3,568.7 322.1,571.7 318.9,577.0 C 315.7,582.3 312.0,589.2 308.8,596.0 C 305.6,602.8 301.4,614.2 299.9,617.8"/>
  <path d="M 548.8,535.8 C 547.9,533.7 544.4,526.6 543.1,523.0 C 541.9,519.4 541.3,516.5 541.2,514.0 C 541.0,511.5 541.3,509.8 542.3,508.1 C 543.3,506.3 544.9,504.6 547.0,503.6 C 549.2,502.5 552.0,501.8 555.0,501.8 C 558.0,501.8 561.7,502.5 565.0,503.8 C 568.3,505.1 571.8,507.2 575.0,509.4 C 578.2,511.6 580.3,513.1 584.0,517.0 C 587.7,521.0 593.3,526.8 597.3,533.0 C 601.3,539.2 604.9,546.5 608.1,554.0 C 611.3,561.5 613.5,568.5 616.3,578.0 C 619.1,587.5 623.5,605.3 625.0,610.8"/>
  <path d="M 411.2,502.2 C 409.9,504.2 406.4,509.5 403.3,514.0 C 400.2,518.5 397.7,522.2 392.5,529.0 C 387.3,535.8 378.5,546.5 371.9,555.0 C 365.3,563.5 357.4,574.2 353.1,580.0 C 348.9,585.8 348.9,586.2 346.6,590.0 C 344.3,593.8 341.0,599.7 339.3,603.0 C 337.5,606.3 337.3,607.0 336.0,610.0 C 334.8,613.0 332.9,617.5 331.7,621.0 C 330.5,624.5 329.5,628.2 328.8,631.0 C 328.0,633.8 327.7,635.7 327.3,638.0 C 326.8,640.3 326.4,642.8 326.2,645.0 C 326.0,647.2 325.7,647.2 326.0,651.0 C 326.3,654.8 327.7,665.0 328.0,667.8"/>
  <path d="M 494.2,506.0 C 496.8,506.9 501.2,505.8 510.0,511.1 C 518.8,516.4 540.7,533.2 546.8,537.6"/>
  <path d="M 489.9,514.9 C 486.7,520.4 477.0,538.9 470.6,548.0 C 464.1,557.1 454.4,565.8 451.2,569.3"/>
  <path d="M 491.4,515.2 C 491.5,515.7 491.8,516.8 491.9,518.1 C 492.0,519.4 492.1,520.0 492.0,523.0 C 491.8,526.0 491.2,525.5 491.0,536.0 C 490.9,546.5 490.9,576.3 491.1,586.0 C 491.2,595.7 491.7,590.5 491.9,594.0 C 492.0,597.5 491.9,603.5 492.1,607.0 C 492.2,610.5 492.7,612.7 492.9,615.0 C 493.1,617.3 492.5,613.8 493.2,621.0 C 493.9,628.2 496.4,650.5 497.3,658.0 C 498.2,665.5 497.8,661.8 498.5,666.0 C 499.1,670.2 500.1,676.3 501.5,683.0 C 502.8,689.7 505.3,700.8 506.4,706.0 C 507.6,711.2 507.2,709.5 508.4,714.0 C 509.7,718.5 512.6,728.3 514.0,733.0 C 515.5,737.7 515.7,738.5 517.1,742.0 C 518.4,745.5 520.9,751.5 521.9,754.0 C 523.0,756.4 523.0,756.0 523.5,756.8 C 524.0,757.6 524.7,758.5 525.0,758.8"/>
  <path d="M 449.0,567.8 C 448.7,565.1 448.3,554.6 447.1,551.3 C 446.0,548.0 444.0,548.3 442.0,547.9 C 440.0,547.5 437.8,547.8 435.0,548.7 C 432.2,549.7 428.7,551.3 425.0,553.7 C 421.3,556.1 418.2,557.6 413.0,563.1 C 407.8,568.7 398.9,578.9 393.9,587.0 C 388.8,595.1 385.4,603.7 382.7,612.0 C 379.9,620.3 378.2,629.5 377.3,637.0 C 376.4,644.5 376.4,649.7 377.4,657.0 C 378.4,664.3 382.3,676.8 383.3,680.8"/>
  <path d="M 569.2,556.5 C 573.3,560.1 585.0,568.7 593.9,578.0 C 602.9,587.3 618.0,606.4 622.8,612.1"/>
  <path d="M 567.2,558.2 C 567.5,558.8 566.2,557.4 569.1,562.1 C 571.9,566.7 580.6,579.5 584.5,586.0 C 588.5,592.5 589.8,595.0 592.7,601.0 C 595.6,607.0 599.3,615.2 601.9,622.0 C 604.5,628.8 606.7,635.5 608.3,642.0 C 610.0,648.5 610.9,655.8 611.7,661.0 C 612.5,666.2 612.7,670.0 612.9,673.0 C 613.1,676.0 613.0,676.3 612.8,679.0 C 612.6,681.7 612.1,686.3 611.7,689.0 C 611.3,691.7 610.9,693.2 610.4,695.0 C 609.8,696.8 609.7,697.4 608.4,700.0 C 607.1,702.6 603.5,709.0 602.5,710.8"/>
  <path d="M 441.8,581.6 C 440.9,582.3 438.3,583.8 436.1,586.1 C 433.9,588.3 432.2,590.0 428.6,595.0 C 425.0,600.0 418.6,608.8 414.4,616.0 C 410.2,623.2 407.7,628.2 403.4,638.0 C 399.2,647.8 392.2,667.8 389.1,675.0 C 386.0,682.2 385.7,680.1 385.0,681.1"/>
  <path d="M 444.0,583.2 C 443.8,584.0 447.6,577.1 443.0,588.0 C 438.5,599.0 422.3,635.3 416.8,649.0 C 411.3,662.7 411.6,664.8 410.2,670.0 C 408.7,675.2 408.7,676.3 408.1,680.0 C 407.6,683.7 407.1,688.7 407.0,692.0 C 406.9,695.3 406.8,696.4 407.3,700.0 C 407.8,703.6 409.5,711.5 409.9,713.8"/>
  <path d="M 298.7,629.2 C 300.9,633.3 307.2,647.3 311.7,654.0 C 316.2,660.7 323.5,666.6 325.8,669.1"/>
  <path d="M 647.1,665.8 C 648.8,667.3 654.1,673.3 657.0,675.1 C 660.0,676.9 663.5,676.2 664.8,676.4"/>
  <path d="M 644.6,666.2 C 643.3,670.8 643.4,686.2 636.7,694.0 C 630.0,701.8 609.6,709.8 604.2,713.0"/>
  <path d="M 328.8,671.2 C 334.0,674.8 352.6,689.1 360.0,692.8 C 367.4,696.6 369.4,694.3 373.0,693.5 C 376.6,692.7 380.3,689.0 381.8,688.1"/>
  <path d="M 384.9,688.2 C 387.0,691.3 393.8,702.4 397.6,707.0 C 401.5,711.6 406.1,714.2 407.8,715.6"/>
  <path d="M 600.8,713.7 C 593.2,717.1 565.0,729.0 555.0,734.1 C 545.0,739.2 545.6,740.1 541.0,744.2 C 536.4,748.3 529.5,756.4 527.2,758.8"/>
  <path d="M 411.2,717.2 C 412.3,718.2 415.9,721.7 418.0,723.4 C 420.1,725.1 416.0,723.4 424.0,727.2 C 432.0,730.9 454.8,740.5 466.0,745.8 C 477.2,751.1 484.7,755.2 491.0,758.9 C 497.3,762.6 499.5,764.5 504.0,767.9 C 508.5,771.4 515.5,777.6 517.8,779.6"/>
  <path d="M 527.5,768.2 C 527.5,770.0 528.2,776.6 527.8,778.9 C 527.4,781.1 526.0,781.2 524.9,781.6 C 523.8,782.1 521.8,781.7 521.2,781.7"/>
</g>
</svg>