<svg xmlns="http://www.w3.org/2000/svg" viewBox="0 0 1024 1024" width="1024" height="1024">
<g fill="none" stroke="#000000" stroke-width="5.6" stroke-linecap="round" stroke-linejoin="round">
  <path d="M 652.0,214.0 C 650.0,226.0 642.0,274.0 640.0,286.0"/>
  <path d="M 519.0,230.0 C 524.2,241.3 545.0,286.3 550.0,298.0 C 555.0,309.7 549.2,299.7 549.0,300.0"/>
  <path d="M 777.0,270.0 C 768.3,279.2 733.7,315.8 725.0,325.0"/>
  <path d="M 844.0,395.0 C 842.7,395.5 848.5,395.7 836.0,398.0 C 823.5,400.3 780.2,407.2 769.0,409.0"/>
  <path d="M 555.0,429.0 C 557.3,427.0 565.0,420.0 569.0,417.0 C 573.0,414.0 575.5,412.7 579.0,411.0 C 582.5,409.3 587.7,408.2 590.0,407.0 C 592.3,405.8 587.7,405.2 593.0,404.0 C 598.3,402.8 611.7,400.2 622.0,400.0 C 632.3,399.8 646.0,401.2 655.0,403.0 C 664.0,404.8 669.5,407.7 676.0,411.0 C 682.5,414.3 688.0,417.8 694.0,423.0 C 700.0,428.2 707.2,435.2 712.0,442.0 C 716.8,448.8 720.7,457.0 723.0,464.0 C 725.3,471.0 726.0,478.5 726.0,484.0 C 726.0,489.5 724.2,493.7 723.0,497.0 C 721.8,500.3 721.2,501.5 719.0,504.0 C 716.8,506.5 713.2,510.2 710.0,512.0 C 706.8,513.8 703.3,514.7 700.0,515.0 C 696.7,515.3 692.7,514.8 690.0,514.0 C 687.3,513.2 685.3,511.2 684.0,510.0 C 682.7,508.8 682.3,508.7 682.0,507.0 C 681.7,505.3 681.7,502.0 682.0,500.0 C 682.3,498.0 682.7,496.8 684.0,495.0 C 685.3,493.2 686.5,491.3 690.0,489.0 C 693.5,486.7 699.3,483.0 705.0,481.0 C 710.7,479.0 720.8,477.7 724.0,477.0"/>
  <path d="M 540.0,328.0 C 541.3,326.8 542.7,324.0 548.0,321.0 C 553.3,318.0 565.2,312.7 572.0,310.0 C 578.8,307.3 582.0,306.3 589.0,305.0 C 596.0,303.7 606.5,302.3 614.0,302.0 C 621.5,301.7 627.2,302.2 634.0,303.0 C 640.8,303.8 646.7,304.2 655.0,307.0 C 663.3,309.8 677.2,316.5 684.0,320.0 C 690.8,323.5 690.2,323.0 696.0,328.0 C 701.8,333.0 713.5,344.0 719.0,350.0 C 724.5,356.0 725.3,357.8 729.0,364.0 C 732.7,370.2 737.8,379.3 741.0,387.0 C 744.2,394.7 746.3,402.8 748.0,410.0 C 749.7,417.2 750.5,422.8 751.0,430.0 C 751.5,437.2 751.5,446.8 751.0,453.0 C 750.5,459.2 748.5,463.2 748.0,467.0 C 747.5,470.8 751.7,474.5 748.0,476.0 C 744.3,477.5 729.7,476.0 726.0,476.0"/>
  <path d="M 539.0,329.0 C 532.0,326.5 511.5,317.0 497.0,314.0 C 482.5,311.0 465.3,310.3 452.0,311.0 C 438.7,311.7 427.8,314.3 417.0,318.0 C 406.2,321.7 398.3,324.0 387.0,333.0 C 375.7,342.0 358.3,356.8 349.0,372.0 C 339.7,387.2 343.0,415.5 331.0,424.0 C 319.0,432.5 291.0,420.8 277.0,423.0 C 263.0,425.2 256.0,430.8 247.0,437.0 C 238.0,443.2 229.8,449.2 223.0,460.0 C 216.2,470.8 208.7,490.2 206.0,502.0 C 203.3,513.8 204.5,521.0 207.0,531.0 C 209.5,541.0 214.3,553.0 221.0,562.0 C 227.7,571.0 235.8,579.2 247.0,585.0 C 258.2,590.8 203.0,595.2 288.0,597.0 C 373.0,598.8 674.2,597.7 757.0,596.0 C 839.8,594.3 777.5,590.8 785.0,587.0 C 792.5,583.2 797.7,577.8 802.0,573.0 C 806.3,568.2 809.0,564.7 811.0,558.0 C 813.0,551.3 814.8,541.2 814.0,533.0 C 813.2,524.8 809.8,515.8 806.0,509.0 C 802.2,502.2 800.5,497.5 791.0,492.0 C 781.5,486.5 756.0,478.7 749.0,476.0"/>
  <path d="M 540.0,329.0 C 540.2,329.5 538.5,329.7 541.0,332.0 C 543.5,334.3 549.5,337.7 555.0,343.0 C 560.5,348.3 568.5,356.3 574.0,364.0 C 579.5,371.7 585.0,382.3 588.0,389.0 C 591.0,395.7 591.3,401.5 592.0,404.0"/>
  <path d="M 331.0,425.0 C 331.0,427.5 330.2,434.8 331.0,440.0 C 331.8,445.2 333.8,451.8 336.0,456.0 C 338.2,460.2 340.5,463.5 344.0,465.0 C 347.5,466.5 354.3,465.7 357.0,465.0 C 359.7,464.3 359.3,462.8 360.0,461.0 C 360.7,459.2 361.7,457.0 361.0,454.0 C 360.3,451.0 358.8,446.7 356.0,443.0 C 353.2,439.3 348.0,434.5 344.0,432.0 C 340.0,429.5 334.0,428.7 332.0,428.0"/>
  <path d="M 404.0,619.0 C 402.3,619.0 402.5,615.8 399.0,622.0 C 395.5,628.2 386.2,648.8 383.0,656.0 C 379.8,663.2 380.5,660.3 380.0,665.0 C 379.5,669.7 379.3,679.5 380.0,684.0 C 380.7,688.5 382.3,689.7 384.0,692.0 C 385.7,694.3 388.0,696.5 390.0,698.0 C 392.0,699.5 392.8,700.3 396.0,701.0 C 399.2,701.7 405.3,702.3 409.0,702.0 C 412.7,701.7 415.0,701.0 418.0,699.0 C 421.0,697.0 425.0,693.0 427.0,690.0 C 429.0,687.0 429.5,683.8 430.0,681.0 C 430.5,678.2 430.7,677.0 430.0,673.0 C 429.3,669.0 429.5,665.5 426.0,657.0 C 422.5,648.5 412.7,628.3 409.0,622.0 C 405.3,615.7 405.7,619.0 404.0,619.0 Z"/>
  <path d="M 507.0,619.0 C 508.8,619.2 509.3,616.8 513.0,623.0 C 516.7,629.2 525.7,648.0 529.0,656.0 C 532.3,664.0 532.3,666.5 533.0,671.0 C 533.7,675.5 533.7,679.5 533.0,683.0 C 532.3,686.5 531.2,689.2 529.0,692.0 C 526.8,694.8 522.8,698.3 520.0,700.0 C 517.2,701.7 515.5,701.8 512.0,702.0 C 508.5,702.2 501.8,701.5 499.0,701.0 C 496.2,700.5 497.2,700.8 495.0,699.0 C 492.8,697.2 488.0,692.8 486.0,690.0 C 484.0,687.2 483.5,685.7 483.0,682.0 C 482.5,678.3 482.5,672.2 483.0,668.0 C 483.5,663.8 482.8,664.7 486.0,657.0 C 489.2,649.3 498.5,628.3 502.0,622.0 C 505.5,615.7 505.2,618.8 507.0,619.0 Z"/>
  <path d="M 609.0,619.0 C 610.8,618.8 611.5,616.5 615.0,622.0 C 618.5,627.5 626.5,643.3 630.0,652.0 C 633.5,660.7 635.0,669.0 636.0,674.0 C 637.0,679.0 636.5,679.3 636.0,682.0 C 635.5,684.7 635.0,687.2 633.0,690.0 C 631.0,692.8 627.0,697.0 624.0,699.0 C 621.0,701.0 618.7,701.7 615.0,702.0 C 611.3,702.3 605.2,701.7 602.0,701.0 C 598.8,700.3 598.2,699.7 596.0,698.0 C 593.8,696.3 590.8,693.7 589.0,691.0 C 587.2,688.3 585.7,686.0 585.0,682.0 C 584.3,678.0 584.3,671.5 585.0,667.0 C 585.7,662.5 585.8,662.3 589.0,655.0 C 592.2,647.7 600.7,629.0 604.0,623.0 C 607.3,617.0 607.2,619.2 609.0,619.0 Z"/>
</g>
</svg>