<svg xmlns="http://www.w3.org/2000/svg" viewBox="0 0 1024 1024" width="1024" height="1024">
<g fill="#000000" fill-rule="evenodd" stroke="none">
  <path d="M 467.0,187.0 C 463.9,190.1 457.6,186.2 454.0,188.0 C 445.0,192.5 431.9,188.5 423.0,193.0 C 409.7,199.6 393.4,200.3 380.0,207.0 C 367.0,213.5 355.2,222.4 342.0,229.0 C 335.1,232.4 328.6,240.4 323.0,246.0 C 303.0,266.0 292.5,286.0 281.0,309.0 C 277.7,315.7 275.0,339.1 273.0,343.0 C 268.6,351.7 271.0,366.7 271.0,377.0 C 271.0,379.9 269.7,386.5 271.0,389.0 C 275.8,398.6 274.2,411.3 279.0,421.0 C 280.3,423.6 289.0,436.5 289.0,438.0 C 289.0,440.7 275.8,441.1 274.0,442.0 C 267.1,445.5 257.8,446.2 252.0,452.0 C 249.8,454.2 246.2,457.3 248.0,461.0 C 249.7,464.3 253.2,467.2 256.0,470.0 C 258.3,472.3 261.2,476.6 264.0,478.0 C 273.8,482.9 283.3,488.2 293.0,493.0 C 299.2,496.1 307.8,493.9 314.0,497.0 C 316.1,498.1 321.6,497.0 324.0,497.0 C 332.4,497.0 345.9,498.6 353.0,495.0 C 355.6,493.7 359.1,491.0 363.0,493.0 C 370.2,496.6 379.8,495.4 387.0,499.0 C 395.4,503.2 404.5,505.8 413.0,510.0 C 414.3,510.7 416.7,509.3 418.0,510.0 C 423.5,512.8 427.6,518.3 433.0,521.0 C 436.0,522.5 441.6,530.1 443.0,533.0 C 445.9,538.8 451.1,543.2 454.0,549.0 C 456.1,553.1 453.2,575.6 451.0,580.0 C 447.2,587.7 445.9,596.2 442.0,604.0 C 441.3,605.4 442.8,607.4 444.0,608.0 C 446.7,609.3 450.2,603.6 451.0,602.0 C 456.4,591.3 453.5,577.3 466.0,571.0 C 466.1,571.0 475.1,574.5 476.0,575.0 C 481.1,577.5 494.2,575.0 500.0,575.0 C 525.2,575.0 554.3,559.3 566.0,536.0 C 570.3,527.4 558.7,526.9 555.0,525.0 C 545.7,520.4 516.8,526.1 509.0,530.0 C 503.3,532.9 497.7,536.1 492.0,539.0 C 491.1,539.5 482.0,548.1 482.0,545.0 C 482.0,540.9 489.2,537.6 491.0,534.0 C 497.2,521.7 519.0,508.5 530.0,503.0 C 532.7,501.6 540.9,493.5 544.0,495.0 C 548.5,497.2 548.8,505.4 554.0,508.0 C 560.2,511.1 565.9,514.9 572.0,518.0 C 585.6,524.8 616.5,523.1 624.0,508.0 C 626.4,503.2 622.7,495.5 621.0,492.0 C 620.2,490.4 615.0,487.7 615.0,486.0 C 615.0,483.7 621.9,481.3 623.0,479.0 C 627.6,469.9 633.4,460.8 628.0,450.0 C 621.0,436.1 605.7,442.0 596.0,442.0 C 593.6,442.0 595.8,429.6 595.0,428.0 C 591.6,421.1 586.8,416.4 580.0,413.0 C 570.8,408.4 558.6,417.4 553.0,423.0 C 552.0,424.0 546.4,431.0 546.0,431.0 C 543.6,431.0 539.3,424.1 537.0,423.0 C 528.2,418.6 513.0,420.9 508.0,431.0 C 500.3,446.3 503.8,458.5 511.0,473.0 C 514.2,479.4 524.5,486.2 530.0,489.0 C 531.0,489.5 535.8,491.5 535.0,493.0 C 533.7,495.6 523.7,498.6 521.0,500.0 C 511.3,504.8 502.0,514.0 494.0,522.0 C 491.5,524.5 486.6,527.8 485.0,531.0 C 482.6,535.8 477.4,539.2 475.0,544.0 C 472.2,549.6 476.4,548.6 469.0,556.0 C 467.8,557.2 461.6,570.1 460.0,567.0 C 458.3,563.7 461.0,557.8 461.0,555.0 C 461.0,550.1 462.5,540.9 465.0,536.0 C 467.5,531.0 464.4,523.1 467.0,518.0 C 468.5,515.1 465.5,509.9 467.0,507.0 C 468.9,503.3 466.2,497.6 468.0,494.0 C 470.8,488.4 470.0,469.2 470.0,462.0 C 470.0,457.6 468.1,447.8 470.0,444.0 C 471.9,440.3 477.5,437.5 481.0,434.0 C 492.6,422.4 505.4,414.8 519.0,408.0 C 526.4,404.3 535.6,403.7 543.0,400.0 C 544.8,399.1 550.4,401.0 553.0,401.0 C 563.0,401.0 573.0,401.0 583.0,401.0 C 585.9,401.0 592.5,402.3 595.0,401.0 C 600.2,398.4 607.8,400.6 613.0,398.0 C 625.2,391.9 644.8,388.5 652.0,374.0 C 653.9,370.3 662.5,364.1 660.0,359.0 C 656.6,352.3 644.7,350.7 638.0,354.0 C 632.5,356.8 623.6,353.2 618.0,356.0 C 609.2,360.4 594.0,363.0 582.0,369.0 C 578.2,370.9 561.7,381.4 561.0,380.0 C 560.2,378.4 563.4,377.1 564.0,376.0 C 566.5,371.1 570.5,367.0 573.0,362.0 C 575.7,356.7 578.3,351.4 581.0,346.0 C 581.9,344.2 581.8,340.1 584.0,339.0 C 587.2,337.4 590.8,339.9 593.0,341.0 C 599.2,344.1 611.4,339.3 616.0,337.0 C 626.9,331.6 633.3,317.4 638.0,308.0 C 638.8,306.3 638.2,303.7 639.0,302.0 C 640.3,299.4 641.5,289.0 640.0,286.0 C 637.2,280.4 628.8,279.6 628.0,278.0 C 625.1,272.1 630.9,265.9 621.0,261.0 C 614.9,258.0 609.1,262.5 604.0,265.0 C 601.1,266.4 596.5,262.3 593.0,264.0 C 579.0,271.0 574.0,285.0 568.0,297.0 C 565.0,302.9 566.3,318.5 569.0,324.0 C 570.2,326.5 579.4,333.2 578.0,336.0 C 574.1,343.8 570.9,352.1 567.0,360.0 C 563.9,366.2 558.1,370.8 555.0,377.0 C 552.4,382.1 547.8,391.1 542.0,394.0 C 534.3,397.8 524.7,398.2 517.0,402.0 C 510.2,405.4 503.8,409.6 497.0,413.0 C 490.5,416.3 484.5,422.5 479.0,428.0 C 477.3,429.7 473.4,435.0 471.0,435.0 C 469.7,435.0 469.0,423.2 469.0,420.0 C 469.0,415.1 468.9,399.8 467.0,396.0 C 466.4,394.8 464.6,394.2 464.0,393.0 C 462.3,389.7 464.7,384.5 463.0,381.0 C 462.2,379.4 461.2,369.0 464.0,369.0 C 465.1,369.0 466.9,372.5 468.0,373.0 C 472.4,375.2 475.6,379.8 480.0,382.0 C 500.8,392.4 523.9,389.3 535.0,367.0 C 538.8,359.4 532.8,343.8 528.0,339.0 C 526.6,337.6 517.1,329.7 518.0,328.0 C 519.5,324.9 535.4,319.1 539.0,312.0 C 543.3,303.4 550.5,289.9 545.0,279.0 C 543.7,276.5 541.3,274.6 540.0,272.0 C 539.0,270.0 536.4,266.2 534.0,265.0 C 527.9,261.9 521.0,261.0 515.0,258.0 C 511.7,256.3 499.8,259.6 497.0,261.0 C 495.9,261.5 491.0,264.5 490.0,264.0 C 489.5,263.7 488.2,246.4 487.0,244.0 C 481.1,232.2 473.0,227.5 462.0,222.0 C 449.4,215.7 429.0,233.1 424.0,243.0 C 421.9,247.3 422.1,252.8 420.0,257.0 C 419.8,257.4 419.5,258.0 419.0,258.0 C 417.3,258.0 414.6,252.8 413.0,252.0 C 407.3,249.2 401.6,246.8 396.0,244.0 C 393.3,242.7 385.2,243.9 383.0,245.0 C 379.4,246.8 374.7,247.1 371.0,249.0 C 361.1,254.0 358.1,263.8 354.0,272.0 C 352.8,274.4 350.6,283.2 352.0,286.0 C 354.7,291.3 355.3,297.6 358.0,303.0 C 359.1,305.1 369.1,311.7 368.0,314.0 C 367.2,315.5 356.4,319.3 353.0,321.0 C 335.8,329.6 332.8,353.5 340.0,368.0 C 348.0,384.0 365.9,386.0 382.0,386.0 C 385.4,386.0 392.3,382.7 395.0,384.0 C 397.8,385.4 395.6,398.2 397.0,401.0 C 400.6,408.1 403.5,416.8 412.0,421.0 C 415.3,422.7 419.8,422.4 423.0,424.0 C 424.8,424.9 430.7,426.2 433.0,425.0 C 439.6,421.7 449.8,420.4 454.0,412.0 C 454.5,411.0 459.6,401.0 460.0,401.0 C 461.7,401.0 463.0,416.5 463.0,422.0 C 463.0,429.0 466.9,440.2 464.0,446.0 C 462.5,448.9 457.7,449.7 456.0,453.0 C 452.3,460.4 446.6,466.7 443.0,474.0 C 438.8,482.3 439.1,492.7 435.0,501.0 C 434.1,502.8 435.7,515.0 433.0,515.0 C 431.5,515.0 427.6,509.8 426.0,509.0 C 421.8,506.9 423.8,504.5 422.0,501.0 C 419.4,495.9 414.1,489.1 410.0,485.0 C 404.1,479.1 397.2,469.6 390.0,466.0 C 385.3,463.6 379.7,462.4 377.0,457.0 C 375.9,454.9 378.1,451.1 377.0,449.0 C 373.2,441.4 371.8,432.6 368.0,425.0 C 361.0,411.0 348.6,395.2 344.0,386.0 C 339.5,377.0 319.9,363.9 312.0,360.0 C 309.5,358.8 303.2,354.4 300.0,356.0 C 293.3,359.4 294.0,372.4 294.0,379.0 C 294.0,395.2 300.3,409.5 307.0,423.0 C 309.4,427.8 314.6,431.1 317.0,436.0 C 318.4,438.8 309.3,438.0 308.0,438.0 C 305.5,438.0 297.4,439.7 296.0,439.0 C 294.4,438.2 292.8,432.6 292.0,431.0 C 289.9,426.8 287.1,423.1 285.0,419.0 C 283.8,416.7 284.2,413.3 283.0,411.0 C 269.4,383.8 278.7,327.6 291.0,303.0 C 306.7,271.6 330.4,238.8 364.0,222.0 C 379.4,214.3 396.8,209.6 410.0,203.0 C 421.2,197.4 446.7,198.7 456.0,194.0 C 459.2,192.4 464.8,195.6 468.0,194.0 C 472.2,191.9 503.8,191.9 508.0,194.0 C 511.3,195.7 516.5,193.3 520.0,195.0 C 524.5,197.2 531.4,194.7 536.0,197.0 C 540.5,199.2 547.5,196.8 552.0,199.0 C 559.0,202.5 568.1,201.5 575.0,205.0 C 587.8,211.4 602.2,214.6 615.0,221.0 C 632.8,229.9 648.8,242.8 664.0,258.0 C 669.6,263.6 677.6,270.1 681.0,277.0 C 685.0,285.0 691.0,292.0 695.0,300.0 C 698.7,307.4 701.3,315.5 705.0,323.0 C 709.8,332.6 712.0,352.4 712.0,364.0 C 712.0,367.4 714.8,373.4 713.0,377.0 C 708.9,385.2 712.5,412.0 716.0,419.0 C 724.5,436.1 742.5,452.0 750.0,467.0 C 753.0,473.1 764.3,481.5 760.0,490.0 C 753.1,503.9 730.1,500.8 724.0,513.0 C 718.3,524.4 733.3,535.3 729.0,544.0 C 726.7,548.6 719.5,552.7 715.0,555.0 C 711.6,556.7 705.3,552.4 703.0,557.0 C 702.3,558.4 703.8,560.4 705.0,561.0 C 711.9,564.4 719.1,557.2 724.0,567.0 C 727.8,574.7 717.8,584.5 715.0,590.0 C 707.9,604.2 724.0,633.5 705.0,643.0 C 671.2,659.9 628.4,635.8 594.0,653.0 C 571.1,664.5 566.0,705.6 566.0,729.0 C 566.0,735.2 564.4,744.7 567.0,750.0 C 568.4,752.7 565.2,756.1 569.0,758.0 C 571.9,759.5 575.1,753.3 574.0,751.0 C 569.8,742.7 572.0,728.9 572.0,719.0 C 572.0,696.0 580.7,666.6 602.0,656.0 C 610.3,651.8 638.0,649.5 647.0,654.0 C 649.1,655.1 652.9,652.9 655.0,654.0 C 658.8,655.9 680.2,656.9 684.0,655.0 C 686.1,653.9 689.9,656.1 692.0,655.0 C 700.1,651.0 711.8,649.5 717.0,639.0 C 719.5,634.0 724.3,619.6 721.0,613.0 C 719.8,610.6 717.6,601.8 719.0,599.0 C 722.6,591.8 726.3,584.4 730.0,577.0 C 730.7,575.5 730.7,566.5 730.0,565.0 C 729.1,563.3 722.0,559.0 723.0,557.0 C 724.3,554.5 732.7,550.7 735.0,546.0 C 740.6,534.8 724.9,525.2 730.0,515.0 C 731.5,512.1 738.4,511.3 741.0,510.0 C 749.6,505.7 760.9,502.2 766.0,492.0 C 771.2,481.6 759.6,472.2 756.0,465.0 C 751.0,455.1 740.0,448.0 735.0,438.0 C 731.7,431.3 726.3,425.7 723.0,419.0 C 720.8,414.6 720.2,409.4 718.0,405.0 C 715.4,399.8 719.0,380.9 719.0,375.0 C 719.0,355.7 717.1,332.2 709.0,316.0 C 704.5,307.1 700.5,298.0 696.0,289.0 C 692.8,282.6 687.2,277.4 684.0,271.0 C 681.5,266.0 675.1,261.1 671.0,257.0 C 660.3,246.3 649.6,234.3 637.0,228.0 C 626.4,222.7 614.1,214.1 602.0,208.0 C 565.2,189.6 513.0,187.0 468.0,187.0 Z M 533.0,531.0 C 535.6,528.4 558.7,530.5 560.0,533.0 C 560.3,533.7 558.3,537.3 558.0,538.0 C 548.1,557.8 515.8,569.0 495.0,569.0 C 490.1,569.0 473.0,570.1 471.0,566.0 C 469.5,562.9 477.2,554.4 480.0,553.0 C 481.1,552.5 482.9,553.5 484.0,553.0 C 487.7,551.1 490.2,546.9 494.0,545.0 C 505.7,539.2 518.1,531.0 532.0,531.0 Z M 605.0,490.0 C 608.3,486.7 611.6,490.6 614.0,493.0 C 618.8,497.8 618.8,503.4 616.0,509.0 C 614.2,512.7 608.0,512.5 605.0,514.0 C 593.8,519.6 576.0,512.5 567.0,508.0 C 565.4,507.2 555.0,503.1 555.0,501.0 C 555.0,499.5 568.3,500.0 573.0,500.0 C 583.7,500.0 596.5,498.5 604.0,491.0 Z M 582.0,487.0 C 583.6,485.4 594.7,485.8 597.0,487.0 C 597.4,487.2 598.0,487.5 598.0,488.0 C 598.0,489.8 586.4,491.3 585.0,492.0 C 577.8,495.6 566.6,494.0 558.0,494.0 C 556.9,494.0 550.0,494.7 550.0,493.0 C 550.0,492.4 566.7,487.0 568.0,487.0 C 572.3,487.0 576.7,487.0 581.0,487.0 Z M 581.0,456.0 C 588.3,448.7 578.0,468.0 578.0,468.0 C 576.7,470.7 568.3,479.8 566.0,481.0 C 563.7,482.2 560.3,481.9 558.0,483.0 C 556.8,483.6 552.4,486.7 551.0,486.0 C 549.7,485.4 553.3,476.8 555.0,476.0 C 563.2,471.9 573.4,462.6 580.0,456.0 Z M 462.0,455.0 C 464.8,452.2 464.0,459.3 464.0,461.0 C 464.0,468.5 463.0,474.6 463.0,482.0 C 463.0,488.8 462.5,512.1 460.0,517.0 C 458.6,519.8 460.5,524.1 459.0,527.0 C 458.1,528.8 459.0,542.0 457.0,542.0 C 456.2,542.0 449.4,530.4 448.0,529.0 C 445.2,526.2 441.7,523.3 440.0,520.0 C 438.3,516.6 440.5,504.9 442.0,502.0 C 444.3,497.4 442.7,490.6 445.0,486.0 C 450.1,475.8 453.2,464.8 462.0,456.0 Z M 337.0,449.0 C 339.7,446.3 345.4,449.7 348.0,451.0 C 350.6,452.3 368.5,457.7 371.0,459.0 C 375.3,461.1 378.1,473.0 375.0,473.0 C 372.2,473.0 365.6,469.3 363.0,468.0 C 359.1,466.1 355.9,463.0 352.0,461.0 C 346.9,458.5 342.3,454.3 338.0,450.0 Z M 545.0,448.0 C 547.2,445.8 548.2,450.5 549.0,452.0 C 550.9,455.9 549.7,471.6 548.0,475.0 C 547.6,475.8 546.2,481.0 545.0,481.0 C 543.0,481.0 544.5,476.0 544.0,475.0 C 540.1,467.2 545.0,456.8 545.0,449.0 Z M 604.0,447.0 C 609.8,441.2 621.6,452.2 624.0,457.0 C 627.2,463.3 615.8,480.1 610.0,483.0 C 606.9,484.6 593.3,480.0 589.0,480.0 C 585.3,480.0 577.9,482.5 575.0,481.0 C 573.2,480.1 584.9,469.2 586.0,467.0 C 592.2,454.6 587.5,447.0 603.0,447.0 Z M 288.0,446.0 C 289.9,444.1 295.6,444.3 297.0,447.0 C 299.7,452.5 308.8,463.9 315.0,467.0 C 323.3,471.2 329.8,478.9 338.0,483.0 C 339.1,483.6 349.0,487.1 349.0,488.0 C 349.0,490.0 343.4,490.0 342.0,490.0 C 335.0,490.0 327.5,491.0 320.0,491.0 C 300.2,491.0 263.7,478.3 254.0,459.0 C 253.0,457.1 259.9,454.5 261.0,454.0 C 268.2,450.4 278.6,446.0 287.0,446.0 Z M 303.0,445.0 C 305.4,442.6 313.5,444.0 317.0,444.0 C 320.3,444.0 325.2,444.6 328.0,446.0 C 330.6,447.3 332.6,452.6 335.0,455.0 C 341.7,461.7 349.1,468.0 357.0,472.0 C 361.9,474.5 374.5,482.3 381.0,479.0 C 386.4,476.3 376.0,466.0 388.0,472.0 C 395.2,475.6 405.6,487.2 409.0,494.0 C 410.2,496.4 415.0,499.3 415.0,502.0 C 415.0,504.0 403.3,498.7 402.0,498.0 C 394.5,494.2 385.5,493.7 378.0,490.0 C 371.6,486.8 362.4,489.2 356.0,486.0 C 354.4,485.2 353.6,482.8 352.0,482.0 C 343.7,477.9 335.4,473.2 327.0,469.0 C 323.5,467.3 321.5,462.8 318.0,461.0 C 314.9,459.5 303.0,449.7 303.0,446.0 Z M 523.0,428.0 C 527.1,423.9 540.8,431.6 543.0,436.0 C 544.6,439.3 541.1,440.8 540.0,443.0 C 538.1,446.9 537.0,455.6 537.0,460.0 C 537.0,466.4 538.0,473.3 538.0,479.0 C 538.0,481.0 539.6,485.2 538.0,486.0 C 535.4,487.3 528.3,480.1 526.0,479.0 C 517.3,474.7 505.5,454.0 510.0,445.0 C 512.8,439.4 512.4,428.0 522.0,428.0 Z M 569.0,420.0 C 576.2,412.8 586.5,425.0 589.0,430.0 C 590.5,433.0 589.3,443.5 588.0,446.0 C 586.2,449.6 583.5,446.8 581.0,448.0 C 577.0,450.0 574.0,454.0 570.0,456.0 C 567.7,457.1 556.9,469.0 556.0,469.0 C 553.2,469.0 556.5,452.9 555.0,450.0 C 553.9,447.8 547.9,438.1 549.0,436.0 C 551.6,430.7 562.2,420.0 568.0,420.0 Z M 302.0,364.0 C 306.1,359.9 321.7,374.8 326.0,377.0 C 342.8,385.4 355.6,416.3 363.0,431.0 C 364.0,433.1 371.5,451.0 371.0,452.0 C 369.9,454.2 366.3,451.7 365.0,451.0 C 357.8,447.4 350.1,445.5 343.0,442.0 C 338.1,439.5 330.9,441.9 325.0,439.0 C 323.1,438.0 324.7,437.3 324.0,436.0 C 322.2,432.4 318.8,429.6 317.0,426.0 C 313.7,419.4 309.3,413.6 306.0,407.0 C 302.4,399.8 303.6,390.2 300.0,383.0 C 297.3,377.7 302.0,369.6 302.0,365.0 Z M 640.0,360.0 C 641.4,358.6 651.9,357.8 653.0,360.0 C 654.8,363.5 642.3,377.3 639.0,379.0 C 619.2,388.9 603.1,395.0 579.0,395.0 C 571.7,395.0 564.3,395.0 557.0,395.0 C 555.9,395.0 550.0,395.7 550.0,394.0 C 550.0,390.2 566.3,385.4 569.0,384.0 C 593.0,372.0 609.3,360.0 639.0,360.0 Z M 441.0,347.0 C 447.5,340.5 453.2,357.4 455.0,361.0 C 457.0,365.1 454.0,371.9 456.0,376.0 C 461.2,386.3 453.7,408.2 444.0,413.0 C 437.5,416.2 429.0,422.0 421.0,418.0 C 417.5,416.2 410.0,414.1 408.0,410.0 C 404.1,402.3 398.2,388.5 403.0,379.0 C 403.4,378.1 413.1,375.4 416.0,374.0 C 427.3,368.4 434.9,354.1 441.0,348.0 Z M 428.0,342.0 C 429.8,340.2 436.2,343.7 435.0,346.0 C 431.4,353.2 424.4,361.3 417.0,365.0 C 415.3,365.9 409.9,372.0 408.0,371.0 C 405.0,369.5 410.2,365.5 411.0,364.0 C 414.7,356.6 420.8,349.2 427.0,343.0 Z M 505.0,331.0 C 509.2,326.8 511.8,333.4 515.0,335.0 C 522.9,339.0 533.8,355.4 529.0,365.0 C 521.6,379.8 504.0,387.0 488.0,379.0 C 481.9,376.0 476.8,369.9 471.0,367.0 C 464.3,363.6 454.0,352.6 454.0,345.0 C 454.0,343.9 460.9,337.6 462.0,337.0 C 469.6,333.2 495.0,341.0 504.0,332.0 Z M 477.0,324.0 C 480.9,320.1 489.8,325.0 494.0,325.0 C 494.9,325.0 500.0,325.9 500.0,327.0 C 500.0,329.5 494.2,328.4 493.0,329.0 C 490.1,330.4 468.5,332.7 465.0,331.0 C 457.4,327.2 472.3,324.0 476.0,324.0 Z M 372.0,320.0 C 373.2,318.8 378.3,318.2 380.0,319.0 C 381.7,319.8 381.9,322.9 384.0,324.0 C 388.9,326.5 394.0,328.5 399.0,331.0 C 402.8,332.9 410.7,335.0 415.0,335.0 C 416.3,335.0 425.0,334.3 425.0,336.0 C 425.0,339.4 418.5,342.1 417.0,345.0 C 413.0,353.0 405.0,359.0 401.0,367.0 C 399.3,370.4 401.6,374.7 397.0,377.0 C 395.1,378.0 391.9,377.0 390.0,378.0 C 380.1,383.0 353.2,379.3 348.0,369.0 C 346.3,365.6 344.7,362.4 343.0,359.0 C 335.6,344.2 356.6,320.0 371.0,320.0 Z M 387.0,318.0 C 389.5,315.5 392.5,318.0 395.0,318.0 C 402.3,318.0 411.9,318.9 418.0,322.0 C 419.9,323.0 424.6,324.7 423.0,328.0 C 421.8,330.5 415.5,328.8 414.0,328.0 C 410.2,326.1 404.8,326.9 401.0,325.0 C 397.6,323.3 391.8,319.0 388.0,319.0 Z M 443.0,313.0 C 446.0,310.0 455.5,315.0 457.0,318.0 C 460.6,325.2 458.1,336.0 450.0,340.0 C 443.0,343.5 431.7,336.4 429.0,331.0 C 426.5,325.9 431.2,321.5 433.0,318.0 C 434.7,314.5 438.1,313.0 442.0,313.0 Z M 599.0,306.0 C 601.3,303.7 601.7,308.5 601.0,310.0 C 599.1,313.8 594.3,337.1 586.0,333.0 C 583.7,331.9 586.3,328.4 587.0,327.0 C 590.3,320.5 592.5,312.5 598.0,307.0 Z M 625.0,286.0 C 631.6,279.4 636.6,293.8 634.0,299.0 C 626.9,313.3 626.1,323.9 610.0,332.0 C 607.3,333.4 601.8,336.9 598.0,335.0 C 597.0,334.5 604.0,322.1 605.0,320.0 C 608.2,313.5 605.6,300.8 608.0,296.0 C 608.7,294.5 613.6,293.7 615.0,293.0 C 618.1,291.4 620.3,287.0 624.0,287.0 Z M 476.0,282.0 C 479.0,279.0 477.6,285.9 477.0,287.0 C 473.6,293.8 467.5,299.1 464.0,306.0 C 463.0,308.0 460.2,312.6 457.0,311.0 C 452.7,308.8 456.9,306.3 458.0,304.0 C 461.9,296.2 468.4,289.6 475.0,283.0 Z M 426.0,280.0 C 427.4,278.6 429.1,281.2 430.0,283.0 C 433.1,289.1 435.0,296.0 438.0,302.0 C 438.4,302.9 440.6,304.9 440.0,306.0 C 437.9,310.3 434.2,306.4 433.0,304.0 C 429.8,297.6 426.0,288.5 426.0,281.0 Z M 594.0,271.0 C 600.6,264.4 600.6,286.2 602.0,289.0 C 603.0,291.0 601.7,295.5 601.0,297.0 C 600.0,299.0 595.5,299.1 594.0,302.0 C 591.3,307.3 586.7,311.7 584.0,317.0 C 583.3,318.3 580.9,327.0 579.0,327.0 C 575.4,327.0 573.0,313.1 573.0,310.0 C 573.0,292.9 581.4,282.6 593.0,271.0 Z M 611.0,268.0 C 619.0,260.0 627.3,278.4 620.0,282.0 C 617.2,283.4 612.0,289.0 609.0,289.0 C 608.5,289.0 608.2,288.4 608.0,288.0 C 606.7,285.4 608.3,281.5 607.0,279.0 C 606.5,278.1 604.6,272.8 605.0,272.0 C 605.9,270.1 608.5,269.5 610.0,268.0 Z M 510.0,265.0 C 511.9,263.1 516.9,264.9 519.0,266.0 C 520.7,266.8 523.3,266.2 525.0,267.0 C 533.6,271.3 536.0,277.0 540.0,285.0 C 541.3,287.6 540.0,294.9 539.0,297.0 C 531.7,311.6 528.3,316.3 513.0,324.0 C 508.3,326.4 504.2,321.6 501.0,320.0 C 497.1,318.1 491.9,319.0 488.0,317.0 C 481.9,313.9 468.7,321.4 464.0,319.0 C 460.1,317.0 474.6,303.8 476.0,301.0 C 478.9,295.2 482.1,289.7 485.0,284.0 C 486.0,282.0 483.4,279.2 484.0,278.0 C 485.2,275.5 486.8,273.4 488.0,271.0 C 489.1,268.8 491.4,270.8 493.0,270.0 C 497.7,267.7 503.5,265.0 509.0,265.0 Z M 385.0,251.0 C 390.3,245.7 402.7,253.8 407.0,256.0 C 409.9,257.4 417.5,262.0 419.0,265.0 C 421.1,269.3 416.9,276.7 419.0,281.0 C 422.0,286.9 424.3,299.6 430.0,311.0 C 430.4,311.8 425.9,317.5 425.0,318.0 C 423.2,318.9 421.3,316.6 420.0,316.0 C 415.2,313.6 408.8,314.4 404.0,312.0 C 403.1,311.5 385.1,310.4 384.0,311.0 C 381.9,312.0 379.0,314.5 376.0,313.0 C 349.5,299.7 356.0,251.0 384.0,251.0 Z M 451.0,229.0 C 454.7,225.3 463.7,229.4 467.0,231.0 C 477.2,236.1 488.4,257.1 483.0,268.0 C 478.8,276.4 465.0,280.0 460.0,290.0 C 458.7,292.6 449.0,307.0 447.0,306.0 C 445.3,305.1 441.3,290.5 440.0,288.0 C 437.7,283.5 434.3,279.5 432.0,275.0 C 430.5,272.0 426.3,271.7 425.0,269.0 C 423.4,265.9 425.8,258.5 427.0,256.0 C 430.8,248.4 433.9,229.0 450.0,229.0 Z"/>
  <path d="M 345.0,505.0 C 339.9,510.1 322.8,504.5 318.0,514.0 C 315.1,519.8 333.4,535.7 338.0,538.0 C 341.7,539.8 353.3,548.1 361.0,552.0 C 368.6,555.8 378.4,555.2 386.0,559.0 C 388.7,560.3 407.4,560.3 410.0,559.0 C 412.7,557.7 417.3,560.3 420.0,559.0 C 421.6,558.2 424.9,556.0 427.0,557.0 C 433.2,560.1 430.3,574.7 433.0,580.0 C 434.4,582.8 431.3,608.4 430.0,611.0 C 428.1,614.8 425.8,635.3 423.0,641.0 C 418.6,649.7 416.3,659.4 412.0,668.0 C 405.5,680.9 397.5,693.0 391.0,706.0 C 384.7,718.6 370.2,728.7 364.0,741.0 C 362.1,744.8 356.8,745.4 355.0,749.0 C 354.0,751.0 357.0,754.0 359.0,753.0 C 365.1,750.0 374.0,739.9 377.0,734.0 C 379.5,729.0 385.5,726.0 388.0,721.0 C 392.5,712.0 399.5,704.0 404.0,695.0 C 409.5,684.1 415.6,673.8 421.0,663.0 C 425.7,653.6 427.3,642.4 432.0,633.0 C 436.2,624.6 434.0,611.0 438.0,603.0 C 439.2,600.6 436.8,596.4 438.0,594.0 C 441.1,587.8 437.8,562.6 435.0,557.0 C 433.7,554.5 431.3,552.6 430.0,550.0 C 429.5,548.9 430.5,547.1 430.0,546.0 C 426.7,539.4 418.5,526.7 411.0,523.0 C 403.3,519.2 396.6,513.8 389.0,510.0 C 376.8,503.9 360.7,505.0 346.0,505.0 Z M 346.0,512.0 C 348.6,509.4 358.2,511.0 362.0,511.0 C 378.4,511.0 398.5,518.5 410.0,530.0 C 412.7,532.7 425.3,547.3 424.0,550.0 C 422.4,553.3 401.3,554.7 398.0,553.0 C 392.2,550.1 382.8,553.9 377.0,551.0 C 369.7,547.3 361.3,545.7 354.0,542.0 C 348.7,539.3 344.3,534.7 339.0,532.0 C 336.4,530.7 323.8,518.4 325.0,516.0 C 325.7,514.6 342.3,512.0 345.0,512.0 Z"/>
</g>
</svg>