<svg xmlns="http://www.w3.org/2000/svg" version="1.0" width="1024.000000pt" height="1024.000000pt" viewBox="0 0 1024.000000 1024.000000" preserveAspectRatio="xMidYMid meet">
<g transform="translate(0.000000,1024.000000) scale(0.100000,-0.100000)" fill="none" stroke="#000000" stroke-width="40.0" stroke-linecap="round" stroke-linejoin="round">
<path d="M3895 8239 c-421 -11 -674 -38 -751 -77 -66 -34 -104 -81 -111 -139 -22 -188 182 -626 539 -1158 250 -372 394 -543 735 -871 366 -354 420 -409 462 -473 48 -75 65 -135 58 -209 -10 -119 -76 -203 -360 -465 -375 -345 -634 -620 -824 -875 -167 -225 -347 -546 -447 -797 -52 -131 -106 -330 -106 -389 0 -86 62 -186 141 -226 62 -32 205 -68 335 -84 272 -34 523 -41 1494 -41 922 0 1156 6 1520 36 355 29 521 87 568 199 27 64 18 189 -23 318 -91 285 -292 671 -508 972 -159 222 -459 550 -742 809 -258 237 -385 367 -420 431 -27 50 -30 64 -30 145 0 69 4 98 19 125 40 75 129 169 331 353 247 224 457 433 576 572 427 498 849 1293 849 1597 0 68 0 69 -46 118 -87 93 -229 114 -853 130 -424 11 -2009 10 -2406 -1z m2406 -29 c594 -15 771 -39 839 -116 27 -31 30 -41 30 -103 0 -303 -423 -1099 -849 -1596 -119 -140 -300 -319 -550 -546 -215 -194 -314 -299 -354 -374 -18 -32 -22 -57 -22 -130 0 -81 3 -95 30 -145 35 -64 191 -225 438 -449 267 -243 566 -571 724 -791 216 -300 417 -687 508 -971 56 -178 50 -318 -15 -373 -63 -52 -247 -95 -500 -115 -364 -30 -598 -36 -1520 -36 -1165 0 -1466 14 -1703 80 -151 43 -199 79 -225 171 -17 58 -15 81 13 207 48 213 192 529 370 814 220 351 465 629 956 1084 309 286 376 370 386 491 7 74 -10 134 -59 209 -42 65 -120 145 -476 488 -324 311 -472 487 -720 856 -293 436 -475 791 -527 1029 -20 90 -15 168 12 198 93 103 412 124 1963 126 487 1 1050 -3 1251 -8z M4027 7138 c-117 -12 -189 -40 -244 -94 -33 -34 -43 -51 -43 -76 0 -35 27 -102 59 -146 10 -15 22 -43 26 -62 21 -99 319 -438 649 -737 239 -217 403 -383 446 -448 33 -51 54 -105 88 -224 10 -35 28 -26 24 12 -6 57 -42 150 -82 212 -43 65 -237 261 -477 479 -293 266 -594 605 -616 694 -8 32 12 28 74 -14 79 -53 133 -79 260 -122 194 -67 316 -87 519 -86 155 0 189 3 295 28 132 31 266 78 285 101 18 21 77 19 109 -4 63 -45 371 -113 437 -97 43 11 16 -21 -34 -39 -161 -61 -387 -200 -495 -304 -185 -178 -238 -302 -238 -557 1 -77 7 -192 15 -255 32 -249 38 -367 33 -614 -5 -285 -17 -356 -85 -510 -21 -49 -42 -102 -45 -116 -9 -34 -117 -149 -141 -149 -11 0 -68 -32 -127 -70 -149 -98 -339 -194 -458 -235 -112 -37 -238 -59 -435 -75 -139 -11 -190 -22 -246 -50 -43 -22 -85 -67 -95 -100 -4 -14 -16 -31 -25 -37 -25 -18 -77 -168 -96 -277 -19 -107 -14 -206 14 -268 26 -59 119 -143 196 -178 130 -59 352 -100 656 -120 419 -28 1426 -22 1870 10 309 23 530 77 659 159 179 115 195 283 60 627 -48 123 -85 164 -149 164 -58 0 -189 44 -330 111 -169 81 -248 128 -499 297 -294 198 -413 252 -557 252 -56 0 -183 -30 -209 -50 -5 -4 -20 -10 -32 -13 -32 -7 -30 7 18 115 69 156 81 227 86 513 5 247 -1 365 -33 614 -22 171 -19 378 5 473 11 42 27 92 37 110 28 56 110 162 167 215 97 92 330 232 480 288 26 10 56 28 65 40 11 14 42 27 87 39 121 29 316 111 395 166 14 9 33 20 43 23 30 11 12 -28 -56 -123 -137 -191 -340 -402 -662 -685 -221 -194 -312 -282 -374 -360 -115 -145 -124 -239 -56 -558 53 -247 66 -332 70 -456 2 -62 6 -116 9 -118 2 -3 10 5 16 18 25 46 1 249 -65 556 -55 259 -56 355 -6 466 35 76 133 179 381 400 380 337 572 535 718 738 34 47 65 101 69 120 3 19 16 48 28 64 43 57 68 119 73 180 4 59 3 62 -30 98 l-35 37 -85 0 c-180 0 -372 -74 -818 -314 -80 -43 -154 -87 -166 -97 -26 -24 -77 -24 -112 0 -54 37 -352 202 -443 245 -206 97 -418 159 -584 171 -44 3 -96 7 -115 9 -19 2 -75 -1 -123 -6z m238 -33 c177 -13 388 -77 610 -185 149 -72 409 -221 409 -235 1 -16 -151 -71 -279 -101 -106 -25 -140 -28 -295 -28 -203 -1 -325 19 -519 86 -126 43 -170 64 -251 117 -30 20 -66 38 -80 41 -30 6 -90 115 -90 165 0 44 43 87 114 114 56 21 204 40 266 35 19 -2 71 -6 115 -9z m2226 -27 c32 -35 22 -127 -23 -210 -37 -68 -42 -71 -218 -161 -270 -139 -448 -157 -722 -76 -116 35 -136 46 -116 64 7 7 78 48 158 91 446 240 633 312 812 313 78 1 90 -1 109 -21z m-1086 -2903 c102 -26 213 -87 436 -237 251 -169 330 -216 499 -297 140 -66 272 -111 328 -111 58 0 77 -21 121 -134 125 -319 119 -491 -18 -588 -124 -87 -350 -144 -671 -168 -444 -32 -1451 -38 -1870 -10 -501 33 -755 116 -822 267 -41 93 -32 251 23 418 29 86 44 115 59 115 3 0 26 -13 51 -29 47 -31 127 -55 221 -66 115 -13 377 42 540 114 117 52 267 153 368 247 93 89 206 234 216 279 8 40 108 142 148 151 17 3 36 10 41 14 6 4 39 17 75 28 78 25 174 27 255 7z m-552 -214 c-9 -34 -132 -189 -201 -251 -90 -83 -241 -183 -350 -231 -103 -45 -280 -93 -403 -109 -133 -18 -300 12 -363 64 -25 21 -27 27 -19 52 21 65 113 99 306 114 302 24 445 61 657 171 67 35 172 96 233 136 115 75 149 88 140 54z"/>
</g>
</svg>