<svg xmlns="http://www.w3.org/2000/svg" viewBox="0 0 1024 1024" width="1024" height="1024">
  <path d="M 363.0,201.0 C 332.0,208.8 297.5,238.8 274.0,262.0 C 250.5,285.2 231.8,316.7 222.0,340.0 C 212.2,363.3 207.0,400.8 215.0,402.0 C 223.0,403.2 249.0,360.0 270.0,347.0 C 291.0,334.0 311.5,325.0 341.0,324.0 C 370.5,323.0 420.7,331.8 447.0,341.0 C 473.3,350.2 504.3,369.2 499.0,379.0 C 493.7,388.8 429.7,400.5 415.0,400.0 C 400.3,399.5 419.2,381.3 411.0,376.0 C 402.8,370.7 390.7,365.3 366.0,368.0 C 341.3,370.7 287.7,381.3 263.0,392.0 C 238.3,402.7 225.8,413.8 218.0,432.0 C 210.2,450.2 206.8,468.5 216.0,501.0 C 225.2,533.5 259.7,605.5 273.0,627.0 C 286.3,648.5 284.3,620.0 296.0,630.0 C 307.7,640.0 328.5,677.0 343.0,687.0 C 357.5,697.0 352.7,673.7 383.0,690.0 C 413.3,706.3 497.0,777.0 525.0,785.0 C 553.0,793.0 533.8,751.3 551.0,738.0 C 568.2,724.7 611.7,716.2 628.0,705.0 C 644.3,693.8 637.5,678.0 649.0,671.0 C 660.5,664.0 683.3,673.5 697.0,663.0 C 710.7,652.5 729.7,629.5 731.0,608.0 C 732.3,586.5 729.5,557.2 705.0,534.0 C 680.5,510.8 607.7,486.5 584.0,469.0 C 560.3,451.5 555.0,432.5 563.0,429.0 C 571.0,425.5 599.8,423.3 632.0,448.0 C 664.2,472.7 727.5,566.5 756.0,577.0 C 784.5,587.5 796.2,530.5 803.0,511.0 C 809.8,491.5 803.0,474.7 797.0,460.0 C 791.0,445.3 799.2,440.5 767.0,423.0 C 734.8,405.5 633.5,370.2 604.0,355.0 C 574.5,339.8 571.2,332.0 590.0,332.0 C 608.8,332.0 682.2,337.5 717.0,355.0 C 751.8,372.5 784.7,434.2 799.0,437.0 C 813.3,439.8 807.8,391.7 803.0,372.0 C 798.2,352.3 786.5,331.7 770.0,319.0 C 753.5,306.3 747.0,291.7 704.0,296.0 C 661.0,300.3 543.3,341.8 512.0,345.0 C 480.7,348.2 497.7,328.0 516.0,315.0 C 534.3,302.0 593.2,274.8 622.0,267.0 C 650.8,259.2 667.8,263.2 689.0,268.0 C 710.2,272.8 742.2,298.2 749.0,296.0 C 755.8,293.8 742.0,268.0 730.0,255.0 C 718.0,242.0 701.3,223.0 677.0,218.0 C 652.7,213.0 611.7,209.5 584.0,225.0 C 556.3,240.5 531.7,312.7 511.0,311.0 C 490.3,309.3 484.7,233.3 460.0,215.0 C 435.3,196.7 394.0,193.2 363.0,201.0 Z M 438.0,587.0 C 440.3,585.5 443.8,582.3 441.0,590.0 C 438.2,597.7 426.2,620.8 421.0,633.0 C 415.8,645.2 412.5,654.8 410.0,663.0 C 407.5,671.2 406.7,675.2 406.0,682.0 C 405.3,688.8 405.7,699.5 406.0,704.0 C 406.3,708.5 408.3,707.7 408.0,709.0 C 407.7,710.3 407.0,714.5 404.0,712.0 C 401.0,709.5 393.0,698.7 390.0,694.0 C 387.0,689.3 385.7,687.3 386.0,684.0 C 386.3,680.7 389.8,679.2 392.0,674.0 C 394.2,668.8 395.3,662.2 399.0,653.0 C 402.7,643.8 409.3,628.0 414.0,619.0 C 418.7,610.0 423.0,604.3 427.0,599.0 C 431.0,593.7 435.7,588.5 438.0,587.0 Z M 577.0,564.0 C 581.7,567.7 594.8,581.0 602.0,589.0 C 609.2,597.0 614.5,603.7 620.0,612.0 C 625.5,620.3 631.3,630.8 635.0,639.0 C 638.7,647.2 640.7,654.8 642.0,661.0 C 643.3,667.2 643.7,671.0 643.0,676.0 C 642.3,681.0 641.0,686.5 638.0,691.0 C 635.0,695.5 629.8,699.7 625.0,703.0 C 620.2,706.3 612.2,710.3 609.0,711.0 C 605.8,711.7 605.7,708.8 606.0,707.0 C 606.3,705.2 609.5,703.8 611.0,700.0 C 612.5,696.2 614.3,689.5 615.0,684.0 C 615.7,678.5 615.5,673.0 615.0,667.0 C 614.5,661.0 613.7,655.2 612.0,648.0 C 610.3,640.8 607.5,631.2 605.0,624.0 C 602.5,616.8 600.0,611.3 597.0,605.0 C 594.0,598.7 590.8,592.3 587.0,586.0 C 583.2,579.7 575.7,570.7 574.0,567.0 C 572.3,563.3 572.3,560.3 577.0,564.0 Z M 442.0,549.0 C 444.5,549.7 447.2,551.2 448.0,555.0 C 448.8,558.8 450.5,565.5 447.0,572.0 C 443.5,578.5 432.5,587.2 427.0,594.0 C 421.5,600.8 418.3,605.5 414.0,613.0 C 409.7,620.5 405.0,629.5 401.0,639.0 C 397.0,648.5 392.7,663.7 390.0,670.0 C 387.3,676.3 386.3,676.3 385.0,677.0 C 383.7,677.7 383.0,677.2 382.0,674.0 C 381.0,670.8 379.5,664.3 379.0,658.0 C 378.5,651.7 378.7,641.8 379.0,636.0 C 379.3,630.2 379.7,628.3 381.0,623.0 C 382.3,617.7 384.3,610.3 387.0,604.0 C 389.7,597.7 393.8,590.2 397.0,585.0 C 400.2,579.8 401.2,578.0 406.0,573.0 C 410.8,568.0 421.5,558.7 426.0,555.0 C 430.5,551.3 430.3,552.0 433.0,551.0 C 435.7,550.0 439.5,548.3 442.0,549.0 Z M 488.0,522.0 C 491.2,517.8 490.7,512.7 491.0,525.0 C 491.3,537.3 489.0,572.2 490.0,596.0 C 491.0,619.8 493.7,646.2 497.0,668.0 C 500.3,689.8 505.5,711.3 510.0,727.0 C 514.5,742.7 522.2,754.3 524.0,762.0 C 525.8,769.7 522.2,770.5 521.0,773.0 C 519.8,775.5 522.5,780.0 517.0,777.0 C 511.5,774.0 503.8,763.7 488.0,755.0 C 472.2,746.3 434.3,731.3 422.0,725.0 C 409.7,718.7 416.2,720.8 414.0,717.0 C 411.8,713.2 409.8,707.5 409.0,702.0 C 408.2,696.5 408.2,690.8 409.0,684.0 C 409.8,677.2 407.5,678.8 414.0,661.0 C 420.5,643.2 438.3,595.5 448.0,577.0 C 457.7,558.5 465.3,559.2 472.0,550.0 C 478.7,540.8 484.8,526.2 488.0,522.0 Z M 497.0,508.0 C 501.0,509.2 508.8,512.0 518.0,518.0 C 527.2,524.0 544.0,537.0 552.0,544.0 C 560.0,551.0 558.5,548.5 566.0,560.0 C 573.5,571.5 589.5,596.0 597.0,613.0 C 604.5,630.0 608.7,649.5 611.0,662.0 C 613.3,674.5 612.3,680.5 611.0,688.0 C 609.7,695.5 606.2,702.3 603.0,707.0 C 599.8,711.7 600.3,711.7 592.0,716.0 C 583.7,720.3 562.3,728.0 553.0,733.0 C 543.7,738.0 540.3,742.0 536.0,746.0 C 531.7,750.0 529.2,755.8 527.0,757.0 C 524.8,758.2 525.5,758.8 523.0,753.0 C 520.5,747.2 515.5,734.5 512.0,722.0 C 508.5,709.5 504.7,692.7 502.0,678.0 C 499.3,663.3 497.5,658.2 496.0,634.0 C 494.5,609.8 493.3,553.5 493.0,533.0 C 492.7,512.5 493.3,515.2 494.0,511.0 C 494.7,506.8 493.0,506.8 497.0,508.0 Z M 546.0,505.0 C 547.3,504.2 549.0,503.3 551.0,503.0 C 553.0,502.7 555.0,502.3 558.0,503.0 C 561.0,503.7 565.3,505.0 569.0,507.0 C 572.7,509.0 575.7,510.8 580.0,515.0 C 584.3,519.2 590.7,525.8 595.0,532.0 C 599.3,538.2 602.7,544.3 606.0,552.0 C 609.3,559.7 612.3,569.7 615.0,578.0 C 617.7,586.3 621.3,597.5 622.0,602.0 C 622.7,606.5 621.8,607.5 619.0,605.0 C 616.2,602.5 611.7,594.3 605.0,587.0 C 598.3,579.7 586.0,567.3 579.0,561.0 C 572.0,554.7 567.0,552.3 563.0,549.0 C 559.0,545.7 557.3,543.8 555.0,541.0 C 552.7,538.2 551.0,535.7 549.0,532.0 C 547.0,528.3 544.2,522.5 543.0,519.0 C 541.8,515.5 542.0,512.8 542.0,511.0 C 542.0,509.2 542.3,509.0 543.0,508.0 C 543.7,507.0 544.7,505.8 546.0,505.0 Z M 406.0,501.0 C 411.2,498.7 417.8,491.3 409.0,504.0 C 400.2,516.7 365.2,560.2 353.0,577.0 C 340.8,593.8 340.5,595.5 336.0,605.0 C 331.5,614.5 327.7,624.5 326.0,634.0 C 324.3,643.5 326.5,656.8 326.0,662.0 C 325.5,667.2 325.7,667.2 323.0,665.0 C 320.3,662.8 313.8,655.3 310.0,649.0 C 306.2,642.7 300.8,633.7 300.0,627.0 C 299.2,620.3 302.2,616.3 305.0,609.0 C 307.8,601.7 313.2,590.2 317.0,583.0 C 320.8,575.8 322.3,573.2 328.0,566.0 C 333.7,558.8 342.7,548.0 351.0,540.0 C 359.3,532.0 368.8,524.5 378.0,518.0 C 387.2,511.5 400.8,503.3 406.0,501.0 Z M 598.0,477.0 C 605.8,479.3 628.5,487.7 642.0,494.0 C 655.5,500.3 668.7,507.7 679.0,515.0 C 689.3,522.3 696.8,529.2 704.0,538.0 C 711.2,546.8 718.0,559.2 722.0,568.0 C 726.0,576.8 727.2,583.8 728.0,591.0 C 728.8,598.2 728.0,605.2 727.0,611.0 C 726.0,616.8 724.8,620.3 722.0,626.0 C 719.2,631.7 715.0,638.8 710.0,645.0 C 705.0,651.2 698.3,658.0 692.0,663.0 C 685.7,668.0 675.8,673.5 672.0,675.0 C 668.2,676.5 668.0,676.3 669.0,672.0 C 670.0,667.7 676.3,658.0 678.0,649.0 C 679.7,640.0 680.3,629.5 679.0,618.0 C 677.7,606.5 675.2,593.3 670.0,580.0 C 664.8,566.7 656.0,550.5 648.0,538.0 C 640.0,525.5 630.8,514.7 622.0,505.0 C 613.2,495.3 599.0,484.7 595.0,480.0 C 591.0,475.3 590.2,474.7 598.0,477.0 Z M 423.0,458.0 C 424.3,458.8 425.3,459.5 426.0,461.0 C 426.7,462.5 428.3,462.3 427.0,467.0 C 425.7,471.7 420.3,484.5 418.0,489.0 C 415.7,493.5 418.2,490.8 413.0,494.0 C 407.8,497.2 394.7,503.3 387.0,508.0 C 379.3,512.7 375.5,514.8 367.0,522.0 C 358.5,529.2 344.2,542.2 336.0,551.0 C 327.8,559.8 322.8,567.7 318.0,575.0 C 313.2,582.3 309.5,589.7 307.0,595.0 C 304.5,600.3 304.3,604.3 303.0,607.0 C 301.7,609.7 300.2,610.8 299.0,611.0 C 297.8,611.2 296.5,611.0 296.0,608.0 C 295.5,605.0 294.7,601.2 296.0,593.0 C 297.3,584.8 300.5,569.0 304.0,559.0 C 307.5,549.0 312.2,541.0 317.0,533.0 C 321.8,525.0 327.2,518.0 333.0,511.0 C 338.8,504.0 343.7,498.2 352.0,491.0 C 360.3,483.8 373.7,473.7 383.0,468.0 C 392.3,462.3 402.2,459.0 408.0,457.0 C 413.8,455.0 415.5,455.8 418.0,456.0 C 420.5,456.2 421.7,457.2 423.0,458.0 Z M 491.0,449.0 C 495.3,446.2 494.0,442.2 494.0,452.0 C 494.0,461.8 494.7,492.7 491.0,508.0 C 487.3,523.3 478.2,534.3 472.0,544.0 C 465.8,553.7 457.8,565.2 454.0,566.0 C 450.2,566.8 451.8,552.3 449.0,549.0 C 446.2,545.7 441.7,545.2 437.0,546.0 C 432.3,546.8 426.7,549.8 421.0,554.0 C 415.3,558.2 409.0,563.3 403.0,571.0 C 397.0,578.7 389.3,590.8 385.0,600.0 C 380.7,609.2 378.5,616.0 377.0,626.0 C 375.5,636.0 375.0,650.2 376.0,660.0 C 377.0,669.8 383.5,679.5 383.0,685.0 C 382.5,690.5 376.2,691.7 373.0,693.0 C 369.8,694.3 368.2,694.2 364.0,693.0 C 359.8,691.8 353.5,689.8 348.0,686.0 C 342.5,682.2 334.3,677.3 331.0,670.0 C 327.7,662.7 327.3,651.0 328.0,642.0 C 328.7,633.0 331.5,624.8 335.0,616.0 C 338.5,607.2 334.8,609.5 349.0,589.0 C 363.2,568.5 400.2,513.0 420.0,493.0 C 439.8,473.0 456.2,476.3 468.0,469.0 C 479.8,461.7 486.7,451.8 491.0,449.0 Z M 500.0,438.0 C 514.2,443.0 561.7,459.0 582.0,471.0 C 602.3,483.0 611.7,498.8 622.0,510.0 C 632.3,521.2 636.5,526.0 644.0,538.0 C 651.5,550.0 661.7,568.5 667.0,582.0 C 672.3,595.5 675.0,606.7 676.0,619.0 C 677.0,631.3 674.5,647.5 673.0,656.0 C 671.5,664.5 669.2,666.7 667.0,670.0 C 664.8,673.3 662.5,676.2 660.0,676.0 C 657.5,675.8 656.7,677.3 652.0,669.0 C 647.3,660.7 638.7,644.5 632.0,626.0 C 625.3,607.5 618.8,575.5 612.0,558.0 C 605.2,540.5 597.3,529.7 591.0,521.0 C 584.7,512.3 580.7,509.5 574.0,506.0 C 567.3,502.5 555.8,500.7 551.0,500.0 C 546.2,499.3 547.0,500.3 545.0,502.0 C 543.0,503.7 539.0,505.3 539.0,510.0 C 539.0,514.7 544.5,526.2 545.0,530.0 C 545.5,533.8 547.8,536.5 542.0,533.0 C 536.2,529.5 518.0,514.2 510.0,509.0 C 502.0,503.8 496.2,513.3 494.0,502.0 C 491.8,490.7 496.0,451.7 497.0,441.0 C 498.0,430.3 485.8,433.0 500.0,438.0 Z M 395.0,408.0 C 394.7,409.3 397.0,408.7 390.0,413.0 C 383.0,417.3 366.0,426.0 353.0,434.0 C 340.0,442.0 321.5,454.3 312.0,461.0 C 302.5,467.7 303.0,467.5 296.0,474.0 C 289.0,480.5 277.8,490.8 270.0,500.0 C 262.2,509.2 253.0,524.7 249.0,529.0 C 245.0,533.3 246.5,530.3 246.0,526.0 C 245.5,521.7 245.2,509.7 246.0,503.0 C 246.8,496.3 247.2,493.5 251.0,486.0 C 254.8,478.5 262.7,465.8 269.0,458.0 C 275.3,450.2 282.3,444.3 289.0,439.0 C 295.7,433.7 301.5,430.0 309.0,426.0 C 316.5,422.0 322.8,418.3 334.0,415.0 C 345.2,411.7 366.3,407.7 376.0,406.0 C 385.7,404.3 388.8,404.7 392.0,405.0 C 395.2,405.3 395.3,406.7 395.0,408.0 Z M 496.0,386.0 C 503.7,384.5 499.2,380.7 499.0,389.0 C 498.8,397.3 499.2,424.0 495.0,436.0 C 490.8,448.0 485.3,452.7 474.0,461.0 C 462.7,469.3 435.3,482.3 427.0,486.0 C 418.7,489.7 423.5,486.3 424.0,483.0 C 424.5,479.7 429.3,470.2 430.0,466.0 C 430.7,461.8 430.0,460.2 428.0,458.0 C 426.0,455.8 422.0,453.5 418.0,453.0 C 414.0,452.5 412.7,451.3 404.0,455.0 C 395.3,458.7 377.0,467.5 366.0,475.0 C 355.0,482.5 346.0,491.7 338.0,500.0 C 330.0,508.3 324.3,515.0 318.0,525.0 C 311.7,535.0 304.2,549.0 300.0,560.0 C 295.8,571.0 293.7,580.2 293.0,591.0 C 292.3,601.8 296.3,618.5 296.0,625.0 C 295.7,631.5 293.0,629.2 291.0,630.0 C 289.0,630.8 286.7,631.0 284.0,630.0 C 281.3,629.0 279.5,628.8 275.0,624.0 C 270.5,619.2 261.8,610.3 257.0,601.0 C 252.2,591.7 247.2,578.8 246.0,568.0 C 244.8,557.2 245.8,546.7 250.0,536.0 C 254.2,525.3 259.3,516.8 271.0,504.0 C 282.7,491.2 297.5,475.7 320.0,459.0 C 342.5,442.3 383.8,414.2 406.0,404.0 C 428.2,393.8 438.0,401.0 453.0,398.0 C 468.0,395.0 488.3,387.5 496.0,386.0 Z M 502.0,387.0 C 504.0,379.5 504.7,383.7 510.0,383.0 C 515.3,382.3 522.2,381.3 534.0,383.0 C 545.8,384.7 564.7,388.3 581.0,393.0 C 597.3,397.7 615.7,403.5 632.0,411.0 C 648.3,418.5 665.0,427.8 679.0,438.0 C 693.0,448.2 706.3,461.3 716.0,472.0 C 725.7,482.7 731.5,492.3 737.0,502.0 C 742.5,511.7 746.3,519.3 749.0,530.0 C 751.7,540.7 753.0,559.3 753.0,566.0 C 753.0,572.7 751.0,570.2 749.0,570.0 C 747.0,569.8 754.3,580.7 741.0,565.0 C 727.7,549.3 685.2,494.7 669.0,476.0 C 652.8,457.3 652.8,460.0 644.0,453.0 C 635.2,446.0 625.0,438.8 616.0,434.0 C 607.0,429.2 597.5,425.8 590.0,424.0 C 582.5,422.2 575.8,422.7 571.0,423.0 C 566.2,423.3 563.5,424.5 561.0,426.0 C 558.5,427.5 556.8,429.8 556.0,432.0 C 555.2,434.2 553.5,434.3 556.0,439.0 C 558.5,443.7 569.3,456.2 571.0,460.0 C 572.7,463.8 575.2,465.5 566.0,462.0 C 556.8,458.5 526.8,443.3 516.0,439.0 C 505.2,434.7 504.0,437.8 501.0,436.0 C 498.0,434.2 497.8,436.2 498.0,428.0 C 498.2,419.8 500.0,394.5 502.0,387.0 Z M 412.0,382.0 C 413.7,384.3 414.3,385.8 413.0,389.0 C 411.7,392.2 411.3,398.5 404.0,401.0 C 396.7,403.5 380.2,402.3 369.0,404.0 C 357.8,405.7 345.8,408.5 337.0,411.0 C 328.2,413.5 324.0,415.0 316.0,419.0 C 308.0,423.0 296.8,429.3 289.0,435.0 C 281.2,440.7 275.5,445.3 269.0,453.0 C 262.5,460.7 254.3,473.0 250.0,481.0 C 245.7,489.0 244.2,493.0 243.0,501.0 C 241.8,509.0 243.7,523.8 243.0,529.0 C 242.3,534.2 241.3,533.0 239.0,532.0 C 236.7,531.0 232.7,529.8 229.0,523.0 C 225.3,516.2 219.3,502.3 217.0,491.0 C 214.7,479.7 213.8,465.5 215.0,455.0 C 216.2,444.5 219.7,435.7 224.0,428.0 C 228.3,420.3 232.0,415.5 241.0,409.0 C 250.0,402.5 263.2,394.7 278.0,389.0 C 292.8,383.3 312.2,378.0 330.0,375.0 C 347.8,372.0 372.8,371.0 385.0,371.0 C 397.2,371.0 398.5,373.2 403.0,375.0 C 407.5,376.8 410.3,379.7 412.0,382.0 Z M 506.0,351.0 C 507.2,345.8 508.3,346.8 510.0,347.0 C 511.7,347.2 512.8,351.3 516.0,352.0 C 519.2,352.7 517.8,354.5 529.0,351.0 C 540.2,347.5 573.3,332.2 583.0,331.0 C 592.7,329.8 584.3,339.8 587.0,344.0 C 589.7,348.2 578.0,347.3 599.0,356.0 C 620.0,364.7 685.5,384.5 713.0,396.0 C 740.5,407.5 751.3,415.5 764.0,425.0 C 776.7,434.5 783.0,443.7 789.0,453.0 C 795.0,462.3 798.7,469.5 800.0,481.0 C 801.3,492.5 801.0,508.3 797.0,522.0 C 793.0,535.7 781.5,554.5 776.0,563.0 C 770.5,571.5 767.7,571.7 764.0,573.0 C 760.3,574.3 755.5,576.5 754.0,571.0 C 752.5,565.5 756.5,550.2 755.0,540.0 C 753.5,529.8 750.3,520.8 745.0,510.0 C 739.7,499.2 732.0,486.2 723.0,475.0 C 714.0,463.8 702.3,452.3 691.0,443.0 C 679.7,433.7 668.3,426.3 655.0,419.0 C 641.7,411.7 628.7,405.2 611.0,399.0 C 593.3,392.8 566.5,385.0 549.0,382.0 C 531.5,379.0 513.7,381.7 506.0,381.0 C 498.3,380.3 503.0,383.0 503.0,378.0 C 503.0,373.0 504.8,356.2 506.0,351.0 Z M 600.0,322.0 C 601.8,319.8 608.2,314.8 614.0,312.0 C 619.8,309.2 625.5,307.2 635.0,305.0 C 644.5,302.8 657.3,299.7 671.0,299.0 C 684.7,298.3 705.2,299.5 717.0,301.0 C 728.8,302.5 735.0,305.5 742.0,308.0 C 749.0,310.5 752.7,311.8 759.0,316.0 C 765.3,320.2 774.0,325.8 780.0,333.0 C 786.0,340.2 790.8,347.7 795.0,359.0 C 799.2,370.3 803.5,389.3 805.0,401.0 C 806.5,412.7 805.0,423.7 804.0,429.0 C 803.0,434.3 804.0,438.5 799.0,433.0 C 794.0,427.5 783.0,406.7 774.0,396.0 C 765.0,385.3 754.0,376.2 745.0,369.0 C 736.0,361.8 729.2,358.0 720.0,353.0 C 710.8,348.0 699.7,342.8 690.0,339.0 C 680.3,335.2 671.5,332.3 662.0,330.0 C 652.5,327.7 642.8,325.8 633.0,325.0 C 623.2,324.2 608.5,325.5 603.0,325.0 C 597.5,324.5 598.2,324.2 600.0,322.0 Z M 426.0,320.0 C 427.8,323.5 426.5,325.3 426.0,327.0 C 425.5,328.7 428.2,330.7 423.0,330.0 C 417.8,329.3 404.3,324.7 395.0,323.0 C 385.7,321.3 377.7,320.2 367.0,320.0 C 356.3,319.8 342.3,320.3 331.0,322.0 C 319.7,323.7 309.0,326.5 299.0,330.0 C 289.0,333.5 278.7,338.8 271.0,343.0 C 263.3,347.2 258.8,350.3 253.0,355.0 C 247.2,359.7 241.7,363.7 236.0,371.0 C 230.3,378.3 222.3,394.8 219.0,399.0 C 215.7,403.2 216.2,401.8 216.0,396.0 C 215.8,390.2 215.7,374.8 218.0,364.0 C 220.3,353.2 223.8,341.8 230.0,331.0 C 236.2,320.2 246.5,307.3 255.0,299.0 C 263.5,290.7 272.3,285.0 281.0,281.0 C 289.7,277.0 297.8,276.0 307.0,275.0 C 316.2,274.0 327.3,274.3 336.0,275.0 C 344.7,275.7 348.5,275.7 359.0,279.0 C 369.5,282.3 389.7,290.5 399.0,295.0 C 408.3,299.5 410.5,301.8 415.0,306.0 C 419.5,310.2 424.2,316.5 426.0,320.0 Z M 293.0,271.0 C 297.0,268.2 309.5,260.7 320.0,257.0 C 330.5,253.3 345.3,250.2 356.0,249.0 C 366.7,247.8 373.2,248.0 384.0,250.0 C 394.8,252.0 411.3,257.3 421.0,261.0 C 430.7,264.7 430.8,264.3 442.0,272.0 C 453.2,279.7 477.2,299.5 488.0,307.0 C 498.8,314.5 504.7,307.7 507.0,317.0 C 509.3,326.3 503.3,354.8 502.0,363.0 C 500.7,371.2 500.7,366.7 499.0,366.0 C 497.3,365.3 497.0,362.3 492.0,359.0 C 487.0,355.7 479.0,350.3 469.0,346.0 C 459.0,341.7 438.8,335.8 432.0,333.0 C 425.2,330.2 428.5,331.2 428.0,329.0 C 427.5,326.8 429.7,323.0 429.0,320.0 C 428.3,317.0 427.2,314.7 424.0,311.0 C 420.8,307.3 416.7,302.5 410.0,298.0 C 403.3,293.5 394.7,288.2 384.0,284.0 C 373.3,279.8 357.0,275.2 346.0,273.0 C 335.0,270.8 326.3,270.8 318.0,271.0 C 309.7,271.2 300.2,274.0 296.0,274.0 C 291.8,274.0 289.0,273.8 293.0,271.0 Z M 749.0,289.0 C 750.7,293.3 749.0,293.7 745.0,292.0 C 741.0,290.3 733.5,283.3 725.0,279.0 C 716.5,274.7 703.7,269.0 694.0,266.0 C 684.3,263.0 676.2,261.8 667.0,261.0 C 657.8,260.2 650.2,259.5 639.0,261.0 C 627.8,262.5 610.8,266.5 600.0,270.0 C 589.2,273.5 585.2,275.7 574.0,282.0 C 562.8,288.3 541.8,303.0 533.0,308.0 C 524.2,313.0 523.8,311.8 521.0,312.0 C 518.2,312.2 513.7,315.2 516.0,309.0 C 518.3,302.8 527.0,286.0 535.0,275.0 C 543.0,264.0 553.5,251.8 564.0,243.0 C 574.5,234.2 586.7,226.8 598.0,222.0 C 609.3,217.2 620.7,214.7 632.0,214.0 C 643.3,213.3 655.5,215.2 666.0,218.0 C 676.5,220.8 687.2,226.7 695.0,231.0 C 702.8,235.3 706.3,238.2 713.0,244.0 C 719.7,249.8 729.0,258.5 735.0,266.0 C 741.0,273.5 747.3,284.7 749.0,289.0 Z M 272.0,272.0 C 272.7,269.3 274.3,266.3 279.0,261.0 C 283.7,255.7 291.8,246.8 300.0,240.0 C 308.2,233.2 319.2,225.3 328.0,220.0 C 336.8,214.7 345.3,211.0 353.0,208.0 C 360.7,205.0 364.2,203.3 374.0,202.0 C 383.8,200.7 399.8,198.5 412.0,200.0 C 424.2,201.5 436.5,205.3 447.0,211.0 C 457.5,216.7 467.0,224.5 475.0,234.0 C 483.0,243.5 489.8,255.7 495.0,268.0 C 500.2,280.3 504.8,300.8 506.0,308.0 C 507.2,315.2 509.8,315.8 502.0,311.0 C 494.2,306.2 470.2,286.8 459.0,279.0 C 447.8,271.2 443.2,268.3 435.0,264.0 C 426.8,259.7 418.2,255.8 410.0,253.0 C 401.8,250.2 395.3,248.2 386.0,247.0 C 376.7,245.8 362.3,245.7 354.0,246.0 C 345.7,246.3 343.5,247.0 336.0,249.0 C 328.5,251.0 319.2,253.3 309.0,258.0 C 298.8,262.7 281.2,274.7 275.0,277.0 C 268.8,279.3 271.3,274.7 272.0,272.0 Z" fill="#000000" fill-rule="evenodd" stroke="none"/>
</svg>