<svg xmlns="http://www.w3.org/2000/svg" viewBox="0 0 1024 1024" width="1024" height="1024">
<g fill="#000000" fill-rule="evenodd" stroke="none">
  <path d="M 473.0,187.0 C 469.9,190.1 463.6,186.2 460.0,188.0 C 453.0,191.5 436.6,188.7 430.0,192.0 C 417.2,198.4 400.8,197.6 388.0,204.0 C 379.1,208.5 369.9,212.5 361.0,217.0 C 353.9,220.5 348.1,226.5 341.0,230.0 C 334.1,233.4 327.6,241.4 322.0,247.0 C 306.3,262.7 295.2,279.6 286.0,298.0 C 282.5,304.9 281.5,313.1 278.0,320.0 C 274.9,326.2 275.5,342.0 273.0,347.0 C 270.7,351.5 269.6,376.2 272.0,381.0 C 273.3,383.7 270.7,388.3 272.0,391.0 C 276.7,400.3 275.3,412.6 280.0,422.0 C 281.5,425.0 290.0,436.8 290.0,439.0 C 290.0,440.4 278.4,441.3 277.0,442.0 C 266.6,447.2 236.1,450.1 253.0,467.0 C 254.4,468.4 254.8,470.9 257.0,472.0 C 262.9,474.9 267.1,481.1 273.0,484.0 C 279.8,487.4 287.2,489.6 294.0,493.0 C 300.3,496.1 330.9,499.6 338.0,496.0 C 339.9,495.1 343.1,496.9 345.0,496.0 C 346.8,495.1 363.4,492.2 365.0,493.0 C 372.2,496.6 381.8,495.4 389.0,499.0 C 394.8,501.9 401.3,503.1 407.0,506.0 C 415.2,510.1 422.7,515.8 431.0,520.0 C 446.8,527.9 460.9,560.2 453.0,576.0 C 449.4,583.2 448.6,591.7 445.0,599.0 C 443.6,601.7 443.4,605.7 446.0,607.0 C 450.1,609.1 449.9,601.2 451.0,599.0 C 455.0,591.0 455.0,576.0 465.0,571.0 C 466.5,570.2 472.5,573.3 474.0,574.0 C 475.9,574.9 479.1,573.1 481.0,574.0 C 484.3,575.7 499.2,576.9 503.0,575.0 C 510.2,571.4 519.8,572.6 527.0,569.0 C 543.7,560.6 558.2,550.5 567.0,533.0 C 569.8,527.5 556.1,525.0 553.0,525.0 C 536.1,525.0 519.9,525.0 506.0,532.0 C 499.1,535.5 492.9,540.5 486.0,544.0 C 484.5,544.7 481.7,550.4 480.0,547.0 C 479.4,545.9 490.9,533.1 493.0,531.0 C 507.7,516.3 522.4,505.8 540.0,497.0 C 542.9,495.5 555.5,509.2 559.0,511.0 C 577.6,520.3 611.8,530.4 624.0,506.0 C 626.0,502.0 622.3,491.7 619.0,490.0 C 618.2,489.6 614.0,487.5 614.0,486.0 C 614.0,484.5 622.8,479.3 624.0,477.0 C 628.7,467.7 632.1,459.1 627.0,449.0 C 620.8,436.6 602.0,443.0 596.0,443.0 C 594.1,443.0 595.5,429.9 594.0,427.0 C 590.9,420.8 587.1,417.1 581.0,414.0 C 573.3,410.1 559.5,416.5 554.0,422.0 C 552.8,423.2 546.6,432.0 546.0,432.0 C 544.0,432.0 539.1,425.0 537.0,424.0 C 529.9,420.4 514.3,420.5 510.0,429.0 C 500.3,448.4 503.9,456.8 513.0,475.0 C 515.7,480.5 525.2,486.6 530.0,489.0 C 530.8,489.4 536.0,490.8 536.0,492.0 C 536.0,495.1 524.9,499.0 523.0,500.0 C 514.7,504.1 491.6,519.8 487.0,529.0 C 482.1,538.8 472.8,546.3 468.0,556.0 C 466.9,558.2 459.9,570.7 459.0,569.0 C 457.9,566.8 460.0,559.9 461.0,558.0 C 464.5,551.0 462.1,530.8 466.0,523.0 C 467.2,520.6 464.8,516.4 466.0,514.0 C 467.6,510.8 465.5,506.1 467.0,503.0 C 470.1,496.9 469.0,480.7 469.0,473.0 C 469.0,468.0 467.9,461.2 470.0,457.0 C 471.5,454.1 468.5,448.9 470.0,446.0 C 481.3,423.5 511.7,412.6 531.0,403.0 C 536.3,400.4 543.7,402.6 549.0,400.0 C 551.3,398.8 557.3,400.0 560.0,400.0 C 568.6,400.0 582.0,404.0 590.0,400.0 C 592.1,398.9 595.9,401.1 598.0,400.0 C 603.0,397.5 610.1,399.5 615.0,397.0 C 625.9,391.5 644.7,387.6 651.0,375.0 C 652.8,371.3 663.3,363.7 661.0,359.0 C 657.3,351.6 646.6,354.0 639.0,354.0 C 619.8,354.0 599.1,360.9 583.0,369.0 C 576.7,372.1 571.3,376.8 565.0,380.0 C 564.3,380.4 558.0,384.3 558.0,382.0 C 558.0,379.4 564.8,374.5 566.0,372.0 C 570.3,363.4 575.7,355.5 580.0,347.0 C 581.2,344.6 581.0,339.5 584.0,338.0 C 584.8,337.6 594.7,340.3 596.0,341.0 C 600.5,343.3 614.3,336.8 618.0,335.0 C 628.8,329.6 633.3,315.3 638.0,306.0 C 639.1,303.7 637.9,300.2 639.0,298.0 C 640.0,296.0 641.2,289.4 640.0,287.0 C 638.5,284.1 637.1,281.5 634.0,280.0 C 632.2,279.1 629.2,281.3 628.0,279.0 C 625.4,273.7 630.3,266.7 623.0,263.0 C 615.1,259.1 611.0,262.5 604.0,266.0 C 600.7,267.6 597.3,262.8 593.0,265.0 C 577.3,272.8 574.8,286.5 568.0,300.0 C 565.0,306.1 569.7,323.4 572.0,328.0 C 573.0,329.9 579.0,333.0 579.0,335.0 C 579.0,343.2 570.6,352.9 567.0,360.0 C 550.8,392.4 524.0,400.5 495.0,415.0 C 488.5,418.3 482.5,424.5 477.0,430.0 C 476.1,430.9 472.2,436.0 471.0,436.0 C 469.5,436.0 469.0,428.9 469.0,427.0 C 469.0,422.1 468.6,402.2 467.0,399.0 C 464.2,393.5 466.7,385.5 464.0,380.0 C 463.4,378.7 460.0,367.0 462.0,367.0 C 463.1,367.0 464.9,370.5 466.0,371.0 C 470.8,373.4 474.2,378.6 479.0,381.0 C 496.6,389.8 506.7,389.7 524.0,381.0 C 525.7,380.1 528.9,378.1 530.0,376.0 C 531.8,372.3 533.2,368.6 535.0,365.0 C 539.1,356.8 532.1,343.1 527.0,338.0 C 525.6,336.6 516.3,329.5 517.0,328.0 C 517.9,326.2 533.5,317.5 536.0,315.0 C 547.2,303.8 550.5,274.2 536.0,267.0 C 529.3,263.6 522.5,261.8 517.0,259.0 C 512.4,256.7 499.7,260.2 496.0,262.0 C 494.4,262.8 491.0,266.0 489.0,265.0 C 487.4,264.2 489.0,260.0 489.0,258.0 C 489.0,253.8 487.8,246.6 486.0,243.0 C 476.0,223.0 471.8,228.9 458.0,222.0 C 455.8,220.9 448.9,223.0 447.0,224.0 C 436.7,229.1 429.7,232.6 424.0,244.0 C 420.5,251.1 422.0,259.0 420.0,259.0 C 418.3,259.0 415.6,253.8 414.0,253.0 C 408.6,250.3 403.3,247.6 398.0,245.0 C 386.9,239.4 362.8,252.5 358.0,262.0 C 355.8,266.4 355.6,273.8 354.0,277.0 C 353.0,279.0 351.8,285.6 353.0,288.0 C 355.9,293.8 358.0,300.0 361.0,306.0 C 362.0,308.1 370.0,312.8 370.0,314.0 C 370.0,315.5 362.1,316.5 361.0,317.0 C 357.5,318.7 354.4,321.3 351.0,323.0 C 335.4,330.8 334.6,355.1 342.0,370.0 C 347.2,380.5 363.1,386.0 374.0,386.0 C 376.4,386.0 381.9,387.1 384.0,386.0 C 386.2,384.9 393.8,382.0 396.0,382.0 C 398.5,382.0 395.9,396.7 397.0,399.0 C 404.0,413.1 404.2,415.6 419.0,423.0 C 421.1,424.0 427.4,426.3 430.0,425.0 C 437.9,421.1 448.8,421.3 454.0,411.0 C 455.1,408.7 460.7,398.0 461.0,398.0 C 463.2,398.0 461.8,412.6 463.0,415.0 C 464.8,418.6 464.0,423.8 464.0,428.0 C 464.0,431.7 466.9,438.2 465.0,442.0 C 459.4,453.1 449.7,462.7 444.0,474.0 C 440.1,481.8 439.9,491.3 436.0,499.0 C 434.8,501.4 436.2,516.0 434.0,516.0 C 432.3,516.0 429.6,510.8 428.0,510.0 C 424.7,508.4 423.6,504.2 422.0,501.0 C 418.9,494.7 412.1,490.3 409.0,484.0 C 406.9,479.7 390.1,465.1 386.0,463.0 C 383.6,461.8 379.4,459.9 378.0,457.0 C 373.2,447.5 372.8,435.6 368.0,426.0 C 364.1,418.2 359.9,410.7 356.0,403.0 C 352.7,396.5 346.3,391.6 343.0,385.0 C 338.3,375.6 320.1,365.0 312.0,361.0 C 309.4,359.7 303.3,354.4 300.0,356.0 C 295.0,358.5 295.0,369.2 295.0,375.0 C 295.0,393.0 299.6,407.2 307.0,422.0 C 308.2,424.3 319.0,437.2 319.0,438.0 C 319.0,439.6 314.9,439.0 314.0,439.0 C 309.9,439.0 300.6,440.8 297.0,439.0 C 293.2,437.1 291.6,431.1 290.0,428.0 C 286.2,420.4 283.7,412.5 280.0,405.0 C 277.8,400.5 280.2,393.4 278.0,389.0 C 275.9,384.9 275.9,356.1 278.0,352.0 C 280.5,347.0 279.0,333.0 282.0,327.0 C 286.3,318.4 290.6,301.8 297.0,289.0 C 301.2,280.7 311.8,270.5 315.0,264.0 C 317.1,259.8 324.5,250.3 329.0,248.0 C 337.0,244.0 344.3,233.4 353.0,229.0 C 366.8,222.1 380.3,214.8 394.0,208.0 C 405.8,202.1 423.9,202.5 435.0,197.0 C 438.5,195.2 444.5,197.8 448.0,196.0 C 455.9,192.0 482.4,193.0 493.0,193.0 C 536.6,193.0 578.8,202.9 615.0,221.0 C 648.0,237.5 680.5,270.1 697.0,303.0 C 702.1,313.2 703.9,324.9 709.0,335.0 C 711.2,339.4 709.8,345.5 712.0,350.0 C 714.1,354.3 713.0,362.9 713.0,368.0 C 713.0,384.5 708.9,403.7 716.0,418.0 C 725.9,437.8 745.3,455.5 753.0,471.0 C 755.2,475.4 764.0,483.0 761.0,489.0 C 755.8,499.4 743.8,501.6 735.0,506.0 C 732.1,507.5 726.8,508.4 725.0,512.0 C 721.5,519.1 723.8,525.5 727.0,532.0 C 728.3,534.5 731.7,539.6 730.0,543.0 C 726.2,550.5 718.4,551.8 712.0,555.0 C 710.1,555.9 704.1,554.8 703.0,557.0 C 702.3,558.4 703.8,560.4 705.0,561.0 C 712.0,564.5 720.1,558.1 725.0,568.0 C 728.3,574.5 718.4,584.2 716.0,589.0 C 708.9,603.3 719.7,620.5 712.0,636.0 C 706.6,646.8 695.6,645.7 689.0,649.0 C 684.0,651.5 667.0,651.5 662.0,649.0 C 659.3,647.7 654.7,650.3 652.0,649.0 C 645.0,645.5 633.3,647.0 625.0,647.0 C 620.0,647.0 612.2,645.9 608.0,648.0 C 603.2,650.4 597.8,651.6 593.0,654.0 C 579.2,660.9 576.7,677.5 571.0,689.0 C 568.5,694.0 570.3,704.3 568.0,709.0 C 565.6,713.7 564.5,737.9 567.0,743.0 C 568.9,746.8 565.6,752.6 569.0,756.0 C 572.6,759.6 573.0,751.5 573.0,750.0 C 573.0,741.6 572.0,732.0 572.0,723.0 C 572.0,706.5 576.1,688.8 583.0,675.0 C 585.4,670.2 590.3,661.8 596.0,659.0 C 604.0,655.0 625.5,648.2 635.0,653.0 C 639.9,655.4 648.1,651.6 653.0,654.0 C 657.2,656.1 681.7,657.2 686.0,655.0 C 688.7,653.6 693.2,655.4 696.0,654.0 C 704.3,649.9 713.4,646.2 718.0,637.0 C 725.4,622.3 714.6,603.9 721.0,591.0 C 724.1,584.9 734.3,574.6 730.0,566.0 C 729.2,564.3 722.0,558.6 722.0,558.0 C 722.0,557.6 732.9,549.2 735.0,545.0 C 740.5,534.1 724.7,525.6 730.0,515.0 C 732.2,510.7 739.5,510.8 743.0,509.0 C 753.7,503.6 761.3,500.3 767.0,489.0 C 770.5,481.9 758.6,470.3 756.0,465.0 C 751.0,455.1 740.0,448.0 735.0,438.0 C 730.1,428.1 723.9,418.7 719.0,409.0 C 714.5,400.0 719.0,383.7 719.0,374.0 C 719.0,354.9 715.9,329.8 708.0,314.0 C 703.0,304.0 698.0,294.0 693.0,284.0 C 689.9,277.9 684.1,273.1 681.0,267.0 C 678.7,262.4 672.8,257.8 669.0,254.0 C 658.1,243.1 646.8,232.4 634.0,226.0 C 629.7,223.8 626.3,220.2 622.0,218.0 C 611.8,212.9 601.1,209.1 591.0,204.0 C 583.2,200.1 572.8,200.9 565.0,197.0 C 558.1,193.5 545.0,194.5 540.0,192.0 C 535.7,189.8 529.2,192.1 525.0,190.0 C 522.1,188.5 517.8,190.4 515.0,189.0 C 510.8,186.9 504.0,188.0 499.0,188.0 C 491.4,188.0 482.2,187.0 474.0,187.0 Z M 531.0,531.0 C 534.0,528.0 551.5,529.3 555.0,531.0 C 555.9,531.5 562.8,530.5 561.0,534.0 C 549.5,556.9 520.2,570.0 496.0,570.0 C 491.1,570.0 472.9,570.8 471.0,567.0 C 469.0,562.9 481.2,554.4 484.0,553.0 C 487.1,551.4 488.9,547.6 492.0,546.0 C 504.2,539.9 515.4,531.0 530.0,531.0 Z M 607.0,491.0 C 611.4,486.6 624.0,501.0 617.0,508.0 C 603.7,521.3 581.4,516.2 567.0,509.0 C 565.5,508.2 553.0,501.3 553.0,500.0 C 553.0,499.9 564.3,500.0 571.0,500.0 C 579.3,500.0 600.7,496.3 606.0,491.0 Z M 577.0,487.0 C 580.7,483.3 591.5,487.7 595.0,486.0 C 595.3,485.9 600.0,487.4 600.0,488.0 C 600.0,490.7 590.6,491.2 589.0,492.0 C 581.1,496.0 570.6,495.0 561.0,495.0 C 558.4,495.0 552.3,495.5 551.0,493.0 C 550.0,491.0 563.1,488.0 565.0,488.0 C 568.1,488.0 572.3,487.0 576.0,487.0 Z M 583.0,454.0 C 588.7,448.3 580.9,464.2 580.0,466.0 C 575.7,474.6 564.0,480.5 557.0,484.0 C 555.6,484.7 550.5,488.7 549.0,488.0 C 546.8,486.9 553.5,479.5 555.0,478.0 C 558.3,474.7 561.4,468.3 566.0,466.0 C 570.8,463.6 578.2,457.8 582.0,454.0 Z M 462.0,454.0 C 465.7,450.3 465.0,458.0 465.0,460.0 C 465.0,467.7 464.0,474.2 464.0,482.0 C 464.0,497.8 460.0,513.5 460.0,529.0 C 460.0,532.4 457.7,544.0 457.0,544.0 C 457.0,544.0 450.0,533.0 448.0,529.0 C 446.2,525.5 441.7,523.5 440.0,520.0 C 438.1,516.3 441.0,509.3 441.0,506.0 C 441.0,488.4 449.7,467.3 462.0,455.0 Z M 335.0,448.0 C 337.7,445.3 344.4,448.7 347.0,450.0 C 350.9,451.9 356.1,452.0 360.0,454.0 C 364.2,456.1 367.9,458.9 372.0,461.0 C 374.3,462.2 378.3,472.8 376.0,474.0 C 373.8,475.1 364.1,469.1 362.0,468.0 C 358.1,466.1 354.9,463.0 351.0,461.0 C 345.7,458.4 340.4,453.4 336.0,449.0 Z M 599.0,447.0 C 605.5,440.5 620.6,449.3 625.0,458.0 C 627.4,462.7 620.8,470.5 619.0,474.0 C 612.3,487.4 598.7,481.0 587.0,481.0 C 583.3,481.0 575.9,483.5 573.0,482.0 C 570.7,480.8 583.8,469.5 585.0,467.0 C 587.6,461.9 591.6,447.0 598.0,447.0 Z M 287.0,446.0 C 290.0,443.0 296.3,445.5 298.0,449.0 C 303.3,459.5 325.3,476.1 335.0,481.0 C 338.0,482.5 351.0,488.5 351.0,489.0 C 351.0,491.0 346.0,489.5 345.0,490.0 C 338.7,493.1 328.5,492.0 321.0,492.0 C 305.0,492.0 289.4,485.7 276.0,479.0 C 273.0,477.5 271.0,474.5 268.0,473.0 C 266.0,472.0 253.0,459.7 253.0,458.0 C 253.0,456.6 259.1,454.5 260.0,454.0 C 267.6,450.2 277.0,446.0 286.0,446.0 Z M 546.0,445.0 C 548.4,442.6 549.1,451.2 550.0,453.0 C 552.4,457.8 549.9,471.2 548.0,475.0 C 547.4,476.2 547.3,483.0 545.0,483.0 C 542.8,483.0 543.0,474.7 543.0,473.0 C 543.0,464.3 545.0,453.6 545.0,446.0 Z M 301.0,445.0 C 303.7,442.3 317.0,443.5 320.0,445.0 C 321.7,445.8 324.2,445.1 326.0,446.0 C 333.5,449.8 337.5,460.3 345.0,464.0 C 353.2,468.1 360.9,472.9 369.0,477.0 C 371.2,478.1 379.2,480.4 382.0,479.0 C 384.1,477.9 380.7,467.4 384.0,469.0 C 391.4,472.7 404.2,484.4 408.0,492.0 C 408.8,493.6 420.5,505.0 416.0,505.0 C 414.8,505.0 395.5,496.2 393.0,495.0 C 383.0,490.0 361.4,488.2 349.0,482.0 C 331.1,473.0 317.0,461.0 302.0,446.0 Z M 520.0,428.0 C 525.6,422.4 540.2,430.4 543.0,436.0 C 543.9,437.9 540.8,443.4 540.0,445.0 C 537.9,449.1 538.0,457.2 538.0,462.0 C 538.0,468.4 539.0,475.3 539.0,481.0 C 539.0,482.9 540.9,486.1 539.0,487.0 C 535.3,488.9 523.0,477.0 520.0,474.0 C 506.0,460.0 504.6,442.4 519.0,428.0 Z M 570.0,419.0 C 577.3,411.7 587.6,426.3 590.0,431.0 C 597.3,445.7 573.9,452.1 567.0,459.0 C 564.5,461.5 556.0,471.0 555.0,471.0 C 552.1,471.0 557.3,459.5 555.0,455.0 C 552.7,450.5 553.3,444.5 551.0,440.0 C 550.5,439.1 548.3,438.4 549.0,437.0 C 552.2,430.6 560.9,419.0 569.0,419.0 Z M 301.0,363.0 C 305.1,358.9 320.7,373.8 325.0,376.0 C 344.4,385.7 355.7,415.5 364.0,432.0 C 365.0,434.1 372.5,452.0 372.0,453.0 C 370.9,455.2 365.5,451.7 364.0,451.0 C 356.3,447.1 347.6,445.8 340.0,442.0 C 336.3,440.2 330.8,441.9 327.0,440.0 C 323.3,438.2 317.8,428.5 316.0,425.0 C 312.7,418.4 308.3,412.6 305.0,406.0 C 298.7,393.4 301.0,378.2 301.0,364.0 Z M 635.0,360.0 C 636.7,358.3 652.8,357.7 654.0,360.0 C 655.5,363.0 646.8,373.6 644.0,375.0 C 636.2,378.9 629.7,385.2 622.0,389.0 C 608.3,395.8 589.4,396.0 573.0,396.0 C 567.3,396.0 558.8,396.9 555.0,395.0 C 553.6,394.3 549.0,397.2 549.0,395.0 C 549.0,393.3 553.1,392.4 554.0,392.0 C 558.8,389.6 563.2,386.4 568.0,384.0 C 589.3,373.3 608.3,360.0 634.0,360.0 Z M 441.0,347.0 C 448.6,339.4 453.3,359.6 455.0,363.0 C 461.0,375.0 457.2,400.8 448.0,410.0 C 442.0,416.0 430.7,423.3 422.0,419.0 C 417.7,416.9 413.7,415.7 410.0,412.0 C 406.6,408.6 405.9,405.7 404.0,402.0 C 401.5,397.1 400.3,385.4 403.0,380.0 C 404.2,377.6 410.8,376.1 413.0,375.0 C 419.1,372.0 425.0,366.0 430.0,361.0 C 433.0,358.0 440.0,352.1 440.0,348.0 Z M 428.0,342.0 C 429.5,340.5 437.0,342.7 437.0,345.0 C 437.0,349.3 418.9,365.0 415.0,367.0 C 413.3,367.9 407.9,374.0 406.0,373.0 C 403.8,371.9 408.3,367.5 409.0,366.0 C 413.2,357.5 419.7,350.3 427.0,343.0 Z M 506.0,332.0 C 509.3,328.7 515.6,334.6 518.0,337.0 C 523.6,342.6 535.1,353.7 530.0,364.0 C 511.6,400.9 468.4,375.9 454.0,347.0 C 453.3,345.6 461.3,336.9 463.0,336.0 C 469.7,332.7 481.3,339.3 488.0,336.0 C 489.9,335.1 503.3,332.0 505.0,332.0 Z M 472.0,324.0 C 475.7,320.3 491.4,323.2 495.0,325.0 C 495.9,325.5 502.4,325.2 501.0,328.0 C 499.6,330.9 493.4,328.8 491.0,330.0 C 488.3,331.3 469.2,333.6 466.0,332.0 C 460.6,329.3 467.5,324.0 471.0,324.0 Z M 371.0,320.0 C 374.6,316.4 393.7,327.8 398.0,330.0 C 402.8,332.4 412.5,335.0 418.0,335.0 C 419.4,335.0 425.0,335.0 425.0,337.0 C 425.0,337.9 415.0,347.1 414.0,349.0 C 410.9,355.1 398.8,375.6 394.0,378.0 C 382.1,383.9 353.7,381.5 347.0,368.0 C 345.2,364.3 343.8,360.6 342.0,357.0 C 340.7,354.4 342.0,347.1 343.0,345.0 C 344.0,342.9 343.9,340.1 345.0,338.0 C 348.9,330.1 361.1,320.0 370.0,320.0 Z M 385.0,318.0 C 388.1,314.9 413.5,319.3 417.0,321.0 C 419.1,322.0 425.8,325.4 424.0,329.0 C 422.5,332.0 416.7,329.0 415.0,329.0 C 404.6,329.0 394.3,319.0 386.0,319.0 Z M 440.0,313.0 C 444.0,309.0 454.8,314.7 457.0,319.0 C 461.7,328.5 457.1,336.5 448.0,341.0 C 446.1,342.0 442.5,340.7 441.0,340.0 C 431.1,335.1 426.9,329.2 432.0,319.0 C 433.1,316.9 436.3,313.0 439.0,313.0 Z M 599.0,304.0 C 599.5,303.5 603.0,301.7 603.0,304.0 C 603.0,311.4 599.3,323.7 594.0,329.0 C 592.8,330.2 588.9,334.9 587.0,334.0 C 580.6,330.8 594.8,309.2 599.0,305.0 Z M 626.0,286.0 C 632.4,279.6 637.6,292.8 635.0,298.0 C 626.6,314.9 629.3,323.4 608.0,334.0 C 605.7,335.2 600.2,337.6 597.0,336.0 C 595.3,335.2 602.9,323.1 604.0,321.0 C 607.0,315.0 604.4,303.2 607.0,298.0 C 608.8,294.4 614.9,291.5 618.0,290.0 C 620.4,288.8 622.2,286.0 625.0,286.0 Z M 477.0,280.0 C 480.7,276.3 479.8,283.3 479.0,285.0 C 475.5,291.9 470.7,300.3 465.0,306.0 C 464.1,306.9 460.2,312.0 459.0,312.0 C 458.6,312.0 455.5,310.2 455.0,310.0 C 452.0,308.5 457.2,304.5 458.0,303.0 C 462.0,294.9 469.1,287.9 476.0,281.0 Z M 424.0,276.0 C 425.6,274.4 428.1,278.2 429.0,280.0 C 432.5,287.0 435.6,294.2 439.0,301.0 C 439.4,301.9 441.5,305.1 441.0,306.0 C 437.9,312.2 433.6,306.2 432.0,303.0 C 428.6,296.1 424.0,285.0 424.0,277.0 Z M 595.0,270.0 C 600.5,264.5 601.8,288.5 603.0,291.0 C 604.2,293.5 590.7,306.6 589.0,310.0 C 586.4,315.1 580.4,328.7 579.0,328.0 C 574.6,325.8 574.8,318.5 573.0,315.0 C 571.6,312.2 571.6,308.8 573.0,306.0 C 574.3,303.4 574.8,293.4 577.0,289.0 C 580.8,281.3 587.9,276.1 594.0,270.0 Z M 612.0,267.0 C 619.0,260.0 628.8,278.6 620.0,283.0 C 618.3,283.8 609.5,290.7 608.0,290.0 C 605.5,288.8 608.0,284.9 607.0,283.0 C 603.2,275.4 605.7,272.3 611.0,267.0 Z M 508.0,265.0 C 510.1,262.9 514.8,263.9 517.0,265.0 C 518.9,266.0 522.0,265.0 524.0,266.0 C 533.5,270.8 536.6,277.3 541.0,286.0 C 542.8,289.5 540.3,296.4 539.0,299.0 C 533.0,311.1 525.0,318.0 513.0,324.0 C 509.5,325.8 493.4,318.0 488.0,318.0 C 484.6,318.0 477.0,316.5 474.0,318.0 C 472.2,318.9 467.3,321.2 465.0,320.0 C 457.6,316.3 472.3,306.4 474.0,303.0 C 476.3,298.5 479.7,294.6 482.0,290.0 C 488.4,277.1 486.8,265.0 507.0,265.0 Z M 383.0,251.0 C 387.7,246.3 400.0,252.0 404.0,254.0 C 409.3,256.7 416.0,261.1 419.0,267.0 C 421.8,272.5 418.2,281.4 421.0,287.0 C 424.7,294.5 427.2,302.4 431.0,310.0 C 431.4,310.8 425.3,319.0 424.0,319.0 C 420.0,319.0 409.8,314.9 406.0,313.0 C 403.9,311.9 400.1,314.1 398.0,313.0 C 392.2,310.1 380.6,314.8 377.0,313.0 C 372.4,310.7 365.5,304.9 363.0,300.0 C 355.0,283.9 356.7,263.1 375.0,254.0 C 377.4,252.8 379.1,251.0 382.0,251.0 Z M 454.0,228.0 C 457.3,224.7 465.0,229.5 468.0,231.0 C 476.2,235.1 489.2,254.7 484.0,265.0 C 479.5,274.0 466.7,278.5 462.0,288.0 C 459.4,293.3 454.6,297.7 452.0,303.0 C 451.3,304.5 447.9,307.9 446.0,307.0 C 443.8,305.9 445.8,303.6 445.0,302.0 C 442.7,297.4 441.3,292.6 439.0,288.0 C 435.3,280.6 428.8,274.6 425.0,267.0 C 423.9,264.8 425.1,259.7 426.0,258.0 C 427.4,255.2 426.6,250.9 428.0,248.0 C 432.6,238.9 442.0,228.0 453.0,228.0 Z"/>
  <path d="M 357.0,505.0 C 354.7,507.3 347.3,506.0 344.0,506.0 C 337.2,506.0 320.1,508.9 317.0,515.0 C 316.3,516.5 319.9,520.9 321.0,522.0 C 326.2,527.2 330.4,533.7 337.0,537.0 C 339.7,538.4 341.3,541.6 344.0,543.0 C 350.7,546.3 357.3,549.7 364.0,553.0 C 371.0,556.5 380.1,555.5 387.0,559.0 C 388.9,560.0 393.8,559.0 396.0,559.0 C 401.2,559.0 412.9,561.5 418.0,559.0 C 419.6,558.2 426.3,555.1 428.0,556.0 C 429.8,556.9 429.3,560.5 430.0,562.0 C 433.3,568.7 431.2,579.5 434.0,585.0 C 434.2,585.4 433.0,591.5 433.0,593.0 C 433.0,601.1 432.4,612.2 429.0,619.0 C 424.9,627.1 421.5,648.9 416.0,660.0 C 407.9,676.2 398.2,691.7 390.0,708.0 C 384.1,719.8 370.9,728.1 365.0,740.0 C 363.2,743.6 357.8,745.4 356.0,749.0 C 355.2,750.6 359.7,752.6 361.0,752.0 C 364.4,750.3 369.5,744.0 371.0,741.0 C 374.6,733.9 387.2,723.5 392.0,714.0 C 397.0,704.0 405.0,695.9 410.0,686.0 C 416.7,672.6 421.3,658.3 428.0,645.0 C 432.2,636.5 431.7,625.5 436.0,617.0 C 437.5,614.0 435.5,609.0 437.0,606.0 C 442.0,596.0 438.5,565.1 434.0,556.0 C 426.9,541.7 418.0,525.0 402.0,517.0 C 394.4,513.2 384.8,511.4 378.0,508.0 C 374.2,506.1 360.2,503.8 358.0,506.0 Z M 360.0,511.0 C 361.1,509.9 369.9,511.0 372.0,512.0 C 376.0,514.0 381.9,513.0 386.0,515.0 C 396.1,520.0 405.4,525.4 414.0,534.0 C 415.8,535.8 425.5,549.0 425.0,550.0 C 422.2,555.6 401.2,554.0 396.0,554.0 C 376.2,554.0 351.9,544.9 338.0,531.0 C 336.0,529.0 322.9,518.3 324.0,516.0 C 325.9,512.1 332.9,514.5 336.0,513.0 C 342.1,509.9 351.7,511.0 359.0,511.0 Z"/>
</g>
</svg>