<svg xmlns="http://www.w3.org/2000/svg" version="1.0" width="1024.000000pt" height="1024.000000pt" viewBox="0 0 1024.000000 1024.000000" preserveAspectRatio="xMidYMid meet">
<g transform="translate(0.000000,1024.000000) scale(0.100000,-0.100000)" fill="none" stroke="#2f4255" stroke-width="100.0" stroke-linecap="round" stroke-linejoin="round">
<path d="M4935 9011 c-31 -14 -56 -46 -66 -88 -6 -21 -14 -53 -19 -72 -5 -18 -23 -49 -42 -68 l-33 -34 -4 -333 -3 -334 -67 16 c-74 17 -128 41 -281 128 -58 32 -117 66 -132 74 -15 8 -68 39 -118 69 -88 52 -94 53 -170 55 -73 1 -82 -1 -104 -24 -13 -14 -31 -45 -39 -70 -30 -86 -42 -115 -60 -141 -15 -23 -18 -65 -24 -368 -5 -257 -9 -341 -18 -341 -44 0 -168 38 -210 64 -27 18 -62 38 -77 46 -14 8 -82 47 -150 86 -68 39 -145 82 -173 95 -27 12 -62 31 -78 41 -20 14 -45 20 -93 20 -58 0 -69 -3 -95 -28 -16 -15 -29 -35 -29 -44 0 -36 -42 -136 -68 -163 l-27 -28 -1 -557 c0 -306 -3 -569 -7 -584 -6 -22 -17 -29 -61 -42 -30 -9 -64 -16 -75 -16 -12 0 -45 -16 -74 -35 -28 -19 -55 -35 -60 -35 -4 0 -40 -20 -80 -43 -85 -52 -241 -142 -300 -175 -40 -23 -210 -123 -252 -149 -11 -7 -34 -19 -50 -27 -48 -23 -237 -135 -272 -162 -17 -13 -38 -24 -46 -24 -7 0 -51 -25 -97 -55 -46 -30 -89 -55 -95 -55 -22 0 -98 -74 -115 -113 -15 -33 -26 -42 -67 -56 -88 -29 -83 24 -83 -849 l0 -763 45 -44 c24 -25 49 -45 54 -45 6 0 69 -34 140 -75 72 -41 132 -75 135 -75 2 0 42 -23 88 -52 46 -29 117 -71 158 -93 41 -23 154 -88 250 -145 198 -116 188 -111 370 -214 74 -42 142 -81 150 -86 8 -5 47 -28 85 -52 39 -23 90 -53 115 -67 25 -13 85 -48 134 -77 49 -30 91 -54 93 -54 2 0 73 -40 157 -89 84 -49 180 -104 212 -122 32 -18 68 -37 79 -43 11 -6 40 -25 65 -41 25 -17 61 -38 80 -48 19 -9 58 -31 85 -49 81 -50 133 -78 146 -78 7 0 22 -9 33 -19 12 -11 93 -60 181 -110 88 -50 174 -99 190 -110 17 -10 91 -54 165 -96 171 -99 247 -143 285 -166 32 -19 181 -103 275 -155 31 -17 81 -37 111 -43 30 -7 62 -15 71 -17 9 -3 31 8 50 24 23 21 56 34 108 46 45 10 101 32 140 56 36 21 193 113 350 205 157 92 299 178 317 191 17 13 36 24 41 24 13 0 327 184 369 216 17 13 36 24 41 24 8 0 134 72 557 320 44 26 346 202 670 392 325 190 696 407 825 483 129 76 289 170 355 208 66 39 142 85 170 104 27 18 54 33 58 33 25 0 179 105 188 127 5 14 9 336 9 782 l0 758 -22 20 c-13 12 -41 29 -62 40 -28 13 -47 32 -66 68 -19 35 -39 56 -72 75 -26 14 -55 33 -65 43 -11 9 -25 17 -31 17 -7 0 -30 11 -51 24 -21 14 -54 32 -72 40 -19 9 -63 34 -99 57 -36 22 -92 56 -125 73 -67 36 -56 30 -320 186 -104 62 -212 118 -240 126 -27 7 -69 19 -92 25 -24 6 -44 18 -47 28 -2 9 -7 133 -11 277 l-7 260 27 32 c15 17 40 41 57 53 l29 21 29 -27 c16 -15 33 -24 40 -20 7 4 -2 18 -25 38 l-36 32 27 50 c24 43 28 65 32 157 4 99 2 113 -27 203 -38 116 -79 183 -178 290 -64 69 -175 155 -200 155 -4 0 -21 7 -38 16 -40 21 -196 24 -245 4 -19 -8 -57 -27 -83 -43 -65 -39 -109 -40 -171 -2 -26 17 -76 45 -110 63 -33 19 -68 40 -77 48 -8 8 -20 14 -26 14 -6 0 -21 8 -34 19 -13 10 -35 22 -49 26 -14 4 -68 33 -120 65 -52 31 -115 67 -140 81 -25 13 -100 56 -168 96 -67 40 -125 73 -129 73 -4 0 -34 17 -67 39 -34 21 -119 71 -191 111 -71 40 -142 81 -156 91 -15 10 -56 34 -93 54 -37 19 -86 47 -109 62 -23 15 -55 34 -72 43 -16 9 -52 29 -79 43 -27 15 -54 27 -59 27 -6 0 -24 10 -41 23 -43 32 -105 67 -118 67 -7 0 -21 9 -33 20 -43 41 -118 71 -185 76 -36 2 -74 0 -85 -5z m200 -55 c27 -15 59 -35 70 -46 12 -11 26 -20 33 -20 13 0 75 -35 118 -67 17 -13 35 -23 41 -23 5 0 32 -12 59 -27 27 -14 63 -34 79 -43 17 -9 49 -28 72 -43 23 -15 72 -43 109 -62 37 -20 78 -44 93 -54 14 -10 85 -51 156 -91 72 -40 157 -90 191 -111 33 -22 63 -39 67 -39 4 0 62 -33 129 -73 68 -40 143 -83 168 -96 25 -14 88 -50 140 -81 52 -32 106 -61 120 -65 14 -4 36 -16 49 -26 13 -11 27 -19 31 -19 5 0 32 -16 61 -35 30 -19 58 -35 63 -35 4 0 35 -18 67 -39 32 -22 64 -41 70 -43 9 -3 8 -27 -5 -93 -25 -139 -21 -216 15 -321 17 -49 34 -107 39 -129 4 -22 11 -54 15 -72 7 -29 5 -33 -21 -39 -15 -4 -63 -24 -105 -46 -126 -63 -124 -63 -221 30 -95 91 -199 162 -238 162 -14 0 -31 5 -37 11 -17 17 -142 14 -195 -4 -25 -9 -68 -30 -95 -46 -26 -16 -60 -32 -74 -36 -42 -10 -165 52 -242 121 -35 33 -90 81 -121 107 -37 32 -56 56 -56 70 0 44 -38 158 -66 198 -16 23 -45 67 -66 98 -20 31 -53 76 -73 101 -36 45 -281 386 -405 565 -80 115 -172 236 -191 251 -8 6 -36 19 -62 29 -48 18 -49 19 -42 54 3 20 10 47 15 61 4 14 11 38 14 53 4 15 17 32 29 37 39 17 147 4 202 -24z m-240 -201 c28 -13 55 -25 62 -25 12 0 80 -87 183 -235 129 -186 369 -521 405 -565 20 -25 54 -72 76 -105 22 -33 52 -79 68 -103 27 -39 70 -177 59 -188 -3 -2 -41 2 -86 10 -59 10 -98 24 -141 50 -32 20 -64 36 -71 36 -7 0 -33 15 -59 34 -26 19 -77 51 -114 71 -38 19 -87 47 -110 62 -23 15 -69 40 -102 56 -68 33 -67 33 -156 87 -38 23 -76 56 -90 78 l-24 37 5 346 c4 270 9 350 19 363 17 20 17 20 76 -9z m-722 -418 c49 -29 100 -59 115 -67 15 -8 74 -42 132 -74 154 -88 211 -113 280 -128 45 -9 67 -19 79 -36 41 -60 66 -82 128 -121 91 -55 90 -55 158 -88 33 -16 79 -41 102 -56 23 -15 72 -43 110 -62 37 -20 88 -52 114 -71 26 -19 52 -34 59 -34 7 0 39 -16 72 -36 45 -28 80 -40 151 -52 102 -17 77 0 287 -188 41 -36 94 -72 132 -89 l64 -28 -13 -71 c-20 -118 -17 -281 8 -346 12 -30 29 -92 39 -138 16 -77 16 -84 1 -88 -9 -3 -52 -23 -96 -44 -96 -47 -148 -64 -174 -55 -10 3 -61 47 -113 98 -68 67 -115 104 -169 132 -71 37 -78 39 -174 39 -88 1 -104 -2 -132 -22 -17 -12 -35 -22 -39 -22 -4 0 -16 -8 -27 -17 -10 -10 -38 -25 -60 -33 -42 -16 -42 -16 -121 25 -99 50 -306 233 -306 271 0 37 -51 187 -72 210 -10 11 -178 243 -372 515 l-353 494 -64 27 c-74 31 -75 36 -36 138 29 75 40 82 137 74 55 -5 78 -14 153 -57z m-266 -179 c28 -11 60 -30 71 -42 10 -11 166 -228 347 -481 180 -253 338 -471 350 -485 22 -25 75 -173 75 -211 0 -15 -5 -19 -17 -15 -10 3 -48 12 -85 20 -44 10 -104 37 -173 76 -59 33 -111 60 -116 60 -4 0 -39 20 -76 45 -37 25 -74 45 -84 45 -9 0 -22 7 -29 15 -6 8 -21 17 -32 21 -12 3 -50 26 -86 50 -36 24 -72 44 -79 44 -7 0 -36 15 -64 34 -27 19 -58 37 -67 41 -26 7 -66 82 -54 98 5 7 12 161 15 348 4 185 9 344 13 353 4 11 12 15 23 11 9 -4 39 -16 68 -27z m3658 -268 c6 -4 21 -11 35 -15 79 -24 223 -155 293 -266 20 -32 51 -100 68 -154 29 -90 31 -104 27 -203 -6 -129 -27 -177 -115 -263 l-58 -57 -116 9 c-67 4 -134 15 -160 25 -64 26 -180 107 -217 153 -17 21 -47 44 -66 51 -34 11 -42 27 -60 120 -2 14 -18 65 -35 114 -36 105 -40 182 -15 319 12 64 21 90 33 93 15 5 26 10 116 57 21 12 57 24 80 28 46 8 175 1 190 -11z m-4495 -110 c14 -9 48 -27 75 -39 28 -13 105 -56 173 -95 68 -39 136 -78 150 -86 15 -8 50 -29 77 -46 31 -19 82 -38 130 -49 77 -16 81 -19 107 -60 17 -28 42 -52 70 -66 24 -12 57 -32 74 -45 17 -13 38 -24 46 -24 8 0 44 -20 80 -44 36 -24 74 -47 86 -50 11 -4 26 -13 32 -21 7 -8 20 -15 29 -15 10 0 47 -20 84 -45 37 -25 72 -45 76 -45 5 0 57 -27 116 -61 85 -48 126 -64 203 -81 l97 -22 116 -106 c80 -73 138 -117 186 -141 60 -30 69 -37 62 -54 -4 -11 -8 -85 -8 -163 -1 -143 11 -220 43 -282 7 -14 19 -54 26 -89 13 -62 13 -64 -11 -82 -13 -10 -37 -21 -54 -25 -16 -3 -47 -17 -67 -30 -21 -13 -42 -24 -48 -24 -6 0 -18 -4 -28 -9 -9 -5 -69 -30 -132 -56 -72 -29 -125 -57 -141 -74 -21 -23 -41 -31 -100 -41 -41 -7 -99 -24 -129 -39 -62 -29 -120 -33 -164 -11 -19 10 -69 73 -141 175 -90 131 -118 164 -151 180 -39 19 -42 24 -58 90 -10 40 -27 80 -40 95 -35 38 -445 618 -460 650 -3 8 -19 31 -34 51 -103 135 -152 202 -152 208 0 4 -23 36 -50 70 -28 35 -60 80 -71 100 -10 20 -34 55 -52 78 -168 219 -159 210 -227 238 -25 10 -47 20 -48 21 -4 3 36 141 48 164 15 31 134 31 180 0z m-202 -205 c29 -14 56 -25 61 -25 6 0 36 -34 68 -75 32 -42 73 -95 90 -118 18 -23 42 -58 52 -78 11 -20 43 -65 71 -100 27 -34 50 -66 50 -70 0 -6 49 -73 152 -208 15 -20 31 -43 34 -51 15 -31 424 -611 460 -650 22 -25 59 -142 51 -164 -3 -6 -22 -17 -43 -24 -22 -7 -48 -17 -59 -21 -11 -5 -38 -15 -60 -24 -22 -8 -89 -35 -150 -60 -60 -25 -141 -58 -180 -73 -38 -15 -74 -31 -80 -35 -5 -5 -15 -9 -23 -9 -14 0 -259 -94 -341 -131 -24 -11 -66 -24 -94 -30 -28 -5 -58 -16 -68 -25 -22 -20 -57 -4 -63 29 -3 12 -7 176 -11 365 -3 188 -10 354 -15 368 -7 17 -6 32 2 47 9 16 12 170 12 588 1 464 3 569 15 582 7 10 14 17 15 17 1 0 26 -11 54 -25z m3697 -286 c5 -5 21 -9 36 -9 35 0 164 -85 213 -141 21 -24 57 -57 79 -74 36 -27 42 -38 63 -120 13 -49 29 -121 35 -160 12 -79 8 -230 -8 -260 -5 -11 -18 -34 -27 -52 -9 -17 -16 -38 -16 -47 0 -8 -8 -31 -17 -51 -19 -40 -14 -39 -178 -35 -172 4 -263 40 -382 153 -30 28 -71 59 -91 69 -35 16 -38 20 -53 95 -9 43 -26 103 -38 133 -24 64 -29 208 -10 334 10 63 15 76 33 82 11 3 46 21 76 38 50 29 98 48 155 60 29 5 118 -5 130 -15z m681 -145 c22 -9 54 -33 72 -54 39 -46 159 -129 222 -154 25 -10 83 -20 135 -22 149 -8 132 21 139 -241 4 -126 8 -255 8 -288 3 -113 -14 -1000 -18 -1007 -11 -18 -81 -42 -123 -42 l-45 -1 -19 65 c-14 48 -38 90 -90 160 -39 52 -86 119 -103 148 -17 28 -47 70 -67 91 -19 21 -47 60 -63 87 -15 27 -48 74 -74 104 -25 30 -79 102 -120 160 -80 115 -118 160 -135 160 -28 0 -34 23 -14 61 10 21 19 46 19 55 0 9 6 28 14 42 39 76 41 87 41 211 -1 105 -5 142 -27 221 -37 134 -40 150 -27 150 12 0 213 93 235 109 1 1 19 -6 40 -15z m-1608 -479 c51 -26 98 -63 165 -128 51 -51 101 -97 111 -102 12 -7 24 -38 38 -100 48 -223 52 -336 14 -418 -13 -29 -31 -78 -40 -109 l-17 -57 -52 -6 c-65 -8 -237 11 -292 33 -54 21 -149 85 -210 141 -27 26 -64 53 -81 60 -28 11 -33 19 -44 74 -7 34 -19 73 -26 87 -31 60 -44 139 -44 277 0 76 3 148 6 160 4 16 19 27 45 34 21 7 46 20 55 31 10 10 21 18 27 18 5 0 21 9 36 19 34 25 69 30 162 26 63 -3 88 -10 147 -40z m630 -132 c21 -9 62 -40 93 -69 117 -110 222 -154 365 -154 l83 0 5 -347 c2 -192 4 -359 4 -373 -1 -291 -8 -702 -13 -757 l-7 -73 -67 -20 c-38 -11 -75 -20 -83 -20 -16 0 -48 80 -48 117 0 11 -13 40 -30 66 -16 26 -30 51 -30 56 0 5 -7 14 -16 21 -22 19 -159 212 -182 257 -11 21 -30 47 -42 58 -12 11 -34 40 -48 65 -14 25 -39 61 -57 80 -17 19 -38 45 -46 56 -93 141 -148 208 -180 225 l-36 18 20 63 c11 35 31 86 44 115 37 83 33 197 -16 422 -12 52 -21 96 -21 97 0 1 15 6 33 10 26 5 107 43 207 95 22 11 28 11 68 -8z m-3524 -178 c3 -9 9 -174 12 -368 4 -194 11 -362 15 -375 5 -12 19 -27 31 -33 17 -7 29 -28 42 -72 23 -74 43 -98 93 -116 76 -27 131 -101 110 -150 -14 -33 -47 -71 -62 -71 -6 0 -34 -16 -61 -35 -27 -19 -57 -35 -66 -35 -9 0 -20 -5 -23 -11 -4 -5 -17 -14 -28 -19 -12 -6 -40 -21 -62 -35 -22 -14 -47 -28 -55 -32 -8 -3 -28 -17 -43 -30 -16 -13 -33 -23 -40 -23 -6 0 -78 -39 -161 -87 -104 -61 -169 -93 -215 -104 -80 -20 -91 -13 -110 60 -7 27 -22 58 -34 68 -30 27 -161 113 -172 113 -5 0 -16 6 -24 14 -9 7 -41 27 -71 43 -30 16 -77 44 -105 61 -27 17 -55 32 -61 32 -6 0 -17 6 -23 14 -7 8 -38 26 -69 41 -31 15 -80 43 -108 61 -27 18 -68 41 -90 51 -21 10 -60 33 -86 50 -26 18 -52 33 -56 33 -5 0 -17 9 -27 20 -17 19 -17 22 -1 65 16 42 68 95 93 95 5 0 47 25 93 55 46 30 90 55 97 55 8 0 29 11 46 24 35 27 224 139 272 162 16 8 39 20 50 27 42 26 212 126 252 149 59 33 215 123 300 175 40 23 76 43 80 43 5 0 32 16 60 35 29 19 63 35 75 35 13 0 43 7 68 14 58 19 57 19 64 1z m5198 -45 c34 -11 69 -20 76 -20 7 0 102 -52 210 -116 108 -64 213 -126 232 -137 19 -11 62 -35 95 -53 33 -17 89 -51 125 -73 36 -23 80 -48 99 -57 18 -8 51 -26 72 -40 21 -13 45 -24 52 -24 8 0 21 -8 31 -18 9 -11 33 -27 54 -37 26 -13 44 -33 62 -68 l24 -49 -21 -17 c-26 -20 -205 -125 -282 -166 -31 -16 -69 -40 -85 -52 -16 -13 -33 -23 -38 -23 -5 0 -63 -33 -129 -72 -66 -40 -132 -80 -147 -88 -15 -9 -40 -24 -55 -34 -35 -24 -78 -47 -137 -75 -24 -12 -51 -28 -60 -36 -8 -7 -46 -30 -85 -50 -38 -20 -79 -44 -90 -53 -11 -10 -42 -29 -70 -42 -27 -13 -75 -39 -105 -59 -90 -58 -160 -90 -227 -106 -83 -19 -79 -20 -91 13 -9 27 -126 112 -207 152 -16 8 -49 27 -72 42 -23 15 -52 32 -65 38 -22 9 -33 15 -75 40 -44 26 -87 41 -135 48 l-53 7 -3 234 c-1 129 1 238 5 242 10 10 160 -23 198 -44 17 -9 46 -24 65 -34 19 -10 55 -32 80 -49 25 -17 61 -37 80 -44 19 -8 56 -29 81 -47 27 -19 73 -39 110 -48 170 -40 158 -39 182 -17 12 11 38 22 58 26 49 9 116 42 128 64 7 14 17 418 21 905 0 66 0 66 92 37z m-975 -30 c7 0 49 -53 94 -117 45 -65 104 -143 129 -173 26 -30 59 -77 74 -104 16 -27 44 -66 63 -87 20 -21 50 -63 67 -91 17 -29 64 -96 103 -148 51 -68 76 -112 88 -155 10 -33 24 -67 31 -76 16 -18 18 -39 4 -39 -5 0 -29 5 -52 10 -24 6 -72 17 -107 25 -38 9 -83 29 -110 48 -25 18 -62 39 -81 47 -19 7 -55 27 -80 44 -25 17 -61 39 -80 49 -19 10 -51 26 -70 36 -19 10 -65 24 -103 32 -48 9 -73 19 -83 33 -11 17 -14 80 -14 353 l0 333 28 6 c15 3 32 7 37 9 6 1 19 -6 31 -16 11 -11 25 -19 31 -19z m-2950 -285 c32 -13 55 -40 141 -163 115 -166 141 -194 195 -212 43 -13 77 -8 144 24 49 24 185 52 201 42 6 -3 13 -21 16 -40 4 -19 20 -52 37 -73 16 -21 100 -144 185 -273 86 -129 167 -248 180 -265 14 -16 58 -82 100 -145 42 -63 86 -126 98 -140 13 -14 26 -32 29 -40 7 -19 257 -385 291 -426 16 -19 49 -40 86 -54 l60 -22 0 -47 c0 -50 -25 -147 -43 -169 -20 -25 -92 -53 -139 -53 -42 -1 -94 19 -188 70 -55 30 -68 37 -95 51 -17 8 -51 29 -75 46 -25 16 -52 33 -60 37 -8 5 -33 19 -55 32 -22 14 -58 34 -80 45 -22 11 -58 31 -80 45 -22 13 -53 31 -70 40 -16 8 -37 19 -45 24 -8 4 -28 15 -45 24 -16 9 -44 23 -62 32 -17 8 -35 20 -38 25 -4 6 -17 16 -28 21 -12 6 -40 21 -62 34 -22 14 -51 30 -65 37 -14 7 -36 20 -49 30 -13 10 -30 18 -38 18 -8 0 -35 16 -60 35 -26 20 -58 38 -72 42 -14 3 -37 14 -50 25 -13 10 -28 18 -32 18 -5 0 -31 15 -57 33 -26 18 -54 37 -62 41 -8 4 -37 20 -65 36 -27 16 -64 36 -81 44 -17 7 -35 19 -38 25 -4 6 -15 11 -25 11 -10 0 -26 9 -36 20 -10 11 -22 20 -27 20 -6 0 -21 9 -35 20 -14 11 -33 20 -41 20 -9 0 -45 20 -81 44 -36 25 -94 60 -128 78 -34 18 -115 64 -180 101 -91 53 -141 75 -216 95 -81 21 -98 29 -103 47 -7 28 -87 95 -137 116 -34 13 -41 23 -58 70 -10 30 -18 62 -19 72 0 18 36 37 72 37 11 0 46 11 77 24 121 52 340 136 353 136 8 0 18 4 24 9 5 4 41 20 79 35 39 15 120 48 180 73 61 25 128 52 150 60 55 21 73 28 130 51 28 11 51 21 52 21 2 1 20 -6 40 -14z m1261 -49 c26 -13 61 -39 77 -56 38 -41 158 -122 210 -142 22 -9 83 -21 135 -27 52 -7 97 -14 100 -17 3 -3 6 -327 7 -719 1 -567 -1 -717 -11 -731 -13 -17 -17 -16 -75 6 -40 15 -69 32 -79 49 -9 14 -74 110 -144 212 -71 103 -128 191 -128 196 0 6 -9 18 -20 28 -11 10 -56 73 -100 139 -44 67 -90 135 -103 151 -14 17 -95 136 -180 265 -86 129 -168 249 -182 267 -32 40 -67 141 -55 163 4 8 61 37 127 63 65 27 126 53 135 58 10 5 22 9 28 9 6 0 27 11 48 24 20 13 51 27 67 30 17 4 44 18 60 31 17 13 31 24 33 25 1 0 24 -11 50 -24z m773 -352 c30 -42 60 -86 68 -98 8 -11 29 -37 46 -56 18 -19 43 -55 57 -80 14 -25 36 -54 48 -65 12 -11 31 -37 42 -58 23 -45 160 -238 182 -257 9 -7 16 -16 16 -21 0 -5 14 -30 30 -56 17 -26 30 -56 30 -67 0 -12 7 -39 15 -61 20 -56 19 -66 -7 -61 -97 20 -167 41 -188 55 -14 9 -36 22 -50 29 -14 7 -43 23 -65 37 -22 13 -53 31 -70 40 -16 9 -52 29 -80 45 -84 49 -117 62 -198 81 -43 9 -82 20 -85 24 -4 4 -7 159 -7 346 l0 339 40 8 c35 7 46 4 81 -20 23 -15 65 -62 95 -104z m3097 -14 l42 -19 0 -761 c0 -469 -4 -768 -10 -779 -9 -17 -139 -101 -157 -101 -4 0 -31 -15 -58 -33 -28 -19 -104 -65 -170 -104 -66 -38 -226 -132 -355 -208 -129 -76 -500 -293 -825 -483 -324 -190 -626 -366 -670 -392 -423 -248 -549 -320 -557 -320 -5 0 -24 -11 -41 -24 -42 -32 -356 -216 -369 -216 -5 0 -24 -11 -41 -24 -18 -13 -160 -99 -317 -191 -157 -92 -314 -184 -350 -206 -79 -47 -216 -81 -231 -58 -5 8 -9 347 -9 789 l0 776 68 32 c67 33 91 46 147 83 17 10 44 26 60 34 17 9 44 24 60 35 17 10 48 28 70 40 22 12 63 36 90 54 75 47 86 53 140 82 28 14 57 32 66 40 8 8 19 14 22 14 4 0 26 12 50 27 23 15 67 40 97 56 30 16 73 41 95 56 22 14 60 36 85 49 25 14 52 30 60 36 8 6 35 22 60 35 25 13 52 29 60 35 8 6 24 16 35 22 18 10 519 303 555 324 8 5 63 38 123 72 59 35 124 73 145 85 20 13 44 26 52 30 46 21 238 138 257 155 12 11 27 33 33 48 10 25 21 31 79 44 70 16 140 48 231 107 30 20 78 46 105 59 28 13 59 32 70 42 11 9 52 33 90 53 39 20 77 43 85 50 9 8 36 24 60 36 59 28 102 51 137 75 15 10 40 25 55 34 15 8 81 48 147 88 66 39 124 72 129 72 5 0 22 10 38 23 16 12 54 36 85 52 97 51 260 149 288 172 32 27 35 27 89 3z m-7925 -210 c4 0 29 -15 55 -33 26 -17 65 -40 86 -50 22 -10 63 -33 90 -51 28 -18 77 -46 108 -61 31 -15 62 -33 69 -41 6 -8 17 -14 23 -14 6 0 34 -15 61 -32 28 -17 75 -45 105 -61 30 -16 62 -36 71 -43 8 -8 19 -14 24 -14 4 0 43 -23 86 -51 70 -46 78 -55 90 -97 7 -26 20 -58 28 -71 9 -14 23 -72 32 -130 10 -58 27 -137 39 -176 12 -38 27 -92 35 -120 7 -27 24 -93 38 -146 34 -128 59 -166 145 -217 39 -23 73 -42 76 -42 3 0 24 -13 48 -29 24 -16 68 -42 98 -58 30 -16 75 -42 100 -58 25 -16 71 -42 102 -59 31 -17 123 -70 205 -117 81 -47 155 -89 163 -93 8 -4 33 -18 55 -31 22 -14 54 -32 70 -40 17 -9 42 -23 56 -33 14 -9 44 -29 67 -44 23 -16 47 -28 54 -28 7 0 24 -9 38 -20 14 -11 28 -20 32 -20 3 0 30 -16 59 -35 30 -19 61 -35 70 -35 9 0 22 -6 28 -14 7 -8 33 -17 59 -21 35 -4 50 -12 57 -27 10 -21 32 -22 27 -1 -1 6 9 23 23 37 14 14 25 31 25 39 0 8 7 20 15 27 8 7 15 20 15 30 0 10 7 23 15 30 8 7 15 25 15 40 0 15 7 33 15 40 8 7 15 20 15 29 0 10 7 26 15 37 8 10 15 29 15 41 0 12 4 25 10 28 6 3 10 14 10 24 0 10 7 24 15 31 8 7 15 23 15 36 0 55 102 50 203 -8 26 -15 50 -28 53 -28 3 0 18 -9 32 -19 15 -10 54 -33 87 -50 33 -18 80 -45 105 -60 92 -58 288 -171 296 -171 4 0 15 -7 24 -15 9 -9 37 -21 61 -28 l44 -13 5 -789 c3 -435 9 -800 14 -812 6 -16 3 -24 -11 -32 -28 -14 -142 14 -212 53 -95 51 -244 136 -276 155 -38 23 -114 67 -285 166 -74 42 -148 86 -165 96 -16 11 -102 60 -190 110 -88 50 -169 99 -181 110 -11 10 -26 19 -33 19 -13 0 -65 28 -146 78 -27 18 -66 40 -85 49 -19 10 -55 31 -80 48 -25 16 -54 35 -65 41 -11 6 -47 25 -79 43 -32 18 -128 73 -212 122 -84 49 -155 89 -157 89 -2 0 -44 24 -93 54 -49 29 -109 64 -134 77 -25 14 -76 44 -115 67 -38 24 -77 47 -85 52 -8 5 -76 44 -150 86 -182 103 -172 98 -370 214 -96 57 -209 122 -250 145 -41 22 -112 64 -158 93 -46 29 -86 52 -88 52 -3 0 -63 34 -135 75 -71 41 -134 75 -139 75 -4 0 -22 14 -39 31 l-31 31 0 761 c0 590 3 768 13 787 8 15 27 29 52 36 38 11 42 10 70 -17 17 -16 34 -29 38 -29z m1962 -144 c65 -18 122 -43 208 -93 65 -37 146 -83 180 -101 34 -18 92 -53 128 -78 36 -24 72 -44 81 -44 8 0 27 -9 41 -20 14 -11 29 -20 35 -20 5 0 17 -9 27 -20 10 -11 26 -20 36 -20 10 0 21 -5 25 -11 3 -6 21 -18 38 -25 17 -8 54 -28 81 -44 28 -16 57 -32 65 -36 8 -4 36 -23 62 -41 26 -18 52 -33 57 -33 4 0 19 -8 32 -18 13 -11 36 -22 50 -25 14 -4 46 -22 72 -42 25 -19 52 -35 60 -35 8 0 25 -8 38 -18 13 -10 35 -23 49 -30 14 -7 43 -23 65 -37 22 -13 50 -28 62 -34 11 -5 24 -15 28 -21 3 -5 21 -17 38 -25 18 -9 46 -23 62 -32 17 -9 37 -20 45 -24 8 -5 29 -16 45 -24 17 -9 48 -27 70 -40 22 -14 58 -34 80 -45 22 -11 58 -31 80 -45 22 -13 47 -27 55 -32 8 -4 35 -21 60 -37 24 -17 58 -38 75 -46 27 -14 40 -21 95 -51 163 -89 226 -92 332 -17 36 25 70 132 66 208 -2 41 3 62 16 83 18 27 19 47 13 377 -3 193 -2 352 2 354 11 7 161 -29 201 -48 19 -9 58 -30 85 -46 28 -16 64 -36 80 -45 17 -9 48 -27 70 -40 22 -14 51 -30 65 -37 14 -7 36 -20 50 -29 35 -23 155 -53 215 -52 63 0 186 37 210 63 15 16 19 44 23 161 l5 142 52 -6 c46 -5 90 -20 135 -45 8 -5 24 -14 35 -20 11 -7 30 -17 43 -22 13 -6 42 -23 65 -38 23 -15 56 -34 72 -42 76 -37 164 -102 184 -135 40 -68 3 -105 -237 -236 -24 -13 -59 -33 -78 -44 -18 -11 -82 -48 -141 -83 -60 -34 -115 -67 -123 -72 -36 -21 -537 -314 -555 -324 -11 -6 -27 -16 -35 -22 -8 -6 -35 -22 -60 -35 -25 -13 -52 -29 -60 -35 -8 -6 -35 -22 -60 -36 -25 -13 -63 -35 -85 -49 -22 -15 -65 -40 -95 -56 -30 -16 -74 -41 -97 -56 -24 -15 -46 -27 -50 -27 -3 0 -14 -6 -22 -14 -9 -8 -38 -26 -66 -40 -54 -29 -65 -35 -140 -82 -27 -18 -68 -42 -90 -54 -22 -12 -53 -30 -70 -40 -16 -11 -43 -26 -60 -35 -34 -18 -66 -37 -110 -65 -38 -25 -145 -77 -165 -81 -23 -4 -127 30 -140 46 -7 8 -17 15 -22 15 -9 0 -195 107 -298 171 -25 15 -72 42 -105 60 -33 17 -72 40 -87 50 -14 10 -29 19 -32 19 -3 0 -27 12 -53 28 -26 15 -70 33 -97 40 -27 7 -55 20 -61 29 -9 12 -14 13 -19 4 -5 -7 -6 -15 -3 -18 3 -3 -7 -16 -24 -30 -16 -14 -29 -35 -29 -48 0 -12 -7 -28 -15 -35 -8 -7 -15 -21 -15 -31 0 -10 -4 -21 -10 -24 -5 -3 -10 -16 -10 -28 0 -12 -7 -31 -15 -41 -8 -11 -15 -27 -15 -37 0 -9 -7 -22 -15 -29 -8 -7 -15 -25 -15 -40 0 -15 -7 -33 -15 -40 -8 -7 -15 -20 -15 -30 0 -10 -7 -23 -15 -30 -8 -7 -15 -18 -15 -26 0 -25 -33 -33 -90 -22 -30 6 -62 17 -71 24 -8 8 -22 14 -30 14 -8 0 -38 16 -68 35 -29 19 -56 35 -59 35 -4 0 -18 9 -32 20 -14 11 -31 20 -38 20 -7 0 -31 12 -54 28 -23 15 -53 35 -67 44 -14 10 -39 24 -56 33 -16 8 -48 26 -70 40 -22 13 -47 27 -55 31 -8 4 -82 46 -163 93 -82 47 -174 100 -205 117 -31 17 -77 43 -102 59 -25 16 -70 42 -100 58 -30 16 -73 41 -95 55 -22 14 -58 36 -80 48 -90 49 -105 60 -124 99 -11 23 -30 79 -42 125 -31 126 -45 177 -69 255 -21 66 -48 206 -49 250 -1 17 9 23 62 35 44 10 101 37 197 93 74 44 154 88 176 98 23 9 45 22 49 29 4 6 17 16 28 21 12 5 40 20 62 34 22 14 50 29 62 35 11 5 24 14 28 19 3 6 14 11 23 11 9 0 39 16 66 35 27 19 55 35 61 35 14 0 80 69 88 93 8 21 4 22 112 -7z"/>
</g>
<g transform="translate(0.000000,1024.000000) scale(0.100000,-0.100000)" fill="none" stroke="#2072bd" stroke-width="527.0" stroke-linecap="round" stroke-linejoin="round">
<path d="M7986 6211 c-4 -5 -2 -12 3 -15 5 -4 12 -2 15 3 4 5 2 12 -3 15 -5 4 -12 2 -15 -3z M9074 5453 c-9 -21 -32 -72 -51 -113 -19 -41 -48 -102 -63 -135 -15 -33 -48 -104 -74 -158 -25 -53 -46 -100 -46 -103 0 -3 -15 -38 -34 -77 -19 -40 -64 -133 -100 -207 l-64 -135 -75 -42 c-41 -24 -79 -43 -85 -43 -6 0 -24 -11 -40 -25 -16 -13 -50 -33 -75 -44 -24 -11 -47 -24 -51 -29 -7 -11 -198 -122 -211 -122 -5 0 -18 -9 -29 -19 -12 -11 -57 -38 -101 -61 -44 -23 -89 -50 -101 -61 -11 -10 -23 -19 -26 -19 -4 0 -49 -25 -102 -55 -52 -30 -100 -55 -105 -55 -6 0 -25 -13 -43 -28 -18 -16 -96 -64 -173 -107 -77 -43 -153 -88 -170 -101 -16 -12 -50 -30 -75 -40 -25 -9 -64 -30 -88 -46 -24 -15 -47 -28 -52 -28 -5 0 -22 -11 -38 -25 -17 -14 -47 -32 -69 -41 -21 -9 -52 -28 -69 -43 -35 -29 -63 -46 -177 -104 -42 -21 -107 -59 -144 -83 -37 -24 -73 -44 -79 -44 -7 0 -26 -11 -42 -25 -25 -21 -85 -55 -200 -114 -15 -7 -38 -24 -52 -36 -14 -13 -52 -35 -85 -50 -33 -15 -67 -34 -76 -41 -26 -23 -180 -115 -267 -160 -46 -24 -94 -51 -107 -61 -12 -10 -37 -26 -54 -35 -17 -9 -36 -30 -42 -45 -18 -51 -83 -188 -95 -203 -6 -8 -15 -26 -19 -40 -8 -27 -156 -352 -186 -410 -10 -19 -31 -64 -46 -100 -14 -36 -32 -72 -38 -80 -17 -21 -36 -81 -29 -91 9 -15 22 -1 35 39 6 20 17 44 23 52 7 8 25 44 39 80 15 36 36 81 46 100 30 58 178 383 186 410 4 14 13 32 19 40 15 19 96 195 96 209 0 5 9 12 19 16 11 3 31 15 45 26 14 11 62 39 108 63 87 45 241 137 267 160 9 7 43 26 76 41 33 15 71 37 85 50 14 12 37 29 52 36 115 59 175 93 200 114 16 14 35 25 42 25 6 0 42 20 79 44 37 24 102 62 144 83 114 58 142 75 177 104 17 15 48 34 69 43 22 9 52 27 69 41 16 14 33 25 38 25 5 0 28 13 52 28 24 16 63 37 88 46 25 10 59 28 75 40 17 13 93 58 170 101 77 43 155 91 173 107 18 15 37 28 43 28 5 0 53 25 105 55 53 30 98 55 102 55 3 0 15 9 26 19 12 11 57 38 101 61 44 23 89 50 101 61 11 10 24 19 29 19 13 0 204 110 211 122 3 5 30 20 59 32 29 13 55 28 59 34 3 6 39 27 79 47 139 69 145 75 220 230 99 204 137 283 137 289 0 3 21 50 46 103 26 54 59 125 74 158 16 33 46 98 68 145 49 105 56 127 42 135 -6 4 -17 -10 -26 -32z"/>
</g>
<g transform="translate(0.000000,1024.000000) scale(0.100000,-0.100000)" fill="none" stroke="#50a9f8" stroke-width="360.0" stroke-linecap="round" stroke-linejoin="round">
<path d="M2656 6261 c-4 -5 -2 -12 3 -15 5 -4 12 -2 15 3 4 5 2 12 -3 15 -5 4 -12 2 -15 -3z M6925 5470 c-4 -6 -3 -16 3 -22 6 -6 12 -6 17 2 4 6 3 16 -3 22 -6 6 -12 6 -17 -2z M1146 5281 c-4 -6 84 -205 195 -443 111 -238 208 -457 215 -486 9 -38 32 -78 81 -145 103 -137 264 -355 302 -409 58 -81 31 -63 761 -485 267 -154 574 -332 682 -396 109 -63 212 -120 230 -126 18 -6 175 -42 348 -81 319 -72 374 -78 460 -56 24 7 30 -4 244 -466 120 -260 224 -479 231 -486 7 -8 15 -10 18 -5 3 4 -98 230 -224 501 -126 271 -229 499 -229 506 0 8 -21 78 -46 157 -25 79 -66 209 -90 289 -25 80 -52 165 -60 190 -8 25 -26 81 -40 125 -35 111 -43 127 -54 120 -12 -7 -6 -34 32 -145 16 -47 37 -114 47 -150 10 -36 35 -114 54 -175 78 -241 127 -398 127 -410 0 -19 -47 -35 -104 -35 -47 0 -624 122 -714 151 -18 6 -121 63 -230 126 -108 64 -415 242 -682 396 -736 425 -683 391 -750 482 -62 85 -202 274 -283 382 -49 67 -72 107 -81 145 -12 47 -406 910 -426 931 -4 5 -11 4 -14 -2z"/>
</g>
<g transform="translate(0.000000,1024.000000) scale(0.100000,-0.100000)" fill="none" stroke="#f0d9ba" stroke-width="336.0" stroke-linecap="round" stroke-linejoin="round">
<path d="M6926 4941 c-3 -5 17 -59 46 -120 l51 -111 -19 -36 c-10 -20 -37 -51 -58 -70 -49 -42 -169 -114 -190 -114 -9 0 -24 -4 -34 -10 -52 -29 -318 -70 -452 -70 l-101 0 -60 125 c-33 69 -84 178 -114 242 -38 79 -59 113 -66 106 -6 -6 26 -85 101 -243 60 -129 110 -239 110 -247 0 -7 -37 -94 -82 -194 -64 -140 -94 -194 -131 -235 -86 -95 -192 -151 -372 -195 -75 -19 -127 -23 -321 -27 l-230 -4 -300 173 -299 173 -350 79 c-318 71 -357 78 -424 73 -41 -3 -79 -10 -86 -16 -8 -7 -62 19 -181 88 l-169 97 -250 5 -250 5 -172 86 c-95 48 -174 84 -177 81 -13 -12 23 -34 182 -113 l167 -84 246 -3 246 -3 169 -97 c155 -89 169 -100 178 -132 5 -19 26 -87 46 -150 21 -63 44 -137 53 -165 19 -64 85 -276 103 -335 8 -25 24 -74 34 -108 20 -66 37 -95 50 -87 7 4 -18 97 -45 165 -8 19 -22 64 -30 99 -9 35 -24 86 -35 115 -10 28 -28 85 -40 126 -12 41 -35 116 -52 165 -35 104 -68 218 -64 222 1 2 36 6 77 9 67 5 106 -2 424 -73 l350 -79 299 -173 300 -173 230 4 c194 4 246 8 321 27 125 30 207 65 289 119 101 68 146 131 241 338 l83 179 133 6 c74 3 152 9 174 13 106 19 232 48 247 56 10 6 25 10 34 10 23 0 146 76 200 123 25 22 57 58 70 79 l25 39 147 -1 c179 -2 171 -3 148 15 -15 12 -52 15 -161 15 l-142 0 -48 105 c-49 107 -59 123 -69 106z"/>
</g>
<g transform="translate(0.000000,1024.000000) scale(0.100000,-0.100000)" fill="none" stroke="#2b83d2" stroke-width="216.0" stroke-linecap="round" stroke-linejoin="round">
<path d="M2641 6257 c-6 -8 -22 -40 -37 -73 -14 -32 -41 -90 -58 -129 -65 -138 -108 -233 -185 -400 l-78 -170 -484 -2 c-266 -2 -490 -5 -497 -8 -7 -3 -10 -10 -7 -16 5 -7 131 -10 409 -8 220 1 441 1 490 0 l88 -1 -4 -202 c-5 -193 -7 -207 -35 -291 -28 -82 -30 -114 -4 -83 6 7 23 49 37 92 23 70 27 100 31 261 l5 183 55 -50 c33 -30 64 -50 78 -50 13 0 26 -4 30 -9 3 -5 31 -17 63 -27 44 -13 98 -17 239 -18 245 -1 246 17 1 25 -177 6 -288 24 -303 50 -4 5 -17 9 -31 9 -27 0 -151 111 -141 127 3 4 46 98 97 208 51 110 105 227 120 260 136 294 149 324 140 330 -4 3 -13 -1 -19 -8z M7935 6219 c-3 -8 6 -42 21 -75 46 -105 115 -253 193 -416 l42 -87 -31 -66 c-16 -36 -44 -95 -61 -132 -17 -38 -43 -93 -57 -123 -48 -105 -135 -185 -255 -238 -52 -23 -180 -52 -237 -55 -35 -1 -134 43 -265 119 -33 19 -78 43 -100 53 -22 10 -46 26 -54 35 -7 9 -20 16 -28 16 -18 0 -83 49 -83 63 0 6 -16 44 -36 84 -26 52 -40 71 -47 64 -8 -8 -2 -30 21 -74 18 -34 32 -67 32 -74 0 -16 92 -93 111 -93 9 0 23 -7 30 -16 8 -9 32 -25 54 -35 22 -10 67 -34 100 -53 131 -76 230 -120 265 -119 57 3 185 32 237 55 125 55 232 155 285 268 37 80 87 187 119 258 24 51 24 52 69 52 578 3 702 5 706 11 12 20 -47 23 -389 21 l-367 -2 -36 78 c-20 42 -51 109 -69 147 -58 122 -102 218 -125 275 -28 66 -37 78 -45 59z M9085 5480 c-4 -6 -3 -16 3 -22 6 -6 12 -6 17 2 4 6 3 16 -3 22 -6 6 -12 6 -17 -2z M5106 1751 c-4 -5 -2 -12 3 -15 5 -4 12 -2 15 3 4 5 2 12 -3 15 -5 4 -12 2 -15 -3z"/>
</g>
<g transform="translate(0.000000,1024.000000) scale(0.100000,-0.100000)" fill="none" stroke="#fd6b5d" stroke-width="212.0" stroke-linecap="round" stroke-linejoin="round">
<path d="M7456 7552 c-9 -15 212 -285 226 -276 5 3 1 16 -9 28 -66 85 -205 256 -208 256 -2 0 -6 -4 -9 -8z M6487 6934 c-3 -3 35 -56 83 -117 49 -62 90 -119 90 -128 0 -17 29 -48 31 -33 4 31 -12 60 -82 150 -86 110 -112 137 -122 128z M5468 6365 c-4 -4 26 -51 67 -104 108 -139 141 -176 148 -165 3 5 -28 52 -69 104 -118 149 -139 173 -146 165z"/>
</g>
<g transform="translate(0.000000,1024.000000) scale(0.100000,-0.100000)" fill="none" stroke="#151d2b" stroke-width="20.0" stroke-linecap="round" stroke-linejoin="round">
<path d="M4876 8701 c-4 -5 -2 -12 3 -15 5 -4 12 -2 15 3 4 5 2 12 -3 15 -5 4 -12 2 -15 -3z M3871 8116 c-7 -8 -8 -17 -3 -20 6 -3 15 1 21 8 7 8 8 17 3 20 -6 3 -15 -1 -21 -8z M5671 7606 c-7 -8 -8 -17 -3 -20 6 -3 15 1 21 8 7 8 8 17 3 20 -6 3 -15 -1 -21 -8z M2666 6302 c-3 -6 1 -15 8 -21 8 -7 17 -8 20 -3 3 6 -1 15 -8 21 -8 7 -17 8 -20 3z M6906 6221 c-4 -5 -2 -12 3 -15 5 -4 12 -2 15 3 4 5 2 12 -3 15 -5 4 -12 2 -15 -3z M2936 5521 c-4 -5 -2 -12 3 -15 5 -4 12 -2 15 3 4 5 2 12 -3 15 -5 4 -12 2 -15 -3z M7521 5376 c-7 -8 -8 -17 -3 -20 6 -3 15 1 21 8 7 8 8 17 3 20 -6 3 -15 -1 -21 -8z M6911 4966 c-7 -8 -8 -17 -3 -20 6 -3 15 1 21 8 7 8 8 17 3 20 -6 3 -15 -1 -21 -8z M5916 4901 c-4 -5 -2 -12 3 -15 5 -4 12 -2 15 3 4 5 2 12 -3 15 -5 4 -12 2 -15 -3z M6726 4821 c-4 -5 -2 -12 3 -15 5 -4 12 -2 15 3 4 5 2 12 -3 15 -5 4 -12 2 -15 -3z M6536 4781 c-4 -5 -2 -12 3 -15 5 -4 12 -2 15 3 4 5 2 12 -3 15 -5 4 -12 2 -15 -3z M2246 4631 c-4 -5 -2 -12 3 -15 5 -4 12 -2 15 3 4 5 2 12 -3 15 -5 4 -12 2 -15 -3z M5725 4340 c-4 -6 -3 -16 3 -22 6 -6 12 -6 17 2 4 6 3 16 -3 22 -6 6 -12 6 -17 -2z"/>
</g>
</svg>