<svg xmlns="http://www.w3.org/2000/svg" viewBox="0 0 1024 1024" width="1024" height="1024">
<g fill="#2f4255" fill-rule="evenodd" stroke="none">
  <path d="M 493.0,115.0 C 490.3,117.7 485.1,116.8 483.0,121.0 C 480.5,126.0 480.4,132.1 478.0,137.0 C 476.3,140.4 472.6,142.7 471.0,146.0 C 469.3,149.3 470.0,163.4 470.0,168.0 C 470.0,178.0 470.0,188.0 470.0,198.0 C 470.0,199.2 470.7,207.0 469.0,207.0 C 463.4,207.0 457.8,201.4 453.0,199.0 C 433.9,189.4 408.4,165.3 385.0,177.0 C 379.5,179.7 380.2,187.7 378.0,192.0 C 375.8,196.4 373.2,200.6 371.0,205.0 C 369.8,207.3 371.0,213.3 371.0,216.0 C 371.0,224.6 370.0,232.2 370.0,241.0 C 370.0,247.7 370.0,254.3 370.0,261.0 C 370.0,262.6 370.7,266.1 369.0,267.0 C 363.4,269.8 352.5,259.2 348.0,257.0 C 330.6,248.3 304.3,225.8 284.0,236.0 C 276.9,239.5 277.9,250.3 275.0,256.0 C 273.5,259.0 270.5,261.1 269.0,264.0 C 266.7,268.6 268.0,282.1 268.0,288.0 C 268.0,307.0 268.0,326.0 268.0,345.0 C 268.0,349.4 266.1,359.2 268.0,363.0 C 269.1,365.2 270.3,373.3 269.0,376.0 C 266.4,381.3 259.9,378.0 256.0,380.0 C 244.0,386.0 232.9,394.0 221.0,400.0 C 196.7,412.2 171.2,431.9 147.0,444.0 C 137.2,448.9 127.8,455.1 118.0,460.0 C 112.4,462.8 113.1,470.5 108.0,473.0 C 98.9,477.6 99.7,476.7 95.0,486.0 C 92.9,490.2 95.0,501.2 95.0,506.0 C 95.0,523.0 95.0,540.0 95.0,557.0 C 95.0,577.3 95.0,597.7 95.0,618.0 C 95.0,626.9 93.3,638.5 97.0,646.0 C 100.7,653.4 109.6,655.8 116.0,659.0 C 132.2,667.1 146.9,678.0 163.0,686.0 C 176.7,692.8 188.3,703.2 202.0,710.0 C 257.1,737.6 307.9,774.4 363.0,802.0 C 369.7,805.4 375.3,810.6 382.0,814.0 C 409.7,827.8 435.3,846.2 463.0,860.0 C 469.6,863.3 475.5,867.7 482.0,871.0 C 483.9,872.0 487.1,871.0 489.0,872.0 C 491.1,873.0 497.4,875.3 500.0,874.0 C 503.8,872.1 507.1,868.9 511.0,867.0 C 515.1,865.0 523.9,864.1 530.0,861.0 C 538.5,856.8 545.5,850.2 554.0,846.0 C 592.1,827.0 626.9,801.0 665.0,782.0 C 690.9,769.0 714.2,750.9 740.0,738.0 C 765.7,725.2 788.3,706.8 814.0,694.0 C 841.6,680.2 866.4,660.8 894.0,647.0 C 902.3,642.9 909.7,637.2 918.0,633.0 C 919.7,632.1 924.0,630.9 925.0,629.0 C 930.9,617.1 928.0,598.1 928.0,584.0 C 928.0,553.7 928.0,523.3 928.0,493.0 C 928.0,475.1 932.9,464.4 916.0,456.0 C 911.2,453.6 912.5,446.2 908.0,444.0 C 879.9,430.0 849.4,408.2 823.0,395.0 C 816.9,392.0 811.1,388.1 805.0,385.0 C 801.9,383.4 792.8,384.6 791.0,381.0 C 789.8,378.7 791.0,372.7 791.0,370.0 C 791.0,362.8 787.4,340.2 790.0,335.0 C 794.1,326.8 803.1,338.7 809.0,327.0 C 811.3,322.3 804.0,318.3 804.0,317.0 C 804.0,315.4 807.1,308.8 808.0,307.0 C 809.2,304.7 808.0,298.7 808.0,296.0 C 808.0,283.2 805.2,272.5 800.0,262.0 C 791.6,245.2 770.5,224.0 751.0,224.0 C 748.2,224.0 742.3,221.3 739.0,223.0 C 736.9,224.1 734.0,223.0 732.0,224.0 C 728.4,225.8 717.3,234.1 713.0,232.0 C 703.4,227.2 695.5,219.8 686.0,215.0 C 646.6,195.3 609.5,169.8 570.0,150.0 C 567.0,148.5 565.0,145.5 562.0,144.0 C 544.8,135.4 528.3,124.7 511.0,116.0 C 506.7,113.9 499.1,115.0 494.0,115.0 Z M 311.0,507.0 C 313.3,504.7 323.3,509.6 326.0,511.0 C 337.1,516.6 347.9,523.5 359.0,529.0 C 363.1,531.0 366.0,535.0 370.0,537.0 C 415.0,559.5 457.0,588.5 502.0,611.0 C 512.2,616.1 520.8,623.9 531.0,629.0 C 537.7,632.3 544.3,635.6 551.0,639.0 C 552.7,639.9 555.2,639.1 557.0,640.0 C 562.5,642.7 574.7,634.1 579.0,632.0 C 586.3,628.4 587.0,613.2 587.0,605.0 C 587.0,602.1 588.8,600.4 590.0,598.0 C 591.2,595.7 590.0,589.7 590.0,587.0 C 590.0,577.7 590.0,568.3 590.0,559.0 C 590.0,552.6 589.0,545.7 589.0,540.0 C 589.0,538.2 588.2,533.9 590.0,533.0 C 594.5,530.7 603.5,538.2 607.0,540.0 C 617.9,545.5 628.1,552.5 639.0,558.0 C 641.0,559.0 644.1,558.0 646.0,559.0 C 649.4,560.7 659.7,564.2 664.0,562.0 C 669.7,559.1 683.7,559.7 687.0,553.0 C 689.7,547.5 690.0,540.6 690.0,534.0 C 690.0,532.1 689.1,527.0 691.0,526.0 C 693.4,524.8 697.2,529.1 699.0,530.0 C 707.8,534.4 720.9,538.9 728.0,546.0 C 729.5,547.5 737.0,550.0 737.0,553.0 C 737.0,555.5 729.5,558.3 728.0,559.0 C 719.4,563.3 711.5,568.7 703.0,573.0 C 697.6,575.7 693.4,580.3 688.0,583.0 C 656.9,598.6 628.1,619.4 597.0,635.0 C 594.0,636.5 592.0,639.5 589.0,641.0 C 566.8,652.1 546.2,666.9 524.0,678.0 C 518.1,680.9 512.8,685.1 507.0,688.0 C 505.9,688.6 502.3,691.6 501.0,691.0 C 478.4,679.7 456.7,665.4 434.0,654.0 C 431.2,652.6 428.8,650.4 426.0,649.0 C 424.1,648.0 421.0,649.0 419.0,648.0 C 416.9,646.9 414.1,642.0 410.0,644.0 C 396.4,650.8 394.2,673.6 388.0,686.0 C 387.3,687.4 383.1,697.1 381.0,696.0 C 354.0,682.5 328.1,665.5 301.0,652.0 C 291.4,647.2 283.6,639.8 274.0,635.0 C 265.6,630.8 257.5,625.3 249.0,621.0 C 246.5,619.7 240.4,617.9 239.0,615.0 C 236.1,609.2 236.8,601.6 234.0,596.0 C 230.3,588.6 230.7,579.3 227.0,572.0 C 225.6,569.3 222.3,561.5 224.0,558.0 C 225.4,555.1 228.9,557.1 231.0,556.0 C 236.5,553.3 241.6,549.7 247.0,547.0 C 259.2,540.9 269.8,532.1 282.0,526.0 C 292.1,520.9 302.3,516.7 311.0,508.0 Z M 111.0,490.0 C 113.4,487.6 119.4,493.7 122.0,495.0 C 134.4,501.2 145.5,509.8 158.0,516.0 C 168.2,521.1 177.7,527.9 188.0,533.0 C 191.3,534.7 200.2,538.4 202.0,542.0 C 204.7,547.5 205.2,554.5 208.0,560.0 C 209.8,563.5 207.2,569.5 209.0,573.0 C 217.5,589.9 218.5,609.9 227.0,627.0 C 228.2,629.4 247.6,640.3 251.0,642.0 C 277.6,655.3 302.4,672.7 329.0,686.0 C 339.9,691.5 349.1,699.6 360.0,705.0 C 365.7,707.9 372.4,709.2 378.0,712.0 C 380.0,713.0 381.5,715.7 384.0,717.0 C 390.9,720.4 394.2,709.6 396.0,706.0 C 400.9,696.2 405.2,686.7 410.0,677.0 C 411.8,673.5 411.6,666.2 416.0,664.0 C 420.2,661.9 430.5,671.2 434.0,673.0 C 453.6,682.8 472.4,695.2 492.0,705.0 C 493.9,706.0 493.0,711.1 493.0,713.0 C 493.0,721.7 493.0,730.3 493.0,739.0 C 493.0,767.0 493.0,795.0 493.0,823.0 C 493.0,829.0 495.1,850.8 493.0,855.0 C 491.5,858.0 485.6,853.8 484.0,853.0 C 475.1,848.5 467.0,842.5 458.0,838.0 C 424.9,821.4 394.1,799.6 361.0,783.0 C 357.3,781.2 354.7,777.9 351.0,776.0 C 306.5,753.8 265.5,724.2 221.0,702.0 C 204.9,694.0 191.1,682.0 175.0,674.0 C 159.0,666.0 144.1,655.1 128.0,647.0 C 123.7,644.8 113.5,641.9 111.0,637.0 C 109.8,634.7 111.0,628.7 111.0,626.0 C 111.0,616.0 111.0,606.0 111.0,596.0 C 111.0,561.0 111.0,526.0 111.0,491.0 Z M 910.0,472.0 C 912.3,469.7 912.0,485.1 912.0,488.0 C 912.0,499.0 912.0,510.0 912.0,521.0 C 912.0,544.0 912.0,567.0 912.0,590.0 C 912.0,595.0 913.8,613.4 912.0,617.0 C 909.2,622.6 897.9,625.6 893.0,628.0 C 877.3,635.8 863.6,647.2 848.0,655.0 C 831.3,663.4 816.7,675.6 800.0,684.0 C 753.7,707.2 711.3,738.8 665.0,762.0 C 658.3,765.4 652.7,770.6 646.0,774.0 C 612.5,790.7 578.7,815.6 546.0,832.0 C 536.2,836.9 527.8,844.1 518.0,849.0 C 516.6,849.7 509.5,851.0 509.0,850.0 C 506.7,845.5 509.0,822.3 509.0,816.0 C 509.0,789.7 509.0,763.3 509.0,737.0 C 509.0,731.2 506.9,710.1 509.0,706.0 C 510.0,704.0 515.2,702.9 517.0,702.0 C 524.2,698.4 530.9,693.6 538.0,690.0 C 564.0,677.0 591.1,656.4 618.0,643.0 C 626.5,638.8 633.5,632.2 642.0,628.0 C 676.6,610.7 708.4,587.3 743.0,570.0 C 747.7,567.7 748.5,560.7 752.0,559.0 C 754.2,557.9 757.8,559.1 760.0,558.0 C 765.6,555.2 771.4,552.8 777.0,550.0 C 779.3,548.8 780.7,546.2 783.0,545.0 C 803.7,534.6 823.3,521.4 844.0,511.0 C 850.5,507.7 855.5,502.2 862.0,499.0 C 870.3,494.8 878.7,490.1 887.0,486.0 C 889.3,484.8 890.7,482.2 893.0,481.0 C 897.9,478.6 905.1,475.9 909.0,472.0 Z M 590.0,460.0 C 592.1,457.9 597.7,465.5 599.0,468.0 C 603.6,477.2 612.4,484.8 617.0,494.0 C 619.5,499.0 637.2,520.5 641.0,528.0 C 642.5,530.9 651.7,538.5 650.0,542.0 C 648.2,545.7 643.6,540.8 642.0,540.0 C 634.8,536.4 628.2,531.6 621.0,528.0 C 614.4,524.7 607.6,521.3 601.0,518.0 C 598.2,516.6 590.6,518.3 589.0,515.0 C 587.1,511.3 590.0,504.3 590.0,501.0 C 590.0,487.7 590.0,474.3 590.0,461.0 Z M 522.0,436.0 C 525.0,433.0 527.9,437.9 530.0,440.0 C 535.8,445.8 543.1,450.6 550.0,454.0 C 553.8,455.9 560.6,458.0 565.0,458.0 C 566.9,458.0 572.0,457.1 573.0,459.0 C 577.8,468.5 573.0,495.9 573.0,507.0 C 573.0,511.3 573.0,515.7 573.0,520.0 C 573.0,521.2 574.6,521.9 574.0,523.0 C 571.7,527.7 571.7,542.3 574.0,547.0 C 576.3,551.5 574.0,574.7 574.0,581.0 C 574.0,582.3 574.7,591.0 573.0,591.0 C 569.9,591.0 568.0,586.0 567.0,584.0 C 563.6,577.2 557.4,571.8 554.0,565.0 C 552.3,561.6 548.7,559.4 547.0,556.0 C 534.6,531.1 512.4,510.8 500.0,486.0 C 495.9,477.8 489.0,471.0 485.0,463.0 C 483.7,460.3 478.1,457.8 480.0,454.0 C 481.6,450.8 489.2,450.4 492.0,449.0 C 497.8,446.1 517.5,439.5 521.0,436.0 Z M 396.0,431.0 C 399.2,427.8 404.6,436.3 406.0,439.0 C 410.7,448.3 419.3,462.1 429.0,467.0 C 435.7,470.4 444.7,469.2 451.0,466.0 C 453.6,464.7 460.6,460.3 464.0,462.0 C 466.0,463.0 467.1,468.2 468.0,470.0 C 470.3,474.5 478.0,482.9 481.0,489.0 C 489.9,506.8 521.5,542.9 531.0,562.0 C 537.6,575.2 549.4,585.9 556.0,599.0 C 558.8,604.5 569.4,604.8 571.0,608.0 C 572.4,610.7 568.7,619.7 566.0,621.0 C 556.4,625.8 550.2,619.1 542.0,615.0 C 524.2,606.1 507.9,593.9 490.0,585.0 C 452.2,566.1 416.7,541.9 379.0,523.0 C 368.1,517.6 358.9,509.4 348.0,504.0 C 341.9,501.0 336.1,497.1 330.0,494.0 C 325.2,491.6 318.8,492.4 314.0,490.0 C 309.8,487.9 308.2,480.6 303.0,478.0 C 300.3,476.7 295.7,476.3 294.0,473.0 C 292.3,469.6 300.4,468.8 302.0,468.0 C 311.6,463.2 322.4,460.8 332.0,456.0 C 345.7,449.2 364.8,444.6 378.0,438.0 C 382.3,435.9 390.2,431.0 395.0,431.0 Z M 690.0,402.0 C 692.5,399.5 695.9,404.8 697.0,407.0 C 701.5,416.0 710.5,422.9 715.0,432.0 C 720.3,442.6 735.0,456.9 741.0,469.0 C 742.6,472.1 752.9,480.3 751.0,484.0 C 749.6,486.9 744.5,483.8 743.0,483.0 C 734.9,479.0 728.1,473.1 720.0,469.0 C 714.1,466.0 708.0,463.0 702.0,460.0 C 699.2,458.6 691.6,460.3 690.0,457.0 C 688.4,453.8 690.0,445.6 690.0,442.0 C 690.0,429.0 690.0,416.0 690.0,403.0 Z M 791.0,400.0 C 794.5,396.5 809.2,407.1 813.0,409.0 C 834.3,419.7 853.6,434.3 875.0,445.0 C 880.4,447.7 888.6,450.6 893.0,455.0 C 893.9,455.9 898.0,457.4 898.0,459.0 C 898.0,460.6 891.1,463.5 890.0,464.0 C 881.0,468.5 872.9,474.5 864.0,479.0 C 838.5,491.7 815.4,509.3 790.0,522.0 C 779.8,527.1 762.0,543.0 751.0,543.0 C 749.7,543.0 749.3,540.6 749.0,540.0 C 747.9,537.9 741.2,534.1 739.0,533.0 C 727.0,527.0 716.0,519.0 704.0,513.0 C 701.5,511.7 691.2,510.4 690.0,508.0 C 688.3,504.7 690.0,487.7 690.0,483.0 C 690.0,481.1 689.1,476.0 691.0,475.0 C 695.4,472.8 704.5,480.3 708.0,482.0 C 718.0,487.0 726.9,494.0 737.0,499.0 C 743.0,502.0 750.9,501.0 757.0,504.0 C 761.8,506.4 766.6,501.7 770.0,500.0 C 778.7,495.7 785.2,496.7 790.0,487.0 C 791.7,483.5 790.0,465.9 790.0,461.0 C 790.0,440.8 791.0,421.6 791.0,401.0 Z M 266.0,396.0 C 268.2,393.8 268.0,410.9 268.0,414.0 C 268.0,425.9 269.0,439.4 269.0,452.0 C 269.0,458.6 269.3,463.6 272.0,469.0 C 272.8,470.7 275.9,470.9 277.0,473.0 C 278.9,476.7 279.1,481.2 281.0,485.0 C 283.1,489.1 298.0,492.2 298.0,497.0 C 298.0,499.9 290.6,502.2 289.0,503.0 C 279.4,507.8 270.6,514.2 261.0,519.0 C 250.9,524.0 242.0,531.0 232.0,536.0 C 229.0,537.5 223.0,543.0 219.0,541.0 C 215.3,539.2 217.0,530.5 212.0,528.0 C 190.0,517.0 169.9,502.0 148.0,491.0 C 142.3,488.2 134.6,484.6 130.0,480.0 C 129.3,479.3 125.0,477.9 125.0,477.0 C 125.0,474.5 130.7,472.7 132.0,472.0 C 139.9,468.1 147.3,462.9 155.0,459.0 C 160.2,456.4 163.9,451.6 169.0,449.0 C 190.1,438.4 209.8,424.6 231.0,414.0 C 239.8,409.6 255.5,396.0 265.0,396.0 Z M 621.0,377.0 C 623.6,374.4 627.0,379.0 629.0,381.0 C 635.8,387.8 643.1,392.0 651.0,396.0 C 655.5,398.2 661.6,399.0 667.0,399.0 C 668.8,399.0 673.1,398.2 674.0,400.0 C 676.1,404.2 674.0,426.0 674.0,432.0 C 674.0,458.5 674.0,483.1 674.0,510.0 C 674.0,518.3 674.0,526.7 674.0,535.0 C 674.0,536.7 673.6,542.2 672.0,543.0 C 670.9,543.6 667.3,543.6 667.0,543.0 C 664.7,538.4 664.4,532.7 662.0,528.0 C 658.4,520.9 651.6,515.1 648.0,508.0 C 640.8,493.6 620.0,473.0 613.0,459.0 C 611.2,455.4 607.8,452.5 606.0,449.0 C 605.4,447.7 601.0,447.4 601.0,446.0 C 601.0,441.0 605.8,433.4 608.0,429.0 C 609.4,426.2 608.0,419.2 608.0,416.0 C 608.0,409.7 608.7,400.3 606.0,395.0 C 605.0,393.0 602.7,387.7 604.0,385.0 C 605.2,382.6 611.8,381.1 614.0,380.0 C 615.8,379.1 617.9,377.0 620.0,377.0 Z M 542.0,360.0 C 547.8,354.2 562.4,365.7 567.0,368.0 C 572.4,370.7 576.6,377.6 581.0,382.0 C 582.7,383.7 585.8,383.6 587.0,386.0 C 590.7,393.5 594.0,420.0 589.0,430.0 C 587.9,432.2 587.2,440.9 585.0,442.0 C 581.3,443.9 578.5,442.0 575.0,442.0 C 559.1,442.0 549.2,435.2 538.0,424.0 C 535.5,421.5 530.8,421.7 529.0,418.0 C 527.0,413.9 525.0,400.9 522.0,395.0 C 520.9,392.9 522.0,387.4 522.0,385.0 C 522.0,381.4 520.4,373.2 522.0,370.0 C 522.7,368.7 539.0,360.0 541.0,360.0 Z M 720.0,316.0 C 721.2,314.8 724.1,316.1 725.0,318.0 C 728.6,325.3 740.2,331.6 747.0,335.0 C 752.3,337.7 759.6,339.0 766.0,339.0 C 767.9,339.0 773.0,338.1 774.0,340.0 C 775.1,342.1 774.0,347.6 774.0,350.0 C 774.0,357.4 775.0,364.3 775.0,372.0 C 775.0,396.9 774.0,423.6 774.0,448.0 C 774.0,456.7 774.0,465.3 774.0,474.0 C 774.0,475.9 774.9,481.0 773.0,482.0 C 766.5,485.3 766.1,475.2 764.0,471.0 C 760.6,464.3 753.4,459.7 750.0,453.0 C 748.3,449.5 745.7,443.7 743.0,441.0 C 736.4,434.4 730.9,426.8 727.0,419.0 C 724.1,413.1 705.2,393.4 702.0,387.0 C 700.9,384.9 705.1,378.8 706.0,377.0 C 709.6,369.7 709.0,360.8 709.0,352.0 C 709.0,345.8 708.6,337.2 706.0,332.0 C 705.2,330.4 703.0,326.0 704.0,324.0 C 706.7,318.5 715.4,319.6 719.0,316.0 Z M 640.0,301.0 C 642.3,298.7 657.6,300.8 660.0,302.0 C 663.0,303.5 665.0,306.5 668.0,308.0 C 672.7,310.3 675.9,318.0 680.0,320.0 C 682.0,321.0 685.8,322.5 687.0,325.0 C 692.1,335.2 695.4,359.1 690.0,370.0 C 688.6,372.8 688.1,381.5 685.0,383.0 C 681.3,384.9 663.1,382.5 660.0,381.0 C 655.5,378.7 650.7,376.3 646.0,374.0 C 642.0,372.0 640.0,366.0 636.0,364.0 C 634.0,363.0 630.2,362.5 629.0,360.0 C 627.4,356.8 628.6,352.1 627.0,349.0 C 623.2,341.3 618.3,326.4 623.0,317.0 C 623.8,315.4 622.2,312.6 623.0,311.0 C 626.0,305.0 634.7,305.3 639.0,301.0 Z M 284.0,274.0 C 287.3,270.7 296.4,282.9 298.0,286.0 C 305.5,301.1 319.5,313.0 327.0,328.0 C 328.7,331.5 333.2,333.5 335.0,337.0 C 344.9,356.9 363.0,373.0 373.0,393.0 C 374.9,396.9 389.7,412.6 388.0,416.0 C 387.2,417.6 368.9,422.6 366.0,424.0 C 347.2,433.4 326.7,438.6 308.0,448.0 C 305.4,449.3 286.2,456.4 285.0,454.0 C 280.6,445.3 289.4,421.7 285.0,413.0 C 280.4,403.9 285.0,381.7 285.0,372.0 C 285.0,340.3 284.0,307.3 284.0,275.0 Z M 294.0,251.0 C 298.5,246.5 307.3,254.1 311.0,256.0 C 326.6,263.8 341.3,274.1 357.0,282.0 C 360.4,283.7 365.6,282.3 369.0,284.0 C 372.1,285.6 372.8,289.8 375.0,292.0 C 376.9,293.9 386.2,299.6 389.0,301.0 C 411.4,312.2 432.6,325.8 455.0,337.0 C 460.3,339.7 467.7,338.3 473.0,341.0 C 480.5,344.7 484.5,355.2 492.0,359.0 C 494.8,360.4 504.6,364.3 506.0,367.0 C 508.0,371.0 506.0,391.4 506.0,397.0 C 506.0,401.6 514.1,418.7 513.0,421.0 C 511.7,423.6 506.2,423.9 504.0,425.0 C 494.2,429.9 483.7,433.1 474.0,438.0 C 469.8,440.1 466.3,443.9 462.0,446.0 C 459.3,447.4 454.7,445.6 452.0,447.0 C 448.7,448.7 442.7,453.0 439.0,453.0 C 435.3,453.0 433.2,448.2 431.0,446.0 C 424.4,439.4 417.1,428.2 413.0,420.0 C 411.2,416.4 405.8,417.6 404.0,414.0 C 401.9,409.8 402.1,404.3 400.0,400.0 C 396.4,392.8 388.6,388.1 385.0,381.0 C 375.0,361.0 356.9,344.9 347.0,325.0 C 344.5,320.0 338.5,317.0 336.0,312.0 C 329.4,298.9 311.2,279.3 306.0,269.0 C 302.9,262.7 287.4,258.6 294.0,252.0 Z M 742.0,240.0 C 745.8,236.2 767.7,246.3 770.0,251.0 C 772.3,255.6 778.7,258.3 781.0,263.0 C 789.2,279.4 799.7,301.3 784.0,317.0 C 782.3,318.7 780.1,321.9 778.0,323.0 C 775.2,324.4 766.3,323.2 764.0,322.0 C 762.7,321.3 760.3,322.7 759.0,322.0 C 751.9,318.4 741.0,314.0 737.0,306.0 C 734.9,301.8 728.9,302.9 727.0,299.0 C 725.1,295.2 722.4,279.7 719.0,273.0 C 717.6,270.2 718.8,261.3 720.0,259.0 C 721.4,256.3 719.6,251.7 721.0,249.0 C 722.9,245.2 736.6,240.0 741.0,240.0 Z M 387.0,215.0 C 389.8,212.2 395.6,220.3 397.0,223.0 C 403.4,235.9 415.6,246.1 422.0,259.0 C 429.4,273.7 447.3,289.7 455.0,305.0 C 456.7,308.5 467.2,316.7 465.0,321.0 C 463.6,323.9 449.5,315.3 447.0,314.0 C 432.2,306.6 418.9,296.4 404.0,289.0 C 399.8,286.9 388.3,283.5 386.0,279.0 C 384.2,275.4 386.0,266.1 386.0,262.0 C 386.0,246.3 387.0,231.3 387.0,216.0 Z M 396.0,191.0 C 399.6,187.4 408.7,193.4 412.0,195.0 C 428.0,203.0 443.0,213.0 459.0,221.0 C 462.6,222.8 467.4,222.2 471.0,224.0 C 474.2,225.6 474.7,229.7 477.0,232.0 C 480.8,235.8 488.1,240.6 493.0,243.0 C 513.9,253.4 534.0,266.5 555.0,277.0 C 560.0,279.5 567.1,277.5 572.0,280.0 C 580.6,284.3 585.4,295.7 594.0,300.0 C 596.6,301.3 605.7,304.4 607.0,307.0 C 608.0,308.9 606.7,312.5 606.0,314.0 C 603.8,318.5 606.0,329.9 606.0,335.0 C 606.0,341.6 613.9,358.2 612.0,362.0 C 611.3,363.4 594.9,371.0 593.0,370.0 C 587.9,367.4 585.2,358.6 580.0,356.0 C 572.7,352.4 566.2,347.6 559.0,344.0 C 557.3,343.1 554.8,343.9 553.0,343.0 C 545.6,339.3 529.5,346.2 524.0,349.0 C 519.6,351.2 517.4,354.7 512.0,352.0 C 507.5,349.7 486.3,332.6 484.0,328.0 C 480.7,321.5 480.5,312.0 477.0,305.0 C 474.7,300.4 469.3,297.6 467.0,293.0 C 456.2,271.4 435.8,254.5 425.0,233.0 C 419.7,222.4 409.3,214.5 404.0,204.0 C 402.3,200.6 394.7,201.4 393.0,198.0 C 392.4,196.8 395.0,193.4 395.0,192.0 Z M 487.0,156.0 C 489.9,153.1 495.7,160.3 497.0,163.0 C 502.9,174.9 514.1,184.2 520.0,196.0 C 527.4,210.8 547.1,229.3 555.0,245.0 C 557.4,249.8 566.0,255.5 566.0,261.0 C 566.0,264.2 556.7,259.3 556.0,259.0 C 544.9,253.5 535.1,245.5 524.0,240.0 C 515.4,235.7 507.6,230.3 499.0,226.0 C 495.6,224.3 489.1,222.1 487.0,218.0 C 484.7,213.4 486.0,205.4 486.0,200.0 C 486.0,185.8 487.0,170.6 487.0,157.0 Z M 496.0,132.0 C 501.9,126.1 511.5,136.8 516.0,139.0 C 530.2,146.1 543.7,154.8 558.0,162.0 C 589.4,177.7 618.6,198.3 650.0,214.0 C 656.0,217.0 660.9,222.0 667.0,225.0 C 675.7,229.4 684.2,234.6 693.0,239.0 C 695.5,240.3 703.7,243.4 705.0,246.0 C 705.9,247.8 703.8,254.4 703.0,256.0 C 701.0,260.0 703.0,270.4 703.0,275.0 C 703.0,281.2 712.6,295.9 710.0,301.0 C 708.9,303.2 696.1,310.1 694.0,309.0 C 686.2,305.1 680.3,294.2 672.0,290.0 C 665.0,286.5 656.5,286.2 650.0,283.0 C 647.9,282.0 643.6,283.2 642.0,284.0 C 638.9,285.5 634.1,284.4 631.0,286.0 C 622.3,290.3 618.6,294.8 609.0,290.0 C 604.0,287.5 601.1,280.5 596.0,278.0 C 592.6,276.3 586.0,272.0 584.0,268.0 C 580.9,261.7 580.5,252.9 577.0,246.0 C 574.3,240.6 559.9,224.9 558.0,221.0 C 548.7,202.4 531.3,187.6 522.0,169.0 C 518.1,161.2 510.2,151.2 504.0,145.0 C 501.4,142.4 495.5,142.1 494.0,139.0 C 493.5,137.9 496.0,134.7 496.0,133.0 Z"/>
</g>
<g fill="#2072bd" fill-rule="evenodd" stroke="none">
  <path d="M 906.0,416.0 C 902.0,420.0 886.4,418.3 881.0,421.0 C 873.0,425.0 858.0,440.0 854.0,448.0 C 844.0,467.9 836.0,489.0 826.0,509.0 C 822.7,515.5 821.0,527.0 813.0,531.0 C 785.8,544.6 760.2,562.4 733.0,576.0 C 730.3,577.4 728.7,580.7 726.0,582.0 C 715.2,587.4 703.0,596.5 694.0,601.0 C 691.2,602.4 687.7,602.6 685.0,604.0 C 675.0,609.0 656.6,623.7 648.0,628.0 C 623.0,640.5 599.1,656.5 574.0,669.0 C 566.0,673.0 560.0,680.0 552.0,684.0 C 537.6,691.2 523.3,698.7 511.0,711.0 C 501.1,720.9 497.8,733.5 492.0,745.0 C 481.0,766.9 471.0,789.0 460.0,811.0 C 455.4,820.2 457.6,832.7 453.0,842.0 C 451.4,845.1 453.8,852.5 455.0,855.0 C 457.7,860.4 455.3,868.6 458.0,874.0 C 459.2,876.3 469.9,890.0 472.0,891.0 C 476.8,893.4 480.2,898.6 485.0,901.0 C 488.9,903.0 495.1,901.0 499.0,903.0 C 508.0,907.5 523.2,906.4 532.0,902.0 C 534.5,900.8 538.5,902.2 541.0,901.0 C 544.1,899.4 545.9,895.6 549.0,894.0 C 551.5,892.7 556.5,889.9 558.0,887.0 C 560.4,882.2 565.6,878.8 568.0,874.0 C 580.6,848.8 590.4,822.2 603.0,797.0 C 604.4,794.2 611.4,791.3 614.0,790.0 C 626.9,783.6 638.2,774.4 651.0,768.0 C 657.9,764.5 664.1,758.4 671.0,755.0 C 689.3,745.8 706.6,734.2 725.0,725.0 C 730.9,722.1 735.2,716.9 741.0,714.0 C 743.7,712.6 747.2,712.4 750.0,711.0 C 758.6,706.7 772.4,696.8 784.0,691.0 C 786.7,689.6 788.3,686.3 791.0,685.0 C 813.4,673.8 834.6,659.2 857.0,648.0 C 862.9,645.0 867.1,640.0 873.0,637.0 C 888.7,629.2 912.3,615.4 921.0,598.0 C 935.8,568.4 948.2,537.6 963.0,508.0 C 967.1,499.7 964.8,488.3 969.0,480.0 C 970.9,476.1 967.6,465.2 966.0,462.0 C 964.0,458.1 966.0,451.9 964.0,448.0 C 960.0,440.0 945.0,425.0 937.0,421.0 C 933.5,419.3 911.6,416.0 907.0,416.0 Z"/>
  <path d="M 796.0,343.0 C 792.0,347.0 776.4,345.3 771.0,348.0 C 761.7,352.6 755.9,362.1 749.0,369.0 C 741.4,376.6 745.2,385.5 741.0,394.0 C 737.8,400.4 738.9,410.7 742.0,417.0 C 744.0,420.9 742.0,427.1 744.0,431.0 C 748.0,439.0 763.0,454.0 771.0,458.0 C 773.5,459.2 777.5,457.8 780.0,459.0 C 788.8,463.4 804.0,464.5 813.0,460.0 C 816.9,458.0 823.1,460.0 827.0,458.0 C 835.0,454.0 850.0,439.0 854.0,431.0 C 855.2,428.5 853.8,424.5 855.0,422.0 C 859.4,413.2 860.5,398.0 856.0,389.0 C 854.0,385.1 856.0,378.9 854.0,375.0 C 850.0,367.0 835.0,352.0 827.0,348.0 C 823.5,346.3 801.6,343.0 797.0,343.0 Z"/>
</g>
<g fill="#50a9f8" fill-rule="evenodd" stroke="none">
  <path d="M 111.0,465.0 C 108.6,467.4 103.8,465.6 101.0,467.0 C 95.4,469.8 88.8,476.4 86.0,482.0 C 82.0,490.0 84.3,506.6 88.0,514.0 C 100.0,538.0 110.0,563.0 122.0,587.0 C 125.6,594.2 126.4,602.8 130.0,610.0 C 137.3,624.5 153.8,636.5 161.0,651.0 C 163.2,655.4 173.4,670.7 178.0,673.0 C 187.0,677.5 194.1,685.5 203.0,690.0 C 239.6,708.3 273.4,732.7 310.0,751.0 C 321.5,756.8 331.5,765.2 343.0,771.0 C 358.3,778.7 386.5,777.3 402.0,785.0 C 408.3,788.2 417.6,785.8 424.0,789.0 C 426.8,790.4 432.3,806.5 434.0,810.0 C 444.5,831.0 454.4,851.9 465.0,873.0 C 470.2,883.4 494.6,886.7 504.0,882.0 C 517.0,875.5 525.8,856.7 519.0,843.0 C 518.5,841.9 519.5,840.1 519.0,839.0 C 502.9,806.7 489.2,773.3 473.0,741.0 C 471.9,738.8 473.1,735.2 472.0,733.0 C 466.0,721.0 465.0,707.0 459.0,695.0 C 453.8,684.5 453.3,671.6 448.0,661.0 C 445.1,655.1 445.6,645.8 438.0,642.0 C 435.5,640.8 433.5,638.2 431.0,637.0 C 428.1,635.6 424.0,636.5 421.0,635.0 C 417.6,633.3 409.6,635.7 407.0,637.0 C 405.9,637.5 404.1,636.5 403.0,637.0 C 398.4,639.3 391.4,645.2 389.0,650.0 C 382.6,662.7 388.2,688.4 394.0,700.0 C 394.9,701.7 400.4,718.3 400.0,719.0 C 399.7,719.6 396.1,719.6 395.0,719.0 C 388.7,715.8 380.3,717.1 374.0,714.0 C 345.7,699.9 320.3,680.2 292.0,666.0 C 268.1,654.0 246.0,638.0 222.0,626.0 C 219.2,624.6 215.3,617.6 214.0,615.0 C 210.0,607.0 202.0,600.9 198.0,593.0 C 195.7,588.4 190.3,585.6 188.0,581.0 C 186.3,577.6 186.6,573.3 185.0,570.0 C 173.9,547.8 164.1,525.2 153.0,503.0 C 142.9,482.8 140.3,465.0 112.0,465.0 Z"/>
  <path d="M 689.0,446.0 C 686.6,448.4 681.8,446.6 679.0,448.0 C 673.4,450.8 666.8,457.4 664.0,463.0 C 662.8,465.5 664.2,469.5 663.0,472.0 C 660.8,476.4 662.0,483.9 664.0,488.0 C 664.8,489.7 664.1,492.2 665.0,494.0 C 672.4,508.8 695.4,512.8 709.0,506.0 C 724.0,498.5 727.9,474.8 721.0,461.0 C 715.2,449.3 701.8,446.0 690.0,446.0 Z"/>
  <path d="M 262.0,367.0 C 259.6,369.4 254.8,367.6 252.0,369.0 C 246.4,371.8 239.8,378.4 237.0,384.0 C 235.8,386.5 237.2,390.5 236.0,393.0 C 233.9,397.2 235.0,404.1 237.0,408.0 C 237.8,409.7 237.1,412.2 238.0,414.0 C 245.4,428.8 268.4,432.8 282.0,426.0 C 296.8,418.6 300.8,395.6 294.0,382.0 C 288.2,370.3 274.8,367.0 263.0,367.0 Z"/>
</g>
<g fill="#f0d9ba" fill-rule="evenodd" stroke="none">
  <path d="M 693.0,506.0 C 690.6,508.4 685.8,506.6 683.0,508.0 C 679.2,509.9 674.0,514.0 672.0,518.0 C 669.2,523.6 668.1,535.1 671.0,541.0 C 671.8,542.7 675.0,546.2 675.0,548.0 C 675.0,550.3 666.6,554.0 665.0,554.0 C 661.5,554.0 655.1,556.4 652.0,558.0 C 648.7,559.6 643.3,557.4 640.0,559.0 C 638.3,559.9 633.2,561.1 631.0,560.0 C 629.7,559.4 625.0,547.0 624.0,545.0 C 615.6,528.2 605.6,502.7 581.0,515.0 C 558.6,526.2 574.8,555.6 582.0,570.0 C 582.7,571.5 589.1,584.7 589.0,585.0 C 585.1,592.9 581.9,601.2 578.0,609.0 C 570.6,623.8 541.9,627.0 527.0,627.0 C 521.9,627.0 510.5,629.2 506.0,627.0 C 486.4,617.2 468.6,603.8 449.0,594.0 C 444.1,591.6 436.9,593.4 432.0,591.0 C 417.0,583.5 386.7,584.4 372.0,577.0 C 367.3,574.6 360.0,580.0 356.0,578.0 C 346.4,573.2 337.6,566.8 328.0,562.0 C 319.8,557.9 299.3,560.0 289.0,560.0 C 285.8,560.0 278.8,561.4 276.0,560.0 C 264.2,554.1 242.5,537.2 229.0,544.0 C 225.3,545.8 219.4,545.2 217.0,550.0 C 215.2,553.5 213.6,558.8 213.0,560.0 C 212.4,561.2 211.0,564.8 211.0,566.0 C 211.0,577.5 219.6,585.3 229.0,590.0 C 237.9,594.4 246.1,599.6 255.0,604.0 C 265.4,609.2 280.5,608.0 293.0,608.0 C 297.6,608.0 308.0,606.0 312.0,608.0 C 315.9,610.0 319.1,613.0 323.0,615.0 C 325.5,616.3 331.6,618.1 333.0,621.0 C 342.8,640.6 349.1,683.3 359.0,703.0 C 367.9,720.8 394.9,718.3 403.0,702.0 C 407.7,692.6 400.3,672.7 396.0,664.0 C 393.5,659.0 394.5,652.0 392.0,647.0 C 390.8,644.6 385.2,629.9 387.0,629.0 C 389.3,627.8 400.7,631.9 403.0,633.0 C 410.5,636.8 421.5,634.2 429.0,638.0 C 437.7,642.3 445.3,648.6 454.0,653.0 C 466.0,659.0 477.0,667.0 489.0,673.0 C 495.2,676.1 505.6,675.0 513.0,675.0 C 529.4,675.0 549.3,676.8 563.0,670.0 C 566.4,668.3 571.6,669.7 575.0,668.0 C 589.5,660.7 609.6,652.8 618.0,636.0 C 621.4,629.3 624.6,622.7 628.0,616.0 C 629.2,613.7 629.1,609.5 632.0,608.0 C 635.8,606.1 642.2,608.9 646.0,607.0 C 654.8,602.6 672.4,604.3 681.0,600.0 C 687.6,596.7 694.3,593.3 701.0,590.0 C 707.1,586.9 710.8,579.1 717.0,576.0 C 725.0,572.0 745.6,581.8 752.0,569.0 C 759.7,553.5 759.9,539.0 742.0,530.0 C 735.6,526.8 725.3,531.1 719.0,528.0 C 716.6,526.8 715.1,520.2 714.0,518.0 C 710.3,510.6 701.8,507.0 694.0,507.0 Z"/>
</g>
<g fill="#2b83d2" fill-rule="evenodd" stroke="none">
  <path d="M 790.0,387.0 C 786.9,390.1 782.5,390.1 780.0,395.0 C 776.6,401.8 780.2,410.3 783.0,416.0 C 789.8,429.7 795.1,444.3 802.0,458.0 C 803.3,460.6 799.1,468.8 798.0,471.0 C 794.8,477.4 790.2,492.4 783.0,496.0 C 777.7,498.7 772.2,501.4 767.0,504.0 C 765.3,504.9 756.7,507.9 755.0,507.0 C 744.6,501.8 734.3,496.2 724.0,491.0 C 723.0,490.5 713.3,483.5 713.0,483.0 C 710.8,478.6 709.2,473.4 707.0,469.0 C 702.8,460.7 685.2,460.7 681.0,469.0 C 676.1,478.8 680.8,486.6 685.0,495.0 C 686.0,497.1 685.9,499.9 687.0,502.0 C 690.0,508.0 698.1,511.6 703.0,514.0 C 711.1,518.1 717.9,524.0 726.0,528.0 C 733.5,531.7 741.6,534.3 749.0,538.0 C 752.6,539.8 762.1,537.4 765.0,536.0 C 769.6,533.7 776.4,535.3 781.0,533.0 C 793.6,526.7 809.8,518.3 817.0,504.0 C 820.1,497.7 822.8,491.3 826.0,485.0 C 827.3,482.4 828.1,475.5 831.0,474.0 C 834.2,472.4 842.4,474.0 846.0,474.0 C 857.3,474.0 868.7,474.0 880.0,474.0 C 884.2,474.0 889.6,472.3 893.0,474.0 C 895.2,475.1 894.0,482.0 895.0,484.0 C 897.5,488.9 906.7,495.1 913.0,492.0 C 922.7,487.1 927.4,477.7 922.0,467.0 C 919.5,462.1 911.7,463.4 910.0,460.0 C 907.6,455.3 910.5,449.3 904.0,446.0 C 892.1,440.1 875.7,444.0 862.0,444.0 C 858.4,444.0 851.8,441.1 848.0,443.0 C 844.4,444.8 833.7,444.8 830.0,443.0 C 826.7,441.4 825.5,433.0 824.0,430.0 C 819.6,421.2 815.4,412.7 811.0,404.0 C 808.8,399.6 808.5,391.8 803.0,389.0 C 799.3,387.1 795.5,387.0 791.0,387.0 Z"/>
  <path d="M 261.0,383.0 C 258.3,385.7 253.2,385.5 251.0,390.0 C 243.6,404.8 237.4,420.2 230.0,435.0 C 227.6,439.8 221.4,459.8 217.0,462.0 C 216.7,462.1 198.6,461.0 196.0,461.0 C 180.0,461.0 163.2,462.0 146.0,462.0 C 139.4,462.0 128.6,460.2 123.0,463.0 C 118.5,465.3 117.0,469.0 115.0,473.0 C 110.8,481.5 120.5,489.2 126.0,492.0 C 129.8,493.9 139.6,492.0 144.0,492.0 C 160.0,492.0 176.0,492.0 192.0,492.0 C 195.0,492.0 213.3,491.5 214.0,493.0 C 221.7,508.3 194.7,539.9 215.0,550.0 C 234.6,559.8 238.0,534.0 243.0,524.0 C 244.2,521.5 243.1,508.0 245.0,508.0 C 247.1,508.0 251.1,510.0 253.0,511.0 C 255.1,512.1 258.9,509.9 261.0,511.0 C 267.1,514.1 278.9,512.0 286.0,512.0 C 289.2,512.0 296.2,513.4 299.0,512.0 C 304.6,509.2 314.3,501.6 310.0,493.0 C 299.5,471.9 284.5,488.8 269.0,481.0 C 267.0,480.0 248.9,478.9 247.0,475.0 C 246.4,473.7 254.8,457.3 256.0,455.0 C 264.7,437.7 271.3,419.3 280.0,402.0 C 285.8,390.3 271.0,383.0 262.0,383.0 Z"/>
  <path d="M 507.0,834.0 C 501.9,839.1 500.7,835.6 496.0,845.0 C 495.0,847.1 496.2,851.4 497.0,853.0 C 497.7,854.4 497.3,856.5 498.0,858.0 C 501.8,865.6 514.0,865.0 520.0,862.0 C 528.3,857.8 528.3,840.2 520.0,836.0 C 516.3,834.1 512.5,834.0 508.0,834.0 Z"/>
</g>
<g fill="#fd6b5d" fill-rule="evenodd" stroke="none">
  <path d="M 745.0,241.0 C 742.4,243.6 734.5,243.3 731.0,245.0 C 719.8,250.6 722.1,259.8 718.0,268.0 C 715.3,273.4 725.0,286.1 727.0,290.0 C 734.2,304.4 756.5,329.7 774.0,321.0 C 775.3,320.3 777.7,321.7 779.0,321.0 C 790.0,315.5 798.7,299.4 793.0,288.0 C 792.3,286.7 793.7,284.3 793.0,283.0 C 789.3,275.6 780.8,270.5 777.0,263.0 C 771.3,251.5 758.9,241.0 746.0,241.0 Z"/>
  <path d="M 648.0,303.0 C 645.4,305.6 637.5,305.3 634.0,307.0 C 622.8,312.6 625.1,321.8 621.0,330.0 C 620.3,331.4 621.5,332.1 622.0,333.0 C 623.4,335.7 621.6,340.3 623.0,343.0 C 625.1,347.2 629.9,349.8 632.0,354.0 C 633.8,357.7 638.1,360.2 640.0,364.0 C 646.1,376.1 659.9,390.6 675.0,383.0 C 676.3,382.3 678.7,383.7 680.0,383.0 C 691.0,377.5 699.7,361.4 694.0,350.0 C 692.8,347.5 694.2,343.5 693.0,341.0 C 689.5,333.9 681.6,329.1 678.0,322.0 C 672.7,311.5 660.5,303.0 649.0,303.0 Z"/>
  <path d="M 546.0,360.0 C 543.4,362.6 535.5,362.3 532.0,364.0 C 520.8,369.6 523.1,378.8 519.0,387.0 C 516.0,393.0 528.3,408.6 529.0,410.0 C 536.1,424.2 556.8,447.6 574.0,439.0 C 575.3,438.3 577.7,439.7 579.0,439.0 C 590.0,433.5 598.7,417.4 593.0,406.0 C 592.3,404.7 593.7,402.3 593.0,401.0 C 589.5,394.0 581.6,389.1 578.0,382.0 C 572.3,370.5 560.0,360.0 547.0,360.0 Z"/>
</g>
</svg>