<svg xmlns="http://www.w3.org/2000/svg" viewBox="0 0 1024 1024" width="1024" height="1024">
<g fill="none" stroke="#000000" stroke-width="5.6" stroke-linecap="round" stroke-linejoin="round">
  <path d="M 652.0,215.2 C 651.8,216.8 652.7,213.4 650.7,225.0 C 648.8,236.6 641.9,274.8 640.1,284.8"/>
  <path d="M 519.3,231.2 C 524.0,241.7 542.7,282.7 547.7,294.0 C 552.7,305.2 548.9,298.0 549.1,298.8"/>
  <path d="M 541.2,326.8 C 542.2,326.1 544.9,323.6 547.0,322.2 C 549.1,320.7 551.3,319.6 554.0,318.3 C 556.7,316.9 559.0,315.7 563.0,314.0 C 567.0,312.4 574.0,309.7 578.0,308.4 C 582.0,307.0 584.2,306.6 587.0,305.9 C 589.8,305.3 589.7,305.1 595.0,304.4 C 600.3,303.8 611.2,302.1 619.0,302.1 C 626.8,302.1 635.7,303.5 642.0,304.5 C 648.3,305.5 652.5,306.7 657.0,308.1 C 661.5,309.5 665.3,311.3 669.0,312.9 C 672.7,314.5 674.8,315.4 679.0,317.8 C 683.2,320.1 690.3,324.6 694.0,327.1 C 697.7,329.5 697.2,329.0 701.0,332.5 C 704.8,336.0 713.1,344.1 716.8,348.0 C 720.5,351.9 720.4,352.0 723.1,356.0 C 725.8,360.0 730.4,367.2 733.2,372.0 C 736.0,376.8 738.0,381.3 739.7,385.0 C 741.3,388.7 741.8,389.3 743.2,394.0 C 744.6,398.7 746.9,406.5 748.2,413.0 C 749.5,419.5 750.4,426.8 750.9,433.0 C 751.3,439.2 751.3,444.2 750.9,450.0 C 750.5,455.8 748.8,464.0 748.3,468.0 C 747.8,472.0 748.1,472.8 748.0,473.8"/>
  <path d="M 537.8,328.5 C 533.5,326.9 518.3,320.9 512.0,318.7 C 505.7,316.5 503.7,316.1 500.0,315.2 C 496.3,314.3 495.2,314.0 490.0,313.3 C 484.8,312.6 475.0,311.4 469.0,311.0 C 463.0,310.7 460.0,310.7 454.0,311.2 C 448.0,311.7 438.8,312.9 433.0,314.0 C 427.2,315.1 424.0,316.0 419.0,317.7 C 414.0,319.4 408.0,321.9 403.0,324.3 C 398.0,326.7 393.8,328.9 389.0,332.1 C 384.2,335.3 378.3,339.8 374.0,343.5 C 369.7,347.1 366.6,350.2 363.2,354.0 C 359.8,357.8 356.6,361.5 353.4,366.0 C 350.3,370.5 346.7,376.5 344.3,381.0 C 342.0,385.5 340.9,388.2 339.1,393.0 C 337.3,397.8 334.9,405.0 333.6,410.0 C 332.4,415.0 331.8,420.7 331.4,422.8"/>
  <path d="M 540.9,331.2 C 544.2,334.1 555.4,343.4 561.0,349.0 C 566.5,354.7 570.0,358.7 574.3,365.0 C 578.5,371.3 583.8,380.7 586.7,387.0 C 589.6,393.3 590.7,400.2 591.6,402.8"/>
  <path d="M 842.8,395.4 C 842.2,395.7 840.2,396.4 838.9,396.8 C 837.6,397.2 846.5,395.7 835.0,397.7 C 823.5,399.7 781.0,407.0 770.2,408.9"/>
  <path d="M 594.2,404.0 C 599.3,403.3 616.9,400.6 625.0,400.1 C 633.1,399.7 637.5,400.5 643.0,401.2 C 648.5,401.9 652.3,402.5 658.0,404.4 C 663.7,406.2 671.0,408.9 677.0,412.0 C 683.0,415.2 688.6,419.0 694.0,423.5 C 699.4,428.0 705.9,435.2 709.3,439.0 C 712.6,442.8 712.2,442.7 714.1,446.0 C 716.0,449.3 718.9,454.4 720.7,459.0 C 722.4,463.6 724.0,471.3 724.7,473.8"/>
  <path d="M 328.8,423.9 C 326.0,423.5 316.6,421.7 312.0,421.1 C 307.4,420.6 304.8,420.6 301.0,420.6 C 297.2,420.6 292.2,420.9 289.0,421.2 C 285.8,421.5 284.2,421.9 282.0,422.3 C 279.8,422.7 278.0,423.1 276.0,423.7 C 274.0,424.3 272.8,424.7 270.0,425.8 C 267.2,426.9 262.2,428.8 259.0,430.4 C 255.8,431.9 253.5,433.3 251.0,434.8 C 248.5,436.4 246.3,437.9 244.0,439.6 C 241.7,441.4 239.2,443.3 237.0,445.2 C 234.8,447.1 232.9,449.0 231.1,451.0 C 229.2,453.0 227.6,454.8 225.8,457.0 C 224.1,459.2 222.1,462.0 220.7,464.0 C 219.4,466.0 219.0,466.7 217.8,469.0 C 216.6,471.3 214.6,475.2 213.3,478.0 C 212.0,480.8 210.9,483.7 210.1,486.0 C 209.2,488.3 208.7,490.2 208.2,492.0 C 207.7,493.8 207.5,494.7 207.2,497.0 C 206.8,499.3 206.3,502.3 206.1,506.0 C 205.9,509.7 206.0,516.0 206.0,519.0 C 206.1,522.0 206.0,521.8 206.3,524.0 C 206.6,526.2 207.1,529.3 207.7,532.0 C 208.3,534.7 209.1,537.2 210.1,540.0 C 211.1,542.8 212.6,546.5 213.7,549.0 C 214.8,551.5 215.5,552.8 216.8,555.0 C 218.1,557.2 219.8,559.7 221.5,562.0 C 223.2,564.3 225.3,566.9 227.2,569.0 C 229.1,571.1 231.0,572.9 233.0,574.7 C 235.0,576.4 236.8,577.8 239.0,579.3 C 241.2,580.9 243.7,582.6 246.0,584.0 C 248.3,585.4 250.5,586.5 253.0,587.7 C 255.5,588.8 258.0,589.9 261.0,590.9 C 264.0,591.9 267.7,592.9 271.0,593.7 C 274.3,594.5 277.8,595.2 281.0,595.7 C 284.2,596.2 287.8,596.6 290.0,596.8 C 292.2,597.0 218.7,597.0 294.0,597.0 C 369.3,597.0 666.5,597.0 742.0,597.0 C 817.5,597.0 744.7,597.0 747.0,596.8 C 749.3,596.6 752.7,596.2 756.0,595.7 C 759.3,595.2 764.3,594.1 767.0,593.6 C 769.7,593.0 770.3,592.8 772.0,592.3 C 773.7,591.8 775.3,591.2 777.0,590.5 C 778.7,589.8 780.3,589.1 782.0,588.2 C 783.7,587.3 785.5,586.3 787.0,585.4 C 788.5,584.4 789.3,583.9 791.0,582.6 C 792.7,581.3 795.5,579.0 797.0,577.7 C 798.4,576.4 798.8,576.0 799.8,574.9 C 800.8,573.8 802.1,572.3 803.1,571.0 C 804.1,569.7 805.0,568.3 805.9,567.0 C 806.7,565.7 807.5,564.3 808.2,563.0 C 808.9,561.7 809.5,560.3 810.0,559.0 C 810.6,557.7 810.8,556.8 811.3,555.0 C 811.8,553.2 812.6,550.0 813.0,548.0 C 813.4,546.0 813.6,544.7 813.8,543.0 C 814.0,541.3 814.0,539.7 814.0,538.0 C 813.9,536.3 813.8,534.8 813.6,533.0 C 813.3,531.2 812.9,529.0 812.5,527.0 C 812.1,525.0 811.5,522.7 811.1,521.0 C 810.6,519.3 810.3,518.5 809.6,517.0 C 809.0,515.5 808.1,513.7 807.2,512.0 C 806.3,510.3 805.2,508.5 804.3,507.0 C 803.3,505.5 802.5,504.3 801.4,503.0 C 800.4,501.7 799.3,500.5 797.9,499.0 C 796.5,497.5 794.7,495.7 793.0,494.2 C 791.3,492.7 789.7,491.4 788.0,490.2 C 786.3,488.9 784.5,487.7 783.0,486.7 C 781.5,485.8 780.3,485.1 779.0,484.4 C 777.7,483.7 777.0,483.3 775.0,482.5 C 773.0,481.7 769.2,480.2 767.0,479.5 C 764.8,478.7 764.0,478.4 762.0,477.9 C 760.0,477.4 757.0,476.8 755.0,476.5 C 753.1,476.1 751.0,476.1 750.2,476.0"/>
  <path d="M 333.2,428.3 C 335.5,427.4 341.1,430.5 345.0,433.3 C 348.9,436.0 354.2,441.2 356.8,445.0 C 359.4,448.8 360.6,452.8 360.5,456.0 C 360.5,459.2 359.1,462.5 356.7,464.0 C 354.3,465.5 349.2,466.0 346.0,464.9 C 342.8,463.7 339.7,461.3 337.2,457.0 C 334.8,452.7 332.0,443.8 331.3,439.0 C 330.7,434.2 330.9,429.3 333.2,428.3 Z"/>
  <path d="M 725.4,478.2 C 720.2,476.8 698.1,485.3 691.0,488.8 C 683.9,492.3 684.1,495.7 682.9,499.0 C 681.7,502.3 681.7,506.2 684.0,508.8 C 686.4,511.4 692.2,514.6 697.0,514.7 C 701.8,514.8 708.7,512.3 713.0,509.4 C 717.2,506.4 720.4,502.2 722.5,497.0 C 724.5,491.8 730.7,479.6 725.4,478.2 Z"/>
  <path d="M 404.4,620.2 C 406.4,620.3 407.1,619.9 410.2,625.1 C 413.3,630.2 419.8,642.3 423.1,651.0 C 426.4,659.7 429.1,671.0 429.9,677.0 C 430.6,683.0 429.0,684.1 427.8,687.0 C 426.6,689.9 424.8,692.5 422.7,694.7 C 420.5,696.8 417.8,698.6 415.0,699.8 C 412.2,701.0 409.2,701.7 406.0,701.8 C 402.8,701.9 399.0,701.3 396.0,700.3 C 393.0,699.3 390.5,697.9 388.1,695.7 C 385.7,693.5 383.1,690.0 381.7,687.0 C 380.4,684.0 380.2,681.7 380.0,678.0 C 379.8,674.3 379.3,670.3 380.6,665.0 C 381.8,659.7 384.5,652.8 387.4,646.0 C 390.4,639.2 395.6,628.5 398.4,624.2 C 401.2,619.9 402.4,620.0 404.4,620.2 Z"/>
  <path d="M 507.4,620.0 C 509.5,620.2 510.6,620.2 513.6,625.0 C 516.6,629.9 522.4,640.5 525.7,649.0 C 528.9,657.5 532.0,669.8 533.0,676.0 C 534.0,682.2 532.7,683.0 531.7,686.0 C 530.6,689.0 528.9,691.6 526.8,693.9 C 524.6,696.2 522.0,698.4 519.0,699.7 C 516.0,701.0 512.5,701.8 509.0,701.8 C 505.5,701.8 501.0,701.0 498.0,699.9 C 495.0,698.7 493.2,697.1 491.0,694.9 C 488.9,692.8 486.4,690.0 485.1,687.0 C 483.7,684.0 483.1,681.2 483.0,677.0 C 483.0,672.8 483.2,667.8 484.8,662.0 C 486.3,656.2 489.7,648.3 492.4,642.0 C 495.2,635.7 498.9,627.8 501.4,624.2 C 503.9,620.5 505.4,619.9 507.4,620.0 Z"/>
  <path d="M 609.4,620.0 C 611.5,619.9 612.4,619.2 615.6,624.2 C 618.8,629.2 625.3,641.2 628.7,650.0 C 632.0,658.8 635.0,670.8 635.8,677.0 C 636.7,683.2 634.9,684.2 633.7,687.0 C 632.6,689.8 630.9,691.9 628.9,694.0 C 627.0,696.0 624.8,698.0 622.0,699.3 C 619.2,700.6 615.5,701.7 612.0,701.8 C 608.5,701.9 604.2,701.1 601.0,700.0 C 597.8,698.8 595.4,697.2 593.1,694.8 C 590.7,692.5 588.3,689.0 586.9,686.0 C 585.6,683.0 585.2,680.3 585.0,677.0 C 584.8,673.7 584.4,671.3 585.8,666.0 C 587.2,660.7 590.5,651.8 593.4,645.0 C 596.4,638.2 600.7,629.2 603.4,625.0 C 606.1,620.9 607.4,620.2 609.4,620.0 Z"/>
</g>
</svg>