<svg xmlns="http://www.w3.org/2000/svg" viewBox="0 0 1024 1024" width="1024" height="1024">
<g fill="none" stroke="#000000" stroke-width="4.0" stroke-linecap="round" stroke-linejoin="round">
  <path d="M 292.5,439.8 C 291.0,437.0 285.7,426.8 283.8,423.0 C 282.0,419.2 282.3,419.7 281.4,417.0 C 280.4,414.3 279.4,411.7 278.3,407.0 C 277.1,402.3 275.3,393.2 274.6,389.0 C 273.9,384.8 274.1,387.7 274.0,382.0 C 273.9,376.3 273.7,362.2 274.1,355.0 C 274.5,347.8 275.6,343.5 276.5,339.0 C 277.3,334.5 277.7,332.7 279.0,328.0 C 280.3,323.3 282.5,315.8 284.1,311.0 C 285.7,306.2 287.3,302.5 288.9,299.0 C 290.4,295.5 291.3,293.8 293.4,290.0 C 295.6,286.2 298.9,280.5 301.9,276.0 C 304.8,271.5 308.5,266.5 311.2,263.0 C 313.9,259.5 314.6,258.6 318.1,255.0 C 321.5,251.4 327.7,245.2 332.0,241.3 C 336.3,237.4 340.7,234.2 344.0,231.7 C 347.3,229.1 348.5,228.3 352.0,226.1 C 355.5,223.8 360.5,220.8 365.0,218.3 C 369.5,215.9 374.5,213.4 379.0,211.3 C 383.5,209.3 387.3,207.8 392.0,206.1 C 396.7,204.4 402.3,202.5 407.0,201.0 C 411.7,199.6 415.5,198.5 420.0,197.4 C 424.5,196.3 428.0,195.3 434.0,194.3 C 440.0,193.3 449.8,192.0 456.0,191.3 C 462.2,190.6 463.0,190.3 471.0,190.1 C 479.0,189.9 493.2,189.5 504.0,190.1 C 514.8,190.6 528.0,192.4 536.0,193.4 C 544.0,194.5 546.7,195.1 552.0,196.2 C 557.3,197.3 563.2,198.9 568.0,200.2 C 572.8,201.5 576.5,202.5 581.0,204.0 C 585.5,205.5 589.5,206.8 595.0,209.1 C 600.5,211.3 607.8,214.2 614.0,217.4 C 620.2,220.6 627.2,225.0 632.0,228.0 C 636.8,231.0 639.7,233.0 643.0,235.4 C 646.3,237.9 647.0,237.9 652.0,242.5 C 657.0,247.1 667.6,257.4 672.9,263.0 C 678.1,268.6 680.7,272.2 683.6,276.0 C 686.4,279.8 687.9,282.3 690.2,286.0 C 692.4,289.7 694.5,293.0 697.0,298.0 C 699.4,303.0 702.8,310.0 705.1,316.0 C 707.5,322.0 709.5,327.5 711.1,334.0 C 712.7,340.5 713.9,348.7 714.7,355.0 C 715.5,361.3 715.9,367.2 716.0,372.0 C 716.0,376.8 715.2,379.0 715.0,384.0 C 714.9,389.0 714.9,398.2 715.1,402.0 C 715.2,405.8 715.4,405.2 715.8,407.0 C 716.2,408.8 716.8,410.7 717.7,413.0 C 718.5,415.3 719.1,417.3 721.1,421.0 C 723.1,424.7 723.4,426.2 729.7,435.0 C 736.0,443.8 753.5,466.5 758.9,474.0 C 764.3,481.5 761.3,478.2 762.0,480.0 C 762.6,481.8 762.8,483.5 762.9,485.0 C 763.0,486.5 762.9,487.8 762.7,489.0 C 762.5,490.2 762.2,491.0 761.7,492.0 C 761.2,493.0 760.6,493.9 759.7,495.0 C 758.7,496.1 757.4,497.4 756.0,498.6 C 754.5,499.7 754.8,499.9 751.0,501.8 C 747.2,503.7 736.5,508.2 733.0,509.8 C 729.6,511.5 731.0,511.0 730.2,511.7 C 729.4,512.4 728.6,513.1 728.0,514.2 C 727.4,515.2 726.7,516.7 726.5,518.0 C 726.2,519.3 726.3,520.7 726.4,522.0 C 726.6,523.3 726.7,523.8 727.5,526.0 C 728.3,528.2 730.6,532.8 731.3,535.0 C 732.0,537.2 731.8,537.7 731.9,539.0 C 732.0,540.3 731.9,541.8 731.7,543.0 C 731.5,544.2 731.2,545.0 730.7,546.0 C 730.2,547.0 730.5,547.2 728.7,548.8 C 726.9,550.5 721.3,554.8 719.9,556.0"/>
  <path d="M 422.5,259.8 C 424.7,255.4 429.9,238.9 436.0,233.1 C 442.1,227.4 453.2,225.8 459.0,225.2 C 464.8,224.6 467.4,227.2 471.0,229.5 C 474.6,231.8 477.8,232.8 480.4,239.0 C 483.0,245.2 485.5,262.2 486.6,266.8"/>
  <path d="M 419.8,261.4 C 417.2,259.6 408.8,252.9 404.0,250.5 C 399.2,248.1 395.5,247.2 391.0,247.1 C 386.5,247.0 381.5,247.9 377.0,249.9 C 372.5,251.9 367.5,255.5 364.2,259.0 C 361.0,262.5 358.8,266.7 357.4,271.0 C 355.9,275.3 355.1,280.2 355.6,285.0 C 356.1,289.8 357.7,295.2 360.4,300.0 C 363.2,304.8 370.2,311.5 372.1,313.8"/>
  <path d="M 488.2,267.5 C 493.3,266.7 511.7,262.4 519.0,262.4 C 526.3,262.5 528.3,265.1 532.0,267.9 C 535.6,270.6 539.7,272.8 541.0,279.0 C 542.2,285.2 543.6,297.2 539.3,305.0 C 535.0,312.8 519.2,322.6 515.2,326.1"/>
  <path d="M 603.2,268.4 C 604.8,267.7 610.2,264.8 613.0,264.2 C 615.8,263.7 618.1,264.2 619.9,265.1 C 621.8,266.1 623.3,267.6 624.1,270.0 C 625.0,272.5 624.9,278.2 625.0,279.8"/>
  <path d="M 600.8,268.4 C 598.5,269.0 591.7,267.9 587.0,272.2 C 582.3,276.4 575.5,286.5 572.7,294.0 C 570.0,301.5 569.4,310.9 570.6,317.0 C 571.8,323.1 578.3,328.1 579.8,330.3"/>
  <path d="M 424.2,272.8 C 426.0,275.0 431.8,280.3 434.9,286.0 C 438.1,291.7 441.6,303.3 442.9,306.8"/>
  <path d="M 422.0,274.2 C 422.6,277.3 423.8,287.2 425.5,293.0 C 427.2,298.8 431.1,306.2 432.3,308.8"/>
  <path d="M 477.8,278.0 C 475.6,280.0 468.7,285.0 464.3,290.0 C 460.0,295.0 453.8,304.8 451.7,307.8"/>
  <path d="M 481.3,281.2 C 480.2,283.8 477.9,291.6 474.6,297.0 C 471.2,302.4 463.4,311.0 461.2,313.8"/>
  <path d="M 627.2,282.0 C 628.8,283.7 636.7,285.8 637.0,292.0 C 637.2,298.2 632.3,312.0 628.5,319.0 C 624.7,326.0 619.7,330.9 614.0,334.0 C 608.3,337.0 597.5,336.9 594.2,337.4"/>
  <path d="M 601.8,300.4 C 600.1,302.2 594.8,306.3 591.6,311.0 C 588.4,315.7 584.1,325.8 582.6,328.8"/>
  <path d="M 604.4,301.2 C 603.9,304.2 603.4,313.6 601.6,319.0 C 599.8,324.4 595.1,331.3 593.8,333.8"/>
  <path d="M 384.2,315.3 C 387.2,315.3 395.4,314.4 402.0,315.3 C 408.6,316.2 420.2,319.9 423.8,320.8"/>
  <path d="M 370.8,316.6 C 366.4,319.6 349.5,329.4 344.2,335.0 C 338.9,340.6 339.6,345.3 339.2,350.0 C 338.8,354.7 340.0,359.1 341.7,363.0 C 343.3,366.9 345.3,370.4 349.1,373.5 C 352.8,376.6 356.0,380.6 364.0,381.8 C 372.0,382.9 391.3,380.4 396.8,380.1"/>
  <path d="M 383.6,318.1 C 386.8,319.9 396.3,326.3 403.0,328.6 C 409.7,330.9 420.3,331.4 423.8,332.0"/>
  <path d="M 464.2,322.6 C 467.5,322.2 477.6,319.7 484.0,320.1 C 490.4,320.6 499.7,324.3 502.8,325.1"/>
  <path d="M 502.8,329.0 C 499.7,329.8 490.6,332.9 484.0,333.7 C 477.4,334.4 466.7,333.5 463.2,333.4"/>
  <path d="M 514.4,329.1 C 517.3,332.9 528.8,345.7 531.6,352.0 C 534.4,358.3 532.5,362.6 531.0,367.0 C 529.6,371.4 526.5,375.5 523.0,378.4 C 519.5,381.3 514.8,383.3 510.0,384.2 C 505.2,385.1 501.3,386.5 494.0,383.7 C 486.7,380.8 470.8,369.9 466.2,367.1"/>
  <path d="M 425.8,340.2 C 423.4,343.2 414.8,352.6 411.0,358.0 C 407.3,363.4 404.6,370.3 403.3,372.8"/>
  <path d="M 438.5,345.2 C 436.3,348.1 430.6,357.8 425.0,362.8 C 419.4,367.7 408.5,372.8 405.2,374.9"/>
  <path d="M 558.2,384.9 C 559.2,384.5 558.9,385.4 564.0,382.8 C 569.1,380.2 581.0,372.7 589.0,369.1 C 597.0,365.4 605.2,362.9 612.0,360.9 C 618.8,359.0 624.5,358.3 630.0,357.4 C 635.5,356.6 641.2,356.1 645.0,356.0 C 648.8,355.9 651.1,356.5 652.8,356.9 C 654.4,357.3 654.4,358.0 654.9,358.6 C 655.4,359.1 655.5,359.3 655.6,360.2 C 655.7,361.1 655.6,362.7 655.2,364.0 C 654.8,365.3 654.3,366.4 653.1,368.0 C 652.0,369.6 650.1,372.2 648.5,373.9 C 647.0,375.6 646.7,376.1 644.0,378.2 C 641.2,380.4 636.5,384.2 632.0,386.7 C 627.5,389.1 621.2,391.5 617.0,393.0 C 612.8,394.5 611.5,394.7 607.0,395.6 C 602.5,396.4 599.0,397.5 590.0,397.9 C 581.0,398.3 560.1,398.2 553.0,398.0 C 545.9,397.8 548.2,396.9 547.2,396.7"/>
  <path d="M 321.4,438.8 C 319.1,435.2 310.8,422.3 307.8,417.0 C 304.7,411.7 304.4,410.5 303.1,407.0 C 301.7,403.5 300.6,400.0 299.7,396.0 C 298.7,392.0 297.7,386.8 297.3,383.0 C 296.9,379.2 296.8,376.3 297.1,373.0 C 297.4,369.7 298.4,365.3 299.2,363.2 C 300.1,361.0 300.4,360.4 302.2,360.3 C 304.0,360.1 306.2,360.4 310.0,362.4 C 313.8,364.4 320.7,368.9 325.0,372.1 C 329.3,375.4 332.6,378.5 336.0,382.0 C 339.4,385.5 342.1,388.5 345.5,393.0 C 348.8,397.5 352.9,403.8 356.0,409.0 C 359.0,414.2 361.0,418.0 363.7,424.0 C 366.3,430.0 370.3,439.9 372.0,445.0 C 373.7,450.1 373.7,453.2 374.0,454.8"/>
  <path d="M 399.0,382.2 C 399.8,386.5 399.9,401.6 403.5,408.0 C 407.2,414.4 414.3,419.3 421.0,420.7 C 427.7,422.2 437.7,420.9 444.0,416.8 C 450.3,412.7 456.5,399.6 459.0,396.2"/>
  <path d="M 543.8,396.6 C 537.7,398.9 515.6,406.9 507.0,410.9 C 498.4,414.9 498.1,415.9 492.0,420.5 C 485.9,425.1 473.8,435.5 470.2,438.5"/>
  <path d="M 548.1,432.8 C 550.7,430.4 558.8,421.1 564.0,418.4 C 569.2,415.7 574.7,415.4 579.0,416.6 C 583.3,417.9 587.8,421.6 590.0,426.0 C 592.2,430.4 591.7,440.0 592.0,442.8"/>
  <path d="M 543.8,432.9 C 542.0,431.7 537.0,426.8 533.0,425.6 C 529.0,424.4 523.8,424.0 520.0,425.4 C 516.2,426.8 512.5,430.4 510.2,434.0 C 507.9,437.6 505.5,440.7 506.2,447.0 C 507.0,453.3 509.2,464.8 514.6,472.0 C 520.0,479.2 534.8,487.1 538.8,490.2"/>
  <path d="M 290.8,442.1 C 287.8,442.7 278.3,444.5 273.0,446.1 C 267.7,447.6 262.4,449.7 259.0,451.4 C 255.6,453.1 253.8,454.5 252.9,456.2 C 251.9,458.0 250.2,458.4 253.1,462.0 C 255.9,465.6 264.8,474.2 270.0,478.1 C 275.2,482.1 279.3,483.5 284.0,485.7 C 288.7,487.8 292.5,489.5 298.0,490.8 C 303.5,492.2 311.3,493.3 317.0,493.8 C 322.7,494.3 327.0,494.2 332.0,494.0 C 337.0,493.8 343.4,493.2 347.0,492.5 C 350.6,491.8 352.7,490.4 353.8,489.9"/>
  <path d="M 544.2,443.2 C 543.5,446.7 540.2,456.9 540.0,464.0 C 539.9,471.1 542.7,482.2 543.2,485.8"/>
  <path d="M 547.9,442.8 C 548.5,444.3 550.8,447.0 551.6,452.0 C 552.4,457.0 552.4,469.3 552.6,472.8"/>
  <path d="M 594.2,444.9 C 597.5,444.8 608.8,442.9 614.0,444.3 C 619.2,445.6 623.4,449.1 625.3,453.0 C 627.2,457.0 627.4,462.9 625.4,468.0 C 623.4,473.1 615.2,481.2 613.2,483.8"/>
  <path d="M 299.3,444.2 C 303.0,448.2 312.9,461.2 322.0,468.5 C 331.1,475.8 348.5,484.7 353.8,487.9"/>
  <path d="M 333.3,447.2 C 336.3,450.0 343.8,459.5 351.0,464.3 C 358.2,469.1 372.5,474.0 376.8,475.9"/>
  <path d="M 464.8,449.8 C 461.5,454.5 449.7,466.8 445.0,478.0 C 440.4,489.2 438.3,510.3 437.0,516.8"/>
  <path d="M 466.4,450.2 C 466.5,453.2 467.2,459.4 467.0,468.0 C 466.7,476.6 465.8,490.8 464.9,502.0 C 464.0,513.2 462.6,527.7 461.6,535.0 C 460.6,542.3 459.3,544.0 458.8,545.8"/>
  <path d="M 587.1,455.2 C 586.3,457.2 584.5,462.7 581.8,467.0 C 579.0,471.3 572.4,478.5 570.6,480.8"/>
  <path d="M 381.2,465.5 C 384.8,468.3 396.6,475.5 403.0,482.0 C 409.3,488.5 416.7,501.0 419.5,504.8"/>
  <path d="M 356.2,489.2 C 361.3,490.4 376.7,493.2 387.0,496.2 C 397.3,499.1 412.7,505.2 417.8,507.0"/>
  <path d="M 602.2,488.1 C 598.7,489.5 589.2,495.0 581.0,496.5 C 572.8,498.0 557.8,496.9 553.2,497.0"/>
  <path d="M 613.2,488.2 C 614.4,491.2 621.7,501.1 620.4,506.0 C 619.0,510.9 612.6,515.9 605.0,517.5 C 597.4,519.0 583.9,518.3 575.0,515.2 C 566.1,512.2 555.3,501.9 551.3,499.2"/>
  <path d="M 538.8,493.1 C 532.7,497.3 512.0,509.7 502.0,518.3 C 492.0,526.9 482.5,540.4 478.6,544.8"/>
  <path d="M 427.5,550.8 C 426.9,548.6 424.8,543.8 422.2,540.0 C 419.6,536.2 415.9,531.7 412.0,528.2 C 408.1,524.7 403.7,521.6 399.0,518.9 C 394.3,516.2 389.2,513.8 384.0,512.0 C 378.8,510.3 373.7,509.0 368.0,508.3 C 362.3,507.7 356.7,507.5 350.0,508.1 C 343.3,508.6 332.6,510.5 328.0,511.7 C 323.4,512.9 323.4,514.1 322.5,515.3 C 321.6,516.5 322.2,517.6 322.8,519.0 C 323.4,520.5 323.2,521.0 326.2,524.0 C 329.3,527.0 336.5,533.5 341.0,536.9 C 345.5,540.3 348.0,541.9 353.0,544.4 C 358.0,546.9 365.3,550.1 371.0,552.0 C 376.7,553.8 381.5,554.7 387.0,555.6 C 392.5,556.4 398.3,557.0 404.0,556.9 C 409.7,556.8 417.3,555.5 421.0,555.0 C 424.6,554.4 424.7,554.2 425.8,553.5 C 426.9,552.8 428.1,553.1 427.5,550.8 Z"/>
  <path d="M 483.2,549.5 C 486.3,547.4 495.4,540.5 502.0,537.1 C 508.6,533.8 515.0,531.0 523.0,529.3 C 531.0,527.6 544.0,527.2 550.0,527.1 C 556.0,527.1 556.9,528.3 558.9,529.1 C 560.9,530.0 561.8,530.6 562.1,532.2 C 562.3,533.9 562.2,535.9 560.4,539.0 C 558.5,542.1 554.5,547.4 550.9,550.8 C 547.4,554.2 543.5,556.8 539.0,559.5 C 534.5,562.2 530.5,564.8 524.0,566.9 C 517.5,569.0 507.7,571.2 500.0,572.0 C 492.3,572.8 483.3,572.3 478.0,571.7 C 472.7,571.0 469.8,568.6 468.2,568.0"/>
  <path d="M 477.1,551.2 C 476.1,552.5 472.3,556.6 470.7,559.0 C 469.1,561.4 468.1,564.7 467.5,565.8"/>
  <path d="M 429.7,554.2 C 430.1,555.2 431.5,558.0 432.2,560.0 C 432.9,562.0 433.1,562.5 433.7,566.0 C 434.3,569.5 435.4,577.3 435.8,581.0 C 436.2,584.7 436.5,582.0 435.9,588.0 C 435.4,594.0 434.3,607.8 432.5,617.0 C 430.7,626.2 428.4,633.7 425.1,643.0 C 421.8,652.3 417.7,662.8 412.7,673.0 C 407.8,683.2 400.0,696.5 395.6,704.0 C 391.1,711.5 389.3,713.5 386.1,718.0 C 382.8,722.5 379.5,726.7 376.0,731.0 C 372.5,735.3 367.6,740.9 364.8,744.0 C 362.0,747.0 360.1,748.3 359.2,749.1"/>
  <path d="M 719.9,558.2 C 720.9,559.5 724.7,563.5 725.8,566.0 C 727.0,568.5 726.9,570.8 726.8,573.0 C 726.7,575.2 726.4,576.2 725.1,579.0 C 723.8,581.8 720.4,586.8 719.0,590.0 C 717.6,593.2 716.8,592.3 716.6,598.0 C 716.4,603.7 717.9,618.2 717.8,624.0 C 717.7,629.8 716.7,630.5 715.8,633.0 C 715.0,635.5 714.7,636.6 712.5,639.0 C 710.4,641.4 706.6,645.4 703.0,647.5 C 699.4,649.5 695.5,650.6 691.0,651.5 C 686.5,652.4 685.5,653.3 676.0,652.9 C 666.5,652.5 643.3,649.8 634.0,649.1 C 624.7,648.5 625.2,648.5 620.0,649.1 C 614.8,649.7 607.8,651.0 603.0,652.7 C 598.2,654.5 594.0,657.3 591.0,659.5 C 588.0,661.7 586.8,663.6 584.9,666.0 C 583.1,668.4 581.9,669.0 579.8,674.0 C 577.8,679.0 574.2,688.2 572.4,696.0 C 570.6,703.8 569.6,713.2 569.1,721.0 C 568.5,728.8 568.9,737.5 569.0,743.0 C 569.2,748.5 570.0,752.0 570.2,753.8"/>
</g>
</svg>