<svg xmlns="http://www.w3.org/2000/svg" viewBox="0 0 1024 1024" width="1024" height="1024">
<g fill="none" stroke="#000000" stroke-width="4.0" stroke-linecap="round" stroke-linejoin="round">
  <path d="M 313.4,210.4 C 361.3,203.7 528.2,199.2 595.0,200.0 C 661.8,200.9 701.6,193.2 714.1,215.5 C 726.6,237.8 698.7,288.4 669.8,334.0 C 640.9,379.6 539.2,435.3 540.6,489.0 C 542.0,542.7 649.7,615.7 678.3,656.0 C 706.9,696.3 707.8,713.0 712.2,731.0 C 716.6,749.0 750.5,756.0 704.6,764.0 C 658.8,772.0 501.9,780.0 437.0,778.9 C 372.1,777.9 329.5,779.5 315.1,757.7 C 300.7,735.9 322.6,692.6 350.6,648.0 C 378.6,603.4 485.1,546.7 483.3,490.0 C 481.4,433.3 368.9,349.7 339.5,308.0 C 310.1,266.3 311.4,256.3 307.1,240.0 C 302.7,223.7 265.4,217.0 313.4,210.4 Z"/>
  <path d="M 380.7,340.4 C 381.4,336.5 377.3,321.9 384.5,317.0 C 391.7,312.2 400.3,305.4 424.0,311.4 C 447.7,317.3 509.8,345.7 526.9,352.5"/>
  <path d="M 644.5,341.4 C 645.3,337.7 651.6,323.7 649.1,319.0 C 646.7,314.2 647.9,307.2 630.0,312.8 C 612.1,318.4 556.3,345.8 541.6,352.4"/>
  <path d="M 387.6,346.3 C 399.5,350.2 435.9,367.7 459.0,369.5 C 482.1,371.3 515.2,359.3 526.4,357.3"/>
  <path d="M 384.5,349.6 C 389.7,356.1 398.4,370.9 415.4,389.0 C 432.3,407.1 472.0,441.8 486.2,458.0 C 500.5,474.2 498.6,481.7 501.1,486.4"/>
  <path d="M 637.4,347.7 C 633.4,349.7 620.6,356.5 613.0,359.6 C 605.4,362.7 595.1,365.2 591.6,366.3"/>
  <path d="M 640.5,350.6 C 621.4,371.1 545.7,449.6 525.9,474.0 C 506.1,498.4 520.6,480.4 521.7,497.0 C 522.7,513.6 530.7,560.7 532.5,573.4"/>
  <path d="M 541.6,357.8 C 545.0,358.9 555.0,362.8 562.0,364.3 C 569.0,365.8 579.9,366.3 583.4,366.8"/>
  <path d="M 583.9,370.5 C 576.0,375.2 548.1,388.8 536.1,399.1 C 524.0,409.3 515.5,405.2 511.6,432.0 C 507.7,458.8 514.5,531.1 512.6,560.0 C 510.8,588.9 502.4,597.9 500.4,605.4"/>
  <path d="M 503.6,609.0 C 531.5,619.6 641.2,651.2 671.1,672.5 C 701.0,693.8 730.1,722.3 682.9,736.6 C 635.7,750.9 445.1,758.8 388.0,758.3 C 330.9,757.9 347.3,746.6 340.3,733.9 C 333.2,721.2 344.9,690.7 345.8,682.1"/>
  <path d="M 482.4,624.7 C 473.9,629.3 452.9,644.1 431.0,652.4 C 409.1,660.7 364.2,671.0 350.8,674.7"/>
  <path d="M 485.5,627.6 C 475.6,636.0 448.2,669.5 426.0,678.5 C 403.8,687.4 364.8,680.6 352.6,681.1"/>
</g>
</svg>