<svg xmlns="http://www.w3.org/2000/svg" viewBox="0 0 1024 1024" width="1024" height="1024">
<g fill="#000000" fill-rule="evenodd" stroke="none">
  <path d="M 413.0,198.0 C 381.8,203.2 347.6,194.8 317.0,205.0 C 283.9,216.0 313.3,264.6 323.0,284.0 C 352.2,342.4 395.1,395.0 443.0,439.0 C 457.3,452.1 488.8,473.6 481.0,497.0 C 473.3,520.1 444.2,538.3 427.0,554.0 C 385.4,592.1 352.2,635.7 327.0,686.0 C 318.3,703.4 302.9,731.7 308.0,752.0 C 314.8,779.3 376.3,780.0 399.0,780.0 C 491.0,780.0 583.4,783.6 675.0,776.0 C 732.0,771.3 718.9,736.3 703.0,698.0 C 677.9,637.8 633.8,586.8 586.0,543.0 C 570.9,529.2 545.7,514.1 542.0,492.0 C 538.2,468.9 588.3,432.4 604.0,418.0 C 646.3,379.2 677.6,330.9 703.0,280.0 C 711.1,263.8 724.1,238.8 721.0,220.0 C 717.5,199.1 663.7,199.0 647.0,199.0 C 571.3,199.0 495.0,198.0 419.0,198.0 Z M 453.0,203.0 C 482.4,198.1 531.1,200.5 561.0,203.0 C 586.6,205.1 613.2,200.8 639.0,203.0 C 655.7,204.4 698.7,201.9 711.0,213.0 C 723.6,224.3 707.2,260.7 701.0,273.0 C 673.0,329.1 638.6,380.3 592.0,423.0 C 573.1,440.4 537.0,461.8 537.0,491.0 C 537.0,514.7 568.7,533.9 584.0,548.0 C 627.6,588.0 665.5,633.0 692.0,686.0 C 703.8,709.6 730.5,758.1 691.0,768.0 C 651.7,777.8 610.9,772.7 571.0,776.0 C 515.8,780.6 452.2,779.6 397.0,775.0 C 376.0,773.3 317.6,776.4 313.0,749.0 C 309.9,730.6 323.1,704.9 331.0,689.0 C 355.9,639.2 388.8,595.7 430.0,558.0 C 447.7,541.7 475.4,524.0 485.0,501.0 C 496.7,473.0 459.2,446.7 442.0,431.0 C 394.7,387.7 360.1,337.0 328.0,282.0 C 320.5,269.2 300.0,230.2 309.0,216.0 C 317.1,203.3 365.3,204.0 380.0,204.0 C 403.9,204.0 428.0,203.0 452.0,203.0 Z"/>
  <path d="M 408.0,308.0 C 369.1,312.9 365.5,327.8 387.0,359.0 C 411.6,394.7 446.7,420.7 477.0,451.0 C 484.0,458.0 491.9,465.7 496.0,475.0 C 496.5,476.2 499.3,490.3 501.0,491.0 C 504.9,492.5 503.2,484.1 501.0,477.0 C 496.9,463.8 487.9,454.3 478.0,445.0 C 456.8,425.1 434.9,406.3 415.0,385.0 C 408.5,378.1 390.1,363.0 389.0,353.0 C 388.4,347.6 400.5,356.3 409.0,360.0 C 423.7,366.4 440.9,371.0 457.0,372.0 C 475.7,373.2 495.1,371.6 513.0,366.0 C 520.5,363.7 528.8,358.0 537.0,359.0 C 542.7,359.7 547.6,363.3 553.0,365.0 C 556.6,366.1 575.1,366.7 577.0,369.0 C 580.4,373.1 555.8,382.8 550.0,386.0 C 533.3,395.4 516.9,410.6 510.0,429.0 C 492.3,476.1 533.7,569.2 493.0,613.0 C 476.4,630.9 436.6,651.1 413.0,657.0 C 394.2,661.7 363.7,654.1 349.0,670.0 C 334.8,685.4 326.4,725.2 341.0,742.0 C 350.7,753.2 367.0,757.4 381.0,760.0 C 420.1,767.3 461.4,766.0 501.0,766.0 C 527.6,766.0 554.5,766.7 581.0,765.0 C 626.0,762.2 704.3,766.4 688.0,701.0 C 685.8,692.2 682.6,674.9 675.0,669.0 C 672.4,667.0 661.9,666.7 659.0,666.0 C 647.8,663.2 637.2,657.1 627.0,652.0 C 597.5,637.2 571.4,610.1 539.0,602.0 C 524.8,598.5 515.8,606.8 507.0,606.0 C 499.4,605.3 510.2,588.6 511.0,586.0 C 515.7,571.0 516.0,553.6 516.0,538.0 C 516.0,491.6 494.1,437.8 535.0,402.0 C 558.0,381.8 587.7,373.9 615.0,362.0 C 617.2,361.0 636.6,349.9 637.0,353.0 C 637.7,357.7 614.7,381.3 611.0,385.0 C 593.1,402.9 575.1,420.3 556.0,437.0 C 543.4,448.0 528.1,458.8 522.0,475.0 C 512.2,501.1 528.4,528.8 530.0,555.0 C 530.1,556.8 530.2,578.7 533.0,578.0 C 537.4,576.9 533.5,549.8 533.0,546.0 C 529.6,519.0 514.5,490.6 533.0,466.0 C 560.8,429.0 609.0,402.6 639.0,359.0 C 645.5,349.6 664.1,321.8 650.0,312.0 C 642.2,306.6 626.1,310.5 618.0,313.0 C 592.8,320.9 554.0,347.0 538.0,351.0 C 525.3,354.2 508.4,338.8 498.0,333.0 C 470.0,317.2 441.2,311.9 410.0,308.0 Z M 481.0,628.0 C 483.8,625.2 478.3,636.7 476.0,639.0 C 469.8,645.2 463.2,655.9 455.0,660.0 C 440.7,667.1 393.9,696.0 374.0,686.0 C 366.9,682.5 356.8,686.6 352.0,677.0 C 349.6,672.2 358.7,669.2 361.0,668.0 C 371.9,662.6 391.9,667.0 400.0,663.0 C 405.0,660.5 412.1,662.5 417.0,660.0 C 437.2,649.9 463.0,645.0 480.0,628.0 Z M 522.0,606.0 C 532.3,600.9 548.8,609.4 558.0,614.0 C 582.9,626.5 610.8,656.2 638.0,663.0 C 642.9,664.2 672.2,672.6 674.0,675.0 C 685.0,689.6 694.1,728.2 677.0,741.0 C 649.3,761.8 621.3,753.4 599.0,759.0 C 583.8,762.8 566.2,757.2 551.0,761.0 C 537.0,764.5 477.0,764.5 463.0,761.0 C 444.2,756.3 410.1,762.3 389.0,757.0 C 368.6,751.9 331.5,745.1 339.0,715.0 C 341.5,704.9 341.2,694.6 346.0,685.0 C 346.2,684.6 349.0,681.7 350.0,682.0 C 360.9,684.7 365.9,691.0 380.0,691.0 C 402.1,691.0 429.9,683.6 448.0,670.0 C 459.8,661.2 472.0,652.1 481.0,640.0 C 491.7,625.8 500.0,606.0 521.0,606.0 Z M 630.0,315.0 C 635.0,310.0 647.6,315.2 650.0,320.0 C 652.5,325.0 646.8,332.4 645.0,336.0 C 636.4,353.2 583.3,371.6 566.0,363.0 C 560.7,360.4 545.0,362.0 542.0,356.0 C 540.3,352.6 558.4,345.3 561.0,344.0 C 579.8,334.6 607.4,315.0 629.0,315.0 Z M 401.0,314.0 C 404.0,311.0 422.5,312.2 426.0,314.0 C 433.1,317.5 443.8,314.4 451.0,318.0 C 466.8,325.9 484.0,331.0 500.0,339.0 C 504.8,341.4 527.1,353.8 526.0,356.0 C 523.5,361.0 503.1,362.5 498.0,365.0 C 472.3,377.8 417.4,359.7 396.0,349.0 C 373.2,337.6 370.9,314.0 400.0,314.0 Z"/>
</g>
</svg>