<svg xmlns="http://www.w3.org/2000/svg" viewBox="0 0 1024 1024" width="1024" height="1024">
<g fill="none" stroke="#000000" stroke-width="4.0" stroke-linecap="round" stroke-linejoin="round">
  <path d="M 502.0,490.0 C 501.2,487.0 499.0,476.8 497.0,472.0 C 495.0,467.2 499.5,470.7 490.0,461.0 C 480.5,451.3 456.0,430.0 440.0,414.0 C 424.0,398.0 403.3,375.5 394.0,365.0 C 384.7,354.5 387.2,357.8 384.0,351.0 C 380.8,344.2 375.7,329.5 375.0,324.0 C 374.3,318.5 377.0,320.0 380.0,318.0 C 383.0,316.0 383.8,313.0 393.0,312.0 C 402.2,311.0 420.5,309.7 435.0,312.0 C 449.5,314.3 464.2,318.8 480.0,326.0 C 495.8,333.2 520.3,350.2 530.0,355.0 C 539.7,359.8 530.8,358.5 538.0,355.0 C 545.2,351.5 559.3,340.8 573.0,334.0 C 586.7,327.2 607.8,317.7 620.0,314.0 C 632.2,310.3 640.7,311.3 646.0,312.0 C 651.3,312.7 651.2,314.8 652.0,318.0 C 652.8,321.2 652.8,326.3 651.0,331.0 C 649.2,335.7 649.0,340.5 641.0,346.0 C 633.0,351.5 611.3,360.5 603.0,364.0 C 594.7,367.5 597.0,366.7 591.0,367.0 C 585.0,367.3 575.8,367.8 567.0,366.0 C 558.2,364.2 542.8,357.7 538.0,356.0"/>
  <path d="M 532.0,577.0 C 532.0,572.8 533.8,565.2 532.0,552.0 C 530.2,538.8 522.8,509.0 521.0,498.0 C 519.2,487.0 520.5,489.8 521.0,486.0 C 521.5,482.2 522.0,479.0 524.0,475.0 C 526.0,471.0 528.8,466.8 533.0,462.0 C 537.2,457.2 540.2,454.0 549.0,446.0 C 557.8,438.0 574.5,424.7 586.0,414.0 C 597.5,403.3 608.8,392.3 618.0,382.0 C 627.2,371.7 637.0,358.0 641.0,352.0 C 645.0,346.0 641.8,347.0 642.0,346.0"/>
  <path d="M 384.0,345.0 C 384.7,345.0 385.5,343.7 388.0,345.0 C 390.5,346.3 395.0,350.7 399.0,353.0 C 403.0,355.3 406.8,357.0 412.0,359.0 C 417.2,361.0 422.5,363.2 430.0,365.0 C 437.5,366.8 447.0,369.3 457.0,370.0 C 467.0,370.7 480.8,370.0 490.0,369.0 C 499.2,368.0 506.5,365.5 512.0,364.0 C 517.5,362.5 520.2,361.3 523.0,360.0 C 525.8,358.7 528.0,356.7 529.0,356.0"/>
  <path d="M 587.0,368.0 C 578.5,373.0 546.7,390.8 536.0,398.0 C 525.3,405.2 527.0,406.0 523.0,411.0 C 519.0,416.0 514.7,420.5 512.0,428.0 C 509.3,435.5 506.8,441.8 507.0,456.0 C 507.2,470.2 512.0,495.0 513.0,513.0 C 514.0,531.0 513.7,552.0 513.0,564.0 C 512.3,576.0 511.5,577.0 509.0,585.0 C 506.5,593.0 501.7,605.7 498.0,612.0 C 494.3,618.3 497.7,616.3 487.0,623.0 C 476.3,629.7 446.7,646.0 434.0,652.0 C 421.3,658.0 422.7,657.0 411.0,659.0 C 399.3,661.0 373.3,662.5 364.0,664.0 C 354.7,665.5 357.3,666.5 355.0,668.0 C 352.7,669.5 351.0,671.2 350.0,673.0 C 349.0,674.8 347.7,677.0 349.0,679.0 C 350.3,681.0 353.3,683.3 358.0,685.0 C 362.7,686.7 370.2,688.7 377.0,689.0 C 383.8,689.3 391.2,688.5 399.0,687.0 C 406.8,685.5 413.5,685.0 424.0,680.0 C 434.5,675.0 452.8,663.8 462.0,657.0 C 471.2,650.2 474.8,644.5 479.0,639.0 C 483.2,633.5 485.7,626.5 487.0,624.0"/>
  <path d="M 500.0,610.0 C 503.5,608.8 512.8,603.5 521.0,603.0 C 529.2,602.5 533.0,599.2 549.0,607.0 C 565.0,614.8 600.8,640.5 617.0,650.0 C 633.2,659.5 636.8,660.7 646.0,664.0 C 655.2,667.3 666.0,666.0 672.0,670.0 C 678.0,674.0 679.2,680.8 682.0,688.0 C 684.8,695.2 687.8,706.5 689.0,713.0 C 690.2,719.5 689.8,722.8 689.0,727.0 C 688.2,731.2 686.7,734.7 684.0,738.0 C 681.3,741.3 677.7,744.3 673.0,747.0 C 668.3,749.7 668.0,751.5 656.0,754.0 C 644.0,756.5 633.3,760.3 601.0,762.0 C 568.7,763.7 498.3,764.7 462.0,764.0 C 425.7,763.3 401.3,760.7 383.0,758.0 C 364.7,755.3 359.5,752.2 352.0,748.0 C 344.5,743.8 340.5,740.0 338.0,733.0 C 335.5,726.0 336.0,714.3 337.0,706.0 C 338.0,697.7 342.2,687.5 344.0,683.0 C 345.8,678.5 347.3,679.7 348.0,679.0"/>
  <path d="M 416.0,200.0 C 474.5,199.3 620.8,199.3 671.0,202.0 C 721.2,204.7 710.0,207.8 717.0,216.0 C 724.0,224.2 720.7,231.5 713.0,251.0 C 705.3,270.5 699.8,294.3 671.0,333.0 C 642.2,371.7 560.3,453.2 540.0,483.0 C 519.7,512.8 533.5,493.5 549.0,512.0 C 564.5,530.5 611.2,569.7 633.0,594.0 C 654.8,618.3 666.5,634.5 680.0,658.0 C 693.5,681.5 709.7,717.2 714.0,735.0 C 718.3,752.8 719.3,758.0 706.0,765.0 C 692.7,772.0 680.5,774.7 634.0,777.0 C 587.5,779.3 475.5,779.7 427.0,779.0 C 378.5,778.3 362.2,776.8 343.0,773.0 C 323.8,769.2 316.3,765.8 312.0,756.0 C 307.7,746.2 310.3,732.5 317.0,714.0 C 323.7,695.5 324.2,681.5 352.0,645.0 C 379.8,608.5 463.3,524.5 484.0,495.0 C 504.7,465.5 495.0,491.3 476.0,468.0 C 457.0,444.7 398.5,394.0 370.0,355.0 C 341.5,316.0 315.8,257.2 305.0,234.0 C 294.2,210.8 302.5,220.7 305.0,216.0 C 307.5,211.3 301.5,208.7 320.0,206.0 C 338.5,203.3 357.5,200.7 416.0,200.0 Z"/>
</g>
</svg>