<svg xmlns="http://www.w3.org/2000/svg" viewBox="0 0 1024 1024" width="1024" height="1024">
  <path d="M 312.0,754.0 C 315.0,761.0 322.0,766.0 315.0,760.0" fill="none" stroke="black" stroke-width="1"/>
  <path d="M 315.0,760.0 C 314.0,758.33 313.0,756.67 312.0,755.0" fill="none" stroke="black" stroke-width="1"/>
  <path d="M 341.0,738.0 C 346.0,744.0 352.0,748.0 342.0,739.0" fill="none" stroke="black" stroke-width="1"/>
  <path d="M 686.0,734.0 C 670.0,749.0 652.0,755.0 578.0,763.0" fill="none" stroke="black" stroke-width="1"/>
  <path d="M 578.0,763.0 C 418.0,762.0 356.0,750.0 428.0,763.0" fill="none" stroke="black" stroke-width="1"/>
  <path d="M 428.0,763.0 C 585.0,763.0 658.0,754.0 686.0,735.0" fill="none" stroke="black" stroke-width="1"/>
  <path d="M 711.0,725.0 C 715.0,752.0 708.0,763.0 660.0,775.0" fill="none" stroke="black" stroke-width="1"/>
  <path d="M 660.0,775.0 C 430.0,779.0 324.0,767.0 414.0,779.0" fill="none" stroke="black" stroke-width="1"/>
  <path d="M 414.0,779.0 C 676.0,774.0 712.0,759.0 711.0,726.0" fill="none" stroke="black" stroke-width="1"/>
  <path d="M 315.0,721.0 C 315.0,724.0 313.0,726.0 314.0,728.0" fill="none" stroke="black" stroke-width="1"/>
  <path d="M 314.0,728.0 C 312.0,730.0 313.0,732.0 311.0,735.0" fill="none" stroke="black" stroke-width="1"/>
  <path d="M 311.0,735.0 C 312.0,737.0 310.0,740.0 311.0,752.0" fill="none" stroke="black" stroke-width="1"/>
  <path d="M 311.0,752.0 C 310.0,740.0 312.0,737.0 311.0,735.0" fill="none" stroke="black" stroke-width="1"/>
  <path d="M 311.0,735.0 C 313.0,732.0 312.0,730.0 314.0,728.0" fill="none" stroke="black" stroke-width="1"/>
  <path d="M 314.0,728.0 C 313.33,726.67 313.67,724.67 315.0,722.0" fill="none" stroke="black" stroke-width="1"/>
  <path d="M 707.0,714.0 C 709.0,720.0 707.0,716.0 708.0,715.0" fill="none" stroke="black" stroke-width="1"/>
  <path d="M 704.0,706.0 C 704.67,708.0 705.0,708.33 705.0,707.0" fill="none" stroke="black" stroke-width="1"/>
  <path d="M 688.0,673.0 C 694.67,686.33 695.0,686.67 689.0,674.0" fill="none" stroke="black" stroke-width="1"/>
  <path d="M 340.0,666.0 C 337.33,670.67 337.0,671.0 339.0,667.0" fill="none" stroke="black" stroke-width="1"/>
  <path d="M 365.0,664.0 C 356.0,667.0 350.0,673.0 355.0,668.0" fill="none" stroke="black" stroke-width="1"/>
  <path d="M 355.0,668.0 C 365.0,664.0 369.0,664.0 366.0,664.0" fill="none" stroke="black" stroke-width="1"/>
  <path d="M 682.0,662.0 C 684.0,665.33 684.33,665.67 683.0,663.0" fill="none" stroke="black" stroke-width="1"/>
  <path d="M 401.0,660.0 C 371.0,663.0 407.0,660.0 402.0,660.0" fill="none" stroke="black" stroke-width="1"/>
  <path d="M 344.0,659.0 C 342.0,662.33 341.67,662.67 343.0,660.0" fill="none" stroke="black" stroke-width="1"/>
  <path d="M 678.0,655.0 C 679.33,657.0 679.67,657.33 679.0,656.0" fill="none" stroke="black" stroke-width="1"/>
  <path d="M 347.0,654.0 C 345.67,656.0 345.33,656.33 346.0,655.0" fill="none" stroke="black" stroke-width="1"/>
  <path d="M 673.0,647.0 C 675.67,651.0 676.0,651.33 674.0,648.0" fill="none" stroke="black" stroke-width="1"/>
  <path d="M 352.0,646.0 C 349.33,650.0 349.0,650.33 351.0,647.0" fill="none" stroke="black" stroke-width="1"/>
  <path d="M 487.0,627.0 C 462.0,657.0 421.0,681.0 395.0,688.0" fill="none" stroke="black" stroke-width="1"/>
  <path d="M 395.0,688.0 C 375.0,689.0 356.0,684.0 348.0,677.0" fill="none" stroke="black" stroke-width="1"/>
  <path d="M 348.0,677.0 C 337.0,704.0 337.0,731.0 338.0,703.0" fill="none" stroke="black" stroke-width="1"/>
  <path d="M 338.0,703.0 C 349.0,678.0 357.0,685.0 375.0,689.0" fill="none" stroke="black" stroke-width="1"/>
  <path d="M 375.0,689.0 C 420.0,682.0 440.0,673.0 461.0,658.0" fill="none" stroke="black" stroke-width="1"/>
  <path d="M 461.0,658.0 C 470.0,647.67 479.0,637.33 488.0,627.0" fill="none" stroke="black" stroke-width="1"/>
  <path d="M 483.0,623.0 C 459.0,639.0 434.0,652.0 417.0,658.0" fill="none" stroke="black" stroke-width="1"/>
  <path d="M 417.0,658.0 C 409.0,659.0 417.0,658.0 435.0,652.0" fill="none" stroke="black" stroke-width="1"/>
  <path d="M 435.0,652.0 C 448.33,645.33 464.33,636.0 483.0,624.0" fill="none" stroke="black" stroke-width="1"/>
  <path d="M 500.0,610.0 C 487.0,623.0 488.0,624.0 487.0,623.0" fill="none" stroke="black" stroke-width="1"/>
  <path d="M 487.0,623.0 C 491.0,619.0 495.0,615.0 499.0,611.0" fill="none" stroke="black" stroke-width="1"/>
  <path d="M 523.0,603.0 C 503.0,611.0 523.0,603.0 548.0,607.0" fill="none" stroke="black" stroke-width="1"/>
  <path d="M 548.0,607.0 C 616.0,650.0 653.0,667.0 672.0,670.0" fill="none" stroke="black" stroke-width="1"/>
  <path d="M 672.0,670.0 C 687.0,704.0 688.0,731.0 688.0,706.0" fill="none" stroke="black" stroke-width="1"/>
  <path d="M 688.0,706.0 C 675.0,671.0 649.0,665.0 616.0,649.0" fill="none" stroke="black" stroke-width="1"/>
  <path d="M 616.0,649.0 C 574.67,622.33 544.0,607.0 524.0,603.0" fill="none" stroke="black" stroke-width="1"/>
  <path d="M 481.0,503.0 C 474.0,513.0 388.0,597.0 353.0,644.0" fill="none" stroke="black" stroke-width="1"/>
  <path d="M 353.0,644.0 C 395.0,590.0 473.0,515.0 480.0,504.0" fill="none" stroke="black" stroke-width="1"/>
  <path d="M 543.0,502.0 C 553.0,517.0 630.0,591.0 672.0,645.0" fill="none" stroke="black" stroke-width="1"/>
  <path d="M 672.0,645.0 C 629.0,589.0 564.0,527.0 543.0,503.0" fill="none" stroke="black" stroke-width="1"/>
  <path d="M 542.0,478.0 C 539.0,487.0 540.0,497.0 542.0,500.0" fill="none" stroke="black" stroke-width="1"/>
  <path d="M 542.0,500.0 C 540.0,493.0 540.0,485.0 542.0,480.0" fill="none" stroke="black" stroke-width="1"/>
  <path d="M 542.0,480.0 C 541.67,479.67 541.33,479.33 541.0,479.0" fill="none" stroke="black" stroke-width="1"/>
  <path d="M 481.0,476.0 C 484.0,486.0 483.0,498.0 485.0,487.0" fill="none" stroke="black" stroke-width="1"/>
  <path d="M 485.0,487.0 C 484.0,483.67 483.0,480.33 482.0,477.0" fill="none" stroke="black" stroke-width="1"/>
  <path d="M 527.0,471.0 C 522.0,481.0 521.0,500.0 532.0,553.0" fill="none" stroke="black" stroke-width="1"/>
  <path d="M 532.0,553.0 C 533.0,576.0 531.0,578.0 533.0,576.0" fill="none" stroke="black" stroke-width="1"/>
  <path d="M 533.0,576.0 C 534.0,577.0 532.0,550.0 521.0,496.0" fill="none" stroke="black" stroke-width="1"/>
  <path d="M 521.0,496.0 C 521.67,487.33 523.33,479.33 526.0,472.0" fill="none" stroke="black" stroke-width="1"/>
  <path d="M 495.0,469.0 C 500.0,480.0 502.0,489.0 501.0,491.0" fill="none" stroke="black" stroke-width="1"/>
  <path d="M 501.0,491.0 C 503.0,491.0 500.0,478.0 496.0,470.0" fill="none" stroke="black" stroke-width="1"/>
  <path d="M 519.0,417.0 C 512.0,428.0 507.0,453.0 513.0,513.0" fill="none" stroke="black" stroke-width="1"/>
  <path d="M 513.0,513.0 C 513.0,563.0 509.0,585.0 499.0,606.0" fill="none" stroke="black" stroke-width="1"/>
  <path d="M 499.0,606.0 C 508.0,590.0 513.0,566.0 514.0,529.0" fill="none" stroke="black" stroke-width="1"/>
  <path d="M 514.0,529.0 C 510.0,473.0 511.33,436.0 518.0,418.0" fill="none" stroke="black" stroke-width="1"/>
  <path d="M 522.0,413.0 C 520.67,414.33 520.33,414.67 521.0,414.0" fill="none" stroke="black" stroke-width="1"/>
  <path d="M 581.0,373.0 C 550.0,388.0 536.0,398.0 523.0,411.0" fill="none" stroke="black" stroke-width="1"/>
  <path d="M 523.0,411.0 C 536.0,398.0 546.0,391.0 582.0,373.0" fill="none" stroke="black" stroke-width="1"/>
  <path d="M 585.0,371.0 C 584.33,371.67 584.67,371.67 586.0,371.0" fill="none" stroke="black" stroke-width="1"/>
  <path d="M 628.0,370.0 C 579.0,420.0 546.0,448.0 528.0,469.0" fill="none" stroke="black" stroke-width="1"/>
  <path d="M 528.0,469.0 C 549.0,446.0 587.0,413.0 627.0,371.0" fill="none" stroke="black" stroke-width="1"/>
  <path d="M 395.0,366.0 C 420.0,395.0 465.0,436.0 492.0,464.0" fill="none" stroke="black" stroke-width="1"/>
  <path d="M 492.0,464.0 C 471.0,441.0 417.0,391.0 396.0,367.0" fill="none" stroke="black" stroke-width="1"/>
  <path d="M 389.0,358.0 C 392.33,362.0 392.67,362.33 390.0,359.0" fill="none" stroke="black" stroke-width="1"/>
  <path d="M 641.0,351.0 C 633.0,362.33 633.33,362.33 642.0,351.0" fill="none" stroke="black" stroke-width="1"/>
  <path d="M 634.0,349.0 C 628.67,352.33 628.33,352.67 633.0,350.0" fill="none" stroke="black" stroke-width="1"/>
  <path d="M 382.0,348.0 C 383.33,349.33 383.67,349.67 383.0,349.0" fill="none" stroke="black" stroke-width="1"/>
  <path d="M 638.0,346.0 C 636.67,347.33 636.33,347.67 637.0,347.0" fill="none" stroke="black" stroke-width="1"/>
  <path d="M 377.0,334.0 C 384.0,344.0 378.0,337.0 378.0,335.0" fill="none" stroke="black" stroke-width="1"/>
  <path d="M 351.0,326.0 C 399.0,392.0 478.0,471.0 468.0,458.0" fill="none" stroke="black" stroke-width="1"/>
  <path d="M 468.0,458.0 C 420.67,412.0 382.0,368.33 352.0,327.0" fill="none" stroke="black" stroke-width="1"/>
  <path d="M 376.0,323.0 C 376.0,329.0 375.67,329.33 375.0,324.0" fill="none" stroke="black" stroke-width="1"/>
  <path d="M 652.0,319.0 C 653.0,320.0 650.0,330.0 651.0,331.0" fill="none" stroke="black" stroke-width="1"/>
  <path d="M 651.0,331.0 C 641.0,346.0 652.0,329.0 653.0,320.0" fill="none" stroke="black" stroke-width="1"/>
  <path d="M 344.0,315.0 C 346.67,319.0 347.0,319.33 345.0,316.0" fill="none" stroke="black" stroke-width="1"/>
  <path d="M 684.0,311.0 C 635.0,382.0 554.0,460.0 544.0,474.0" fill="none" stroke="black" stroke-width="1"/>
  <path d="M 544.0,474.0 C 630.0,388.0 655.0,357.0 683.0,312.0" fill="none" stroke="black" stroke-width="1"/>
  <path d="M 639.0,311.0 C 595.0,323.0 536.0,356.0 556.0,364.0" fill="none" stroke="black" stroke-width="1"/>
  <path d="M 556.0,364.0 C 587.0,369.0 622.0,356.0 586.0,368.0" fill="none" stroke="black" stroke-width="1"/>
  <path d="M 586.0,368.0 C 554.0,363.0 537.0,355.0 612.0,317.0" fill="none" stroke="black" stroke-width="1"/>
  <path d="M 612.0,317.0 C 631.0,312.0 644.0,312.0 651.0,317.0" fill="none" stroke="black" stroke-width="1"/>
  <path d="M 651.0,317.0 C 647.33,315.0 643.67,313.0 640.0,311.0" fill="none" stroke="black" stroke-width="1"/>
  <path d="M 408.0,310.0 C 377.0,321.0 402.0,311.0 438.0,313.0" fill="none" stroke="black" stroke-width="1"/>
  <path d="M 438.0,313.0 C 479.0,326.0 531.0,355.0 497.0,368.0" fill="none" stroke="black" stroke-width="1"/>
  <path d="M 497.0,368.0 C 458.0,370.0 412.0,359.0 387.0,345.0" fill="none" stroke="black" stroke-width="1"/>
  <path d="M 387.0,345.0 C 413.0,360.0 455.0,370.0 484.0,370.0" fill="none" stroke="black" stroke-width="1"/>
  <path d="M 484.0,370.0 C 534.0,356.0 468.0,321.0 409.0,310.0" fill="none" stroke="black" stroke-width="1"/>
  <path d="M 339.0,307.0 C 340.33,309.0 340.67,309.33 340.0,308.0" fill="none" stroke="black" stroke-width="1"/>
  <path d="M 336.0,302.0 C 337.33,304.0 337.67,304.33 337.0,303.0" fill="none" stroke="black" stroke-width="1"/>
  <path d="M 694.0,293.0 C 692.67,295.0 692.33,295.33 693.0,294.0" fill="none" stroke="black" stroke-width="1"/>
  <path d="M 704.0,272.0 C 701.0,279.0 704.0,274.0 703.0,273.0" fill="none" stroke="black" stroke-width="1"/>
  <path d="M 318.0,268.0 C 322.67,277.33 323.0,277.67 319.0,269.0" fill="none" stroke="black" stroke-width="1"/>
  <path d="M 707.0,265.0 C 706.33,267.0 706.0,267.33 706.0,266.0" fill="none" stroke="black" stroke-width="1"/>
  <path d="M 709.0,260.0 C 708.33,262.0 708.0,262.33 708.0,261.0" fill="none" stroke="black" stroke-width="1"/>
  <path d="M 711.0,255.0 C 710.33,257.0 710.0,257.33 710.0,256.0" fill="none" stroke="black" stroke-width="1"/>
  <path d="M 413.0,200.0 C 312.0,209.0 304.0,231.0 314.0,261.0" fill="none" stroke="black" stroke-width="1"/>
  <path d="M 314.0,261.0 C 304.0,218.0 316.0,208.0 346.0,203.0" fill="none" stroke="black" stroke-width="1"/>
  <path d="M 346.0,203.0 C 689.0,204.0 718.0,217.0 712.0,253.0" fill="none" stroke="black" stroke-width="1"/>
  <path d="M 712.0,253.0 C 719.0,229.0 714.0,212.0 685.0,203.0" fill="none" stroke="black" stroke-width="1"/>
  <path d="M 685.0,203.0 C 594.67,202.0 504.33,201.0 414.0,200.0" fill="none" stroke="black" stroke-width="1"/>
</svg>