<svg xmlns="http://www.w3.org/2000/svg" viewBox="0 0 1024 1024" width="1024" height="1024">
<g fill="none" stroke="#000000" stroke-width="6.0" stroke-linecap="round" stroke-linejoin="round">
  <path d="M 312.2,210.6 C 374.6,195.0 654.9,194.9 714.6,215.3 C 774.3,235.7 699.4,287.5 670.4,333.0 C 641.3,378.5 538.6,433.5 540.3,488.0 C 542.0,542.5 653.0,614.0 680.5,660.0 C 707.9,706.0 749.7,744.5 704.8,764.2 C 659.9,783.8 476.0,779.0 411.0,778.0 C 346.0,776.9 324.6,779.6 314.6,757.8 C 304.7,736.0 323.0,691.6 351.2,647.0 C 379.4,602.4 485.4,546.3 483.6,490.0 C 481.8,433.7 368.9,355.6 340.3,309.0 C 311.8,262.4 249.8,226.2 312.2,210.6 Z"/>
  <path d="M 382.4,343.0 C 382.4,338.8 375.5,323.4 382.3,318.2 C 389.0,312.9 398.8,305.5 423.0,311.3 C 447.2,317.2 510.0,346.3 527.3,353.3"/>
  <path d="M 642.7,344.0 C 644.0,340.0 652.4,325.4 650.6,320.2 C 648.9,314.9 650.3,306.8 632.0,312.4 C 613.7,317.9 555.9,346.5 540.7,353.4"/>
  <path d="M 387.0,345.8 C 397.9,349.6 428.6,366.9 452.0,368.7 C 475.4,370.5 514.8,358.6 527.3,356.5"/>
  <path d="M 384.6,348.0 C 401.7,366.5 467.9,435.8 487.3,459.0 C 506.8,482.2 499.0,482.3 501.3,487.0"/>
  <path d="M 638.0,347.6 C 633.1,349.9 617.2,357.9 609.0,361.0 C 600.8,364.2 592.4,365.8 589.0,366.8"/>
  <path d="M 640.4,350.0 C 621.3,370.7 545.4,449.7 525.5,474.0 C 505.7,498.3 520.3,479.3 521.5,496.0 C 522.6,512.7 530.8,561.0 532.6,574.0"/>
  <path d="M 541.0,357.4 C 544.7,358.5 555.8,362.9 563.0,364.5 C 570.2,366.0 580.5,366.2 584.0,366.5"/>
  <path d="M 584.3,369.7 C 576.1,374.8 547.1,389.8 535.0,400.0 C 522.9,410.2 515.4,404.5 511.7,431.0 C 508.0,457.5 514.6,529.8 512.7,559.0 C 510.9,588.2 502.6,598.1 500.6,606.0"/>
  <path d="M 503.0,608.6 C 531.1,619.1 641.4,650.3 671.4,671.7 C 701.5,693.1 730.8,722.4 683.4,736.8 C 636.0,751.2 444.3,758.5 387.0,758.0 C 329.7,757.6 346.3,746.9 339.6,734.0 C 332.8,721.1 345.4,689.5 346.6,680.7"/>
  <path d="M 483.0,624.7 C 474.0,629.5 448.8,646.4 429.0,653.1 C 409.2,659.8 377.2,661.1 364.0,664.9 C 350.8,668.7 352.2,674.2 349.8,676.0"/>
  <path d="M 485.4,627.0 C 475.1,635.7 446.4,670.4 424.0,679.2 C 401.6,688.1 363.2,680.1 351.0,680.2"/>
</g>
</svg>