<svg xmlns="http://www.w3.org/2000/svg" viewBox="0 0 1024 1024" width="1024" height="1024">
  <path d="M 413.0,196.0 C 369.67,211.83 314.67,260.67 291.0,288.0 C 267.33,315.33 271.33,335.17 271.0,360.0 C 270.67,384.83 293.0,421.0 289.0,437.0 C 285.0,453.0 251.33,449.33 247.0,456.0 C 242.67,462.67 233.0,466.83 263.0,477.0 C 293.0,487.17 395.0,503.83 427.0,517.0 C 459.0,530.17 451.83,541.0 455.0,556.0 C 458.17,571.0 444.33,604.5 446.0,607.0 C 447.67,609.5 446.0,581.33 465.0,571.0 C 484.0,560.67 544.83,552.67 560.0,545.0 C 575.17,537.33 568.83,525.5 556.0,525.0 C 543.17,524.5 487.17,546.0 483.0,542.0 C 478.83,538.0 508.0,506.0 531.0,501.0 C 554.0,496.0 605.83,521.5 621.0,512.0 C 636.17,502.5 628.67,460.33 622.0,444.0 C 615.33,427.67 598.0,417.67 581.0,414.0 C 564.0,410.33 532.83,415.17 520.0,422.0 C 507.17,428.83 501.5,443.17 504.0,455.0 C 506.5,466.83 542.33,475.5 535.0,493.0 C 527.67,510.5 468.5,570.5 460.0,560.0 C 451.5,549.5 451.0,462.17 484.0,430.0 C 517.0,397.83 645.0,375.83 658.0,367.0 C 671.0,358.17 565.83,385.83 562.0,377.0 C 558.17,368.17 625.5,333.33 635.0,314.0 C 644.5,294.67 629.0,266.33 619.0,261.0 C 609.0,255.67 586.17,261.83 575.0,282.0 C 563.83,302.17 569.17,356.5 552.0,382.0 C 534.83,407.5 487.17,436.83 472.0,435.0 C 456.83,433.17 451.33,380.83 461.0,371.0 C 470.67,361.17 520.67,383.0 530.0,376.0 C 539.33,369.0 515.0,346.0 517.0,329.0 C 519.0,312.0 546.33,284.67 542.0,274.0 C 537.67,263.33 505.0,273.67 491.0,265.0 C 477.0,256.33 470.17,223.33 458.0,222.0 C 445.83,220.67 434.67,250.33 418.0,257.0 C 401.33,263.67 370.67,243.17 358.0,262.0 C 345.33,280.83 336.0,349.83 342.0,370.0 C 348.0,390.17 381.0,374.0 394.0,383.0 C 407.0,392.0 408.5,420.0 420.0,424.0 C 431.5,428.0 461.0,392.0 463.0,407.0 C 465.0,422.0 458.67,522.5 432.0,514.0 C 405.33,505.5 322.17,369.0 303.0,356.0 C 283.83,343.0 320.17,425.83 317.0,436.0 C 313.83,446.17 290.17,433.83 284.0,417.0 C 277.83,400.17 273.67,362.0 280.0,335.0 C 286.33,308.0 303.0,276.17 322.0,255.0 C 341.0,233.83 363.5,218.33 394.0,208.0 C 424.5,197.67 471.0,192.17 505.0,193.0 C 539.0,193.83 570.17,200.83 598.0,213.0 C 625.83,225.17 644.83,220.83 672.0,266.0 C 699.17,311.17 755.83,435.5 761.0,484.0 C 766.17,532.5 709.0,543.0 703.0,557.0 C 697.0,571.0 723.5,554.83 725.0,568.0 C 726.5,581.17 734.67,621.17 712.0,636.0 C 689.33,650.83 612.17,637.17 589.0,657.0 C 565.83,676.83 571.83,754.67 573.0,755.0 C 574.17,755.33 572.0,678.33 596.0,659.0 C 620.0,639.67 694.83,662.67 717.0,639.0 C 739.17,615.33 720.83,543.5 729.0,517.0 C 737.17,490.5 767.33,497.0 766.0,480.0 C 764.67,463.0 731.17,443.83 721.0,415.0 C 710.83,386.17 716.67,336.67 705.0,307.0 C 693.33,277.33 676.67,256.0 651.0,237.0 C 625.33,218.0 590.67,199.83 551.0,193.0 C 511.33,186.17 456.33,180.17 413.0,196.0 Z" fill="#000000" fill-rule="evenodd" stroke="none"/>
  <path d="M 357.0,505.0 C 345.33,505.0 326.67,509.17 320.0,511.0 C 313.33,512.83 314.33,511.67 317.0,516.0 C 319.67,520.33 328.17,530.83 336.0,537.0 C 343.83,543.17 353.67,549.17 364.0,553.0 C 374.33,556.83 387.67,559.5 398.0,560.0 C 408.33,560.5 420.5,555.5 426.0,556.0 C 431.5,556.5 429.67,558.5 431.0,563.0 C 432.33,567.5 434.0,574.5 434.0,583.0 C 434.0,591.5 434.0,601.17 431.0,614.0 C 428.0,626.83 422.17,645.33 416.0,660.0 C 409.83,674.67 403.83,686.83 394.0,702.0 C 384.17,717.17 362.5,742.67 357.0,751.0 C 351.5,759.33 355.83,757.0 361.0,752.0 C 366.17,747.0 378.67,734.33 388.0,721.0 C 397.33,707.67 409.0,689.33 417.0,672.0 C 425.0,654.67 432.33,632.67 436.0,617.0 C 439.67,601.33 439.67,589.0 439.0,578.0 C 438.33,567.0 436.33,559.83 432.0,551.0 C 427.67,542.17 420.0,531.67 413.0,525.0 C 406.0,518.33 399.33,514.33 390.0,511.0 C 380.67,507.67 368.67,505.0 357.0,505.0 Z" fill="#000000" fill-rule="evenodd" stroke="none"/>
  <path d="M 372.0,255.0 C 375.5,252.67 380.17,250.83 384.0,250.0 C 387.83,249.17 391.17,249.17 395.0,250.0 C 398.83,250.83 403.33,252.67 407.0,255.0 C 410.67,257.33 415.0,262.0 417.0,264.0 C 419.0,266.0 418.5,264.0 419.0,267.0 C 419.5,270.0 419.33,277.5 420.0,282.0 C 420.67,286.5 422.0,290.67 423.0,294.0 C 424.0,297.33 424.67,299.17 426.0,302.0 C 427.33,304.83 431.33,308.17 431.0,311.0 C 430.67,313.83 428.17,318.67 424.0,319.0 C 419.83,319.33 410.5,314.17 406.0,313.0 C 401.5,311.83 401.83,312.0 397.0,312.0 C 392.17,312.0 382.0,314.17 377.0,313.0 C 372.0,311.83 369.33,307.17 367.0,305.0 C 364.67,302.83 364.33,302.33 363.0,300.0 C 361.67,297.67 359.83,295.0 359.0,291.0 C 358.17,287.0 357.33,280.5 358.0,276.0 C 358.67,271.5 360.67,267.5 363.0,264.0 C 365.33,260.5 368.5,257.33 372.0,255.0 Z" fill="#ffffff" fill-rule="evenodd" stroke="none"/>
  <path d="M 372.0,319.0 C 375.0,318.17 373.5,317.5 377.0,319.0 C 380.5,320.5 388.5,325.83 393.0,328.0 C 397.5,330.17 400.17,330.83 404.0,332.0 C 407.83,333.17 413.0,334.5 416.0,335.0 C 419.0,335.5 420.5,334.5 422.0,335.0 C 423.5,335.5 425.5,336.67 425.0,338.0 C 424.5,339.33 421.5,340.33 419.0,343.0 C 416.5,345.67 412.33,350.83 410.0,354.0 C 407.67,357.17 406.67,358.83 405.0,362.0 C 403.33,365.17 401.5,370.5 400.0,373.0 C 398.5,375.5 398.67,375.67 396.0,377.0 C 393.33,378.33 388.33,380.33 384.0,381.0 C 379.67,381.67 373.67,381.33 370.0,381.0 C 366.33,380.67 364.33,379.83 362.0,379.0 C 359.67,378.17 358.5,377.83 356.0,376.0 C 353.5,374.17 349.33,371.17 347.0,368.0 C 344.67,364.83 342.83,360.67 342.0,357.0 C 341.17,353.33 341.67,348.83 342.0,346.0 C 342.33,343.17 342.83,342.33 344.0,340.0 C 345.17,337.67 346.5,334.67 349.0,332.0 C 351.5,329.33 355.17,326.17 359.0,324.0 C 362.83,321.83 369.0,319.83 372.0,319.0 Z" fill="#ffffff" fill-rule="evenodd" stroke="none"/>
  <path d="M 304.0,362.0 C 308.17,363.83 319.17,370.33 326.0,376.0 C 332.83,381.67 340.33,390.33 345.0,396.0 C 349.67,401.67 350.5,403.5 354.0,410.0 C 357.5,416.5 363.17,428.33 366.0,435.0 C 368.83,441.67 370.83,447.0 371.0,450.0 C 371.17,453.0 368.0,452.83 367.0,453.0 C 366.0,453.17 367.17,452.17 365.0,451.0 C 362.83,449.83 358.17,447.5 354.0,446.0 C 349.83,444.5 344.17,442.83 340.0,442.0 C 335.83,441.17 333.0,443.67 329.0,441.0 C 325.0,438.33 320.0,431.83 316.0,426.0 C 312.0,420.17 307.67,412.67 305.0,406.0 C 302.33,399.33 300.83,392.0 300.0,386.0 C 299.17,380.0 299.83,373.5 300.0,370.0 C 300.17,366.5 300.33,366.33 301.0,365.0 C 301.67,363.67 299.83,360.17 304.0,362.0 Z" fill="#ffffff" fill-rule="evenodd" stroke="none"/>
  <path d="M 538.0,278.0 C 539.67,280.67 540.5,283.17 541.0,286.0 C 541.5,288.83 541.33,292.5 541.0,295.0 C 540.67,297.5 540.0,298.83 539.0,301.0 C 538.0,303.17 537.17,305.33 535.0,308.0 C 532.83,310.67 528.83,314.67 526.0,317.0 C 523.17,319.33 520.17,320.83 518.0,322.0 C 515.83,323.17 514.67,323.67 513.0,324.0 C 511.33,324.33 509.83,324.5 508.0,324.0 C 506.17,323.5 505.0,322.0 502.0,321.0 C 499.0,320.0 494.67,318.5 490.0,318.0 C 485.33,317.5 477.5,317.67 474.0,318.0 C 470.5,318.33 470.5,319.67 469.0,320.0 C 467.5,320.33 466.17,320.5 465.0,320.0 C 463.83,319.5 459.83,320.83 462.0,317.0 C 464.17,313.17 474.67,301.5 478.0,297.0 C 481.33,292.5 481.33,291.5 482.0,290.0 C 482.67,288.5 481.67,288.67 482.0,288.0 C 482.33,287.33 483.17,288.33 484.0,286.0 C 484.83,283.67 485.83,276.67 487.0,274.0 C 488.17,271.33 488.33,271.5 491.0,270.0 C 493.67,268.5 498.83,266.0 503.0,265.0 C 507.17,264.0 511.83,263.5 516.0,264.0 C 520.17,264.5 525.5,267.0 528.0,268.0 C 530.5,269.0 529.33,268.33 531.0,270.0 C 532.67,271.67 536.33,275.33 538.0,278.0 Z" fill="#ffffff" fill-rule="evenodd" stroke="none"/>
  <path d="M 458.0,227.0 C 459.67,227.0 458.17,227.83 459.0,228.0 C 459.83,228.17 460.83,227.17 463.0,228.0 C 465.17,228.83 469.33,230.83 472.0,233.0 C 474.67,235.17 477.33,238.67 479.0,241.0 C 480.67,243.33 481.17,244.83 482.0,247.0 C 482.83,249.17 483.67,250.67 484.0,254.0 C 484.33,257.33 487.67,261.33 484.0,267.0 C 480.33,272.67 467.33,282.0 462.0,288.0 C 456.67,294.0 454.33,299.83 452.0,303.0 C 449.67,306.17 449.17,306.83 448.0,307.0 C 446.83,307.17 446.0,306.17 445.0,304.0 C 444.0,301.83 443.5,297.67 442.0,294.0 C 440.5,290.33 437.83,285.33 436.0,282.0 C 434.17,278.67 432.83,276.5 431.0,274.0 C 429.17,271.5 426.0,269.5 425.0,267.0 C 424.0,264.5 424.5,262.17 425.0,259.0 C 425.5,255.83 427.0,250.83 428.0,248.0 C 429.0,245.17 428.83,244.67 431.0,242.0 C 433.17,239.33 438.0,234.33 441.0,232.0 C 444.0,229.67 446.17,228.83 449.0,228.0 C 451.83,227.17 456.33,227.0 458.0,227.0 Z" fill="#ffffff" fill-rule="evenodd" stroke="none"/>
  <path d="M 530.0,364.0 C 529.33,367.17 528.17,369.33 526.0,372.0 C 523.83,374.67 519.33,378.33 517.0,380.0 C 514.67,381.67 513.67,381.67 512.0,382.0 C 510.33,382.33 508.0,381.83 507.0,382.0 C 506.0,382.17 508.0,383.0 506.0,383.0 C 504.0,383.0 498.83,383.0 495.0,382.0 C 491.17,381.0 486.5,378.83 483.0,377.0 C 479.5,375.17 477.33,373.83 474.0,371.0 C 470.67,368.17 466.33,364.0 463.0,360.0 C 459.67,356.0 455.5,349.5 454.0,347.0 C 452.5,344.5 453.33,345.83 454.0,345.0 C 454.67,344.17 456.33,343.67 458.0,342.0 C 459.67,340.33 458.83,336.0 464.0,335.0 C 469.17,334.0 483.0,336.17 489.0,336.0 C 495.0,335.83 497.0,334.83 500.0,334.0 C 503.0,333.17 505.33,331.5 507.0,331.0 C 508.67,330.5 507.83,329.83 510.0,331.0 C 512.17,332.17 517.0,335.17 520.0,338.0 C 523.0,340.83 526.33,345.5 528.0,348.0 C 529.67,350.5 529.67,350.33 530.0,353.0 C 530.33,355.67 530.67,360.83 530.0,364.0 Z" fill="#ffffff" fill-rule="evenodd" stroke="none"/>
  <path d="M 446.0,346.0 C 447.17,346.67 449.0,348.67 450.0,350.0 C 451.0,351.33 450.83,350.33 452.0,354.0 C 453.17,357.67 456.0,366.67 457.0,372.0 C 458.0,377.33 458.33,381.5 458.0,386.0 C 457.67,390.5 456.33,395.33 455.0,399.0 C 453.67,402.67 452.5,405.0 450.0,408.0 C 447.5,411.0 442.5,415.17 440.0,417.0 C 437.5,418.83 437.0,418.5 435.0,419.0 C 433.0,419.5 430.67,420.17 428.0,420.0 C 425.33,419.83 421.5,418.83 419.0,418.0 C 416.5,417.17 415.0,416.5 413.0,415.0 C 411.0,413.5 408.5,410.83 407.0,409.0 C 405.5,407.17 404.83,406.0 404.0,404.0 C 403.17,402.0 402.33,400.5 402.0,397.0 C 401.67,393.5 401.33,386.17 402.0,383.0 C 402.67,379.83 404.17,379.33 406.0,378.0 C 407.83,376.67 410.0,376.83 413.0,375.0 C 416.0,373.17 420.17,370.33 424.0,367.0 C 427.83,363.67 433.67,357.67 436.0,355.0 C 438.33,352.33 436.83,352.5 438.0,351.0 C 439.17,349.5 441.67,346.83 443.0,346.0 C 444.33,345.17 444.83,345.33 446.0,346.0 Z" fill="#ffffff" fill-rule="evenodd" stroke="none"/>
  <path d="M 324.0,517.0 C 322.83,514.67 323.5,515.0 327.0,514.0 C 330.5,513.0 339.33,511.67 345.0,511.0 C 350.67,510.33 355.17,509.67 361.0,510.0 C 366.83,510.33 374.17,511.33 380.0,513.0 C 385.83,514.67 391.33,517.5 396.0,520.0 C 400.67,522.5 404.33,525.0 408.0,528.0 C 411.67,531.0 415.17,534.5 418.0,538.0 C 420.83,541.5 424.67,546.5 425.0,549.0 C 425.33,551.5 423.5,552.0 420.0,553.0 C 416.5,554.0 410.83,555.17 404.0,555.0 C 397.17,554.83 385.67,553.33 379.0,552.0 C 372.33,550.67 369.67,549.5 364.0,547.0 C 358.33,544.5 350.0,540.17 345.0,537.0 C 340.0,533.83 337.5,531.33 334.0,528.0 C 330.5,524.67 325.17,519.33 324.0,517.0 Z" fill="#ffffff" fill-rule="evenodd" stroke="none"/>
  <path d="M 254.0,459.0 C 252.67,455.83 256.67,455.5 259.0,454.0 C 261.33,452.5 263.17,451.5 268.0,450.0 C 272.83,448.5 283.67,445.83 288.0,445.0 C 292.33,444.17 289.67,441.5 294.0,445.0 C 298.33,448.5 309.67,461.67 314.0,466.0 C 318.33,470.33 316.83,468.67 320.0,471.0 C 323.17,473.33 329.0,477.67 333.0,480.0 C 337.0,482.33 341.67,483.67 344.0,485.0 C 346.33,486.33 347.0,487.0 347.0,488.0 C 347.0,489.0 346.0,490.33 344.0,491.0 C 342.0,491.67 339.33,491.83 335.0,492.0 C 330.67,492.17 323.83,492.5 318.0,492.0 C 312.17,491.5 305.0,490.17 300.0,489.0 C 295.0,487.83 292.83,487.17 288.0,485.0 C 283.17,482.83 274.5,478.0 271.0,476.0 C 267.5,474.0 269.83,475.83 267.0,473.0 C 264.17,470.17 255.33,462.17 254.0,459.0 Z" fill="#ffffff" fill-rule="evenodd" stroke="none"/>
  <path d="M 561.0,534.0 C 560.33,536.17 556.5,541.0 554.0,544.0 C 551.5,547.0 549.0,549.5 546.0,552.0 C 543.0,554.5 540.17,556.67 536.0,559.0 C 531.83,561.33 526.67,564.17 521.0,566.0 C 515.33,567.83 509.0,569.33 502.0,570.0 C 495.0,570.67 483.67,570.17 479.0,570.0 C 474.33,569.83 475.33,569.67 474.0,569.0 C 472.67,568.33 471.5,566.83 471.0,566.0 C 470.5,565.17 468.17,566.83 471.0,564.0 C 473.83,561.17 482.67,553.17 488.0,549.0 C 493.33,544.83 499.0,541.33 503.0,539.0 C 507.0,536.67 509.0,536.17 512.0,535.0 C 515.0,533.83 517.67,532.83 521.0,532.0 C 524.33,531.17 526.5,530.33 532.0,530.0 C 537.5,529.67 549.67,529.83 554.0,530.0 C 558.33,530.17 556.83,530.33 558.0,531.0 C 559.17,531.67 561.67,531.83 561.0,534.0 Z" fill="#ffffff" fill-rule="evenodd" stroke="none"/>
  <path d="M 654.0,363.0 C 653.5,365.0 650.67,368.17 648.0,371.0 C 645.33,373.83 640.67,377.83 638.0,380.0 C 635.33,382.17 635.5,382.17 632.0,384.0 C 628.5,385.83 623.83,389.0 617.0,391.0 C 610.17,393.0 601.17,395.17 591.0,396.0 C 580.83,396.83 562.33,396.5 556.0,396.0 C 549.67,395.5 553.0,394.0 553.0,393.0 C 553.0,392.0 553.17,391.67 556.0,390.0 C 558.83,388.33 564.67,386.0 570.0,383.0 C 575.33,380.0 582.0,375.0 588.0,372.0 C 594.0,369.0 601.17,366.67 606.0,365.0 C 610.83,363.33 612.0,363.0 617.0,362.0 C 622.0,361.0 630.33,359.5 636.0,359.0 C 641.67,358.5 648.0,358.33 651.0,359.0 C 654.0,359.67 654.5,361.0 654.0,363.0 Z" fill="#ffffff" fill-rule="evenodd" stroke="none"/>
  <path d="M 303.0,447.0 C 301.67,444.5 302.5,444.33 306.0,444.0 C 309.5,443.67 317.5,441.67 324.0,445.0 C 330.5,448.33 339.67,459.67 345.0,464.0 C 350.33,468.33 350.83,468.5 356.0,471.0 C 361.17,473.5 371.5,477.83 376.0,479.0 C 380.5,480.17 382.0,479.0 383.0,478.0 C 384.0,477.0 381.67,474.33 382.0,473.0 C 382.33,471.67 383.33,469.67 385.0,470.0 C 386.67,470.33 388.17,471.5 392.0,475.0 C 395.83,478.5 404.17,486.83 408.0,491.0 C 411.83,495.17 414.5,498.0 415.0,500.0 C 415.5,502.0 414.67,503.83 411.0,503.0 C 407.33,502.17 400.17,497.33 393.0,495.0 C 385.83,492.67 375.33,491.17 368.0,489.0 C 360.67,486.83 356.17,485.5 349.0,482.0 C 341.83,478.5 330.83,471.83 325.0,468.0 C 319.17,464.17 317.67,462.5 314.0,459.0 C 310.33,455.5 304.33,449.5 303.0,447.0 Z" fill="#ffffff" fill-rule="evenodd" stroke="none"/>
  <path d="M 521.0,427.0 C 523.0,426.83 528.83,426.83 531.0,427.0 C 533.17,427.17 532.0,426.5 534.0,428.0 C 536.0,429.5 541.5,434.17 543.0,436.0 C 544.5,437.83 543.5,437.5 543.0,439.0 C 542.5,440.5 540.83,442.33 540.0,445.0 C 539.17,447.67 538.33,449.5 538.0,455.0 C 537.67,460.5 537.67,473.17 538.0,478.0 C 538.33,482.83 540.17,482.5 540.0,484.0 C 539.83,485.5 539.0,487.33 537.0,487.0 C 535.0,486.67 531.5,484.83 528.0,482.0 C 524.5,479.17 518.83,473.5 516.0,470.0 C 513.17,466.5 512.17,463.5 511.0,461.0 C 509.83,458.5 509.33,458.17 509.0,455.0 C 508.67,451.83 508.5,445.33 509.0,442.0 C 509.5,438.67 510.33,437.33 512.0,435.0 C 513.67,432.67 517.5,429.33 519.0,428.0 C 520.5,426.67 519.0,427.17 521.0,427.0 Z" fill="#ffffff" fill-rule="evenodd" stroke="none"/>
  <path d="M 462.0,455.0 C 463.67,454.0 464.67,452.33 465.0,458.0 C 465.33,463.67 465.0,475.67 464.0,489.0 C 463.0,502.33 460.33,529.33 459.0,538.0 C 457.67,546.67 457.0,541.0 456.0,541.0 C 455.0,541.0 454.33,540.0 453.0,538.0 C 451.67,536.0 450.17,532.0 448.0,529.0 C 445.83,526.0 441.33,523.5 440.0,520.0 C 438.67,516.5 439.83,511.5 440.0,508.0 C 440.17,504.5 440.33,502.5 441.0,499.0 C 441.67,495.5 443.0,490.33 444.0,487.0 C 445.0,483.67 445.17,482.83 447.0,479.0 C 448.83,475.17 452.5,468.0 455.0,464.0 C 457.5,460.0 460.33,456.0 462.0,455.0 Z" fill="#ffffff" fill-rule="evenodd" stroke="none"/>
  <path d="M 623.0,453.0 C 624.0,454.33 624.67,455.5 625.0,457.0 C 625.33,458.5 625.17,460.5 625.0,462.0 C 624.83,463.5 625.0,463.83 624.0,466.0 C 623.0,468.17 621.17,472.33 619.0,475.0 C 616.83,477.67 613.0,480.5 611.0,482.0 C 609.0,483.5 608.67,484.0 607.0,484.0 C 605.33,484.0 603.5,482.5 601.0,482.0 C 598.5,481.5 596.0,481.0 592.0,481.0 C 588.0,481.0 580.0,482.33 577.0,482.0 C 574.0,481.67 573.0,481.0 574.0,479.0 C 575.0,477.0 581.0,472.17 583.0,470.0 C 585.0,467.83 584.67,468.33 586.0,466.0 C 587.33,463.67 590.17,458.17 591.0,456.0 C 591.83,453.83 590.83,453.83 591.0,453.0 C 591.17,452.17 591.17,452.0 592.0,451.0 C 592.83,450.0 594.67,447.83 596.0,447.0 C 597.33,446.17 597.33,446.17 600.0,446.0 C 602.67,445.83 608.83,445.5 612.0,446.0 C 615.17,446.5 617.17,447.83 619.0,449.0 C 620.83,450.17 622.0,451.67 623.0,453.0 Z" fill="#ffffff" fill-rule="evenodd" stroke="none"/>
  <path d="M 582.0,420.0 C 583.83,421.33 586.67,424.17 588.0,426.0 C 589.33,427.83 589.67,428.17 590.0,431.0 C 590.33,433.83 590.67,440.33 590.0,443.0 C 589.33,445.67 587.83,445.83 586.0,447.0 C 584.17,448.17 581.17,448.83 579.0,450.0 C 576.83,451.17 576.5,451.17 573.0,454.0 C 569.5,456.83 561.0,465.33 558.0,467.0 C 555.0,468.67 555.5,466.0 555.0,464.0 C 554.5,462.0 555.17,457.5 555.0,455.0 C 554.83,452.5 554.67,451.5 554.0,449.0 C 553.33,446.5 551.83,441.83 551.0,440.0 C 550.17,438.17 549.33,438.67 549.0,438.0 C 548.67,437.33 548.5,437.17 549.0,436.0 C 549.5,434.83 550.33,433.0 552.0,431.0 C 553.67,429.0 557.33,425.5 559.0,424.0 C 560.67,422.5 560.0,423.0 562.0,422.0 C 564.0,421.0 568.5,418.67 571.0,418.0 C 573.5,417.33 575.17,417.67 577.0,418.0 C 578.83,418.33 580.17,418.67 582.0,420.0 Z" fill="#ffffff" fill-rule="evenodd" stroke="none"/>
  <path d="M 632.0,285.0 C 633.33,285.5 634.5,285.83 635.0,288.0 C 635.5,290.17 635.5,294.67 635.0,298.0 C 634.5,301.33 633.17,305.0 632.0,308.0 C 630.83,311.0 629.5,313.5 628.0,316.0 C 626.5,318.5 625.17,320.5 623.0,323.0 C 620.83,325.5 617.17,329.17 615.0,331.0 C 612.83,332.83 611.83,333.17 610.0,334.0 C 608.17,334.83 605.67,335.67 604.0,336.0 C 602.33,336.33 601.17,336.5 600.0,336.0 C 598.83,335.5 596.67,334.67 597.0,333.0 C 597.33,331.33 600.67,328.5 602.0,326.0 C 603.33,323.5 604.17,321.17 605.0,318.0 C 605.83,314.83 606.67,310.33 607.0,307.0 C 607.33,303.67 606.33,300.17 607.0,298.0 C 607.67,295.83 608.83,295.67 611.0,294.0 C 613.17,292.33 617.33,289.5 620.0,288.0 C 622.67,286.5 625.0,285.5 627.0,285.0 C 629.0,284.5 630.67,284.5 632.0,285.0 Z" fill="#ffffff" fill-rule="evenodd" stroke="none"/>
  <path d="M 596.0,269.0 C 597.33,269.5 599.0,271.67 600.0,274.0 C 601.0,276.33 601.5,279.83 602.0,283.0 C 602.5,286.17 603.0,291.0 603.0,293.0 C 603.0,295.0 603.67,293.17 602.0,295.0 C 600.33,296.83 595.67,300.67 593.0,304.0 C 590.33,307.33 587.67,311.83 586.0,315.0 C 584.33,318.17 584.17,321.0 583.0,323.0 C 581.83,325.0 580.33,327.0 579.0,327.0 C 577.67,327.0 576.17,325.17 575.0,323.0 C 573.83,320.83 572.33,317.83 572.0,314.0 C 571.67,310.17 572.17,304.17 573.0,300.0 C 573.83,295.83 575.5,292.17 577.0,289.0 C 578.5,285.83 579.5,284.0 582.0,281.0 C 584.5,278.0 589.67,273.0 592.0,271.0 C 594.33,269.0 594.67,268.5 596.0,269.0 Z" fill="#ffffff" fill-rule="evenodd" stroke="none"/>
  <path d="M 619.0,499.0 C 619.17,500.33 619.17,503.67 619.0,505.0 C 618.83,506.33 619.0,505.83 618.0,507.0 C 617.0,508.17 614.83,510.67 613.0,512.0 C 611.17,513.33 608.67,514.33 607.0,515.0 C 605.33,515.67 606.17,515.83 603.0,516.0 C 599.83,516.17 592.17,516.33 588.0,516.0 C 583.83,515.67 582.0,515.33 578.0,514.0 C 574.0,512.67 567.33,509.83 564.0,508.0 C 560.67,506.17 558.5,504.33 558.0,503.0 C 557.5,501.67 557.83,500.5 561.0,500.0 C 564.17,499.5 571.83,500.5 577.0,500.0 C 582.17,499.5 587.67,498.17 592.0,497.0 C 596.33,495.83 600.5,494.17 603.0,493.0 C 605.5,491.83 605.83,490.5 607.0,490.0 C 608.17,489.5 609.17,489.83 610.0,490.0 C 610.83,490.17 610.67,489.83 612.0,491.0 C 613.33,492.17 616.83,495.67 618.0,497.0 C 619.17,498.33 618.83,497.67 619.0,499.0 Z" fill="#ffffff" fill-rule="evenodd" stroke="none"/>
  <path d="M 441.0,312.0 C 442.83,311.67 445.17,311.67 447.0,312.0 C 448.83,312.33 450.33,312.83 452.0,314.0 C 453.67,315.17 455.83,317.5 457.0,319.0 C 458.17,320.5 458.67,321.17 459.0,323.0 C 459.33,324.83 459.17,328.33 459.0,330.0 C 458.83,331.67 459.17,331.5 458.0,333.0 C 456.83,334.5 453.67,337.67 452.0,339.0 C 450.33,340.33 449.67,340.67 448.0,341.0 C 446.33,341.33 443.83,341.33 442.0,341.0 C 440.17,340.67 439.0,340.5 437.0,339.0 C 435.0,337.5 431.33,333.83 430.0,332.0 C 428.67,330.17 429.17,329.33 429.0,328.0 C 428.83,326.67 428.5,325.67 429.0,324.0 C 429.5,322.33 430.83,319.67 432.0,318.0 C 433.17,316.33 434.5,315.0 436.0,314.0 C 437.5,313.0 439.17,312.33 441.0,312.0 Z" fill="#ffffff" fill-rule="evenodd" stroke="none"/>
  <path d="M 338.0,451.0 C 336.0,448.5 340.17,448.5 341.0,448.0 C 341.83,447.5 339.83,447.0 343.0,448.0 C 346.17,449.0 355.17,451.83 360.0,454.0 C 364.83,456.17 369.5,459.33 372.0,461.0 C 374.5,462.67 374.33,462.5 375.0,464.0 C 375.67,465.5 376.5,468.5 376.0,470.0 C 375.5,471.5 375.83,474.17 372.0,473.0 C 368.17,471.83 358.67,466.67 353.0,463.0 C 347.33,459.33 340.0,453.5 338.0,451.0 Z" fill="#ffffff" fill-rule="evenodd" stroke="none"/>
  <path d="M 582.0,454.0 C 583.33,454.0 585.33,455.0 585.0,457.0 C 584.67,459.0 583.17,462.17 580.0,466.0 C 576.83,469.83 569.83,476.83 566.0,480.0 C 562.17,483.17 559.17,484.0 557.0,485.0 C 554.83,486.0 554.17,486.33 553.0,486.0 C 551.83,485.67 549.5,484.5 550.0,483.0 C 550.5,481.5 555.0,478.17 556.0,477.0 C 557.0,475.83 554.33,477.83 556.0,476.0 C 557.67,474.17 562.5,469.17 566.0,466.0 C 569.5,462.83 574.33,459.0 577.0,457.0 C 579.67,455.0 580.67,454.0 582.0,454.0 Z" fill="#ffffff" fill-rule="evenodd" stroke="none"/>
  <path d="M 433.0,342.0 C 433.67,342.5 435.5,344.17 436.0,345.0 C 436.5,345.83 436.33,346.17 436.0,347.0 C 435.67,347.83 437.0,346.83 434.0,350.0 C 431.0,353.17 422.0,362.5 418.0,366.0 C 414.0,369.5 411.83,370.67 410.0,371.0 C 408.17,371.33 406.33,370.33 407.0,368.0 C 407.67,365.67 410.17,361.67 414.0,357.0 C 417.83,352.33 427.0,342.5 430.0,340.0 C 433.0,337.5 431.5,341.67 432.0,342.0 C 432.5,342.33 432.33,341.5 433.0,342.0 Z" fill="#ffffff" fill-rule="evenodd" stroke="none"/>
  <path d="M 618.0,266.0 C 619.5,266.67 621.17,269.0 622.0,270.0 C 622.83,271.0 622.83,270.33 623.0,272.0 C 623.17,273.67 623.5,278.17 623.0,280.0 C 622.5,281.83 621.0,282.33 620.0,283.0 C 619.0,283.67 618.67,283.0 617.0,284.0 C 615.33,285.0 611.67,288.67 610.0,289.0 C 608.33,289.33 607.67,287.17 607.0,286.0 C 606.33,284.83 606.17,283.5 606.0,282.0 C 605.83,280.5 606.17,278.0 606.0,277.0 C 605.83,276.0 605.17,276.83 605.0,276.0 C 604.83,275.17 604.5,273.17 605.0,272.0 C 605.5,270.83 606.67,270.0 608.0,269.0 C 609.33,268.0 611.33,266.5 613.0,266.0 C 614.67,265.5 616.5,265.33 618.0,266.0 Z" fill="#ffffff" fill-rule="evenodd" stroke="none"/>
  <path d="M 595.0,489.0 C 595.0,490.0 594.67,491.0 592.0,492.0 C 589.33,493.0 584.67,494.5 579.0,495.0 C 573.33,495.5 562.0,495.5 558.0,495.0 C 554.0,494.5 555.0,493.0 555.0,492.0 C 555.0,491.0 556.0,489.83 558.0,489.0 C 560.0,488.17 563.67,487.5 567.0,487.0 C 570.33,486.5 573.83,486.17 578.0,486.0 C 582.17,485.83 589.17,485.5 592.0,486.0 C 594.83,486.5 595.0,488.0 595.0,489.0 Z" fill="#ffffff" fill-rule="evenodd" stroke="none"/>
  <path d="M 477.0,280.0 C 479.33,278.67 480.17,281.17 480.0,283.0 C 479.83,284.83 478.33,287.33 476.0,291.0 C 473.67,294.67 468.83,301.5 466.0,305.0 C 463.17,308.5 460.5,311.0 459.0,312.0 C 457.5,313.0 457.83,311.83 457.0,311.0 C 456.17,310.17 453.83,308.33 454.0,307.0 C 454.17,305.67 456.0,305.67 458.0,303.0 C 460.0,300.33 462.83,294.83 466.0,291.0 C 469.17,287.17 474.67,281.33 477.0,280.0 Z" fill="#ffffff" fill-rule="evenodd" stroke="none"/>
  <path d="M 391.0,320.0 C 391.0,319.0 390.83,317.17 394.0,317.0 C 397.17,316.83 405.67,318.17 410.0,319.0 C 414.33,319.83 417.67,320.83 420.0,322.0 C 422.33,323.17 423.33,325.0 424.0,326.0 C 424.67,327.0 424.5,327.17 424.0,328.0 C 423.5,328.83 423.0,330.83 421.0,331.0 C 419.0,331.17 416.5,330.33 412.0,329.0 C 407.5,327.67 397.5,324.5 394.0,323.0 C 390.5,321.5 391.0,321.0 391.0,320.0 Z" fill="#ffffff" fill-rule="evenodd" stroke="none"/>
  <path d="M 464.0,328.0 C 464.17,326.67 466.5,324.83 468.0,324.0 C 469.5,323.17 469.5,323.17 473.0,323.0 C 476.5,322.83 485.5,322.83 489.0,323.0 C 492.5,323.17 492.67,323.33 494.0,324.0 C 495.33,324.67 497.0,326.0 497.0,327.0 C 497.0,328.0 496.5,329.17 494.0,330.0 C 491.5,330.83 486.5,331.67 482.0,332.0 C 477.5,332.33 470.0,332.67 467.0,332.0 C 464.0,331.33 463.83,329.33 464.0,328.0 Z" fill="#ffffff" fill-rule="evenodd" stroke="none"/>
  <path d="M 599.0,306.0 C 600.67,305.17 602.0,306.5 602.0,309.0 C 602.0,311.5 600.0,318.0 599.0,321.0 C 598.0,324.0 597.67,324.83 596.0,327.0 C 594.33,329.17 590.5,332.83 589.0,334.0 C 587.5,335.17 587.83,334.5 587.0,334.0 C 586.17,333.5 583.17,334.33 584.0,331.0 C 584.83,327.67 589.5,318.17 592.0,314.0 C 594.5,309.83 597.33,306.83 599.0,306.0 Z" fill="#ffffff" fill-rule="evenodd" stroke="none"/>
  <path d="M 428.0,280.0 C 429.0,280.0 430.0,281.67 431.0,283.0 C 432.0,284.33 432.33,284.33 434.0,288.0 C 435.67,291.67 440.5,301.5 441.0,305.0 C 441.5,308.5 438.33,309.0 437.0,309.0 C 435.67,309.0 434.67,308.0 433.0,305.0 C 431.33,302.0 428.33,294.67 427.0,291.0 C 425.67,287.33 424.83,284.83 425.0,283.0 C 425.17,281.17 427.0,280.0 428.0,280.0 Z" fill="#ffffff" fill-rule="evenodd" stroke="none"/>
  <path d="M 547.0,449.0 C 548.17,448.67 549.5,448.33 550.0,452.0 C 550.5,455.67 550.17,467.17 550.0,471.0 C 549.83,474.83 549.67,473.83 549.0,475.0 C 548.33,476.17 547.0,478.0 546.0,478.0 C 545.0,478.0 543.67,476.0 543.0,475.0 C 542.33,474.0 542.0,472.67 542.0,472.0 C 542.0,471.33 543.0,471.83 543.0,471.0 C 543.0,470.17 542.0,469.83 542.0,467.0 C 542.0,464.17 542.17,457.0 543.0,454.0 C 543.83,451.0 545.83,449.33 547.0,449.0 Z" fill="#ffffff" fill-rule="evenodd" stroke="none"/>
</svg>