<svg xmlns="http://www.w3.org/2000/svg" viewBox="0 0 1024 1024" width="1024" height="1024">
  <path d="M 413.0,196.0 C 369.7,211.8 314.7,260.7 291.0,288.0 C 267.3,315.3 271.3,335.2 271.0,360.0 C 270.7,384.8 293.0,421.0 289.0,437.0 C 285.0,453.0 251.3,449.3 247.0,456.0 C 242.7,462.7 233.0,466.8 263.0,477.0 C 293.0,487.2 395.0,503.8 427.0,517.0 C 459.0,530.2 451.8,541.0 455.0,556.0 C 458.2,571.0 444.3,604.5 446.0,607.0 C 447.7,609.5 446.0,581.3 465.0,571.0 C 484.0,560.7 544.8,552.7 560.0,545.0 C 575.2,537.3 568.8,525.5 556.0,525.0 C 543.2,524.5 487.2,546.0 483.0,542.0 C 478.8,538.0 508.0,506.0 531.0,501.0 C 554.0,496.0 605.8,521.5 621.0,512.0 C 636.2,502.5 628.7,460.3 622.0,444.0 C 615.3,427.7 598.0,417.7 581.0,414.0 C 564.0,410.3 532.8,415.2 520.0,422.0 C 507.2,428.8 501.5,443.2 504.0,455.0 C 506.5,466.8 542.3,475.5 535.0,493.0 C 527.7,510.5 468.5,570.5 460.0,560.0 C 451.5,549.5 451.0,462.2 484.0,430.0 C 517.0,397.8 645.0,375.8 658.0,367.0 C 671.0,358.2 565.8,385.8 562.0,377.0 C 558.2,368.2 625.5,333.3 635.0,314.0 C 644.5,294.7 629.0,266.3 619.0,261.0 C 609.0,255.7 586.2,261.8 575.0,282.0 C 563.8,302.2 569.2,356.5 552.0,382.0 C 534.8,407.5 487.2,436.8 472.0,435.0 C 456.8,433.2 451.3,380.8 461.0,371.0 C 470.7,361.2 520.7,383.0 530.0,376.0 C 539.3,369.0 515.0,346.0 517.0,329.0 C 519.0,312.0 546.3,284.7 542.0,274.0 C 537.7,263.3 505.0,273.7 491.0,265.0 C 477.0,256.3 470.2,223.3 458.0,222.0 C 445.8,220.7 434.7,250.3 418.0,257.0 C 401.3,263.7 370.7,243.2 358.0,262.0 C 345.3,280.8 336.0,349.8 342.0,370.0 C 348.0,390.2 381.0,374.0 394.0,383.0 C 407.0,392.0 408.5,420.0 420.0,424.0 C 431.5,428.0 461.0,392.0 463.0,407.0 C 465.0,422.0 458.7,522.5 432.0,514.0 C 405.3,505.5 322.2,369.0 303.0,356.0 C 283.8,343.0 320.2,425.8 317.0,436.0 C 313.8,446.2 290.2,433.8 284.0,417.0 C 277.8,400.2 273.7,362.0 280.0,335.0 C 286.3,308.0 303.0,276.2 322.0,255.0 C 341.0,233.8 363.5,218.3 394.0,208.0 C 424.5,197.7 471.0,192.2 505.0,193.0 C 539.0,193.8 570.2,200.8 598.0,213.0 C 625.8,225.2 644.8,220.8 672.0,266.0 C 699.2,311.2 755.8,435.5 761.0,484.0 C 766.2,532.5 709.0,543.0 703.0,557.0 C 697.0,571.0 723.5,554.8 725.0,568.0 C 726.5,581.2 734.7,621.2 712.0,636.0 C 689.3,650.8 612.2,637.2 589.0,657.0 C 565.8,676.8 571.8,754.7 573.0,755.0 C 574.2,755.3 572.0,678.3 596.0,659.0 C 620.0,639.7 694.8,662.7 717.0,639.0 C 739.2,615.3 720.8,543.5 729.0,517.0 C 737.2,490.5 767.3,497.0 766.0,480.0 C 764.7,463.0 731.2,443.8 721.0,415.0 C 710.8,386.2 716.7,336.7 705.0,307.0 C 693.3,277.3 676.7,256.0 651.0,237.0 C 625.3,218.0 590.7,199.8 551.0,193.0 C 511.3,186.2 456.3,180.2 413.0,196.0 Z M 561.0,534.0 C 560.3,536.2 556.5,541.0 554.0,544.0 C 551.5,547.0 549.0,549.5 546.0,552.0 C 543.0,554.5 540.2,556.7 536.0,559.0 C 531.8,561.3 526.7,564.2 521.0,566.0 C 515.3,567.8 509.0,569.3 502.0,570.0 C 495.0,570.7 483.7,570.2 479.0,570.0 C 474.3,569.8 475.3,569.7 474.0,569.0 C 472.7,568.3 471.5,566.8 471.0,566.0 C 470.5,565.2 468.2,566.8 471.0,564.0 C 473.8,561.2 482.7,553.2 488.0,549.0 C 493.3,544.8 499.0,541.3 503.0,539.0 C 507.0,536.7 509.0,536.2 512.0,535.0 C 515.0,533.8 517.7,532.8 521.0,532.0 C 524.3,531.2 526.5,530.3 532.0,530.0 C 537.5,529.7 549.7,529.8 554.0,530.0 C 558.3,530.2 556.8,530.3 558.0,531.0 C 559.2,531.7 561.7,531.8 561.0,534.0 Z M 619.0,499.0 C 619.2,500.3 619.2,503.7 619.0,505.0 C 618.8,506.3 619.0,505.8 618.0,507.0 C 617.0,508.2 614.8,510.7 613.0,512.0 C 611.2,513.3 608.7,514.3 607.0,515.0 C 605.3,515.7 606.2,515.8 603.0,516.0 C 599.8,516.2 592.2,516.3 588.0,516.0 C 583.8,515.7 582.0,515.3 578.0,514.0 C 574.0,512.7 567.3,509.8 564.0,508.0 C 560.7,506.2 558.5,504.3 558.0,503.0 C 557.5,501.7 557.8,500.5 561.0,500.0 C 564.2,499.5 571.8,500.5 577.0,500.0 C 582.2,499.5 587.7,498.2 592.0,497.0 C 596.3,495.8 600.5,494.2 603.0,493.0 C 605.5,491.8 605.8,490.5 607.0,490.0 C 608.2,489.5 609.2,489.8 610.0,490.0 C 610.8,490.2 610.7,489.8 612.0,491.0 C 613.3,492.2 616.8,495.7 618.0,497.0 C 619.2,498.3 618.8,497.7 619.0,499.0 Z M 595.0,489.0 C 595.0,490.0 594.7,491.0 592.0,492.0 C 589.3,493.0 584.7,494.5 579.0,495.0 C 573.3,495.5 562.0,495.5 558.0,495.0 C 554.0,494.5 555.0,493.0 555.0,492.0 C 555.0,491.0 556.0,489.8 558.0,489.0 C 560.0,488.2 563.7,487.5 567.0,487.0 C 570.3,486.5 573.8,486.2 578.0,486.0 C 582.2,485.8 589.2,485.5 592.0,486.0 C 594.8,486.5 595.0,488.0 595.0,489.0 Z M 462.0,455.0 C 463.7,454.0 464.7,452.3 465.0,458.0 C 465.3,463.7 465.0,475.7 464.0,489.0 C 463.0,502.3 460.3,529.3 459.0,538.0 C 457.7,546.7 457.0,541.0 456.0,541.0 C 455.0,541.0 454.3,540.0 453.0,538.0 C 451.7,536.0 450.2,532.0 448.0,529.0 C 445.8,526.0 441.3,523.5 440.0,520.0 C 438.7,516.5 439.8,511.5 440.0,508.0 C 440.2,504.5 440.3,502.5 441.0,499.0 C 441.7,495.5 443.0,490.3 444.0,487.0 C 445.0,483.7 445.2,482.8 447.0,479.0 C 448.8,475.2 452.5,468.0 455.0,464.0 C 457.5,460.0 460.3,456.0 462.0,455.0 Z M 582.0,454.0 C 583.3,454.0 585.3,455.0 585.0,457.0 C 584.7,459.0 583.2,462.2 580.0,466.0 C 576.8,469.8 569.8,476.8 566.0,480.0 C 562.2,483.2 559.2,484.0 557.0,485.0 C 554.8,486.0 554.2,486.3 553.0,486.0 C 551.8,485.7 549.5,484.5 550.0,483.0 C 550.5,481.5 555.0,478.2 556.0,477.0 C 557.0,475.8 554.3,477.8 556.0,476.0 C 557.7,474.2 562.5,469.2 566.0,466.0 C 569.5,462.8 574.3,459.0 577.0,457.0 C 579.7,455.0 580.7,454.0 582.0,454.0 Z M 547.0,449.0 C 548.2,448.7 549.5,448.3 550.0,452.0 C 550.5,455.7 550.2,467.2 550.0,471.0 C 549.8,474.8 549.7,473.8 549.0,475.0 C 548.3,476.2 547.0,478.0 546.0,478.0 C 545.0,478.0 543.7,476.0 543.0,475.0 C 542.3,474.0 542.0,472.7 542.0,472.0 C 542.0,471.3 543.0,471.8 543.0,471.0 C 543.0,470.2 542.0,469.8 542.0,467.0 C 542.0,464.2 542.2,457.0 543.0,454.0 C 543.8,451.0 545.8,449.3 547.0,449.0 Z M 338.0,451.0 C 336.0,448.5 340.2,448.5 341.0,448.0 C 341.8,447.5 339.8,447.0 343.0,448.0 C 346.2,449.0 355.2,451.8 360.0,454.0 C 364.8,456.2 369.5,459.3 372.0,461.0 C 374.5,462.7 374.3,462.5 375.0,464.0 C 375.7,465.5 376.5,468.5 376.0,470.0 C 375.5,471.5 375.8,474.2 372.0,473.0 C 368.2,471.8 358.7,466.7 353.0,463.0 C 347.3,459.3 340.0,453.5 338.0,451.0 Z M 623.0,453.0 C 624.0,454.3 624.7,455.5 625.0,457.0 C 625.3,458.5 625.2,460.5 625.0,462.0 C 624.8,463.5 625.0,463.8 624.0,466.0 C 623.0,468.2 621.2,472.3 619.0,475.0 C 616.8,477.7 613.0,480.5 611.0,482.0 C 609.0,483.5 608.7,484.0 607.0,484.0 C 605.3,484.0 603.5,482.5 601.0,482.0 C 598.5,481.5 596.0,481.0 592.0,481.0 C 588.0,481.0 580.0,482.3 577.0,482.0 C 574.0,481.7 573.0,481.0 574.0,479.0 C 575.0,477.0 581.0,472.2 583.0,470.0 C 585.0,467.8 584.7,468.3 586.0,466.0 C 587.3,463.7 590.2,458.2 591.0,456.0 C 591.8,453.8 590.8,453.8 591.0,453.0 C 591.2,452.2 591.2,452.0 592.0,451.0 C 592.8,450.0 594.7,447.8 596.0,447.0 C 597.3,446.2 597.3,446.2 600.0,446.0 C 602.7,445.8 608.8,445.5 612.0,446.0 C 615.2,446.5 617.2,447.8 619.0,449.0 C 620.8,450.2 622.0,451.7 623.0,453.0 Z M 254.0,459.0 C 252.7,455.8 256.7,455.5 259.0,454.0 C 261.3,452.5 263.2,451.5 268.0,450.0 C 272.8,448.5 283.7,445.8 288.0,445.0 C 292.3,444.2 289.7,441.5 294.0,445.0 C 298.3,448.5 309.7,461.7 314.0,466.0 C 318.3,470.3 316.8,468.7 320.0,471.0 C 323.2,473.3 329.0,477.7 333.0,480.0 C 337.0,482.3 341.7,483.7 344.0,485.0 C 346.3,486.3 347.0,487.0 347.0,488.0 C 347.0,489.0 346.0,490.3 344.0,491.0 C 342.0,491.7 339.3,491.8 335.0,492.0 C 330.7,492.2 323.8,492.5 318.0,492.0 C 312.2,491.5 305.0,490.2 300.0,489.0 C 295.0,487.8 292.8,487.2 288.0,485.0 C 283.2,482.8 274.5,478.0 271.0,476.0 C 267.5,474.0 269.8,475.8 267.0,473.0 C 264.2,470.2 255.3,462.2 254.0,459.0 Z M 303.0,447.0 C 301.7,444.5 302.5,444.3 306.0,444.0 C 309.5,443.7 317.5,441.7 324.0,445.0 C 330.5,448.3 339.7,459.7 345.0,464.0 C 350.3,468.3 350.8,468.5 356.0,471.0 C 361.2,473.5 371.5,477.8 376.0,479.0 C 380.5,480.2 382.0,479.0 383.0,478.0 C 384.0,477.0 381.7,474.3 382.0,473.0 C 382.3,471.7 383.3,469.7 385.0,470.0 C 386.7,470.3 388.2,471.5 392.0,475.0 C 395.8,478.5 404.2,486.8 408.0,491.0 C 411.8,495.2 414.5,498.0 415.0,500.0 C 415.5,502.0 414.7,503.8 411.0,503.0 C 407.3,502.2 400.2,497.3 393.0,495.0 C 385.8,492.7 375.3,491.2 368.0,489.0 C 360.7,486.8 356.2,485.5 349.0,482.0 C 341.8,478.5 330.8,471.8 325.0,468.0 C 319.2,464.2 317.7,462.5 314.0,459.0 C 310.3,455.5 304.3,449.5 303.0,447.0 Z M 521.0,427.0 C 523.0,426.8 528.8,426.8 531.0,427.0 C 533.2,427.2 532.0,426.5 534.0,428.0 C 536.0,429.5 541.5,434.2 543.0,436.0 C 544.5,437.8 543.5,437.5 543.0,439.0 C 542.5,440.5 540.8,442.3 540.0,445.0 C 539.2,447.7 538.3,449.5 538.0,455.0 C 537.7,460.5 537.7,473.2 538.0,478.0 C 538.3,482.8 540.2,482.5 540.0,484.0 C 539.8,485.5 539.0,487.3 537.0,487.0 C 535.0,486.7 531.5,484.8 528.0,482.0 C 524.5,479.2 518.8,473.5 516.0,470.0 C 513.2,466.5 512.2,463.5 511.0,461.0 C 509.8,458.5 509.3,458.2 509.0,455.0 C 508.7,451.8 508.5,445.3 509.0,442.0 C 509.5,438.7 510.3,437.3 512.0,435.0 C 513.7,432.7 517.5,429.3 519.0,428.0 C 520.5,426.7 519.0,427.2 521.0,427.0 Z M 582.0,420.0 C 583.8,421.3 586.7,424.2 588.0,426.0 C 589.3,427.8 589.7,428.2 590.0,431.0 C 590.3,433.8 590.7,440.3 590.0,443.0 C 589.3,445.7 587.8,445.8 586.0,447.0 C 584.2,448.2 581.2,448.8 579.0,450.0 C 576.8,451.2 576.5,451.2 573.0,454.0 C 569.5,456.8 561.0,465.3 558.0,467.0 C 555.0,468.7 555.5,466.0 555.0,464.0 C 554.5,462.0 555.2,457.5 555.0,455.0 C 554.8,452.5 554.7,451.5 554.0,449.0 C 553.3,446.5 551.8,441.8 551.0,440.0 C 550.2,438.2 549.3,438.7 549.0,438.0 C 548.7,437.3 548.5,437.2 549.0,436.0 C 549.5,434.8 550.3,433.0 552.0,431.0 C 553.7,429.0 557.3,425.5 559.0,424.0 C 560.7,422.5 560.0,423.0 562.0,422.0 C 564.0,421.0 568.5,418.7 571.0,418.0 C 573.5,417.3 575.2,417.7 577.0,418.0 C 578.8,418.3 580.2,418.7 582.0,420.0 Z M 304.0,362.0 C 308.2,363.8 319.2,370.3 326.0,376.0 C 332.8,381.7 340.3,390.3 345.0,396.0 C 349.7,401.7 350.5,403.5 354.0,410.0 C 357.5,416.5 363.2,428.3 366.0,435.0 C 368.8,441.7 370.8,447.0 371.0,450.0 C 371.2,453.0 368.0,452.8 367.0,453.0 C 366.0,453.2 367.2,452.2 365.0,451.0 C 362.8,449.8 358.2,447.5 354.0,446.0 C 349.8,444.5 344.2,442.8 340.0,442.0 C 335.8,441.2 333.0,443.7 329.0,441.0 C 325.0,438.3 320.0,431.8 316.0,426.0 C 312.0,420.2 307.7,412.7 305.0,406.0 C 302.3,399.3 300.8,392.0 300.0,386.0 C 299.2,380.0 299.8,373.5 300.0,370.0 C 300.2,366.5 300.3,366.3 301.0,365.0 C 301.7,363.7 299.8,360.2 304.0,362.0 Z M 654.0,363.0 C 653.5,365.0 650.7,368.2 648.0,371.0 C 645.3,373.8 640.7,377.8 638.0,380.0 C 635.3,382.2 635.5,382.2 632.0,384.0 C 628.5,385.8 623.8,389.0 617.0,391.0 C 610.2,393.0 601.2,395.2 591.0,396.0 C 580.8,396.8 562.3,396.5 556.0,396.0 C 549.7,395.5 553.0,394.0 553.0,393.0 C 553.0,392.0 553.2,391.7 556.0,390.0 C 558.8,388.3 564.7,386.0 570.0,383.0 C 575.3,380.0 582.0,375.0 588.0,372.0 C 594.0,369.0 601.2,366.7 606.0,365.0 C 610.8,363.3 612.0,363.0 617.0,362.0 C 622.0,361.0 630.3,359.5 636.0,359.0 C 641.7,358.5 648.0,358.3 651.0,359.0 C 654.0,359.7 654.5,361.0 654.0,363.0 Z M 446.0,346.0 C 447.2,346.7 449.0,348.7 450.0,350.0 C 451.0,351.3 450.8,350.3 452.0,354.0 C 453.2,357.7 456.0,366.7 457.0,372.0 C 458.0,377.3 458.3,381.5 458.0,386.0 C 457.7,390.5 456.3,395.3 455.0,399.0 C 453.7,402.7 452.5,405.0 450.0,408.0 C 447.5,411.0 442.5,415.2 440.0,417.0 C 437.5,418.8 437.0,418.5 435.0,419.0 C 433.0,419.5 430.7,420.2 428.0,420.0 C 425.3,419.8 421.5,418.8 419.0,418.0 C 416.5,417.2 415.0,416.5 413.0,415.0 C 411.0,413.5 408.5,410.8 407.0,409.0 C 405.5,407.2 404.8,406.0 404.0,404.0 C 403.2,402.0 402.3,400.5 402.0,397.0 C 401.7,393.5 401.3,386.2 402.0,383.0 C 402.7,379.8 404.2,379.3 406.0,378.0 C 407.8,376.7 410.0,376.8 413.0,375.0 C 416.0,373.2 420.2,370.3 424.0,367.0 C 427.8,363.7 433.7,357.7 436.0,355.0 C 438.3,352.3 436.8,352.5 438.0,351.0 C 439.2,349.5 441.7,346.8 443.0,346.0 C 444.3,345.2 444.8,345.3 446.0,346.0 Z M 433.0,342.0 C 433.7,342.5 435.5,344.2 436.0,345.0 C 436.5,345.8 436.3,346.2 436.0,347.0 C 435.7,347.8 437.0,346.8 434.0,350.0 C 431.0,353.2 422.0,362.5 418.0,366.0 C 414.0,369.5 411.8,370.7 410.0,371.0 C 408.2,371.3 406.3,370.3 407.0,368.0 C 407.7,365.7 410.2,361.7 414.0,357.0 C 417.8,352.3 427.0,342.5 430.0,340.0 C 433.0,337.5 431.5,341.7 432.0,342.0 C 432.5,342.3 432.3,341.5 433.0,342.0 Z M 530.0,364.0 C 529.3,367.2 528.2,369.3 526.0,372.0 C 523.8,374.7 519.3,378.3 517.0,380.0 C 514.7,381.7 513.7,381.7 512.0,382.0 C 510.3,382.3 508.0,381.8 507.0,382.0 C 506.0,382.2 508.0,383.0 506.0,383.0 C 504.0,383.0 498.8,383.0 495.0,382.0 C 491.2,381.0 486.5,378.8 483.0,377.0 C 479.5,375.2 477.3,373.8 474.0,371.0 C 470.7,368.2 466.3,364.0 463.0,360.0 C 459.7,356.0 455.5,349.5 454.0,347.0 C 452.5,344.5 453.3,345.8 454.0,345.0 C 454.7,344.2 456.3,343.7 458.0,342.0 C 459.7,340.3 458.8,336.0 464.0,335.0 C 469.2,334.0 483.0,336.2 489.0,336.0 C 495.0,335.8 497.0,334.8 500.0,334.0 C 503.0,333.2 505.3,331.5 507.0,331.0 C 508.7,330.5 507.8,329.8 510.0,331.0 C 512.2,332.2 517.0,335.2 520.0,338.0 C 523.0,340.8 526.3,345.5 528.0,348.0 C 529.7,350.5 529.7,350.3 530.0,353.0 C 530.3,355.7 530.7,360.8 530.0,364.0 Z M 464.0,328.0 C 464.2,326.7 466.5,324.8 468.0,324.0 C 469.5,323.2 469.5,323.2 473.0,323.0 C 476.5,322.8 485.5,322.8 489.0,323.0 C 492.5,323.2 492.7,323.3 494.0,324.0 C 495.3,324.7 497.0,326.0 497.0,327.0 C 497.0,328.0 496.5,329.2 494.0,330.0 C 491.5,330.8 486.5,331.7 482.0,332.0 C 477.5,332.3 470.0,332.7 467.0,332.0 C 464.0,331.3 463.8,329.3 464.0,328.0 Z M 372.0,319.0 C 375.0,318.2 373.5,317.5 377.0,319.0 C 380.5,320.5 388.5,325.8 393.0,328.0 C 397.5,330.2 400.2,330.8 404.0,332.0 C 407.8,333.2 413.0,334.5 416.0,335.0 C 419.0,335.5 420.5,334.5 422.0,335.0 C 423.5,335.5 425.5,336.7 425.0,338.0 C 424.5,339.3 421.5,340.3 419.0,343.0 C 416.5,345.7 412.3,350.8 410.0,354.0 C 407.7,357.2 406.7,358.8 405.0,362.0 C 403.3,365.2 401.5,370.5 400.0,373.0 C 398.5,375.5 398.7,375.7 396.0,377.0 C 393.3,378.3 388.3,380.3 384.0,381.0 C 379.7,381.7 373.7,381.3 370.0,381.0 C 366.3,380.7 364.3,379.8 362.0,379.0 C 359.7,378.2 358.5,377.8 356.0,376.0 C 353.5,374.2 349.3,371.2 347.0,368.0 C 344.7,364.8 342.8,360.7 342.0,357.0 C 341.2,353.3 341.7,348.8 342.0,346.0 C 342.3,343.2 342.8,342.3 344.0,340.0 C 345.2,337.7 346.5,334.7 349.0,332.0 C 351.5,329.3 355.2,326.2 359.0,324.0 C 362.8,321.8 369.0,319.8 372.0,319.0 Z M 391.0,320.0 C 391.0,319.0 390.8,317.2 394.0,317.0 C 397.2,316.8 405.7,318.2 410.0,319.0 C 414.3,319.8 417.7,320.8 420.0,322.0 C 422.3,323.2 423.3,325.0 424.0,326.0 C 424.7,327.0 424.5,327.2 424.0,328.0 C 423.5,328.8 423.0,330.8 421.0,331.0 C 419.0,331.2 416.5,330.3 412.0,329.0 C 407.5,327.7 397.5,324.5 394.0,323.0 C 390.5,321.5 391.0,321.0 391.0,320.0 Z M 441.0,312.0 C 442.8,311.7 445.2,311.7 447.0,312.0 C 448.8,312.3 450.3,312.8 452.0,314.0 C 453.7,315.2 455.8,317.5 457.0,319.0 C 458.2,320.5 458.7,321.2 459.0,323.0 C 459.3,324.8 459.2,328.3 459.0,330.0 C 458.8,331.7 459.2,331.5 458.0,333.0 C 456.8,334.5 453.7,337.7 452.0,339.0 C 450.3,340.3 449.7,340.7 448.0,341.0 C 446.3,341.3 443.8,341.3 442.0,341.0 C 440.2,340.7 439.0,340.5 437.0,339.0 C 435.0,337.5 431.3,333.8 430.0,332.0 C 428.7,330.2 429.2,329.3 429.0,328.0 C 428.8,326.7 428.5,325.7 429.0,324.0 C 429.5,322.3 430.8,319.7 432.0,318.0 C 433.2,316.3 434.5,315.0 436.0,314.0 C 437.5,313.0 439.2,312.3 441.0,312.0 Z M 599.0,306.0 C 600.7,305.2 602.0,306.5 602.0,309.0 C 602.0,311.5 600.0,318.0 599.0,321.0 C 598.0,324.0 597.7,324.8 596.0,327.0 C 594.3,329.2 590.5,332.8 589.0,334.0 C 587.5,335.2 587.8,334.5 587.0,334.0 C 586.2,333.5 583.2,334.3 584.0,331.0 C 584.8,327.7 589.5,318.2 592.0,314.0 C 594.5,309.8 597.3,306.8 599.0,306.0 Z M 632.0,285.0 C 633.3,285.5 634.5,285.8 635.0,288.0 C 635.5,290.2 635.5,294.7 635.0,298.0 C 634.5,301.3 633.2,305.0 632.0,308.0 C 630.8,311.0 629.5,313.5 628.0,316.0 C 626.5,318.5 625.2,320.5 623.0,323.0 C 620.8,325.5 617.2,329.2 615.0,331.0 C 612.8,332.8 611.8,333.2 610.0,334.0 C 608.2,334.8 605.7,335.7 604.0,336.0 C 602.3,336.3 601.2,336.5 600.0,336.0 C 598.8,335.5 596.7,334.7 597.0,333.0 C 597.3,331.3 600.7,328.5 602.0,326.0 C 603.3,323.5 604.2,321.2 605.0,318.0 C 605.8,314.8 606.7,310.3 607.0,307.0 C 607.3,303.7 606.3,300.2 607.0,298.0 C 607.7,295.8 608.8,295.7 611.0,294.0 C 613.2,292.3 617.3,289.5 620.0,288.0 C 622.7,286.5 625.0,285.5 627.0,285.0 C 629.0,284.5 630.7,284.5 632.0,285.0 Z M 477.0,280.0 C 479.3,278.7 480.2,281.2 480.0,283.0 C 479.8,284.8 478.3,287.3 476.0,291.0 C 473.7,294.7 468.8,301.5 466.0,305.0 C 463.2,308.5 460.5,311.0 459.0,312.0 C 457.5,313.0 457.8,311.8 457.0,311.0 C 456.2,310.2 453.8,308.3 454.0,307.0 C 454.2,305.7 456.0,305.7 458.0,303.0 C 460.0,300.3 462.8,294.8 466.0,291.0 C 469.2,287.2 474.7,281.3 477.0,280.0 Z M 428.0,280.0 C 429.0,280.0 430.0,281.7 431.0,283.0 C 432.0,284.3 432.3,284.3 434.0,288.0 C 435.7,291.7 440.5,301.5 441.0,305.0 C 441.5,308.5 438.3,309.0 437.0,309.0 C 435.7,309.0 434.7,308.0 433.0,305.0 C 431.3,302.0 428.3,294.7 427.0,291.0 C 425.7,287.3 424.8,284.8 425.0,283.0 C 425.2,281.2 427.0,280.0 428.0,280.0 Z M 596.0,269.0 C 597.3,269.5 599.0,271.7 600.0,274.0 C 601.0,276.3 601.5,279.8 602.0,283.0 C 602.5,286.2 603.0,291.0 603.0,293.0 C 603.0,295.0 603.7,293.2 602.0,295.0 C 600.3,296.8 595.7,300.7 593.0,304.0 C 590.3,307.3 587.7,311.8 586.0,315.0 C 584.3,318.2 584.2,321.0 583.0,323.0 C 581.8,325.0 580.3,327.0 579.0,327.0 C 577.7,327.0 576.2,325.2 575.0,323.0 C 573.8,320.8 572.3,317.8 572.0,314.0 C 571.7,310.2 572.2,304.2 573.0,300.0 C 573.8,295.8 575.5,292.2 577.0,289.0 C 578.5,285.8 579.5,284.0 582.0,281.0 C 584.5,278.0 589.7,273.0 592.0,271.0 C 594.3,269.0 594.7,268.5 596.0,269.0 Z M 618.0,266.0 C 619.5,266.7 621.2,269.0 622.0,270.0 C 622.8,271.0 622.8,270.3 623.0,272.0 C 623.2,273.7 623.5,278.2 623.0,280.0 C 622.5,281.8 621.0,282.3 620.0,283.0 C 619.0,283.7 618.7,283.0 617.0,284.0 C 615.3,285.0 611.7,288.7 610.0,289.0 C 608.3,289.3 607.7,287.2 607.0,286.0 C 606.3,284.8 606.2,283.5 606.0,282.0 C 605.8,280.5 606.2,278.0 606.0,277.0 C 605.8,276.0 605.2,276.8 605.0,276.0 C 604.8,275.2 604.5,273.2 605.0,272.0 C 605.5,270.8 606.7,270.0 608.0,269.0 C 609.3,268.0 611.3,266.5 613.0,266.0 C 614.7,265.5 616.5,265.3 618.0,266.0 Z M 538.0,278.0 C 539.7,280.7 540.5,283.2 541.0,286.0 C 541.5,288.8 541.3,292.5 541.0,295.0 C 540.7,297.5 540.0,298.8 539.0,301.0 C 538.0,303.2 537.2,305.3 535.0,308.0 C 532.8,310.7 528.8,314.7 526.0,317.0 C 523.2,319.3 520.2,320.8 518.0,322.0 C 515.8,323.2 514.7,323.7 513.0,324.0 C 511.3,324.3 509.8,324.5 508.0,324.0 C 506.2,323.5 505.0,322.0 502.0,321.0 C 499.0,320.0 494.7,318.5 490.0,318.0 C 485.3,317.5 477.5,317.7 474.0,318.0 C 470.5,318.3 470.5,319.7 469.0,320.0 C 467.5,320.3 466.2,320.5 465.0,320.0 C 463.8,319.5 459.8,320.8 462.0,317.0 C 464.2,313.2 474.7,301.5 478.0,297.0 C 481.3,292.5 481.3,291.5 482.0,290.0 C 482.7,288.5 481.7,288.7 482.0,288.0 C 482.3,287.3 483.2,288.3 484.0,286.0 C 484.8,283.7 485.8,276.7 487.0,274.0 C 488.2,271.3 488.3,271.5 491.0,270.0 C 493.7,268.5 498.8,266.0 503.0,265.0 C 507.2,264.0 511.8,263.5 516.0,264.0 C 520.2,264.5 525.5,267.0 528.0,268.0 C 530.5,269.0 529.3,268.3 531.0,270.0 C 532.7,271.7 536.3,275.3 538.0,278.0 Z M 372.0,255.0 C 375.5,252.7 380.2,250.8 384.0,250.0 C 387.8,249.2 391.2,249.2 395.0,250.0 C 398.8,250.8 403.3,252.7 407.0,255.0 C 410.7,257.3 415.0,262.0 417.0,264.0 C 419.0,266.0 418.5,264.0 419.0,267.0 C 419.5,270.0 419.3,277.5 420.0,282.0 C 420.7,286.5 422.0,290.7 423.0,294.0 C 424.0,297.3 424.7,299.2 426.0,302.0 C 427.3,304.8 431.3,308.2 431.0,311.0 C 430.7,313.8 428.2,318.7 424.0,319.0 C 419.8,319.3 410.5,314.2 406.0,313.0 C 401.5,311.8 401.8,312.0 397.0,312.0 C 392.2,312.0 382.0,314.2 377.0,313.0 C 372.0,311.8 369.3,307.2 367.0,305.0 C 364.7,302.8 364.3,302.3 363.0,300.0 C 361.7,297.7 359.8,295.0 359.0,291.0 C 358.2,287.0 357.3,280.5 358.0,276.0 C 358.7,271.5 360.7,267.5 363.0,264.0 C 365.3,260.5 368.5,257.3 372.0,255.0 Z M 458.0,227.0 C 459.7,227.0 458.2,227.8 459.0,228.0 C 459.8,228.2 460.8,227.2 463.0,228.0 C 465.2,228.8 469.3,230.8 472.0,233.0 C 474.7,235.2 477.3,238.7 479.0,241.0 C 480.7,243.3 481.2,244.8 482.0,247.0 C 482.8,249.2 483.7,250.7 484.0,254.0 C 484.3,257.3 487.7,261.3 484.0,267.0 C 480.3,272.7 467.3,282.0 462.0,288.0 C 456.7,294.0 454.3,299.8 452.0,303.0 C 449.7,306.2 449.2,306.8 448.0,307.0 C 446.8,307.2 446.0,306.2 445.0,304.0 C 444.0,301.8 443.5,297.7 442.0,294.0 C 440.5,290.3 437.8,285.3 436.0,282.0 C 434.2,278.7 432.8,276.5 431.0,274.0 C 429.2,271.5 426.0,269.5 425.0,267.0 C 424.0,264.5 424.5,262.2 425.0,259.0 C 425.5,255.8 427.0,250.8 428.0,248.0 C 429.0,245.2 428.8,244.7 431.0,242.0 C 433.2,239.3 438.0,234.3 441.0,232.0 C 444.0,229.7 446.2,228.8 449.0,228.0 C 451.8,227.2 456.3,227.0 458.0,227.0 Z" fill="#000000" fill-rule="evenodd" stroke="none"/>
  <path d="M 357.0,505.0 C 345.3,505.0 326.7,509.2 320.0,511.0 C 313.3,512.8 314.3,511.7 317.0,516.0 C 319.7,520.3 328.2,530.8 336.0,537.0 C 343.8,543.2 353.7,549.2 364.0,553.0 C 374.3,556.8 387.7,559.5 398.0,560.0 C 408.3,560.5 420.5,555.5 426.0,556.0 C 431.5,556.5 429.7,558.5 431.0,563.0 C 432.3,567.5 434.0,574.5 434.0,583.0 C 434.0,591.5 434.0,601.2 431.0,614.0 C 428.0,626.8 422.2,645.3 416.0,660.0 C 409.8,674.7 403.8,686.8 394.0,702.0 C 384.2,717.2 362.5,742.7 357.0,751.0 C 351.5,759.3 355.8,757.0 361.0,752.0 C 366.2,747.0 378.7,734.3 388.0,721.0 C 397.3,707.7 409.0,689.3 417.0,672.0 C 425.0,654.7 432.3,632.7 436.0,617.0 C 439.7,601.3 439.7,589.0 439.0,578.0 C 438.3,567.0 436.3,559.8 432.0,551.0 C 427.7,542.2 420.0,531.7 413.0,525.0 C 406.0,518.3 399.3,514.3 390.0,511.0 C 380.7,507.7 368.7,505.0 357.0,505.0 Z M 324.0,517.0 C 322.8,514.7 323.5,515.0 327.0,514.0 C 330.5,513.0 339.3,511.7 345.0,511.0 C 350.7,510.3 355.2,509.7 361.0,510.0 C 366.8,510.3 374.2,511.3 380.0,513.0 C 385.8,514.7 391.3,517.5 396.0,520.0 C 400.7,522.5 404.3,525.0 408.0,528.0 C 411.7,531.0 415.2,534.5 418.0,538.0 C 420.8,541.5 424.7,546.5 425.0,549.0 C 425.3,551.5 423.5,552.0 420.0,553.0 C 416.5,554.0 410.8,555.2 404.0,555.0 C 397.2,554.8 385.7,553.3 379.0,552.0 C 372.3,550.7 369.7,549.5 364.0,547.0 C 358.3,544.5 350.0,540.2 345.0,537.0 C 340.0,533.8 337.5,531.3 334.0,528.0 C 330.5,524.7 325.2,519.3 324.0,517.0 Z" fill="#000000" fill-rule="evenodd" stroke="none"/>
</svg>