<svg xmlns="http://www.w3.org/2000/svg" viewBox="0 0 1024 1024" width="1024" height="1024">
  <path d="M 572.0,698.0 C 569.0,720.0 569.0,746.0 571.0,752.0" fill="none" stroke="black" stroke-width="1"/>
  <path d="M 571.0,752.0 C 570.0,754.0 572.0,755.0 569.0,746.0" fill="none" stroke="black" stroke-width="1"/>
  <path d="M 569.0,746.0 C 569.0,728.67 570.0,713.0 572.0,699.0" fill="none" stroke="black" stroke-width="1"/>
  <path d="M 604.0,652.0 C 595.0,656.0 582.0,669.0 578.0,677.0" fill="none" stroke="black" stroke-width="1"/>
  <path d="M 578.0,677.0 C 573.0,696.0 577.0,680.0 584.0,667.0" fill="none" stroke="black" stroke-width="1"/>
  <path d="M 584.0,667.0 C 590.67,660.33 597.67,655.33 605.0,652.0" fill="none" stroke="black" stroke-width="1"/>
  <path d="M 608.0,651.0 C 610.0,651.0 610.33,651.0 609.0,651.0" fill="none" stroke="black" stroke-width="1"/>
  <path d="M 620.0,649.0 C 613.0,650.0 634.0,649.0 663.0,653.0" fill="none" stroke="black" stroke-width="1"/>
  <path d="M 663.0,653.0 C 692.0,652.0 663.0,653.0 634.0,649.0" fill="none" stroke="black" stroke-width="1"/>
  <path d="M 634.0,649.0 C 629.67,649.0 625.33,649.0 621.0,649.0" fill="none" stroke="black" stroke-width="1"/>
  <path d="M 425.0,643.0 C 415.0,669.0 397.0,702.0 374.0,734.0" fill="none" stroke="black" stroke-width="1"/>
  <path d="M 374.0,734.0 C 359.0,749.0 375.0,733.0 394.0,708.0" fill="none" stroke="black" stroke-width="1"/>
  <path d="M 394.0,708.0 C 407.33,684.0 417.67,662.67 425.0,644.0" fill="none" stroke="black" stroke-width="1"/>
  <path d="M 431.0,623.0 C 429.0,631.0 429.0,631.33 431.0,624.0" fill="none" stroke="black" stroke-width="1"/>
  <path d="M 432.0,619.0 C 432.0,619.33 432.0,619.67 432.0,620.0" fill="none" stroke="black" stroke-width="1"/>
  <path d="M 717.0,595.0 C 716.0,605.0 719.0,617.0 717.0,632.0" fill="none" stroke="black" stroke-width="1"/>
  <path d="M 717.0,632.0 C 714.0,638.0 706.0,646.0 694.0,651.0" fill="none" stroke="black" stroke-width="1"/>
  <path d="M 694.0,651.0 C 704.0,648.0 715.0,637.0 719.0,623.0" fill="none" stroke="black" stroke-width="1"/>
  <path d="M 719.0,623.0 C 717.0,611.0 718.0,610.0 716.0,605.0" fill="none" stroke="black" stroke-width="1"/>
  <path d="M 716.0,605.0 C 716.33,602.0 716.67,599.0 717.0,596.0" fill="none" stroke="black" stroke-width="1"/>
  <path d="M 453.0,584.0 C 446.0,605.0 448.0,602.0 448.0,597.0" fill="none" stroke="black" stroke-width="1"/>
  <path d="M 448.0,597.0 C 450.0,595.0 449.0,594.0 452.0,589.0" fill="none" stroke="black" stroke-width="1"/>
  <path d="M 452.0,589.0 C 451.0,588.0 453.0,586.0 452.0,585.0" fill="none" stroke="black" stroke-width="1"/>
  <path d="M 726.0,577.0 C 721.33,585.67 721.33,586.0 726.0,578.0" fill="none" stroke="black" stroke-width="1"/>
  <path d="M 458.0,573.0 C 455.33,579.0 455.33,579.33 458.0,574.0" fill="none" stroke="black" stroke-width="1"/>
  <path d="M 719.0,559.0 C 728.0,568.0 727.0,575.0 728.0,568.0" fill="none" stroke="black" stroke-width="1"/>
  <path d="M 728.0,568.0 C 725.33,565.33 722.67,562.67 720.0,560.0" fill="none" stroke="black" stroke-width="1"/>
  <path d="M 377.0,554.0 C 381.0,554.0 384.0,556.0 386.0,555.0" fill="none" stroke="black" stroke-width="1"/>
  <path d="M 386.0,555.0 C 390.0,557.0 397.0,556.0 401.0,558.0" fill="none" stroke="black" stroke-width="1"/>
  <path d="M 401.0,558.0 C 411.0,556.0 416.0,557.0 422.0,555.0" fill="none" stroke="black" stroke-width="1"/>
  <path d="M 422.0,555.0 C 416.0,557.0 411.0,556.0 401.0,558.0" fill="none" stroke="black" stroke-width="1"/>
  <path d="M 401.0,558.0 C 397.0,556.0 390.0,557.0 378.0,554.0" fill="none" stroke="black" stroke-width="1"/>
  <path d="M 476.0,553.0 C 461.0,572.0 467.0,567.0 474.0,572.0" fill="none" stroke="black" stroke-width="1"/>
  <path d="M 474.0,572.0 C 502.0,573.0 504.0,571.0 513.0,571.0" fill="none" stroke="black" stroke-width="1"/>
  <path d="M 513.0,571.0 C 515.0,569.0 517.0,570.0 519.0,568.0" fill="none" stroke="black" stroke-width="1"/>
  <path d="M 519.0,568.0 C 521.0,569.0 527.0,566.0 519.0,568.0" fill="none" stroke="black" stroke-width="1"/>
  <path d="M 519.0,568.0 C 517.0,570.0 515.0,569.0 513.0,571.0" fill="none" stroke="black" stroke-width="1"/>
  <path d="M 513.0,571.0 C 504.0,571.0 502.0,573.0 479.0,572.0" fill="none" stroke="black" stroke-width="1"/>
  <path d="M 479.0,572.0 C 473.0,570.0 472.0,571.0 467.0,567.0" fill="none" stroke="black" stroke-width="1"/>
  <path d="M 467.0,567.0 C 467.0,564.0 476.0,553.0 477.0,554.0" fill="none" stroke="black" stroke-width="1"/>
  <path d="M 428.0,551.0 C 424.0,554.0 428.0,552.0 432.0,557.0" fill="none" stroke="black" stroke-width="1"/>
  <path d="M 432.0,557.0 C 431.0,558.0 434.0,563.0 433.0,565.0" fill="none" stroke="black" stroke-width="1"/>
  <path d="M 433.0,565.0 C 435.0,568.0 434.0,570.0 437.0,582.0" fill="none" stroke="black" stroke-width="1"/>
  <path d="M 437.0,582.0 C 433.0,617.0 437.0,582.0 435.0,577.0" fill="none" stroke="black" stroke-width="1"/>
  <path d="M 435.0,577.0 C 435.0,568.0 433.0,565.0 434.0,563.0" fill="none" stroke="black" stroke-width="1"/>
  <path d="M 434.0,563.0 C 432.0,561.0 432.0,557.0 428.0,552.0" fill="none" stroke="black" stroke-width="1"/>
  <path d="M 562.0,537.0 C 546.0,555.0 537.0,561.0 551.0,551.0" fill="none" stroke="black" stroke-width="1"/>
  <path d="M 551.0,551.0 C 552.0,552.0 551.0,551.0 557.0,545.0" fill="none" stroke="black" stroke-width="1"/>
  <path d="M 557.0,545.0 C 558.33,542.67 559.67,540.33 561.0,538.0" fill="none" stroke="black" stroke-width="1"/>
  <path d="M 502.0,537.0 C 490.0,544.0 480.0,553.0 492.0,543.0" fill="none" stroke="black" stroke-width="1"/>
  <path d="M 492.0,543.0 C 495.0,541.33 498.0,539.67 501.0,538.0" fill="none" stroke="black" stroke-width="1"/>
  <path d="M 506.0,535.0 C 504.67,535.67 505.0,535.67 507.0,535.0" fill="none" stroke="black" stroke-width="1"/>
  <path d="M 532.0,527.0 C 529.0,529.0 521.0,529.0 519.0,531.0" fill="none" stroke="black" stroke-width="1"/>
  <path d="M 519.0,531.0 C 518.0,530.0 516.0,532.0 515.0,531.0" fill="none" stroke="black" stroke-width="1"/>
  <path d="M 515.0,531.0 C 509.0,534.0 515.0,531.0 516.0,532.0" fill="none" stroke="black" stroke-width="1"/>
  <path d="M 516.0,532.0 C 518.0,530.0 519.0,531.0 521.0,529.0" fill="none" stroke="black" stroke-width="1"/>
  <path d="M 521.0,529.0 C 524.0,530.0 532.0,527.0 554.0,527.0" fill="none" stroke="black" stroke-width="1"/>
  <path d="M 554.0,527.0 C 562.0,530.0 564.0,533.0 559.0,528.0" fill="none" stroke="black" stroke-width="1"/>
  <path d="M 559.0,528.0 C 557.0,529.0 554.0,527.0 533.0,527.0" fill="none" stroke="black" stroke-width="1"/>
  <path d="M 727.0,525.0 C 733.0,538.0 732.0,545.0 727.0,551.0" fill="none" stroke="black" stroke-width="1"/>
  <path d="M 727.0,551.0 C 717.0,558.0 713.0,557.0 708.0,559.0" fill="none" stroke="black" stroke-width="1"/>
  <path d="M 708.0,559.0 C 704.0,557.0 705.0,559.0 716.0,557.0" fill="none" stroke="black" stroke-width="1"/>
  <path d="M 716.0,557.0 C 717.0,558.0 725.0,553.0 731.0,547.0" fill="none" stroke="black" stroke-width="1"/>
  <path d="M 731.0,547.0 C 733.0,543.0 733.0,538.0 727.0,526.0" fill="none" stroke="black" stroke-width="1"/>
  <path d="M 574.0,515.0 C 588.0,519.0 603.0,519.0 605.0,517.0" fill="none" stroke="black" stroke-width="1"/>
  <path d="M 605.0,517.0 C 608.0,517.0 605.0,517.0 603.0,519.0" fill="none" stroke="black" stroke-width="1"/>
  <path d="M 603.0,519.0 C 588.0,518.0 577.0,515.0 575.0,516.0" fill="none" stroke="black" stroke-width="1"/>
  <path d="M 428.0,514.0 C 431.33,517.33 431.67,517.67 429.0,515.0" fill="none" stroke="black" stroke-width="1"/>
  <path d="M 389.0,514.0 C 401.0,520.0 412.0,528.0 418.0,534.0" fill="none" stroke="black" stroke-width="1"/>
  <path d="M 418.0,534.0 C 428.0,549.0 421.0,537.0 408.0,524.0" fill="none" stroke="black" stroke-width="1"/>
  <path d="M 408.0,524.0 C 402.0,520.67 396.0,517.33 390.0,514.0" fill="none" stroke="black" stroke-width="1"/>
  <path d="M 383.0,512.0 C 385.67,512.67 386.0,512.67 384.0,512.0" fill="none" stroke="black" stroke-width="1"/>
  <path d="M 620.0,508.0 C 613.0,515.0 610.0,516.0 618.0,512.0" fill="none" stroke="black" stroke-width="1"/>
  <path d="M 618.0,512.0 C 618.67,511.0 619.33,510.0 620.0,509.0" fill="none" stroke="black" stroke-width="1"/>
  <path d="M 345.0,508.0 C 342.0,510.0 331.0,510.0 320.0,516.0" fill="none" stroke="black" stroke-width="1"/>
  <path d="M 320.0,516.0 C 322.0,520.0 344.0,540.0 364.0,550.0" fill="none" stroke="black" stroke-width="1"/>
  <path d="M 364.0,550.0 C 375.0,553.0 364.0,550.0 345.0,540.0" fill="none" stroke="black" stroke-width="1"/>
  <path d="M 345.0,540.0 C 332.0,530.0 320.0,516.0 325.0,512.0" fill="none" stroke="black" stroke-width="1"/>
  <path d="M 325.0,512.0 C 335.0,511.0 337.0,509.0 360.0,509.0" fill="none" stroke="black" stroke-width="1"/>
  <path d="M 360.0,509.0 C 355.33,508.67 350.67,508.33 346.0,508.0" fill="none" stroke="black" stroke-width="1"/>
  <path d="M 419.0,507.0 C 418.0,508.0 419.0,507.0 426.0,513.0" fill="none" stroke="black" stroke-width="1"/>
  <path d="M 426.0,513.0 C 424.0,511.0 422.0,509.0 420.0,507.0" fill="none" stroke="black" stroke-width="1"/>
  <path d="M 361.0,507.0 C 364.0,509.0 371.0,508.0 373.0,510.0" fill="none" stroke="black" stroke-width="1"/>
  <path d="M 373.0,510.0 C 376.0,509.0 378.0,511.0 381.0,511.0" fill="none" stroke="black" stroke-width="1"/>
  <path d="M 381.0,511.0 C 378.0,511.0 376.0,509.0 373.0,510.0" fill="none" stroke="black" stroke-width="1"/>
  <path d="M 373.0,510.0 C 371.67,508.67 368.0,508.0 362.0,508.0" fill="none" stroke="black" stroke-width="1"/>
  <path d="M 410.0,505.0 C 414.0,507.0 414.33,507.0 411.0,505.0" fill="none" stroke="black" stroke-width="1"/>
  <path d="M 521.0,504.0 C 497.0,522.0 484.0,536.0 475.0,549.0" fill="none" stroke="black" stroke-width="1"/>
  <path d="M 475.0,549.0 C 490.0,530.0 501.0,519.0 520.0,505.0" fill="none" stroke="black" stroke-width="1"/>
  <path d="M 550.0,501.0 C 558.67,507.0 559.0,507.0 551.0,501.0" fill="none" stroke="black" stroke-width="1"/>
  <path d="M 395.0,499.0 C 397.0,499.67 397.33,500.0 396.0,500.0" fill="none" stroke="black" stroke-width="1"/>
  <path d="M 621.0,498.0 C 621.0,503.33 621.33,503.67 622.0,499.0" fill="none" stroke="black" stroke-width="1"/>
  <path d="M 545.0,493.0 C 548.33,496.33 548.67,496.67 546.0,494.0" fill="none" stroke="black" stroke-width="1"/>
  <path d="M 539.0,493.0 C 530.0,499.0 532.0,499.0 540.0,493.0" fill="none" stroke="black" stroke-width="1"/>
  <path d="M 366.0,491.0 C 370.0,491.0 372.0,493.0 374.0,492.0" fill="none" stroke="black" stroke-width="1"/>
  <path d="M 374.0,492.0 C 376.0,494.0 378.0,493.0 380.0,495.0" fill="none" stroke="black" stroke-width="1"/>
  <path d="M 380.0,495.0 C 393.0,498.0 386.0,495.0 380.0,495.0" fill="none" stroke="black" stroke-width="1"/>
  <path d="M 380.0,495.0 C 378.0,493.0 376.0,494.0 374.0,492.0" fill="none" stroke="black" stroke-width="1"/>
  <path d="M 374.0,492.0 C 372.0,493.0 370.0,491.0 367.0,491.0" fill="none" stroke="black" stroke-width="1"/>
  <path d="M 543.0,490.0 C 541.0,491.0 545.0,491.0 544.0,490.0" fill="none" stroke="black" stroke-width="1"/>
  <path d="M 536.0,489.0 C 536.33,489.33 536.67,489.67 537.0,490.0" fill="none" stroke="black" stroke-width="1"/>
  <path d="M 361.0,489.0 C 363.0,489.67 363.33,490.0 362.0,490.0" fill="none" stroke="black" stroke-width="1"/>
  <path d="M 289.0,488.0 C 293.67,489.33 294.0,489.33 290.0,488.0" fill="none" stroke="black" stroke-width="1"/>
  <path d="M 555.0,487.0 C 550.0,490.0 558.0,487.0 556.0,488.0" fill="none" stroke="black" stroke-width="1"/>
  <path d="M 548.0,483.0 C 546.67,485.0 546.33,485.33 547.0,484.0" fill="none" stroke="black" stroke-width="1"/>
  <path d="M 369.0,474.0 C 376.0,477.0 379.0,475.0 382.0,478.0" fill="none" stroke="black" stroke-width="1"/>
  <path d="M 382.0,478.0 C 379.0,475.0 380.0,474.0 376.0,477.0" fill="none" stroke="black" stroke-width="1"/>
  <path d="M 376.0,477.0 C 374.67,475.67 372.67,475.0 370.0,475.0" fill="none" stroke="black" stroke-width="1"/>
  <path d="M 552.0,472.0 C 553.0,474.0 549.0,481.0 553.0,476.0" fill="none" stroke="black" stroke-width="1"/>
  <path d="M 553.0,476.0 C 553.0,475.0 553.0,474.0 553.0,473.0" fill="none" stroke="black" stroke-width="1"/>
  <path d="M 625.0,469.0 C 622.0,475.0 609.0,487.0 592.0,483.0" fill="none" stroke="black" stroke-width="1"/>
  <path d="M 592.0,483.0 C 573.0,485.0 569.0,482.0 560.0,486.0" fill="none" stroke="black" stroke-width="1"/>
  <path d="M 560.0,486.0 C 567.0,483.0 573.0,485.0 599.0,484.0" fill="none" stroke="black" stroke-width="1"/>
  <path d="M 599.0,484.0 C 604.0,488.0 599.0,492.0 579.0,497.0" fill="none" stroke="black" stroke-width="1"/>
  <path d="M 579.0,497.0 C 553.0,497.0 583.0,497.0 595.0,494.0" fill="none" stroke="black" stroke-width="1"/>
  <path d="M 595.0,494.0 C 608.0,486.0 620.0,496.0 610.0,486.0" fill="none" stroke="black" stroke-width="1"/>
  <path d="M 610.0,486.0 C 617.33,480.0 622.33,474.67 625.0,470.0" fill="none" stroke="black" stroke-width="1"/>
  <path d="M 379.0,469.0 C 379.67,471.0 379.67,471.33 379.0,470.0" fill="none" stroke="black" stroke-width="1"/>
  <path d="M 582.0,467.0 C 573.33,475.67 573.0,476.0 581.0,468.0" fill="none" stroke="black" stroke-width="1"/>
  <path d="M 383.0,465.0 C 406.0,485.0 420.0,503.0 411.0,490.0" fill="none" stroke="black" stroke-width="1"/>
  <path d="M 411.0,490.0 C 399.0,478.0 390.0,470.0 384.0,466.0" fill="none" stroke="black" stroke-width="1"/>
  <path d="M 510.0,464.0 C 514.0,472.0 525.0,483.0 530.0,486.0" fill="none" stroke="black" stroke-width="1"/>
  <path d="M 530.0,486.0 C 520.67,478.0 514.0,471.0 510.0,465.0" fill="none" stroke="black" stroke-width="1"/>
  <path d="M 253.0,463.0 C 258.0,468.0 257.0,469.0 258.0,468.0" fill="none" stroke="black" stroke-width="1"/>
  <path d="M 258.0,468.0 C 267.0,477.0 287.0,487.0 271.0,479.0" fill="none" stroke="black" stroke-width="1"/>
  <path d="M 271.0,479.0 C 265.33,474.0 259.67,469.0 254.0,464.0" fill="none" stroke="black" stroke-width="1"/>
  <path d="M 576.0,455.0 C 562.67,467.0 562.33,467.33 575.0,456.0" fill="none" stroke="black" stroke-width="1"/>
  <path d="M 374.0,455.0 C 373.0,457.0 379.0,463.0 380.0,467.0" fill="none" stroke="black" stroke-width="1"/>
  <path d="M 380.0,467.0 C 381.0,465.0 373.0,457.0 374.0,456.0" fill="none" stroke="black" stroke-width="1"/>
  <path d="M 589.0,452.0 C 590.0,453.0 588.0,454.0 588.0,456.0" fill="none" stroke="black" stroke-width="1"/>
  <path d="M 588.0,456.0 C 588.67,455.0 589.33,454.0 590.0,453.0" fill="none" stroke="black" stroke-width="1"/>
  <path d="M 361.0,452.0 C 367.67,456.0 368.0,456.33 362.0,453.0" fill="none" stroke="black" stroke-width="1"/>
  <path d="M 258.0,452.0 C 250.0,457.0 252.0,461.0 250.0,458.0" fill="none" stroke="black" stroke-width="1"/>
  <path d="M 250.0,458.0 C 253.33,454.67 255.67,453.0 257.0,453.0" fill="none" stroke="black" stroke-width="1"/>
  <path d="M 462.0,450.0 C 454.0,462.0 454.33,462.0 463.0,450.0" fill="none" stroke="black" stroke-width="1"/>
  <path d="M 332.0,449.0 C 345.0,461.0 363.0,471.0 350.0,464.0" fill="none" stroke="black" stroke-width="1"/>
  <path d="M 350.0,464.0 C 344.33,459.0 338.67,454.0 333.0,449.0" fill="none" stroke="black" stroke-width="1"/>
  <path d="M 298.0,446.0 C 324.0,471.0 356.0,489.0 350.0,493.0" fill="none" stroke="black" stroke-width="1"/>
  <path d="M 350.0,493.0 C 338.0,493.0 335.0,495.0 318.0,495.0" fill="none" stroke="black" stroke-width="1"/>
  <path d="M 318.0,495.0 C 298.0,491.0 318.0,495.0 335.0,495.0" fill="none" stroke="black" stroke-width="1"/>
  <path d="M 335.0,495.0 C 338.0,493.0 350.0,493.0 356.0,489.0" fill="none" stroke="black" stroke-width="1"/>
  <path d="M 356.0,489.0 C 359.0,490.0 325.0,471.0 299.0,446.0" fill="none" stroke="black" stroke-width="1"/>
  <path d="M 467.0,445.0 C 461.0,543.0 457.0,548.0 436.0,520.0" fill="none" stroke="black" stroke-width="1"/>
  <path d="M 436.0,520.0 C 446.0,476.0 435.0,519.0 457.0,549.0" fill="none" stroke="black" stroke-width="1"/>
  <path d="M 457.0,549.0 C 457.0,571.0 467.0,489.0 466.0,446.0" fill="none" stroke="black" stroke-width="1"/>
  <path d="M 336.0,444.0 C 348.0,447.33 348.33,447.33 337.0,444.0" fill="none" stroke="black" stroke-width="1"/>
  <path d="M 601.0,443.0 C 597.0,445.0 612.0,443.0 622.0,448.0" fill="none" stroke="black" stroke-width="1"/>
  <path d="M 622.0,448.0 C 627.0,455.0 627.0,466.0 626.0,467.0" fill="none" stroke="black" stroke-width="1"/>
  <path d="M 626.0,467.0 C 626.0,463.0 628.0,461.0 627.0,455.0" fill="none" stroke="black" stroke-width="1"/>
  <path d="M 627.0,455.0 C 620.0,446.0 615.0,444.0 614.0,445.0" fill="none" stroke="black" stroke-width="1"/>
  <path d="M 614.0,445.0 C 612.67,443.67 608.67,443.0 602.0,443.0" fill="none" stroke="black" stroke-width="1"/>
  <path d="M 592.0,443.0 C 593.0,444.0 588.0,450.0 593.0,444.0" fill="none" stroke="black" stroke-width="1"/>
  <path d="M 371.0,442.0 C 375.0,453.0 372.0,447.0 373.0,446.0" fill="none" stroke="black" stroke-width="1"/>
  <path d="M 373.0,446.0 C 371.67,444.67 371.33,443.67 372.0,443.0" fill="none" stroke="black" stroke-width="1"/>
  <path d="M 322.0,440.0 C 320.0,441.0 322.0,440.0 331.0,446.0" fill="none" stroke="black" stroke-width="1"/>
  <path d="M 331.0,446.0 C 334.0,445.0 331.0,446.0 323.0,441.0" fill="none" stroke="black" stroke-width="1"/>
  <path d="M 293.0,440.0 C 289.0,443.0 288.0,442.0 284.0,444.0" fill="none" stroke="black" stroke-width="1"/>
  <path d="M 284.0,444.0 C 278.0,444.0 276.0,446.0 274.0,445.0" fill="none" stroke="black" stroke-width="1"/>
  <path d="M 274.0,445.0 C 272.0,447.0 271.0,446.0 267.0,448.0" fill="none" stroke="black" stroke-width="1"/>
  <path d="M 267.0,448.0 C 271.0,446.0 272.0,447.0 274.0,445.0" fill="none" stroke="black" stroke-width="1"/>
  <path d="M 274.0,445.0 C 276.0,446.0 278.0,444.0 279.0,445.0" fill="none" stroke="black" stroke-width="1"/>
  <path d="M 279.0,445.0 C 283.0,443.0 289.0,443.0 292.0,441.0" fill="none" stroke="black" stroke-width="1"/>
  <path d="M 292.0,441.0 C 294.0,441.0 297.0,444.0 302.0,441.0" fill="none" stroke="black" stroke-width="1"/>
  <path d="M 302.0,441.0 C 318.0,442.0 302.0,441.0 297.0,443.0" fill="none" stroke="black" stroke-width="1"/>
  <path d="M 297.0,443.0 C 296.0,442.0 295.0,441.0 294.0,440.0" fill="none" stroke="black" stroke-width="1"/>
  <path d="M 546.0,439.0 C 542.0,446.0 540.0,456.0 540.0,478.0" fill="none" stroke="black" stroke-width="1"/>
  <path d="M 540.0,478.0 C 544.0,486.0 541.0,482.0 542.0,480.0" fill="none" stroke="black" stroke-width="1"/>
  <path d="M 542.0,480.0 C 540.0,468.0 543.0,448.0 542.0,446.0" fill="none" stroke="black" stroke-width="1"/>
  <path d="M 542.0,446.0 C 547.0,440.0 550.0,444.0 552.0,453.0" fill="none" stroke="black" stroke-width="1"/>
  <path d="M 552.0,453.0 C 552.0,470.0 553.0,467.0 552.0,449.0" fill="none" stroke="black" stroke-width="1"/>
  <path d="M 552.0,449.0 C 550.33,446.0 548.67,443.0 547.0,440.0" fill="none" stroke="black" stroke-width="1"/>
  <path d="M 508.0,438.0 C 506.0,442.0 506.0,455.0 509.0,462.0" fill="none" stroke="black" stroke-width="1"/>
  <path d="M 509.0,462.0 C 507.67,459.33 507.0,451.67 507.0,439.0" fill="none" stroke="black" stroke-width="1"/>
  <path d="M 366.0,429.0 C 367.33,432.33 367.33,432.67 366.0,430.0" fill="none" stroke="black" stroke-width="1"/>
  <path d="M 591.0,427.0 C 592.33,436.33 592.67,436.67 592.0,428.0" fill="none" stroke="black" stroke-width="1"/>
  <path d="M 518.0,426.0 C 513.0,429.0 510.0,434.0 517.0,427.0" fill="none" stroke="black" stroke-width="1"/>
  <path d="M 521.0,424.0 C 520.0,425.0 534.0,425.0 546.0,437.0" fill="none" stroke="black" stroke-width="1"/>
  <path d="M 546.0,437.0 C 549.0,432.0 546.0,435.0 534.0,425.0" fill="none" stroke="black" stroke-width="1"/>
  <path d="M 534.0,425.0 C 530.0,424.67 526.0,424.33 522.0,424.0" fill="none" stroke="black" stroke-width="1"/>
  <path d="M 561.0,420.0 C 556.0,423.0 550.0,430.0 560.0,421.0" fill="none" stroke="black" stroke-width="1"/>
  <path d="M 583.0,418.0 C 587.67,422.67 588.0,422.67 584.0,418.0" fill="none" stroke="black" stroke-width="1"/>
  <path d="M 564.0,418.0 C 563.33,418.67 563.67,418.67 565.0,418.0" fill="none" stroke="black" stroke-width="1"/>
  <path d="M 282.0,418.0 C 287.0,430.0 293.0,438.0 282.0,419.0" fill="none" stroke="black" stroke-width="1"/>
  <path d="M 497.0,417.0 C 484.0,426.0 472.0,439.0 484.0,427.0" fill="none" stroke="black" stroke-width="1"/>
  <path d="M 484.0,427.0 C 488.0,424.0 492.0,421.0 496.0,418.0" fill="none" stroke="black" stroke-width="1"/>
  <path d="M 576.0,415.0 C 567.0,417.0 581.0,417.0 577.0,416.0" fill="none" stroke="black" stroke-width="1"/>
  <path d="M 505.0,412.0 C 501.0,414.67 500.67,415.0 504.0,413.0" fill="none" stroke="black" stroke-width="1"/>
  <path d="M 305.0,411.0 C 315.0,430.0 322.0,437.0 313.0,426.0" fill="none" stroke="black" stroke-width="1"/>
  <path d="M 313.0,426.0 C 310.33,421.33 307.67,416.67 305.0,412.0" fill="none" stroke="black" stroke-width="1"/>
  <path d="M 716.0,406.0 C 723.0,426.0 756.0,469.0 764.0,484.0" fill="none" stroke="black" stroke-width="1"/>
  <path d="M 764.0,484.0 C 762.0,493.0 755.0,500.0 728.0,512.0" fill="none" stroke="black" stroke-width="1"/>
  <path d="M 728.0,512.0 C 726.0,523.0 726.0,517.0 732.0,510.0" fill="none" stroke="black" stroke-width="1"/>
  <path d="M 732.0,510.0 C 750.0,503.0 760.0,496.0 764.0,484.0" fill="none" stroke="black" stroke-width="1"/>
  <path d="M 764.0,484.0 C 761.0,476.0 726.0,430.0 716.0,407.0" fill="none" stroke="black" stroke-width="1"/>
  <path d="M 402.0,405.0 C 407.0,414.0 418.0,420.0 413.0,418.0" fill="none" stroke="black" stroke-width="1"/>
  <path d="M 413.0,418.0 C 409.33,414.0 405.67,410.0 402.0,406.0" fill="none" stroke="black" stroke-width="1"/>
  <path d="M 455.0,404.0 C 453.0,408.0 440.0,420.0 439.0,419.0" fill="none" stroke="black" stroke-width="1"/>
  <path d="M 439.0,419.0 C 435.0,422.0 431.0,421.0 429.0,423.0" fill="none" stroke="black" stroke-width="1"/>
  <path d="M 429.0,423.0 C 420.0,421.0 428.0,423.0 431.0,421.0" fill="none" stroke="black" stroke-width="1"/>
  <path d="M 431.0,421.0 C 438.0,421.0 445.0,417.0 455.0,405.0" fill="none" stroke="black" stroke-width="1"/>
  <path d="M 523.0,403.0 C 517.0,406.0 525.0,403.0 524.0,404.0" fill="none" stroke="black" stroke-width="1"/>
  <path d="M 621.0,391.0 C 619.0,393.0 618.0,392.0 613.0,395.0" fill="none" stroke="black" stroke-width="1"/>
  <path d="M 613.0,395.0 C 611.0,394.0 609.0,396.0 606.0,395.0" fill="none" stroke="black" stroke-width="1"/>
  <path d="M 606.0,395.0 C 604.0,397.0 599.0,396.0 591.0,398.0" fill="none" stroke="black" stroke-width="1"/>
  <path d="M 591.0,398.0 C 550.0,398.0 589.0,399.0 604.0,397.0" fill="none" stroke="black" stroke-width="1"/>
  <path d="M 604.0,397.0 C 606.0,395.0 609.0,396.0 611.0,394.0" fill="none" stroke="black" stroke-width="1"/>
  <path d="M 611.0,394.0 C 613.0,395.0 623.0,391.0 622.0,392.0" fill="none" stroke="black" stroke-width="1"/>
  <path d="M 555.0,385.0 C 541.0,397.0 532.0,400.0 542.0,396.0" fill="none" stroke="black" stroke-width="1"/>
  <path d="M 542.0,396.0 C 548.0,398.0 544.0,395.0 554.0,386.0" fill="none" stroke="black" stroke-width="1"/>
  <path d="M 488.0,382.0 C 502.0,386.0 510.0,384.0 512.0,385.0" fill="none" stroke="black" stroke-width="1"/>
  <path d="M 512.0,385.0 C 516.0,383.0 505.0,386.0 498.0,384.0" fill="none" stroke="black" stroke-width="1"/>
  <path d="M 498.0,384.0 C 495.0,385.0 490.0,382.0 489.0,383.0" fill="none" stroke="black" stroke-width="1"/>
  <path d="M 361.0,381.0 C 365.0,383.0 368.0,382.0 370.0,384.0" fill="none" stroke="black" stroke-width="1"/>
  <path d="M 370.0,384.0 C 384.0,384.0 393.0,381.0 390.0,381.0" fill="none" stroke="black" stroke-width="1"/>
  <path d="M 390.0,381.0 C 388.0,383.0 385.0,382.0 370.0,384.0" fill="none" stroke="black" stroke-width="1"/>
  <path d="M 370.0,384.0 C 368.67,382.67 366.0,382.0 362.0,382.0" fill="none" stroke="black" stroke-width="1"/>
  <path d="M 461.0,380.0 C 462.0,391.0 456.0,402.0 461.0,393.0" fill="none" stroke="black" stroke-width="1"/>
  <path d="M 461.0,393.0 C 464.0,398.0 466.0,430.0 470.0,440.0" fill="none" stroke="black" stroke-width="1"/>
  <path d="M 470.0,440.0 C 468.0,443.0 470.0,440.0 466.0,430.0" fill="none" stroke="black" stroke-width="1"/>
  <path d="M 466.0,430.0 C 467.0,416.0 465.0,399.0 461.0,393.0" fill="none" stroke="black" stroke-width="1"/>
  <path d="M 461.0,393.0 C 461.0,389.0 461.0,385.0 461.0,381.0" fill="none" stroke="black" stroke-width="1"/>
  <path d="M 409.0,374.0 C 407.67,375.33 407.33,375.67 408.0,375.0" fill="none" stroke="black" stroke-width="1"/>
  <path d="M 403.0,374.0 C 398.0,380.0 397.0,379.0 400.0,382.0" fill="none" stroke="black" stroke-width="1"/>
  <path d="M 400.0,382.0 C 399.0,397.0 401.0,403.0 399.0,397.0" fill="none" stroke="black" stroke-width="1"/>
  <path d="M 399.0,397.0 C 399.0,380.0 404.0,375.0 405.0,376.0" fill="none" stroke="black" stroke-width="1"/>
  <path d="M 405.0,376.0 C 404.67,375.67 404.33,375.33 404.0,375.0" fill="none" stroke="black" stroke-width="1"/>
  <path d="M 530.0,370.0 C 527.0,375.0 518.0,382.0 522.0,380.0" fill="none" stroke="black" stroke-width="1"/>
  <path d="M 522.0,380.0 C 524.67,377.0 527.33,374.0 530.0,371.0" fill="none" stroke="black" stroke-width="1"/>
  <path d="M 590.0,368.0 C 566.0,382.0 588.0,369.0 589.0,370.0" fill="none" stroke="black" stroke-width="1"/>
  <path d="M 589.0,370.0 C 591.0,368.67 591.67,368.33 591.0,369.0" fill="none" stroke="black" stroke-width="1"/>
  <path d="M 405.0,368.0 C 402.0,372.0 404.0,371.0 404.0,369.0" fill="none" stroke="black" stroke-width="1"/>
  <path d="M 595.0,366.0 C 594.0,367.0 597.0,366.0 596.0,367.0" fill="none" stroke="black" stroke-width="1"/>
  <path d="M 343.0,366.0 C 348.0,373.0 347.0,374.0 348.0,373.0" fill="none" stroke="black" stroke-width="1"/>
  <path d="M 348.0,373.0 C 357.0,379.0 352.0,376.0 344.0,367.0" fill="none" stroke="black" stroke-width="1"/>
  <path d="M 458.0,364.0 C 457.0,366.0 460.0,372.0 460.0,378.0" fill="none" stroke="black" stroke-width="1"/>
  <path d="M 460.0,378.0 C 460.0,372.0 457.0,366.0 458.0,365.0" fill="none" stroke="black" stroke-width="1"/>
  <path d="M 462.0,362.0 C 473.0,374.0 486.0,381.0 474.0,374.0" fill="none" stroke="black" stroke-width="1"/>
  <path d="M 474.0,374.0 C 470.33,370.33 466.67,366.67 463.0,363.0" fill="none" stroke="black" stroke-width="1"/>
  <path d="M 309.0,362.0 C 329.0,375.0 340.0,386.0 354.0,405.0" fill="none" stroke="black" stroke-width="1"/>
  <path d="M 354.0,405.0 C 365.0,427.0 356.0,408.0 345.0,391.0" fill="none" stroke="black" stroke-width="1"/>
  <path d="M 345.0,391.0 C 332.33,378.33 320.67,368.67 310.0,362.0" fill="none" stroke="black" stroke-width="1"/>
  <path d="M 571.0,359.0 C 563.0,372.0 554.0,382.0 558.0,379.0" fill="none" stroke="black" stroke-width="1"/>
  <path d="M 558.0,379.0 C 562.0,372.67 566.0,366.33 570.0,360.0" fill="none" stroke="black" stroke-width="1"/>
  <path d="M 300.0,359.0 C 297.0,370.0 297.0,386.0 299.0,388.0" fill="none" stroke="black" stroke-width="1"/>
  <path d="M 299.0,388.0 C 298.0,392.0 300.0,394.0 299.0,396.0" fill="none" stroke="black" stroke-width="1"/>
  <path d="M 299.0,396.0 C 301.0,398.0 300.0,399.0 303.0,407.0" fill="none" stroke="black" stroke-width="1"/>
  <path d="M 303.0,407.0 C 300.0,399.0 301.0,398.0 299.0,396.0" fill="none" stroke="black" stroke-width="1"/>
  <path d="M 299.0,396.0 C 300.0,394.0 298.0,392.0 299.0,388.0" fill="none" stroke="black" stroke-width="1"/>
  <path d="M 299.0,388.0 C 297.0,386.0 297.0,370.0 299.0,362.0" fill="none" stroke="black" stroke-width="1"/>
  <path d="M 299.0,362.0 C 301.67,360.0 302.33,359.0 301.0,359.0" fill="none" stroke="black" stroke-width="1"/>
  <path d="M 637.0,356.0 C 622.0,358.0 620.0,360.0 617.0,359.0" fill="none" stroke="black" stroke-width="1"/>
  <path d="M 617.0,359.0 C 615.0,361.0 613.0,360.0 611.0,362.0" fill="none" stroke="black" stroke-width="1"/>
  <path d="M 611.0,362.0 C 609.0,361.0 599.0,365.0 609.0,361.0" fill="none" stroke="black" stroke-width="1"/>
  <path d="M 609.0,361.0 C 615.0,361.0 617.0,359.0 620.0,360.0" fill="none" stroke="black" stroke-width="1"/>
  <path d="M 620.0,360.0 C 622.0,358.0 655.0,357.0 658.0,360.0" fill="none" stroke="black" stroke-width="1"/>
  <path d="M 658.0,360.0 C 651.0,371.0 641.0,381.0 628.0,389.0" fill="none" stroke="black" stroke-width="1"/>
  <path d="M 628.0,389.0 C 648.0,376.0 658.0,361.0 653.0,356.0" fill="none" stroke="black" stroke-width="1"/>
  <path d="M 653.0,356.0 C 648.0,356.0 643.0,356.0 638.0,356.0" fill="none" stroke="black" stroke-width="1"/>
  <path d="M 531.0,349.0 C 533.0,353.0 532.0,365.0 532.0,350.0" fill="none" stroke="black" stroke-width="1"/>
  <path d="M 714.0,346.0 C 714.0,352.0 716.0,357.0 715.0,404.0" fill="none" stroke="black" stroke-width="1"/>
  <path d="M 715.0,404.0 C 715.67,372.67 715.33,353.67 714.0,347.0" fill="none" stroke="black" stroke-width="1"/>
  <path d="M 439.0,346.0 C 436.0,351.0 419.0,368.0 413.0,372.0" fill="none" stroke="black" stroke-width="1"/>
  <path d="M 413.0,372.0 C 424.0,364.0 433.0,355.0 438.0,347.0" fill="none" stroke="black" stroke-width="1"/>
  <path d="M 443.0,343.0 C 445.67,343.0 446.0,343.0 444.0,343.0" fill="none" stroke="black" stroke-width="1"/>
  <path d="M 341.0,341.0 C 341.0,344.0 339.0,346.0 340.0,359.0" fill="none" stroke="black" stroke-width="1"/>
  <path d="M 340.0,359.0 C 339.33,350.33 339.67,344.67 341.0,342.0" fill="none" stroke="black" stroke-width="1"/>
  <path d="M 713.0,340.0 C 713.0,342.67 713.0,343.0 713.0,341.0" fill="none" stroke="black" stroke-width="1"/>
  <path d="M 428.0,338.0 C 417.33,350.0 417.0,350.33 427.0,339.0" fill="none" stroke="black" stroke-width="1"/>
  <path d="M 712.0,336.0 C 712.0,336.33 712.0,336.67 712.0,337.0" fill="none" stroke="black" stroke-width="1"/>
  <path d="M 277.0,336.0 C 274.0,353.0 274.0,388.0 276.0,392.0" fill="none" stroke="black" stroke-width="1"/>
  <path d="M 276.0,392.0 C 275.0,396.0 277.0,398.0 276.0,400.0" fill="none" stroke="black" stroke-width="1"/>
  <path d="M 276.0,400.0 C 278.0,403.0 277.0,405.0 279.0,407.0" fill="none" stroke="black" stroke-width="1"/>
  <path d="M 279.0,407.0 C 279.0,410.0 279.0,407.0 277.0,405.0" fill="none" stroke="black" stroke-width="1"/>
  <path d="M 277.0,405.0 C 278.0,403.0 276.0,400.0 277.0,398.0" fill="none" stroke="black" stroke-width="1"/>
  <path d="M 277.0,398.0 C 275.0,396.0 276.0,392.0 274.0,388.0" fill="none" stroke="black" stroke-width="1"/>
  <path d="M 274.0,388.0 C 274.0,364.67 275.0,347.67 277.0,337.0" fill="none" stroke="black" stroke-width="1"/>
  <path d="M 585.0,335.0 C 586.33,336.33 586.67,336.67 586.0,336.0" fill="none" stroke="black" stroke-width="1"/>
  <path d="M 426.0,332.0 C 438.0,343.0 441.0,343.0 440.0,344.0" fill="none" stroke="black" stroke-width="1"/>
  <path d="M 440.0,344.0 C 435.33,340.33 430.67,336.67 426.0,333.0" fill="none" stroke="black" stroke-width="1"/>
  <path d="M 278.0,332.0 C 278.0,332.33 278.0,332.67 278.0,333.0" fill="none" stroke="black" stroke-width="1"/>
  <path d="M 461.0,331.0 C 462.0,333.0 452.0,343.0 449.0,344.0" fill="none" stroke="black" stroke-width="1"/>
  <path d="M 449.0,344.0 C 458.0,359.0 450.0,345.0 456.0,339.0" fill="none" stroke="black" stroke-width="1"/>
  <path d="M 456.0,339.0 C 457.0,340.0 456.0,339.0 462.0,332.0" fill="none" stroke="black" stroke-width="1"/>
  <path d="M 398.0,327.0 C 408.0,331.0 410.0,330.0 412.0,332.0" fill="none" stroke="black" stroke-width="1"/>
  <path d="M 412.0,332.0 C 415.0,331.0 417.0,333.0 423.0,333.0" fill="none" stroke="black" stroke-width="1"/>
  <path d="M 423.0,333.0 C 417.0,333.0 415.0,331.0 412.0,332.0" fill="none" stroke="black" stroke-width="1"/>
  <path d="M 412.0,332.0 C 407.0,329.0 405.0,330.0 403.0,328.0" fill="none" stroke="black" stroke-width="1"/>
  <path d="M 403.0,328.0 C 401.67,328.0 400.33,328.0 399.0,328.0" fill="none" stroke="black" stroke-width="1"/>
  <path d="M 709.0,326.0 C 710.33,331.33 710.33,331.67 709.0,327.0" fill="none" stroke="black" stroke-width="1"/>
  <path d="M 599.0,326.0 C 589.0,337.0 593.0,336.0 597.0,339.0" fill="none" stroke="black" stroke-width="1"/>
  <path d="M 597.0,339.0 C 602.0,339.0 610.0,337.0 614.0,334.0" fill="none" stroke="black" stroke-width="1"/>
  <path d="M 614.0,334.0 C 604.0,338.0 597.0,339.0 592.0,335.0" fill="none" stroke="black" stroke-width="1"/>
  <path d="M 592.0,335.0 C 594.0,332.33 596.0,329.67 598.0,327.0" fill="none" stroke="black" stroke-width="1"/>
  <path d="M 426.0,325.0 C 426.67,328.33 426.67,328.67 426.0,326.0" fill="none" stroke="black" stroke-width="1"/>
  <path d="M 501.0,324.0 C 505.0,327.0 501.0,331.0 482.0,334.0" fill="none" stroke="black" stroke-width="1"/>
  <path d="M 482.0,334.0 C 464.0,333.0 496.0,333.0 500.0,332.0" fill="none" stroke="black" stroke-width="1"/>
  <path d="M 500.0,332.0 C 507.0,327.0 510.0,327.0 520.0,335.0" fill="none" stroke="black" stroke-width="1"/>
  <path d="M 520.0,335.0 C 530.0,347.0 527.0,341.0 513.0,329.0" fill="none" stroke="black" stroke-width="1"/>
  <path d="M 513.0,329.0 C 517.0,325.0 513.0,328.0 508.0,328.0" fill="none" stroke="black" stroke-width="1"/>
  <path d="M 508.0,328.0 C 506.0,326.67 504.0,325.33 502.0,324.0" fill="none" stroke="black" stroke-width="1"/>
  <path d="M 280.0,324.0 C 279.33,328.0 279.33,328.33 280.0,325.0" fill="none" stroke="black" stroke-width="1"/>
  <path d="M 586.0,321.0 C 583.0,326.0 584.0,327.0 581.0,330.0" fill="none" stroke="black" stroke-width="1"/>
  <path d="M 581.0,330.0 C 584.33,325.33 585.67,322.67 585.0,322.0" fill="none" stroke="black" stroke-width="1"/>
  <path d="M 474.0,320.0 C 466.0,323.0 473.0,321.0 489.0,320.0" fill="none" stroke="black" stroke-width="1"/>
  <path d="M 489.0,320.0 C 491.0,322.0 499.0,323.0 494.0,321.0" fill="none" stroke="black" stroke-width="1"/>
  <path d="M 494.0,321.0 C 491.0,322.0 489.0,320.0 475.0,320.0" fill="none" stroke="black" stroke-width="1"/>
  <path d="M 361.0,320.0 C 351.0,326.0 343.0,337.0 352.0,326.0" fill="none" stroke="black" stroke-width="1"/>
  <path d="M 352.0,326.0 C 355.33,324.0 358.67,322.0 362.0,320.0" fill="none" stroke="black" stroke-width="1"/>
  <path d="M 382.0,319.0 C 384.0,320.33 384.33,320.33 383.0,319.0" fill="none" stroke="black" stroke-width="1"/>
  <path d="M 365.0,318.0 C 364.0,319.0 368.0,318.0 366.0,319.0" fill="none" stroke="black" stroke-width="1"/>
  <path d="M 630.0,317.0 C 623.0,327.0 616.0,333.0 626.0,324.0" fill="none" stroke="black" stroke-width="1"/>
  <path d="M 626.0,324.0 C 627.0,322.0 628.0,320.0 629.0,318.0" fill="none" stroke="black" stroke-width="1"/>
  <path d="M 282.0,317.0 C 281.33,320.33 281.33,320.67 282.0,318.0" fill="none" stroke="black" stroke-width="1"/>
  <path d="M 386.0,314.0 C 381.0,317.0 376.0,315.0 370.0,317.0" fill="none" stroke="black" stroke-width="1"/>
  <path d="M 370.0,317.0 C 373.0,315.0 382.0,317.0 386.0,314.0" fill="none" stroke="black" stroke-width="1"/>
  <path d="M 386.0,314.0 C 399.0,316.0 405.0,315.0 407.0,317.0" fill="none" stroke="black" stroke-width="1"/>
  <path d="M 407.0,317.0 C 420.0,320.0 410.0,316.0 407.0,317.0" fill="none" stroke="black" stroke-width="1"/>
  <path d="M 407.0,317.0 C 405.67,315.67 399.0,314.67 387.0,314.0" fill="none" stroke="black" stroke-width="1"/>
  <path d="M 591.0,312.0 C 589.67,314.0 589.33,314.33 590.0,313.0" fill="none" stroke="black" stroke-width="1"/>
  <path d="M 432.0,308.0 C 435.0,311.0 425.0,323.0 435.0,311.0" fill="none" stroke="black" stroke-width="1"/>
  <path d="M 435.0,311.0 C 439.0,311.0 443.0,308.0 445.0,309.0" fill="none" stroke="black" stroke-width="1"/>
  <path d="M 445.0,309.0 C 443.0,308.0 436.0,312.0 433.0,309.0" fill="none" stroke="black" stroke-width="1"/>
  <path d="M 540.0,304.0 C 538.0,308.0 526.0,320.0 519.0,324.0" fill="none" stroke="black" stroke-width="1"/>
  <path d="M 519.0,324.0 C 525.67,320.0 532.67,313.67 540.0,305.0" fill="none" stroke="black" stroke-width="1"/>
  <path d="M 428.0,299.0 C 428.67,301.0 429.0,301.33 429.0,300.0" fill="none" stroke="black" stroke-width="1"/>
  <path d="M 359.0,297.0 C 364.0,306.0 373.0,313.0 364.0,305.0" fill="none" stroke="black" stroke-width="1"/>
  <path d="M 364.0,305.0 C 362.33,302.67 360.67,300.33 359.0,298.0" fill="none" stroke="black" stroke-width="1"/>
  <path d="M 573.0,293.0 C 570.0,300.0 570.0,318.0 575.0,328.0" fill="none" stroke="black" stroke-width="1"/>
  <path d="M 575.0,328.0 C 583.0,335.0 579.0,340.0 580.0,341.0" fill="none" stroke="black" stroke-width="1"/>
  <path d="M 580.0,341.0 C 577.0,347.0 580.0,341.0 579.0,340.0" fill="none" stroke="black" stroke-width="1"/>
  <path d="M 579.0,340.0 C 583.0,334.0 575.0,327.0 570.0,318.0" fill="none" stroke="black" stroke-width="1"/>
  <path d="M 570.0,318.0 C 570.0,307.0 573.0,296.0 572.0,294.0" fill="none" stroke="black" stroke-width="1"/>
  <path d="M 619.0,286.0 C 614.33,289.33 614.0,289.67 618.0,287.0" fill="none" stroke="black" stroke-width="1"/>
  <path d="M 435.0,286.0 C 440.0,295.0 439.0,296.0 443.0,305.0" fill="none" stroke="black" stroke-width="1"/>
  <path d="M 443.0,305.0 C 443.0,303.0 440.67,297.0 436.0,287.0" fill="none" stroke="black" stroke-width="1"/>
  <path d="M 628.0,282.0 C 632.0,282.0 638.0,288.0 634.0,309.0" fill="none" stroke="black" stroke-width="1"/>
  <path d="M 634.0,309.0 C 637.0,303.0 638.0,288.0 635.0,284.0" fill="none" stroke="black" stroke-width="1"/>
  <path d="M 635.0,284.0 C 635.67,283.33 633.67,283.0 629.0,283.0" fill="none" stroke="black" stroke-width="1"/>
  <path d="M 626.0,281.0 C 622.67,283.67 622.67,284.0 626.0,282.0" fill="none" stroke="black" stroke-width="1"/>
  <path d="M 542.0,281.0 C 542.0,284.0 544.0,286.0 542.0,296.0" fill="none" stroke="black" stroke-width="1"/>
  <path d="M 542.0,296.0 C 543.0,298.0 541.0,302.0 544.0,295.0" fill="none" stroke="black" stroke-width="1"/>
  <path d="M 544.0,295.0 C 544.0,286.0 542.0,284.0 543.0,282.0" fill="none" stroke="black" stroke-width="1"/>
  <path d="M 483.0,278.0 C 483.0,282.0 478.0,291.0 484.0,279.0" fill="none" stroke="black" stroke-width="1"/>
  <path d="M 422.0,277.0 C 423.0,287.0 427.0,297.0 422.0,278.0" fill="none" stroke="black" stroke-width="1"/>
  <path d="M 479.0,275.0 C 465.0,288.0 451.0,308.0 447.0,310.0" fill="none" stroke="black" stroke-width="1"/>
  <path d="M 447.0,310.0 C 450.0,309.0 460.0,318.0 463.0,323.0" fill="none" stroke="black" stroke-width="1"/>
  <path d="M 463.0,323.0 C 461.0,329.0 464.0,323.0 459.0,316.0" fill="none" stroke="black" stroke-width="1"/>
  <path d="M 459.0,316.0 C 471.0,303.0 476.0,295.0 459.0,316.0" fill="none" stroke="black" stroke-width="1"/>
  <path d="M 459.0,316.0 C 450.0,309.0 464.0,290.0 479.0,276.0" fill="none" stroke="black" stroke-width="1"/>
  <path d="M 602.0,272.0 C 602.0,276.0 604.0,278.0 604.0,289.0" fill="none" stroke="black" stroke-width="1"/>
  <path d="M 604.0,289.0 C 607.0,293.0 592.0,310.0 600.0,300.0" fill="none" stroke="black" stroke-width="1"/>
  <path d="M 600.0,300.0 C 602.0,299.0 604.0,301.0 604.0,311.0" fill="none" stroke="black" stroke-width="1"/>
  <path d="M 604.0,311.0 C 600.0,324.0 603.0,318.0 605.0,307.0" fill="none" stroke="black" stroke-width="1"/>
  <path d="M 605.0,307.0 C 603.0,298.0 607.0,294.0 604.0,289.0" fill="none" stroke="black" stroke-width="1"/>
  <path d="M 604.0,289.0 C 604.67,285.0 604.0,279.67 602.0,273.0" fill="none" stroke="black" stroke-width="1"/>
  <path d="M 426.0,272.0 C 428.0,274.67 428.33,275.0 427.0,273.0" fill="none" stroke="black" stroke-width="1"/>
  <path d="M 591.0,269.0 C 580.0,279.0 574.0,291.0 582.0,277.0" fill="none" stroke="black" stroke-width="1"/>
  <path d="M 582.0,277.0 C 584.67,274.67 587.33,272.33 590.0,270.0" fill="none" stroke="black" stroke-width="1"/>
  <path d="M 358.0,269.0 C 355.0,278.0 355.0,286.0 358.0,295.0" fill="none" stroke="black" stroke-width="1"/>
  <path d="M 358.0,295.0 C 355.0,286.0 357.0,275.0 356.0,273.0" fill="none" stroke="black" stroke-width="1"/>
  <path d="M 356.0,273.0 C 357.33,271.67 357.67,270.67 357.0,270.0" fill="none" stroke="black" stroke-width="1"/>
  <path d="M 486.0,266.0 C 488.0,268.0 482.0,274.0 483.0,276.0" fill="none" stroke="black" stroke-width="1"/>
  <path d="M 483.0,276.0 C 482.0,274.0 488.0,268.0 487.0,267.0" fill="none" stroke="black" stroke-width="1"/>
  <path d="M 527.0,265.0 C 531.0,267.0 539.0,275.0 541.0,279.0" fill="none" stroke="black" stroke-width="1"/>
  <path d="M 541.0,279.0 C 537.67,273.0 533.33,268.33 528.0,265.0" fill="none" stroke="black" stroke-width="1"/>
  <path d="M 311.0,264.0 C 303.0,273.0 294.0,288.0 284.0,312.0" fill="none" stroke="black" stroke-width="1"/>
  <path d="M 284.0,312.0 C 290.67,296.67 299.33,281.0 310.0,265.0" fill="none" stroke="black" stroke-width="1"/>
  <path d="M 613.0,263.0 C 603.0,270.0 597.0,266.0 593.0,268.0" fill="none" stroke="black" stroke-width="1"/>
  <path d="M 593.0,268.0 C 597.0,266.0 603.0,270.0 611.0,264.0" fill="none" stroke="black" stroke-width="1"/>
  <path d="M 611.0,264.0 C 612.0,265.0 618.0,263.0 626.0,272.0" fill="none" stroke="black" stroke-width="1"/>
  <path d="M 626.0,272.0 C 625.0,279.0 626.0,272.0 623.0,266.0" fill="none" stroke="black" stroke-width="1"/>
  <path d="M 623.0,266.0 C 619.67,264.0 616.67,263.0 614.0,263.0" fill="none" stroke="black" stroke-width="1"/>
  <path d="M 509.0,261.0 C 506.0,263.0 503.0,262.0 496.0,265.0" fill="none" stroke="black" stroke-width="1"/>
  <path d="M 496.0,265.0 C 500.0,263.0 506.0,263.0 509.0,261.0" fill="none" stroke="black" stroke-width="1"/>
  <path d="M 509.0,261.0 C 516.0,261.0 518.0,263.0 521.0,262.0" fill="none" stroke="black" stroke-width="1"/>
  <path d="M 521.0,262.0 C 525.0,264.0 521.0,262.0 518.0,263.0" fill="none" stroke="black" stroke-width="1"/>
  <path d="M 518.0,263.0 C 516.67,261.67 514.0,261.0 510.0,261.0" fill="none" stroke="black" stroke-width="1"/>
  <path d="M 426.0,247.0 C 423.0,254.0 423.0,259.0 420.0,263.0" fill="none" stroke="black" stroke-width="1"/>
  <path d="M 420.0,263.0 C 411.0,254.0 400.0,249.0 413.0,256.0" fill="none" stroke="black" stroke-width="1"/>
  <path d="M 413.0,256.0 C 421.0,264.0 423.0,269.0 422.0,275.0" fill="none" stroke="black" stroke-width="1"/>
  <path d="M 422.0,275.0 C 424.0,270.0 422.0,268.0 421.0,262.0" fill="none" stroke="black" stroke-width="1"/>
  <path d="M 421.0,262.0 C 424.0,258.0 424.0,251.0 426.0,249.0" fill="none" stroke="black" stroke-width="1"/>
  <path d="M 426.0,249.0 C 425.67,248.67 425.33,248.33 425.0,248.0" fill="none" stroke="black" stroke-width="1"/>
  <path d="M 384.0,247.0 C 370.0,253.0 361.0,262.0 359.0,267.0" fill="none" stroke="black" stroke-width="1"/>
  <path d="M 359.0,267.0 C 367.0,256.0 380.0,248.0 398.0,248.0" fill="none" stroke="black" stroke-width="1"/>
  <path d="M 398.0,248.0 C 393.67,247.67 389.33,247.33 385.0,247.0" fill="none" stroke="black" stroke-width="1"/>
  <path d="M 484.0,246.0 C 486.0,250.0 486.0,264.0 487.0,256.0" fill="none" stroke="black" stroke-width="1"/>
  <path d="M 487.0,256.0 C 486.0,250.0 484.0,248.0 485.0,247.0" fill="none" stroke="black" stroke-width="1"/>
  <path d="M 648.0,239.0 C 676.0,266.0 684.0,276.0 699.0,301.0" fill="none" stroke="black" stroke-width="1"/>
  <path d="M 699.0,301.0 C 708.0,324.0 702.0,307.0 693.0,289.0" fill="none" stroke="black" stroke-width="1"/>
  <path d="M 693.0,289.0 C 679.0,270.33 664.33,254.0 649.0,240.0" fill="none" stroke="black" stroke-width="1"/>
  <path d="M 644.0,236.0 C 645.33,237.33 645.67,237.67 645.0,237.0" fill="none" stroke="black" stroke-width="1"/>
  <path d="M 640.0,233.0 C 641.33,234.33 641.67,234.67 641.0,234.0" fill="none" stroke="black" stroke-width="1"/>
  <path d="M 442.0,228.0 C 430.0,239.0 427.0,245.0 432.0,237.0" fill="none" stroke="black" stroke-width="1"/>
  <path d="M 432.0,237.0 C 435.67,234.0 439.33,231.0 443.0,228.0" fill="none" stroke="black" stroke-width="1"/>
  <path d="M 466.0,227.0 C 472.0,230.0 480.0,238.0 483.0,244.0" fill="none" stroke="black" stroke-width="1"/>
  <path d="M 483.0,244.0 C 479.0,236.67 473.67,231.0 467.0,227.0" fill="none" stroke="black" stroke-width="1"/>
  <path d="M 455.0,224.0 C 453.0,226.0 449.0,225.0 445.0,227.0" fill="none" stroke="black" stroke-width="1"/>
  <path d="M 445.0,227.0 C 449.0,225.0 453.0,226.0 455.0,224.0" fill="none" stroke="black" stroke-width="1"/>
  <path d="M 455.0,224.0 C 459.0,226.0 464.0,226.0 456.0,224.0" fill="none" stroke="black" stroke-width="1"/>
  <path d="M 570.0,201.0 C 598.0,210.0 628.0,225.0 635.0,230.0" fill="none" stroke="black" stroke-width="1"/>
  <path d="M 635.0,230.0 C 627.0,224.0 610.0,215.0 591.0,207.0" fill="none" stroke="black" stroke-width="1"/>
  <path d="M 591.0,207.0 C 584.33,205.0 577.67,203.0 571.0,201.0" fill="none" stroke="black" stroke-width="1"/>
  <path d="M 406.0,201.0 C 381.0,210.0 356.0,223.0 331.0,242.0" fill="none" stroke="black" stroke-width="1"/>
  <path d="M 331.0,242.0 C 312.0,262.0 331.0,242.0 352.0,226.0" fill="none" stroke="black" stroke-width="1"/>
  <path d="M 352.0,226.0 C 373.33,214.67 391.67,206.33 407.0,201.0" fill="none" stroke="black" stroke-width="1"/>
  <path d="M 566.0,200.0 C 566.33,200.0 566.67,200.0 567.0,200.0" fill="none" stroke="black" stroke-width="1"/>
  <path d="M 562.0,199.0 C 562.33,199.0 562.67,199.0 563.0,199.0" fill="none" stroke="black" stroke-width="1"/>
  <path d="M 413.0,199.0 C 411.0,199.67 411.33,199.67 414.0,199.0" fill="none" stroke="black" stroke-width="1"/>
  <path d="M 417.0,198.0 C 417.33,198.0 417.67,198.0 418.0,198.0" fill="none" stroke="black" stroke-width="1"/>
  <path d="M 553.0,197.0 C 557.67,197.67 558.0,197.67 554.0,197.0" fill="none" stroke="black" stroke-width="1"/>
  <path d="M 421.0,197.0 C 423.0,197.0 423.33,197.0 422.0,197.0" fill="none" stroke="black" stroke-width="1"/>
  <path d="M 547.0,196.0 C 549.67,196.0 550.0,196.0 548.0,196.0" fill="none" stroke="black" stroke-width="1"/>
  <path d="M 541.0,195.0 C 543.67,195.0 544.0,195.0 542.0,195.0" fill="none" stroke="black" stroke-width="1"/>
  <path d="M 430.0,195.0 C 426.0,196.0 434.0,195.0 431.0,195.0" fill="none" stroke="black" stroke-width="1"/>
  <path d="M 436.0,194.0 C 439.33,194.0 439.67,194.0 437.0,194.0" fill="none" stroke="black" stroke-width="1"/>
  <path d="M 443.0,193.0 C 446.33,193.0 446.67,193.0 444.0,193.0" fill="none" stroke="black" stroke-width="1"/>
  <path d="M 471.0,190.0 C 450.0,192.0 471.0,190.0 505.0,190.0" fill="none" stroke="black" stroke-width="1"/>
  <path d="M 505.0,190.0 C 539.0,194.0 505.0,190.0 472.0,191.0" fill="none" stroke="black" stroke-width="1"/>
</svg>