<svg xmlns="http://www.w3.org/2000/svg" viewBox="0 0 1024 1024" width="1024" height="1024">
<g fill="none" stroke="#000000" stroke-width="5.6" stroke-linecap="round" stroke-linejoin="round">
  <path d="M 543.6,325.1 C 556.3,321.3 595.1,302.3 620.0,302.6 C 644.9,302.8 672.7,312.0 693.0,326.7 C 713.3,341.5 732.6,366.9 741.8,391.0 C 751.0,415.1 747.1,458.0 748.2,471.4"/>
  <path d="M 535.4,327.8 C 524.2,325.0 489.6,312.0 468.0,311.2 C 446.4,310.5 424.7,314.6 406.0,323.2 C 387.3,331.8 368.5,346.8 356.1,363.0 C 343.7,379.2 335.8,410.9 331.7,420.4"/>
  <path d="M 543.1,333.1 C 548.2,338.4 565.9,353.8 573.9,365.0 C 581.9,376.2 588.2,394.5 591.1,400.4"/>
  <path d="M 596.6,403.6 C 610.0,405.1 655.7,401.1 677.0,412.4 C 698.3,423.7 716.3,461.6 724.2,471.4"/>
  <path d="M 588.4,407.0 C 585.7,408.5 577.0,412.9 572.0,416.0 C 567.0,419.1 560.8,424.2 558.6,425.8"/>
  <path d="M 326.4,423.5 C 315.2,424.7 278.0,421.3 259.0,430.8 C 240.0,440.2 220.6,461.1 212.7,480.0 C 204.9,498.9 204.7,525.9 211.9,544.0 C 219.1,562.1 164.0,580.3 256.0,588.6 C 348.0,596.9 671.1,603.1 764.0,594.0 C 856.9,584.9 815.1,553.6 813.2,534.0 C 811.3,514.4 762.7,486.0 752.6,476.3"/>
  <path d="M 335.6,429.2 C 338.8,427.9 353.0,440.5 356.1,446.1 C 359.3,451.7 357.9,461.3 354.6,462.5 C 351.3,463.8 339.7,459.3 336.6,453.8 C 333.4,448.2 332.3,430.5 335.6,429.2 Z"/>
  <path d="M 725.3,480.6 C 722.4,477.0 700.8,483.0 694.2,487.6 C 687.7,492.1 683.0,504.2 685.9,507.8 C 688.8,511.3 705.1,513.4 711.6,508.9 C 718.2,504.3 728.2,484.1 725.3,480.6 Z"/>
  <path d="M 404.4,622.6 C 412.5,622.9 429.1,662.9 429.2,676.0 C 429.3,689.1 413.2,701.4 405.0,701.0 C 396.8,700.7 380.4,687.1 380.3,674.0 C 380.1,660.9 396.2,622.3 404.4,622.6 Z"/>
  <path d="M 507.5,622.5 C 515.6,622.5 532.2,661.9 532.4,675.0 C 532.7,688.1 517.2,701.1 509.0,701.1 C 500.8,701.1 483.7,688.1 483.4,675.0 C 483.2,661.9 499.3,622.5 507.5,622.5 Z"/>
  <path d="M 609.5,622.5 C 617.7,622.5 634.9,661.9 635.1,675.0 C 635.4,688.1 619.3,701.0 611.0,701.0 C 602.7,701.0 585.7,688.1 585.4,675.0 C 585.2,661.9 601.2,622.5 609.5,622.5 Z"/>
</g>
</svg>