<svg xmlns="http://www.w3.org/2000/svg" viewBox="0 0 1024 1024" width="1024" height="1024">
<g fill="none" stroke="#000000" stroke-width="6.4" stroke-linecap="round" stroke-linejoin="round">
  <path d="M 291.2,438.0 C 298.3,405.0 287.5,279.5 334.0,239.9 C 380.5,200.4 508.5,188.9 570.0,200.8 C 631.5,212.6 670.7,263.6 702.8,311.0 C 734.8,358.4 759.3,444.3 762.2,485.0 C 765.2,525.7 727.6,543.6 720.6,555.4"/>
  <path d="M 422.1,259.0 C 424.4,254.7 430.2,239.1 436.2,233.5 C 442.2,228.0 450.8,224.7 458.0,225.6 C 465.2,226.5 475.0,232.5 479.7,239.0 C 484.3,245.6 484.9,260.6 486.0,265.0"/>
  <path d="M 418.0,259.8 C 413.3,257.9 398.9,248.2 390.0,248.1 C 381.1,248.0 370.4,253.0 364.8,259.3 C 359.2,265.6 355.4,277.2 356.4,286.0 C 357.3,294.8 368.0,307.6 370.4,312.0"/>
  <path d="M 489.0,267.3 C 494.2,266.6 511.5,261.1 520.0,263.0 C 528.5,265.0 537.2,272.0 540.3,279.0 C 543.4,286.0 542.8,297.2 538.7,305.0 C 534.7,312.8 519.8,322.2 516.0,325.6"/>
  <path d="M 604.0,268.0 C 606.6,267.7 615.9,264.4 619.4,266.2 C 622.9,268.0 624.0,276.8 625.0,279.0"/>
  <path d="M 600.0,268.3 C 595.5,272.6 576.6,283.8 573.2,294.0 C 569.7,304.2 578.1,323.7 579.1,329.7"/>
  <path d="M 425.8,274.3 C 427.4,276.4 432.3,281.7 435.1,287.0 C 438.0,292.3 441.4,302.8 442.7,306.0"/>
  <path d="M 422.1,276.0 C 422.7,278.7 423.7,286.5 425.5,292.0 C 427.2,297.5 431.5,306.1 432.8,309.0"/>
  <path d="M 480.0,276.7 C 478.1,278.3 473.2,281.0 468.5,286.1 C 463.9,291.1 454.8,303.5 452.1,307.0"/>
  <path d="M 482.4,279.0 C 481.1,281.9 478.2,290.4 474.8,296.0 C 471.4,301.6 464.1,309.6 461.9,312.3"/>
  <path d="M 628.0,282.3 C 629.4,284.1 636.4,287.3 636.6,293.0 C 636.9,298.8 636.1,309.6 629.3,317.0 C 622.5,324.4 601.6,334.0 596.0,337.4"/>
  <path d="M 601.0,301.9 C 599.4,303.6 594.4,307.7 591.4,312.0 C 588.4,316.4 584.3,325.3 582.9,328.0"/>
  <path d="M 603.9,304.0 C 603.6,306.2 603.3,312.2 601.8,317.0 C 600.3,321.8 596.0,330.3 594.9,333.0"/>
  <path d="M 386.0,315.2 C 388.7,315.3 395.8,314.6 402.0,315.6 C 408.2,316.6 419.5,320.2 423.0,321.1"/>
  <path d="M 370.0,316.3 C 365.8,319.4 349.5,327.4 344.8,335.0 C 340.1,342.6 339.0,354.4 341.9,362.0 C 344.7,369.6 353.0,377.5 362.0,380.5 C 371.0,383.6 390.3,380.4 396.0,380.3"/>
  <path d="M 384.7,318.7 C 387.5,320.2 395.4,325.5 402.0,327.8 C 408.6,330.1 420.3,331.8 424.0,332.6"/>
  <path d="M 465.0,321.7 C 468.7,321.6 480.8,320.4 487.0,321.0 C 493.2,321.5 499.5,324.2 502.0,324.8"/>
  <path d="M 502.0,329.3 C 499.6,329.9 494.3,332.2 488.0,332.9 C 481.7,333.6 468.0,333.3 464.0,333.4"/>
  <path d="M 515.6,330.0 C 518.3,334.4 530.9,347.7 531.6,356.0 C 532.3,364.3 526.5,375.6 519.9,380.0 C 513.3,384.5 501.6,385.2 492.0,382.7 C 482.4,380.2 467.0,368.0 462.0,365.1"/>
  <path d="M 580.3,338.0 C 579.1,340.7 577.0,346.7 573.1,354.0 C 569.2,361.3 559.6,377.3 557.0,382.0"/>
  <path d="M 425.6,339.0 C 423.0,342.5 413.7,354.5 410.1,360.0 C 406.4,365.5 404.7,370.0 403.6,372.0"/>
  <path d="M 428.9,337.5 C 429.8,337.9 432.5,339.0 434.0,339.9 C 435.5,340.9 437.4,342.6 438.1,343.1"/>
  <path d="M 440.0,343.6 C 440.9,343.5 443.3,343.0 445.0,343.1 C 446.7,343.1 449.1,343.6 450.0,343.7"/>
  <path d="M 438.0,346.0 C 435.8,348.8 430.2,357.7 424.9,362.4 C 419.6,367.1 409.2,372.3 406.0,374.3"/>
  <path d="M 559.0,384.3 C 574.9,380.5 644.5,360.1 654.2,361.5 C 663.9,362.9 634.7,386.8 617.0,392.7 C 599.3,398.6 559.5,396.2 548.0,396.8"/>
  <path d="M 320.9,438.0 C 317.9,425.2 294.1,359.0 302.8,361.5 C 311.4,364.0 361.2,437.7 372.9,453.0"/>
  <path d="M 399.0,383.0 C 399.8,387.0 400.3,400.8 403.9,407.0 C 407.6,413.2 414.7,418.4 421.0,420.1 C 427.3,421.8 435.7,421.1 441.9,417.4 C 448.2,413.6 455.8,400.9 458.6,397.7"/>
  <path d="M 554.0,386.0 C 553.2,386.7 550.6,388.8 549.4,390.3 C 548.2,391.8 547.0,394.2 546.5,395.0"/>
  <path d="M 462.9,398.0 C 463.2,399.5 463.9,400.7 464.7,407.0 C 465.5,413.3 467.1,431.1 467.5,436.0"/>
  <path d="M 544.0,396.6 C 538.0,398.9 520.2,403.9 508.0,410.6 C 495.8,417.4 477.2,432.8 471.0,437.2"/>
  <path d="M 547.8,433.0 C 552.9,430.3 571.2,418.3 578.0,417.0 C 584.8,415.7 586.3,421.0 588.7,425.2 C 591.0,429.3 591.4,439.2 592.0,442.0"/>
  <path d="M 544.0,433.2 C 540.1,432.0 527.2,423.9 521.1,425.9 C 514.9,427.9 508.3,437.7 507.0,445.0 C 505.8,452.3 508.8,462.5 513.8,470.0 C 518.8,477.4 533.1,486.3 537.0,489.6"/>
  <path d="M 290.0,441.7 C 284.2,445.4 254.1,455.9 255.3,464.0 C 256.5,472.1 280.9,485.8 297.0,490.2 C 313.1,494.6 342.8,490.2 352.0,490.3"/>
  <path d="M 544.0,444.0 C 543.4,447.7 540.6,459.3 540.3,466.0 C 540.0,472.7 541.8,481.0 542.1,484.0"/>
  <path d="M 548.3,443.6 C 548.8,445.3 550.8,449.6 551.4,454.0 C 552.0,458.4 551.9,467.3 552.0,470.0"/>
  <path d="M 595.0,444.8 C 598.0,444.8 608.1,443.2 613.0,444.7 C 617.9,446.3 624.5,447.7 624.6,454.1 C 624.8,460.5 615.8,478.2 614.0,483.0"/>
  <path d="M 299.1,445.0 C 302.8,448.8 312.1,460.3 321.0,467.4 C 329.9,474.4 347.1,484.0 352.3,487.3"/>
  <path d="M 335.0,444.8 C 337.0,445.2 341.2,445.4 347.0,447.1 C 352.8,448.9 366.1,454.1 370.0,455.4"/>
  <path d="M 333.9,448.0 C 339.1,452.0 358.1,467.6 365.0,471.9 C 371.9,476.2 372.8,474.5 375.1,473.8 C 377.4,473.2 378.2,469.0 378.9,468.0"/>
  <path d="M 463.1,451.4 C 460.1,455.8 449.7,467.2 445.3,478.0 C 441.0,488.8 438.4,509.6 437.0,516.0"/>
  <path d="M 466.5,452.0 C 466.0,462.2 465.1,497.5 463.7,513.0 C 462.4,528.5 459.2,539.6 458.4,545.0"/>
  <path d="M 585.0,450.8 C 583.5,451.7 581.0,452.5 576.0,456.0 C 571.0,459.5 558.5,469.3 555.0,472.0"/>
  <path d="M 587.7,453.0 C 586.9,455.0 585.4,460.3 582.5,465.0 C 579.6,469.7 572.4,478.3 570.3,481.0"/>
  <path d="M 382.0,465.9 C 385.3,468.4 395.6,474.8 401.7,481.1 C 407.7,487.5 415.7,500.2 418.5,504.0"/>
  <path d="M 571.0,483.5 C 574.0,483.5 584.2,483.3 589.0,483.6 C 593.8,483.9 598.1,485.0 600.0,485.2"/>
  <path d="M 356.0,489.2 C 359.7,490.0 368.0,490.9 378.0,493.8 C 388.0,496.7 409.6,504.3 416.0,506.4"/>
  <path d="M 600.3,489.4 C 597.3,490.5 589.7,494.7 582.0,496.0 C 574.3,497.2 558.7,496.8 554.0,497.0"/>
  <path d="M 613.5,488.8 C 614.5,491.6 621.3,501.1 619.5,505.9 C 617.8,510.6 614.2,518.3 603.0,517.3 C 591.8,516.3 560.8,502.9 552.3,500.0"/>
  <path d="M 537.3,493.8 C 531.1,498.3 509.6,512.2 500.0,520.7 C 490.4,529.3 482.9,540.9 479.5,545.0"/>
  <path d="M 427.1,550.0 C 419.8,543.7 400.1,517.8 383.0,512.1 C 365.9,506.4 317.6,508.8 324.6,515.8 C 331.6,522.7 408.2,547.4 425.0,553.7"/>
  <path d="M 420.4,508.2 C 421.9,509.3 426.6,513.3 429.0,515.0 C 431.3,516.7 433.6,517.9 434.6,518.4"/>
  <path d="M 483.0,548.5 C 496.0,546.0 554.3,530.6 561.0,533.7 C 567.7,536.7 538.3,561.0 523.0,566.8 C 507.7,572.6 478.0,568.0 469.0,568.3"/>
  <path d="M 477.9,550.5 C 476.8,551.9 473.0,556.5 471.3,559.0 C 469.6,561.5 468.3,564.4 467.7,565.5"/>
  <path d="M 429.4,555.0 C 428.5,570.0 435.9,612.7 424.2,645.0 C 412.4,677.3 369.9,731.5 359.0,748.8"/>
  <path d="M 720.9,560.0 C 719.4,573.2 733.2,622.3 711.8,638.8 C 690.3,655.3 615.7,640.3 592.2,659.2 C 568.6,678.1 574.0,736.5 570.4,752.0"/>
</g>
</svg>