<svg xmlns="http://www.w3.org/2000/svg" viewBox="0 0 1024 1024" width="1024" height="1024">
<g fill="none" stroke="#2f4255" stroke-width="17.2" stroke-linecap="round" stroke-linejoin="round">
  <path d="M 485.4,141.0 C 486.7,138.3 489.2,127.7 493.5,125.2 C 497.8,122.7 474.8,106.8 511.0,125.9 C 547.2,145.1 677.6,220.8 711.0,239.8"/>
  <path d="M 482.5,145.6 C 481.8,148.8 479.2,153.8 478.4,165.0 C 477.6,176.2 477.6,205.0 477.5,213.0"/>
  <path d="M 487.0,145.1 C 498.7,159.6 542.0,211.4 556.8,232.0 C 571.5,252.6 572.4,262.8 575.5,269.0"/>
  <path d="M 384.4,200.0 C 387.5,197.1 388.1,180.5 403.0,183.1 C 417.9,185.7 462.1,210.1 474.0,215.6"/>
  <path d="M 381.7,204.7 C 381.2,206.2 380.0,202.3 379.1,214.0 C 378.3,225.8 377.1,264.8 376.7,275.0"/>
  <path d="M 386.0,204.2 C 388.5,206.0 387.3,197.8 400.9,215.1 C 414.5,232.4 455.1,289.0 467.5,308.0 C 479.9,327.0 474.1,325.5 475.4,329.0"/>
  <path d="M 478.2,219.0 C 489.2,226.1 528.2,252.8 544.0,261.5 C 559.8,270.3 568.1,269.9 573.0,271.5"/>
  <path d="M 717.0,240.4 C 723.4,239.2 743.5,230.5 755.0,233.3 C 766.5,236.1 778.6,246.1 786.0,257.0 C 793.5,268.0 800.4,286.8 799.9,299.0 C 799.4,311.2 785.8,324.8 783.0,330.0"/>
  <path d="M 282.7,259.0 C 285.7,256.3 286.0,240.0 301.0,243.0 C 316.1,245.9 361.0,271.1 373.0,276.7"/>
  <path d="M 713.4,244.0 C 713.1,248.5 710.4,261.2 711.3,271.0 C 712.2,280.8 717.5,297.6 718.7,303.0"/>
  <path d="M 279.6,264.0 C 279.0,266.4 276.9,258.3 276.1,278.0 C 275.3,297.7 275.0,364.6 274.8,382.0"/>
  <path d="M 284.0,263.1 C 288.3,267.3 290.8,262.2 309.6,288.0 C 328.3,313.8 382.1,396.3 396.7,418.0"/>
  <path d="M 578.0,274.0 C 581.7,277.2 593.8,288.3 600.0,292.9 C 606.2,297.5 612.5,300.3 615.0,301.8"/>
  <path d="M 377.3,280.0 C 387.1,286.2 420.1,308.6 436.0,317.2 C 451.9,325.8 466.8,329.3 473.0,331.7"/>
  <path d="M 619.0,302.0 C 624.7,300.4 640.8,290.0 653.0,292.5 C 665.2,294.9 685.5,312.7 692.0,316.7"/>
  <path d="M 616.4,305.0 C 616.0,309.7 613.1,323.2 614.0,333.0 C 614.8,342.8 620.2,358.8 621.5,364.0"/>
  <path d="M 722.0,306.9 C 726.8,310.2 741.7,322.6 751.0,326.8 C 760.3,330.9 773.5,330.8 778.0,331.6"/>
  <path d="M 695.3,321.0 C 696.1,327.2 700.8,346.8 700.4,358.0 C 700.0,369.2 694.2,383.0 693.0,388.0"/>
  <path d="M 478.0,334.0 C 481.5,337.1 493.0,348.0 499.0,352.6 C 505.0,357.2 511.5,360.2 514.0,361.7"/>
  <path d="M 781.5,335.0 C 781.7,342.3 782.7,370.4 783.1,378.9 C 783.6,387.4 784.0,384.8 784.2,386.0"/>
  <path d="M 518.0,362.1 C 524.0,360.5 541.7,349.6 554.0,352.3 C 566.3,355.1 585.7,374.3 592.0,378.7"/>
  <path d="M 515.3,365.0 C 515.2,369.5 513.3,382.5 514.3,392.0 C 515.3,401.5 520.2,417.0 521.3,422.0"/>
  <path d="M 625.0,368.0 C 629.7,371.2 644.0,383.2 653.0,387.0 C 662.0,390.8 674.6,390.3 679.0,391.0"/>
  <path d="M 594.4,382.0 C 595.2,388.0 599.8,407.2 599.4,418.0 C 599.0,428.8 593.2,442.1 591.9,447.0"/>
  <path d="M 271.0,385.6 C 249.5,397.3 167.7,440.6 142.0,455.9 C 116.3,471.1 121.0,473.5 116.8,477.0"/>
  <path d="M 274.6,387.0 C 275.0,398.2 276.1,441.2 277.2,454.0 C 278.3,466.7 280.6,462.1 281.3,463.7"/>
  <path d="M 788.0,389.5 C 791.4,390.6 790.7,387.3 808.0,396.5 C 825.3,405.7 875.6,434.3 892.0,444.7 C 908.3,455.1 903.8,456.6 906.2,459.0"/>
  <path d="M 694.0,391.7 C 703.7,404.8 740.9,453.5 752.3,470.0 C 763.8,486.5 760.9,487.5 762.6,491.0"/>
  <path d="M 783.5,392.0 C 783.2,406.7 784.3,463.2 781.4,479.9 C 778.5,496.7 768.6,490.4 766.0,492.4"/>
  <path d="M 682.0,394.0 C 682.0,403.5 681.8,439.7 682.0,451.0 C 682.3,462.3 683.1,460.1 683.4,462.0"/>
  <path d="M 395.0,422.0 C 381.0,427.5 329.2,448.2 311.0,455.1 C 292.8,462.1 290.2,462.4 286.0,463.9"/>
  <path d="M 400.0,422.0 C 405.5,428.1 422.0,453.2 433.1,458.4 C 444.3,463.6 461.3,454.1 467.0,453.2"/>
  <path d="M 519.0,426.7 C 512.3,429.8 487.0,441.3 479.1,445.3 C 471.2,449.2 472.9,449.4 471.7,450.2"/>
  <path d="M 525.0,426.2 C 529.7,429.4 544.2,441.3 553.0,445.4 C 561.8,449.5 573.8,449.9 578.0,450.9"/>
  <path d="M 593.0,450.6 C 602.5,463.1 639.0,509.4 650.2,526.0 C 661.4,542.6 658.6,546.0 660.3,550.0"/>
  <path d="M 581.2,454.0 C 581.3,459.5 582.0,477.5 582.0,487.0 C 582.0,496.5 581.0,505.5 581.1,511.0 C 581.1,516.5 582.0,518.5 582.2,520.0"/>
  <path d="M 470.9,455.0 C 485.5,477.0 541.1,562.9 558.4,586.9 C 575.7,611.0 572.2,597.3 575.0,599.4"/>
  <path d="M 905.0,463.8 C 882.5,477.1 796.0,529.0 770.0,543.6 C 744.0,558.2 752.5,550.2 749.0,551.6"/>
  <path d="M 910.0,462.6 C 911.3,463.6 915.9,444.0 917.5,468.6 C 919.2,493.1 920.4,583.9 919.9,610.0 C 919.4,636.1 979.2,584.8 914.4,624.9 C 849.5,664.9 599.1,811.2 531.0,850.3 C 462.9,889.4 510.2,858.0 506.0,859.5"/>
  <path d="M 687.0,465.4 C 696.0,469.6 728.5,485.7 741.0,490.4 C 753.5,495.1 758.5,493.2 762.0,493.7"/>
  <path d="M 284.4,468.0 C 285.1,469.8 285.1,473.8 288.7,478.3 C 292.3,482.8 303.2,492.3 306.1,495.0"/>
  <path d="M 683.2,467.0 C 683.0,468.9 682.1,470.2 682.0,478.0 C 681.9,485.8 682.5,508.0 682.6,514.0"/>
  <path d="M 113.0,480.4 C 111.3,483.0 103.8,468.7 103.1,496.0 C 102.3,523.3 47.0,584.4 108.5,644.4 C 170.0,704.4 406.5,819.7 472.0,856.0 C 537.5,892.3 496.5,861.4 501.3,862.4"/>
  <path d="M 118.0,481.8 C 131.5,489.8 182.9,518.9 199.0,530.1 C 215.0,541.4 211.9,546.1 214.5,549.3"/>
  <path d="M 305.5,500.0 C 298.3,504.8 276.6,520.4 262.0,528.8 C 247.4,537.2 225.4,546.7 218.0,550.3"/>
  <path d="M 310.0,498.3 C 349.7,519.9 504.4,606.5 548.0,627.7 C 591.6,649.0 566.4,630.0 571.5,625.9 C 576.5,621.8 577.2,606.9 578.3,603.0"/>
  <path d="M 686.0,517.2 C 690.2,518.8 701.2,521.1 711.0,526.5 C 720.8,532.0 739.0,546.1 744.6,550.1"/>
  <path d="M 682.5,520.0 C 682.1,524.1 682.7,539.1 679.6,544.5 C 676.5,549.9 666.6,551.2 664.0,552.5"/>
  <path d="M 586.0,523.4 C 588.9,524.3 594.0,524.3 603.0,528.4 C 612.0,532.5 630.8,544.0 640.0,548.1 C 649.2,552.1 655.0,552.1 658.0,552.9"/>
  <path d="M 581.6,526.0 C 581.7,535.9 582.3,573.0 581.9,585.0 C 581.5,597.0 579.7,595.8 579.3,598.0"/>
  <path d="M 215.9,553.0 C 219.2,564.5 210.6,597.6 235.7,621.8 C 260.7,646.0 336.7,692.5 366.0,698.2 C 395.3,704.0 403.7,663.3 411.2,656.3"/>
  <path d="M 744.7,555.0 C 743.7,556.1 776.2,539.2 738.6,561.9 C 701.0,584.5 558.1,668.3 519.0,691.0 C 479.9,713.7 506.5,696.9 504.0,698.1"/>
  <path d="M 416.0,655.5 C 418.2,656.3 415.3,653.2 429.0,660.3 C 442.7,667.4 486.5,691.8 498.0,698.1"/>
  <path d="M 501.0,702.0 C 501.0,725.2 500.8,815.0 501.0,841.0 C 501.2,867.0 502.1,855.1 502.4,858.0"/>
</g>
<g fill="none" stroke="#2072bd" stroke-width="122.3" stroke-linecap="round" stroke-linejoin="round">
  <path d="M 907.9,478.0 C 900.3,493.7 920.2,526.7 862.3,572.0 C 804.4,617.3 612.2,718.3 560.4,749.9 C 508.7,781.6 559.3,746.4 551.6,762.0 C 543.9,777.7 520.3,830.3 514.1,844.0"/>
</g>
<g fill="none" stroke="#50a9f8" stroke-width="63.9" stroke-linecap="round" stroke-linejoin="round">
  <path d="M 114.9,495.0 C 129.6,521.0 162.6,610.0 203.1,651.1 C 243.6,692.1 318.2,724.0 358.0,741.4 C 397.8,758.9 428.0,753.4 442.0,755.8"/>
  <path d="M 417.6,668.0 C 420.2,676.4 429.1,703.8 433.4,718.0 C 437.7,732.2 441.9,747.1 443.6,753.0"/>
</g>
<g fill="none" stroke="#f0d9ba" stroke-width="48.0" stroke-linecap="round" stroke-linejoin="round">
  <path d="M 701.7,555.0 C 697.3,558.5 689.0,570.8 675.0,575.6 C 661.0,580.4 627.5,582.6 618.0,584.0"/>
  <path d="M 234.0,566.2 C 240.4,569.0 257.8,579.8 272.0,583.0 C 286.2,586.2 306.0,582.1 319.0,585.4 C 332.0,588.6 344.8,599.7 350.0,602.6"/>
  <path d="M 614.9,586.0 C 610.4,593.8 600.8,621.9 587.8,632.7 C 574.9,643.5 575.8,655.7 537.0,650.8 C 498.2,645.9 385.4,611.2 355.0,603.2"/>
</g>
<g fill="none" stroke="#2b83d2" stroke-width="31.6" stroke-linecap="round" stroke-linejoin="round">
  <path d="M 793.6,401.0 C 794.4,402.9 793.9,402.9 798.0,412.0 C 802.0,421.2 814.8,448.6 818.2,456.0"/>
  <path d="M 818.0,462.0 C 814.3,469.1 805.1,494.8 795.6,504.7 C 786.1,514.6 777.8,525.3 761.0,521.4 C 744.2,517.4 705.9,487.8 694.9,481.0"/>
  <path d="M 130.0,477.0 C 142.2,476.9 187.0,476.1 203.0,476.1 C 219.0,476.1 222.1,476.9 226.0,477.0"/>
  <path d="M 232.0,481.9 C 235.7,484.0 243.8,491.7 254.0,494.2 C 264.2,496.7 286.5,496.5 293.0,497.0"/>
  <path d="M 229.0,483.0 C 228.9,487.9 229.5,503.5 228.5,512.0 C 227.4,520.5 223.7,530.3 222.8,534.0"/>
</g>
<g fill="none" stroke="#fd6b5d" stroke-width="55.5" stroke-linecap="round" stroke-linejoin="round">
  <path d="M 747.6,271.0 C 750.0,274.0 758.5,284.6 761.6,289.0 C 764.7,293.3 765.4,295.6 766.2,297.0"/>
</g>
</svg>