<svg xmlns="http://www.w3.org/2000/svg" viewBox="0 0 1024 1024" width="1024" height="1024">
<g fill="none" stroke="#000000" stroke-width="4.0" stroke-linecap="round" stroke-linejoin="round">
  <path d="M 311.0,210.7 C 313.2,209.2 315.3,207.9 319.0,206.8 C 322.7,205.8 326.7,205.2 333.0,204.4 C 339.3,203.7 349.0,202.7 357.0,202.1 C 365.0,201.6 372.2,201.3 381.0,201.1 C 389.8,200.9 403.1,201.1 410.0,201.0 C 416.8,200.8 390.3,200.2 422.0,200.0 C 453.7,199.8 568.3,199.9 600.0,200.0 C 631.7,200.2 604.0,200.8 612.0,201.0 C 620.0,201.1 635.0,200.5 648.0,201.1 C 661.0,201.6 680.2,203.1 690.0,204.3 C 699.8,205.5 703.5,207.1 707.0,208.2 C 710.5,209.2 709.6,209.4 711.0,210.5 C 712.4,211.7 714.3,213.4 715.4,215.0 C 716.6,216.6 717.3,217.5 717.7,220.0 C 718.1,222.5 718.1,226.7 717.8,230.0 C 717.5,233.3 716.8,236.2 715.8,240.0 C 714.8,243.8 715.3,244.5 711.8,253.0 C 708.3,261.5 701.8,277.3 694.7,291.0 C 687.6,304.7 677.9,321.5 669.3,335.0 C 660.7,348.5 651.3,361.3 643.1,372.0 C 634.8,382.7 626.5,391.7 619.8,399.0 C 613.1,406.3 613.0,406.5 603.0,415.9 C 593.0,425.2 568.6,447.0 560.0,455.1 C 551.4,463.1 554.5,460.5 551.6,464.0 C 548.7,467.5 544.7,473.0 542.9,476.0 C 541.1,479.0 541.2,480.0 540.7,482.0 C 540.3,484.0 540.1,486.0 540.0,488.0 C 540.0,490.0 540.0,492.0 540.3,494.0 C 540.7,496.0 540.5,497.0 542.0,500.0 C 543.5,503.0 545.8,507.5 549.5,512.0 C 553.2,516.5 555.9,519.3 564.0,526.9 C 572.1,534.6 586.9,547.2 598.0,558.0 C 609.1,568.9 621.5,581.8 630.8,592.0 C 640.0,602.2 645.7,608.5 653.5,619.0 C 661.3,629.5 670.4,642.7 677.8,655.0 C 685.2,667.3 693.3,683.2 698.1,693.0 C 703.0,702.8 704.5,707.3 706.9,714.0 C 709.4,720.7 711.7,727.8 713.0,733.0 C 714.2,738.2 714.1,741.7 714.2,745.0 C 714.3,748.3 714.1,750.7 713.6,753.0 C 713.1,755.3 712.5,757.1 711.2,759.0 C 709.9,760.9 708.5,762.6 706.0,764.3 C 703.5,765.9 699.8,767.4 696.0,768.7 C 692.2,769.9 688.8,770.9 683.0,771.9 C 677.2,772.9 669.8,774.0 661.0,774.8 C 652.2,775.6 644.8,776.2 630.0,776.9 C 615.2,777.6 604.8,778.6 572.0,779.0 C 539.2,779.3 464.8,779.3 433.0,779.0 C 401.2,778.6 395.8,777.9 381.0,776.9 C 366.2,775.8 353.5,774.4 344.0,772.7 C 334.5,771.0 328.2,768.1 324.0,766.6 C 319.8,765.1 320.6,764.8 319.0,763.5 C 317.5,762.3 315.9,760.9 314.7,759.0 C 313.4,757.1 312.1,754.5 311.3,752.0 C 310.6,749.5 309.4,749.5 310.2,744.0 C 310.9,738.5 312.5,728.7 315.7,719.0 C 318.9,709.3 325.1,695.2 329.3,686.0 C 333.5,676.8 337.0,670.8 340.9,664.0 C 344.7,657.2 347.4,652.5 352.4,645.0 C 357.4,637.5 363.0,628.8 370.8,619.0 C 378.6,609.2 389.4,596.5 399.1,586.0 C 408.8,575.5 418.5,566.1 429.0,556.1 C 439.5,546.0 454.9,532.6 462.0,525.9 C 469.1,519.2 468.3,520.1 471.5,516.0 C 474.8,511.9 479.6,504.5 481.6,501.0 C 483.6,497.5 483.1,497.0 483.5,495.0 C 483.9,493.0 484.3,491.8 484.0,489.0 C 483.6,486.2 483.0,481.7 481.5,478.0 C 479.9,474.3 477.9,471.2 474.7,467.0 C 471.4,462.8 468.3,459.2 462.0,453.0 C 455.7,446.8 446.0,438.6 437.0,429.9 C 428.0,421.3 414.9,408.2 408.0,401.0 C 401.1,393.8 401.7,394.7 395.4,387.0 C 389.2,379.3 379.8,368.2 370.4,355.0 C 361.1,341.8 346.6,319.3 339.4,308.0 C 332.2,296.7 331.2,294.2 327.3,287.0 C 323.5,279.8 319.6,272.5 316.3,265.0 C 313.0,257.5 309.4,248.0 307.4,242.0 C 305.5,236.0 305.0,232.3 304.5,229.0 C 303.9,225.7 304.0,224.2 304.2,222.0 C 304.5,219.8 304.9,217.9 306.1,216.0 C 307.2,214.1 308.9,212.3 311.0,210.7 Z"/>
  <path d="M 382.1,342.8 C 381.3,341.5 378.5,337.5 377.4,335.0 C 376.3,332.5 375.5,330.0 375.3,328.0 C 375.2,326.0 375.5,324.7 376.5,323.0 C 377.4,321.3 379.3,319.3 381.1,317.9 C 382.8,316.4 384.7,315.5 387.0,314.5 C 389.3,313.6 391.0,312.8 395.0,312.2 C 399.0,311.5 406.2,310.8 411.0,310.6 C 415.8,310.5 417.2,310.2 424.0,311.1 C 430.8,312.0 443.0,313.8 452.0,316.2 C 461.0,318.6 470.5,322.5 478.0,325.6 C 485.5,328.7 488.5,330.1 497.0,334.9 C 505.5,339.6 523.8,350.8 529.1,354.0"/>
  <path d="M 643.0,343.8 C 643.8,342.7 646.4,339.3 647.7,337.0 C 648.9,334.7 650.0,332.3 650.7,330.0 C 651.4,327.7 651.8,325.0 651.9,323.0 C 651.9,321.0 651.6,319.5 651.0,318.0 C 650.5,316.6 649.6,315.5 648.6,314.6 C 647.6,313.6 647.9,312.9 645.0,312.6 C 642.0,312.2 636.5,311.5 631.0,312.2 C 625.5,313.0 619.2,314.6 612.0,317.0 C 604.8,319.5 598.0,322.1 588.0,326.9 C 578.0,331.7 560.1,341.4 552.0,345.9 C 543.9,350.4 541.3,352.6 539.2,353.9"/>
  <path d="M 385.2,345.1 C 385.8,345.3 385.6,344.7 389.1,346.5 C 392.5,348.3 400.2,353.4 406.0,356.1 C 411.8,358.8 418.2,360.9 424.0,362.7 C 429.8,364.5 435.0,365.8 441.0,367.0 C 447.0,368.2 453.7,369.4 460.0,369.9 C 466.3,370.4 473.0,370.3 479.0,369.9 C 485.0,369.5 489.8,368.7 496.0,367.4 C 502.2,366.1 511.3,363.7 516.0,362.3 C 520.7,360.9 521.8,360.1 524.0,359.1 C 526.1,358.0 528.0,356.5 528.8,356.0"/>
  <path d="M 383.4,347.2 C 383.9,348.3 384.9,351.4 386.4,354.0 C 388.0,356.6 388.1,357.2 392.9,363.0 C 397.7,368.8 407.9,381.2 415.1,389.0 C 422.3,396.8 427.4,401.8 436.0,409.9 C 444.6,418.1 458.2,429.7 467.0,438.1 C 475.8,446.4 483.6,454.2 488.6,460.0 C 493.6,465.8 494.8,468.2 496.9,473.0 C 499.1,477.8 500.9,486.2 501.7,488.8"/>
  <path d="M 641.7,348.2 C 641.4,349.0 640.9,351.1 639.7,353.0 C 638.6,355.0 637.2,357.0 635.1,360.0 C 633.0,363.0 630.3,366.8 626.9,371.0 C 623.5,375.2 621.2,378.4 614.9,385.0 C 608.6,391.6 601.0,399.7 589.0,410.9 C 577.0,422.0 552.4,443.3 543.0,452.0 C 533.6,460.7 535.1,460.2 532.6,463.0 C 530.1,465.8 529.3,467.2 528.0,469.0 C 526.8,470.8 525.9,472.3 525.1,474.0 C 524.3,475.7 523.7,477.2 523.1,479.0 C 522.5,480.8 522.0,482.3 521.6,485.0 C 521.3,487.7 521.0,491.3 521.1,495.0 C 521.3,498.7 521.3,499.8 522.6,507.0 C 524.0,514.2 527.7,530.5 529.2,538.0 C 530.7,545.5 530.9,547.2 531.6,552.0 C 532.2,556.8 532.8,563.0 532.9,567.0 C 533.1,571.0 532.4,574.3 532.3,575.8"/>
  <path d="M 539.2,356.8 C 543.2,358.1 555.2,363.1 563.0,364.8 C 570.8,366.4 582.0,366.4 585.8,366.7"/>
  <path d="M 586.1,369.1 C 585.4,369.7 584.4,371.1 581.9,372.4 C 579.4,373.8 575.3,375.2 571.0,377.3 C 566.7,379.4 560.5,382.5 556.0,385.0 C 551.5,387.6 547.3,390.4 544.0,392.7 C 540.7,394.9 538.7,396.3 536.0,398.5 C 533.3,400.7 530.4,403.6 528.0,406.0 C 525.7,408.4 524.0,410.3 521.9,413.0 C 519.8,415.7 517.2,419.2 515.5,422.0 C 513.8,424.8 512.7,427.5 511.7,430.0 C 510.8,432.5 510.2,434.7 509.7,437.0 C 509.1,439.3 508.6,440.7 508.3,444.0 C 508.0,447.3 507.9,452.2 507.9,457.0 C 507.9,461.8 507.7,466.8 508.2,473.0 C 508.7,479.2 510.0,486.7 510.8,494.0 C 511.6,501.3 512.6,505.8 512.9,517.0 C 513.3,528.2 513.1,551.8 512.9,561.0 C 512.6,570.2 512.1,568.0 511.4,572.0 C 510.6,576.0 510.5,579.0 508.5,585.0 C 506.6,591.0 501.0,604.0 499.5,607.8"/>
  <path d="M 501.2,609.8 C 503.7,608.9 512.2,605.8 516.0,604.7 C 519.8,603.6 520.8,603.3 524.0,603.1 C 527.2,602.9 531.2,602.9 535.0,603.5 C 538.8,604.1 543.5,605.5 547.0,606.7 C 550.5,607.9 553.0,609.2 556.0,610.8 C 559.0,612.3 557.2,610.7 565.0,615.8 C 572.8,620.9 593.7,635.3 603.0,641.3 C 612.3,647.3 615.5,648.7 621.0,651.7 C 626.5,654.7 631.7,657.2 636.0,659.2 C 640.3,661.2 643.3,662.5 647.0,663.9 C 650.7,665.3 654.3,666.6 658.0,667.6 C 661.7,668.5 666.7,669.0 669.0,669.5 C 671.3,670.1 670.8,670.0 671.9,670.9 C 673.1,671.8 674.6,673.0 675.9,675.0 C 677.2,677.1 678.2,679.5 679.6,683.0 C 681.0,686.5 682.8,691.2 684.3,696.0 C 685.7,700.8 687.6,708.3 688.4,712.0 C 689.1,715.7 688.9,715.7 689.0,718.0 C 689.0,720.3 689.0,723.7 688.6,726.0 C 688.3,728.3 687.5,730.2 686.8,732.0 C 686.0,733.8 685.2,735.4 684.0,737.0 C 682.9,738.6 681.8,740.0 679.9,741.6 C 678.1,743.2 675.2,745.2 673.0,746.5 C 670.8,747.8 670.0,748.3 667.0,749.5 C 664.0,750.7 659.3,752.5 655.0,753.8 C 650.7,755.1 645.8,756.2 641.0,757.2 C 636.2,758.1 633.2,758.8 626.0,759.6 C 618.8,760.3 604.7,761.5 598.0,761.9 C 591.3,762.3 589.7,761.9 586.0,762.1 C 582.3,762.2 580.8,762.8 576.0,763.0 C 571.2,763.1 562.0,762.9 557.0,763.1 C 552.0,763.2 561.0,763.8 546.0,764.0 C 531.0,764.1 481.8,764.1 467.0,764.0 C 452.2,763.8 461.8,763.2 457.0,763.1 C 452.2,762.9 446.7,763.4 438.0,763.0 C 429.3,762.6 413.8,761.5 405.0,760.7 C 396.2,759.8 391.3,759.1 385.0,757.9 C 378.7,756.8 372.0,755.3 367.0,753.8 C 362.0,752.4 357.8,750.4 355.0,749.2 C 352.2,747.9 351.5,747.2 350.0,746.1 C 348.5,745.1 347.4,744.2 346.0,742.9 C 344.6,741.5 342.6,739.5 341.5,738.0 C 340.3,736.5 339.7,735.5 339.0,734.0 C 338.3,732.5 337.7,731.0 337.3,729.0 C 336.8,727.0 336.3,724.2 336.1,722.0 C 335.9,719.8 336.0,718.3 336.1,716.0 C 336.3,713.7 336.7,710.8 337.1,708.0 C 337.6,705.2 338.2,701.8 338.9,699.0 C 339.6,696.2 340.5,693.5 341.4,691.0 C 342.2,688.5 343.1,685.9 344.1,684.1 C 345.0,682.2 346.5,680.6 347.0,679.9"/>
  <path d="M 484.8,623.5 C 483.8,624.0 484.3,623.1 479.0,626.2 C 473.7,629.3 460.7,637.8 453.0,642.1 C 445.3,646.4 440.0,649.2 433.0,651.9 C 426.0,654.7 417.2,657.1 411.0,658.6 C 404.8,660.0 401.8,660.2 396.0,660.8 C 390.2,661.4 381.3,661.7 376.0,662.3 C 370.7,662.9 367.6,663.3 364.0,664.5 C 360.4,665.7 356.3,668.1 354.1,669.5 C 351.9,670.9 351.8,671.8 351.0,673.0 C 350.2,674.2 349.5,676.2 349.3,676.8"/>
  <path d="M 486.7,625.2 C 485.4,627.5 482.5,633.9 478.6,639.0 C 474.6,644.1 468.9,650.5 463.0,655.7 C 457.1,660.9 449.5,666.2 443.0,670.2 C 436.5,674.2 431.2,676.8 424.0,679.5 C 416.8,682.2 407.2,684.8 400.0,686.3 C 392.8,687.9 387.3,689.0 381.0,688.9 C 374.7,688.8 367.1,687.3 362.0,685.8 C 356.9,684.3 352.2,680.8 350.2,679.8"/>
</g>
</svg>