<svg xmlns="http://www.w3.org/2000/svg" viewBox="0 0 1024 1024" width="1024" height="1024">
  <path d="M 526.0,763.0 C 526.0,766.0 521.0,774.0 521.0,779.0" fill="none" stroke="black" stroke-width="1"/>
  <path d="M 521.0,779.0 C 519.0,781.0 499.0,764.0 507.0,770.0" fill="none" stroke="black" stroke-width="1"/>
  <path d="M 507.0,770.0 C 517.0,780.0 516.0,781.0 517.0,780.0" fill="none" stroke="black" stroke-width="1"/>
  <path d="M 517.0,780.0 C 523.0,784.0 525.0,783.0 522.0,783.0" fill="none" stroke="black" stroke-width="1"/>
  <path d="M 522.0,783.0 C 520.0,780.0 522.0,777.0 523.0,769.0" fill="none" stroke="black" stroke-width="1"/>
  <path d="M 523.0,769.0 C 526.0,766.0 529.0,770.0 528.0,773.0" fill="none" stroke="black" stroke-width="1"/>
  <path d="M 528.0,773.0 C 530.0,777.0 529.0,779.0 530.0,775.0" fill="none" stroke="black" stroke-width="1"/>
  <path d="M 530.0,775.0 C 528.0,773.0 529.0,770.0 525.0,765.0" fill="none" stroke="black" stroke-width="1"/>
  <path d="M 525.0,765.0 C 525.33,764.67 525.67,764.33 526.0,764.0" fill="none" stroke="black" stroke-width="1"/>
  <path d="M 524.0,758.0 C 526.0,761.0 529.0,758.0 526.0,761.0" fill="none" stroke="black" stroke-width="1"/>
  <path d="M 526.0,761.0 C 525.67,760.33 525.33,759.67 525.0,759.0" fill="none" stroke="black" stroke-width="1"/>
  <path d="M 486.0,756.0 C 488.0,757.33 488.33,757.67 487.0,757.0" fill="none" stroke="black" stroke-width="1"/>
  <path d="M 542.0,743.0 C 534.0,751.67 533.67,752.0 541.0,744.0" fill="none" stroke="black" stroke-width="1"/>
  <path d="M 459.0,743.0 C 464.0,745.0 461.0,743.0 460.0,744.0" fill="none" stroke="black" stroke-width="1"/>
  <path d="M 443.0,736.0 C 448.0,738.0 445.0,736.0 444.0,737.0" fill="none" stroke="black" stroke-width="1"/>
  <path d="M 555.0,734.0 C 547.67,739.33 547.33,739.67 554.0,735.0" fill="none" stroke="black" stroke-width="1"/>
  <path d="M 434.0,732.0 C 439.0,734.0 436.0,732.0 435.0,733.0" fill="none" stroke="black" stroke-width="1"/>
  <path d="M 575.0,724.0 C 565.0,729.0 577.0,724.0 576.0,725.0" fill="none" stroke="black" stroke-width="1"/>
  <path d="M 583.0,721.0 C 579.0,723.0 585.0,721.0 584.0,722.0" fill="none" stroke="black" stroke-width="1"/>
  <path d="M 410.0,716.0 C 409.0,717.0 422.0,727.0 430.0,730.0" fill="none" stroke="black" stroke-width="1"/>
  <path d="M 430.0,730.0 C 424.0,727.33 417.67,722.67 411.0,716.0" fill="none" stroke="black" stroke-width="1"/>
  <path d="M 601.0,713.0 C 587.0,720.0 601.0,713.0 602.0,714.0" fill="none" stroke="black" stroke-width="1"/>
  <path d="M 608.0,712.0 C 604.0,714.0 610.0,712.0 609.0,713.0" fill="none" stroke="black" stroke-width="1"/>
  <path d="M 605.0,707.0 C 603.0,709.0 602.67,709.33 604.0,708.0" fill="none" stroke="black" stroke-width="1"/>
  <path d="M 624.0,705.0 C 617.33,708.33 617.0,708.67 623.0,706.0" fill="none" stroke="black" stroke-width="1"/>
  <path d="M 392.0,700.0 C 397.0,707.0 407.0,716.0 399.0,709.0" fill="none" stroke="black" stroke-width="1"/>
  <path d="M 399.0,709.0 C 397.0,706.33 395.0,703.67 393.0,701.0" fill="none" stroke="black" stroke-width="1"/>
  <path d="M 609.0,699.0 C 607.67,701.67 607.67,702.0 609.0,700.0" fill="none" stroke="black" stroke-width="1"/>
  <path d="M 639.0,692.0 C 632.33,698.67 632.0,699.0 638.0,693.0" fill="none" stroke="black" stroke-width="1"/>
  <path d="M 357.0,692.0 C 364.0,695.0 373.0,695.0 376.0,693.0" fill="none" stroke="black" stroke-width="1"/>
  <path d="M 376.0,693.0 C 370.0,693.0 364.0,693.0 358.0,693.0" fill="none" stroke="black" stroke-width="1"/>
  <path d="M 383.0,680.0 C 384.0,686.0 378.0,692.0 383.0,687.0" fill="none" stroke="black" stroke-width="1"/>
  <path d="M 383.0,687.0 C 386.0,689.0 384.0,685.0 387.0,680.0" fill="none" stroke="black" stroke-width="1"/>
  <path d="M 387.0,680.0 C 385.67,681.33 384.67,681.67 384.0,681.0" fill="none" stroke="black" stroke-width="1"/>
  <path d="M 337.0,680.0 C 343.67,684.67 344.0,685.0 338.0,681.0" fill="none" stroke="black" stroke-width="1"/>
  <path d="M 665.0,675.0 C 661.0,678.0 659.0,677.0 668.0,677.0" fill="none" stroke="black" stroke-width="1"/>
  <path d="M 668.0,677.0 C 667.33,676.33 666.67,675.67 666.0,675.0" fill="none" stroke="black" stroke-width="1"/>
  <path d="M 390.0,673.0 C 389.33,675.0 389.0,675.33 389.0,674.0" fill="none" stroke="black" stroke-width="1"/>
  <path d="M 668.0,671.0 C 666.67,672.33 666.33,672.67 667.0,672.0" fill="none" stroke="black" stroke-width="1"/>
  <path d="M 651.0,670.0 C 655.0,674.0 655.33,674.33 652.0,671.0" fill="none" stroke="black" stroke-width="1"/>
  <path d="M 329.0,668.0 C 327.0,670.0 335.0,679.0 327.0,670.0" fill="none" stroke="black" stroke-width="1"/>
  <path d="M 327.0,670.0 C 327.33,669.67 327.67,669.33 328.0,669.0" fill="none" stroke="black" stroke-width="1"/>
  <path d="M 644.0,667.0 C 645.0,677.0 643.0,679.0 644.0,682.0" fill="none" stroke="black" stroke-width="1"/>
  <path d="M 644.0,682.0 C 642.0,686.0 644.0,682.0 643.0,679.0" fill="none" stroke="black" stroke-width="1"/>
  <path d="M 643.0,679.0 C 644.33,677.67 645.0,674.0 645.0,668.0" fill="none" stroke="black" stroke-width="1"/>
  <path d="M 690.0,666.0 C 680.0,673.0 670.0,677.0 679.0,674.0" fill="none" stroke="black" stroke-width="1"/>
  <path d="M 679.0,674.0 C 682.33,671.67 685.67,669.33 689.0,667.0" fill="none" stroke="black" stroke-width="1"/>
  <path d="M 648.0,665.0 C 649.33,667.0 649.67,667.33 649.0,666.0" fill="none" stroke="black" stroke-width="1"/>
  <path d="M 416.0,651.0 C 414.0,655.0 415.0,656.0 413.0,658.0" fill="none" stroke="black" stroke-width="1"/>
  <path d="M 413.0,658.0 C 414.0,659.0 411.0,664.0 412.0,666.0" fill="none" stroke="black" stroke-width="1"/>
  <path d="M 412.0,666.0 C 410.0,668.0 411.0,670.0 409.0,672.0" fill="none" stroke="black" stroke-width="1"/>
  <path d="M 409.0,672.0 C 410.0,675.0 408.0,677.0 407.0,683.0" fill="none" stroke="black" stroke-width="1"/>
  <path d="M 407.0,683.0 C 407.0,703.0 410.0,712.0 408.0,708.0" fill="none" stroke="black" stroke-width="1"/>
  <path d="M 408.0,708.0 C 408.0,677.0 410.0,675.0 409.0,672.0" fill="none" stroke="black" stroke-width="1"/>
  <path d="M 409.0,672.0 C 411.0,670.0 410.0,668.0 413.0,663.0" fill="none" stroke="black" stroke-width="1"/>
  <path d="M 413.0,663.0 C 412.0,661.0 414.0,659.0 413.0,658.0" fill="none" stroke="black" stroke-width="1"/>
  <path d="M 413.0,658.0 C 414.33,656.67 415.0,654.67 415.0,652.0" fill="none" stroke="black" stroke-width="1"/>
  <path d="M 309.0,650.0 C 317.0,662.0 325.0,670.0 315.0,659.0" fill="none" stroke="black" stroke-width="1"/>
  <path d="M 315.0,659.0 C 313.33,656.33 311.67,653.67 310.0,651.0" fill="none" stroke="black" stroke-width="1"/>
  <path d="M 418.0,646.0 C 417.33,648.0 417.0,648.33 417.0,647.0" fill="none" stroke="black" stroke-width="1"/>
  <path d="M 306.0,645.0 C 307.33,647.0 307.67,647.33 307.0,646.0" fill="none" stroke="black" stroke-width="1"/>
  <path d="M 638.0,642.0 C 642.0,656.0 645.0,661.0 645.0,665.0" fill="none" stroke="black" stroke-width="1"/>
  <path d="M 645.0,665.0 C 645.67,663.67 643.33,656.33 638.0,643.0" fill="none" stroke="black" stroke-width="1"/>
  <path d="M 404.0,637.0 C 391.0,671.0 394.0,665.0 393.0,664.0" fill="none" stroke="black" stroke-width="1"/>
  <path d="M 393.0,664.0 C 396.0,660.0 396.0,656.0 399.0,652.0" fill="none" stroke="black" stroke-width="1"/>
  <path d="M 399.0,652.0 C 399.0,648.0 402.0,644.0 401.0,643.0" fill="none" stroke="black" stroke-width="1"/>
  <path d="M 401.0,643.0 C 403.0,640.33 403.67,638.67 403.0,638.0" fill="none" stroke="black" stroke-width="1"/>
  <path d="M 301.0,634.0 C 301.67,636.0 302.0,636.33 302.0,635.0" fill="none" stroke="black" stroke-width="1"/>
  <path d="M 721.0,631.0 C 713.0,644.0 692.0,665.0 709.0,649.0" fill="none" stroke="black" stroke-width="1"/>
  <path d="M 709.0,649.0 C 712.67,643.33 716.33,637.67 720.0,632.0" fill="none" stroke="black" stroke-width="1"/>
  <path d="M 425.0,629.0 C 424.33,631.0 424.33,631.33 425.0,630.0" fill="none" stroke="black" stroke-width="1"/>
  <path d="M 298.0,622.0 C 298.0,626.0 291.0,632.0 283.0,631.0" fill="none" stroke="black" stroke-width="1"/>
  <path d="M 283.0,631.0 C 288.0,633.0 297.0,627.0 300.0,632.0" fill="none" stroke="black" stroke-width="1"/>
  <path d="M 300.0,632.0 C 298.0,628.67 297.67,625.33 299.0,622.0" fill="none" stroke="black" stroke-width="1"/>
  <path d="M 628.0,621.0 C 630.67,627.0 631.0,627.33 629.0,622.0" fill="none" stroke="black" stroke-width="1"/>
  <path d="M 332.0,620.0 C 326.0,641.0 326.0,658.0 328.0,666.0" fill="none" stroke="black" stroke-width="1"/>
  <path d="M 328.0,666.0 C 329.0,665.0 327.0,660.0 327.0,641.0" fill="none" stroke="black" stroke-width="1"/>
  <path d="M 327.0,641.0 C 329.0,634.0 328.0,631.0 330.0,629.0" fill="none" stroke="black" stroke-width="1"/>
  <path d="M 330.0,629.0 C 330.0,624.0 332.0,622.0 331.0,621.0" fill="none" stroke="black" stroke-width="1"/>
  <path d="M 601.0,619.0 C 603.0,623.0 602.0,624.0 604.0,626.0" fill="none" stroke="black" stroke-width="1"/>
  <path d="M 604.0,626.0 C 603.0,627.0 605.0,629.0 604.0,630.0" fill="none" stroke="black" stroke-width="1"/>
  <path d="M 604.0,630.0 C 606.0,632.0 605.0,633.0 607.0,635.0" fill="none" stroke="black" stroke-width="1"/>
  <path d="M 607.0,635.0 C 606.0,636.0 608.0,638.0 607.0,640.0" fill="none" stroke="black" stroke-width="1"/>
  <path d="M 607.0,640.0 C 609.0,648.0 611.0,650.0 610.0,652.0" fill="none" stroke="black" stroke-width="1"/>
  <path d="M 610.0,652.0 C 612.0,655.0 611.0,658.0 613.0,662.0" fill="none" stroke="black" stroke-width="1"/>
  <path d="M 613.0,662.0 C 613.0,688.0 611.0,694.0 613.0,688.0" fill="none" stroke="black" stroke-width="1"/>
  <path d="M 613.0,688.0 C 613.0,662.0 611.0,658.0 611.0,650.0" fill="none" stroke="black" stroke-width="1"/>
  <path d="M 611.0,650.0 C 609.0,648.0 609.0,641.0 606.0,636.0" fill="none" stroke="black" stroke-width="1"/>
  <path d="M 606.0,636.0 C 607.0,635.0 605.0,633.0 606.0,632.0" fill="none" stroke="black" stroke-width="1"/>
  <path d="M 606.0,632.0 C 604.0,630.0 605.0,629.0 603.0,627.0" fill="none" stroke="black" stroke-width="1"/>
  <path d="M 603.0,627.0 C 604.0,626.0 602.0,624.0 602.0,620.0" fill="none" stroke="black" stroke-width="1"/>
  <path d="M 430.0,618.0 C 429.33,620.0 429.0,620.33 429.0,619.0" fill="none" stroke="black" stroke-width="1"/>
  <path d="M 626.0,611.0 C 624.0,613.0 627.0,619.0 624.0,613.0" fill="none" stroke="black" stroke-width="1"/>
  <path d="M 624.0,613.0 C 624.33,612.67 624.67,612.33 625.0,612.0" fill="none" stroke="black" stroke-width="1"/>
  <path d="M 597.0,610.0 C 598.33,613.33 598.67,613.67 598.0,611.0" fill="none" stroke="black" stroke-width="1"/>
  <path d="M 336.0,610.0 C 335.33,612.0 335.0,612.33 335.0,611.0" fill="none" stroke="black" stroke-width="1"/>
  <path d="M 260.0,609.0 C 268.0,620.0 279.0,629.0 266.0,617.0" fill="none" stroke="black" stroke-width="1"/>
  <path d="M 266.0,617.0 C 264.33,614.67 262.67,612.33 261.0,610.0" fill="none" stroke="black" stroke-width="1"/>
  <path d="M 384.0,608.0 C 382.0,612.0 383.0,613.0 381.0,615.0" fill="none" stroke="black" stroke-width="1"/>
  <path d="M 381.0,615.0 C 382.0,617.0 380.0,619.0 381.0,621.0" fill="none" stroke="black" stroke-width="1"/>
  <path d="M 381.0,621.0 C 379.0,623.0 379.0,633.0 377.0,635.0" fill="none" stroke="black" stroke-width="1"/>
  <path d="M 377.0,635.0 C 377.0,659.0 382.0,678.0 380.0,674.0" fill="none" stroke="black" stroke-width="1"/>
  <path d="M 380.0,674.0 C 381.0,672.0 379.0,670.0 380.0,667.0" fill="none" stroke="black" stroke-width="1"/>
  <path d="M 380.0,667.0 C 378.0,665.0 379.0,660.0 377.0,635.0" fill="none" stroke="black" stroke-width="1"/>
  <path d="M 377.0,635.0 C 379.0,633.0 378.0,628.0 380.0,626.0" fill="none" stroke="black" stroke-width="1"/>
  <path d="M 380.0,626.0 C 379.0,623.0 381.0,621.0 380.0,619.0" fill="none" stroke="black" stroke-width="1"/>
  <path d="M 380.0,619.0 C 382.0,617.0 381.0,615.0 383.0,613.0" fill="none" stroke="black" stroke-width="1"/>
  <path d="M 383.0,613.0 C 383.0,611.67 383.0,610.33 383.0,609.0" fill="none" stroke="black" stroke-width="1"/>
  <path d="M 420.0,607.0 C 413.0,617.0 405.0,635.0 410.0,626.0" fill="none" stroke="black" stroke-width="1"/>
  <path d="M 410.0,626.0 C 409.0,625.0 412.0,622.0 419.0,608.0" fill="none" stroke="black" stroke-width="1"/>
  <path d="M 436.0,605.0 C 435.33,607.0 435.0,607.33 435.0,606.0" fill="none" stroke="black" stroke-width="1"/>
  <path d="M 257.0,604.0 C 258.33,606.0 258.67,606.33 258.0,605.0" fill="none" stroke="black" stroke-width="1"/>
  <path d="M 593.0,601.0 C 595.0,605.67 595.33,606.0 594.0,602.0" fill="none" stroke="black" stroke-width="1"/>
  <path d="M 425.0,600.0 C 422.33,603.33 422.0,603.67 424.0,601.0" fill="none" stroke="black" stroke-width="1"/>
  <path d="M 255.0,600.0 C 255.67,601.33 255.67,601.67 255.0,601.0" fill="none" stroke="black" stroke-width="1"/>
  <path d="M 440.0,596.0 C 439.33,598.0 439.0,598.33 439.0,597.0" fill="none" stroke="black" stroke-width="1"/>
  <path d="M 389.0,596.0 C 387.67,599.33 387.67,599.67 389.0,597.0" fill="none" stroke="black" stroke-width="1"/>
  <path d="M 429.0,595.0 C 427.0,597.0 426.67,597.33 428.0,596.0" fill="none" stroke="black" stroke-width="1"/>
  <path d="M 344.0,595.0 C 342.67,597.0 342.33,597.33 343.0,596.0" fill="none" stroke="black" stroke-width="1"/>
  <path d="M 589.0,594.0 C 591.0,597.33 591.33,597.67 590.0,595.0" fill="none" stroke="black" stroke-width="1"/>
  <path d="M 442.0,591.0 C 441.33,593.0 441.0,593.33 441.0,592.0" fill="none" stroke="black" stroke-width="1"/>
  <path d="M 347.0,590.0 C 345.67,592.0 345.33,592.33 346.0,591.0" fill="none" stroke="black" stroke-width="1"/>
  <path d="M 312.0,590.0 C 310.0,594.0 309.67,594.33 311.0,591.0" fill="none" stroke="black" stroke-width="1"/>
  <path d="M 393.0,589.0 C 391.0,592.33 390.67,592.67 392.0,590.0" fill="none" stroke="black" stroke-width="1"/>
  <path d="M 670.0,586.0 C 671.0,592.0 673.0,594.0 672.0,595.0" fill="none" stroke="black" stroke-width="1"/>
  <path d="M 672.0,595.0 C 674.0,597.0 673.0,599.0 675.0,601.0" fill="none" stroke="black" stroke-width="1"/>
  <path d="M 675.0,601.0 C 674.0,604.0 676.0,606.0 675.0,610.0" fill="none" stroke="black" stroke-width="1"/>
  <path d="M 675.0,610.0 C 677.0,619.0 678.0,640.0 676.0,642.0" fill="none" stroke="black" stroke-width="1"/>
  <path d="M 676.0,642.0 C 677.0,647.0 675.0,649.0 675.0,656.0" fill="none" stroke="black" stroke-width="1"/>
  <path d="M 675.0,656.0 C 669.0,669.0 672.0,665.0 671.0,664.0" fill="none" stroke="black" stroke-width="1"/>
  <path d="M 671.0,664.0 C 675.0,656.0 675.0,649.0 677.0,647.0" fill="none" stroke="black" stroke-width="1"/>
  <path d="M 677.0,647.0 C 676.0,642.0 678.0,640.0 676.0,606.0" fill="none" stroke="black" stroke-width="1"/>
  <path d="M 676.0,606.0 C 674.0,604.0 675.0,601.0 673.0,599.0" fill="none" stroke="black" stroke-width="1"/>
  <path d="M 673.0,599.0 C 674.0,597.0 671.0,592.0 671.0,587.0" fill="none" stroke="black" stroke-width="1"/>
  <path d="M 582.0,582.0 C 584.67,586.0 585.0,586.33 583.0,583.0" fill="none" stroke="black" stroke-width="1"/>
  <path d="M 445.0,582.0 C 444.33,584.67 444.33,585.0 445.0,583.0" fill="none" stroke="black" stroke-width="1"/>
  <path d="M 441.0,581.0 C 433.67,589.0 433.33,589.33 440.0,582.0" fill="none" stroke="black" stroke-width="1"/>
  <path d="M 318.0,579.0 C 316.67,581.0 316.33,581.33 317.0,580.0" fill="none" stroke="black" stroke-width="1"/>
  <path d="M 667.0,578.0 C 669.0,584.0 667.0,580.0 668.0,579.0" fill="none" stroke="black" stroke-width="1"/>
  <path d="M 579.0,577.0 C 580.33,579.0 580.67,579.33 580.0,578.0" fill="none" stroke="black" stroke-width="1"/>
  <path d="M 665.0,573.0 C 665.67,575.0 666.0,575.33 666.0,574.0" fill="none" stroke="black" stroke-width="1"/>
  <path d="M 725.0,572.0 C 726.0,578.0 728.0,580.0 727.0,582.0" fill="none" stroke="black" stroke-width="1"/>
  <path d="M 727.0,582.0 C 729.0,584.0 728.0,588.0 730.0,590.0" fill="none" stroke="black" stroke-width="1"/>
  <path d="M 730.0,590.0 C 730.0,606.0 728.0,609.0 729.0,612.0" fill="none" stroke="black" stroke-width="1"/>
  <path d="M 729.0,612.0 C 727.0,614.0 728.0,616.0 726.0,620.0" fill="none" stroke="black" stroke-width="1"/>
  <path d="M 726.0,620.0 C 728.0,616.0 727.0,614.0 729.0,612.0" fill="none" stroke="black" stroke-width="1"/>
  <path d="M 729.0,612.0 C 728.0,609.0 730.0,606.0 730.0,590.0" fill="none" stroke="black" stroke-width="1"/>
  <path d="M 730.0,590.0 C 728.0,588.0 729.0,584.0 727.0,582.0" fill="none" stroke="black" stroke-width="1"/>
  <path d="M 727.0,582.0 C 728.0,580.0 726.0,578.0 726.0,573.0" fill="none" stroke="black" stroke-width="1"/>
  <path d="M 449.0,568.0 C 450.0,571.0 444.0,580.0 450.0,571.0" fill="none" stroke="black" stroke-width="1"/>
  <path d="M 450.0,571.0 C 449.67,570.33 449.33,569.67 449.0,569.0" fill="none" stroke="black" stroke-width="1"/>
  <path d="M 723.0,567.0 C 723.67,569.0 724.0,569.33 724.0,568.0" fill="none" stroke="black" stroke-width="1"/>
  <path d="M 326.0,567.0 C 321.33,573.67 321.0,574.0 325.0,568.0" fill="none" stroke="black" stroke-width="1"/>
  <path d="M 329.0,563.0 C 327.67,564.33 327.33,564.67 328.0,564.0" fill="none" stroke="black" stroke-width="1"/>
  <path d="M 611.0,561.0 C 611.0,564.0 614.0,568.0 614.0,573.0" fill="none" stroke="black" stroke-width="1"/>
  <path d="M 614.0,573.0 C 616.0,575.0 615.0,576.0 617.0,578.0" fill="none" stroke="black" stroke-width="1"/>
  <path d="M 617.0,578.0 C 616.0,579.0 618.0,581.0 617.0,583.0" fill="none" stroke="black" stroke-width="1"/>
  <path d="M 617.0,583.0 C 620.0,588.0 620.0,593.0 622.0,595.0" fill="none" stroke="black" stroke-width="1"/>
  <path d="M 622.0,595.0 C 621.0,597.0 624.0,602.0 623.0,604.0" fill="none" stroke="black" stroke-width="1"/>
  <path d="M 623.0,604.0 C 626.0,609.0 624.0,602.0 622.0,600.0" fill="none" stroke="black" stroke-width="1"/>
  <path d="M 622.0,600.0 C 623.0,599.0 621.0,597.0 622.0,595.0" fill="none" stroke="black" stroke-width="1"/>
  <path d="M 622.0,595.0 C 620.0,593.0 620.0,588.0 617.0,583.0" fill="none" stroke="black" stroke-width="1"/>
  <path d="M 617.0,583.0 C 618.0,581.0 614.0,573.0 615.0,572.0" fill="none" stroke="black" stroke-width="1"/>
  <path d="M 615.0,572.0 C 613.0,568.0 612.0,564.67 612.0,562.0" fill="none" stroke="black" stroke-width="1"/>
  <path d="M 780.0,560.0 C 767.0,573.0 755.0,575.0 752.0,572.0" fill="none" stroke="black" stroke-width="1"/>
  <path d="M 752.0,572.0 C 753.0,569.0 751.0,572.0 757.0,576.0" fill="none" stroke="black" stroke-width="1"/>
  <path d="M 757.0,576.0 C 764.0,575.0 770.0,571.0 779.0,561.0" fill="none" stroke="black" stroke-width="1"/>
  <path d="M 567.0,559.0 C 570.33,563.67 570.33,564.0 567.0,560.0" fill="none" stroke="black" stroke-width="1"/>
  <path d="M 333.0,558.0 C 331.0,560.0 330.67,560.33 332.0,559.0" fill="none" stroke="black" stroke-width="1"/>
  <path d="M 303.0,558.0 C 300.0,564.0 301.0,565.0 299.0,567.0" fill="none" stroke="black" stroke-width="1"/>
  <path d="M 299.0,567.0 C 300.0,569.0 298.0,571.0 299.0,573.0" fill="none" stroke="black" stroke-width="1"/>
  <path d="M 299.0,573.0 C 297.0,575.0 294.0,593.0 295.0,614.0" fill="none" stroke="black" stroke-width="1"/>
  <path d="M 295.0,614.0 C 298.0,620.0 302.0,616.0 301.0,615.0" fill="none" stroke="black" stroke-width="1"/>
  <path d="M 301.0,615.0 C 303.0,613.0 303.0,609.0 308.0,600.0" fill="none" stroke="black" stroke-width="1"/>
  <path d="M 308.0,600.0 C 308.0,598.0 304.0,606.0 305.0,607.0" fill="none" stroke="black" stroke-width="1"/>
  <path d="M 305.0,607.0 C 303.0,609.0 304.0,610.0 302.0,612.0" fill="none" stroke="black" stroke-width="1"/>
  <path d="M 302.0,612.0 C 302.0,616.0 299.0,620.0 296.0,616.0" fill="none" stroke="black" stroke-width="1"/>
  <path d="M 296.0,616.0 C 295.0,592.0 298.0,578.0 297.0,575.0" fill="none" stroke="black" stroke-width="1"/>
  <path d="M 297.0,575.0 C 299.0,573.0 298.0,571.0 300.0,569.0" fill="none" stroke="black" stroke-width="1"/>
  <path d="M 300.0,569.0 C 299.0,567.0 303.0,560.0 302.0,559.0" fill="none" stroke="black" stroke-width="1"/>
  <path d="M 783.0,556.0 C 781.67,557.33 781.33,557.67 782.0,557.0" fill="none" stroke="black" stroke-width="1"/>
  <path d="M 609.0,556.0 C 609.67,558.0 610.0,558.33 610.0,557.0" fill="none" stroke="black" stroke-width="1"/>
  <path d="M 570.0,556.0 C 589.0,573.0 605.0,590.0 622.0,613.0" fill="none" stroke="black" stroke-width="1"/>
  <path d="M 622.0,613.0 C 603.0,587.0 580.0,564.0 571.0,557.0" fill="none" stroke="black" stroke-width="1"/>
  <path d="M 449.0,554.0 C 449.0,562.0 449.33,562.33 450.0,555.0" fill="none" stroke="black" stroke-width="1"/>
  <path d="M 428.0,552.0 C 421.0,556.0 405.0,571.0 394.0,587.0" fill="none" stroke="black" stroke-width="1"/>
  <path d="M 394.0,587.0 C 404.0,573.0 418.0,559.0 427.0,553.0" fill="none" stroke="black" stroke-width="1"/>
  <path d="M 715.0,551.0 C 716.33,553.0 716.67,553.33 716.0,552.0" fill="none" stroke="black" stroke-width="1"/>
  <path d="M 439.0,547.0 C 434.0,549.0 442.0,547.0 448.0,552.0" fill="none" stroke="black" stroke-width="1"/>
  <path d="M 448.0,552.0 C 446.67,550.0 444.0,548.33 440.0,547.0" fill="none" stroke="black" stroke-width="1"/>
  <path d="M 379.0,547.0 C 364.0,565.0 348.0,588.0 378.0,548.0" fill="none" stroke="black" stroke-width="1"/>
  <path d="M 789.0,546.0 C 787.67,548.0 787.33,548.33 788.0,547.0" fill="none" stroke="black" stroke-width="1"/>
  <path d="M 650.0,545.0 C 651.33,547.0 651.67,547.33 651.0,546.0" fill="none" stroke="black" stroke-width="1"/>
  <path d="M 721.0,543.0 C 736.0,563.0 746.0,570.0 742.0,568.0" fill="none" stroke="black" stroke-width="1"/>
  <path d="M 742.0,568.0 C 736.0,562.0 729.33,554.0 722.0,544.0" fill="none" stroke="black" stroke-width="1"/>
  <path d="M 475.0,542.0 C 466.0,555.0 452.0,570.0 467.0,554.0" fill="none" stroke="black" stroke-width="1"/>
  <path d="M 467.0,554.0 C 469.33,550.33 471.67,546.67 474.0,543.0" fill="none" stroke="black" stroke-width="1"/>
  <path d="M 311.0,541.0 C 307.67,547.67 307.33,548.0 310.0,542.0" fill="none" stroke="black" stroke-width="1"/>
  <path d="M 792.0,539.0 C 791.33,541.0 791.0,541.33 791.0,540.0" fill="none" stroke="black" stroke-width="1"/>
  <path d="M 718.0,539.0 C 719.33,540.33 719.67,540.67 719.0,540.0" fill="none" stroke="black" stroke-width="1"/>
  <path d="M 601.0,539.0 C 603.67,544.33 604.0,544.67 602.0,540.0" fill="none" stroke="black" stroke-width="1"/>
  <path d="M 550.0,537.0 C 549.0,538.0 567.0,556.0 566.0,557.0" fill="none" stroke="black" stroke-width="1"/>
  <path d="M 566.0,557.0 C 568.0,555.0 567.0,556.0 549.0,538.0" fill="none" stroke="black" stroke-width="1"/>
  <path d="M 249.0,535.0 C 247.0,539.0 248.0,540.0 246.0,542.0" fill="none" stroke="black" stroke-width="1"/>
  <path d="M 246.0,542.0 C 247.0,543.0 245.0,545.0 246.0,548.0" fill="none" stroke="black" stroke-width="1"/>
  <path d="M 246.0,548.0 C 244.0,550.0 244.0,569.0 246.0,572.0" fill="none" stroke="black" stroke-width="1"/>
  <path d="M 246.0,572.0 C 245.0,575.0 247.0,577.0 246.0,579.0" fill="none" stroke="black" stroke-width="1"/>
  <path d="M 246.0,579.0 C 248.0,581.0 247.0,582.0 249.0,584.0" fill="none" stroke="black" stroke-width="1"/>
  <path d="M 249.0,584.0 C 248.0,585.0 250.0,589.0 248.0,585.0" fill="none" stroke="black" stroke-width="1"/>
  <path d="M 248.0,585.0 C 249.0,584.0 247.0,582.0 248.0,581.0" fill="none" stroke="black" stroke-width="1"/>
  <path d="M 248.0,581.0 C 246.0,579.0 247.0,577.0 245.0,575.0" fill="none" stroke="black" stroke-width="1"/>
  <path d="M 245.0,575.0 C 246.0,572.0 244.0,569.0 244.0,550.0" fill="none" stroke="black" stroke-width="1"/>
  <path d="M 244.0,550.0 C 246.0,548.0 245.0,545.0 247.0,543.0" fill="none" stroke="black" stroke-width="1"/>
  <path d="M 247.0,543.0 C 246.0,542.0 248.0,540.0 248.0,536.0" fill="none" stroke="black" stroke-width="1"/>
  <path d="M 389.0,534.0 C 383.0,541.33 382.67,541.67 388.0,535.0" fill="none" stroke="black" stroke-width="1"/>
  <path d="M 795.0,532.0 C 794.33,534.0 794.0,534.33 794.0,533.0" fill="none" stroke="black" stroke-width="1"/>
  <path d="M 547.0,531.0 C 548.33,533.0 548.67,533.33 548.0,532.0" fill="none" stroke="black" stroke-width="1"/>
  <path d="M 536.0,530.0 C 543.33,536.0 543.67,536.33 537.0,531.0" fill="none" stroke="black" stroke-width="1"/>
  <path d="M 393.0,529.0 C 391.0,531.0 390.67,531.33 392.0,530.0" fill="none" stroke="black" stroke-width="1"/>
  <path d="M 361.0,529.0 C 343.0,547.0 342.67,547.33 360.0,530.0" fill="none" stroke="black" stroke-width="1"/>
  <path d="M 366.0,525.0 C 364.0,527.0 363.67,527.33 365.0,526.0" fill="none" stroke="black" stroke-width="1"/>
  <path d="M 254.0,525.0 C 251.33,530.33 251.0,530.67 253.0,526.0" fill="none" stroke="black" stroke-width="1"/>
  <path d="M 228.0,524.0 C 232.0,528.67 232.33,529.0 229.0,525.0" fill="none" stroke="black" stroke-width="1"/>
  <path d="M 485.0,522.0 C 480.0,533.0 485.0,524.0 484.0,523.0" fill="none" stroke="black" stroke-width="1"/>
  <path d="M 398.0,522.0 C 396.67,523.33 396.33,523.67 397.0,523.0" fill="none" stroke="black" stroke-width="1"/>
  <path d="M 370.0,522.0 C 368.67,523.33 368.33,523.67 369.0,523.0" fill="none" stroke="black" stroke-width="1"/>
  <path d="M 747.0,520.0 C 749.0,524.0 748.0,525.0 750.0,527.0" fill="none" stroke="black" stroke-width="1"/>
  <path d="M 750.0,527.0 C 749.0,528.0 751.0,530.0 750.0,532.0" fill="none" stroke="black" stroke-width="1"/>
  <path d="M 750.0,532.0 C 752.0,534.0 752.0,540.0 754.0,542.0" fill="none" stroke="black" stroke-width="1"/>
  <path d="M 754.0,542.0 C 754.0,567.0 755.0,548.0 754.0,542.0" fill="none" stroke="black" stroke-width="1"/>
  <path d="M 754.0,542.0 C 752.0,540.0 752.0,534.0 750.0,532.0" fill="none" stroke="black" stroke-width="1"/>
  <path d="M 750.0,532.0 C 751.0,530.0 747.0,522.0 748.0,521.0" fill="none" stroke="black" stroke-width="1"/>
  <path d="M 377.0,517.0 C 373.67,519.67 373.33,520.0 376.0,518.0" fill="none" stroke="black" stroke-width="1"/>
  <path d="M 683.0,516.0 C 707.0,539.0 712.0,546.0 703.0,534.0" fill="none" stroke="black" stroke-width="1"/>
  <path d="M 703.0,534.0 C 696.67,528.33 690.33,522.67 684.0,517.0" fill="none" stroke="black" stroke-width="1"/>
  <path d="M 489.0,514.0 C 488.33,515.33 488.33,515.67 489.0,515.0" fill="none" stroke="black" stroke-width="1"/>
  <path d="M 223.0,514.0 C 223.67,516.0 224.0,516.33 224.0,515.0" fill="none" stroke="black" stroke-width="1"/>
  <path d="M 405.0,512.0 C 401.0,517.33 400.67,517.67 404.0,513.0" fill="none" stroke="black" stroke-width="1"/>
  <path d="M 676.0,511.0 C 679.33,513.67 679.67,514.0 677.0,512.0" fill="none" stroke="black" stroke-width="1"/>
  <path d="M 510.0,511.0 C 526.0,523.0 526.33,523.33 511.0,512.0" fill="none" stroke="black" stroke-width="1"/>
  <path d="M 386.0,511.0 C 381.33,514.33 381.0,514.67 385.0,512.0" fill="none" stroke="black" stroke-width="1"/>
  <path d="M 671.0,508.0 C 673.0,509.33 673.33,509.67 672.0,509.0" fill="none" stroke="black" stroke-width="1"/>
  <path d="M 570.0,506.0 C 579.0,512.0 591.0,524.0 600.0,537.0" fill="none" stroke="black" stroke-width="1"/>
  <path d="M 600.0,537.0 C 588.0,520.0 582.0,514.0 571.0,507.0" fill="none" stroke="black" stroke-width="1"/>
  <path d="M 496.0,506.0 C 501.33,507.33 501.67,507.33 497.0,506.0" fill="none" stroke="black" stroke-width="1"/>
  <path d="M 411.0,503.0 C 407.67,507.67 407.33,508.0 410.0,504.0" fill="none" stroke="black" stroke-width="1"/>
  <path d="M 661.0,502.0 C 663.0,503.33 663.33,503.67 662.0,503.0" fill="none" stroke="black" stroke-width="1"/>
  <path d="M 401.0,502.0 C 394.33,506.0 394.0,506.33 400.0,503.0" fill="none" stroke="black" stroke-width="1"/>
  <path d="M 553.0,501.0 C 546.0,503.0 541.0,508.0 541.0,519.0" fill="none" stroke="black" stroke-width="1"/>
  <path d="M 541.0,519.0 C 544.0,525.0 541.0,514.0 541.0,508.0" fill="none" stroke="black" stroke-width="1"/>
  <path d="M 541.0,508.0 C 545.0,504.0 550.0,502.0 558.0,502.0" fill="none" stroke="black" stroke-width="1"/>
  <path d="M 558.0,502.0 C 568.0,505.0 562.0,502.0 554.0,501.0" fill="none" stroke="black" stroke-width="1"/>
  <path d="M 406.0,499.0 C 404.0,500.33 403.67,500.67 405.0,500.0" fill="none" stroke="black" stroke-width="1"/>
  <path d="M 735.0,496.0 C 736.33,498.0 736.67,498.33 736.0,497.0" fill="none" stroke="black" stroke-width="1"/>
  <path d="M 640.0,492.0 C 642.0,492.67 642.33,493.0 641.0,493.0" fill="none" stroke="black" stroke-width="1"/>
  <path d="M 420.0,490.0 C 413.0,497.0 412.0,496.0 414.0,498.0" fill="none" stroke="black" stroke-width="1"/>
  <path d="M 414.0,498.0 C 413.33,497.33 415.67,494.67 421.0,490.0" fill="none" stroke="black" stroke-width="1"/>
  <path d="M 425.0,489.0 C 423.67,490.33 423.33,490.67 424.0,490.0" fill="none" stroke="black" stroke-width="1"/>
  <path d="M 591.0,478.0 C 625.0,511.0 643.0,534.0 626.0,512.0" fill="none" stroke="black" stroke-width="1"/>
  <path d="M 626.0,512.0 C 614.67,501.0 603.33,490.0 592.0,479.0" fill="none" stroke="black" stroke-width="1"/>
  <path d="M 447.0,478.0 C 437.67,482.67 437.33,483.0 446.0,479.0" fill="none" stroke="black" stroke-width="1"/>
  <path d="M 255.0,476.0 C 249.0,486.0 246.0,494.0 247.0,496.0" fill="none" stroke="black" stroke-width="1"/>
  <path d="M 247.0,496.0 C 245.0,498.0 246.0,500.0 244.0,502.0" fill="none" stroke="black" stroke-width="1"/>
  <path d="M 244.0,502.0 C 243.0,512.0 245.0,529.0 241.0,533.0" fill="none" stroke="black" stroke-width="1"/>
  <path d="M 241.0,533.0 C 237.0,533.0 236.0,532.0 244.0,532.0" fill="none" stroke="black" stroke-width="1"/>
  <path d="M 244.0,532.0 C 243.0,531.0 246.0,526.0 244.0,502.0" fill="none" stroke="black" stroke-width="1"/>
  <path d="M 244.0,502.0 C 246.0,500.0 245.0,498.0 247.0,496.0" fill="none" stroke="black" stroke-width="1"/>
  <path d="M 247.0,496.0 C 249.33,489.67 251.67,483.33 254.0,477.0" fill="none" stroke="black" stroke-width="1"/>
  <path d="M 453.0,475.0 C 450.33,476.33 450.0,476.67 452.0,476.0" fill="none" stroke="black" stroke-width="1"/>
  <path d="M 592.0,474.0 C 595.0,474.0 597.0,476.0 598.0,475.0" fill="none" stroke="black" stroke-width="1"/>
  <path d="M 598.0,475.0 C 600.0,477.0 601.0,476.0 605.0,479.0" fill="none" stroke="black" stroke-width="1"/>
  <path d="M 605.0,479.0 C 611.0,481.0 612.0,480.0 614.0,482.0" fill="none" stroke="black" stroke-width="1"/>
  <path d="M 614.0,482.0 C 615.0,481.0 619.0,484.0 620.0,483.0" fill="none" stroke="black" stroke-width="1"/>
  <path d="M 620.0,483.0 C 624.0,486.0 631.0,488.0 626.0,485.0" fill="none" stroke="black" stroke-width="1"/>
  <path d="M 626.0,485.0 C 622.0,485.0 618.0,482.0 614.0,482.0" fill="none" stroke="black" stroke-width="1"/>
  <path d="M 614.0,482.0 C 610.0,479.0 604.0,477.0 603.0,478.0" fill="none" stroke="black" stroke-width="1"/>
  <path d="M 603.0,478.0 C 601.0,476.0 600.0,477.0 598.0,475.0" fill="none" stroke="black" stroke-width="1"/>
  <path d="M 598.0,475.0 C 597.33,475.67 595.67,475.33 593.0,474.0" fill="none" stroke="black" stroke-width="1"/>
  <path d="M 374.0,472.0 C 361.0,481.0 342.0,498.0 326.0,517.0" fill="none" stroke="black" stroke-width="1"/>
  <path d="M 326.0,517.0 C 316.0,532.0 336.0,505.0 353.0,488.0" fill="none" stroke="black" stroke-width="1"/>
  <path d="M 353.0,488.0 C 359.67,483.0 366.33,478.0 373.0,473.0" fill="none" stroke="black" stroke-width="1"/>
  <path d="M 462.0,470.0 C 460.0,471.33 459.67,471.67 461.0,471.0" fill="none" stroke="black" stroke-width="1"/>
  <path d="M 798.0,468.0 C 800.0,473.0 799.0,474.0 801.0,476.0" fill="none" stroke="black" stroke-width="1"/>
  <path d="M 801.0,476.0 C 800.0,478.0 802.0,480.0 801.0,485.0" fill="none" stroke="black" stroke-width="1"/>
  <path d="M 801.0,485.0 C 803.0,497.0 801.0,504.0 802.0,509.0" fill="none" stroke="black" stroke-width="1"/>
  <path d="M 802.0,509.0 C 800.0,511.0 801.0,514.0 799.0,516.0" fill="none" stroke="black" stroke-width="1"/>
  <path d="M 799.0,516.0 C 800.0,518.0 796.0,530.0 800.0,518.0" fill="none" stroke="black" stroke-width="1"/>
  <path d="M 800.0,518.0 C 799.0,516.0 801.0,514.0 800.0,511.0" fill="none" stroke="black" stroke-width="1"/>
  <path d="M 800.0,511.0 C 802.0,509.0 801.0,504.0 803.0,497.0" fill="none" stroke="black" stroke-width="1"/>
  <path d="M 803.0,497.0 C 801.0,485.0 802.0,480.0 800.0,478.0" fill="none" stroke="black" stroke-width="1"/>
  <path d="M 800.0,478.0 C 801.0,476.0 799.0,474.0 799.0,469.0" fill="none" stroke="black" stroke-width="1"/>
  <path d="M 382.0,467.0 C 380.0,468.33 379.67,468.67 381.0,468.0" fill="none" stroke="black" stroke-width="1"/>
  <path d="M 576.0,465.0 C 574.0,467.0 576.0,465.0 590.0,475.0" fill="none" stroke="black" stroke-width="1"/>
  <path d="M 590.0,475.0 C 585.67,472.0 581.33,469.0 577.0,466.0" fill="none" stroke="black" stroke-width="1"/>
  <path d="M 387.0,464.0 C 385.0,465.33 384.67,465.67 386.0,465.0" fill="none" stroke="black" stroke-width="1"/>
  <path d="M 311.0,464.0 C 295.0,477.0 273.0,499.0 258.0,518.0" fill="none" stroke="black" stroke-width="1"/>
  <path d="M 258.0,518.0 C 277.0,495.0 292.0,480.0 310.0,465.0" fill="none" stroke="black" stroke-width="1"/>
  <path d="M 796.0,463.0 C 796.67,465.0 797.0,465.33 797.0,464.0" fill="none" stroke="black" stroke-width="1"/>
  <path d="M 563.0,463.0 C 569.0,465.0 565.0,463.0 564.0,464.0" fill="none" stroke="black" stroke-width="1"/>
  <path d="M 558.0,461.0 C 560.0,461.67 560.33,462.0 559.0,462.0" fill="none" stroke="black" stroke-width="1"/>
  <path d="M 477.0,460.0 C 475.67,461.33 475.33,461.67 476.0,461.0" fill="none" stroke="black" stroke-width="1"/>
  <path d="M 394.0,460.0 C 391.0,462.0 396.0,460.0 395.0,461.0" fill="none" stroke="black" stroke-width="1"/>
  <path d="M 266.0,460.0 C 264.0,462.0 263.67,462.33 265.0,461.0" fill="none" stroke="black" stroke-width="1"/>
  <path d="M 549.0,457.0 C 556.0,460.0 551.0,457.0 550.0,458.0" fill="none" stroke="black" stroke-width="1"/>
  <path d="M 424.0,457.0 C 428.0,461.0 428.0,468.0 424.0,480.0" fill="none" stroke="black" stroke-width="1"/>
  <path d="M 424.0,480.0 C 428.0,471.0 428.0,461.0 425.0,458.0" fill="none" stroke="black" stroke-width="1"/>
  <path d="M 322.0,456.0 C 316.0,460.67 315.67,461.0 321.0,457.0" fill="none" stroke="black" stroke-width="1"/>
  <path d="M 408.0,455.0 C 398.0,459.0 402.0,457.0 403.0,458.0" fill="none" stroke="black" stroke-width="1"/>
  <path d="M 403.0,458.0 C 405.0,456.0 422.0,456.0 409.0,455.0" fill="none" stroke="black" stroke-width="1"/>
  <path d="M 790.0,452.0 C 791.33,454.0 791.67,454.33 791.0,453.0" fill="none" stroke="black" stroke-width="1"/>
  <path d="M 564.0,450.0 C 572.0,458.67 572.33,459.0 565.0,451.0" fill="none" stroke="black" stroke-width="1"/>
  <path d="M 534.0,450.0 C 547.0,456.0 536.0,450.0 535.0,451.0" fill="none" stroke="black" stroke-width="1"/>
  <path d="M 337.0,446.0 C 328.33,452.0 328.0,452.33 336.0,447.0" fill="none" stroke="black" stroke-width="1"/>
  <path d="M 524.0,445.0 C 532.0,449.0 526.0,445.0 525.0,446.0" fill="none" stroke="black" stroke-width="1"/>
  <path d="M 492.0,445.0 C 483.33,454.33 483.0,454.67 491.0,446.0" fill="none" stroke="black" stroke-width="1"/>
  <path d="M 494.0,443.0 C 493.0,624.0 503.0,694.0 522.0,754.0" fill="none" stroke="black" stroke-width="1"/>
  <path d="M 522.0,754.0 C 506.0,707.0 493.0,624.0 494.0,444.0" fill="none" stroke="black" stroke-width="1"/>
  <path d="M 624.0,441.0 C 645.0,456.0 676.0,486.0 717.0,537.0" fill="none" stroke="black" stroke-width="1"/>
  <path d="M 717.0,537.0 C 679.0,489.0 650.0,460.0 625.0,442.0" fill="none" stroke="black" stroke-width="1"/>
  <path d="M 345.0,441.0 C 343.0,442.33 342.67,442.67 344.0,442.0" fill="none" stroke="black" stroke-width="1"/>
  <path d="M 284.0,441.0 C 272.67,452.33 272.33,452.67 283.0,442.0" fill="none" stroke="black" stroke-width="1"/>
  <path d="M 684.0,440.0 C 710.0,463.0 727.0,483.0 734.0,494.0" fill="none" stroke="black" stroke-width="1"/>
  <path d="M 734.0,494.0 C 715.0,468.0 699.0,452.0 685.0,441.0" fill="none" stroke="black" stroke-width="1"/>
  <path d="M 350.0,438.0 C 348.0,439.33 347.67,439.67 349.0,439.0" fill="none" stroke="black" stroke-width="1"/>
  <path d="M 680.0,437.0 C 681.33,438.33 681.67,438.67 681.0,438.0" fill="none" stroke="black" stroke-width="1"/>
  <path d="M 497.0,437.0 C 495.67,439.67 495.33,440.0 496.0,438.0" fill="none" stroke="black" stroke-width="1"/>
  <path d="M 218.0,437.0 C 213.0,455.0 213.0,480.0 216.0,496.0" fill="none" stroke="black" stroke-width="1"/>
  <path d="M 216.0,496.0 C 218.0,498.0 217.0,500.0 222.0,512.0" fill="none" stroke="black" stroke-width="1"/>
  <path d="M 222.0,512.0 C 219.0,506.0 220.0,504.0 218.0,498.0" fill="none" stroke="black" stroke-width="1"/>
  <path d="M 218.0,498.0 C 216.0,496.0 217.0,493.0 214.0,481.0" fill="none" stroke="black" stroke-width="1"/>
  <path d="M 214.0,481.0 C 214.0,449.0 216.0,447.0 215.0,445.0" fill="none" stroke="black" stroke-width="1"/>
  <path d="M 215.0,445.0 C 217.0,441.0 217.67,438.67 217.0,438.0" fill="none" stroke="black" stroke-width="1"/>
  <path d="M 500.0,436.0 C 516.0,441.0 510.0,438.0 501.0,437.0" fill="none" stroke="black" stroke-width="1"/>
  <path d="M 611.0,434.0 C 612.33,434.67 612.67,434.67 612.0,434.0" fill="none" stroke="black" stroke-width="1"/>
  <path d="M 296.0,432.0 C 289.33,437.33 289.0,437.67 295.0,433.0" fill="none" stroke="black" stroke-width="1"/>
  <path d="M 362.0,431.0 C 360.0,432.33 359.67,432.67 361.0,432.0" fill="none" stroke="black" stroke-width="1"/>
  <path d="M 602.0,430.0 C 604.0,430.67 604.33,431.0 603.0,431.0" fill="none" stroke="black" stroke-width="1"/>
  <path d="M 668.0,429.0 C 674.67,433.67 675.0,434.0 669.0,430.0" fill="none" stroke="black" stroke-width="1"/>
  <path d="M 301.0,429.0 C 299.0,430.33 298.67,430.67 300.0,430.0" fill="none" stroke="black" stroke-width="1"/>
  <path d="M 793.0,428.0 C 796.33,432.0 796.67,432.33 794.0,429.0" fill="none" stroke="black" stroke-width="1"/>
  <path d="M 563.0,427.0 C 557.0,433.0 557.0,438.0 560.0,443.0" fill="none" stroke="black" stroke-width="1"/>
  <path d="M 560.0,443.0 C 558.0,436.33 559.33,431.0 564.0,427.0" fill="none" stroke="black" stroke-width="1"/>
  <path d="M 369.0,427.0 C 367.0,428.33 366.67,428.67 368.0,428.0" fill="none" stroke="black" stroke-width="1"/>
  <path d="M 223.0,427.0 C 220.33,432.33 220.0,432.67 222.0,428.0" fill="none" stroke="black" stroke-width="1"/>
  <path d="M 571.0,424.0 C 566.0,426.0 581.0,424.0 584.0,426.0" fill="none" stroke="black" stroke-width="1"/>
  <path d="M 584.0,426.0 C 588.0,425.0 590.0,427.0 592.0,426.0" fill="none" stroke="black" stroke-width="1"/>
  <path d="M 592.0,426.0 C 594.0,428.0 595.0,427.0 600.0,429.0" fill="none" stroke="black" stroke-width="1"/>
  <path d="M 600.0,429.0 C 595.0,427.0 594.0,428.0 592.0,426.0" fill="none" stroke="black" stroke-width="1"/>
  <path d="M 592.0,426.0 C 590.0,427.0 588.0,425.0 584.0,426.0" fill="none" stroke="black" stroke-width="1"/>
  <path d="M 584.0,426.0 C 582.0,424.67 578.0,424.0 572.0,424.0" fill="none" stroke="black" stroke-width="1"/>
  <path d="M 790.0,423.0 C 791.33,425.0 791.67,425.33 791.0,424.0" fill="none" stroke="black" stroke-width="1"/>
  <path d="M 376.0,423.0 C 374.0,424.33 373.67,424.67 375.0,424.0" fill="none" stroke="black" stroke-width="1"/>
  <path d="M 653.0,420.0 C 655.0,421.33 655.33,421.67 654.0,421.0" fill="none" stroke="black" stroke-width="1"/>
  <path d="M 386.0,417.0 C 384.0,418.33 383.67,418.67 385.0,418.0" fill="none" stroke="black" stroke-width="1"/>
  <path d="M 786.0,416.0 C 787.33,418.0 787.67,418.33 787.0,417.0" fill="none" stroke="black" stroke-width="1"/>
  <path d="M 743.0,409.0 C 769.0,427.0 781.0,439.0 789.0,450.0" fill="none" stroke="black" stroke-width="1"/>
  <path d="M 789.0,450.0 C 775.0,432.0 759.0,419.0 744.0,410.0" fill="none" stroke="black" stroke-width="1"/>
  <path d="M 397.0,409.0 C 393.0,412.33 392.67,412.67 396.0,410.0" fill="none" stroke="black" stroke-width="1"/>
  <path d="M 401.0,406.0 C 399.67,407.33 399.33,407.67 400.0,407.0" fill="none" stroke="black" stroke-width="1"/>
  <path d="M 244.0,405.0 C 237.0,410.0 227.0,420.0 224.0,425.0" fill="none" stroke="black" stroke-width="1"/>
  <path d="M 224.0,425.0 C 228.0,419.67 234.33,413.33 243.0,406.0" fill="none" stroke="black" stroke-width="1"/>
  <path d="M 618.0,404.0 C 635.0,411.0 623.0,405.0 619.0,405.0" fill="none" stroke="black" stroke-width="1"/>
  <path d="M 727.0,401.0 C 732.33,403.67 732.67,403.67 728.0,401.0" fill="none" stroke="black" stroke-width="1"/>
  <path d="M 716.0,396.0 C 718.0,396.67 718.33,397.0 717.0,397.0" fill="none" stroke="black" stroke-width="1"/>
  <path d="M 701.0,390.0 C 712.0,394.0 706.0,391.0 705.0,392.0" fill="none" stroke="black" stroke-width="1"/>
  <path d="M 705.0,392.0 C 703.67,390.67 702.67,390.33 702.0,391.0" fill="none" stroke="black" stroke-width="1"/>
  <path d="M 500.0,387.0 C 501.0,389.0 499.0,391.0 500.0,400.0" fill="none" stroke="black" stroke-width="1"/>
  <path d="M 500.0,400.0 C 498.0,402.0 498.0,424.0 496.0,427.0" fill="none" stroke="black" stroke-width="1"/>
  <path d="M 496.0,427.0 C 496.0,435.0 496.0,427.0 498.0,424.0" fill="none" stroke="black" stroke-width="1"/>
  <path d="M 498.0,424.0 C 499.0,412.0 498.0,402.0 500.0,400.0" fill="none" stroke="black" stroke-width="1"/>
  <path d="M 500.0,400.0 C 499.33,394.0 499.67,389.67 501.0,387.0" fill="none" stroke="black" stroke-width="1"/>
  <path d="M 489.0,387.0 C 452.0,397.0 411.0,402.0 408.0,400.0" fill="none" stroke="black" stroke-width="1"/>
  <path d="M 408.0,400.0 C 403.0,404.0 387.0,403.0 349.0,409.0" fill="none" stroke="black" stroke-width="1"/>
  <path d="M 349.0,409.0 C 321.0,418.0 303.0,428.0 352.0,409.0" fill="none" stroke="black" stroke-width="1"/>
  <path d="M 352.0,409.0 C 399.0,402.0 403.0,404.0 408.0,400.0" fill="none" stroke="black" stroke-width="1"/>
  <path d="M 408.0,400.0 C 416.0,402.0 446.0,398.0 490.0,388.0" fill="none" stroke="black" stroke-width="1"/>
  <path d="M 497.0,383.0 C 495.67,384.33 495.33,384.67 496.0,384.0" fill="none" stroke="black" stroke-width="1"/>
  <path d="M 414.0,383.0 C 414.0,389.0 411.0,395.0 414.0,391.0" fill="none" stroke="black" stroke-width="1"/>
  <path d="M 414.0,391.0 C 414.33,388.67 414.67,386.33 415.0,384.0" fill="none" stroke="black" stroke-width="1"/>
  <path d="M 512.0,381.0 C 505.0,383.0 535.0,382.0 554.0,386.0" fill="none" stroke="black" stroke-width="1"/>
  <path d="M 554.0,386.0 C 557.0,385.0 559.0,387.0 566.0,387.0" fill="none" stroke="black" stroke-width="1"/>
  <path d="M 566.0,387.0 C 575.0,391.0 588.0,393.0 593.0,396.0" fill="none" stroke="black" stroke-width="1"/>
  <path d="M 593.0,396.0 C 595.0,395.0 616.0,403.0 595.0,395.0" fill="none" stroke="black" stroke-width="1"/>
  <path d="M 595.0,395.0 C 593.0,396.0 588.0,393.0 583.0,393.0" fill="none" stroke="black" stroke-width="1"/>
  <path d="M 583.0,393.0 C 574.0,389.0 572.0,390.0 570.0,388.0" fill="none" stroke="black" stroke-width="1"/>
  <path d="M 570.0,388.0 C 568.0,389.0 562.0,386.0 559.0,387.0" fill="none" stroke="black" stroke-width="1"/>
  <path d="M 559.0,387.0 C 553.0,384.0 532.0,381.0 513.0,381.0" fill="none" stroke="black" stroke-width="1"/>
  <path d="M 800.0,369.0 C 803.0,378.0 802.0,380.0 804.0,382.0" fill="none" stroke="black" stroke-width="1"/>
  <path d="M 804.0,382.0 C 804.0,390.0 806.0,393.0 805.0,398.0" fill="none" stroke="black" stroke-width="1"/>
  <path d="M 805.0,398.0 C 807.0,400.0 807.0,425.0 805.0,431.0" fill="none" stroke="black" stroke-width="1"/>
  <path d="M 805.0,431.0 C 800.0,435.0 804.0,433.0 807.0,425.0" fill="none" stroke="black" stroke-width="1"/>
  <path d="M 807.0,425.0 C 807.0,400.0 805.0,398.0 806.0,393.0" fill="none" stroke="black" stroke-width="1"/>
  <path d="M 806.0,393.0 C 804.0,390.0 805.0,388.0 803.0,384.0" fill="none" stroke="black" stroke-width="1"/>
  <path d="M 803.0,384.0 C 804.0,382.0 802.0,380.0 803.0,378.0" fill="none" stroke="black" stroke-width="1"/>
  <path d="M 803.0,378.0 C 801.67,376.0 801.0,373.33 801.0,370.0" fill="none" stroke="black" stroke-width="1"/>
  <path d="M 369.0,369.0 C 337.0,372.0 299.0,380.0 268.0,391.0" fill="none" stroke="black" stroke-width="1"/>
  <path d="M 268.0,391.0 C 256.0,398.0 295.0,382.0 352.0,371.0" fill="none" stroke="black" stroke-width="1"/>
  <path d="M 352.0,371.0 C 393.0,371.0 408.0,376.0 413.0,381.0" fill="none" stroke="black" stroke-width="1"/>
  <path d="M 413.0,381.0 C 407.0,375.0 397.0,371.0 370.0,369.0" fill="none" stroke="black" stroke-width="1"/>
  <path d="M 739.0,367.0 C 751.0,376.0 774.0,399.0 783.0,411.0" fill="none" stroke="black" stroke-width="1"/>
  <path d="M 783.0,411.0 C 771.0,395.0 755.0,379.0 740.0,368.0" fill="none" stroke="black" stroke-width="1"/>
  <path d="M 623.0,365.0 C 627.0,367.0 628.0,366.0 630.0,368.0" fill="none" stroke="black" stroke-width="1"/>
  <path d="M 630.0,368.0 C 635.0,368.0 637.0,370.0 638.0,369.0" fill="none" stroke="black" stroke-width="1"/>
  <path d="M 638.0,369.0 C 640.0,371.0 641.0,370.0 643.0,372.0" fill="none" stroke="black" stroke-width="1"/>
  <path d="M 643.0,372.0 C 648.0,372.0 656.0,376.0 658.0,375.0" fill="none" stroke="black" stroke-width="1"/>
  <path d="M 658.0,375.0 C 663.0,378.0 665.0,377.0 667.0,379.0" fill="none" stroke="black" stroke-width="1"/>
  <path d="M 667.0,379.0 C 668.0,378.0 670.0,380.0 671.0,379.0" fill="none" stroke="black" stroke-width="1"/>
  <path d="M 671.0,379.0 C 673.0,381.0 674.0,380.0 676.0,382.0" fill="none" stroke="black" stroke-width="1"/>
  <path d="M 676.0,382.0 C 677.0,381.0 679.0,383.0 680.0,382.0" fill="none" stroke="black" stroke-width="1"/>
  <path d="M 680.0,382.0 C 682.0,384.0 683.0,383.0 685.0,385.0" fill="none" stroke="black" stroke-width="1"/>
  <path d="M 685.0,385.0 C 686.0,384.0 688.0,386.0 689.0,385.0" fill="none" stroke="black" stroke-width="1"/>
  <path d="M 689.0,385.0 C 691.0,387.0 692.0,386.0 694.0,388.0" fill="none" stroke="black" stroke-width="1"/>
  <path d="M 694.0,388.0 C 695.0,387.0 699.0,389.0 695.0,387.0" fill="none" stroke="black" stroke-width="1"/>
  <path d="M 695.0,387.0 C 694.0,388.0 692.0,386.0 691.0,387.0" fill="none" stroke="black" stroke-width="1"/>
  <path d="M 691.0,387.0 C 689.0,385.0 688.0,386.0 686.0,384.0" fill="none" stroke="black" stroke-width="1"/>
  <path d="M 686.0,384.0 C 685.0,385.0 683.0,383.0 682.0,384.0" fill="none" stroke="black" stroke-width="1"/>
  <path d="M 682.0,384.0 C 680.0,382.0 679.0,383.0 677.0,381.0" fill="none" stroke="black" stroke-width="1"/>
  <path d="M 677.0,381.0 C 676.0,382.0 674.0,380.0 673.0,381.0" fill="none" stroke="black" stroke-width="1"/>
  <path d="M 673.0,381.0 C 671.0,379.0 670.0,380.0 668.0,378.0" fill="none" stroke="black" stroke-width="1"/>
  <path d="M 668.0,378.0 C 667.0,379.0 665.0,377.0 663.0,378.0" fill="none" stroke="black" stroke-width="1"/>
  <path d="M 663.0,378.0 C 655.0,374.0 653.0,375.0 648.0,372.0" fill="none" stroke="black" stroke-width="1"/>
  <path d="M 648.0,372.0 C 647.0,373.0 638.0,369.0 637.0,370.0" fill="none" stroke="black" stroke-width="1"/>
  <path d="M 637.0,370.0 C 635.0,368.0 634.0,369.0 625.0,365.0" fill="none" stroke="black" stroke-width="1"/>
  <path d="M 625.0,365.0 C 624.67,365.33 624.33,365.67 624.0,366.0" fill="none" stroke="black" stroke-width="1"/>
  <path d="M 618.0,363.0 C 620.0,363.67 620.33,364.0 619.0,364.0" fill="none" stroke="black" stroke-width="1"/>
  <path d="M 725.0,358.0 C 727.0,359.33 727.33,359.67 726.0,359.0" fill="none" stroke="black" stroke-width="1"/>
  <path d="M 482.0,355.0 C 490.0,360.0 499.0,370.0 493.0,362.0" fill="none" stroke="black" stroke-width="1"/>
  <path d="M 493.0,362.0 C 489.67,360.0 486.33,358.0 483.0,356.0" fill="none" stroke="black" stroke-width="1"/>
  <path d="M 256.0,355.0 C 254.67,356.33 254.33,356.67 255.0,356.0" fill="none" stroke="black" stroke-width="1"/>
  <path d="M 718.0,354.0 C 721.33,356.0 721.67,356.33 719.0,355.0" fill="none" stroke="black" stroke-width="1"/>
  <path d="M 260.0,352.0 C 258.67,353.33 258.33,353.67 259.0,353.0" fill="none" stroke="black" stroke-width="1"/>
  <path d="M 470.0,349.0 C 476.67,352.33 477.0,352.33 471.0,349.0" fill="none" stroke="black" stroke-width="1"/>
  <path d="M 221.0,348.0 C 214.0,376.0 214.0,396.0 216.0,398.0" fill="none" stroke="black" stroke-width="1"/>
  <path d="M 216.0,398.0 C 216.0,402.0 217.0,401.0 219.0,403.0" fill="none" stroke="black" stroke-width="1"/>
  <path d="M 219.0,403.0 C 238.0,371.0 252.0,358.0 236.0,373.0" fill="none" stroke="black" stroke-width="1"/>
  <path d="M 236.0,373.0 C 219.0,403.0 214.0,396.0 215.0,376.0" fill="none" stroke="black" stroke-width="1"/>
  <path d="M 215.0,376.0 C 218.0,363.0 217.0,360.0 221.0,349.0" fill="none" stroke="black" stroke-width="1"/>
  <path d="M 699.0,345.0 C 704.0,347.0 701.0,345.0 700.0,346.0" fill="none" stroke="black" stroke-width="1"/>
  <path d="M 537.0,345.0 C 534.0,347.0 539.0,345.0 538.0,346.0" fill="none" stroke="black" stroke-width="1"/>
  <path d="M 789.0,344.0 C 790.33,346.0 790.67,346.33 790.0,345.0" fill="none" stroke="black" stroke-width="1"/>
  <path d="M 273.0,344.0 C 267.67,347.33 267.33,347.67 272.0,345.0" fill="none" stroke="black" stroke-width="1"/>
  <path d="M 589.0,343.0 C 591.0,347.0 598.0,353.0 589.0,344.0" fill="none" stroke="black" stroke-width="1"/>
  <path d="M 223.0,343.0 C 222.33,345.0 222.0,345.33 222.0,344.0" fill="none" stroke="black" stroke-width="1"/>
  <path d="M 544.0,342.0 C 541.0,344.0 546.0,342.0 545.0,343.0" fill="none" stroke="black" stroke-width="1"/>
  <path d="M 450.0,341.0 C 461.0,345.0 455.0,342.0 454.0,343.0" fill="none" stroke="black" stroke-width="1"/>
  <path d="M 454.0,343.0 C 452.67,341.67 451.67,341.33 451.0,342.0" fill="none" stroke="black" stroke-width="1"/>
  <path d="M 283.0,338.0 C 275.0,343.0 285.0,338.0 284.0,339.0" fill="none" stroke="black" stroke-width="1"/>
  <path d="M 225.0,338.0 C 224.33,340.0 224.0,340.33 224.0,339.0" fill="none" stroke="black" stroke-width="1"/>
  <path d="M 439.0,337.0 C 448.0,340.0 444.0,338.0 443.0,339.0" fill="none" stroke="black" stroke-width="1"/>
  <path d="M 443.0,339.0 C 441.67,337.67 440.67,337.33 440.0,338.0" fill="none" stroke="black" stroke-width="1"/>
  <path d="M 589.0,332.0 C 587.0,334.0 588.0,341.0 588.0,333.0" fill="none" stroke="black" stroke-width="1"/>
  <path d="M 583.0,329.0 C 577.0,332.0 575.0,331.0 556.0,337.0" fill="none" stroke="black" stroke-width="1"/>
  <path d="M 556.0,337.0 C 548.0,341.0 577.0,332.0 579.0,330.0" fill="none" stroke="black" stroke-width="1"/>
  <path d="M 579.0,330.0 C 582.0,331.0 586.0,329.0 584.0,329.0" fill="none" stroke="black" stroke-width="1"/>
  <path d="M 593.0,326.0 C 588.0,330.0 593.0,326.0 597.0,328.0" fill="none" stroke="black" stroke-width="1"/>
  <path d="M 597.0,328.0 C 632.0,327.0 647.0,330.0 651.0,329.0" fill="none" stroke="black" stroke-width="1"/>
  <path d="M 651.0,329.0 C 653.0,331.0 656.0,330.0 669.0,335.0" fill="none" stroke="black" stroke-width="1"/>
  <path d="M 669.0,335.0 C 671.0,334.0 697.0,344.0 678.0,336.0" fill="none" stroke="black" stroke-width="1"/>
  <path d="M 678.0,336.0 C 676.0,337.0 668.0,333.0 666.0,334.0" fill="none" stroke="black" stroke-width="1"/>
  <path d="M 666.0,334.0 C 664.0,332.0 662.0,333.0 660.0,331.0" fill="none" stroke="black" stroke-width="1"/>
  <path d="M 660.0,331.0 C 653.0,331.0 646.0,328.0 631.0,326.0" fill="none" stroke="black" stroke-width="1"/>
  <path d="M 631.0,326.0 C 599.0,326.0 597.0,328.0 594.0,326.0" fill="none" stroke="black" stroke-width="1"/>
  <path d="M 232.0,325.0 C 230.67,327.0 230.33,327.33 231.0,326.0" fill="none" stroke="black" stroke-width="1"/>
  <path d="M 760.0,315.0 C 772.0,323.0 782.0,333.0 788.0,342.0" fill="none" stroke="black" stroke-width="1"/>
  <path d="M 788.0,342.0 C 780.0,331.33 771.0,322.67 761.0,316.0" fill="none" stroke="black" stroke-width="1"/>
  <path d="M 609.0,313.0 C 599.0,320.33 598.67,320.67 608.0,314.0" fill="none" stroke="black" stroke-width="1"/>
  <path d="M 507.0,313.0 C 510.0,316.0 507.0,336.0 508.0,340.0" fill="none" stroke="black" stroke-width="1"/>
  <path d="M 508.0,340.0 C 505.0,344.0 506.0,349.0 504.0,351.0" fill="none" stroke="black" stroke-width="1"/>
  <path d="M 504.0,351.0 C 503.0,357.0 504.0,363.0 500.0,372.0" fill="none" stroke="black" stroke-width="1"/>
  <path d="M 500.0,372.0 C 501.0,380.0 500.0,372.0 504.0,363.0" fill="none" stroke="black" stroke-width="1"/>
  <path d="M 504.0,363.0 C 504.0,351.0 506.0,349.0 505.0,344.0" fill="none" stroke="black" stroke-width="1"/>
  <path d="M 505.0,344.0 C 507.0,341.0 509.0,341.0 511.0,344.0" fill="none" stroke="black" stroke-width="1"/>
  <path d="M 511.0,344.0 C 510.0,345.0 516.0,351.0 525.0,351.0" fill="none" stroke="black" stroke-width="1"/>
  <path d="M 525.0,351.0 C 532.0,348.0 518.0,351.0 511.0,346.0" fill="none" stroke="black" stroke-width="1"/>
  <path d="M 511.0,346.0 C 507.0,339.0 508.0,326.0 510.0,321.0" fill="none" stroke="black" stroke-width="1"/>
  <path d="M 510.0,321.0 C 509.0,317.0 514.0,313.0 510.0,316.0" fill="none" stroke="black" stroke-width="1"/>
  <path d="M 510.0,316.0 C 509.33,315.33 508.67,314.67 508.0,314.0" fill="none" stroke="black" stroke-width="1"/>
  <path d="M 754.0,312.0 C 756.67,313.33 757.0,313.33 755.0,312.0" fill="none" stroke="black" stroke-width="1"/>
  <path d="M 499.0,311.0 C 504.0,313.0 501.0,311.0 500.0,312.0" fill="none" stroke="black" stroke-width="1"/>
  <path d="M 532.0,309.0 C 525.0,313.0 522.0,312.0 516.0,314.0" fill="none" stroke="black" stroke-width="1"/>
  <path d="M 516.0,314.0 C 525.0,313.0 527.0,311.0 528.0,312.0" fill="none" stroke="black" stroke-width="1"/>
  <path d="M 528.0,312.0 C 532.0,310.0 533.67,309.33 533.0,310.0" fill="none" stroke="black" stroke-width="1"/>
  <path d="M 515.0,308.0 C 515.0,309.33 514.67,309.67 514.0,309.0" fill="none" stroke="black" stroke-width="1"/>
  <path d="M 543.0,304.0 C 541.0,305.33 540.67,305.67 542.0,305.0" fill="none" stroke="black" stroke-width="1"/>
  <path d="M 415.0,304.0 C 427.0,320.0 427.0,329.0 424.0,332.0" fill="none" stroke="black" stroke-width="1"/>
  <path d="M 424.0,332.0 C 378.0,322.0 340.0,322.0 313.0,327.0" fill="none" stroke="black" stroke-width="1"/>
  <path d="M 313.0,327.0 C 289.0,336.0 310.0,328.0 340.0,322.0" fill="none" stroke="black" stroke-width="1"/>
  <path d="M 340.0,322.0 C 393.0,324.0 437.0,336.0 426.0,331.0" fill="none" stroke="black" stroke-width="1"/>
  <path d="M 426.0,331.0 C 426.67,322.33 423.33,313.67 416.0,305.0" fill="none" stroke="black" stroke-width="1"/>
  <path d="M 411.0,301.0 C 412.33,302.33 412.67,302.67 412.0,302.0" fill="none" stroke="black" stroke-width="1"/>
  <path d="M 551.0,299.0 C 547.0,301.67 546.67,302.0 550.0,300.0" fill="none" stroke="black" stroke-width="1"/>
  <path d="M 670.0,297.0 C 635.0,303.0 611.0,312.0 638.0,303.0" fill="none" stroke="black" stroke-width="1"/>
  <path d="M 638.0,303.0 C 670.0,297.0 701.0,297.0 704.0,299.0" fill="none" stroke="black" stroke-width="1"/>
  <path d="M 704.0,299.0 C 726.0,301.0 743.0,307.0 711.0,298.0" fill="none" stroke="black" stroke-width="1"/>
  <path d="M 711.0,298.0 C 697.67,297.67 684.33,297.33 671.0,297.0" fill="none" stroke="black" stroke-width="1"/>
  <path d="M 523.0,292.0 C 518.33,301.33 518.0,301.67 522.0,293.0" fill="none" stroke="black" stroke-width="1"/>
  <path d="M 266.0,288.0 C 249.0,302.0 233.0,323.0 244.0,308.0" fill="none" stroke="black" stroke-width="1"/>
  <path d="M 244.0,308.0 C 251.0,301.67 258.0,295.33 265.0,289.0" fill="none" stroke="black" stroke-width="1"/>
  <path d="M 573.0,285.0 C 565.67,289.67 565.33,290.0 572.0,286.0" fill="none" stroke="black" stroke-width="1"/>
  <path d="M 381.0,285.0 C 383.0,285.67 383.33,286.0 382.0,286.0" fill="none" stroke="black" stroke-width="1"/>
  <path d="M 748.0,282.0 C 751.0,291.0 748.0,294.0 745.0,294.0" fill="none" stroke="black" stroke-width="1"/>
  <path d="M 745.0,294.0 C 736.0,288.0 745.0,294.0 749.0,294.0" fill="none" stroke="black" stroke-width="1"/>
  <path d="M 749.0,294.0 C 750.33,292.0 750.33,288.33 749.0,283.0" fill="none" stroke="black" stroke-width="1"/>
  <path d="M 274.0,282.0 C 272.0,284.0 272.33,284.0 275.0,282.0" fill="none" stroke="black" stroke-width="1"/>
  <path d="M 580.0,281.0 C 578.0,282.33 578.33,282.33 581.0,281.0" fill="none" stroke="black" stroke-width="1"/>
  <path d="M 721.0,279.0 C 725.67,281.67 726.0,282.0 722.0,280.0" fill="none" stroke="black" stroke-width="1"/>
  <path d="M 588.0,277.0 C 584.67,279.0 585.0,279.0 589.0,277.0" fill="none" stroke="black" stroke-width="1"/>
  <path d="M 281.0,277.0 C 276.0,280.0 283.0,278.0 282.0,277.0" fill="none" stroke="black" stroke-width="1"/>
  <path d="M 448.0,274.0 C 478.0,296.67 478.33,297.0 449.0,275.0" fill="none" stroke="black" stroke-width="1"/>
  <path d="M 306.0,273.0 C 300.0,274.0 298.0,276.0 291.0,276.0" fill="none" stroke="black" stroke-width="1"/>
  <path d="M 291.0,276.0 C 289.0,278.0 287.0,277.0 285.0,279.0" fill="none" stroke="black" stroke-width="1"/>
  <path d="M 285.0,279.0 C 287.0,277.0 289.0,278.0 295.0,275.0" fill="none" stroke="black" stroke-width="1"/>
  <path d="M 295.0,275.0 C 298.0,276.0 300.0,274.0 305.0,275.0" fill="none" stroke="black" stroke-width="1"/>
  <path d="M 305.0,275.0 C 337.0,273.0 339.0,275.0 344.0,274.0" fill="none" stroke="black" stroke-width="1"/>
  <path d="M 344.0,274.0 C 347.0,276.0 350.0,275.0 352.0,277.0" fill="none" stroke="black" stroke-width="1"/>
  <path d="M 352.0,277.0 C 359.0,277.0 361.0,279.0 366.0,279.0" fill="none" stroke="black" stroke-width="1"/>
  <path d="M 366.0,279.0 C 368.0,281.0 369.0,280.0 371.0,282.0" fill="none" stroke="black" stroke-width="1"/>
  <path d="M 371.0,282.0 C 372.0,281.0 379.0,284.0 363.0,278.0" fill="none" stroke="black" stroke-width="1"/>
  <path d="M 363.0,278.0 C 361.0,279.0 359.0,277.0 357.0,278.0" fill="none" stroke="black" stroke-width="1"/>
  <path d="M 357.0,278.0 C 355.0,276.0 352.0,277.0 350.0,275.0" fill="none" stroke="black" stroke-width="1"/>
  <path d="M 350.0,275.0 C 347.0,276.0 344.0,274.0 339.0,275.0" fill="none" stroke="black" stroke-width="1"/>
  <path d="M 339.0,275.0 C 337.67,273.67 327.0,273.0 307.0,273.0" fill="none" stroke="black" stroke-width="1"/>
  <path d="M 285.0,273.0 C 283.0,274.33 282.67,274.67 284.0,274.0" fill="none" stroke="black" stroke-width="1"/>
  <path d="M 599.0,272.0 C 598.0,273.0 601.0,272.0 600.0,273.0" fill="none" stroke="black" stroke-width="1"/>
  <path d="M 271.0,271.0 C 270.0,276.0 274.0,279.0 270.0,276.0" fill="none" stroke="black" stroke-width="1"/>
  <path d="M 270.0,276.0 C 270.0,274.67 270.0,273.33 270.0,272.0" fill="none" stroke="black" stroke-width="1"/>
  <path d="M 607.0,269.0 C 603.0,271.0 610.0,269.0 608.0,270.0" fill="none" stroke="black" stroke-width="1"/>
  <path d="M 438.0,268.0 C 441.33,270.0 441.67,270.33 439.0,269.0" fill="none" stroke="black" stroke-width="1"/>
  <path d="M 496.0,267.0 C 499.0,273.0 498.0,274.0 500.0,276.0" fill="none" stroke="black" stroke-width="1"/>
  <path d="M 500.0,276.0 C 499.0,278.0 502.0,283.0 501.0,284.0" fill="none" stroke="black" stroke-width="1"/>
  <path d="M 501.0,284.0 C 503.0,286.0 502.0,288.0 507.0,310.0" fill="none" stroke="black" stroke-width="1"/>
  <path d="M 507.0,310.0 C 505.67,299.33 502.33,285.33 497.0,268.0" fill="none" stroke="black" stroke-width="1"/>
  <path d="M 641.0,262.0 C 639.0,264.0 633.0,263.0 631.0,265.0" fill="none" stroke="black" stroke-width="1"/>
  <path d="M 631.0,265.0 C 627.0,264.0 612.0,268.0 627.0,264.0" fill="none" stroke="black" stroke-width="1"/>
  <path d="M 627.0,264.0 C 631.0,265.0 633.0,263.0 639.0,264.0" fill="none" stroke="black" stroke-width="1"/>
  <path d="M 639.0,264.0 C 641.0,262.0 665.0,262.0 667.0,264.0" fill="none" stroke="black" stroke-width="1"/>
  <path d="M 667.0,264.0 C 673.0,263.0 675.0,265.0 680.0,264.0" fill="none" stroke="black" stroke-width="1"/>
  <path d="M 680.0,264.0 C 686.0,267.0 689.0,266.0 713.0,275.0" fill="none" stroke="black" stroke-width="1"/>
  <path d="M 713.0,275.0 C 700.0,269.0 698.0,270.0 696.0,268.0" fill="none" stroke="black" stroke-width="1"/>
  <path d="M 696.0,268.0 C 691.0,268.0 685.0,265.0 682.0,266.0" fill="none" stroke="black" stroke-width="1"/>
  <path d="M 682.0,266.0 C 680.0,264.0 675.0,265.0 673.0,263.0" fill="none" stroke="black" stroke-width="1"/>
  <path d="M 673.0,263.0 C 667.0,264.0 665.0,262.0 642.0,262.0" fill="none" stroke="black" stroke-width="1"/>
  <path d="M 493.0,260.0 C 494.33,263.33 494.67,263.67 494.0,261.0" fill="none" stroke="black" stroke-width="1"/>
  <path d="M 355.0,247.0 C 329.0,252.0 309.0,260.0 326.0,253.0" fill="none" stroke="black" stroke-width="1"/>
  <path d="M 326.0,253.0 C 328.0,254.0 341.0,250.0 376.0,247.0" fill="none" stroke="black" stroke-width="1"/>
  <path d="M 376.0,247.0 C 379.0,249.0 384.0,248.0 387.0,250.0" fill="none" stroke="black" stroke-width="1"/>
  <path d="M 387.0,250.0 C 390.0,249.0 392.0,251.0 402.0,252.0" fill="none" stroke="black" stroke-width="1"/>
  <path d="M 402.0,252.0 C 415.0,257.0 402.0,252.0 392.0,251.0" fill="none" stroke="black" stroke-width="1"/>
  <path d="M 392.0,251.0 C 390.67,249.67 378.67,248.33 356.0,247.0" fill="none" stroke="black" stroke-width="1"/>
  <path d="M 484.0,244.0 C 485.33,246.0 485.67,246.33 485.0,245.0" fill="none" stroke="black" stroke-width="1"/>
  <path d="M 576.0,232.0 C 561.0,243.0 547.0,257.0 528.0,283.0" fill="none" stroke="black" stroke-width="1"/>
  <path d="M 528.0,283.0 C 538.0,268.0 550.0,254.0 565.0,240.0" fill="none" stroke="black" stroke-width="1"/>
  <path d="M 565.0,240.0 C 568.33,237.67 571.67,235.33 575.0,233.0" fill="none" stroke="black" stroke-width="1"/>
  <path d="M 581.0,229.0 C 579.0,230.33 578.67,230.67 580.0,230.0" fill="none" stroke="black" stroke-width="1"/>
  <path d="M 691.0,227.0 C 704.0,235.0 723.0,251.0 738.0,267.0" fill="none" stroke="black" stroke-width="1"/>
  <path d="M 738.0,267.0 C 747.0,280.0 736.0,264.0 716.0,244.0" fill="none" stroke="black" stroke-width="1"/>
  <path d="M 716.0,244.0 C 709.33,238.67 701.33,233.33 692.0,228.0" fill="none" stroke="black" stroke-width="1"/>
  <path d="M 593.0,222.0 C 591.0,224.0 595.0,222.0 594.0,223.0" fill="none" stroke="black" stroke-width="1"/>
  <path d="M 676.0,220.0 C 678.0,220.67 678.33,220.67 677.0,220.0" fill="none" stroke="black" stroke-width="1"/>
  <path d="M 598.0,220.0 C 597.0,221.0 600.0,220.0 599.0,221.0" fill="none" stroke="black" stroke-width="1"/>
  <path d="M 327.0,219.0 C 297.0,240.0 280.0,257.0 273.0,267.0" fill="none" stroke="black" stroke-width="1"/>
  <path d="M 273.0,267.0 C 277.0,261.0 300.0,238.0 317.0,225.0" fill="none" stroke="black" stroke-width="1"/>
  <path d="M 317.0,225.0 C 320.0,223.33 323.0,221.67 326.0,220.0" fill="none" stroke="black" stroke-width="1"/>
  <path d="M 631.0,212.0 C 629.0,214.0 622.0,213.0 620.0,215.0" fill="none" stroke="black" stroke-width="1"/>
  <path d="M 620.0,215.0 C 617.0,214.0 615.0,216.0 613.0,215.0" fill="none" stroke="black" stroke-width="1"/>
  <path d="M 613.0,215.0 C 611.0,217.0 610.0,216.0 608.0,218.0" fill="none" stroke="black" stroke-width="1"/>
  <path d="M 608.0,218.0 C 606.0,217.0 602.0,219.0 606.0,217.0" fill="none" stroke="black" stroke-width="1"/>
  <path d="M 606.0,217.0 C 608.0,218.0 610.0,216.0 611.0,217.0" fill="none" stroke="black" stroke-width="1"/>
  <path d="M 611.0,217.0 C 613.0,215.0 615.0,216.0 617.0,214.0" fill="none" stroke="black" stroke-width="1"/>
  <path d="M 617.0,214.0 C 620.0,215.0 622.0,213.0 629.0,214.0" fill="none" stroke="black" stroke-width="1"/>
  <path d="M 629.0,214.0 C 631.0,212.0 645.0,212.0 649.0,214.0" fill="none" stroke="black" stroke-width="1"/>
  <path d="M 649.0,214.0 C 654.0,213.0 656.0,215.0 659.0,214.0" fill="none" stroke="black" stroke-width="1"/>
  <path d="M 659.0,214.0 C 661.0,216.0 663.0,215.0 665.0,217.0" fill="none" stroke="black" stroke-width="1"/>
  <path d="M 665.0,217.0 C 668.0,217.0 665.0,217.0 663.0,215.0" fill="none" stroke="black" stroke-width="1"/>
  <path d="M 663.0,215.0 C 661.0,216.0 659.0,214.0 656.0,215.0" fill="none" stroke="black" stroke-width="1"/>
  <path d="M 656.0,215.0 C 654.0,213.0 649.0,214.0 645.0,212.0" fill="none" stroke="black" stroke-width="1"/>
  <path d="M 645.0,212.0 C 640.67,212.0 636.33,212.0 632.0,212.0" fill="none" stroke="black" stroke-width="1"/>
  <path d="M 450.0,211.0 C 463.0,220.0 478.0,235.0 483.0,242.0" fill="none" stroke="black" stroke-width="1"/>
  <path d="M 483.0,242.0 C 471.67,228.67 461.0,218.67 451.0,212.0" fill="none" stroke="black" stroke-width="1"/>
  <path d="M 342.0,211.0 C 333.33,215.67 333.67,215.67 343.0,211.0" fill="none" stroke="black" stroke-width="1"/>
  <path d="M 385.0,198.0 C 381.0,200.0 379.0,199.0 360.0,204.0" fill="none" stroke="black" stroke-width="1"/>
  <path d="M 360.0,204.0 C 379.0,199.0 381.0,200.0 385.0,198.0" fill="none" stroke="black" stroke-width="1"/>
  <path d="M 385.0,198.0 C 413.0,198.0 415.0,200.0 418.0,199.0" fill="none" stroke="black" stroke-width="1"/>
  <path d="M 418.0,199.0 C 421.0,201.0 423.0,200.0 429.0,202.0" fill="none" stroke="black" stroke-width="1"/>
  <path d="M 429.0,202.0 C 423.0,200.0 421.0,201.0 418.0,199.0" fill="none" stroke="black" stroke-width="1"/>
  <path d="M 418.0,199.0 C 415.0,200.0 413.0,198.0 386.0,198.0" fill="none" stroke="black" stroke-width="1"/>
</svg>