<svg xmlns="http://www.w3.org/2000/svg" viewBox="0 0 1024 1024" width="1024" height="1024">
<g fill="none" stroke="#000000" stroke-width="2.8" stroke-linecap="round" stroke-linejoin="round">
  <path d="M 273.2,276.4 C 282.6,266.6 306.5,230.4 330.0,217.5 C 353.5,204.6 389.7,196.3 414.0,199.0 C 438.3,201.8 460.6,215.8 476.1,234.0 C 491.5,252.3 501.6,296.0 506.7,308.4"/>
  <path d="M 515.2,308.4 C 502.5,304.8 544.9,257.2 564.0,241.2 C 583.1,225.3 608.2,214.7 630.0,212.8 C 651.8,210.9 675.5,217.6 695.0,229.7 C 714.5,241.8 756.4,279.7 747.3,285.2 C 738.1,290.7 678.7,258.9 640.0,262.8 C 601.3,266.7 527.9,312.0 515.2,308.4 Z"/>
  <path d="M 288.0,271.6 C 296.5,268.1 322.3,254.2 339.0,250.5 C 355.7,246.8 360.8,239.2 388.0,249.4 C 415.2,259.6 483.4,301.4 502.4,311.8"/>
  <path d="M 290.6,276.5 C 305.1,277.7 355.4,275.4 378.0,283.9 C 400.6,292.4 418.3,320.2 426.4,327.4"/>
  <path d="M 272.0,283.0 C 263.0,302.0 213.1,388.6 218.1,396.7 C 223.1,404.7 268.1,342.2 302.0,331.2 C 335.9,320.2 401.5,330.7 421.4,330.6"/>
  <path d="M 597.1,322.9 C 590.8,314.1 646.0,299.3 672.0,297.4 C 698.0,295.6 732.6,302.0 753.0,311.6 C 773.4,321.2 785.7,335.9 794.3,355.0 C 802.8,374.1 818.2,426.9 804.1,426.0 C 790.1,425.2 744.5,367.1 710.0,349.9 C 675.5,332.7 603.5,331.6 597.1,322.9 Z"/>
  <path d="M 583.4,329.8 C 574.0,332.9 539.1,346.2 527.0,348.7 C 514.9,351.2 513.5,345.3 510.8,344.6"/>
  <path d="M 588.0,333.6 C 621.0,352.5 751.2,416.1 786.3,447.0 C 821.4,477.9 803.8,498.0 798.6,519.0 C 793.5,540.0 762.7,564.2 755.6,573.3"/>
  <path d="M 429.6,333.4 C 436.8,336.2 461.9,345.0 473.0,350.5 C 484.1,356.0 492.5,363.9 496.4,366.6"/>
  <path d="M 410.4,396.4 C 403.8,392.0 398.4,368.3 371.0,369.6 C 343.6,370.8 272.1,390.3 246.0,404.0 C 219.9,417.8 217.6,432.6 214.4,452.0 C 211.2,471.4 213.6,523.9 227.0,520.7 C 240.4,517.6 266.4,452.9 295.0,433.3 C 323.6,413.7 381.2,408.0 398.4,402.9"/>
  <path d="M 505.6,382.6 C 520.8,384.9 567.6,387.1 597.0,396.5 C 626.4,405.8 658.7,421.6 682.0,438.8 C 705.3,456.1 725.2,478.6 737.0,500.0 C 748.8,521.4 750.3,556.2 753.0,567.4"/>
  <path d="M 495.4,384.5 C 490.2,386.1 477.6,391.0 464.0,393.7 C 450.4,396.4 422.0,399.6 413.6,400.8"/>
  <path d="M 398.9,407.0 C 374.4,427.5 276.1,499.0 251.6,530.0 C 227.1,561.0 244.9,576.5 251.9,593.0 C 258.9,609.5 286.5,623.2 293.4,629.3"/>
  <path d="M 573.5,461.4 C 572.5,455.7 559.2,430.4 567.4,426.9 C 575.7,423.4 593.0,416.8 623.0,440.6 C 653.0,464.4 726.7,548.2 747.5,569.7"/>
  <path d="M 500.6,437.3 C 503.1,437.9 504.2,436.6 516.0,441.3 C 527.8,446.0 562.2,461.3 571.4,465.3"/>
  <path d="M 489.8,448.0 C 485.7,451.3 475.9,461.2 465.0,467.9 C 454.1,474.7 431.3,485.2 424.6,488.7"/>
  <path d="M 421.4,485.4 C 419.2,480.6 421.3,454.3 408.0,456.6 C 394.7,458.9 360.2,472.7 341.6,499.2 C 323.1,525.7 304.2,596.1 296.7,615.4"/>
  <path d="M 595.6,475.0 C 616.9,490.7 702.3,543.7 723.4,569.0 C 744.5,594.3 731.0,609.3 722.4,627.0 C 713.7,644.7 680.0,667.2 671.6,675.3"/>
  <path d="M 593.1,478.5 C 605.5,495.4 653.4,555.1 667.4,580.0 C 681.3,604.9 676.8,612.8 676.9,628.0 C 677.0,643.2 669.7,664.2 668.2,671.4"/>
  <path d="M 405.4,499.7 C 394.5,508.1 357.1,530.7 339.7,550.0 C 322.2,569.3 307.3,604.5 300.9,615.4"/>
  <path d="M 547.8,533.4 C 548.2,528.5 544.3,506.5 550.5,504.0 C 556.6,501.5 572.4,500.9 584.7,518.3 C 597.1,535.7 617.9,593.4 624.5,608.4"/>
  <path d="M 409.6,504.6 C 398.0,520.8 353.7,575.2 340.0,602.0 C 326.4,628.8 329.8,654.9 327.7,665.4"/>
  <path d="M 496.6,506.5 C 499.1,507.6 504.0,508.0 512.0,512.9 C 520.0,517.9 539.0,532.2 544.4,536.0"/>
  <path d="M 488.4,517.1 C 485.5,522.1 476.8,538.6 470.9,547.0 C 465.1,555.4 456.3,564.0 453.4,567.4"/>
  <path d="M 491.5,517.6 C 491.5,528.8 490.3,561.6 491.2,585.0 C 492.2,608.4 494.5,636.5 497.4,658.0 C 500.3,679.5 504.2,697.6 508.5,714.0 C 512.9,730.4 521.2,749.4 523.7,756.4"/>
  <path d="M 449.0,565.5 C 446.0,563.1 440.2,547.5 431.0,551.3 C 421.8,555.0 401.8,566.8 393.7,588.0 C 385.6,609.2 384.4,663.4 382.5,678.4"/>
  <path d="M 571.6,558.3 C 575.4,561.8 586.4,570.5 594.6,579.1 C 602.9,587.7 616.6,604.8 621.0,609.9"/>
  <path d="M 568.6,560.6 C 575.2,574.3 602.5,618.4 608.3,643.0 C 614.2,667.6 604.6,697.5 603.8,708.4"/>
  <path d="M 439.6,583.6 C 435.2,589.3 422.4,602.1 413.5,618.0 C 404.6,633.9 390.9,668.8 386.3,678.9"/>
  <path d="M 443.3,585.6 C 438.0,599.1 416.8,646.0 411.2,667.0 C 405.5,688.0 409.7,704.0 409.4,711.4"/>
  <path d="M 626.6,617.6 C 628.5,621.8 634.8,635.8 637.7,643.0 C 640.6,650.1 642.9,657.5 643.9,660.4"/>
  <path d="M 299.7,631.6 C 301.5,634.8 306.1,645.1 310.1,651.0 C 314.0,656.9 321.3,664.3 323.5,666.9"/>
  <path d="M 648.6,667.3 C 649.8,668.3 653.7,671.9 656.1,673.4 C 658.5,674.9 662.0,675.7 663.1,676.2"/>
  <path d="M 644.4,668.6 C 642.8,672.9 641.2,687.4 634.9,694.7 C 628.6,701.9 611.3,709.3 606.6,712.3"/>
  <path d="M 330.7,673.4 C 335.2,676.4 349.9,688.6 358.0,691.3 C 366.1,694.0 375.9,689.9 379.4,689.6"/>
  <path d="M 386.3,690.6 C 387.8,692.8 392.4,699.9 395.6,703.8 C 398.8,707.7 403.9,712.1 405.5,713.8"/>
  <path d="M 598.4,714.8 C 591.4,718.0 567.5,727.0 556.0,733.9 C 544.5,740.8 533.7,752.7 529.3,756.5"/>
  <path d="M 413.6,719.2 C 425.6,725.4 469.0,746.5 486.0,756.2 C 503.0,765.9 510.5,774.0 515.4,777.5"/>
  <path d="M 527.7,769.8 C 527.6,771.1 527.8,775.3 526.9,777.2 C 526.1,779.1 523.3,780.5 522.6,781.2"/>
</g>
</svg>