<svg xmlns="http://www.w3.org/2000/svg" viewBox="0 0 1024 1024" width="1024" height="1024">
<g fill="#000000" fill-rule="evenodd" stroke="none">
  <path d="M 394.0,196.0 C 390.4,199.6 380.4,195.8 376.0,198.0 C 371.2,200.4 364.8,199.6 360.0,202.0 C 350.3,206.9 339.8,210.1 330.0,215.0 C 306.4,226.8 280.0,250.0 268.0,274.0 C 266.1,277.7 273.0,279.3 273.0,281.0 C 273.0,283.3 264.5,287.3 263.0,288.0 C 256.3,291.3 239.4,308.2 236.0,315.0 C 226.3,334.4 213.0,353.8 213.0,377.0 C 213.0,384.3 214.0,392.4 214.0,399.0 C 214.0,400.6 216.9,405.1 219.0,404.0 C 223.2,401.9 223.1,397.8 225.0,394.0 C 228.7,386.7 234.3,380.3 238.0,373.0 C 240.4,368.1 249.6,361.2 254.0,359.0 C 259.9,356.0 264.1,349.9 270.0,347.0 C 278.0,343.0 286.0,339.0 294.0,335.0 C 311.1,326.5 339.9,324.0 361.0,324.0 C 369.1,324.0 380.2,322.6 387.0,326.0 C 390.3,327.6 395.7,325.4 399.0,327.0 C 405.4,330.2 413.5,329.8 420.0,333.0 C 426.8,336.4 443.3,339.2 453.0,344.0 C 465.2,350.1 480.7,352.7 491.0,363.0 C 494.5,366.5 501.9,373.2 499.0,379.0 C 495.2,386.5 486.7,385.1 481.0,388.0 C 470.5,393.3 456.4,390.8 446.0,396.0 C 442.7,397.6 437.3,395.4 434.0,397.0 C 432.1,397.9 412.7,400.8 411.0,400.0 C 409.3,399.2 413.3,394.5 414.0,393.0 C 416.4,388.2 417.4,379.2 411.0,376.0 C 402.3,371.6 378.6,363.7 368.0,369.0 C 364.4,370.8 358.7,368.1 355.0,370.0 C 352.3,371.3 347.7,368.7 345.0,370.0 C 339.1,373.0 331.0,371.0 325.0,374.0 C 317.5,377.8 306.6,375.2 299.0,379.0 C 287.0,385.0 273.0,387.0 261.0,393.0 C 229.2,408.9 212.0,430.4 212.0,467.0 C 212.0,475.6 211.4,485.8 215.0,493.0 C 218.6,500.2 221.6,526.8 234.0,533.0 C 238.3,535.2 243.8,534.3 246.0,530.0 C 249.9,522.1 241.8,510.4 246.0,502.0 C 248.5,497.1 248.5,490.9 251.0,486.0 C 254.8,478.4 260.2,471.6 264.0,464.0 C 266.5,458.9 272.8,454.2 277.0,450.0 C 296.7,430.3 314.7,425.1 337.0,414.0 C 343.6,410.7 362.0,410.5 367.0,408.0 C 373.4,404.8 384.5,405.0 392.0,405.0 C 393.9,405.0 397.7,403.4 399.0,404.0 C 400.6,404.8 389.3,413.8 387.0,415.0 C 372.6,422.2 359.4,431.8 345.0,439.0 C 335.6,443.7 328.4,452.3 319.0,457.0 C 294.8,469.1 261.6,506.8 250.0,530.0 C 245.0,540.0 243.0,548.7 243.0,561.0 C 243.0,563.4 241.9,568.9 243.0,571.0 C 244.4,573.7 243.7,577.4 245.0,580.0 C 252.2,594.4 255.6,609.6 268.0,622.0 C 273.2,627.2 280.7,634.0 288.0,634.0 C 290.2,634.0 296.8,628.7 298.0,631.0 C 312.9,660.8 325.8,678.4 357.0,694.0 C 361.4,696.2 371.3,697.4 376.0,695.0 C 377.6,694.2 383.0,688.5 384.0,689.0 C 386.0,690.0 387.1,695.2 388.0,697.0 C 390.8,702.6 398.7,713.9 405.0,717.0 C 409.0,719.0 412.0,723.0 416.0,725.0 C 428.4,731.2 441.7,735.8 454.0,742.0 C 464.9,747.5 476.1,752.5 487.0,758.0 C 494.2,761.6 499.8,768.4 507.0,772.0 C 511.5,774.2 519.1,787.9 525.0,785.0 C 530.3,782.3 533.1,775.3 530.0,769.0 C 529.2,767.4 527.0,764.1 528.0,762.0 C 532.8,752.4 544.4,740.8 554.0,736.0 C 573.1,726.4 596.2,720.9 610.0,714.0 C 617.5,710.3 624.5,705.8 632.0,702.0 C 641.7,697.2 642.2,685.5 646.0,678.0 C 646.7,676.6 644.7,666.0 647.0,666.0 C 647.8,666.0 650.6,672.2 651.0,673.0 C 653.2,677.4 663.1,681.5 668.0,679.0 C 675.9,675.1 684.0,671.0 692.0,667.0 C 697.9,664.1 708.1,653.8 711.0,648.0 C 714.3,641.4 722.6,631.8 727.0,623.0 C 735.0,606.9 731.5,579.0 724.0,564.0 C 703.5,523.1 671.8,505.9 634.0,487.0 C 619.6,479.8 602.3,478.2 588.0,471.0 C 577.8,465.9 566.8,452.7 562.0,443.0 C 560.7,440.5 557.2,436.6 559.0,433.0 C 562.3,426.5 571.7,426.0 578.0,426.0 C 594.8,426.0 608.0,435.0 622.0,442.0 C 636.0,449.0 649.2,461.2 661.0,473.0 C 665.2,477.2 671.5,481.9 674.0,487.0 C 678.2,495.5 688.8,500.7 693.0,509.0 C 697.1,517.2 706.0,522.9 710.0,531.0 C 715.9,542.8 728.1,551.2 734.0,563.0 C 737.1,569.2 745.1,570.5 750.0,573.0 C 752.5,574.2 754.6,575.8 757.0,577.0 C 761.9,579.5 777.6,567.8 780.0,563.0 C 783.7,555.7 789.4,549.3 793.0,542.0 C 796.5,535.1 797.5,526.9 801.0,520.0 C 803.5,515.1 805.7,490.4 803.0,485.0 C 801.1,481.1 803.0,475.0 801.0,471.0 C 796.7,462.4 792.4,453.7 788.0,445.0 C 784.5,438.0 773.8,427.4 767.0,424.0 C 762.8,421.9 760.2,417.1 756.0,415.0 C 746.4,410.2 737.6,403.8 728.0,399.0 C 715.0,392.5 696.9,388.9 685.0,383.0 C 661.9,371.4 630.9,368.4 606.0,356.0 C 600.4,353.2 584.6,342.8 589.0,334.0 C 590.2,331.6 590.4,330.3 593.0,329.0 C 594.3,328.3 596.7,329.7 598.0,329.0 C 602.1,327.0 628.9,327.0 633.0,329.0 C 636.5,330.8 642.5,328.2 646.0,330.0 C 657.1,335.6 676.8,335.9 689.0,342.0 C 701.2,348.1 713.7,353.8 726.0,360.0 C 735.1,364.5 741.9,373.5 751.0,378.0 C 754.9,379.9 758.9,385.9 762.0,389.0 C 773.4,400.4 782.4,411.8 789.0,425.0 C 791.4,429.9 796.8,439.1 803.0,436.0 C 806.8,434.1 805.6,430.8 807.0,428.0 C 809.7,422.5 808.5,395.1 806.0,390.0 C 804.0,385.9 802.5,367.0 799.0,360.0 C 793.9,349.8 787.2,340.4 782.0,330.0 C 780.1,326.1 772.5,320.7 769.0,319.0 C 761.0,315.0 753.9,309.9 746.0,306.0 C 738.7,302.3 729.3,302.7 722.0,299.0 C 716.5,296.3 708.5,298.8 703.0,296.0 C 697.9,293.5 684.8,296.0 679.0,296.0 C 653.2,296.0 626.5,302.2 605.0,313.0 C 598.9,316.1 595.2,323.9 589.0,327.0 C 580.0,331.5 568.1,330.5 559.0,335.0 C 549.4,339.8 538.6,342.2 529.0,347.0 C 527.0,348.0 520.5,351.2 518.0,350.0 C 512.9,347.5 512.2,343.4 510.0,339.0 C 507.9,334.8 511.8,316.6 515.0,315.0 C 518.0,313.5 523.0,315.5 526.0,314.0 C 531.2,311.4 536.8,309.6 542.0,307.0 C 548.8,303.6 554.2,297.4 561.0,294.0 C 572.2,288.4 582.8,281.6 594.0,276.0 C 601.2,272.4 609.8,271.6 617.0,268.0 C 621.2,265.9 627.8,268.1 632.0,266.0 C 635.2,264.4 661.2,262.1 665.0,264.0 C 670.8,266.9 679.3,264.1 685.0,267.0 C 694.9,271.9 707.3,273.7 718.0,279.0 C 725.3,282.6 746.8,302.3 752.0,292.0 C 753.0,290.0 750.8,285.6 750.0,284.0 C 746.5,277.1 741.4,270.9 738.0,264.0 C 736.0,260.0 730.0,258.0 728.0,254.0 C 724.6,247.2 711.7,237.4 705.0,234.0 C 695.3,229.1 686.6,222.8 677.0,218.0 C 670.5,214.8 652.5,213.8 649.0,212.0 C 644.8,209.9 633.2,209.9 629.0,212.0 C 625.6,213.7 610.4,213.3 605.0,216.0 C 588.0,224.5 555.0,238.0 545.0,258.0 C 543.0,261.9 538.0,264.1 536.0,268.0 C 530.5,278.9 522.3,290.5 516.0,303.0 C 515.1,304.8 512.2,313.6 509.0,312.0 C 506.4,310.7 508.2,301.4 507.0,299.0 C 502.4,289.7 500.8,271.7 495.0,260.0 C 474.4,218.9 441.8,196.0 395.0,196.0 Z M 441.0,583.0 C 445.7,578.3 436.7,599.7 436.0,601.0 C 429.9,613.1 425.1,625.8 419.0,638.0 C 413.1,649.7 406.0,672.2 406.0,686.0 C 406.0,692.7 407.0,699.9 407.0,706.0 C 407.0,707.5 409.7,715.0 408.0,715.0 C 406.9,715.0 405.1,711.5 404.0,711.0 C 397.4,707.7 392.1,697.2 389.0,691.0 C 388.4,689.9 385.4,686.3 386.0,685.0 C 403.3,650.5 410.3,613.7 440.0,584.0 Z M 568.0,558.0 C 569.5,556.5 578.0,565.0 580.0,567.0 C 590.6,577.6 605.4,588.7 612.0,602.0 C 614.4,606.9 619.6,610.2 622.0,615.0 C 626.4,623.8 631.6,632.2 636.0,641.0 C 638.8,646.7 638.2,654.4 641.0,660.0 C 643.2,664.4 644.4,673.2 642.0,678.0 C 639.1,683.7 639.1,695.4 628.0,701.0 C 620.6,704.7 613.3,708.4 606.0,712.0 C 605.4,712.3 603.0,712.1 603.0,711.0 C 603.0,709.9 606.5,708.1 607.0,707.0 C 608.7,703.7 610.4,700.3 612.0,697.0 C 615.1,690.9 617.4,673.8 614.0,667.0 C 612.9,664.9 615.1,661.1 614.0,659.0 C 610.3,651.5 611.7,641.5 608.0,634.0 C 605.6,629.3 605.3,623.6 603.0,619.0 C 593.1,599.3 584.5,575.5 568.0,559.0 Z M 438.0,550.0 C 440.5,547.5 445.6,550.1 447.0,553.0 C 449.0,556.9 449.0,568.1 447.0,572.0 C 442.0,582.0 429.0,588.1 424.0,598.0 C 417.3,611.4 408.6,623.7 402.0,637.0 C 396.6,647.8 394.4,660.2 389.0,671.0 C 388.4,672.2 386.8,680.0 385.0,680.0 C 382.6,680.0 382.7,672.3 382.0,671.0 C 378.2,663.5 379.0,653.0 379.0,644.0 C 379.0,641.8 378.0,636.9 379.0,635.0 C 381.9,629.1 380.1,620.9 383.0,615.0 C 390.8,599.3 400.4,570.3 419.0,561.0 C 425.3,557.9 429.5,550.0 437.0,550.0 Z M 489.0,517.0 C 491.8,514.2 491.0,523.2 491.0,525.0 C 491.0,532.7 490.0,541.7 490.0,550.0 C 490.0,567.1 491.0,584.6 491.0,601.0 C 491.0,605.7 490.3,621.6 492.0,625.0 C 495.2,631.5 492.3,647.5 495.0,653.0 C 497.2,657.3 494.9,663.8 497.0,668.0 C 502.9,679.8 502.7,710.4 509.0,723.0 C 513.9,732.7 515.1,744.3 520.0,754.0 C 521.7,757.4 524.8,761.4 523.0,765.0 C 520.2,770.6 520.5,779.0 519.0,779.0 C 517.8,779.0 507.4,767.2 505.0,766.0 C 495.7,761.3 487.3,754.6 478.0,750.0 C 462.9,742.4 447.1,736.6 432.0,729.0 C 426.3,726.1 417.6,724.3 414.0,717.0 C 397.5,683.9 423.0,636.0 437.0,608.0 C 442.2,597.6 443.8,585.3 449.0,575.0 C 453.1,566.7 464.9,562.2 469.0,554.0 C 472.7,546.6 478.3,540.3 482.0,533.0 C 484.3,528.4 485.2,521.8 489.0,518.0 Z M 494.0,509.0 C 497.7,505.3 504.8,510.4 508.0,512.0 C 521.3,518.7 535.8,535.4 547.0,541.0 C 556.9,545.9 566.1,558.2 571.0,568.0 C 577.4,580.9 587.4,592.9 594.0,606.0 C 599.5,617.1 601.5,629.9 607.0,641.0 C 608.1,643.2 606.9,646.8 608.0,649.0 C 612.0,656.9 611.0,668.5 611.0,678.0 C 611.0,680.4 612.1,685.9 611.0,688.0 C 608.2,693.7 606.9,700.2 604.0,706.0 C 598.3,717.5 574.9,722.0 565.0,727.0 C 556.1,731.4 546.4,736.6 539.0,744.0 C 534.8,748.2 530.4,752.1 528.0,757.0 C 527.7,757.7 526.8,758.4 526.0,758.0 C 522.3,756.2 521.6,747.2 520.0,744.0 C 515.4,734.8 514.5,724.1 510.0,715.0 C 508.3,711.6 509.7,706.4 508.0,703.0 C 502.5,692.0 505.3,675.5 500.0,665.0 C 498.2,661.5 500.8,655.5 499.0,652.0 C 495.0,643.9 499.0,632.1 495.0,624.0 C 493.4,620.8 496.6,615.2 495.0,612.0 C 491.8,605.6 497.1,595.3 494.0,589.0 C 491.2,583.3 493.0,572.7 493.0,566.0 C 493.0,547.0 494.0,528.7 494.0,510.0 Z M 549.0,504.0 C 556.0,497.0 572.7,511.3 578.0,514.0 C 583.5,516.8 590.3,524.7 593.0,530.0 C 596.9,537.7 602.2,544.4 606.0,552.0 C 611.1,562.3 611.9,574.7 617.0,585.0 C 620.1,591.1 619.9,598.8 623.0,605.0 C 623.3,605.6 625.1,611.0 623.0,611.0 C 621.3,611.0 619.0,605.0 618.0,604.0 C 612.1,598.1 608.1,590.1 602.0,584.0 C 595.8,577.8 587.8,565.9 580.0,562.0 C 570.0,557.0 555.8,543.5 551.0,534.0 C 545.0,522.1 536.5,515.5 548.0,504.0 Z M 408.0,500.0 C 408.3,499.7 411.0,497.6 411.0,500.0 C 411.0,503.8 399.1,515.7 397.0,520.0 C 389.8,534.4 368.4,552.3 362.0,565.0 C 356.5,576.1 346.5,585.0 341.0,596.0 C 335.5,607.0 332.4,619.1 327.0,630.0 C 323.6,636.8 325.0,648.9 325.0,657.0 C 325.0,658.1 328.2,668.0 326.0,668.0 C 324.3,668.0 314.8,655.6 314.0,654.0 C 306.6,639.3 295.5,629.0 304.0,612.0 C 306.9,606.3 308.2,599.7 311.0,594.0 C 314.3,587.4 318.7,581.6 322.0,575.0 C 326.2,566.5 338.4,557.2 342.0,550.0 C 343.9,546.2 357.9,532.0 362.0,530.0 C 370.4,525.8 376.6,517.2 385.0,513.0 C 391.6,509.7 401.7,505.3 407.0,500.0 Z M 592.0,477.0 C 594.7,474.3 605.1,479.5 608.0,481.0 C 613.5,483.8 620.5,484.2 626.0,487.0 C 636.3,492.2 646.7,496.8 657.0,502.0 C 675.9,511.5 702.5,529.0 713.0,550.0 C 718.0,560.1 722.4,573.9 725.0,579.0 C 727.8,584.6 730.1,605.8 727.0,612.0 C 723.3,619.4 720.8,627.5 717.0,635.0 C 713.8,641.4 706.3,645.5 703.0,652.0 C 698.7,660.6 685.0,669.0 677.0,673.0 C 676.3,673.4 668.0,676.6 668.0,674.0 C 668.0,672.6 674.9,659.2 676.0,657.0 C 679.8,649.5 680.9,617.9 677.0,610.0 C 675.6,607.3 677.4,602.7 676.0,600.0 C 672.6,593.2 672.4,584.8 669.0,578.0 C 663.7,567.4 658.3,556.7 653.0,546.0 C 639.9,519.9 613.6,498.6 593.0,478.0 Z M 412.0,457.0 C 416.4,452.6 425.1,459.1 427.0,463.0 C 429.5,468.0 419.2,486.5 417.0,491.0 C 415.8,493.5 399.2,501.4 396.0,503.0 C 385.4,508.3 376.7,517.7 366.0,523.0 C 361.7,525.1 359.3,530.8 355.0,533.0 C 350.3,535.4 339.6,544.9 337.0,550.0 C 333.5,557.0 325.5,561.9 322.0,569.0 C 318.1,576.9 312.9,584.1 309.0,592.0 C 305.9,598.2 304.1,604.8 301.0,611.0 C 300.6,611.8 300.4,617.0 299.0,617.0 C 296.3,617.0 296.0,605.0 296.0,603.0 C 296.0,589.3 297.3,572.5 303.0,561.0 C 319.9,527.2 344.1,488.5 381.0,470.0 C 390.5,465.3 399.7,457.0 411.0,457.0 Z M 492.0,447.0 C 495.2,443.8 493.0,458.6 493.0,460.0 C 493.0,470.4 492.0,479.8 492.0,490.0 C 492.0,514.5 479.9,527.1 470.0,547.0 C 467.3,552.4 460.7,555.6 458.0,561.0 C 457.6,561.7 450.0,570.7 450.0,567.0 C 450.0,559.1 453.4,551.2 445.0,547.0 C 443.4,546.2 439.1,545.0 437.0,546.0 C 420.6,554.2 401.9,567.2 393.0,585.0 C 382.9,605.3 376.0,623.3 376.0,648.0 C 376.0,656.3 375.5,668.0 379.0,675.0 C 380.1,677.3 383.5,683.1 382.0,686.0 C 375.1,699.9 356.4,690.2 348.0,686.0 C 314.0,669.0 330.5,624.0 343.0,599.0 C 346.3,592.3 351.7,586.7 355.0,580.0 C 359.6,570.8 369.4,564.2 374.0,555.0 C 378.9,545.2 390.1,538.8 395.0,529.0 C 399.3,520.4 407.7,513.7 412.0,505.0 C 413.7,501.6 415.9,495.1 420.0,493.0 C 423.3,491.3 426.6,489.7 430.0,488.0 C 442.0,482.0 454.0,476.0 466.0,470.0 C 470.4,467.8 473.5,463.2 478.0,461.0 C 480.8,459.6 491.0,451.5 491.0,448.0 Z M 498.0,439.0 C 501.7,435.3 512.5,441.3 516.0,443.0 C 531.4,450.7 547.6,457.3 563.0,465.0 C 568.8,467.9 576.2,468.1 582.0,471.0 C 591.6,475.8 596.4,490.2 606.0,495.0 C 613.4,498.7 624.4,510.9 628.0,518.0 C 631.5,525.1 648.4,542.7 654.0,554.0 C 658.1,562.2 661.9,570.7 666.0,579.0 C 668.1,583.2 667.9,588.8 670.0,593.0 C 678.4,609.8 678.4,648.2 670.0,665.0 C 656.6,691.7 646.4,656.8 641.0,646.0 C 626.5,617.0 620.2,573.5 610.0,553.0 C 603.9,540.9 593.6,527.2 590.0,520.0 C 583.5,507.0 557.3,496.4 544.0,503.0 C 535.7,507.1 540.1,521.3 543.0,527.0 C 543.5,527.9 549.7,537.0 547.0,537.0 C 545.2,537.0 542.6,532.8 541.0,532.0 C 534.7,528.9 530.3,522.2 524.0,519.0 C 517.0,515.5 511.0,509.5 504.0,506.0 C 502.1,505.1 495.0,506.0 494.0,504.0 C 493.9,503.7 495.0,490.2 495.0,488.0 C 495.0,471.9 498.0,455.6 498.0,440.0 Z M 496.0,386.0 C 499.9,382.1 498.0,396.1 498.0,399.0 C 498.0,410.7 495.0,422.8 495.0,435.0 C 495.0,441.2 487.5,448.5 483.0,453.0 C 470.5,465.5 454.8,472.6 440.0,480.0 C 437.9,481.0 423.9,489.0 423.0,489.0 C 421.0,489.0 426.4,478.3 427.0,477.0 C 431.1,468.9 430.3,458.2 422.0,454.0 C 414.9,450.4 398.4,457.3 393.0,460.0 C 385.0,464.0 377.1,469.0 369.0,473.0 C 364.0,475.5 361.0,481.5 356.0,484.0 C 351.0,486.5 342.5,494.1 340.0,499.0 C 336.5,506.0 327.5,510.0 324.0,517.0 C 318.2,528.5 309.7,538.6 304.0,550.0 C 298.8,560.3 298.9,574.2 294.0,584.0 C 292.9,586.1 295.1,589.9 294.0,592.0 C 292.5,595.0 292.5,611.1 294.0,614.0 C 295.0,615.9 297.1,622.8 296.0,625.0 C 290.4,636.2 281.5,627.2 275.0,624.0 C 267.6,620.3 259.2,604.4 256.0,598.0 C 237.3,560.5 246.3,528.7 276.0,499.0 C 308.4,466.6 341.7,442.2 380.0,423.0 C 390.1,418.0 397.9,408.1 408.0,403.0 C 410.1,401.9 413.9,404.1 416.0,403.0 C 425.2,398.4 449.3,401.3 458.0,397.0 C 465.7,393.1 476.3,394.9 484.0,391.0 C 486.5,389.8 492.4,387.0 495.0,387.0 Z M 508.0,384.0 C 510.9,381.1 522.7,383.0 527.0,383.0 C 543.9,383.0 570.9,388.0 585.0,395.0 C 591.2,398.1 619.2,404.6 630.0,410.0 C 672.9,431.5 716.3,461.6 739.0,507.0 C 742.8,514.6 745.3,522.5 749.0,530.0 C 751.4,534.9 749.6,542.2 752.0,547.0 C 754.1,551.3 754.1,563.7 752.0,568.0 C 749.7,572.7 745.5,567.2 743.0,566.0 C 736.7,562.8 728.1,552.2 725.0,546.0 C 716.8,529.6 695.8,504.8 682.0,491.0 C 677.4,486.4 671.4,476.7 666.0,474.0 C 655.8,468.9 650.1,455.0 640.0,450.0 C 635.0,447.5 631.1,442.5 626.0,440.0 C 606.7,430.4 582.7,415.7 560.0,427.0 C 548.5,432.7 562.2,448.3 565.0,454.0 C 565.5,454.9 576.5,465.0 573.0,465.0 C 568.2,465.0 560.3,460.1 556.0,458.0 C 542.9,451.4 529.2,445.6 516.0,439.0 C 512.8,437.4 498.9,436.7 498.0,435.0 C 496.4,431.8 499.0,426.8 499.0,424.0 C 499.0,413.5 501.0,404.2 501.0,394.0 C 501.0,389.4 501.5,384.0 507.0,384.0 Z M 362.0,372.0 C 364.8,369.2 375.9,371.0 380.0,371.0 C 391.1,371.0 407.6,373.1 413.0,384.0 C 415.0,387.9 410.4,393.2 409.0,396.0 C 406.0,401.9 402.1,399.0 398.0,401.0 C 390.2,404.9 371.5,401.3 364.0,405.0 C 352.6,410.7 337.5,409.2 326.0,415.0 C 317.7,419.1 309.2,422.9 301.0,427.0 C 296.6,429.2 293.5,433.8 289.0,436.0 C 284.2,438.4 273.6,445.7 271.0,451.0 C 267.1,458.7 258.9,464.3 255.0,472.0 C 250.9,480.1 248.0,488.9 244.0,497.0 C 240.1,504.8 249.7,537.3 235.0,530.0 C 227.4,526.2 225.2,513.3 222.0,507.0 C 215.3,493.5 210.6,455.8 218.0,441.0 C 221.0,435.0 224.0,429.0 227.0,423.0 C 232.5,412.0 250.3,402.8 260.0,398.0 C 290.0,383.0 325.1,372.0 361.0,372.0 Z M 582.0,332.0 C 582.6,331.4 587.0,329.7 587.0,332.0 C 587.0,341.2 586.5,344.5 594.0,352.0 C 604.1,362.1 620.0,364.0 632.0,370.0 C 644.8,376.4 661.2,375.6 674.0,382.0 C 687.9,388.9 704.1,391.1 718.0,398.0 C 727.8,402.9 737.2,408.1 747.0,413.0 C 752.5,415.8 756.5,421.2 762.0,424.0 C 770.0,428.0 781.9,439.9 786.0,448.0 C 791.0,458.1 795.0,467.9 799.0,476.0 C 800.9,479.9 798.1,486.2 800.0,490.0 C 803.1,496.2 799.9,513.2 797.0,519.0 C 793.7,525.7 793.4,534.2 790.0,541.0 C 787.0,547.0 782.1,551.9 779.0,558.0 C 777.4,561.1 773.7,567.2 770.0,569.0 C 767.0,570.5 757.2,578.4 754.0,572.0 C 753.4,570.8 756.0,566.7 756.0,565.0 C 756.0,556.4 757.6,543.3 754.0,536.0 C 751.1,530.1 750.9,522.8 748.0,517.0 C 737.8,496.6 726.5,477.5 709.0,460.0 C 704.1,455.1 698.1,447.1 692.0,444.0 C 678.1,437.0 666.8,424.9 653.0,418.0 C 636.4,409.7 618.5,404.2 602.0,396.0 C 592.5,391.3 580.5,391.8 571.0,387.0 C 562.0,382.5 540.3,384.2 532.0,380.0 C 524.5,376.3 510.8,382.0 504.0,382.0 C 502.3,382.0 503.0,374.2 503.0,373.0 C 503.0,367.1 504.4,355.2 507.0,350.0 C 507.5,348.9 505.9,343.0 508.0,343.0 C 508.9,343.0 510.3,347.3 511.0,348.0 C 513.9,350.9 520.4,354.3 525.0,352.0 C 537.3,345.8 551.7,343.1 564.0,337.0 C 568.5,334.7 575.7,332.0 581.0,332.0 Z M 669.0,300.0 C 671.4,297.6 679.5,299.0 683.0,299.0 C 695.7,299.0 712.4,297.7 723.0,303.0 C 728.6,305.8 736.3,305.2 742.0,308.0 C 749.3,311.7 756.7,315.3 764.0,319.0 C 788.6,331.3 792.3,360.7 801.0,378.0 C 803.6,383.2 801.5,394.1 804.0,399.0 C 807.3,405.7 806.1,424.8 803.0,431.0 C 801.3,434.5 797.4,432.8 796.0,430.0 C 791.7,421.4 785.3,413.7 781.0,405.0 C 779.3,401.5 774.8,399.5 773.0,396.0 C 767.2,384.4 740.8,364.4 730.0,359.0 C 721.2,354.6 712.8,349.4 704.0,345.0 C 696.7,341.3 688.3,339.7 681.0,336.0 C 670.8,330.9 655.9,331.9 646.0,327.0 C 641.6,324.8 617.8,325.0 611.0,325.0 C 605.4,325.0 596.0,325.2 596.0,325.0 C 596.0,322.8 609.2,314.9 611.0,314.0 C 627.6,305.7 648.2,300.0 668.0,300.0 Z M 305.0,276.0 C 307.2,273.8 326.7,275.0 331.0,275.0 C 359.7,275.0 383.1,288.1 407.0,300.0 C 414.2,303.6 431.0,318.0 426.0,328.0 C 424.0,332.0 419.4,329.2 417.0,328.0 C 412.5,325.7 402.1,324.0 397.0,324.0 C 392.4,324.0 383.1,323.1 379.0,321.0 C 375.2,319.1 365.4,321.0 361.0,321.0 C 346.6,321.0 320.2,321.4 309.0,327.0 C 304.3,329.4 298.6,329.7 294.0,332.0 C 276.4,340.8 258.0,349.0 243.0,364.0 C 234.8,372.2 228.8,381.4 224.0,391.0 C 223.4,392.2 220.5,401.0 219.0,401.0 C 215.5,401.0 216.0,391.3 216.0,389.0 C 216.0,377.3 216.1,362.8 221.0,353.0 C 224.9,345.3 227.1,336.8 231.0,329.0 C 243.8,303.4 275.0,276.0 304.0,276.0 Z M 354.0,250.0 C 356.4,247.6 364.5,249.0 368.0,249.0 C 381.7,249.0 397.5,251.2 409.0,257.0 C 417.9,261.5 427.9,264.5 437.0,269.0 C 443.7,272.3 449.3,277.7 456.0,281.0 C 466.5,286.3 473.4,298.7 484.0,304.0 C 489.2,306.6 493.8,310.4 499.0,313.0 C 500.5,313.8 505.1,313.2 506.0,315.0 C 509.0,321.0 506.8,336.4 504.0,342.0 C 501.9,346.2 504.2,352.7 502.0,357.0 C 500.6,359.7 502.4,364.2 501.0,367.0 C 499.8,369.3 495.0,361.0 493.0,360.0 C 487.4,357.2 482.6,352.8 477.0,350.0 C 461.8,342.4 444.1,339.6 429.0,332.0 C 427.8,331.4 428.0,331.0 428.0,330.0 C 428.0,323.7 429.0,320.0 426.0,314.0 C 421.5,305.0 408.3,296.1 400.0,292.0 C 378.0,281.0 354.6,272.0 328.0,272.0 C 321.2,272.0 304.3,270.4 299.0,273.0 C 297.0,274.0 285.0,277.3 285.0,275.0 C 285.0,274.1 299.1,266.9 301.0,266.0 C 316.7,258.1 334.2,250.0 353.0,250.0 Z M 630.0,215.0 C 633.6,211.4 651.3,214.1 655.0,216.0 C 660.6,218.8 673.2,219.6 680.0,223.0 C 698.3,232.1 713.2,244.2 729.0,260.0 C 735.9,266.9 742.0,274.0 746.0,282.0 C 746.9,283.7 750.1,288.9 749.0,291.0 C 747.3,294.4 741.6,289.8 740.0,289.0 C 730.6,284.3 722.3,277.7 713.0,273.0 C 697.4,265.2 676.6,261.0 658.0,261.0 C 652.3,261.0 643.8,259.6 639.0,262.0 C 635.2,263.9 628.8,261.1 625.0,263.0 C 615.8,267.6 604.2,267.4 595.0,272.0 C 582.1,278.4 570.0,286.5 557.0,293.0 C 550.5,296.2 545.4,301.8 539.0,305.0 C 534.5,307.3 529.5,308.7 525.0,311.0 C 524.2,311.4 515.0,313.2 515.0,311.0 C 515.0,309.8 517.4,307.2 518.0,306.0 C 523.0,296.1 528.9,287.2 533.0,279.0 C 548.6,247.8 594.7,215.0 629.0,215.0 Z M 384.0,201.0 C 386.0,199.0 391.2,200.0 394.0,200.0 C 404.0,200.0 415.7,198.8 424.0,203.0 C 431.7,206.9 441.1,208.0 449.0,212.0 C 469.1,222.1 483.8,244.6 493.0,263.0 C 495.9,268.8 496.1,276.2 499.0,282.0 C 502.0,288.1 501.0,296.1 504.0,302.0 C 504.8,303.6 506.9,309.1 506.0,311.0 C 504.9,313.2 498.6,308.8 497.0,308.0 C 486.5,302.7 477.6,290.8 468.0,286.0 C 458.7,281.3 451.3,272.7 442.0,268.0 C 433.1,263.5 423.9,259.5 415.0,255.0 C 409.2,252.1 401.9,251.9 396.0,249.0 C 391.3,246.6 383.7,249.3 379.0,247.0 C 374.2,244.6 358.8,244.6 354.0,247.0 C 350.5,248.8 344.5,246.2 341.0,248.0 C 331.2,252.9 318.9,253.0 309.0,258.0 C 300.2,262.4 288.1,266.9 281.0,274.0 C 279.7,275.3 273.3,278.6 272.0,276.0 C 270.1,272.3 274.7,268.6 276.0,266.0 C 279.7,258.6 287.8,252.2 294.0,246.0 C 314.7,225.3 354.1,201.0 383.0,201.0 Z"/>
</g>
</svg>