<svg xmlns="http://www.w3.org/2000/svg" viewBox="0 0 1024 1024" width="1024" height="1024">
  <path d="M 384.0,757.0 C 388.67,758.33 389.0,758.33 385.0,757.0" fill="none" stroke="black" stroke-width="1"/>
  <path d="M 358.0,742.0 C 374.0,751.33 374.33,751.67 359.0,743.0" fill="none" stroke="black" stroke-width="1"/>
  <path d="M 589.0,733.0 C 580.0,743.0 510.0,855.0 493.0,867.0" fill="none" stroke="black" stroke-width="1"/>
  <path d="M 493.0,867.0 C 509.0,857.0 580.0,743.0 588.0,734.0" fill="none" stroke="black" stroke-width="1"/>
  <path d="M 435.0,731.0 C 424.0,752.0 428.0,755.0 490.0,854.0" fill="none" stroke="black" stroke-width="1"/>
  <path d="M 490.0,854.0 C 446.67,785.33 428.33,744.67 435.0,732.0" fill="none" stroke="black" stroke-width="1"/>
  <path d="M 594.0,730.0 C 592.0,731.33 591.67,731.67 593.0,731.0" fill="none" stroke="black" stroke-width="1"/>
  <path d="M 334.0,728.0 C 348.67,736.67 349.0,737.0 335.0,729.0" fill="none" stroke="black" stroke-width="1"/>
  <path d="M 317.0,718.0 C 327.0,724.0 327.33,724.33 318.0,719.0" fill="none" stroke="black" stroke-width="1"/>
  <path d="M 310.0,714.0 C 313.33,716.0 313.67,716.33 311.0,715.0" fill="none" stroke="black" stroke-width="1"/>
  <path d="M 623.0,713.0 C 621.0,714.33 620.67,714.67 622.0,714.0" fill="none" stroke="black" stroke-width="1"/>
  <path d="M 303.0,710.0 C 306.33,712.0 306.67,712.33 304.0,711.0" fill="none" stroke="black" stroke-width="1"/>
  <path d="M 635.0,706.0 C 633.0,707.33 632.67,707.67 634.0,707.0" fill="none" stroke="black" stroke-width="1"/>
  <path d="M 296.0,706.0 C 299.33,708.0 299.67,708.33 297.0,707.0" fill="none" stroke="black" stroke-width="1"/>
  <path d="M 289.0,702.0 C 292.33,704.0 292.67,704.33 290.0,703.0" fill="none" stroke="black" stroke-width="1"/>
  <path d="M 392.0,697.0 C 383.0,708.0 386.0,707.0 391.0,698.0" fill="none" stroke="black" stroke-width="1"/>
  <path d="M 277.0,695.0 C 283.67,699.0 284.0,699.33 278.0,696.0" fill="none" stroke="black" stroke-width="1"/>
  <path d="M 270.0,691.0 C 272.0,692.33 272.33,692.67 271.0,692.0" fill="none" stroke="black" stroke-width="1"/>
  <path d="M 395.0,690.0 C 393.0,695.0 395.0,692.0 394.0,691.0" fill="none" stroke="black" stroke-width="1"/>
  <path d="M 666.0,688.0 C 664.0,689.33 663.67,689.67 665.0,689.0" fill="none" stroke="black" stroke-width="1"/>
  <path d="M 263.0,687.0 C 266.33,689.0 266.67,689.33 264.0,688.0" fill="none" stroke="black" stroke-width="1"/>
  <path d="M 398.0,683.0 C 397.33,685.0 397.0,685.33 397.0,684.0" fill="none" stroke="black" stroke-width="1"/>
  <path d="M 251.0,680.0 C 257.67,684.0 258.0,684.33 252.0,681.0" fill="none" stroke="black" stroke-width="1"/>
  <path d="M 401.0,676.0 C 399.0,681.0 401.0,678.0 400.0,677.0" fill="none" stroke="black" stroke-width="1"/>
  <path d="M 239.0,673.0 C 245.67,677.0 246.0,677.33 240.0,674.0" fill="none" stroke="black" stroke-width="1"/>
  <path d="M 695.0,671.0 C 693.0,672.33 692.67,672.67 694.0,672.0" fill="none" stroke="black" stroke-width="1"/>
  <path d="M 404.0,669.0 C 402.0,674.0 404.0,671.0 403.0,670.0" fill="none" stroke="black" stroke-width="1"/>
  <path d="M 700.0,668.0 C 698.0,669.33 697.67,669.67 699.0,669.0" fill="none" stroke="black" stroke-width="1"/>
  <path d="M 229.0,667.0 C 234.33,670.33 234.67,670.67 230.0,668.0" fill="none" stroke="black" stroke-width="1"/>
  <path d="M 707.0,664.0 C 705.0,665.33 704.67,665.67 706.0,665.0" fill="none" stroke="black" stroke-width="1"/>
  <path d="M 712.0,661.0 C 710.0,662.33 709.67,662.67 711.0,662.0" fill="none" stroke="black" stroke-width="1"/>
  <path d="M 717.0,658.0 C 715.0,659.33 714.67,659.67 716.0,659.0" fill="none" stroke="black" stroke-width="1"/>
  <path d="M 724.0,654.0 C 722.0,655.33 721.67,655.67 723.0,655.0" fill="none" stroke="black" stroke-width="1"/>
  <path d="M 417.0,653.0 C 491.0,696.0 500.0,703.0 490.0,695.0" fill="none" stroke="black" stroke-width="1"/>
  <path d="M 490.0,695.0 C 466.0,681.33 442.0,667.67 418.0,654.0" fill="none" stroke="black" stroke-width="1"/>
  <path d="M 412.0,653.0 C 413.0,654.0 405.0,665.0 405.0,667.0" fill="none" stroke="black" stroke-width="1"/>
  <path d="M 405.0,667.0 C 408.0,661.0 415.0,653.0 413.0,654.0" fill="none" stroke="black" stroke-width="1"/>
  <path d="M 562.0,592.0 C 568.67,599.33 569.0,599.67 563.0,593.0" fill="none" stroke="black" stroke-width="1"/>
  <path d="M 557.0,585.0 C 559.67,588.33 560.0,588.67 558.0,586.0" fill="none" stroke="black" stroke-width="1"/>
  <path d="M 548.0,572.0 C 550.67,575.33 551.0,575.67 549.0,573.0" fill="none" stroke="black" stroke-width="1"/>
  <path d="M 216.0,564.0 C 233.0,621.0 381.0,708.0 239.0,625.0" fill="none" stroke="black" stroke-width="1"/>
  <path d="M 239.0,625.0 C 232.33,617.0 224.67,597.0 216.0,565.0" fill="none" stroke="black" stroke-width="1"/>
  <path d="M 217.0,557.0 C 216.67,557.33 216.33,557.67 216.0,558.0" fill="none" stroke="black" stroke-width="1"/>
  <path d="M 537.0,556.0 C 539.67,559.33 540.0,559.67 538.0,557.0" fill="none" stroke="black" stroke-width="1"/>
  <path d="M 660.0,555.0 C 658.0,556.33 657.67,556.67 659.0,556.0" fill="none" stroke="black" stroke-width="1"/>
  <path d="M 650.0,555.0 C 654.0,558.0 655.0,557.0 654.0,558.0" fill="none" stroke="black" stroke-width="1"/>
  <path d="M 654.0,558.0 C 653.33,556.67 652.33,556.0 651.0,556.0" fill="none" stroke="black" stroke-width="1"/>
  <path d="M 218.0,553.0 C 217.33,554.33 217.33,554.67 218.0,554.0" fill="none" stroke="black" stroke-width="1"/>
  <path d="M 665.0,552.0 C 662.0,555.0 664.0,553.0 669.0,554.0" fill="none" stroke="black" stroke-width="1"/>
  <path d="M 669.0,554.0 C 668.0,553.33 667.0,552.67 666.0,552.0" fill="none" stroke="black" stroke-width="1"/>
  <path d="M 641.0,550.0 C 644.33,552.0 644.67,552.33 642.0,551.0" fill="none" stroke="black" stroke-width="1"/>
  <path d="M 220.0,549.0 C 219.67,549.33 219.33,549.67 219.0,550.0" fill="none" stroke="black" stroke-width="1"/>
  <path d="M 526.0,540.0 C 528.67,543.33 529.0,543.67 527.0,541.0" fill="none" stroke="black" stroke-width="1"/>
  <path d="M 659.0,539.0 C 663.0,543.67 663.33,544.0 660.0,540.0" fill="none" stroke="black" stroke-width="1"/>
  <path d="M 652.0,529.0 C 654.67,532.33 655.0,532.67 653.0,530.0" fill="none" stroke="black" stroke-width="1"/>
  <path d="M 764.0,527.0 C 768.67,531.67 769.0,532.0 765.0,528.0" fill="none" stroke="black" stroke-width="1"/>
  <path d="M 515.0,524.0 C 517.67,527.33 518.0,527.67 516.0,525.0" fill="none" stroke="black" stroke-width="1"/>
  <path d="M 593.0,523.0 C 623.67,540.33 624.0,540.33 594.0,523.0" fill="none" stroke="black" stroke-width="1"/>
  <path d="M 731.0,512.0 C 752.0,527.0 736.0,514.0 732.0,513.0" fill="none" stroke="black" stroke-width="1"/>
  <path d="M 507.0,512.0 C 510.33,516.67 510.67,517.0 508.0,513.0" fill="none" stroke="black" stroke-width="1"/>
  <path d="M 691.0,509.0 C 682.0,527.0 683.0,543.0 674.0,555.0" fill="none" stroke="black" stroke-width="1"/>
  <path d="M 674.0,555.0 C 683.0,543.0 682.0,527.0 691.0,510.0" fill="none" stroke="black" stroke-width="1"/>
  <path d="M 315.0,496.0 C 542.0,626.0 561.0,632.0 537.0,623.0" fill="none" stroke="black" stroke-width="1"/>
  <path d="M 537.0,623.0 C 463.33,581.0 389.67,539.0 316.0,497.0" fill="none" stroke="black" stroke-width="1"/>
  <path d="M 114.0,495.0 C 159.0,564.0 165.0,615.0 227.0,666.0" fill="none" stroke="black" stroke-width="1"/>
  <path d="M 227.0,666.0 C 178.0,628.0 166.0,614.0 161.0,564.0" fill="none" stroke="black" stroke-width="1"/>
  <path d="M 161.0,564.0 C 145.67,541.0 130.33,518.0 115.0,495.0" fill="none" stroke="black" stroke-width="1"/>
  <path d="M 848.0,489.0 C 824.0,535.0 833.0,553.0 819.0,581.0" fill="none" stroke="black" stroke-width="1"/>
  <path d="M 819.0,581.0 C 726.0,653.0 818.0,583.0 833.0,553.0" fill="none" stroke="black" stroke-width="1"/>
  <path d="M 833.0,553.0 C 827.0,541.0 831.67,520.0 847.0,490.0" fill="none" stroke="black" stroke-width="1"/>
  <path d="M 490.0,487.0 C 495.33,494.33 495.67,494.67 491.0,488.0" fill="none" stroke="black" stroke-width="1"/>
  <path d="M 220.0,480.0 C 222.0,482.0 222.33,482.33 221.0,481.0" fill="none" stroke="black" stroke-width="1"/>
  <path d="M 190.0,476.0 C 189.0,477.0 194.0,476.0 191.0,477.0" fill="none" stroke="black" stroke-width="1"/>
  <path d="M 185.0,476.0 C 184.0,477.0 187.0,476.0 186.0,477.0" fill="none" stroke="black" stroke-width="1"/>
  <path d="M 178.0,476.0 C 177.0,477.0 180.0,476.0 179.0,477.0" fill="none" stroke="black" stroke-width="1"/>
  <path d="M 152.0,476.0 C 151.0,477.0 154.0,476.0 153.0,477.0" fill="none" stroke="black" stroke-width="1"/>
  <path d="M 113.0,476.0 C 103.0,491.0 105.0,644.0 491.0,867.0" fill="none" stroke="black" stroke-width="1"/>
  <path d="M 491.0,867.0 C 105.0,641.0 103.0,491.0 114.0,477.0" fill="none" stroke="black" stroke-width="1"/>
  <path d="M 227.0,467.0 C 223.67,470.33 224.0,470.33 228.0,467.0" fill="none" stroke="black" stroke-width="1"/>
  <path d="M 475.0,465.0 C 477.67,468.33 478.0,468.67 476.0,466.0" fill="none" stroke="black" stroke-width="1"/>
  <path d="M 298.0,460.0 C 288.0,466.0 295.0,461.0 296.0,462.0" fill="none" stroke="black" stroke-width="1"/>
  <path d="M 296.0,462.0 C 298.67,460.67 299.67,460.33 299.0,461.0" fill="none" stroke="black" stroke-width="1"/>
  <path d="M 581.0,459.0 C 581.0,510.0 587.0,521.0 582.0,532.0" fill="none" stroke="black" stroke-width="1"/>
  <path d="M 582.0,532.0 C 583.0,591.0 576.0,604.0 580.0,618.0" fill="none" stroke="black" stroke-width="1"/>
  <path d="M 580.0,618.0 C 571.0,628.0 563.0,631.0 576.0,625.0" fill="none" stroke="black" stroke-width="1"/>
  <path d="M 576.0,625.0 C 580.0,619.0 576.0,604.0 583.0,591.0" fill="none" stroke="black" stroke-width="1"/>
  <path d="M 583.0,591.0 C 582.0,532.0 588.0,522.0 581.0,510.0" fill="none" stroke="black" stroke-width="1"/>
  <path d="M 581.0,510.0 C 581.33,493.33 581.67,476.67 582.0,460.0" fill="none" stroke="black" stroke-width="1"/>
  <path d="M 444.0,459.0 C 443.0,460.0 446.0,459.0 445.0,460.0" fill="none" stroke="black" stroke-width="1"/>
  <path d="M 468.0,456.0 C 472.0,460.67 472.33,461.0 469.0,457.0" fill="none" stroke="black" stroke-width="1"/>
  <path d="M 323.0,450.0 C 321.0,452.0 320.0,451.0 316.0,454.0" fill="none" stroke="black" stroke-width="1"/>
  <path d="M 316.0,454.0 C 315.0,453.0 311.0,456.0 310.0,455.0" fill="none" stroke="black" stroke-width="1"/>
  <path d="M 310.0,455.0 C 304.0,458.0 325.0,450.0 324.0,451.0" fill="none" stroke="black" stroke-width="1"/>
  <path d="M 328.0,448.0 C 327.0,449.0 330.0,448.0 329.0,449.0" fill="none" stroke="black" stroke-width="1"/>
  <path d="M 583.0,447.0 C 581.0,449.0 581.0,449.33 583.0,448.0" fill="none" stroke="black" stroke-width="1"/>
  <path d="M 592.0,446.0 C 603.0,459.0 651.0,527.0 602.0,457.0" fill="none" stroke="black" stroke-width="1"/>
  <path d="M 602.0,457.0 C 599.0,453.67 596.0,450.33 593.0,447.0" fill="none" stroke="black" stroke-width="1"/>
  <path d="M 333.0,446.0 C 332.0,447.0 335.0,446.0 334.0,447.0" fill="none" stroke="black" stroke-width="1"/>
  <path d="M 588.0,445.0 C 587.33,446.33 587.67,446.33 589.0,445.0" fill="none" stroke="black" stroke-width="1"/>
  <path d="M 480.0,444.0 C 467.0,453.0 480.0,444.0 482.0,444.0" fill="none" stroke="black" stroke-width="1"/>
  <path d="M 482.0,444.0 C 481.67,444.33 481.33,444.67 481.0,445.0" fill="none" stroke="black" stroke-width="1"/>
  <path d="M 338.0,444.0 C 337.0,445.0 340.0,444.0 339.0,445.0" fill="none" stroke="black" stroke-width="1"/>
  <path d="M 343.0,442.0 C 342.0,443.0 345.0,442.0 344.0,443.0" fill="none" stroke="black" stroke-width="1"/>
  <path d="M 550.0,441.0 C 564.0,450.0 571.0,450.0 569.0,448.0" fill="none" stroke="black" stroke-width="1"/>
  <path d="M 569.0,448.0 C 566.33,449.33 560.33,447.0 551.0,441.0" fill="none" stroke="black" stroke-width="1"/>
  <path d="M 487.0,441.0 C 486.0,442.0 489.0,441.0 488.0,442.0" fill="none" stroke="black" stroke-width="1"/>
  <path d="M 348.0,440.0 C 347.0,441.0 350.0,440.0 349.0,441.0" fill="none" stroke="black" stroke-width="1"/>
  <path d="M 492.0,439.0 C 491.0,440.0 494.0,439.0 493.0,440.0" fill="none" stroke="black" stroke-width="1"/>
  <path d="M 415.0,438.0 C 426.0,454.0 435.0,462.0 441.0,461.0" fill="none" stroke="black" stroke-width="1"/>
  <path d="M 441.0,461.0 C 435.0,462.0 432.0,460.0 416.0,439.0" fill="none" stroke="black" stroke-width="1"/>
  <path d="M 356.0,437.0 C 355.0,438.0 358.0,437.0 357.0,438.0" fill="none" stroke="black" stroke-width="1"/>
  <path d="M 361.0,435.0 C 360.0,436.0 363.0,435.0 362.0,436.0" fill="none" stroke="black" stroke-width="1"/>
  <path d="M 576.0,433.0 C 580.0,437.0 580.33,437.33 577.0,434.0" fill="none" stroke="black" stroke-width="1"/>
  <path d="M 507.0,433.0 C 505.67,433.67 506.0,433.67 508.0,433.0" fill="none" stroke="black" stroke-width="1"/>
  <path d="M 366.0,433.0 C 365.0,434.0 368.0,433.0 367.0,434.0" fill="none" stroke="black" stroke-width="1"/>
  <path d="M 596.0,429.0 C 598.0,432.0 589.0,443.0 598.0,432.0" fill="none" stroke="black" stroke-width="1"/>
  <path d="M 598.0,432.0 C 597.67,431.33 597.33,430.67 597.0,430.0" fill="none" stroke="black" stroke-width="1"/>
  <path d="M 379.0,428.0 C 378.0,429.0 381.0,428.0 380.0,429.0" fill="none" stroke="black" stroke-width="1"/>
  <path d="M 594.0,423.0 C 595.33,425.67 595.33,426.0 594.0,424.0" fill="none" stroke="black" stroke-width="1"/>
  <path d="M 524.0,423.0 C 516.0,428.33 515.67,428.67 523.0,424.0" fill="none" stroke="black" stroke-width="1"/>
  <path d="M 400.0,419.0 C 409.33,430.33 409.67,430.67 401.0,420.0" fill="none" stroke="black" stroke-width="1"/>
  <path d="M 399.0,417.0 C 391.67,422.33 391.33,422.67 398.0,418.0" fill="none" stroke="black" stroke-width="1"/>
  <path d="M 252.0,416.0 C 236.67,440.67 236.33,441.0 251.0,417.0" fill="none" stroke="black" stroke-width="1"/>
  <path d="M 254.0,412.0 C 253.33,413.33 253.33,413.67 254.0,413.0" fill="none" stroke="black" stroke-width="1"/>
  <path d="M 587.0,409.0 C 591.0,417.0 591.0,417.33 587.0,410.0" fill="none" stroke="black" stroke-width="1"/>
  <path d="M 562.0,408.0 C 552.67,416.67 552.33,417.0 561.0,409.0" fill="none" stroke="black" stroke-width="1"/>
  <path d="M 518.0,406.0 C 517.0,407.0 526.0,419.0 517.0,407.0" fill="none" stroke="black" stroke-width="1"/>
  <path d="M 259.0,405.0 C 256.33,408.33 256.0,408.67 258.0,406.0" fill="none" stroke="black" stroke-width="1"/>
  <path d="M 573.0,404.0 C 574.33,406.67 574.67,407.0 574.0,405.0" fill="none" stroke="black" stroke-width="1"/>
  <path d="M 519.0,402.0 C 518.33,403.33 518.33,403.67 519.0,403.0" fill="none" stroke="black" stroke-width="1"/>
  <path d="M 390.0,402.0 C 394.0,407.33 394.33,407.67 391.0,403.0" fill="none" stroke="black" stroke-width="1"/>
  <path d="M 682.0,401.0 C 682.0,452.0 710.0,501.0 729.0,511.0" fill="none" stroke="black" stroke-width="1"/>
  <path d="M 729.0,511.0 C 709.0,499.0 682.0,452.0 682.0,402.0" fill="none" stroke="black" stroke-width="1"/>
  <path d="M 566.0,398.0 C 568.0,401.33 568.0,401.67 566.0,399.0" fill="none" stroke="black" stroke-width="1"/>
  <path d="M 522.0,396.0 C 520.67,398.67 520.33,399.0 521.0,397.0" fill="none" stroke="black" stroke-width="1"/>
  <path d="M 693.0,389.0 C 740.33,453.0 740.67,453.33 694.0,390.0" fill="none" stroke="black" stroke-width="1"/>
  <path d="M 557.0,389.0 C 561.0,395.0 561.33,395.33 558.0,390.0" fill="none" stroke="black" stroke-width="1"/>
  <path d="M 681.0,386.0 C 682.33,387.33 682.67,387.67 682.0,387.0" fill="none" stroke="black" stroke-width="1"/>
  <path d="M 527.0,384.0 C 523.67,390.67 523.67,391.0 527.0,385.0" fill="none" stroke="black" stroke-width="1"/>
  <path d="M 527.0,376.0 C 530.0,383.0 536.0,389.0 527.0,377.0" fill="none" stroke="black" stroke-width="1"/>
  <path d="M 521.0,365.0 C 523.67,369.0 524.0,369.33 522.0,366.0" fill="none" stroke="black" stroke-width="1"/>
  <path d="M 622.0,363.0 C 614.0,370.0 604.0,375.0 595.0,383.0" fill="none" stroke="black" stroke-width="1"/>
  <path d="M 595.0,383.0 C 606.0,374.0 610.0,373.0 622.0,364.0" fill="none" stroke="black" stroke-width="1"/>
  <path d="M 673.0,362.0 C 675.0,366.0 675.0,366.33 673.0,363.0" fill="none" stroke="black" stroke-width="1"/>
  <path d="M 536.0,352.0 C 522.0,362.0 537.0,352.0 557.0,362.0" fill="none" stroke="black" stroke-width="1"/>
  <path d="M 557.0,362.0 C 550.33,358.67 543.67,355.33 537.0,352.0" fill="none" stroke="black" stroke-width="1"/>
  <path d="M 354.0,351.0 C 377.33,383.67 377.67,384.0 355.0,352.0" fill="none" stroke="black" stroke-width="1"/>
  <path d="M 780.0,337.0 C 782.0,340.0 782.0,376.0 793.0,398.0" fill="none" stroke="black" stroke-width="1"/>
  <path d="M 793.0,398.0 C 846.0,481.0 793.0,398.0 782.0,376.0" fill="none" stroke="black" stroke-width="1"/>
  <path d="M 782.0,376.0 C 781.67,363.33 781.33,350.67 781.0,338.0" fill="none" stroke="black" stroke-width="1"/>
  <path d="M 657.0,337.0 C 659.0,347.0 658.0,349.0 659.0,348.0" fill="none" stroke="black" stroke-width="1"/>
  <path d="M 659.0,348.0 C 671.0,360.0 659.0,348.0 657.0,338.0" fill="none" stroke="black" stroke-width="1"/>
  <path d="M 478.0,333.0 C 477.0,334.0 478.0,333.0 491.0,346.0" fill="none" stroke="black" stroke-width="1"/>
  <path d="M 491.0,346.0 C 517.0,365.0 495.0,349.0 479.0,334.0" fill="none" stroke="black" stroke-width="1"/>
  <path d="M 332.0,320.0 C 346.0,339.33 346.33,339.67 333.0,321.0" fill="none" stroke="black" stroke-width="1"/>
  <path d="M 628.0,317.0 C 634.67,330.33 635.0,330.67 629.0,318.0" fill="none" stroke="black" stroke-width="1"/>
  <path d="M 777.0,314.0 C 777.67,315.33 777.67,315.67 777.0,315.0" fill="none" stroke="black" stroke-width="1"/>
  <path d="M 627.0,313.0 C 627.67,314.33 627.67,314.67 627.0,314.0" fill="none" stroke="black" stroke-width="1"/>
  <path d="M 775.0,310.0 C 775.33,310.33 775.67,310.67 776.0,311.0" fill="none" stroke="black" stroke-width="1"/>
  <path d="M 624.0,307.0 C 625.33,308.33 625.67,308.67 625.0,308.0" fill="none" stroke="black" stroke-width="1"/>
  <path d="M 771.0,302.0 C 773.67,306.0 774.0,306.33 772.0,303.0" fill="none" stroke="black" stroke-width="1"/>
  <path d="M 722.0,302.0 C 703.33,314.67 703.0,315.0 721.0,303.0" fill="none" stroke="black" stroke-width="1"/>
  <path d="M 317.0,299.0 C 326.33,311.67 326.67,312.0 318.0,300.0" fill="none" stroke="black" stroke-width="1"/>
  <path d="M 645.0,295.0 C 653.67,299.67 654.0,299.67 646.0,295.0" fill="none" stroke="black" stroke-width="1"/>
  <path d="M 639.0,292.0 C 625.0,302.0 639.0,292.0 643.0,294.0" fill="none" stroke="black" stroke-width="1"/>
  <path d="M 643.0,294.0 C 642.0,293.67 641.0,293.33 640.0,293.0" fill="none" stroke="black" stroke-width="1"/>
  <path d="M 307.0,285.0 C 313.0,293.0 313.33,293.33 308.0,286.0" fill="none" stroke="black" stroke-width="1"/>
  <path d="M 366.0,277.0 C 367.33,278.33 367.67,278.67 367.0,278.0" fill="none" stroke="black" stroke-width="1"/>
  <path d="M 577.0,273.0 C 591.0,286.0 617.0,306.0 595.0,289.0" fill="none" stroke="black" stroke-width="1"/>
  <path d="M 595.0,289.0 C 589.33,283.67 583.67,278.33 578.0,273.0" fill="none" stroke="black" stroke-width="1"/>
  <path d="M 359.0,273.0 C 362.33,275.0 362.67,275.33 360.0,274.0" fill="none" stroke="black" stroke-width="1"/>
  <path d="M 297.0,271.0 C 303.0,279.0 303.33,279.33 298.0,272.0" fill="none" stroke="black" stroke-width="1"/>
  <path d="M 354.0,270.0 C 356.0,271.33 356.33,271.67 355.0,271.0" fill="none" stroke="black" stroke-width="1"/>
  <path d="M 345.0,265.0 C 348.33,267.0 348.67,267.33 346.0,266.0" fill="none" stroke="black" stroke-width="1"/>
  <path d="M 338.0,261.0 C 341.33,263.0 341.67,263.33 339.0,262.0" fill="none" stroke="black" stroke-width="1"/>
  <path d="M 739.0,259.0 C 754.0,274.0 754.0,278.0 757.0,283.0" fill="none" stroke="black" stroke-width="1"/>
  <path d="M 757.0,283.0 C 757.0,288.0 770.0,300.0 758.0,288.0" fill="none" stroke="black" stroke-width="1"/>
  <path d="M 758.0,288.0 C 757.0,283.0 755.0,281.0 755.0,273.0" fill="none" stroke="black" stroke-width="1"/>
  <path d="M 755.0,273.0 C 754.33,273.67 749.33,269.33 740.0,260.0" fill="none" stroke="black" stroke-width="1"/>
  <path d="M 287.0,258.0 C 293.0,265.33 293.33,265.67 288.0,259.0" fill="none" stroke="black" stroke-width="1"/>
  <path d="M 736.0,255.0 C 737.33,256.33 737.67,256.67 737.0,256.0" fill="none" stroke="black" stroke-width="1"/>
  <path d="M 281.0,252.0 C 282.0,259.0 276.0,270.0 277.0,372.0" fill="none" stroke="black" stroke-width="1"/>
  <path d="M 277.0,372.0 C 259.0,403.0 277.0,372.0 276.0,270.0" fill="none" stroke="black" stroke-width="1"/>
  <path d="M 276.0,270.0 C 280.67,262.0 282.67,256.33 282.0,253.0" fill="none" stroke="black" stroke-width="1"/>
  <path d="M 296.0,239.0 C 287.0,244.0 281.0,250.0 293.0,240.0" fill="none" stroke="black" stroke-width="1"/>
  <path d="M 293.0,240.0 C 300.0,240.0 336.0,260.0 309.0,244.0" fill="none" stroke="black" stroke-width="1"/>
  <path d="M 309.0,244.0 C 305.0,242.33 301.0,240.67 297.0,239.0" fill="none" stroke="black" stroke-width="1"/>
  <path d="M 448.0,206.0 C 450.0,207.33 450.33,207.67 449.0,207.0" fill="none" stroke="black" stroke-width="1"/>
  <path d="M 441.0,202.0 C 443.0,203.33 443.33,203.67 442.0,203.0" fill="none" stroke="black" stroke-width="1"/>
  <path d="M 389.0,199.0 C 449.0,281.67 449.33,282.0 390.0,200.0" fill="none" stroke="black" stroke-width="1"/>
  <path d="M 383.0,195.0 C 384.0,199.0 378.0,210.0 378.0,268.0" fill="none" stroke="black" stroke-width="1"/>
  <path d="M 378.0,268.0 C 373.0,278.0 390.0,292.0 468.0,336.0" fill="none" stroke="black" stroke-width="1"/>
  <path d="M 468.0,336.0 C 388.0,290.0 373.0,278.0 378.0,268.0" fill="none" stroke="black" stroke-width="1"/>
  <path d="M 378.0,268.0 C 378.0,229.33 379.67,205.33 383.0,196.0" fill="none" stroke="black" stroke-width="1"/>
  <path d="M 427.0,194.0 C 429.0,195.33 429.33,195.67 428.0,195.0" fill="none" stroke="black" stroke-width="1"/>
  <path d="M 420.0,190.0 C 422.0,191.33 422.33,191.67 421.0,191.0" fill="none" stroke="black" stroke-width="1"/>
  <path d="M 396.0,180.0 C 383.0,190.0 382.0,189.0 382.0,192.0" fill="none" stroke="black" stroke-width="1"/>
  <path d="M 382.0,192.0 C 383.0,193.0 382.0,192.0 395.0,181.0" fill="none" stroke="black" stroke-width="1"/>
  <path d="M 395.0,181.0 C 400.0,180.0 407.0,183.0 404.0,181.0" fill="none" stroke="black" stroke-width="1"/>
  <path d="M 404.0,181.0 C 401.67,180.67 399.33,180.33 397.0,180.0" fill="none" stroke="black" stroke-width="1"/>
  <path d="M 490.0,141.0 C 548.0,220.33 548.33,220.67 491.0,142.0" fill="none" stroke="black" stroke-width="1"/>
  <path d="M 483.0,135.0 C 485.0,141.0 479.0,152.0 479.0,208.0" fill="none" stroke="black" stroke-width="1"/>
  <path d="M 479.0,208.0 C 474.0,218.0 489.0,231.0 568.0,275.0" fill="none" stroke="black" stroke-width="1"/>
  <path d="M 568.0,275.0 C 488.0,230.0 474.0,218.0 479.0,208.0" fill="none" stroke="black" stroke-width="1"/>
  <path d="M 479.0,208.0 C 479.0,152.0 486.0,140.0 484.0,136.0" fill="none" stroke="black" stroke-width="1"/>
  <path d="M 519.0,130.0 C 715.0,245.0 704.0,235.0 520.0,131.0" fill="none" stroke="black" stroke-width="1"/>
  <path d="M 497.0,121.0 C 488.0,127.0 483.0,133.0 487.0,128.0" fill="none" stroke="black" stroke-width="1"/>
  <path d="M 487.0,128.0 C 497.0,121.0 504.0,122.0 517.0,129.0" fill="none" stroke="black" stroke-width="1"/>
  <path d="M 517.0,129.0 C 510.33,125.0 504.0,122.33 498.0,121.0" fill="none" stroke="black" stroke-width="1"/>
</svg>