<svg xmlns="http://www.w3.org/2000/svg" viewBox="0 0 1024 1024" width="1024" height="1024">
<g fill="none" stroke="#000000" stroke-width="4.0" stroke-linecap="round" stroke-linejoin="round">
  <path d="M 706.0,558.0 C 710.3,555.8 728.5,552.3 732.0,545.0 C 735.5,537.7 721.8,523.0 727.0,514.0 C 732.2,505.0 757.5,497.5 763.0,491.0 C 768.5,484.5 768.0,489.2 760.0,475.0 C 752.0,460.8 723.7,431.5 715.0,406.0 C 706.3,380.5 713.2,343.7 708.0,322.0 C 702.8,300.3 693.3,289.3 684.0,276.0 C 674.7,262.7 663.3,251.7 652.0,242.0 C 640.7,232.3 629.8,225.0 616.0,218.0 C 602.2,211.0 587.0,204.7 569.0,200.0 C 551.0,195.3 530.7,191.0 508.0,190.0 C 485.3,189.0 454.2,190.7 433.0,194.0 C 411.8,197.3 397.7,202.3 381.0,210.0 C 364.3,217.7 347.0,227.8 333.0,240.0 C 319.0,252.2 306.5,266.5 297.0,283.0 C 287.5,299.5 279.8,321.5 276.0,339.0 C 272.2,356.5 271.3,371.2 274.0,388.0 C 276.7,404.8 275.7,428.7 292.0,440.0 C 308.3,451.3 344.3,438.2 372.0,456.0 C 399.7,473.8 442.0,549.8 458.0,547.0 C 474.0,544.2 469.2,473.0 468.0,439.0 C 466.8,405.0 447.7,371.7 451.0,343.0 C 454.3,314.3 477.5,280.7 488.0,267.0 C 498.5,253.3 505.3,259.5 514.0,261.0 C 522.7,262.5 535.2,270.0 540.0,276.0 C 544.8,282.0 545.3,289.7 543.0,297.0 C 540.7,304.3 530.8,315.0 526.0,320.0 C 521.2,325.0 524.5,326.5 514.0,327.0 C 503.5,327.5 471.5,323.7 463.0,323.0"/>
  <path d="M 445.0,605.0 C 445.5,604.3 446.3,605.8 448.0,601.0 C 449.7,596.2 451.7,581.8 455.0,576.0 C 458.3,570.2 465.5,568.8 468.0,566.0 C 470.5,563.2 468.5,561.3 470.0,559.0 C 471.5,556.7 475.7,554.3 477.0,552.0 C 478.3,549.7 477.2,547.2 478.0,545.0 C 478.8,542.8 477.8,543.7 482.0,539.0 C 486.2,534.3 496.3,523.0 503.0,517.0 C 509.7,511.0 516.7,506.3 522.0,503.0 C 527.3,499.7 532.0,498.8 535.0,497.0 C 538.0,495.2 539.5,493.3 540.0,492.0 C 540.5,490.7 540.7,490.7 538.0,489.0 C 535.3,487.3 528.0,484.8 524.0,482.0 C 520.0,479.2 516.8,476.2 514.0,472.0 C 511.2,467.8 508.3,461.5 507.0,457.0 C 505.7,452.5 505.8,448.3 506.0,445.0 C 506.2,441.7 507.2,439.2 508.0,437.0 C 508.8,434.8 509.2,434.0 511.0,432.0 C 512.8,430.0 516.2,426.3 519.0,425.0 C 521.8,423.7 525.2,423.8 528.0,424.0 C 530.8,424.2 533.0,424.2 536.0,426.0 C 539.0,427.8 544.3,432.3 546.0,435.0 C 547.7,437.7 546.5,440.5 546.0,442.0 C 545.5,443.5 544.0,441.2 543.0,444.0 C 542.0,446.8 540.3,452.7 540.0,459.0 C 539.7,465.3 540.3,477.3 541.0,482.0 C 541.7,486.7 543.5,485.3 544.0,487.0 C 544.5,488.7 544.5,491.2 544.0,492.0 C 543.5,492.8 541.5,492.0 541.0,492.0"/>
  <path d="M 358.0,750.0 C 363.0,744.3 378.5,729.5 388.0,716.0 C 397.5,702.5 408.7,681.3 415.0,669.0 C 421.3,656.7 423.0,650.7 426.0,642.0 C 429.0,633.3 431.3,625.3 433.0,617.0 C 434.7,608.7 435.7,599.7 436.0,592.0 C 436.3,584.3 435.7,576.7 435.0,571.0 C 434.3,565.3 434.7,564.0 432.0,558.0 C 429.3,552.0 423.3,540.8 419.0,535.0 C 414.7,529.2 411.2,526.7 406.0,523.0 C 400.8,519.3 394.2,515.5 388.0,513.0 C 381.8,510.5 376.0,508.8 369.0,508.0 C 362.0,507.2 353.3,507.3 346.0,508.0 C 338.7,508.7 329.2,510.8 325.0,512.0 C 320.8,513.2 321.2,513.3 321.0,515.0 C 320.8,516.7 321.2,518.7 324.0,522.0 C 326.8,525.3 333.2,531.2 338.0,535.0 C 342.8,538.8 348.2,542.3 353.0,545.0 C 357.8,547.7 359.5,549.0 367.0,551.0 C 374.5,553.0 389.3,556.2 398.0,557.0 C 406.7,557.8 414.0,556.7 419.0,556.0 C 424.0,555.3 426.5,553.5 428.0,553.0"/>
  <path d="M 570.0,755.0 C 570.2,754.5 571.2,753.2 571.0,752.0 C 570.8,750.8 569.3,753.8 569.0,748.0 C 568.7,742.2 568.5,725.7 569.0,717.0 C 569.5,708.3 570.0,703.7 572.0,696.0 C 574.0,688.3 577.8,677.2 581.0,671.0 C 584.2,664.8 587.7,662.0 591.0,659.0 C 594.3,656.0 596.7,654.7 601.0,653.0 C 605.3,651.3 611.0,649.7 617.0,649.0 C 623.0,648.3 627.8,648.3 637.0,649.0 C 646.2,649.7 663.0,652.5 672.0,653.0 C 681.0,653.5 685.8,652.8 691.0,652.0 C 696.2,651.2 699.2,650.3 703.0,648.0 C 706.8,645.7 711.5,641.7 714.0,638.0 C 716.5,634.3 717.7,632.7 718.0,626.0 C 718.3,619.3 716.0,603.8 716.0,598.0 C 716.0,592.2 716.2,594.7 718.0,591.0 C 719.8,587.3 725.5,580.2 727.0,576.0 C 728.5,571.8 728.2,569.0 727.0,566.0 C 725.8,563.0 721.2,559.3 720.0,558.0"/>
  <path d="M 422.0,261.0 C 423.0,257.8 425.2,247.2 428.0,242.0 C 430.8,236.8 435.2,232.8 439.0,230.0 C 442.8,227.2 447.3,225.8 451.0,225.0 C 454.7,224.2 457.2,224.0 461.0,225.0 C 464.8,226.0 470.7,228.7 474.0,231.0 C 477.3,233.3 479.0,235.5 481.0,239.0 C 483.0,242.5 485.2,247.3 486.0,252.0 C 486.8,256.7 486.0,264.5 486.0,267.0"/>
  <path d="M 421.0,262.0 C 418.3,260.2 410.3,253.5 406.0,251.0 C 401.7,248.5 398.5,247.7 395.0,247.0 C 391.5,246.3 388.8,246.2 385.0,247.0 C 381.2,247.8 375.8,249.7 372.0,252.0 C 368.2,254.3 364.7,257.3 362.0,261.0 C 359.3,264.7 357.2,270.0 356.0,274.0 C 354.8,278.0 354.2,280.3 355.0,285.0 C 355.8,289.7 357.8,296.8 361.0,302.0 C 364.2,307.2 368.5,314.0 374.0,316.0 C 379.5,318.0 388.3,314.0 394.0,314.0 C 399.7,314.0 403.3,314.8 408.0,316.0 C 412.7,317.2 418.8,320.2 422.0,321.0 C 425.2,321.8 425.2,322.3 427.0,321.0 C 428.8,319.7 432.0,314.8 433.0,313.0 C 434.0,311.2 434.2,312.8 433.0,310.0 C 431.8,307.2 427.7,300.2 426.0,296.0 C 424.3,291.8 423.7,290.7 423.0,285.0 C 422.3,279.3 422.3,265.8 422.0,262.0 C 421.7,258.2 423.7,263.8 421.0,262.0 Z"/>
  <path d="M 602.0,269.0 C 601.5,268.7 601.0,267.0 599.0,267.0 C 597.0,267.0 593.2,267.0 590.0,269.0 C 586.8,271.0 582.5,276.0 580.0,279.0 C 577.5,282.0 576.7,283.0 575.0,287.0 C 573.3,291.0 570.8,298.0 570.0,303.0 C 569.2,308.0 569.7,313.7 570.0,317.0 C 570.3,320.3 570.0,320.5 572.0,323.0 C 574.0,325.5 580.3,330.0 582.0,332.0 C 583.7,334.0 584.0,330.2 582.0,335.0 C 580.0,339.8 574.0,353.8 570.0,361.0 C 566.0,368.2 560.3,374.0 558.0,378.0 C 555.7,382.0 557.8,382.7 556.0,385.0 C 554.2,387.3 548.7,390.2 547.0,392.0 C 545.3,393.8 545.8,395.0 546.0,396.0 C 546.2,397.0 540.0,397.7 548.0,398.0 C 556.0,398.3 583.3,398.5 594.0,398.0 C 604.7,397.5 606.7,396.3 612.0,395.0 C 617.3,393.7 621.3,392.2 626.0,390.0 C 630.7,387.8 636.2,384.7 640.0,382.0 C 643.8,379.3 646.3,377.0 649.0,374.0 C 651.7,371.0 654.7,366.3 656.0,364.0 C 657.3,361.7 657.5,361.3 657.0,360.0 C 656.5,358.7 657.5,356.5 653.0,356.0 C 648.5,355.5 636.5,356.3 630.0,357.0 C 623.5,357.7 621.0,358.0 614.0,360.0 C 607.0,362.0 596.5,365.0 588.0,369.0 C 579.5,373.0 568.2,381.3 563.0,384.0 C 557.8,386.7 558.0,384.8 557.0,385.0"/>
  <path d="M 423.0,272.0 C 423.7,272.3 425.3,272.3 427.0,274.0 C 428.7,275.7 430.3,277.0 433.0,282.0 C 435.7,287.0 441.5,299.3 443.0,304.0 C 444.5,308.7 443.5,308.8 442.0,310.0 C 440.5,311.2 435.3,310.8 434.0,311.0"/>
  <path d="M 479.0,278.0 C 478.7,277.8 479.7,274.8 477.0,277.0 C 474.3,279.2 467.5,285.5 463.0,291.0 C 458.5,296.5 453.2,307.0 450.0,310.0 C 446.8,313.0 445.0,309.2 444.0,309.0"/>
  <path d="M 625.0,281.0 C 625.0,279.2 625.8,272.8 625.0,270.0 C 624.2,267.2 622.3,265.0 620.0,264.0 C 617.7,263.0 613.8,263.3 611.0,264.0 C 608.2,264.7 604.3,267.3 603.0,268.0"/>
  <path d="M 625.0,282.0 C 626.0,282.0 629.2,281.5 631.0,282.0 C 632.8,282.5 635.0,282.0 636.0,285.0 C 637.0,288.0 637.2,296.3 637.0,300.0 C 636.8,303.7 637.2,302.7 635.0,307.0 C 632.8,311.3 627.3,321.5 624.0,326.0 C 620.7,330.5 618.2,332.0 615.0,334.0 C 611.8,336.0 608.5,337.3 605.0,338.0 C 601.5,338.7 596.2,338.3 594.0,338.0 C 591.8,337.7 593.8,336.5 592.0,336.0 C 590.2,335.5 584.5,335.2 583.0,335.0"/>
  <path d="M 606.0,293.0 C 605.3,289.2 602.7,273.8 602.0,270.0"/>
  <path d="M 603.0,300.0 C 602.3,300.2 601.3,298.7 599.0,301.0 C 596.7,303.3 591.8,309.0 589.0,314.0 C 586.2,319.0 583.2,328.2 582.0,331.0"/>
  <path d="M 604.0,300.0 C 604.2,300.8 605.2,302.3 605.0,305.0 C 604.8,307.7 605.0,310.8 603.0,316.0 C 601.0,321.2 594.7,332.7 593.0,336.0"/>
  <path d="M 383.0,317.0 C 383.3,317.7 382.2,319.2 385.0,321.0 C 387.8,322.8 395.2,326.2 400.0,328.0 C 404.8,329.8 409.7,331.3 414.0,332.0 C 418.3,332.7 423.7,331.0 426.0,332.0 C 428.3,333.0 430.3,334.0 428.0,338.0 C 425.7,342.0 416.0,351.0 412.0,356.0 C 408.0,361.0 405.5,364.8 404.0,368.0 C 402.5,371.2 403.8,373.0 403.0,375.0 C 402.2,377.0 401.8,378.7 399.0,380.0 C 396.2,381.3 391.3,382.5 386.0,383.0 C 380.7,383.5 372.0,383.7 367.0,383.0 C 362.0,382.3 359.7,381.2 356.0,379.0 C 352.3,376.8 347.7,373.2 345.0,370.0 C 342.3,366.8 341.0,363.7 340.0,360.0 C 339.0,356.3 338.5,352.0 339.0,348.0 C 339.5,344.0 340.5,340.0 343.0,336.0 C 345.5,332.0 350.7,326.8 354.0,324.0 C 357.3,321.2 360.2,320.2 363.0,319.0 C 365.8,317.8 369.7,317.3 371.0,317.0"/>
  <path d="M 426.0,322.0 C 426.0,323.5 426.0,329.5 426.0,331.0"/>
  <path d="M 504.0,328.0 C 503.0,328.7 501.2,331.0 498.0,332.0 C 494.8,333.0 491.0,333.8 485.0,334.0 C 479.0,334.2 465.8,333.2 462.0,333.0"/>
  <path d="M 514.0,328.0 C 514.0,328.3 511.7,327.5 514.0,330.0 C 516.3,332.5 525.0,339.5 528.0,343.0 C 531.0,346.5 531.3,347.2 532.0,351.0 C 532.7,354.8 532.7,362.2 532.0,366.0 C 531.3,369.8 530.0,371.5 528.0,374.0 C 526.0,376.5 523.3,379.2 520.0,381.0 C 516.7,382.8 512.5,384.5 508.0,385.0 C 503.5,385.5 497.5,385.0 493.0,384.0 C 488.5,383.0 486.7,382.7 481.0,379.0 C 475.3,375.3 462.7,364.8 459.0,362.0"/>
  <path d="M 429.0,338.0 C 430.7,338.8 435.5,342.2 439.0,343.0 C 442.5,343.8 448.2,343.0 450.0,343.0"/>
  <path d="M 439.0,344.0 C 438.2,345.7 436.7,350.5 434.0,354.0 C 431.3,357.5 427.0,361.7 423.0,365.0 C 419.0,368.3 413.2,372.3 410.0,374.0 C 406.8,375.7 405.0,374.8 404.0,375.0"/>
  <path d="M 399.0,381.0 C 399.0,383.5 398.3,391.5 399.0,396.0 C 399.7,400.5 401.3,404.8 403.0,408.0 C 404.7,411.2 406.2,412.8 409.0,415.0 C 411.8,417.2 416.2,419.8 420.0,421.0 C 423.8,422.2 428.2,422.5 432.0,422.0 C 435.8,421.5 439.8,419.8 443.0,418.0 C 446.2,416.2 448.8,413.5 451.0,411.0 C 453.2,408.5 455.0,405.2 456.0,403.0 C 457.0,400.8 456.2,399.3 457.0,398.0 C 457.8,396.7 460.3,395.5 461.0,395.0"/>
  <path d="M 545.0,396.0 C 542.7,396.7 537.5,397.5 531.0,400.0 C 524.5,402.5 513.3,407.0 506.0,411.0 C 498.7,415.0 492.3,419.7 487.0,424.0 C 481.7,428.3 477.0,434.5 474.0,437.0 C 471.0,439.5 469.8,438.7 469.0,439.0"/>
  <path d="M 546.0,434.0 C 548.2,431.8 555.7,423.8 559.0,421.0 C 562.3,418.2 562.7,417.8 566.0,417.0 C 569.3,416.2 576.0,415.8 579.0,416.0 C 582.0,416.2 581.8,415.8 584.0,418.0 C 586.2,420.2 590.7,424.5 592.0,429.0 C 593.3,433.5 593.2,441.0 592.0,445.0 C 590.8,449.0 585.7,451.2 585.0,453.0 C 584.3,454.8 588.3,453.8 588.0,456.0 C 587.7,458.2 585.8,462.2 583.0,466.0 C 580.2,469.8 573.2,476.2 571.0,479.0 C 568.8,481.8 565.3,482.2 570.0,483.0 C 574.7,483.8 593.5,483.5 599.0,484.0 C 604.5,484.5 600.8,485.7 603.0,486.0 C 605.2,486.3 609.2,487.3 612.0,486.0 C 614.8,484.7 617.7,481.0 620.0,478.0 C 622.3,475.0 625.0,472.2 626.0,468.0 C 627.0,463.8 626.8,456.5 626.0,453.0 C 625.2,449.5 622.8,448.5 621.0,447.0 C 619.2,445.5 617.8,444.7 615.0,444.0 C 612.2,443.3 607.7,442.8 604.0,443.0 C 600.3,443.2 594.8,444.7 593.0,445.0"/>
  <path d="M 322.0,440.0 C 321.7,439.2 322.0,438.0 320.0,435.0 C 318.0,432.0 313.3,428.0 310.0,422.0 C 306.7,416.0 302.2,405.3 300.0,399.0 C 297.8,392.7 297.5,388.8 297.0,384.0 C 296.5,379.2 296.7,373.8 297.0,370.0 C 297.3,366.2 298.3,362.8 299.0,361.0 C 299.7,359.2 298.8,358.7 301.0,359.0 C 303.2,359.3 307.5,360.5 312.0,363.0 C 316.5,365.5 322.3,369.0 328.0,374.0 C 333.7,379.0 341.2,387.0 346.0,393.0 C 350.8,399.0 353.8,404.5 357.0,410.0 C 360.2,415.5 362.2,419.3 365.0,426.0 C 367.8,432.7 372.5,444.8 374.0,450.0 C 375.5,455.2 374.0,455.8 374.0,457.0"/>
  <path d="M 292.0,442.0 C 289.2,442.5 280.2,443.7 275.0,445.0 C 269.8,446.3 264.5,448.5 261.0,450.0 C 257.5,451.5 255.7,452.8 254.0,454.0 C 252.3,455.2 251.5,456.0 251.0,457.0 C 250.5,458.0 248.0,456.5 251.0,460.0 C 254.0,463.5 263.2,473.5 269.0,478.0 C 274.8,482.5 281.3,484.8 286.0,487.0 C 290.7,489.2 292.2,489.8 297.0,491.0 C 301.8,492.2 308.2,493.5 315.0,494.0 C 321.8,494.5 331.8,494.3 338.0,494.0 C 344.2,493.7 349.2,492.8 352.0,492.0 C 354.8,491.2 349.0,488.3 355.0,489.0 C 361.0,489.7 378.2,493.0 388.0,496.0 C 397.8,499.0 408.8,505.2 414.0,507.0 C 419.2,508.8 418.2,507.0 419.0,507.0"/>
  <path d="M 547.0,442.0 C 547.3,442.2 548.2,441.5 549.0,443.0 C 549.8,444.5 551.3,445.8 552.0,451.0 C 552.7,456.2 552.2,470.5 553.0,474.0 C 553.8,477.5 553.2,475.2 557.0,472.0 C 560.8,468.8 571.8,458.5 576.0,455.0 C 580.2,451.5 580.5,451.5 582.0,451.0 C 583.5,450.5 584.5,451.8 585.0,452.0"/>
  <path d="M 299.0,443.0 C 299.2,443.8 296.2,443.7 300.0,448.0 C 303.8,452.3 315.5,463.7 322.0,469.0 C 328.5,474.3 334.2,477.3 339.0,480.0 C 343.8,482.7 348.5,483.7 351.0,485.0 C 353.5,486.3 353.5,487.5 354.0,488.0"/>
  <path d="M 333.0,446.0 C 333.2,446.7 331.7,447.3 334.0,450.0 C 336.3,452.7 340.8,457.8 347.0,462.0 C 353.2,466.2 365.5,472.7 371.0,475.0 C 376.5,477.3 378.7,477.7 380.0,476.0 C 381.3,474.3 379.2,466.8 379.0,465.0"/>
  <path d="M 569.0,483.0 C 565.8,484.0 553.7,487.5 550.0,489.0 C 546.3,490.5 547.8,491.5 547.0,492.0 C 546.2,492.5 545.3,492.0 545.0,492.0"/>
  <path d="M 603.0,487.0 C 602.2,487.8 601.7,490.3 598.0,492.0 C 594.3,493.7 589.2,496.2 581.0,497.0 C 572.8,497.8 554.7,497.7 549.0,497.0 C 543.3,496.3 547.3,493.7 547.0,493.0"/>
  <path d="M 612.0,487.0 C 613.5,488.8 619.5,494.7 621.0,498.0 C 622.5,501.3 621.8,504.5 621.0,507.0 C 620.2,509.5 618.7,511.2 616.0,513.0 C 613.3,514.8 610.2,517.2 605.0,518.0 C 599.8,518.8 590.3,518.5 585.0,518.0 C 579.7,517.5 578.0,517.2 573.0,515.0 C 568.0,512.8 558.5,507.2 555.0,505.0 C 551.5,502.8 552.7,503.2 552.0,502.0 C 551.3,500.8 551.2,498.7 551.0,498.0"/>
  <path d="M 437.0,518.0 C 437.2,515.3 436.7,508.8 438.0,502.0 C 439.3,495.2 442.5,483.7 445.0,477.0 C 447.5,470.3 450.7,465.8 453.0,462.0 C 455.3,458.2 457.0,456.0 459.0,454.0 C 461.0,452.0 464.0,450.7 465.0,450.0"/>
  <path d="M 458.0,548.0 C 457.7,551.5 456.2,564.8 456.0,569.0 C 455.8,573.2 456.8,572.3 457.0,573.0"/>
  <path d="M 482.0,550.0 C 485.2,547.8 494.3,540.5 501.0,537.0 C 507.7,533.5 516.7,530.7 522.0,529.0 C 527.3,527.3 527.8,527.3 533.0,527.0 C 538.2,526.7 548.3,526.7 553.0,527.0 C 557.7,527.3 559.3,528.3 561.0,529.0 C 562.7,529.7 563.0,529.3 563.0,531.0 C 563.0,532.7 563.3,535.3 561.0,539.0 C 558.7,542.7 552.7,549.5 549.0,553.0 C 545.3,556.5 543.0,557.7 539.0,560.0 C 535.0,562.3 530.7,565.0 525.0,567.0 C 519.3,569.0 513.0,571.2 505.0,572.0 C 497.0,572.8 482.5,572.2 477.0,572.0 C 471.5,571.8 473.5,571.7 472.0,571.0 C 470.5,570.3 468.7,568.5 468.0,568.0"/>
  <path d="M 624.0,283.0 C 622.3,284.2 616.8,288.5 614.0,290.0 C 611.2,291.5 608.2,291.7 607.0,292.0"/>
  <path d="M 552.0,475.0 C 550.8,476.8 546.2,484.2 545.0,486.0"/>
</g>
</svg>