<svg xmlns="http://www.w3.org/2000/svg" viewBox="0 0 1024 1024" width="1024" height="1024">
<g fill="none" stroke="#2f4255" stroke-width="10.0" stroke-linecap="round" stroke-linejoin="round">
  <path d="M 485.8,139.5 C 487.5,137.1 491.2,127.4 495.7,125.4 C 500.2,123.4 477.2,108.3 513.0,127.2 C 548.8,146.2 677.5,220.5 710.4,239.2"/>
  <path d="M 481.8,147.0 C 481.2,149.7 479.0,152.1 478.3,163.0 C 477.6,173.9 477.7,204.2 477.5,212.4"/>
  <path d="M 488.5,146.1 C 492.5,150.1 499.4,153.5 512.2,170.0 C 525.0,186.5 555.0,228.8 565.5,245.0 C 576.1,261.2 573.8,263.7 575.4,267.4"/>
  <path d="M 384.0,198.5 C 387.5,196.0 390.3,181.0 405.0,183.9 C 419.8,186.8 461.2,210.6 472.4,216.0"/>
  <path d="M 380.6,206.6 C 380.3,208.6 379.6,207.9 379.0,219.0 C 378.4,230.2 377.4,264.4 377.0,273.4"/>
  <path d="M 386.5,204.7 C 391.0,209.3 400.2,215.1 413.5,232.0 C 426.7,248.9 455.9,289.9 466.2,306.0 C 476.5,322.1 473.9,324.7 475.5,328.4"/>
  <path d="M 479.9,221.4 C 490.7,228.1 529.7,253.6 545.0,262.0 C 560.3,270.3 567.0,269.9 571.4,271.5"/>
  <path d="M 718.6,239.7 C 723.6,238.4 739.2,231.0 749.0,232.3 C 758.8,233.6 769.1,239.4 777.3,247.5 C 785.4,255.6 794.7,269.7 797.7,281.0 C 800.8,292.3 796.0,309.7 795.7,315.4"/>
  <path d="M 283.2,257.5 C 286.3,255.1 287.3,240.4 302.0,243.5 C 316.8,246.7 359.9,270.9 371.4,276.3"/>
  <path d="M 713.5,245.6 C 713.2,249.8 710.7,261.7 711.6,271.0 C 712.6,280.3 717.9,296.4 719.2,301.4"/>
  <path d="M 279.0,265.6 C 278.5,268.3 276.8,262.9 276.1,282.0 C 275.5,301.2 275.4,364.0 275.3,380.4"/>
  <path d="M 285.5,264.0 C 289.5,268.0 291.2,262.6 309.6,288.0 C 328.1,313.4 381.8,395.0 396.2,416.4"/>
  <path d="M 579.6,275.4 C 582.8,278.1 593.5,287.8 599.0,291.9 C 604.5,296.0 610.2,298.8 612.4,300.2"/>
  <path d="M 378.5,281.3 C 388.0,287.2 420.5,308.6 436.0,317.1 C 451.5,325.6 465.5,329.7 471.4,332.2"/>
  <path d="M 621.6,300.4 C 627.1,299.3 643.7,290.7 655.0,293.3 C 666.3,295.8 683.8,311.9 689.6,315.6"/>
  <path d="M 616.1,306.6 C 615.8,311.1 613.6,324.7 614.4,334.0 C 615.3,343.3 619.9,357.7 621.0,362.4"/>
  <path d="M 724.5,308.1 C 728.9,311.2 742.2,322.6 751.0,326.5 C 759.8,330.5 773.0,330.7 777.4,331.6"/>
  <path d="M 694.9,322.6 C 695.8,328.5 701.0,347.4 700.7,358.0 C 700.3,368.6 694.0,381.7 692.7,386.4"/>
  <path d="M 480.6,336.4 C 483.5,339.0 492.7,347.6 498.0,351.7 C 503.3,355.8 510.0,359.4 512.4,360.9"/>
  <path d="M 519.6,361.2 C 525.3,359.8 542.3,350.1 554.0,352.7 C 565.7,355.3 583.7,372.8 589.6,376.8"/>
  <path d="M 515.1,366.6 C 515.0,371.1 513.6,385.0 514.7,394.0 C 515.7,403.0 520.2,416.0 521.3,420.4"/>
  <path d="M 626.6,369.1 C 631.0,372.1 644.4,383.1 653.0,386.8 C 661.6,390.6 674.2,390.7 678.4,391.4"/>
  <path d="M 594.7,383.6 C 595.6,389.3 600.0,407.7 599.7,418.0 C 599.3,428.3 593.7,440.9 592.5,445.4"/>
  <path d="M 269.4,386.0 C 252.2,395.3 191.2,427.0 166.0,441.8 C 140.8,456.5 126.1,469.1 118.1,474.6"/>
  <path d="M 274.9,388.6 C 275.3,398.9 276.3,438.4 277.3,450.9 C 278.2,463.4 280.1,461.2 280.6,463.3"/>
  <path d="M 788.6,389.7 C 792.3,391.1 794.4,389.4 811.0,398.2 C 827.6,407.0 872.1,432.5 888.0,442.5 C 903.8,452.4 903.0,455.1 906.1,457.6"/>
  <path d="M 694.4,392.9 C 701.7,402.5 727.1,434.1 738.3,450.0 C 749.6,465.9 758.1,482.0 762.0,488.4"/>
  <path d="M 783.5,393.6 C 783.1,407.6 783.9,461.5 781.4,477.8 C 778.9,494.1 770.7,489.1 768.5,491.4"/>
  <path d="M 682.0,396.6 C 682.0,405.0 681.9,436.3 682.1,447.0 C 682.2,457.6 683.0,458.2 683.1,460.4"/>
  <path d="M 401.4,423.1 C 406.7,428.8 422.6,452.3 433.3,457.4 C 444.0,462.5 460.1,454.1 465.4,453.5"/>
  <path d="M 518.4,427.4 C 512.4,430.2 489.8,440.4 482.2,444.1 C 474.6,447.7 474.6,448.4 473.1,449.3"/>
  <path d="M 526.6,427.2 C 531.0,430.2 544.7,441.2 553.0,445.1 C 561.3,449.0 572.5,449.8 576.4,450.7"/>
  <path d="M 594.3,451.7 C 603.5,463.9 638.4,508.7 649.4,525.0 C 660.4,541.3 658.4,545.4 660.3,549.4"/>
  <path d="M 581.2,455.6 C 581.3,458.8 581.9,464.5 582.0,475.0 C 582.0,485.5 581.6,511.2 581.6,518.4"/>
  <path d="M 471.6,456.6 C 485.5,477.5 538.1,558.1 555.1,582.0 C 572.1,605.8 570.4,596.6 573.5,599.5"/>
  <path d="M 904.4,464.7 C 882.4,477.6 797.6,528.0 772.0,542.4 C 746.4,556.9 754.1,549.7 750.6,551.2"/>
  <path d="M 912.3,463.7 C 913.5,467.4 918.7,461.8 920.0,486.0 C 921.2,510.2 920.9,585.8 919.8,609.0 C 918.8,632.1 977.7,585.2 913.7,624.9 C 849.8,664.7 603.7,808.4 536.0,847.5 C 468.3,886.6 512.3,857.4 507.6,859.4"/>
  <path d="M 688.6,465.9 C 697.5,470.0 729.9,486.1 742.0,490.8 C 754.1,495.5 757.8,493.5 761.0,494.1"/>
  <path d="M 683.0,468.6 C 682.9,471.0 682.1,475.7 682.0,483.0 C 681.9,490.3 682.4,507.5 682.5,512.4"/>
  <path d="M 285.0,470.5 C 285.9,471.9 286.7,475.0 290.0,478.9 C 293.3,482.8 302.5,491.2 305.0,493.7"/>
  <path d="M 111.7,480.6 C 110.6,481.9 106.3,464.1 104.9,488.7 C 103.5,513.2 102.3,601.9 103.2,628.0 C 104.0,654.1 49.0,607.6 110.0,645.3 C 171.0,683.0 404.0,818.0 469.0,854.3 C 534.0,890.6 494.8,861.4 500.0,862.8"/>
  <path d="M 119.6,482.8 C 132.4,490.5 181.2,517.9 196.9,528.7 C 212.5,539.6 210.9,544.7 213.7,547.9"/>
  <path d="M 310.6,497.7 C 350.1,519.3 504.8,606.0 548.0,627.4 C 591.2,648.9 564.9,629.9 570.0,626.3 C 575.1,622.6 577.0,609.0 578.4,605.6"/>
  <path d="M 304.6,500.4 C 301.7,502.7 301.2,505.9 287.0,514.2 C 272.8,522.4 230.8,543.9 219.6,549.9"/>
  <path d="M 687.6,517.3 C 691.8,519.1 703.7,522.5 713.0,527.7 C 722.3,532.9 738.4,545.3 743.5,548.8"/>
  <path d="M 682.5,521.6 C 681.9,525.3 682.0,538.8 679.1,544.0 C 676.3,549.2 667.8,551.4 665.5,552.9"/>
  <path d="M 586.6,523.7 C 589.3,524.6 594.3,524.7 603.0,528.7 C 611.7,532.7 630.1,543.7 639.0,547.8 C 647.9,551.9 653.5,552.4 656.4,553.3"/>
  <path d="M 581.5,527.6 C 581.6,536.8 582.2,571.3 581.9,583.0 C 581.6,594.6 580.1,595.0 579.8,597.4"/>
  <path d="M 215.7,554.6 C 217.8,563.3 224.2,595.6 227.9,607.0 C 231.6,618.4 212.4,606.9 237.8,623.1 C 263.2,639.2 356.7,690.4 380.4,703.9"/>
  <path d="M 743.6,556.3 C 742.4,557.4 739.3,560.8 736.4,563.1 C 733.5,565.3 764.6,547.3 726.0,569.9 C 687.3,592.4 541.5,677.0 504.6,698.4"/>
  <path d="M 417.6,656.0 C 420.1,657.1 419.7,655.6 433.0,662.7 C 446.3,669.7 486.7,692.4 497.4,698.4"/>
  <path d="M 410.3,657.6 C 409.3,659.2 407.4,661.2 404.5,667.2 C 401.7,673.2 395.8,687.9 393.0,693.7 C 390.1,699.6 388.5,700.9 387.6,702.4"/>
  <path d="M 501.0,703.6 C 501.0,726.3 500.8,814.5 501.0,840.0 C 501.2,865.5 501.9,853.7 502.1,856.4"/>
</g>
<g fill="none" stroke="#2072bd" stroke-width="52.7" stroke-linecap="round" stroke-linejoin="round">
  <path d="M 907.6,479.6 C 899.9,495.0 918.7,527.4 861.2,572.3 C 803.7,617.2 614.2,717.0 562.5,748.8 C 510.8,780.6 559.2,747.5 551.2,763.1 C 543.2,778.7 520.5,829.2 514.4,842.4"/>
</g>
<g fill="none" stroke="#50a9f8" stroke-width="36.0" stroke-linecap="round" stroke-linejoin="round">
  <path d="M 116.5,499.6 C 123.8,515.6 146.0,570.6 160.7,596.0 C 175.3,621.4 171.5,627.7 204.3,651.8 C 237.0,676.0 317.6,723.4 357.0,740.7 C 396.4,758.1 426.5,753.6 440.4,756.2"/>
</g>
<g fill="none" stroke="#f0d9ba" stroke-width="33.6" stroke-linecap="round" stroke-linejoin="round">
  <path d="M 700.6,556.5 C 695.9,559.8 685.5,572.0 672.0,576.6 C 658.5,581.2 628.3,582.8 619.6,584.0"/>
  <path d="M 238.6,568.0 C 244.0,570.5 257.6,579.6 271.0,582.6 C 284.4,585.6 306.1,582.9 319.0,586.1 C 331.9,589.2 343.5,599.1 348.4,601.7"/>
  <path d="M 613.5,588.6 C 608.8,596.2 598.6,624.0 585.5,634.3 C 572.4,644.7 573.2,656.0 535.0,650.7 C 496.8,645.5 386.3,610.8 356.6,602.8"/>
</g>
<g fill="none" stroke="#2b83d2" stroke-width="21.6" stroke-linecap="round" stroke-linejoin="round">
  <path d="M 818.2,463.6 C 809.0,473.1 783.5,517.7 763.0,520.7 C 742.5,523.7 706.7,488.1 695.5,481.5"/>
  <path d="M 233.6,483.2 C 237.3,485.2 246.4,492.4 256.0,494.7 C 265.6,497.0 285.5,496.6 291.4,497.0"/>
  <path d="M 229.0,484.6 C 228.9,489.3 229.2,505.0 228.2,513.0 C 227.3,521.0 224.3,529.2 223.5,532.4"/>
</g>
</svg>