<svg xmlns="http://www.w3.org/2000/svg" viewBox="0 0 1024 1024" width="1024" height="1024">
<g fill="none" stroke="#000000" stroke-width="4.0" stroke-linecap="round" stroke-linejoin="round">
  <path d="M 291.3,437.4 C 289.0,420.5 270.1,368.9 277.3,336.0 C 284.4,303.1 285.5,262.6 334.0,240.0 C 382.5,217.3 506.6,188.6 568.0,200.3 C 629.4,211.9 670.2,262.7 702.4,310.0 C 734.7,357.3 758.1,443.3 761.3,484.0 C 764.6,524.7 728.5,542.6 721.9,554.3"/>
  <path d="M 423.1,257.4 C 425.3,253.5 430.5,239.2 436.5,234.0 C 442.5,228.8 451.9,225.4 459.0,226.2 C 466.0,226.9 474.2,232.0 478.8,238.4 C 483.4,244.7 485.2,260.1 486.4,264.4"/>
  <path d="M 417.4,259.7 C 412.9,257.7 398.7,248.0 390.0,247.9 C 381.3,247.9 370.7,253.4 365.1,259.6 C 359.5,265.8 355.6,276.4 356.4,285.0 C 357.3,293.6 367.8,307.0 370.0,311.4"/>
  <path d="M 490.6,266.8 C 495.5,266.2 511.8,261.3 520.0,263.4 C 528.2,265.4 536.6,272.4 539.7,279.1 C 542.9,285.9 542.6,296.4 538.9,304.0 C 535.2,311.5 521.1,321.2 517.6,324.7"/>
  <path d="M 605.6,267.4 C 607.8,267.4 615.6,265.5 618.8,267.2 C 622.0,268.9 623.8,275.8 624.8,277.5"/>
  <path d="M 598.4,268.5 C 594.2,272.7 576.7,284.0 573.3,294.0 C 569.8,304.0 577.2,322.6 577.9,328.4"/>
  <path d="M 426.1,274.7 C 427.6,276.8 432.3,282.1 435.0,287.1 C 437.7,292.0 441.0,301.6 442.2,304.4"/>
  <path d="M 422.3,276.6 C 422.8,279.0 423.8,286.0 425.2,291.0 C 426.7,296.0 430.2,303.9 431.2,306.4"/>
  <path d="M 475.5,280.0 C 473.7,281.7 468.5,285.9 464.8,290.2 C 461.1,294.4 455.2,302.9 453.3,305.4"/>
  <path d="M 480.4,283.6 C 479.4,285.8 476.9,292.4 474.1,297.0 C 471.2,301.7 465.1,309.0 463.3,311.4"/>
  <path d="M 629.2,283.0 C 630.4,285.1 636.1,290.4 636.1,296.1 C 636.1,301.8 635.7,310.1 629.1,317.0 C 622.5,323.9 602.0,334.0 596.6,337.4"/>
  <path d="M 599.8,302.2 C 598.4,303.9 594.1,308.2 591.4,312.2 C 588.6,316.2 584.9,324.1 583.6,326.4"/>
  <path d="M 604.2,303.6 C 603.7,306.0 602.9,313.3 601.4,318.0 C 599.9,322.6 596.2,329.2 595.2,331.4"/>
  <path d="M 386.6,315.0 C 389.1,315.1 396.2,314.8 402.0,315.6 C 407.8,316.4 418.2,319.4 421.4,320.1"/>
  <path d="M 368.4,317.5 C 364.4,320.7 348.5,329.7 344.1,337.1 C 339.8,344.5 339.2,354.7 342.2,361.9 C 345.2,369.1 353.3,377.2 362.0,380.3 C 370.7,383.4 389.0,380.6 394.4,380.6"/>
  <path d="M 385.6,319.6 C 388.3,321.0 396.0,325.9 402.0,327.9 C 408.0,330.0 418.2,331.2 421.4,331.9"/>
  <path d="M 466.6,322.2 C 469.5,322.0 478.3,320.4 484.0,320.7 C 489.6,321.1 497.7,323.7 500.4,324.3"/>
  <path d="M 500.4,329.9 C 497.9,330.4 490.8,332.7 485.0,333.3 C 479.2,333.9 468.8,333.5 465.6,333.5"/>
  <path d="M 516.5,331.2 C 518.9,335.4 530.3,348.2 531.2,356.0 C 532.0,363.8 527.2,373.5 521.5,378.1 C 515.8,382.7 505.8,385.2 497.0,383.7 C 488.2,382.2 473.3,371.5 468.6,369.0"/>
  <path d="M 579.7,339.6 C 578.3,342.5 575.2,350.2 571.5,357.0 C 567.8,363.8 560.0,376.5 557.6,380.4"/>
  <path d="M 423.7,342.6 C 421.7,345.1 414.7,353.3 411.4,358.0 C 408.2,362.6 405.5,368.4 404.3,370.4"/>
  <path d="M 437.1,347.6 C 434.9,350.1 428.7,358.7 423.8,363.1 C 418.9,367.5 410.3,372.0 407.6,373.8"/>
  <path d="M 560.6,383.9 C 575.9,380.1 643.3,360.1 652.9,361.5 C 662.4,362.9 635.2,386.4 618.0,392.3 C 600.8,398.3 561.0,396.3 549.6,397.0"/>
  <path d="M 320.0,436.4 C 316.5,429.2 301.9,405.3 299.3,393.0 C 296.6,380.7 296.6,362.7 304.3,362.7 C 311.9,362.7 333.5,378.1 345.0,393.0 C 356.6,408.0 368.8,442.5 373.5,452.4"/>
  <path d="M 399.0,384.6 C 400.0,388.4 400.9,401.8 404.7,407.7 C 408.5,413.6 415.8,418.5 422.0,420.1 C 428.2,421.6 435.8,420.5 441.8,416.9 C 447.8,413.3 455.1,401.6 457.8,398.6"/>
  <path d="M 463.2,398.6 C 463.5,400.5 464.4,403.9 465.1,410.1 C 465.8,416.2 467.0,431.2 467.3,435.4"/>
  <path d="M 541.4,397.2 C 535.5,399.7 517.5,405.2 506.0,411.8 C 494.5,418.4 478.1,432.6 472.6,436.8"/>
  <path d="M 550.2,430.5 C 554.8,428.4 570.9,416.2 577.8,417.9 C 584.8,419.5 589.6,436.7 591.9,440.4"/>
  <path d="M 541.4,431.2 C 537.8,430.6 525.0,424.9 519.3,427.5 C 513.6,430.1 504.3,436.8 507.2,447.0 C 510.0,457.2 531.6,481.9 536.4,488.9"/>
  <path d="M 288.4,442.5 C 283.1,444.7 260.1,450.1 256.6,455.6 C 253.0,461.0 251.3,469.5 267.1,475.4 C 282.9,481.2 337.4,488.1 351.4,490.7"/>
  <path d="M 543.5,445.6 C 543.0,448.8 540.5,458.7 540.3,465.0 C 540.2,471.3 542.2,480.4 542.6,483.4"/>
  <path d="M 548.8,445.0 C 549.2,446.5 550.6,449.9 551.3,454.2 C 551.9,458.4 552.3,467.7 552.5,470.4"/>
  <path d="M 596.6,444.6 C 601.1,446.1 620.5,447.4 623.6,453.6 C 626.8,459.8 616.6,477.0 615.2,481.7"/>
  <path d="M 300.8,446.6 C 304.3,450.1 313.6,461.5 322.0,468.1 C 330.4,474.8 346.5,483.4 351.4,486.5"/>
  <path d="M 336.6,445.0 C 338.8,445.5 344.5,446.4 350.0,448.1 C 355.5,449.9 366.2,454.4 369.4,455.7"/>
  <path d="M 335.1,449.5 C 338.0,452.0 345.5,460.2 352.0,464.5 C 358.6,468.8 370.7,473.4 374.4,475.2"/>
  <path d="M 462.8,451.7 C 459.8,456.2 449.2,468.5 445.0,479.0 C 440.7,489.5 438.5,508.5 437.2,514.4"/>
  <path d="M 466.5,452.6 C 466.2,460.8 465.9,486.9 464.8,502.0 C 463.6,517.1 460.3,536.5 459.4,543.4"/>
  <path d="M 581.4,453.1 C 580.0,453.9 577.0,455.4 572.8,458.4 C 568.7,461.5 559.3,469.2 556.6,471.4"/>
  <path d="M 586.1,457.6 C 585.3,459.0 583.8,462.7 581.6,466.1 C 579.3,469.6 574.0,476.4 572.5,478.4"/>
  <path d="M 383.6,466.8 C 386.7,469.3 396.9,476.2 402.6,482.2 C 408.4,488.1 415.6,499.1 418.2,502.4"/>
  <path d="M 573.6,483.5 C 576.1,483.5 584.6,483.5 588.9,483.8 C 593.2,484.0 597.7,484.8 599.4,485.0"/>
  <path d="M 358.6,489.6 C 362.8,490.6 374.5,492.7 384.0,495.5 C 393.5,498.3 410.2,504.5 415.4,506.3"/>
  <path d="M 600.0,489.4 C 597.0,490.5 589.4,494.6 582.0,495.9 C 574.6,497.1 560.0,496.8 555.6,497.0"/>
  <path d="M 614.9,490.6 C 615.3,493.4 619.8,503.0 617.6,507.4 C 615.5,511.8 612.7,518.2 602.0,517.2 C 591.2,516.1 561.3,503.8 553.1,501.2"/>
  <path d="M 536.4,494.7 C 531.0,498.4 513.4,509.1 504.0,517.0 C 494.7,525.0 484.3,538.2 480.4,542.4"/>
  <path d="M 426.5,548.4 C 428.1,541.7 398.8,517.1 382.0,511.7 C 365.2,506.4 327.3,509.9 325.7,516.6 C 324.0,523.3 355.2,546.7 372.0,552.0 C 388.8,557.3 424.8,555.2 426.5,548.4 Z"/>
  <path d="M 485.6,547.8 C 497.9,545.5 552.8,531.2 559.4,534.2 C 566.0,537.3 539.8,560.3 525.0,566.1 C 510.2,571.9 479.6,568.4 470.6,568.9"/>
  <path d="M 476.2,552.3 C 475.3,553.4 472.5,556.9 471.2,559.0 C 469.8,561.0 468.5,563.7 468.0,564.7"/>
  <path d="M 430.6,556.6 C 431.4,562.6 436.4,578.3 435.3,593.0 C 434.3,607.7 430.7,626.8 424.2,645.0 C 417.7,663.2 407.1,685.0 396.6,702.0 C 386.1,719.0 367.3,739.4 361.4,746.9"/>
  <path d="M 721.5,560.6 C 718.9,574.5 728.3,626.7 705.6,644.4 C 683.0,662.0 608.3,648.5 585.6,666.3 C 563.0,684.2 572.5,737.3 569.9,751.4"/>
</g>
</svg>