<svg xmlns="http://www.w3.org/2000/svg" viewBox="0 0 1024 1024" width="1024" height="1024">
<g fill="none" stroke="#000000" stroke-width="2.8" stroke-linecap="round" stroke-linejoin="round">
  <path d="M 285.0,274.0 C 290.0,271.2 303.0,261.5 315.0,257.0 C 327.0,252.5 345.5,248.5 357.0,247.0 C 368.5,245.5 373.0,245.8 384.0,248.0 C 395.0,250.2 402.0,248.7 423.0,260.0 C 444.0,271.3 496.8,297.8 510.0,316.0 C 523.2,334.2 508.8,363.7 502.0,369.0 C 495.2,374.3 481.8,354.3 469.0,348.0 C 456.2,341.7 440.3,335.3 425.0,331.0 C 409.7,326.7 391.0,323.5 377.0,322.0 C 363.0,320.5 354.7,320.2 341.0,322.0 C 327.3,323.8 307.8,328.5 295.0,333.0 C 282.2,337.5 273.7,342.5 264.0,349.0 C 254.3,355.5 244.7,363.2 237.0,372.0 C 229.3,380.8 221.8,401.0 218.0,402.0 C 214.2,403.0 212.8,388.8 214.0,378.0 C 215.2,367.2 219.3,349.5 225.0,337.0 C 230.7,324.5 239.7,312.3 248.0,303.0 C 256.3,293.7 271.3,285.5 275.0,281.0 C 278.7,276.5 270.0,279.0 270.0,276.0 C 270.0,273.0 267.5,271.3 275.0,263.0 C 282.5,254.7 300.5,236.0 315.0,226.0 C 329.5,216.0 345.8,207.7 362.0,203.0 C 378.2,198.3 398.8,197.5 412.0,198.0 C 425.2,198.5 432.7,202.5 441.0,206.0 C 449.3,209.5 453.2,209.7 462.0,219.0 C 470.8,228.3 486.5,246.5 494.0,262.0 C 501.5,277.5 504.8,303.7 507.0,312.0"/>
  <path d="M 284.0,275.0 C 284.5,275.3 285.8,276.7 287.0,277.0 C 288.2,277.3 287.5,277.7 291.0,277.0 C 294.5,276.3 300.5,273.7 308.0,273.0 C 315.5,272.3 328.3,272.5 336.0,273.0 C 343.7,273.5 346.7,274.2 354.0,276.0 C 361.3,277.8 371.7,280.7 380.0,284.0 C 388.3,287.3 398.3,292.8 404.0,296.0 C 409.7,299.2 411.0,300.5 414.0,303.0 C 417.0,305.5 419.8,308.3 422.0,311.0 C 424.2,313.7 426.3,315.7 427.0,319.0 C 427.7,322.3 426.2,329.0 426.0,331.0"/>
  <path d="M 514.0,312.0 C 517.0,306.0 524.0,287.7 532.0,276.0 C 540.0,264.3 551.3,251.2 562.0,242.0 C 572.7,232.8 584.3,226.0 596.0,221.0 C 607.7,216.0 620.3,212.8 632.0,212.0 C 643.7,211.2 655.5,213.2 666.0,216.0 C 676.5,218.8 684.0,221.7 695.0,229.0 C 706.0,236.3 723.7,252.2 732.0,260.0 C 740.3,267.8 742.0,271.5 745.0,276.0 C 748.0,280.5 749.2,284.3 750.0,287.0 C 750.8,289.7 750.5,290.8 750.0,292.0 C 749.5,293.2 752.0,296.3 747.0,294.0 C 742.0,291.7 728.7,282.3 720.0,278.0 C 711.3,273.7 704.3,270.7 695.0,268.0 C 685.7,265.3 672.8,263.0 664.0,262.0 C 655.2,261.0 650.3,261.2 642.0,262.0 C 633.7,262.8 622.3,264.8 614.0,267.0 C 605.7,269.2 605.7,267.8 592.0,275.0 C 578.3,282.2 545.7,303.3 532.0,310.0 C 518.3,316.7 513.7,314.2 510.0,315.0"/>
  <path d="M 595.0,326.0 C 597.8,323.5 599.5,315.8 612.0,311.0 C 624.5,306.2 651.2,298.7 670.0,297.0 C 688.8,295.3 708.2,296.8 725.0,301.0 C 741.8,305.2 758.5,310.8 771.0,322.0 C 783.5,333.2 794.8,349.3 800.0,368.0 C 805.2,386.7 810.2,432.7 802.0,434.0 C 793.8,435.3 767.5,390.7 751.0,376.0 C 734.5,361.3 723.3,354.3 703.0,346.0 C 682.7,337.7 647.5,329.2 629.0,326.0 C 610.5,322.8 599.0,324.8 592.0,327.0 C 585.0,329.2 582.8,333.0 587.0,339.0 C 591.2,345.0 596.0,353.8 617.0,363.0 C 638.0,372.2 687.8,383.5 713.0,394.0 C 738.2,404.5 754.0,414.2 768.0,426.0 C 782.0,437.8 791.5,450.8 797.0,465.0 C 802.5,479.2 803.3,495.8 801.0,511.0 C 798.7,526.2 790.7,545.3 783.0,556.0 C 775.3,566.7 778.8,592.3 755.0,575.0 C 731.2,557.7 666.7,476.7 640.0,452.0 C 613.3,427.3 608.2,431.0 595.0,427.0 C 581.8,423.0 567.2,425.8 561.0,428.0 C 554.8,430.2 555.3,433.5 558.0,440.0 C 560.7,446.5 560.0,456.8 577.0,467.0 C 594.0,477.2 638.3,489.0 660.0,501.0 C 681.7,513.0 696.0,526.8 707.0,539.0 C 718.0,551.2 722.3,562.5 726.0,574.0 C 729.7,585.5 734.7,592.8 729.0,608.0 C 723.3,623.2 702.7,653.5 692.0,665.0 C 681.3,676.5 672.8,677.0 665.0,677.0 C 657.2,677.0 651.0,660.8 645.0,665.0 C 639.0,669.2 645.3,689.7 629.0,702.0 C 612.7,714.3 565.2,726.0 547.0,739.0 C 528.8,752.0 541.5,782.5 520.0,780.0 C 498.5,777.5 436.8,737.2 418.0,724.0 C 399.2,710.8 402.0,726.3 407.0,701.0 C 412.0,675.7 433.8,603.5 448.0,572.0 C 462.2,540.5 483.2,545.5 492.0,512.0 C 500.8,478.5 499.5,394.5 501.0,371.0"/>
  <path d="M 587.0,329.0 C 582.0,330.3 567.7,333.3 557.0,337.0 C 546.3,340.7 530.0,348.8 523.0,351.0 C 516.0,353.2 517.5,351.5 515.0,350.0 C 512.5,348.5 509.2,343.3 508.0,342.0"/>
  <path d="M 499.0,383.0 C 494.2,384.7 485.8,389.8 470.0,393.0 C 454.2,396.2 417.7,398.2 404.0,402.0 C 390.3,405.8 398.5,409.2 388.0,416.0 C 377.5,422.8 354.3,434.7 341.0,443.0 C 327.7,451.3 319.5,456.5 308.0,466.0 C 296.5,475.5 280.8,490.7 272.0,500.0 C 263.2,509.3 259.7,513.5 255.0,522.0 C 250.3,530.5 245.5,541.7 244.0,551.0 C 242.5,560.3 242.5,567.2 246.0,578.0 C 249.5,588.8 258.8,607.2 265.0,616.0 C 271.2,624.8 278.8,628.3 283.0,631.0 C 287.2,633.7 287.5,632.5 290.0,632.0 C 292.5,631.5 294.0,623.7 298.0,628.0 C 302.0,632.3 307.8,649.5 314.0,658.0 C 320.2,666.5 327.0,673.0 335.0,679.0 C 343.0,685.0 355.5,691.5 362.0,694.0 C 368.5,696.5 370.3,695.3 374.0,694.0 C 377.7,692.7 383.5,692.2 384.0,686.0 C 384.5,679.8 378.2,665.3 377.0,657.0 C 375.8,648.7 375.8,644.3 377.0,636.0 C 378.2,627.7 380.5,616.3 384.0,607.0 C 387.5,597.7 392.7,587.8 398.0,580.0 C 403.3,572.2 409.2,565.5 416.0,560.0 C 422.8,554.5 433.5,548.2 439.0,547.0 C 444.5,545.8 447.3,549.2 449.0,553.0 C 450.7,556.8 449.0,567.2 449.0,570.0"/>
  <path d="M 501.0,383.0 C 505.8,382.7 520.8,380.7 530.0,381.0 C 539.2,381.3 547.0,383.2 556.0,385.0 C 565.0,386.8 571.0,387.8 584.0,392.0 C 597.0,396.2 621.5,404.8 634.0,410.0 C 646.5,415.2 651.5,418.7 659.0,423.0 C 666.5,427.3 670.2,429.0 679.0,436.0 C 687.8,443.0 704.0,457.2 712.0,465.0 C 720.0,472.8 723.0,477.7 727.0,483.0 C 731.0,488.3 732.7,491.0 736.0,497.0 C 739.3,503.0 744.2,511.8 747.0,519.0 C 749.8,526.2 751.8,531.8 753.0,540.0 C 754.2,548.2 754.2,562.8 754.0,568.0 C 753.8,573.2 752.3,570.5 752.0,571.0"/>
  <path d="M 409.0,400.0 C 409.8,398.3 413.2,392.8 414.0,390.0 C 414.8,387.2 415.0,385.3 414.0,383.0 C 413.0,380.7 412.0,378.2 408.0,376.0 C 404.0,373.8 396.2,371.2 390.0,370.0 C 383.8,368.8 379.5,368.7 371.0,369.0 C 362.5,369.3 351.3,370.0 339.0,372.0 C 326.7,374.0 309.8,377.3 297.0,381.0 C 284.2,384.7 271.2,389.8 262.0,394.0 C 252.8,398.2 248.8,400.2 242.0,406.0 C 235.2,411.8 225.8,420.5 221.0,429.0 C 216.2,437.5 213.8,446.0 213.0,457.0 C 212.2,468.0 213.7,484.0 216.0,495.0 C 218.3,506.0 223.3,516.7 227.0,523.0 C 230.7,529.3 235.2,531.7 238.0,533.0 C 240.8,534.3 243.0,536.0 244.0,531.0 C 245.0,526.0 242.0,512.7 244.0,503.0 C 246.0,493.3 251.3,481.5 256.0,473.0 C 260.7,464.5 265.2,459.0 272.0,452.0 C 278.8,445.0 285.3,437.8 297.0,431.0 C 308.7,424.2 329.5,415.3 342.0,411.0 C 354.5,406.7 362.0,406.3 372.0,405.0 C 382.0,403.7 397.0,403.3 402.0,403.0"/>
  <path d="M 497.0,437.0 C 498.3,437.0 502.0,436.5 505.0,437.0 C 508.0,437.5 507.0,436.3 515.0,440.0 C 523.0,443.7 543.7,454.7 553.0,459.0 C 562.3,463.3 567.3,464.8 571.0,466.0 C 574.7,467.2 574.3,466.0 575.0,466.0"/>
  <path d="M 493.0,445.0 C 490.7,447.3 483.5,455.2 479.0,459.0 C 474.5,462.8 475.2,462.8 466.0,468.0 C 456.8,473.2 431.7,486.3 424.0,490.0 C 416.3,493.7 422.0,488.7 420.0,490.0 C 418.0,491.3 414.2,496.7 412.0,498.0 C 409.8,499.3 410.7,496.3 407.0,498.0 C 403.3,499.7 398.7,502.0 390.0,508.0 C 381.3,514.0 363.7,526.8 355.0,534.0 C 346.3,541.2 344.0,544.0 338.0,551.0 C 332.0,558.0 324.2,568.0 319.0,576.0 C 313.8,584.0 309.8,592.5 307.0,599.0 C 304.2,605.5 303.5,611.5 302.0,615.0 C 300.5,618.5 298.7,618.0 298.0,620.0 C 297.3,622.0 298.0,625.8 298.0,627.0"/>
  <path d="M 591.0,475.0 C 591.2,475.7 586.3,473.0 592.0,479.0 C 597.7,485.0 616.8,502.3 625.0,511.0 C 633.2,519.7 636.0,524.0 641.0,531.0 C 646.0,538.0 650.5,544.8 655.0,553.0 C 659.5,561.2 664.5,570.7 668.0,580.0 C 671.5,589.3 674.5,598.7 676.0,609.0 C 677.5,619.3 677.3,633.8 677.0,642.0 C 676.7,650.2 675.7,652.5 674.0,658.0 C 672.3,663.5 668.2,672.2 667.0,675.0"/>
  <path d="M 420.0,489.0 C 421.2,486.3 425.7,477.5 427.0,473.0 C 428.3,468.5 428.7,464.8 428.0,462.0 C 427.3,459.2 426.0,457.2 423.0,456.0 C 420.0,454.8 415.2,454.2 410.0,455.0 C 404.8,455.8 398.2,458.2 392.0,461.0 C 385.8,463.8 379.0,468.0 373.0,472.0 C 367.0,476.0 361.3,480.5 356.0,485.0 C 350.7,489.5 347.7,491.3 341.0,499.0 C 334.3,506.7 322.5,521.0 316.0,531.0 C 309.5,541.0 305.2,551.5 302.0,559.0 C 298.8,566.5 298.3,570.0 297.0,576.0 C 295.7,582.0 294.2,588.2 294.0,595.0 C 293.8,601.8 295.3,613.0 296.0,617.0 C 296.7,621.0 297.7,618.7 298.0,619.0"/>
  <path d="M 410.0,499.0 C 410.3,499.3 413.2,498.3 412.0,501.0 C 410.8,503.7 413.0,501.7 403.0,515.0 C 393.0,528.3 363.2,565.3 352.0,581.0 C 340.8,596.7 339.7,601.7 336.0,609.0 C 332.3,616.3 331.7,619.3 330.0,625.0 C 328.3,630.7 326.3,635.7 326.0,643.0 C 325.7,650.3 327.7,664.7 328.0,669.0"/>
  <path d="M 493.0,506.0 C 494.0,506.0 496.3,505.3 499.0,506.0 C 501.7,506.7 501.7,505.0 509.0,510.0 C 516.3,515.0 536.3,531.3 543.0,536.0 C 549.7,540.7 545.0,534.7 549.0,538.0 C 553.0,541.3 562.7,552.3 567.0,556.0 C 571.3,559.7 569.8,555.7 575.0,560.0 C 580.2,564.3 592.0,575.8 598.0,582.0 C 604.0,588.2 607.5,592.5 611.0,597.0 C 614.5,601.5 616.3,605.7 619.0,609.0 C 621.7,612.3 623.8,611.5 627.0,617.0 C 630.2,622.5 635.0,634.2 638.0,642.0 C 641.0,649.8 643.8,660.3 645.0,664.0"/>
  <path d="M 549.0,537.0 C 549.0,536.5 550.0,536.2 549.0,534.0 C 548.0,531.8 544.3,526.8 543.0,524.0 C 541.7,521.2 541.3,519.5 541.0,517.0 C 540.7,514.5 540.3,511.2 541.0,509.0 C 541.7,506.8 542.5,505.3 545.0,504.0 C 547.5,502.7 552.3,501.0 556.0,501.0 C 559.7,501.0 563.3,502.3 567.0,504.0 C 570.7,505.7 573.8,507.5 578.0,511.0 C 582.2,514.5 587.7,519.5 592.0,525.0 C 596.3,530.5 599.8,535.0 604.0,544.0 C 608.2,553.0 613.5,568.5 617.0,579.0 C 620.5,589.5 623.7,601.3 625.0,607.0 C 626.3,612.7 625.0,612.0 625.0,613.0"/>
  <path d="M 567.0,557.0 C 567.0,557.5 564.0,555.2 567.0,560.0 C 570.0,564.8 579.2,575.8 585.0,586.0 C 590.8,596.2 598.0,611.5 602.0,621.0 C 606.0,630.5 607.3,636.5 609.0,643.0 C 610.7,649.5 611.3,653.7 612.0,660.0 C 612.7,666.3 613.2,675.2 613.0,681.0 C 612.8,686.8 612.8,689.8 611.0,695.0 C 609.2,700.2 603.5,709.2 602.0,712.0"/>
  <path d="M 443.0,581.0 C 442.5,581.2 441.7,580.7 440.0,582.0 C 438.3,583.3 437.3,583.3 433.0,589.0 C 428.7,594.7 419.0,607.8 414.0,616.0 C 409.0,624.2 407.5,627.3 403.0,638.0 C 398.5,648.7 390.0,672.8 387.0,680.0 C 384.0,687.2 385.3,680.8 385.0,681.0"/>
  <path d="M 384.0,687.0 C 386.3,690.5 394.7,703.5 398.0,708.0 C 401.3,712.5 402.2,712.7 404.0,714.0 C 405.8,715.3 408.2,715.7 409.0,716.0"/>
  <path d="M 527.0,767.0 C 527.3,769.0 529.3,776.3 529.0,779.0 C 528.7,781.7 526.2,782.3 525.0,783.0 C 523.8,783.7 522.8,783.3 522.0,783.0 C 521.2,782.7 520.3,781.3 520.0,781.0"/>
  <path d="M 492.0,515.0 C 491.8,527.5 490.2,566.0 491.0,590.0 C 491.8,614.0 494.2,638.3 497.0,659.0 C 499.8,679.7 504.7,700.0 508.0,714.0 C 511.3,728.0 514.2,735.5 517.0,743.0 C 519.8,750.5 523.7,756.3 525.0,759.0"/>
</g>
</svg>