<svg xmlns="http://www.w3.org/2000/svg" viewBox="0 0 1024 1024" width="1024" height="1024">
<g fill="none" stroke="#2f4255" stroke-width="10.0" stroke-linecap="round" stroke-linejoin="round">
  <path d="M 485.2,141.8 C 485.4,140.8 486.0,138.1 486.6,136.0 C 487.2,133.9 488.1,130.7 488.8,129.1 C 489.5,127.4 490.0,127.1 490.5,126.4 C 491.1,125.7 491.3,125.5 492.2,125.0 C 493.1,124.5 494.7,123.8 496.0,123.4 C 497.3,123.1 498.5,123.1 500.0,123.1 C 501.5,123.1 503.5,123.3 505.0,123.5 C 506.5,123.8 507.2,124.0 509.0,124.8 C 510.8,125.6 511.3,125.6 516.0,128.3 C 520.7,130.9 531.8,137.8 537.0,140.7 C 542.2,143.6 529.0,135.3 547.0,145.6 C 565.0,155.9 626.8,192.0 645.0,202.5 C 663.2,212.9 651.3,205.8 656.0,208.4 C 660.7,211.1 668.7,216.0 673.0,218.4 C 677.3,220.8 677.3,220.3 682.0,222.9 C 686.7,225.4 696.7,231.1 701.0,233.7 C 705.3,236.2 706.0,236.9 708.0,238.0 C 709.9,239.2 712.0,240.0 712.8,240.4"/>
  <path d="M 482.9,144.8 C 482.1,147.5 479.0,149.3 478.1,161.0 C 477.2,172.7 477.5,205.8 477.4,214.8"/>
  <path d="M 486.2,144.9 C 487.6,145.6 493.0,148.2 495.0,149.3 C 496.9,150.4 495.2,148.4 497.8,151.4 C 500.3,154.3 506.8,162.2 510.3,167.0 C 513.9,171.8 512.1,170.2 519.1,180.0 C 526.0,189.8 545.4,217.0 551.9,226.0 C 558.5,235.0 555.3,229.8 558.3,234.0 C 561.3,238.2 567.4,247.0 569.8,251.0 C 572.3,255.0 572.2,254.9 573.2,258.0 C 574.2,261.1 575.5,267.8 575.9,269.8"/>
  <path d="M 383.2,200.8 C 384.4,198.1 388.2,187.8 390.4,184.7 C 392.5,181.6 393.6,182.7 396.0,182.4 C 398.4,182.1 395.0,178.4 405.0,183.0 C 415.0,187.7 444.4,204.8 456.0,210.4 C 467.6,215.9 471.7,215.5 474.8,216.5"/>
  <path d="M 381.1,204.2 C 380.8,205.3 379.6,200.0 379.1,211.0 C 378.6,222.0 378.3,259.2 378.0,270.0 C 377.6,280.8 376.9,274.8 376.7,275.8"/>
  <path d="M 384.2,203.7 C 385.6,204.3 391.0,206.6 393.0,207.5 C 394.9,208.4 394.9,208.4 395.8,209.1 C 396.7,209.7 397.3,210.1 398.3,211.3 C 399.3,212.4 390.1,199.6 402.0,216.0 C 413.9,232.5 457.9,293.7 469.4,310.0 C 481.0,326.3 470.7,312.0 471.5,314.0 C 472.3,316.0 473.6,319.8 474.2,322.0 C 474.9,324.2 475.2,325.5 475.5,326.9 C 475.8,328.4 475.9,330.2 476.0,330.8"/>
  <path d="M 478.0,219.2 C 478.9,220.3 481.6,224.0 483.3,225.7 C 484.9,227.4 478.2,223.5 488.0,229.4 C 497.8,235.2 530.3,254.1 542.0,260.7 C 553.7,267.3 552.7,266.9 558.0,268.8 C 563.3,270.7 571.2,271.4 573.8,271.9"/>
  <path d="M 716.2,240.7 C 719.0,239.4 728.2,234.5 733.0,233.0 C 737.8,231.4 740.5,231.0 745.0,231.3 C 749.5,231.6 755.1,232.6 760.0,234.7 C 764.9,236.9 769.6,239.5 774.7,244.2 C 779.8,248.9 786.5,256.4 790.5,263.0 C 794.6,269.6 797.4,277.2 799.0,284.0 C 800.5,290.8 800.4,298.4 799.7,304.0 C 799.0,309.6 795.5,315.5 794.6,317.8"/>
  <path d="M 282.4,259.8 C 283.4,257.3 286.7,247.4 288.4,244.4 C 290.2,241.5 290.9,242.5 293.0,242.1 C 295.1,241.7 296.7,240.7 301.0,242.1 C 305.3,243.5 309.3,245.2 319.0,250.3 C 328.7,255.5 349.9,268.8 359.0,273.2 C 368.1,277.6 371.3,276.3 373.8,276.9"/>
  <path d="M 713.9,243.2 C 713.5,248.0 710.2,261.9 711.1,272.0 C 712.1,282.1 718.3,298.5 719.8,303.8"/>
  <path d="M 279.9,263.2 C 279.5,264.0 277.9,265.9 277.3,268.0 C 276.7,270.2 276.3,261.5 276.1,276.0 C 275.9,290.5 275.9,339.0 276.0,355.0 C 276.2,371.0 276.9,368.2 277.0,372.0 C 277.1,375.8 276.8,376.2 276.4,378.0 C 276.0,379.8 275.0,382.0 274.7,382.8"/>
  <path d="M 283.2,262.8 C 284.7,263.6 290.0,266.2 292.0,267.3 C 293.9,268.4 294.0,268.6 294.9,269.4 C 295.8,270.2 295.1,269.1 297.4,272.0 C 299.8,275.0 305.6,282.2 309.1,287.0 C 312.6,291.8 315.8,297.2 318.5,301.0 C 321.2,304.8 323.3,307.2 325.3,310.0 C 327.3,312.8 327.8,314.3 330.5,318.0 C 333.1,321.7 336.4,325.3 341.1,332.0 C 345.8,338.7 350.2,345.8 358.7,358.0 C 367.3,370.2 386.4,396.3 392.4,405.0 C 398.5,413.7 394.0,407.7 394.8,410.0 C 395.5,412.3 396.5,417.3 396.9,418.8"/>
  <path d="M 577.2,273.2 C 581.0,276.6 593.7,288.7 600.0,293.4 C 606.3,298.1 612.3,300.0 614.8,301.3"/>
  <path d="M 376.7,279.2 C 377.4,280.1 379.4,283.3 380.6,284.7 C 381.8,286.1 375.3,282.4 384.1,287.6 C 392.8,292.8 420.8,308.9 433.0,315.7 C 445.2,322.5 450.2,325.6 457.0,328.4 C 463.8,331.3 471.0,332.1 473.8,332.8"/>
  <path d="M 619.2,301.6 C 622.5,300.1 633.4,294.2 639.0,292.6 C 644.6,291.1 648.0,291.3 653.0,292.3 C 658.0,293.2 662.5,294.2 669.0,298.4 C 675.5,302.5 688.0,314.2 691.8,317.4"/>
  <path d="M 616.5,304.2 C 616.1,309.7 613.3,326.9 614.2,337.0 C 615.0,347.1 620.3,360.2 621.5,364.8"/>
  <path d="M 722.2,306.7 C 727.2,310.2 742.4,323.5 752.0,327.7 C 761.6,331.9 775.2,331.1 779.8,331.8"/>
  <path d="M 694.3,320.2 C 695.4,327.2 701.4,350.6 700.9,362.0 C 700.5,373.4 693.3,384.3 691.7,388.8"/>
  <path d="M 478.2,334.2 C 481.5,337.2 491.9,347.8 498.0,352.4 C 504.1,357.1 512.0,360.5 514.8,362.1"/>
  <path d="M 517.2,362.3 C 520.5,360.6 530.9,354.0 537.0,352.2 C 543.1,350.5 548.5,350.8 554.0,352.0 C 559.5,353.2 563.7,355.1 570.0,359.5 C 576.3,363.9 588.2,375.3 591.8,378.5"/>
  <path d="M 515.4,364.2 C 515.2,369.3 513.2,385.2 514.2,395.0 C 515.3,404.8 520.6,418.2 521.9,422.8"/>
  <path d="M 624.2,367.6 C 628.8,370.9 642.6,383.1 652.0,387.1 C 661.4,391.1 676.0,390.8 680.8,391.6"/>
  <path d="M 594.2,381.2 C 595.2,388.0 600.4,410.9 600.0,422.0 C 599.5,433.1 593.1,443.5 591.7,447.8"/>
  <path d="M 271.8,385.3 C 269.7,385.9 261.6,387.8 259.0,388.6 C 256.4,389.3 262.5,386.2 256.0,389.9 C 249.5,393.5 232.3,403.3 220.0,410.4 C 207.7,417.6 191.5,427.3 182.0,432.8 C 172.5,438.3 168.3,440.3 163.0,443.4 C 157.7,446.6 153.7,449.4 150.0,451.6 C 146.3,453.7 145.5,453.6 141.0,456.2 C 136.5,458.9 126.6,465.0 123.1,467.4 C 119.5,469.9 120.8,469.5 119.7,471.0 C 118.7,472.6 117.1,475.8 116.6,476.8"/>
  <path d="M 274.6,386.2 C 275.0,391.7 276.5,407.2 276.9,419.0 C 277.4,430.8 276.9,449.9 277.1,457.0 C 277.4,464.1 277.6,460.3 278.4,461.7 C 279.2,463.1 281.3,464.7 281.9,465.2"/>
  <path d="M 786.2,389.1 C 787.0,389.3 788.6,389.5 791.0,390.2 C 793.5,390.8 798.5,392.3 801.0,393.1 C 803.5,393.9 797.8,390.5 806.0,395.1 C 814.2,399.7 840.8,415.6 850.0,420.9 C 859.2,426.2 856.8,424.5 861.0,426.9 C 865.2,429.3 870.0,432.5 875.0,435.4 C 880.0,438.2 886.9,441.5 891.0,443.9 C 895.1,446.3 898.0,448.3 899.9,449.5 C 901.8,450.8 901.7,450.8 902.4,451.5 C 903.2,452.3 903.5,452.7 904.3,454.1 C 905.2,455.5 907.0,458.9 907.5,459.8"/>
  <path d="M 692.2,391.1 C 693.1,391.8 696.4,394.2 697.9,395.5 C 699.4,396.8 698.4,395.3 701.2,399.0 C 704.0,402.8 711.0,413.0 714.8,418.0 C 718.5,423.0 721.0,425.3 723.7,429.0 C 726.3,432.7 728.5,436.8 730.8,440.0 C 733.1,443.2 733.0,442.0 737.3,448.0 C 741.6,454.0 752.8,469.5 756.7,476.0 C 760.6,482.5 759.8,484.5 760.9,486.9 C 761.9,489.4 762.7,490.2 763.0,490.8"/>
  <path d="M 783.6,391.2 C 783.5,395.2 783.2,409.4 782.9,415.0 C 782.7,420.6 782.0,420.2 782.0,425.0 C 782.0,429.8 782.9,439.2 782.9,444.0 C 782.9,448.8 782.2,447.5 782.0,454.0 C 781.8,460.5 782.0,477.5 781.7,483.0 C 781.4,488.4 780.8,485.6 780.1,486.5 C 779.5,487.4 779.2,487.7 777.8,488.4 C 776.5,489.2 773.9,490.4 772.0,491.0 C 770.1,491.6 767.2,491.8 766.2,492.0"/>
  <path d="M 682.0,394.2 C 682.0,404.3 681.8,443.6 682.0,455.0 C 682.3,466.4 683.3,461.5 683.6,462.8"/>
  <path d="M 395.8,421.7 C 391.3,423.4 378.8,428.1 369.0,432.0 C 359.2,436.0 343.8,442.6 337.0,445.3 C 330.2,448.1 334.5,445.9 328.0,448.5 C 321.5,451.0 304.5,458.1 298.0,460.5 C 291.5,462.9 291.2,462.2 289.1,462.9 C 286.9,463.7 285.8,464.7 285.2,465.0"/>
  <path d="M 399.2,421.6 C 400.5,422.5 401.7,420.9 407.3,427.2 C 412.9,433.4 427.4,453.6 433.0,459.1 C 438.6,464.6 435.2,461.4 441.0,460.4 C 446.8,459.4 463.3,454.3 467.8,453.1"/>
  <path d="M 524.2,425.7 C 529.2,429.1 544.9,442.1 554.0,446.3 C 563.1,450.5 574.7,450.2 578.8,451.0"/>
  <path d="M 592.2,450.0 C 593.3,450.8 597.0,453.4 598.6,454.7 C 600.2,456.0 598.1,453.4 601.7,458.1 C 605.3,462.8 612.0,471.5 620.3,483.0 C 628.6,494.5 645.1,518.0 651.2,527.0 C 657.3,536.0 655.3,532.9 656.9,537.0 C 658.5,541.1 660.2,549.3 660.9,551.8"/>
  <path d="M 581.0,453.2 C 581.2,455.3 581.8,459.0 582.0,466.0 C 582.1,473.0 582.1,487.8 582.0,495.0 C 581.8,502.2 581.0,504.7 581.0,509.0 C 581.0,513.3 581.7,518.8 581.8,520.8"/>
  <path d="M 470.7,454.2 C 471.2,455.7 467.9,453.0 474.2,463.0 C 480.4,473.0 501.4,504.2 508.1,514.0 C 514.8,523.8 511.8,518.3 514.3,522.0 C 516.8,525.7 520.0,531.2 523.4,536.0 C 526.7,540.8 531.0,546.3 534.2,551.0 C 537.4,555.7 538.1,557.2 542.7,564.0 C 547.3,570.8 558.3,586.8 561.9,592.0 C 565.5,597.1 563.4,593.9 564.3,594.7 C 565.1,595.5 565.1,595.9 567.0,596.8 C 569.0,597.8 574.4,600.0 575.8,600.6"/>
  <path d="M 906.8,463.1 C 906.0,463.7 906.3,464.0 902.0,466.7 C 897.7,469.4 885.7,476.6 881.0,479.3 C 876.3,482.1 876.3,481.6 874.0,482.9 C 871.7,484.3 869.5,485.9 867.0,487.3 C 864.5,488.8 865.3,487.9 859.0,491.6 C 852.7,495.4 838.7,504.1 829.0,509.8 C 819.3,515.4 807.2,521.9 801.0,525.5 C 794.8,529.0 795.5,529.2 792.0,531.2 C 788.5,533.2 783.7,535.5 780.0,537.6 C 776.3,539.8 773.3,542.1 770.0,543.9 C 766.7,545.8 763.6,547.5 760.0,548.8 C 756.4,550.1 750.2,551.3 748.2,551.8"/>
  <path d="M 910.2,462.4 C 910.7,462.6 912.3,463.2 913.1,463.6 C 913.9,463.9 914.4,464.1 915.0,464.5 C 915.6,464.9 916.2,465.3 916.8,465.7 C 917.3,466.2 917.8,466.7 918.2,467.3 C 918.7,467.8 919.0,468.5 919.2,469.1 C 919.5,469.7 919.6,470.4 919.8,471.0 C 919.9,471.7 919.9,449.0 919.9,473.0 C 920.0,497.0 920.0,590.8 920.0,615.0 C 919.9,639.2 919.9,617.0 919.7,618.0 C 919.6,619.0 919.3,620.1 919.0,620.9 C 918.7,621.6 918.4,622.1 918.0,622.6 C 917.6,623.2 917.3,623.6 916.6,624.2 C 915.9,624.8 915.4,625.2 913.9,626.2 C 912.5,627.1 910.7,628.3 908.0,629.8 C 905.3,631.3 901.0,633.4 898.0,635.1 C 895.0,636.9 892.7,638.5 890.0,640.2 C 887.3,641.8 885.7,642.8 882.0,645.0 C 878.3,647.1 872.8,650.2 868.0,653.0 C 863.2,655.9 860.7,657.5 853.0,662.0 C 845.3,666.5 829.8,675.4 822.0,680.0 C 814.2,684.6 823.7,679.2 806.0,689.6 C 788.3,699.9 733.5,731.8 716.0,742.0 C 698.5,752.3 705.5,748.3 701.0,751.0 C 696.5,753.6 692.2,756.0 689.0,757.9 C 685.8,759.7 685.0,760.4 682.0,762.1 C 679.0,763.9 674.8,766.2 671.0,768.4 C 667.2,770.7 663.7,772.8 659.0,775.6 C 654.3,778.3 646.8,782.6 643.0,784.7 C 639.2,786.9 639.2,786.5 636.0,788.4 C 632.8,790.3 629.5,792.7 624.0,796.0 C 618.5,799.3 607.8,805.4 603.0,808.2 C 598.2,810.9 597.8,810.8 595.0,812.4 C 592.2,814.1 597.8,811.1 586.0,818.1 C 574.2,825.1 534.8,848.2 524.0,854.5 C 513.2,860.8 522.2,855.5 521.0,856.0 C 519.8,856.5 519.0,856.9 517.0,857.5 C 515.0,858.0 511.0,858.9 509.1,859.3 C 507.1,859.7 505.8,859.8 505.2,859.9"/>
  <path d="M 686.2,465.3 C 689.0,466.1 693.7,465.4 703.0,469.8 C 712.3,474.1 732.0,487.5 742.0,491.6 C 752.0,495.6 759.7,493.5 763.2,493.9"/>
  <path d="M 284.2,468.2 C 284.9,470.1 285.9,476.4 288.7,479.6 C 291.5,482.9 297.9,485.2 300.9,487.9 C 303.9,490.6 305.5,494.5 306.4,495.8"/>
  <path d="M 113.8,479.5 C 113.2,479.7 110.9,480.5 110.0,480.8 C 109.0,481.2 108.9,481.2 108.2,481.7 C 107.5,482.1 106.4,482.9 105.8,483.5 C 105.2,484.1 105.0,484.6 104.7,485.2 C 104.4,485.8 104.1,486.4 103.9,487.0 C 103.7,487.7 103.5,488.2 103.4,489.0 C 103.3,489.8 103.1,467.8 103.1,492.0 C 103.0,516.2 103.0,609.8 103.0,634.0 C 103.0,658.2 103.0,636.0 103.2,637.0 C 103.4,638.0 103.7,639.2 104.0,640.0 C 104.3,640.8 104.5,641.2 105.0,641.9 C 105.6,642.7 106.6,643.9 107.3,644.6 C 107.9,645.3 108.3,645.5 109.1,646.1 C 109.9,646.7 106.5,644.8 112.0,648.0 C 117.5,651.1 134.3,660.3 142.0,664.8 C 149.7,669.2 153.7,672.0 158.0,674.5 C 162.3,677.0 158.5,674.4 168.0,679.9 C 177.5,685.4 202.8,700.5 215.0,707.5 C 227.2,714.6 234.3,718.4 241.0,722.3 C 247.7,726.2 250.0,727.9 255.0,730.8 C 260.0,733.8 266.8,737.5 271.0,739.9 C 275.2,742.3 277.3,743.7 280.0,745.2 C 282.7,746.8 281.3,745.8 287.0,749.1 C 292.7,752.3 307.5,761.0 314.0,764.7 C 320.5,768.4 322.2,769.1 326.0,771.3 C 329.8,773.6 334.0,776.4 337.0,778.2 C 340.0,780.0 340.7,780.0 344.0,782.0 C 347.3,783.9 353.0,787.6 357.0,789.8 C 361.0,792.1 364.0,793.2 368.0,795.5 C 372.0,797.8 375.3,800.3 381.0,803.6 C 386.7,806.9 397.2,812.6 402.0,815.4 C 406.8,818.2 405.0,817.3 410.0,820.3 C 415.0,823.2 424.3,828.4 432.0,832.9 C 439.7,837.3 450.7,844.0 456.0,847.1 C 461.3,850.2 460.7,849.5 464.0,851.4 C 467.3,853.3 473.2,856.8 476.0,858.4 C 478.8,860.0 479.5,860.3 481.0,861.0 C 482.5,861.7 483.7,862.2 485.0,862.7 C 486.3,863.1 487.5,863.5 489.0,863.9 C 490.5,864.2 492.7,864.7 494.0,864.9 C 495.3,865.1 496.2,865.1 497.0,865.0 C 497.8,864.9 498.3,864.8 498.9,864.5 C 499.5,864.3 500.0,864.0 500.6,863.6 C 501.1,863.2 502.0,862.3 502.2,862.1"/>
  <path d="M 117.2,481.1 C 119.5,482.7 118.2,483.1 131.0,490.7 C 143.8,498.2 181.8,519.5 194.0,526.5 C 206.2,533.6 201.6,531.4 203.9,533.1 C 206.3,534.9 206.7,535.0 208.0,537.1 C 209.4,539.3 210.7,543.7 211.8,545.9 C 213.0,548.1 214.4,549.4 215.0,550.1"/>
  <path d="M 308.2,497.1 C 310.7,497.7 319.2,499.6 323.0,500.7 C 326.8,501.9 324.5,500.7 331.0,504.2 C 337.5,507.7 354.8,517.6 362.0,521.7 C 369.2,525.9 370.8,527.5 374.0,529.3 C 377.2,531.1 375.3,529.5 381.0,532.6 C 386.7,535.8 400.8,543.8 408.0,548.0 C 415.2,552.2 419.3,555.2 424.0,557.9 C 428.7,560.5 426.8,558.8 436.0,564.0 C 445.2,569.3 466.2,582.0 479.0,589.3 C 491.8,596.7 504.8,603.3 513.0,608.0 C 521.2,612.6 521.5,613.7 528.0,617.3 C 534.5,620.9 547.2,627.4 552.0,629.7 C 556.8,632.0 555.2,630.8 557.0,631.0 C 558.8,631.2 561.0,631.1 563.0,630.7 C 565.0,630.3 567.2,629.4 569.0,628.5 C 570.7,627.6 572.3,626.7 573.5,625.4 C 574.7,624.1 575.4,622.9 576.2,621.0 C 577.0,619.1 577.8,616.2 578.3,614.0 C 578.7,611.8 578.9,609.8 578.9,608.0 C 579.0,606.2 578.5,604.0 578.4,603.2"/>
  <path d="M 306.3,498.2 C 305.4,499.4 303.8,503.1 300.9,505.6 C 298.0,508.2 300.5,506.6 289.0,513.3 C 277.5,520.0 244.0,539.6 232.0,545.8 C 220.0,552.0 219.7,549.7 217.2,550.5"/>
  <path d="M 685.2,517.0 C 689.7,518.7 702.0,521.3 712.0,527.0 C 722.0,532.6 739.6,546.8 745.1,550.8"/>
  <path d="M 682.6,519.2 C 682.1,523.8 683.1,541.0 679.8,546.7 C 676.6,552.4 666.0,552.4 663.2,553.5"/>
  <path d="M 584.2,523.2 C 587.2,524.0 592.5,523.3 602.0,527.7 C 611.5,532.0 631.5,544.9 641.0,549.3 C 650.5,553.6 655.8,553.0 658.8,553.8"/>
  <path d="M 581.7,525.2 C 581.6,527.2 581.0,532.7 581.0,537.0 C 581.1,541.3 581.8,542.0 582.0,551.0 C 582.1,560.0 582.1,583.5 582.0,591.0 C 581.8,598.5 581.7,594.5 581.2,595.9 C 580.7,597.4 579.4,599.2 579.0,599.8"/>
  <path d="M 215.6,552.2 C 215.5,552.8 215.1,553.3 215.4,556.1 C 215.6,558.9 216.0,563.8 217.2,569.0 C 218.3,574.2 220.6,580.3 222.4,587.0 C 224.3,593.7 226.7,604.0 228.2,609.0 C 229.6,614.0 230.4,615.2 231.2,617.0 C 232.0,618.8 232.3,619.0 233.0,619.8 C 233.7,620.7 234.1,621.4 235.3,622.3 C 236.4,623.3 223.4,615.9 240.0,625.6 C 256.6,635.2 317.5,670.1 335.0,680.3 C 352.5,690.4 341.8,684.8 345.0,686.7 C 348.2,688.5 350.7,689.5 354.0,691.3 C 357.3,693.2 361.5,696.0 365.0,697.9 C 368.5,699.8 372.0,701.4 375.0,702.5 C 378.0,703.6 381.5,704.2 382.8,704.5"/>
  <path d="M 745.3,554.2 C 745.0,554.7 744.2,556.2 743.6,557.1 C 742.9,558.0 742.3,558.9 741.5,559.8 C 740.8,560.6 739.8,561.4 738.9,562.2 C 738.0,562.9 740.8,561.3 736.0,564.1 C 731.2,566.9 715.8,575.6 710.0,579.0 C 704.2,582.4 718.7,574.2 701.0,584.6 C 683.3,594.9 621.7,630.7 604.0,641.1 C 586.3,651.4 598.5,644.5 595.0,646.6 C 591.5,648.6 587.3,650.8 583.0,653.3 C 578.7,655.8 573.5,659.1 569.0,661.7 C 564.5,664.3 559.7,666.9 556.0,669.0 C 552.3,671.2 551.7,671.8 547.0,674.6 C 542.3,677.3 533.3,682.4 528.0,685.6 C 522.7,688.7 518.0,691.7 515.0,693.5 C 512.0,695.2 512.1,695.1 510.0,696.1 C 507.9,697.1 503.5,698.9 502.2,699.4"/>
  <path d="M 415.2,655.2 C 416.5,655.6 421.0,656.8 423.0,657.5 C 425.0,658.1 422.5,656.8 427.0,659.2 C 431.5,661.7 440.7,666.7 450.0,672.0 C 459.3,677.4 476.2,687.5 483.0,691.5 C 489.8,695.5 488.2,694.6 491.0,695.9 C 493.8,697.2 498.3,698.8 499.8,699.3"/>
  <path d="M 501.0,701.2 C 501.0,726.3 501.0,826.4 501.1,852.0 C 501.1,877.6 501.3,854.2 501.4,854.9 C 501.5,855.7 501.6,856.1 501.8,856.8 C 501.9,857.4 502.3,858.5 502.4,858.8"/>
</g>
<g fill="none" stroke="#2072bd" stroke-width="52.7" stroke-linecap="round" stroke-linejoin="round">
  <path d="M 908.6,477.2 C 908.1,478.5 908.7,477.9 905.5,485.0 C 902.2,492.1 893.7,509.8 889.0,520.0 C 884.4,530.2 880.9,538.3 877.3,546.0 C 873.8,553.7 869.6,562.2 867.7,566.0 C 865.8,569.8 866.6,568.0 866.0,568.9 C 865.3,569.8 864.5,570.8 863.7,571.6 C 862.9,572.4 862.4,572.7 861.0,573.7 C 859.5,574.7 857.5,576.0 855.0,577.4 C 852.5,578.8 848.5,580.7 846.0,582.1 C 843.5,583.5 842.0,584.8 840.0,586.0 C 838.0,587.1 837.7,586.9 834.0,589.1 C 830.3,591.3 825.3,594.7 818.0,599.0 C 810.7,603.3 796.0,611.3 790.0,614.9 C 784.0,618.4 786.7,617.3 782.0,620.0 C 777.3,622.8 766.7,628.4 762.0,631.1 C 757.3,633.9 759.2,633.5 754.0,636.6 C 748.8,639.7 736.3,646.6 731.0,649.7 C 725.7,652.9 725.5,653.5 722.0,655.4 C 718.5,657.3 714.3,658.9 710.0,661.3 C 705.7,663.7 699.5,667.9 696.0,670.0 C 692.5,672.0 692.0,671.9 689.0,673.8 C 686.0,675.6 682.8,678.3 678.0,681.1 C 673.2,683.9 667.0,686.6 660.0,690.7 C 653.0,694.7 642.5,701.4 636.0,705.2 C 629.5,709.0 624.8,711.2 621.0,713.5 C 617.2,715.7 616.0,717.1 613.0,718.9 C 610.0,720.7 608.3,720.9 603.0,724.1 C 597.7,727.3 587.2,734.3 581.0,737.9 C 574.8,741.5 569.8,743.6 566.0,745.8 C 562.2,748.0 559.8,749.9 558.2,751.0 C 556.6,752.1 557.2,751.8 556.6,752.5 C 556.0,753.1 556.8,751.0 554.8,755.1 C 552.7,759.2 546.8,771.5 544.3,777.0 C 541.7,782.5 542.4,781.8 539.7,788.0 C 536.9,794.2 530.3,808.3 527.7,814.0 C 525.0,819.7 525.9,816.9 523.6,822.0 C 521.2,827.1 515.1,841.0 513.4,844.8"/>
</g>
<g fill="none" stroke="#50a9f8" stroke-width="36.0" stroke-linecap="round" stroke-linejoin="round">
  <path d="M 115.4,497.2 C 115.9,498.3 116.0,499.0 118.3,504.0 C 120.6,509.0 126.8,521.8 129.2,527.0 C 131.6,532.2 131.5,532.3 132.8,535.0 C 134.0,537.7 135.6,540.7 136.7,543.0 C 137.8,545.3 138.3,546.8 139.3,549.0 C 140.3,551.2 141.6,553.7 142.7,556.0 C 143.8,558.3 144.6,560.5 145.8,563.0 C 147.0,565.5 148.3,568.0 149.7,571.0 C 151.1,574.0 153.2,578.7 154.2,581.0 C 155.2,583.3 155.2,583.3 155.7,585.0 C 156.3,586.7 156.9,589.5 157.4,591.0 C 157.9,592.5 158.0,592.8 158.7,594.0 C 159.3,595.2 159.5,595.5 161.3,598.0 C 163.1,600.5 167.3,606.0 169.5,609.0 C 171.7,612.0 172.0,612.7 174.5,616.0 C 177.0,619.3 180.8,624.3 184.3,629.0 C 187.7,633.7 192.8,640.9 195.2,644.0 C 197.5,647.1 197.2,646.5 198.3,647.7 C 199.5,648.8 200.6,649.8 202.0,650.9 C 203.5,652.0 204.0,652.5 207.0,654.4 C 210.0,656.2 204.2,652.9 220.0,662.1 C 235.8,671.3 279.7,696.5 302.0,709.4 C 324.3,722.4 344.7,734.4 354.0,739.7 C 363.3,745.1 356.7,741.2 358.0,741.8 C 359.3,742.4 360.7,742.8 362.0,743.2 C 363.3,743.7 355.5,742.0 366.0,744.3 C 376.5,746.7 414.5,755.2 425.0,757.5 C 435.5,759.8 427.3,757.9 429.0,757.9 C 430.7,758.0 433.7,757.9 435.0,757.8 C 436.3,757.8 436.3,757.7 437.0,757.6 C 437.6,757.4 438.0,757.4 438.9,757.1 C 439.9,756.7 442.2,755.8 442.8,755.6"/>
  <path d="M 417.3,667.2 C 417.7,668.3 418.0,670.2 419.2,674.0 C 420.5,677.8 423.4,685.7 424.8,690.0 C 426.1,694.3 424.6,690.5 427.5,700.0 C 430.5,709.5 439.7,738.0 442.5,747.0 C 445.2,756.0 443.7,752.7 443.9,753.8"/>
  <path d="M 444.7,756.2 C 445.0,756.8 444.9,756.3 446.7,760.1 C 448.5,763.9 452.0,771.8 455.3,779.0 C 458.7,786.2 462.3,793.7 466.7,803.0 C 471.0,812.3 477.6,826.9 481.3,835.0 C 485.1,843.1 488.0,849.0 489.3,851.8"/>
</g>
<g fill="none" stroke="#f0d9ba" stroke-width="33.6" stroke-linecap="round" stroke-linejoin="round">
  <path d="M 702.4,554.2 C 700.8,556.1 697.4,561.9 693.0,565.5 C 688.6,569.1 684.0,572.8 676.0,575.7 C 668.0,578.5 654.8,581.3 645.0,582.7 C 635.2,584.1 621.8,583.8 617.2,584.0"/>
  <path d="M 236.2,566.8 C 240.8,569.2 258.2,578.1 264.0,580.9 C 269.8,583.6 268.7,582.8 271.0,583.3 C 273.3,583.8 271.0,583.9 278.0,584.0 C 285.0,584.1 306.3,583.9 313.0,584.0 C 319.7,584.2 316.2,584.2 318.0,584.7 C 319.8,585.3 318.5,584.4 324.0,587.4 C 329.5,590.5 346.3,600.5 350.8,603.1"/>
  <path d="M 614.5,586.2 C 613.1,589.5 608.4,600.2 605.7,606.0 C 603.0,611.8 600.3,617.5 598.4,621.0 C 596.5,624.5 595.8,624.9 594.2,626.9 C 592.6,628.8 590.5,630.9 588.7,632.6 C 586.8,634.2 584.8,635.6 583.0,636.8 C 581.2,638.0 579.7,639.0 578.0,639.9 C 576.3,640.9 575.0,641.5 573.0,642.4 C 571.0,643.2 570.0,644.0 566.0,645.1 C 562.0,646.3 553.8,648.3 549.0,649.3 C 544.2,650.3 544.2,650.6 537.0,650.9 C 529.8,651.2 512.2,651.1 506.0,651.0 C 499.8,650.9 501.8,650.9 500.0,650.5 C 498.2,650.0 504.3,653.6 495.0,648.4 C 485.7,643.1 453.5,624.2 444.0,618.9 C 434.5,613.5 450.2,619.2 438.0,616.3 C 425.8,613.3 382.8,603.9 371.0,601.3 C 359.2,598.8 368.5,601.1 367.0,601.0 C 365.5,601.0 363.6,601.1 362.0,601.3 C 360.4,601.5 358.4,601.9 357.1,602.2 C 355.8,602.5 354.7,603.1 354.2,603.3"/>
  <path d="M 353.6,606.2 C 354.1,608.0 355.4,612.5 356.8,617.0 C 358.3,621.5 360.4,627.3 362.2,633.0 C 364.0,638.7 366.1,646.3 367.5,651.0 C 369.0,655.7 369.8,657.3 371.0,661.0 C 372.1,664.7 372.7,668.0 374.2,673.0 C 375.8,678.0 379.3,687.8 380.3,690.8"/>
</g>
<g fill="none" stroke="#2b83d2" stroke-width="21.6" stroke-linecap="round" stroke-linejoin="round">
  <path d="M 264.3,399.2 C 264.0,399.8 263.2,401.1 262.3,403.1 C 261.4,405.0 264.1,399.5 258.8,411.0 C 253.5,422.5 235.7,461.1 230.7,471.9 C 225.7,482.7 229.0,475.2 228.7,475.8"/>
  <path d="M 822.2,459.0 C 831.3,459.0 866.0,459.1 877.0,459.0 C 888.0,458.8 885.2,458.2 888.0,458.1 C 890.8,458.1 892.8,458.7 893.8,458.8"/>
  <path d="M 819.3,461.2 C 816.8,466.7 808.1,486.6 804.0,494.0 C 799.9,501.4 799.3,502.1 794.9,505.9 C 790.6,509.7 784.2,514.2 778.0,516.8 C 771.8,519.5 762.3,521.0 758.0,521.9 C 753.7,522.7 754.2,522.4 752.0,522.0 C 749.8,521.6 752.7,523.5 745.0,519.5 C 737.3,515.5 713.4,502.3 706.0,497.9 C 698.7,493.5 702.9,496.1 700.9,492.9 C 699.0,489.8 695.4,481.5 694.3,479.2"/>
  <path d="M 131.2,477.0 C 137.7,477.0 162.0,477.1 170.0,477.0 C 178.0,476.9 175.7,476.3 179.0,476.3 C 182.3,476.3 186.7,477.0 190.0,477.0 C 193.3,477.0 192.9,476.3 199.0,476.3 C 205.1,476.3 222.2,476.9 226.8,477.0"/>
  <path d="M 231.2,481.2 C 235.3,483.5 245.6,492.6 256.0,495.2 C 266.4,497.9 287.5,496.7 293.8,497.0"/>
  <path d="M 229.0,482.2 C 228.9,487.2 229.7,503.2 228.7,512.0 C 227.6,520.8 223.7,531.0 222.7,534.8"/>
</g>
</svg>