<?xml version="1.0" standalone="no"?>
<!DOCTYPE svg PUBLIC "-//W3C//DTD SVG 20010904//EN"
 "http://www.w3.org/TR/2001/REC-SVG-20010904/DTD/svg10.dtd">
<svg version="1.0" xmlns="http://www.w3.org/2000/svg"
 width="1024.000000pt" height="1024.000000pt" viewBox="0 0 1024.000000 1024.000000"
 preserveAspectRatio="xMidYMid meet">
<metadata>
Created by potrace 1.16, written by Peter Selinger 2001-2019
</metadata>
<g transform="translate(0.000000,1024.000000) scale(0.100000,-0.100000)"
fill="#000000" stroke="none">
<path d="M6502 8132 c-14 -10 -145 -728 -140 -771 4 -34 51 -53 74 -30 22 23
152 764 138 787 -12 19 -52 27 -72 14z M5168 7969 c-10 -5 -18 -21 -18 -35 0
-22 146 -356 282 -646 41 -88 59 -105 97 -93 36 11 34 41 -7 132 -238 528
-285 630 -300 641 -19 14 -31 15 -54 1z M7644 7468 c-145 -150 -427 -455 -438
-475 -5 -9 -4 -25 3 -40 9 -20 17 -24 43 -21 33 3 29 -1 443 442 61 65 114
126 119 137 14 29 -8 69 -37 69 -17 0 -55 -32 -133 -112z M6060 7254 c-238
-30 -462 -106 -629 -214 l-63 -41 -92 39 c-215 92 -350 121 -587 129 -272 9
-452 -28 -676 -137 -372 -182 -637 -516 -718 -905 -9 -44 -17 -81 -19 -82 -1
-2 -36 5 -77 14 -116 26 -299 22 -423 -11 -351 -91 -629 -357 -726 -697 -28
-95 -38 -289 -20 -397 43 -271 219 -506 475 -635 75 -37 202 -75 296 -87 59
-8 782 -10 2444 -8 l2360 3 80 23 c261 73 434 232 490 449 19 73 19 220 0 302
-43 180 -204 363 -397 450 -70 32 -171 61 -211 61 -14 0 -28 3 -30 8 -3 4 2
43 10 87 20 113 12 407 -16 530 -125 564 -554 996 -1094 1100 -81 16 -309 27
-377 19z m297 -105 c181 -24 376 -100 538 -209 103 -70 236 -199 308 -298 111
-154 202 -358 242 -542 23 -105 31 -339 15 -453 -17 -126 -17 -127 -94 -127
l-64 0 -22 72 c-108 355 -448 624 -857 679 -104 14 -278 7 -382 -16 -41 -8
-75 -14 -76 -13 0 2 -9 29 -19 62 -27 89 -108 241 -180 336 -69 92 -185 208
-267 266 l-50 37 31 18 c255 156 589 227 877 188z m-1487 -94 c253 -38 469
-133 648 -286 128 -109 255 -285 321 -444 40 -95 47 -125 30 -125 -20 0 -138
-62 -204 -105 -75 -50 -155 -123 -155 -143 0 -19 29 -52 46 -52 7 0 51 30 97
68 98 78 217 140 343 179 83 25 102 27 279 27 155 1 203 -3 258 -18 184 -49
317 -126 453 -261 83 -83 108 -115 146 -190 25 -49 53 -113 61 -141 l15 -51
-85 -23 c-238 -63 -378 -198 -343 -330 36 -136 263 -162 403 -47 68 55 127
188 127 284 l0 33 95 0 c170 0 306 -39 430 -121 300 -201 354 -572 118 -806
-105 -104 -234 -161 -408 -182 -120 -15 -4562 -15 -4687 -1 -159 18 -284 60
-399 135 -324 209 -438 632 -269 992 116 247 329 428 595 504 106 31 337 34
428 6 57 -17 57 -18 57 -57 0 -53 26 -174 49 -226 26 -58 95 -130 138 -145 46
-15 113 -7 147 17 41 30 70 97 62 147 -16 95 -115 212 -236 279 -42 23 -60 39
-60 53 0 38 58 240 90 309 176 392 537 662 965 725 97 14 342 12 445 -4z
m-1428 -1203 c69 -51 128 -130 128 -169 0 -44 -17 -63 -57 -63 -46 0 -93 48
-121 123 -24 64 -38 157 -23 157 5 0 38 -21 73 -48z m3773 -474 c-26 -133 -90
-215 -183 -238 -63 -15 -115 -7 -142 22 -40 43 -14 97 77 159 51 36 185 88
226 89 27 0 28 -2 22 -32z M8030 6253 c-201 -36 -371 -70 -377 -75 -21 -17
-15 -56 10 -73 21 -14 32 -14 103 0 43 8 214 37 379 65 304 52 335 61 335 101
0 26 -28 49 -58 48 -15 -1 -191 -31 -392 -66z M4007 4100 c-30 -23 -171 -297
-210 -405 -69 -194 -55 -339 41 -438 58 -61 104 -80 203 -85 72 -4 93 -1 137
18 63 27 132 99 156 162 25 63 18 187 -14 288 -36 112 -194 423 -231 454 -37
31 -49 32 -82 6z m111 -232 c87 -176 132 -298 139 -377 4 -59 2 -72 -24 -121
-57 -108 -197 -143 -295 -74 -93 66 -112 177 -58 343 31 96 159 363 170 356 4
-2 34 -59 68 -127z M5053 4109 c-28 -10 -51 -45 -117 -177 -177 -353 -194
-545 -62 -677 61 -61 121 -85 216 -85 123 0 209 49 265 151 27 49 30 63 29
144 0 111 -33 213 -129 407 -113 225 -142 259 -202 237z m212 -502 c38 -117
34 -208 -11 -264 -59 -75 -171 -105 -247 -67 -167 84 -164 260 9 606 25 51 51
99 57 107 9 11 28 -20 88 -142 42 -85 89 -194 104 -240z M6033 4068 c-44 -72
-161 -318 -190 -403 -24 -67 -28 -96 -28 -185 0 -89 3 -111 22 -146 34 -64 67
-97 125 -129 44 -24 68 -30 139 -33 72 -4 93 -1 137 18 59 25 133 99 157 156
32 78 15 225 -42 367 -37 91 -148 307 -183 355 -27 37 -35 42 -70 42 -36 0
-42 -4 -67 -42z m161 -237 c80 -162 126 -293 126 -357 0 -149 -153 -255 -288
-199 -120 51 -158 185 -102 355 25 76 164 370 175 370 3 0 43 -76 89 -169z"/>
</g>
</svg>
