<svg xmlns="http://www.w3.org/2000/svg" viewBox="0 0 1024 1024" width="1024" height="1024">
<g fill="#000000" fill-rule="evenodd" stroke="none">
  <path d="M 611.0,298.0 C 608.4,300.6 604.0,297.5 601.0,299.0 C 594.3,302.3 584.7,299.7 578.0,303.0 C 567.4,308.3 555.7,311.6 545.0,317.0 C 542.0,318.5 538.2,325.1 534.0,323.0 C 523.0,317.5 510.6,315.3 500.0,310.0 C 493.9,307.0 484.1,311.0 478.0,308.0 C 472.6,305.3 453.4,305.3 448.0,308.0 C 443.5,310.3 426.3,308.9 420.0,312.0 C 411.0,316.5 401.1,319.5 392.0,324.0 C 384.7,327.7 379.4,335.3 372.0,339.0 C 367.2,341.4 359.4,349.2 357.0,354.0 C 354.2,359.7 347.8,363.4 345.0,369.0 C 339.3,380.4 335.6,392.7 330.0,404.0 C 328.7,406.5 329.5,417.7 327.0,419.0 C 325.1,419.9 319.6,417.8 318.0,417.0 C 315.9,415.9 310.4,417.0 308.0,417.0 C 303.3,417.0 288.4,414.8 284.0,417.0 C 276.1,421.0 266.0,421.0 258.0,425.0 C 250.3,428.8 243.8,435.1 236.0,439.0 C 226.4,443.8 216.1,461.8 212.0,470.0 C 204.5,484.9 202.0,497.8 202.0,516.0 C 202.0,521.2 200.8,529.6 203.0,534.0 C 206.1,540.2 206.9,547.8 210.0,554.0 C 211.3,556.6 213.7,558.4 215.0,561.0 C 217.7,566.4 224.8,576.9 231.0,580.0 C 240.0,584.5 248.1,590.6 257.0,595.0 C 270.2,601.6 289.1,601.0 305.0,601.0 C 331.7,601.0 358.3,601.0 385.0,601.0 C 477.0,601.0 569.0,601.0 661.0,601.0 C 685.3,601.0 709.7,601.0 734.0,601.0 C 749.2,601.0 767.3,601.3 780.0,595.0 C 814.1,578.0 828.5,544.0 811.0,509.0 C 807.9,502.8 801.4,491.7 794.0,488.0 C 788.4,485.2 783.6,480.8 778.0,478.0 C 773.4,475.7 767.7,475.3 763.0,473.0 C 760.8,471.9 753.2,473.5 752.0,471.0 C 751.2,469.4 754.1,457.9 755.0,456.0 C 756.3,453.5 755.0,446.9 755.0,444.0 C 755.0,435.5 755.1,413.3 752.0,407.0 C 748.5,399.9 748.5,391.1 745.0,384.0 C 741.1,376.2 736.9,368.7 733.0,361.0 C 728.6,352.2 720.4,344.4 713.0,337.0 C 684.7,308.7 652.0,298.0 612.0,298.0 Z M 716.0,483.0 C 721.2,477.8 721.4,488.2 720.0,491.0 C 715.5,500.0 709.9,510.0 698.0,510.0 C 695.0,510.0 689.5,509.9 688.0,507.0 C 682.6,496.2 705.8,483.0 715.0,483.0 Z M 335.0,435.0 C 337.9,432.1 341.4,437.7 344.0,439.0 C 348.6,441.3 359.1,451.9 356.0,458.0 C 353.2,463.5 345.0,461.9 342.0,456.0 C 339.2,450.3 335.0,442.7 335.0,436.0 Z M 454.0,316.0 C 455.9,314.1 460.4,315.0 463.0,315.0 C 470.6,315.0 482.5,314.7 489.0,318.0 C 493.1,320.1 505.7,320.3 511.0,323.0 C 517.7,326.4 533.0,331.0 535.0,332.0 C 537.7,333.3 538.0,337.5 541.0,339.0 C 551.4,344.2 564.8,357.6 570.0,368.0 C 573.9,375.8 579.2,384.5 584.0,394.0 C 584.8,395.6 588.0,399.9 587.0,402.0 C 585.4,405.3 578.7,405.6 576.0,407.0 C 569.9,410.1 561.9,415.1 557.0,420.0 C 554.1,422.9 548.5,427.1 551.0,432.0 C 553.3,436.5 560.3,430.7 562.0,429.0 C 571.3,419.7 584.7,413.6 596.0,408.0 C 600.5,405.8 607.5,408.2 612.0,406.0 C 615.9,404.1 627.4,403.2 631.0,405.0 C 636.8,407.9 646.1,404.1 652.0,407.0 C 658.7,410.3 666.3,411.7 673.0,415.0 C 679.4,418.2 684.6,423.8 691.0,427.0 C 702.5,432.7 711.2,451.5 716.0,461.0 C 717.1,463.2 721.3,470.4 720.0,473.0 C 718.6,475.7 713.2,472.9 711.0,474.0 C 703.2,477.9 695.0,481.0 687.0,485.0 C 678.3,489.4 672.3,510.7 683.0,516.0 C 699.7,524.4 718.9,516.1 727.0,500.0 C 728.2,497.5 730.0,480.5 731.0,480.0 C 738.3,476.4 761.4,482.2 767.0,485.0 C 770.4,486.7 774.5,487.3 778.0,489.0 C 781.6,490.8 784.4,494.2 788.0,496.0 C 792.7,498.3 798.0,506.0 800.0,510.0 C 802.1,514.2 804.9,517.8 807.0,522.0 C 814.2,536.5 807.3,553.4 801.0,566.0 C 795.4,577.2 781.5,582.2 772.0,587.0 C 759.5,593.2 743.0,593.0 728.0,593.0 C 706.7,593.0 685.3,593.0 664.0,593.0 C 557.3,593.0 450.7,593.0 344.0,593.0 C 294.8,593.0 242.4,596.8 218.0,548.0 C 202.6,517.1 211.1,494.9 225.0,467.0 C 227.8,461.3 235.5,450.2 242.0,447.0 C 249.8,443.1 256.3,436.8 264.0,433.0 C 270.2,429.9 277.8,429.1 284.0,426.0 C 289.3,423.4 313.0,424.5 318.0,427.0 C 320.1,428.1 325.7,426.5 327.0,429.0 C 328.9,432.7 325.1,439.3 327.0,443.0 C 330.0,449.0 331.0,455.9 334.0,462.0 C 337.8,469.6 358.3,475.3 363.0,466.0 C 369.7,452.6 360.1,434.6 347.0,428.0 C 345.3,427.2 336.7,425.4 336.0,424.0 C 334.5,421.1 336.9,415.2 338.0,413.0 C 341.6,405.9 342.4,397.3 346.0,390.0 C 366.2,349.7 406.1,316.0 453.0,316.0 Z M 616.0,307.0 C 618.2,304.8 622.9,307.0 626.0,307.0 C 636.9,307.0 648.9,309.4 658.0,314.0 C 665.4,317.7 673.6,320.3 681.0,324.0 C 698.8,332.9 719.2,354.4 728.0,372.0 C 732.7,381.5 736.3,391.6 741.0,401.0 C 743.3,405.6 741.7,412.4 744.0,417.0 C 747.6,424.2 748.7,450.5 745.0,458.0 C 743.7,460.6 745.8,470.6 743.0,472.0 C 740.4,473.3 729.3,472.6 728.0,470.0 C 726.3,466.6 727.7,461.4 726.0,458.0 C 719.5,445.0 707.1,422.6 692.0,415.0 C 686.8,412.4 682.2,408.6 677.0,406.0 C 671.0,403.0 664.0,402.0 658.0,399.0 C 651.7,395.8 642.3,399.2 636.0,396.0 C 630.8,393.4 620.1,397.0 615.0,397.0 C 613.1,397.0 608.7,396.2 607.0,397.0 C 605.1,398.0 598.2,400.1 596.0,399.0 C 593.8,397.9 595.8,395.6 595.0,394.0 C 592.4,388.8 590.6,383.2 588.0,378.0 C 581.6,365.3 572.9,353.9 562.0,343.0 C 558.8,339.8 547.4,332.7 546.0,330.0 C 544.8,327.6 558.2,321.9 560.0,321.0 C 576.8,312.6 594.8,307.0 615.0,307.0 Z"/>
  <path d="M 606.0,615.0 C 595.4,625.6 581.0,653.4 581.0,669.0 C 581.0,672.9 579.3,681.6 581.0,685.0 C 589.9,702.8 607.1,713.0 627.0,703.0 C 653.3,689.8 633.9,649.9 626.0,634.0 C 621.3,624.6 619.8,615.0 607.0,615.0 Z M 608.0,626.0 C 610.4,623.6 612.0,627.1 613.0,629.0 C 616.1,635.2 618.9,641.8 622.0,648.0 C 628.2,660.4 640.2,685.4 621.0,695.0 C 618.2,696.4 614.8,696.6 612.0,698.0 C 610.9,698.6 610.2,697.0 609.0,697.0 C 597.8,697.0 593.1,687.3 589.0,679.0 C 587.2,675.5 589.7,668.6 591.0,666.0 C 596.5,655.1 599.1,635.9 608.0,627.0 Z"/>
  <path d="M 504.0,615.0 C 502.3,616.7 499.2,616.6 498.0,619.0 C 492.3,630.5 487.7,642.6 482.0,654.0 C 480.3,657.3 480.7,661.6 479.0,665.0 C 477.7,667.5 479.0,674.1 479.0,677.0 C 479.0,703.7 504.9,712.6 526.0,702.0 C 550.5,689.7 530.1,647.3 523.0,633.0 C 518.7,624.4 516.9,615.0 505.0,615.0 Z M 506.0,626.0 C 508.6,623.4 510.0,628.0 511.0,630.0 C 514.1,636.2 516.9,642.8 520.0,649.0 C 525.4,659.8 537.3,685.4 520.0,694.0 C 516.4,695.8 512.5,696.3 509.0,698.0 C 507.8,698.6 507.8,697.4 507.0,697.0 C 504.4,695.7 500.7,696.3 498.0,695.0 C 491.6,691.8 483.4,678.2 487.0,671.0 C 491.4,662.3 492.6,651.8 497.0,643.0 C 499.1,638.8 505.0,631.8 505.0,627.0 Z"/>
  <path d="M 401.0,615.0 C 399.3,616.7 396.2,616.6 395.0,619.0 C 388.0,633.0 383.0,648.1 376.0,662.0 C 374.6,664.8 376.0,671.8 376.0,675.0 C 376.0,681.0 375.5,687.0 378.0,692.0 C 385.4,706.8 407.6,709.7 421.0,703.0 C 446.4,690.3 429.1,652.3 421.0,636.0 C 416.5,626.9 414.7,615.0 402.0,615.0 Z M 403.0,626.0 C 405.1,623.9 407.2,629.3 408.0,631.0 C 410.8,636.6 413.2,642.4 416.0,648.0 C 420.7,657.3 429.2,672.6 424.0,683.0 C 422.8,685.4 421.9,690.6 419.0,692.0 C 414.6,694.2 410.2,695.9 406.0,698.0 C 404.2,698.9 397.6,695.8 396.0,695.0 C 388.6,691.3 379.1,677.9 384.0,668.0 C 388.7,658.7 391.3,648.4 396.0,639.0 C 397.6,635.7 402.0,630.7 402.0,627.0 Z"/>
  <path d="M 774.0,266.0 C 759.0,281.0 745.8,297.2 731.0,312.0 C 728.8,314.2 715.2,325.6 722.0,329.0 C 728.3,332.2 735.3,321.7 739.0,318.0 C 746.0,311.0 765.0,292.9 769.0,285.0 C 771.4,280.2 778.6,277.8 781.0,273.0 C 783.7,267.6 779.1,266.0 775.0,266.0 Z"/>
  <path d="M 516.0,226.0 C 511.2,230.8 518.1,240.2 520.0,244.0 C 527.4,258.9 532.6,275.1 540.0,290.0 C 542.1,294.2 544.9,307.5 552.0,304.0 C 559.1,300.5 549.7,287.4 548.0,284.0 C 541.2,270.3 535.9,255.8 529.0,242.0 C 525.8,235.5 525.7,226.0 517.0,226.0 Z"/>
  <path d="M 840.0,391.0 C 835.3,395.7 827.4,392.3 822.0,395.0 C 809.7,401.2 792.3,396.8 780.0,403.0 C 776.0,405.0 760.1,402.1 765.0,412.0 C 766.4,414.8 784.8,411.1 787.0,410.0 C 793.0,407.0 819.9,407.1 828.0,403.0 C 831.0,401.5 836.0,403.5 839.0,402.0 C 841.6,400.7 844.4,400.3 847.0,399.0 C 850.3,397.3 849.4,391.0 841.0,391.0 Z"/>
  <path d="M 649.0,210.0 C 645.3,213.7 648.3,223.4 646.0,228.0 C 638.8,242.4 643.2,265.6 636.0,280.0 C 633.6,284.7 636.7,293.1 643.0,290.0 C 646.0,288.5 645.4,272.2 647.0,269.0 C 653.8,255.5 649.2,236.5 656.0,223.0 C 656.8,221.3 656.6,210.8 655.0,210.0 C 653.9,209.5 651.2,210.0 650.0,210.0 Z"/>
</g>
</svg>