<?xml version="1.0" standalone="no"?>
<!DOCTYPE svg PUBLIC "-//W3C//DTD SVG 20010904//EN"
 "http://www.w3.org/TR/2001/REC-SVG-20010904/DTD/svg10.dtd">
<svg version="1.0" xmlns="http://www.w3.org/2000/svg"
 width="1024.000000pt" height="1024.000000pt" viewBox="0 0 1024.000000 1024.000000"
 preserveAspectRatio="xMidYMid meet">
<metadata>
Created by potrace 1.16, written by Peter Selinger 2001-2019
</metadata>
<g transform="translate(0.000000,1024.000000) scale(0.100000,-0.100000)"
fill="#000000" stroke="none">
<path d="M4640 8359 c-520 -44 -943 -198 -1269 -459 -325 -261 -536 -602 -622
-1005 -74 -352 -32 -746 105 -975 l45 -75 -42 -8 c-189 -37 -387 -131 -387
-184 0 -26 85 -124 158 -183 227 -180 502 -241 860 -191 l153 22 122 -30 c141
-34 327 -106 442 -171 111 -62 253 -202 294 -290 67 -141 64 -222 -14 -468
-50 -160 -52 -167 -29 -176 31 -12 43 -6 49 27 11 56 56 189 76 226 10 20 32
51 48 69 l29 34 48 -18 c78 -28 352 -25 459 4 99 27 242 96 313 150 108 81
220 241 196 280 -30 48 -270 69 -421 38 -136 -29 -282 -97 -393 -184 -25 -20
-52 -40 -60 -46 -23 -18 45 74 113 150 73 83 168 169 253 230 67 48 229 134
252 134 7 0 44 -27 80 -61 263 -238 727 -238 750 0 5 57 -22 115 -69 150 l-28
21 49 46 c68 64 104 139 104 218 -1 71 -19 114 -66 150 -57 42 -168 59 -244
37 l-31 -9 -7 76 c-9 109 -57 183 -135 207 -47 15 -142 6 -189 -18 -53 -26
-132 -94 -151 -130 l-14 -26 -45 39 c-50 45 -93 60 -168 60 -151 0 -253 -191
-199 -376 35 -122 133 -239 251 -301 37 -19 50 -31 43 -39 -5 -6 -43 -29 -85
-50 -157 -81 -353 -250 -468 -404 -22 -30 -76 -113 -118 -184 -43 -71 -78
-124 -78 -118 0 6 9 67 20 134 46 289 79 626 81 828 0 69 4 159 7 201 7 73 10
79 55 132 134 157 398 318 607 369 26 6 160 12 320 13 313 2 397 13 547 71
166 64 303 176 367 301 21 42 20 49 -9 78 -22 22 -32 25 -105 25 -275 0 -524
-71 -777 -222 -63 -37 -117 -68 -119 -68 -2 0 26 42 63 93 61 85 145 241 171
317 9 25 16 31 29 25 46 -18 145 -26 193 -16 129 28 224 109 295 254 97 197
84 357 -29 357 -24 0 -26 3 -26 45 0 57 -22 100 -63 125 -43 27 -83 25 -146
-6 -46 -23 -56 -25 -76 -14 -55 29 -176 -52 -243 -163 -109 -181 -111 -410 -4
-511 l30 -28 -18 -52 c-39 -113 -142 -289 -234 -396 -80 -95 -151 -146 -271
-196 -224 -95 -352 -173 -475 -290 -44 -42 -80 -75 -81 -73 0 2 -3 38 -5 79
-12 197 -60 527 -89 601 -3 9 18 -6 47 -34 124 -116 248 -172 383 -172 71 0
88 4 147 33 112 55 168 142 168 262 0 96 -24 146 -108 229 -42 41 -70 77 -64
79 23 7 128 80 158 109 168 164 162 409 -14 522 -100 64 -225 75 -347 32 -102
-37 -96 -37 -89 -5 8 43 -12 148 -40 209 -90 196 -346 252 -505 109 -66 -60
-108 -127 -129 -211 l-18 -70 -43 38 c-24 21 -68 51 -100 66 -50 25 -66 28
-161 28 -96 0 -110 -3 -160 -29 -77 -40 -153 -122 -181 -193 -16 -44 -22 -80
-23 -148 -1 -119 24 -183 102 -265 l57 -59 -43 -12 c-56 -15 -148 -75 -190
-123 -59 -67 -85 -132 -90 -223 -4 -75 -2 -87 26 -146 51 -109 145 -181 273
-208 64 -14 198 -7 255 13 l42 15 4 -96 c3 -75 9 -107 28 -145 74 -154 257
-222 410 -154 65 29 163 130 181 187 6 20 15 40 19 44 7 8 25 -156 36 -328 l6
-100 -72 -95 c-127 -169 -209 -373 -226 -563 l-6 -77 -38 32 c-21 18 -48 51
-60 73 -78 135 -237 309 -380 417 l-75 56 -38 123 c-80 258 -222 505 -380 663
-98 98 -159 142 -276 201 -119 60 -139 40 -148 -152 -10 -204 67 -432 205
-600 l34 -43 -110 0 c-126 0 -116 -6 -179 110 -83 154 -113 281 -120 508 -7
212 3 306 52 497 48 188 123 354 228 509 40 60 200 249 234 276 10 9 49 42 88
74 221 188 574 353 885 415 603 119 1273 56 1771 -169 227 -102 406 -227 589
-410 214 -214 336 -410 429 -690 58 -174 73 -297 69 -573 -3 -241 -3 -242 23
-310 39 -100 109 -209 242 -380 176 -225 217 -290 217 -344 0 -41 -81 -113
-160 -142 -221 -82 -255 -135 -186 -288 43 -95 44 -121 11 -161 -27 -32 -127
-77 -196 -88 -81 -13 -59 -64 28 -64 57 0 84 -9 121 -43 33 -31 28 -73 -19
-151 -64 -107 -73 -142 -63 -255 11 -136 9 -206 -11 -256 -21 -56 -98 -127
-163 -150 -70 -26 -256 -30 -438 -11 -285 30 -451 18 -566 -40 -195 -99 -301
-378 -302 -789 -1 -202 10 -258 47 -253 20 3 21 8 22 233 2 192 6 246 23 331
38 176 76 266 145 341 110 120 250 150 543 118 87 -10 227 -18 309 -19 130 -1
160 2 220 21 105 34 185 103 222 194 18 45 21 119 12 314 -3 67 0 86 18 120
81 153 83 158 83 208 0 44 -4 54 -38 88 l-38 38 43 30 c90 64 108 151 53 254
-32 60 -38 112 -17 140 6 9 61 37 120 62 162 66 201 95 232 169 35 83 2 155
-173 376 -176 222 -258 352 -288 455 -14 51 -16 85 -10 235 13 352 -31 567
-179 865 -96 193 -180 310 -335 466 -219 221 -447 365 -764 484 -345 129 -882
198 -1276 164z m43 -437 c59 -31 92 -69 126 -142 21 -45 26 -70 26 -136 l0
-82 -103 -98 c-57 -55 -133 -141 -171 -194 -66 -93 -101 -121 -101 -83 0 56
-92 240 -173 346 -27 35 -29 43 -24 97 17 158 123 294 249 320 59 12 114 3
171 -28z m-634 -232 c34 -19 79 -53 100 -77 35 -39 39 -50 45 -117 9 -101 40
-216 81 -301 l33 -69 -29 -37 -29 -37 -77 25 c-99 31 -227 47 -323 40 -69 -6
-78 -4 -111 19 -122 84 -179 256 -129 388 35 92 113 165 210 197 14 5 57 7 96
5 57 -2 82 -9 133 -36z m1198 -125 c93 -39 152 -116 160 -212 10 -113 -63
-233 -186 -308 -75 -45 -110 -52 -161 -31 -83 33 -180 49 -264 42 -155 -12
-150 -12 -154 7 -2 10 19 43 50 80 30 34 64 76 76 93 33 49 89 165 102 214 15
57 30 73 92 100 98 42 206 48 285 15z m962 -21 c14 -18 21 -41 21 -70 0 -42
-2 -43 -69 -88 -38 -25 -71 -46 -73 -46 -3 0 -8 24 -12 53 -3 28 -9 68 -12 88
-6 34 -3 39 32 63 50 34 87 34 113 0z m-208 -75 c9 -35 19 -88 22 -117 l6 -53
-53 -58 c-56 -61 -123 -167 -151 -238 -10 -24 -20 -43 -24 -43 -12 0 -50 68
-61 110 -21 80 9 219 68 315 46 75 140 160 167 152 6 -2 17 -32 26 -68z
m-1697 -61 c48 -78 110 -223 102 -237 -3 -5 -15 -11 -27 -14 -18 -5 -26 5 -55
71 -20 41 -44 112 -55 156 -29 122 -27 123 35 24z m488 -6 c-23 -59 -95 -171
-151 -234 -38 -43 -45 -47 -64 -37 -12 7 -24 13 -26 15 -14 12 226 304 252
304 4 0 -1 -22 -11 -48z m1548 -37 c9 -11 11 -36 7 -88 -13 -148 -145 -341
-261 -380 -46 -16 -116 -23 -116 -13 0 3 13 25 30 49 16 24 34 57 40 73 17 42
40 169 40 215 0 35 5 42 48 74 102 76 185 103 212 70z m-322 -220 c-22 -142
-111 -277 -154 -233 -11 11 -7 26 22 88 40 86 114 199 130 200 8 0 8 -16 2
-55z m-1491 -61 c43 -28 65 -74 60 -128 -4 -41 -10 -55 -40 -83 -61 -55 -130
-56 -192 -2 -78 69 -65 176 27 223 38 19 108 15 145 -10z m-473 -39 c133 -23
186 -50 186 -96 0 -29 -179 14 -311 75 l-74 35 56 0 c31 1 95 -6 143 -14z
m-188 -55 c97 -50 220 -93 299 -105 94 -14 92 -8 24 -87 -71 -83 -143 -190
-178 -266 -22 -47 -30 -54 -80 -74 -45 -18 -76 -23 -161 -23 -93 0 -112 3
-162 27 -264 123 -226 460 64 558 29 10 62 19 74 19 11 1 65 -22 120 -49z
m1107 -10 c20 -6 37 -15 37 -19 0 -24 -341 -54 -354 -32 -12 19 21 59 51 64
46 8 225 0 266 -13z m168 -85 c55 -36 114 -98 138 -149 56 -114 -4 -262 -128
-313 -47 -20 -173 -19 -230 1 -135 49 -274 171 -355 312 l-18 31 43 45 44 45
160 6 c121 4 174 10 220 25 79 26 79 26 126 -3z m-803 -91 c29 -14 31 -18 20
-37 -22 -43 -154 -170 -221 -214 -38 -25 -70 -43 -72 -41 -16 16 206 308 234
308 4 0 22 -7 39 -16z m161 -71 c28 -57 58 -161 71 -250 10 -68 9 -93 -4 -157
-36 -176 -137 -278 -275 -278 -154 0 -261 114 -261 278 0 91 8 110 53 130 97
44 262 188 316 277 18 29 29 37 52 37 23 0 32 -7 48 -37z m2041 -105 c0 -38
-92 -141 -177 -200 -75 -51 -184 -96 -294 -120 -90 -19 -135 -23 -336 -24
-128 -1 -233 0 -233 2 0 2 105 62 365 209 96 54 332 124 465 138 93 10 210 7
210 -5z m-3424 -60 c213 -128 354 -289 479 -550 55 -115 129 -307 121 -315 -2
-2 -31 9 -63 26 -78 39 -200 78 -297 95 -43 7 -81 17 -85 22 -5 5 -37 47 -71
94 -144 196 -205 390 -185 594 4 49 11 76 19 76 7 0 43 -19 82 -42z m2712
-545 c46 -34 65 -70 70 -127 7 -88 0 -100 -79 -147 -76 -44 -185 -130 -234
-186 l-30 -33 0 97 c-1 93 -20 186 -47 220 -13 17 24 83 68 123 88 77 191 98
252 53z m-483 -78 c17 -9 44 -29 59 -44 l28 -29 -22 -68 c-26 -82 -38 -289
-22 -374 6 -30 8 -57 6 -60 -13 -12 -119 58 -173 115 -78 81 -114 156 -119
248 -5 86 15 143 69 191 34 31 46 36 90 36 28 0 66 -7 84 -15z m-2122 -164
c27 -6 62 -32 125 -92 145 -138 330 -240 436 -243 l51 -1 -2 48 c-2 26 0 47 3
47 13 0 124 -93 180 -152 54 -56 154 -180 154 -191 0 -2 -53 17 -117 43 -65
26 -185 65 -268 88 -182 50 -313 101 -424 167 -101 61 -241 174 -299 244 l-43
51 83 0 c46 0 100 -4 121 -9z m2274 -136 c4 -75 1 -114 -11 -155 -23 -77 -32
-89 -41 -53 -16 66 -2 308 22 345 12 21 25 -37 30 -137z m-2440 17 c134 -135
214 -195 356 -268 l99 -51 -48 -7 c-257 -35 -466 -3 -666 102 -91 47 -174 113
-228 182 l-31 39 76 36 c63 30 137 53 250 78 64 14 70 10 192 -111z m3113 86
c57 -29 83 -78 74 -137 -9 -57 -61 -138 -110 -173 l-42 -30 -113 12 c-63 7
-145 9 -184 5 l-70 -6 57 58 c64 65 119 152 143 224 14 40 22 50 48 58 62 18
150 13 197 -11z m-2678 -19 c63 -21 154 -63 215 -101 25 -14 36 -32 48 -70 8
-28 13 -54 10 -56 -8 -8 -174 76 -244 123 -36 25 -88 65 -116 90 l-50 46 37
-6 c20 -3 65 -15 100 -26z m2347 -81 c-50 -98 -155 -201 -256 -249 -46 -21
-86 -39 -88 -39 -10 0 28 54 80 114 58 67 183 175 246 211 24 14 45 25 47 25
1 0 -12 -28 -29 -62z m-1193 -100 c-9 -203 -34 -508 -52 -637 -8 -58 -14 -107
-14 -110 0 -2 -17 23 -37 57 -21 34 -60 90 -87 123 l-49 60 7 97 c8 118 37
233 81 330 38 82 134 232 148 232 6 0 7 -59 3 -152z m1337 -187 c17 -6 16 -8
-9 -20 -65 -29 -191 -51 -299 -51 -110 0 -155 6 -155 20 0 11 126 43 200 51
82 8 239 8 263 0z m168 -70 c30 -30 39 -46 39 -73 0 -108 -166 -165 -359 -124
-76 16 -214 78 -263 119 l-27 22 107 -3 c126 -4 256 19 367 66 39 17 76 30 84
31 7 1 31 -16 52 -38z m-577 -370 c16 -3 31 -11 33 -17 6 -18 -95 -142 -155
-190 -150 -119 -350 -179 -572 -171 -137 4 -160 10 -160 37 0 18 133 137 224
199 94 65 234 124 334 141 56 9 255 10 296 1z M3520 5182 c-148 -7 -322 -49
-340 -82 -13 -25 -3 -47 59 -119 51 -60 179 -162 261 -209 83 -47 201 -91 303
-114 120 -27 346 -29 422 -5 28 9 53 17 56 17 10 0 29 -74 43 -169 44 -297
-83 -757 -324 -1176 -108 -189 -207 -325 -359 -494 -79 -88 -83 -95 -66 -107
10 -8 24 -14 31 -14 29 0 243 255 355 425 181 274 330 612 398 905 114 490
-30 876 -394 1056 -141 69 -271 95 -445 86z m308 -95 c94 -31 211 -100 282
-164 59 -53 145 -176 135 -192 -18 -31 -250 -44 -375 -22 -176 31 -352 112
-485 222 -105 88 -146 136 -124 150 21 13 144 31 254 38 127 8 225 -2 313 -32z"/>
</g>
</svg>
