<svg xmlns="http://www.w3.org/2000/svg" viewBox="0 0 1024 1024" width="1024" height="1024">
<g fill="none" stroke="#000000" stroke-width="4.0" stroke-linecap="round" stroke-linejoin="round">
  <path d="M 416.0,200.0 C 491.0,200.0 566.1,201.0 641.0,201.0 C 659.4,201.0 712.0,199.6 718.0,221.0 C 722.5,237.4 708.9,261.2 702.0,275.0 C 675.2,328.5 643.9,377.6 600.0,419.0 C 582.8,435.2 541.4,462.1 540.0,487.0 C 538.7,510.1 563.2,526.1 578.0,540.0 C 625.2,584.6 670.2,630.8 697.0,691.0 C 704.5,708.0 724.9,747.2 708.0,763.0 C 699.1,771.3 683.3,772.1 672.0,774.0 C 639.6,779.4 605.7,776.2 573.0,778.0 C 516.7,781.1 458.3,781.1 402.0,778.0 C 379.1,776.7 326.7,778.2 313.0,757.0 C 302.4,740.6 323.0,700.8 330.0,685.0 C 351.5,636.7 387.9,595.0 426.0,559.0 C 443.0,543.0 484.0,514.8 484.0,490.0 C 484.0,465.0 452.3,444.3 436.0,429.0 C 392.8,388.2 352.7,338.4 326.0,285.0 C 316.8,266.6 288.8,219.6 317.0,207.0 C 337.7,197.8 391.1,202.8 416.0,200.0 Z"/>
  <path d="M 385.0,347.0 C 376.9,338.9 369.1,323.0 383.0,316.0 C 387.8,313.6 394.3,314.3 399.0,312.0 C 400.7,311.1 411.5,309.3 413.0,310.0 C 423.2,315.1 438.7,309.8 449.0,315.0 C 474.0,327.5 508.0,334.0 529.0,355.0"/>
  <path d="M 640.0,348.0 C 646.2,341.8 648.4,334.2 652.0,327.0 C 658.2,314.5 638.0,307.5 629.0,312.0 C 622.6,315.2 614.4,314.8 608.0,318.0 C 590.6,326.7 552.1,340.9 539.0,354.0"/>
  <path d="M 386.0,347.0 C 394.5,347.0 407.5,356.2 415.0,360.0 C 440.4,372.7 508.3,375.7 529.0,355.0"/>
  <path d="M 385.0,348.0 C 385.0,363.4 405.5,372.1 412.0,385.0 C 426.3,413.7 502.0,452.6 502.0,489.0"/>
  <path d="M 639.0,348.0 C 636.2,348.0 603.7,362.6 599.0,365.0 C 594.4,367.3 586.9,365.1 583.0,369.0"/>
  <path d="M 640.0,349.0 C 640.0,362.2 623.6,369.9 618.0,381.0 C 605.2,406.6 538.8,445.4 526.0,471.0 C 512.0,499.1 533.0,541.8 533.0,574.0"/>
  <path d="M 529.0,355.0 C 532.0,355.0 535.0,355.0 538.0,355.0"/>
  <path d="M 539.0,356.0 C 546.4,363.4 558.3,361.6 567.0,366.0 C 571.1,368.1 578.5,364.5 582.0,368.0"/>
  <path d="M 582.0,370.0 C 577.7,374.3 543.5,394.3 536.0,398.0 C 518.5,406.7 513.5,432.0 508.0,443.0 C 506.1,446.9 507.9,480.8 510.0,485.0 C 513.7,492.4 508.3,504.6 512.0,512.0 C 514.7,517.5 513.0,527.6 513.0,534.0 C 513.0,553.8 514.2,574.6 506.0,591.0 C 503.9,595.1 503.1,604.9 500.0,608.0"/>
  <path d="M 501.0,609.0 C 512.4,609.0 521.9,601.0 534.0,603.0 C 557.5,606.9 577.4,624.0 597.0,637.0 C 610.6,646.1 624.5,653.8 639.0,661.0 C 646.0,664.5 668.8,667.9 672.0,670.0 C 679.6,675.1 683.6,691.6 685.0,700.0 C 688.2,719.2 693.3,733.1 674.0,746.0 C 669.6,748.9 661.1,753.1 656.0,754.0 C 611.4,761.4 566.9,764.0 521.0,764.0 C 501.4,764.0 480.2,766.2 461.0,763.0 C 440.4,759.6 418.6,763.4 398.0,760.0 C 381.2,757.2 360.9,755.6 347.0,744.0 C 329.9,729.8 334.7,698.0 346.0,681.0"/>
  <path d="M 500.0,609.0 C 495.1,613.9 490.5,619.5 485.0,625.0"/>
  <path d="M 484.0,625.0 C 476.8,625.0 472.0,632.0 466.0,635.0 C 455.2,640.4 444.8,646.6 434.0,652.0 C 420.9,658.5 395.9,657.5 387.0,662.0 C 381.9,664.6 373.2,660.4 368.0,663.0 C 361.4,666.3 349.0,667.5 349.0,678.0"/>
  <path d="M 485.0,626.0 C 485.0,635.5 469.8,652.6 461.0,657.0 C 452.9,661.1 447.0,669.0 439.0,673.0 C 418.1,683.5 369.5,699.5 349.0,679.0"/>
</g>
</svg>