<svg xmlns="http://www.w3.org/2000/svg" viewBox="0 0 1024 1024" width="1024" height="1024">
  <path d="M 818.0,529.0 C 814.33,517.67 805.0,499.0 794.0,489.0 C 783.0,479.0 759.17,483.33 752.0,469.0 C 744.83,454.67 756.0,423.33 751.0,403.0 C 746.0,382.67 733.17,361.67 722.0,347.0 C 710.83,332.33 699.67,323.17 684.0,315.0 C 668.33,306.83 645.33,300.0 628.0,298.0 C 610.67,296.0 595.17,298.67 580.0,303.0 C 564.83,307.33 553.83,323.33 537.0,324.0 C 520.17,324.67 500.5,308.17 479.0,307.0 C 457.5,305.83 429.0,308.33 408.0,317.0 C 387.0,325.67 366.17,342.5 353.0,359.0 C 339.83,375.5 342.33,405.83 329.0,416.0 C 315.67,426.17 288.5,416.0 273.0,420.0 C 257.5,424.0 245.83,432.33 236.0,440.0 C 226.17,447.67 219.67,455.83 214.0,466.0 C 208.33,476.17 203.5,488.83 202.0,501.0 C 200.5,513.17 201.83,527.67 205.0,539.0 C 208.17,550.33 214.33,560.67 221.0,569.0 C 227.67,577.33 234.5,583.67 245.0,589.0 C 255.5,594.33 198.0,599.17 284.0,601.0 C 370.0,602.83 674.33,603.83 761.0,600.0 C 847.67,596.17 794.83,585.17 804.0,578.0 C 813.17,570.83 813.67,565.17 816.0,557.0 C 818.33,548.83 821.67,540.33 818.0,529.0 Z" fill="#000000" fill-rule="evenodd" stroke="none"/>
  <path d="M 210.0,506.0 C 213.67,492.17 223.33,466.17 235.0,453.0 C 246.67,439.83 265.17,431.17 280.0,427.0 C 294.83,422.83 314.83,422.17 324.0,428.0 C 333.17,433.83 331.17,454.83 335.0,462.0 C 338.83,469.17 342.67,470.0 347.0,471.0 C 351.33,472.0 358.5,472.5 361.0,468.0 C 363.5,463.5 366.17,451.67 362.0,444.0 C 357.83,436.33 336.17,435.5 336.0,422.0 C 335.83,408.5 347.17,379.67 361.0,363.0 C 374.83,346.33 399.33,329.83 419.0,322.0 C 438.67,314.17 459.83,314.17 479.0,316.0 C 498.17,317.83 517.67,323.0 534.0,333.0 C 550.33,343.0 568.0,364.67 577.0,376.0 C 586.0,387.33 592.17,391.67 588.0,401.0 C 583.83,410.33 548.83,431.17 552.0,432.0 C 555.17,432.83 587.67,409.33 607.0,406.0 C 626.33,402.67 651.5,406.17 668.0,412.0 C 684.5,417.83 697.17,431.17 706.0,441.0 C 714.83,450.83 725.17,462.5 721.0,471.0 C 716.83,479.5 688.33,486.33 681.0,492.0 C 673.67,497.67 676.5,501.0 677.0,505.0 C 677.5,509.0 678.5,514.0 684.0,516.0 C 689.5,518.0 703.33,518.83 710.0,517.0 C 716.67,515.17 720.17,511.17 724.0,505.0 C 727.83,498.83 727.5,484.0 733.0,480.0 C 738.5,476.0 746.0,476.67 757.0,481.0 C 768.0,485.33 790.17,495.33 799.0,506.0 C 807.83,516.67 812.0,532.5 810.0,545.0 C 808.0,557.5 797.17,573.0 787.0,581.0 C 776.83,589.0 831.83,591.0 749.0,593.0 C 666.17,595.0 372.5,594.5 290.0,593.0 C 207.5,591.5 264.17,588.67 254.0,584.0 C 243.83,579.33 235.83,573.0 229.0,565.0 C 222.17,557.0 216.17,545.83 213.0,536.0 C 209.83,526.17 206.33,519.83 210.0,506.0 Z" fill="#ffffff" fill-rule="evenodd" stroke="none"/>
  <path d="M 545.0,329.0 C 543.83,321.17 560.5,318.67 571.0,315.0 C 581.5,311.33 595.0,307.83 608.0,307.0 C 621.0,306.17 635.83,306.67 649.0,310.0 C 662.17,313.33 675.83,319.83 687.0,327.0 C 698.17,334.17 707.67,342.83 716.0,353.0 C 724.33,363.17 731.83,375.67 737.0,388.0 C 742.17,400.33 745.67,413.67 747.0,427.0 C 748.33,440.33 746.0,460.5 745.0,468.0 C 744.0,475.5 743.33,471.33 741.0,472.0 C 738.67,472.67 734.67,476.5 731.0,472.0 C 727.33,467.5 723.17,452.33 719.0,445.0 C 714.83,437.67 710.5,432.83 706.0,428.0 C 701.5,423.17 697.5,419.83 692.0,416.0 C 686.5,412.17 682.17,408.33 673.0,405.0 C 663.83,401.67 646.33,397.5 637.0,396.0 C 627.67,394.5 623.5,395.33 617.0,396.0 C 610.5,396.67 604.5,405.67 598.0,400.0 C 591.5,394.33 586.83,373.83 578.0,362.0 C 569.17,350.17 546.17,336.83 545.0,329.0 Z" fill="#ffffff" fill-rule="evenodd" stroke="none"/>
  <path d="M 606.0,613.0 C 604.0,614.17 604.33,613.67 601.0,620.0 C 597.67,626.33 589.33,643.0 586.0,651.0 C 582.67,659.0 581.83,662.67 581.0,668.0 C 580.17,673.33 580.83,679.83 581.0,683.0 C 581.17,686.17 581.0,684.83 582.0,687.0 C 583.0,689.17 585.0,693.5 587.0,696.0 C 589.0,698.5 591.17,700.33 594.0,702.0 C 596.83,703.67 599.83,705.33 604.0,706.0 C 608.17,706.67 615.0,706.67 619.0,706.0 C 623.0,705.33 624.83,704.5 628.0,702.0 C 631.17,699.5 636.0,693.67 638.0,691.0 C 640.0,688.33 639.67,689.5 640.0,686.0 C 640.33,682.5 640.5,674.67 640.0,670.0 C 639.5,665.33 638.17,661.67 637.0,658.0 C 635.83,654.33 636.17,654.5 633.0,648.0 C 629.83,641.5 621.33,624.83 618.0,619.0 C 614.67,613.17 615.0,614.0 613.0,613.0 C 611.0,612.0 608.0,611.83 606.0,613.0 Z" fill="#000000" fill-rule="evenodd" stroke="none"/>
  <path d="M 504.0,613.0 C 502.0,614.0 502.5,612.33 499.0,619.0 C 495.5,625.67 486.33,644.83 483.0,653.0 C 479.67,661.17 479.67,662.83 479.0,668.0 C 478.33,673.17 478.17,679.5 479.0,684.0 C 479.83,688.5 481.67,691.83 484.0,695.0 C 486.33,698.17 490.17,701.17 493.0,703.0 C 495.83,704.83 497.17,705.5 501.0,706.0 C 504.83,706.5 511.67,706.83 516.0,706.0 C 520.33,705.17 524.0,703.17 527.0,701.0 C 530.0,698.83 532.33,695.33 534.0,693.0 C 535.67,690.67 536.33,688.83 537.0,687.0 C 537.67,685.17 537.83,684.5 538.0,682.0 C 538.17,679.5 539.17,677.5 538.0,672.0 C 536.83,666.5 534.33,657.17 531.0,649.0 C 527.67,640.83 521.33,629.0 518.0,623.0 C 514.67,617.0 513.33,614.67 511.0,613.0 C 508.67,611.33 506.0,612.0 504.0,613.0 Z" fill="#000000" fill-rule="evenodd" stroke="none"/>
  <path d="M 403.0,612.0 C 401.17,613.0 399.5,613.17 396.0,619.0 C 392.5,624.83 385.17,640.0 382.0,647.0 C 378.83,654.0 378.17,656.83 377.0,661.0 C 375.83,665.17 375.33,668.83 375.0,672.0 C 374.67,675.17 374.67,677.33 375.0,680.0 C 375.33,682.67 376.17,685.67 377.0,688.0 C 377.83,690.33 378.17,691.67 380.0,694.0 C 381.83,696.33 385.0,700.0 388.0,702.0 C 391.0,704.0 393.83,705.33 398.0,706.0 C 402.17,706.67 409.0,706.67 413.0,706.0 C 417.0,705.33 419.17,704.0 422.0,702.0 C 424.83,700.0 428.0,696.83 430.0,694.0 C 432.0,691.17 433.33,689.17 434.0,685.0 C 434.67,680.83 435.17,675.17 434.0,669.0 C 432.83,662.83 430.83,656.67 427.0,648.0 C 423.17,639.33 414.33,622.83 411.0,617.0 C 407.67,611.17 408.33,613.83 407.0,613.0 C 405.67,612.17 404.83,611.0 403.0,612.0 Z" fill="#000000" fill-rule="evenodd" stroke="none"/>
  <path d="M 610.0,624.0 C 611.0,624.0 610.33,622.17 613.0,627.0 C 615.67,631.83 623.0,646.33 626.0,653.0 C 629.0,659.67 630.0,663.83 631.0,667.0 C 632.0,670.17 631.83,669.83 632.0,672.0 C 632.17,674.17 632.5,677.33 632.0,680.0 C 631.5,682.67 630.67,685.5 629.0,688.0 C 627.33,690.5 624.17,693.33 622.0,695.0 C 619.83,696.67 618.67,697.5 616.0,698.0 C 613.33,698.5 608.83,698.5 606.0,698.0 C 603.17,697.5 601.5,697.0 599.0,695.0 C 596.5,693.0 592.67,688.67 591.0,686.0 C 589.33,683.33 589.33,681.67 589.0,679.0 C 588.67,676.33 588.5,673.33 589.0,670.0 C 589.5,666.67 590.83,662.5 592.0,659.0 C 593.17,655.5 593.5,654.33 596.0,649.0 C 598.5,643.67 604.67,631.17 607.0,627.0 C 609.33,622.83 609.0,624.0 610.0,624.0 Z" fill="#ffffff" fill-rule="evenodd" stroke="none"/>
  <path d="M 404.0,624.0 C 405.0,624.0 405.33,624.33 407.0,627.0 C 408.67,629.67 411.33,634.33 414.0,640.0 C 416.67,645.67 421.0,655.67 423.0,661.0 C 425.0,666.33 425.5,668.5 426.0,672.0 C 426.5,675.5 426.33,679.5 426.0,682.0 C 425.67,684.5 425.33,685.0 424.0,687.0 C 422.67,689.0 420.33,692.17 418.0,694.0 C 415.67,695.83 413.0,697.33 410.0,698.0 C 407.0,698.67 402.5,698.33 400.0,698.0 C 397.5,697.67 397.0,697.33 395.0,696.0 C 393.0,694.67 389.83,692.33 388.0,690.0 C 386.17,687.67 384.67,685.67 384.0,682.0 C 383.33,678.33 383.33,672.5 384.0,668.0 C 384.67,663.5 386.33,659.5 388.0,655.0 C 389.67,650.5 392.17,644.67 394.0,641.0 C 395.83,637.33 397.83,635.33 399.0,633.0 C 400.17,630.67 400.17,628.5 401.0,627.0 C 401.83,625.5 403.0,624.0 404.0,624.0 Z" fill="#ffffff" fill-rule="evenodd" stroke="none"/>
  <path d="M 508.0,625.0 C 509.17,625.0 508.67,623.83 511.0,628.0 C 513.33,632.17 519.0,643.0 522.0,650.0 C 525.0,657.0 527.83,664.5 529.0,670.0 C 530.17,675.5 529.33,680.0 529.0,683.0 C 528.67,686.0 528.5,686.0 527.0,688.0 C 525.5,690.0 522.33,693.33 520.0,695.0 C 517.67,696.67 515.83,697.5 513.0,698.0 C 510.17,698.5 505.67,698.5 503.0,698.0 C 500.33,697.5 499.17,696.67 497.0,695.0 C 494.83,693.33 491.67,690.5 490.0,688.0 C 488.33,685.5 487.5,682.67 487.0,680.0 C 486.5,677.33 486.33,676.0 487.0,672.0 C 487.67,668.0 489.67,660.33 491.0,656.0 C 492.33,651.67 492.83,650.67 495.0,646.0 C 497.17,641.33 501.83,631.5 504.0,628.0 C 506.17,624.5 506.83,625.0 508.0,625.0 Z" fill="#ffffff" fill-rule="evenodd" stroke="none"/>
  <path d="M 780.0,267.0 C 779.0,266.5 779.17,262.83 775.0,266.0 C 770.83,269.17 760.17,280.5 755.0,286.0 C 749.83,291.5 749.83,292.67 744.0,299.0 C 738.17,305.33 724.0,319.33 720.0,324.0 C 716.0,328.67 719.83,326.17 720.0,327.0 C 720.17,327.83 719.83,328.5 721.0,329.0 C 722.17,329.5 723.67,332.17 727.0,330.0 C 730.33,327.83 732.17,325.33 741.0,316.0 C 749.83,306.67 773.33,281.33 780.0,274.0 C 786.67,266.67 780.83,272.83 781.0,272.0 C 781.17,271.17 781.17,269.83 781.0,269.0 C 780.83,268.17 781.0,267.5 780.0,267.0 Z" fill="#000000" fill-rule="evenodd" stroke="none"/>
  <path d="M 847.0,395.0 C 846.5,394.0 845.33,392.5 844.0,392.0 C 842.67,391.5 841.67,391.5 839.0,392.0 C 836.33,392.5 838.5,393.17 828.0,395.0 C 817.5,396.83 785.67,401.33 776.0,403.0 C 766.33,404.67 771.67,404.67 770.0,405.0 C 768.33,405.33 767.0,404.67 766.0,405.0 C 765.0,405.33 764.17,405.67 764.0,407.0 C 763.83,408.33 764.5,411.83 765.0,413.0 C 765.5,414.17 766.17,413.83 767.0,414.0 C 767.83,414.17 764.67,415.0 770.0,414.0 C 775.33,413.0 792.17,409.17 799.0,408.0 C 805.83,406.83 803.5,408.17 811.0,407.0 C 818.5,405.83 838.0,402.5 844.0,401.0 C 850.0,399.5 846.5,399.0 847.0,398.0 C 847.5,397.0 847.5,396.0 847.0,395.0 Z" fill="#000000" fill-rule="evenodd" stroke="none"/>
  <path d="M 655.0,210.0 C 653.67,209.83 650.17,210.33 649.0,211.0 C 647.83,211.67 649.0,208.83 648.0,214.0 C 647.0,219.17 644.17,234.5 643.0,242.0 C 641.83,249.5 642.17,252.33 641.0,259.0 C 639.83,265.67 636.83,277.0 636.0,282.0 C 635.17,287.0 635.67,287.5 636.0,289.0 C 636.33,290.5 637.0,290.67 638.0,291.0 C 639.0,291.33 641.0,291.33 642.0,291.0 C 643.0,290.67 643.33,290.67 644.0,289.0 C 644.67,287.33 645.67,283.33 646.0,281.0 C 646.33,278.67 644.83,281.67 646.0,275.0 C 647.17,268.33 651.83,247.67 653.0,241.0 C 654.17,234.33 652.33,238.83 653.0,235.0 C 653.67,231.17 656.33,221.83 657.0,218.0 C 657.67,214.17 657.33,213.33 657.0,212.0 C 656.67,210.67 656.33,210.17 655.0,210.0 Z" fill="#000000" fill-rule="evenodd" stroke="none"/>
  <path d="M 518.0,226.0 C 517.17,226.17 516.5,225.83 516.0,227.0 C 515.5,228.17 515.0,231.5 515.0,233.0 C 515.0,234.5 515.5,235.17 516.0,236.0 C 516.5,236.83 514.0,229.17 518.0,238.0 C 522.0,246.83 535.17,278.17 540.0,289.0 C 544.83,299.83 545.0,300.5 547.0,303.0 C 549.0,305.5 550.67,304.33 552.0,304.0 C 553.33,303.67 554.67,302.33 555.0,301.0 C 555.33,299.67 554.83,298.0 554.0,296.0 C 553.17,294.0 553.33,296.0 550.0,289.0 C 546.67,282.0 538.5,264.17 534.0,254.0 C 529.5,243.83 525.17,232.67 523.0,228.0 C 520.83,223.33 521.83,226.33 521.0,226.0 C 520.17,225.67 518.83,225.83 518.0,226.0 Z" fill="#000000" fill-rule="evenodd" stroke="none"/>
  <path d="M 722.0,486.0 C 722.0,488.33 719.83,493.67 719.0,496.0 C 718.17,498.33 718.5,498.17 717.0,500.0 C 715.5,501.83 711.67,505.5 710.0,507.0 C 708.33,508.5 708.5,508.33 707.0,509.0 C 705.5,509.67 703.17,510.67 701.0,511.0 C 698.83,511.33 695.67,511.17 694.0,511.0 C 692.33,510.83 692.33,511.0 691.0,510.0 C 689.67,509.0 686.83,506.5 686.0,505.0 C 685.17,503.5 685.83,502.0 686.0,501.0 C 686.17,500.0 685.5,500.67 687.0,499.0 C 688.5,497.33 692.83,492.83 695.0,491.0 C 697.17,489.17 697.67,489.17 700.0,488.0 C 702.33,486.83 706.33,485.0 709.0,484.0 C 711.67,483.0 714.33,482.33 716.0,482.0 C 717.67,481.67 718.0,481.33 719.0,482.0 C 720.0,482.67 722.0,483.67 722.0,486.0 Z" fill="#ffffff" fill-rule="evenodd" stroke="none"/>
  <path d="M 339.0,434.0 C 340.83,434.33 343.67,437.0 346.0,439.0 C 348.33,441.0 351.17,443.67 353.0,446.0 C 354.83,448.33 356.33,450.83 357.0,453.0 C 357.67,455.17 357.83,457.33 357.0,459.0 C 356.17,460.67 353.17,462.33 352.0,463.0 C 350.83,463.67 351.0,463.33 350.0,463.0 C 349.0,462.67 347.5,462.17 346.0,461.0 C 344.5,459.83 342.33,457.83 341.0,456.0 C 339.67,454.17 338.83,452.0 338.0,450.0 C 337.17,448.0 336.5,446.17 336.0,444.0 C 335.5,441.83 334.5,438.67 335.0,437.0 C 335.5,435.33 337.17,433.67 339.0,434.0 Z" fill="#ffffff" fill-rule="evenodd" stroke="none"/>
</svg>