<svg xmlns="http://www.w3.org/2000/svg" version="1.0" width="1024.000000pt" height="1024.000000pt" viewBox="0 0 1024.000000 1024.000000" preserveAspectRatio="xMidYMid meet">
<g transform="translate(0.000000,1024.000000) scale(0.100000,-0.100000)" fill="none" stroke="#000000" stroke-width="28.0" stroke-linecap="round" stroke-linejoin="round">
<path d="M3759 8250 c-170 -37 -385 -125 -539 -222 -247 -156 -530 -443 -530 -539 0 -10 11 -26 25 -37 14 -11 25 -22 25 -25 0 -3 -37 -31 -82 -63 -316 -220 -521 -607 -523 -986 0 -103 2 -120 21 -145 36 -48 54 -37 102 57 62 122 137 232 190 282 167 155 402 287 627 352 209 60 257 67 465 73 222 6 351 -8 556 -57 67 -17 128 -30 138 -30 9 0 24 -4 34 -10 9 -5 94 -37 187 -71 242 -86 400 -166 481 -241 63 -59 64 -61 64 -113 l0 -52 -67 -31 c-80 -36 -230 -72 -439 -106 -164 -27 -358 -50 -374 -44 -6 2 1 24 15 50 36 67 33 109 -10 157 -45 50 -110 77 -230 97 -90 15 -112 15 -289 0 -657 -55 -1190 -270 -1373 -554 -126 -195 -147 -484 -57 -782 63 -208 173 -346 249 -312 38 17 45 50 38 172 -8 137 7 200 82 355 116 238 302 421 566 555 209 107 446 171 739 200 63 6 125 12 137 14 12 2 19 -2 17 -8 -7 -17 -109 -87 -229 -158 -342 -202 -431 -256 -537 -331 -174 -122 -293 -224 -442 -378 -200 -206 -279 -322 -337 -494 -20 -59 -24 -89 -24 -195 1 -118 3 -131 38 -235 60 -175 133 -292 251 -403 55 -52 123 -91 160 -92 10 0 34 9 52 21 19 11 38 18 42 15 5 -3 19 -31 30 -63 37 -100 130 -229 248 -343 124 -121 170 -154 285 -210 68 -33 94 -40 142 -40 63 0 87 9 129 48 32 29 29 30 56 -24 46 -91 185 -244 222 -244 7 0 36 -22 65 -48 43 -40 91 -65 276 -146 395 -173 555 -264 685 -388 33 -32 65 -58 71 -58 6 0 16 -7 23 -15 19 -23 43 -18 74 14 27 28 28 33 22 85 -4 31 -12 58 -17 61 -5 4 -9 21 -9 38 0 26 14 47 69 108 110 120 253 208 456 282 39 14 105 41 149 61 43 20 89 36 103 36 48 0 213 90 280 154 86 80 114 136 121 243 2 46 6 83 8 83 2 0 30 -27 63 -61 l59 -61 74 7 c92 9 169 45 274 130 178 142 326 354 360 514 28 131 13 306 -36 437 -61 164 -146 288 -298 436 -170 164 -333 266 -617 386 -157 66 -397 152 -425 152 -26 0 -140 68 -147 88 -4 10 -29 42 -56 72 -94 104 -137 192 -118 243 24 61 187 80 336 38 369 -103 766 -458 1239 -1109 169 -233 265 -332 321 -332 12 0 30 -9 40 -20 20 -22 67 -26 112 -9 116 44 283 290 347 513 51 175 57 385 14 526 -25 82 -94 213 -152 288 -141 184 -406 367 -719 496 -116 49 -342 125 -597 202 -294 90 -351 110 -453 161 -99 49 -164 102 -184 151 -18 42 -8 118 16 127 9 4 90 9 181 12 198 6 378 -17 572 -73 402 -115 686 -273 941 -523 120 -118 180 -193 263 -332 91 -152 125 -176 175 -123 23 24 24 33 27 171 5 203 -24 376 -93 558 -103 268 -277 441 -544 541 -373 140 -779 140 -1203 -1 -142 -48 -257 -114 -287 -167 -18 -31 -36 -39 -141 -63 -118 -27 -220 -62 -385 -130 -222 -93 -253 -95 -302 -22 l-29 42 8 114 c4 63 12 119 18 126 6 7 41 15 79 17 87 6 185 52 366 173 239 158 502 273 710 310 377 67 774 -18 1085 -233 36 -25 77 -48 92 -52 35 -11 68 13 68 48 -1 121 -270 424 -528 593 -352 230 -706 256 -1079 79 -231 -110 -433 -292 -608 -550 -56 -83 -175 -310 -175 -335 0 -11 -21 -25 -36 -25 -2 0 -4 14 -4 30 0 17 -11 81 -24 143 -67 305 -184 534 -363 708 -152 148 -301 229 -498 270 -121 25 -327 25 -446 -1z m446 -29 c436 -90 725 -428 836 -973 13 -64 20 -120 17 -124 -4 -3 -35 7 -70 23 -63 30 -155 96 -298 213 -238 195 -529 340 -790 395 -216 46 -463 21 -722 -71 -110 -39 -288 -134 -328 -175 -19 -20 -45 -39 -57 -43 -31 -10 -73 3 -73 23 0 94 257 356 500 509 154 97 369 185 539 222 119 26 325 26 446 1z m2418 -155 c286 -73 568 -271 785 -553 42 -54 84 -147 80 -175 -5 -34 -41 -25 -123 31 -323 220 -710 304 -1090 236 -208 -37 -471 -152 -710 -310 -166 -110 -277 -165 -351 -172 -56 -6 -56 -6 -49 18 4 13 32 72 61 130 121 242 304 463 497 600 143 102 373 196 539 219 100 14 251 4 361 -24z m-2723 -340 c264 -57 552 -201 790 -396 189 -155 272 -210 355 -236 22 -6 39 -17 37 -24 -1 -7 -5 -55 -8 -109 -3 -53 -11 -114 -19 -136 -7 -22 -18 -83 -25 -135 -19 -156 -12 -150 -90 -76 -84 79 -235 156 -485 246 l-170 62 3 58 c4 70 -8 96 -79 174 -57 62 -174 144 -289 201 -88 44 -300 115 -420 141 -123 27 -422 27 -538 0 -136 -31 -124 -6 35 76 159 82 312 133 498 164 100 17 302 12 405 -10z m-377 -265 c213 -49 402 -126 552 -226 132 -88 185 -157 185 -241 0 -66 4 -65 -164 -24 -205 49 -334 63 -556 57 -208 -6 -256 -13 -465 -73 -302 -87 -610 -290 -746 -491 -27 -39 -67 -108 -90 -152 -22 -45 -45 -81 -49 -81 -31 0 -39 156 -15 296 64 371 218 617 526 841 24 18 56 42 70 54 18 14 50 24 95 30 38 4 103 15 144 23 108 22 393 15 513 -13z m3659 -240 c131 -27 296 -83 391 -134 160 -85 255 -185 337 -352 94 -193 130 -350 137 -590 6 -188 -1 -229 -40 -233 -24 -3 -32 4 -65 59 -144 239 -310 428 -504 575 -373 281 -889 454 -1325 442 -78 -2 -143 0 -143 4 0 11 41 46 92 80 90 57 374 140 578 168 111 15 431 4 542 -19z m-1317 -330 c-9 -54 12 -96 77 -158 97 -91 208 -138 598 -257 532 -161 770 -260 1001 -414 183 -123 290 -235 374 -395 56 -106 81 -190 90 -302 19 -243 -63 -519 -215 -723 -74 -100 -125 -136 -194 -137 -46 0 -51 2 -46 20 2 11 4 81 4 155 0 170 -27 280 -114 458 -102 209 -195 339 -375 517 -333 332 -772 560 -1370 709 -77 20 -183 43 -235 52 -104 18 -294 24 -378 11 l-54 -8 5 63 c4 60 38 309 43 316 1 2 23 -17 48 -43 44 -47 46 -48 94 -42 26 3 117 34 202 70 85 35 180 72 210 82 56 19 218 63 233 64 5 1 6 -16 2 -38z m-1960 -376 c155 -27 225 -71 225 -142 0 -32 -42 -127 -62 -139 -5 -3 -40 -8 -76 -11 -124 -8 -316 -33 -438 -58 -472 -95 -859 -371 -1039 -740 -75 -156 -90 -218 -82 -358 8 -131 0 -155 -48 -143 -61 15 -130 126 -179 286 -108 359 -54 700 140 880 228 212 704 377 1221 424 200 18 236 18 338 1z m1560 -130 c219 -38 535 -130 762 -221 467 -187 853 -485 1077 -831 71 -110 163 -308 192 -413 34 -124 47 -366 20 -376 -55 -21 -141 60 -311 296 -404 558 -778 924 -1099 1076 -226 107 -432 118 -517 28 -49 -53 -17 -146 92 -267 66 -73 74 -93 32 -82 -47 11 -261 105 -413 180 -152 76 -231 105 -287 105 -40 0 -39 -23 -13 270 11 123 20 228 20 231 0 4 28 12 63 18 80 13 267 6 382 -14z m-499 -287 l-24 -285 -69 -73 c-37 -39 -112 -101 -165 -137 -93 -61 -465 -256 -480 -251 -4 2 9 38 28 81 20 43 38 102 41 131 5 51 4 56 -29 92 -32 34 -41 38 -94 42 -166 12 -473 -161 -723 -408 -302 -297 -482 -643 -516 -991 -7 -70 10 -227 26 -243 5 -6 9 -27 9 -47 0 -32 -5 -41 -34 -58 -41 -26 -59 -26 -112 -2 -121 55 -246 229 -321 446 -35 104 -37 117 -38 235 0 106 4 136 24 195 32 96 91 206 153 290 70 92 321 344 428 429 124 98 371 260 565 372 214 123 328 197 378 247 l40 40 141 13 c284 27 649 100 745 149 25 12 47 22 49 21 1 -2 -9 -131 -22 -288z m134 -264 c30 -9 120 -49 200 -89 185 -92 378 -174 427 -182 53 -8 161 -70 177 -102 8 -14 76 -84 152 -156 244 -230 406 -447 539 -719 129 -264 160 -389 160 -646 -1 -194 -12 -262 -65 -375 -16 -35 -30 -69 -30 -75 0 -5 -17 -10 -37 -10 -33 0 -44 7 -96 64 -50 53 -63 77 -88 152 -27 78 -132 328 -159 376 -6 10 -10 32 -10 50 0 63 -130 484 -192 623 -77 173 -201 328 -333 418 -133 91 -272 91 -331 2 -26 -39 -13 -124 32 -213 20 -40 34 -75 31 -79 -4 -3 -91 58 -194 136 -180 135 -259 181 -316 181 l-22 0 7 152 c4 84 9 229 12 322 4 92 9 172 12 177 8 14 65 11 124 -7z m-174 -394 c-15 -316 -16 -324 -39 -349 -13 -14 -50 -79 -81 -143 -59 -121 -129 -227 -218 -330 -69 -78 -78 -76 -78 16 0 82 -16 114 -69 136 -64 26 -203 -49 -337 -184 -95 -96 -157 -181 -213 -293 -139 -279 -169 -588 -80 -840 26 -72 23 -84 -31 -120 -25 -18 -47 -23 -95 -23 -51 0 -75 7 -145 41 -105 50 -206 121 -223 157 -8 15 -20 74 -27 131 -16 125 -6 221 41 363 76 235 161 369 535 843 121 152 263 355 270 385 8 31 63 90 84 90 28 0 389 187 488 254 53 35 126 94 161 130 36 36 66 64 68 62 2 -2 -3 -149 -11 -326z m-675 201 c33 -41 24 -97 -44 -254 -29 -68 -72 -117 -103 -117 -26 0 -190 -95 -323 -188 -359 -249 -633 -589 -751 -929 -18 -51 -36 -93 -41 -93 -12 0 -24 107 -22 205 6 380 265 835 651 1144 200 160 424 265 551 258 52 -2 67 -7 82 -26z m1821 -207 c412 -144 679 -289 874 -477 220 -211 334 -450 334 -702 0 -161 -34 -264 -140 -420 -110 -162 -338 -345 -431 -345 -24 0 -24 -1 11 75 53 113 64 181 65 375 0 257 -31 382 -160 646 -133 273 -290 482 -548 730 -125 119 -164 164 -143 164 3 0 64 -21 138 -46z m-1968 -203 c8 -13 -133 -216 -281 -403 -292 -370 -369 -480 -444 -633 -102 -209 -142 -391 -121 -541 7 -48 10 -89 7 -92 -11 -11 -97 84 -147 163 -62 96 -118 226 -118 274 0 19 7 42 14 50 8 9 29 57 46 106 46 131 144 312 232 429 177 236 365 400 672 587 112 68 130 76 140 60z m1526 -41 c101 -26 244 -149 333 -286 83 -128 134 -260 232 -594 63 -216 61 -221 -32 -95 -124 166 -393 439 -463 468 -34 14 -190 168 -190 187 0 8 -16 47 -35 85 -36 72 -52 145 -41 189 7 29 34 46 86 57 37 7 40 7 110 -11z m-588 -50 c34 -12 122 -72 238 -160 102 -76 192 -140 200 -140 20 0 180 -161 180 -180 0 -9 38 -73 84 -143 187 -283 310 -567 349 -807 45 -276 31 -395 -67 -563 -28 -46 -49 -58 -266 -143 -193 -75 -302 -145 -420 -271 -89 -96 -78 -99 -130 31 -101 256 -190 653 -235 1054 -37 322 -48 590 -42 987 4 193 6 351 7 353 1 8 58 -1 102 -18z m-140 -377 c-10 -683 59 -1290 203 -1775 45 -152 111 -322 130 -338 19 -16 19 -74 1 -89 -8 -7 -20 -34 -26 -61 -7 -28 -17 -50 -23 -50 -6 0 -38 26 -71 58 -130 124 -290 215 -684 387 -244 108 -306 148 -315 207 -2 18 -10 60 -17 93 -36 175 23 418 192 795 129 287 168 380 168 404 0 34 49 136 65 136 19 0 153 155 217 249 28 42 73 124 102 183 28 60 54 108 57 108 3 0 4 -138 1 -307z m-459 -24 c34 -18 37 -28 37 -121 0 -104 -19 -162 -60 -183 -33 -17 -99 -89 -173 -188 -112 -151 -189 -302 -292 -573 -102 -269 -103 -269 -128 -176 -71 253 -38 531 94 795 101 202 263 370 419 434 64 26 73 27 103 12z m1383 -187 c105 -95 238 -241 317 -351 27 -36 64 -81 83 -100 19 -18 34 -37 34 -42 0 -5 27 -69 59 -142 33 -73 73 -173 90 -222 28 -86 29 -95 21 -191 -10 -123 -35 -180 -109 -247 -53 -47 -224 -137 -261 -137 l-22 0 20 33 c94 152 110 285 65 557 -39 240 -162 524 -349 807 -46 70 -84 131 -84 136 0 15 38 -13 136 -101z m-1445 -293 c-27 -63 -81 -184 -119 -269 -149 -331 -194 -486 -196 -670 -1 -80 4 -142 13 -173 8 -26 11 -50 8 -53 -19 -19 -129 104 -192 216 -36 63 -43 94 -25 105 17 11 40 62 115 260 126 331 248 546 395 695 39 40 44 43 48 24 1 -12 -19 -72 -47 -135z m895 -1756 c8 -53 -3 -76 -35 -81 -18 -3 -22 0 -17 15 3 10 10 39 17 66 6 26 15 47 20 47 4 0 11 -21 15 -47z"/>
</g>
</svg>