<svg xmlns="http://www.w3.org/2000/svg" viewBox="0 0 1024 1024" width="1024" height="1024">
<g fill="#2f4255" fill-rule="evenodd" stroke="none">
  <path d="M 496.0,112.0 C 464.3,123.9 470.0,149.3 470.0,177.0 C 470.0,182.2 473.0,205.0 465.0,205.0 C 462.7,205.0 450.6,196.9 449.0,196.0 C 439.3,190.5 410.4,172.2 401.0,171.0 C 392.4,169.9 382.5,178.9 377.0,184.0 C 374.6,186.3 371.2,187.9 370.0,191.0 C 368.0,196.0 371.0,201.7 371.0,207.0 C 371.0,220.3 371.0,233.7 371.0,247.0 C 371.0,251.1 374.5,268.4 365.0,267.0 C 361.7,266.5 359.8,262.8 357.0,261.0 C 354.5,259.4 351.6,258.5 349.0,257.0 C 341.2,252.6 333.2,246.6 325.0,243.0 C 322.5,241.9 319.5,242.2 317.0,241.0 C 306.3,235.7 312.5,234.2 301.0,232.0 C 290.5,230.0 275.1,240.0 270.0,249.0 C 265.9,256.3 269.0,272.9 269.0,281.0 C 269.0,302.3 269.0,323.7 269.0,345.0 C 269.0,350.8 271.3,363.7 269.0,369.0 C 264.8,378.9 240.2,388.3 231.0,394.0 C 202.0,412.1 171.9,427.9 143.0,446.0 C 132.7,452.4 121.6,458.1 111.0,464.0 C 104.6,467.6 100.5,467.6 97.0,475.0 C 94.1,481.2 96.0,492.4 96.0,499.0 C 96.0,515.0 96.0,531.0 96.0,547.0 C 96.0,568.3 96.0,589.7 96.0,611.0 C 96.0,620.5 93.6,633.9 96.0,643.0 C 98.3,651.7 108.9,656.0 116.0,660.0 C 131.8,668.9 148.3,677.2 164.0,686.0 C 169.6,689.2 174.4,693.8 180.0,697.0 C 215.0,716.7 249.1,737.4 284.0,757.0 C 309.0,771.0 340.3,787.2 364.0,802.0 C 395.5,821.7 427.6,840.8 460.0,859.0 C 469.4,864.3 489.8,878.3 500.0,877.0 C 506.0,876.2 511.0,871.8 516.0,869.0 C 532.1,859.9 548.3,850.8 564.0,841.0 C 605.9,814.8 649.0,790.2 692.0,766.0 C 743.2,737.2 792.8,705.8 844.0,677.0 C 862.9,666.4 881.6,655.5 900.0,644.0 C 906.8,639.7 918.6,635.9 924.0,630.0 C 929.2,624.3 927.0,613.8 927.0,607.0 C 927.0,591.0 927.0,575.0 927.0,559.0 C 927.0,535.0 927.0,511.0 927.0,487.0 C 927.0,478.0 930.0,462.7 924.0,455.0 C 918.4,447.9 892.9,436.0 884.0,431.0 C 867.7,421.8 852.3,411.1 836.0,402.0 C 823.4,394.9 806.3,389.3 796.0,379.0 C 788.9,371.9 788.3,340.5 794.0,332.0 C 802.9,318.6 799.5,331.7 806.0,317.0 C 813.5,299.8 805.2,267.0 794.0,253.0 C 781.0,236.8 763.4,220.6 741.0,222.0 C 728.2,222.8 721.1,235.1 709.0,229.0 C 692.5,220.8 677.5,209.2 661.0,201.0 C 625.7,183.4 591.6,161.5 557.0,142.0 C 538.6,131.7 520.8,119.4 501.0,112.0 Z M 314.0,508.0 C 331.8,508.0 354.1,529.1 370.0,537.0 C 405.3,554.7 440.4,575.0 474.0,596.0 C 484.2,602.4 495.8,606.6 506.0,613.0 C 516.5,619.6 526.9,627.4 538.0,633.0 C 542.3,635.2 549.3,638.8 554.0,640.0 C 560.4,641.6 568.9,638.2 574.0,635.0 C 578.5,632.2 582.7,629.4 586.0,625.0 C 590.7,618.7 589.0,612.0 589.0,605.0 C 589.0,591.7 589.0,578.3 589.0,565.0 C 589.0,559.3 587.1,536.1 592.0,534.0 C 598.1,531.4 607.3,540.1 612.0,543.0 C 618.6,547.1 625.3,549.6 632.0,553.0 C 644.6,559.3 652.7,568.9 668.0,567.0 C 673.5,566.3 685.4,558.1 688.0,553.0 C 689.2,550.6 688.7,547.7 689.0,545.0 C 689.5,541.3 686.3,526.8 692.0,526.0 C 695.0,525.6 697.3,528.7 700.0,530.0 C 706.9,533.5 713.5,536.9 720.0,541.0 C 724.0,543.5 734.0,546.3 736.0,551.0 C 737.4,554.3 732.7,557.0 731.0,558.0 C 722.0,563.6 712.3,568.4 703.0,573.0 C 692.0,578.5 681.4,586.5 671.0,593.0 C 646.2,608.5 619.8,621.5 595.0,637.0 C 571.4,651.7 546.5,664.3 523.0,679.0 C 516.7,683.0 506.9,692.0 499.0,692.0 C 492.4,692.0 480.6,681.5 475.0,678.0 C 460.7,669.1 445.3,661.9 431.0,653.0 C 426.2,650.0 417.1,642.2 411.0,643.0 C 404.3,643.8 402.8,652.1 401.0,657.0 C 397.5,666.3 400.7,655.6 396.0,665.0 C 392.3,672.5 391.5,681.8 387.0,689.0 C 386.6,689.6 382.2,695.6 381.0,696.0 C 375.1,697.7 369.3,690.2 365.0,688.0 C 354.1,682.6 343.5,676.6 333.0,670.0 C 309.6,655.4 284.4,643.6 261.0,629.0 C 254.2,624.8 242.2,621.3 238.0,614.0 C 234.6,608.0 235.3,600.2 233.0,594.0 C 230.1,586.2 228.9,577.8 226.0,570.0 C 225.0,567.3 222.6,565.3 224.0,562.0 C 227.0,554.9 240.9,550.8 247.0,547.0 C 267.8,534.0 291.4,523.7 311.0,509.0 Z M 113.0,492.0 C 119.2,489.9 136.4,503.7 143.0,507.0 C 157.6,514.3 170.3,523.7 185.0,531.0 C 190.7,533.8 198.9,535.8 202.0,542.0 C 205.2,548.4 206.8,559.0 208.0,566.0 C 210.2,579.1 215.9,592.7 220.0,605.0 C 223.1,614.2 220.6,621.7 230.0,628.0 C 257.4,646.3 318.0,681.5 347.0,696.0 C 354.2,699.6 364.4,705.6 371.0,710.0 C 374.6,712.4 381.5,718.0 386.0,718.0 C 392.8,718.0 394.5,710.4 396.0,706.0 C 398.8,697.7 405.2,690.3 408.0,682.0 C 409.5,677.4 410.2,667.8 414.0,664.0 C 418.1,659.9 428.4,669.2 432.0,671.0 C 448.2,679.1 463.8,689.9 480.0,698.0 C 498.2,707.1 494.0,718.5 494.0,736.0 C 494.0,763.0 494.0,790.0 494.0,817.0 C 494.0,827.0 494.0,837.0 494.0,847.0 C 494.0,849.8 495.0,854.2 492.0,856.0 C 490.1,857.1 484.7,854.8 483.0,854.0 C 474.8,849.9 467.5,843.2 459.0,839.0 C 448.3,833.7 423.3,820.2 414.0,814.0 C 407.4,809.6 414.5,812.3 408.0,809.0 C 391.9,801.0 375.1,792.0 360.0,782.0 C 352.5,777.0 344.2,773.1 336.0,769.0 C 329.5,765.7 336.6,768.4 330.0,764.0 C 313.8,753.2 279.1,735.1 261.0,726.0 C 257.4,724.2 255.2,721.1 252.0,719.0 C 240.3,711.2 225.0,706.0 213.0,698.0 C 200.7,689.8 187.4,680.7 174.0,674.0 C 158.5,666.3 143.4,657.6 129.0,648.0 C 123.4,644.3 115.3,643.7 112.0,637.0 C 107.3,627.6 109.3,610.9 111.0,601.0 C 113.1,588.7 112.0,574.3 112.0,562.0 C 112.0,556.8 110.9,552.2 110.0,547.0 C 109.1,541.7 110.0,521.1 110.0,514.0 C 110.0,506.6 108.7,499.4 113.0,493.0 Z M 907.0,474.0 C 917.0,474.0 913.0,498.7 913.0,506.0 C 913.0,533.0 913.0,560.0 913.0,587.0 C 913.0,593.0 914.9,612.7 912.0,617.0 C 907.3,624.0 892.4,629.3 885.0,633.0 C 864.3,643.3 845.7,657.7 825.0,668.0 C 809.4,675.8 795.6,687.2 780.0,695.0 C 722.4,723.8 660.2,769.4 603.0,798.0 C 578.2,810.4 555.8,827.6 531.0,840.0 C 527.1,842.0 514.5,853.5 510.0,849.0 C 508.1,847.1 509.0,842.3 509.0,840.0 C 509.0,832.0 509.0,824.0 509.0,816.0 C 509.0,789.0 509.0,762.0 509.0,735.0 C 509.0,727.0 505.9,711.1 512.0,705.0 C 519.5,697.5 541.0,687.0 551.0,682.0 C 576.9,669.1 600.1,650.9 626.0,638.0 C 667.0,617.5 713.9,582.5 755.0,562.0 C 776.7,551.1 796.3,535.9 818.0,525.0 C 842.6,512.7 882.2,490.2 905.0,475.0 Z M 590.0,461.0 C 593.0,458.0 596.8,463.5 598.0,466.0 C 603.4,476.7 612.9,484.9 618.0,495.0 C 619.8,498.6 624.4,499.9 626.0,503.0 C 630.1,511.3 635.1,521.1 642.0,528.0 C 643.6,529.6 651.6,540.8 651.0,542.0 C 648.2,547.6 630.9,534.0 627.0,532.0 C 618.1,527.5 610.0,521.5 601.0,517.0 C 596.5,514.8 591.5,513.0 589.0,508.0 C 587.3,504.5 589.0,486.9 589.0,482.0 C 589.0,477.6 587.0,465.0 590.0,462.0 Z M 522.0,436.0 C 524.3,433.7 528.6,435.1 530.0,438.0 C 531.8,441.7 542.7,450.9 547.0,453.0 C 551.1,455.0 571.6,458.2 573.0,461.0 C 576.1,467.2 576.1,488.8 573.0,495.0 C 572.4,496.2 573.0,508.7 573.0,512.0 C 573.0,521.0 573.0,530.0 573.0,539.0 C 573.0,541.7 571.8,547.7 573.0,550.0 C 574.5,553.0 575.0,555.3 575.0,559.0 C 575.0,566.7 575.0,574.3 575.0,582.0 C 575.0,584.4 575.5,588.8 573.0,590.0 C 569.0,592.0 564.2,582.5 563.0,580.0 C 556.6,567.2 545.4,556.7 539.0,544.0 C 534.0,534.0 525.0,525.9 520.0,516.0 C 518.6,513.2 514.4,511.8 513.0,509.0 C 504.1,491.2 489.0,476.0 480.0,458.0 C 478.0,453.9 485.7,451.1 488.0,450.0 C 495.5,446.3 504.5,444.8 512.0,441.0 C 515.0,439.5 517.4,437.0 521.0,437.0 Z M 393.0,432.0 C 401.3,427.8 404.0,436.7 408.0,442.0 C 414.4,450.6 421.1,463.0 430.0,469.0 C 435.6,472.7 448.7,467.6 454.0,465.0 C 457.1,463.4 460.6,460.5 464.0,463.0 C 472.0,469.0 480.5,488.4 487.0,497.0 C 499.6,513.8 514.3,540.3 528.0,554.0 C 530.5,556.5 530.9,561.2 533.0,564.0 C 543.2,577.6 551.8,592.4 562.0,606.0 C 564.9,609.8 573.0,615.0 568.0,620.0 C 559.6,628.4 554.7,620.2 546.0,618.0 C 539.0,616.2 532.1,610.5 526.0,606.0 C 517.0,599.3 502.2,592.1 492.0,587.0 C 475.4,578.7 456.8,569.1 442.0,558.0 C 438.8,555.6 421.9,547.9 414.0,542.0 C 408.0,537.5 399.7,536.3 394.0,532.0 C 379.3,521.0 361.0,514.3 346.0,503.0 C 332.8,493.1 316.6,488.5 304.0,479.0 C 301.7,477.3 294.8,476.1 294.0,473.0 C 293.5,471.1 297.8,469.3 299.0,469.0 C 304.9,467.5 311.5,464.7 317.0,462.0 C 331.1,455.0 351.8,446.8 367.0,443.0 C 375.0,441.0 382.7,433.0 391.0,433.0 Z M 690.0,402.0 C 692.8,399.2 695.8,403.6 697.0,406.0 C 701.9,415.8 711.4,423.8 716.0,433.0 C 716.8,434.6 719.1,434.1 720.0,436.0 C 726.3,448.7 736.6,458.2 743.0,471.0 C 744.3,473.5 753.5,480.1 752.0,483.0 C 751.1,484.7 747.8,485.9 746.0,485.0 C 738.6,481.3 732.4,475.7 725.0,472.0 C 717.2,468.1 709.9,463.0 702.0,459.0 C 697.5,456.8 691.4,454.9 689.0,450.0 C 687.2,446.4 689.0,428.0 689.0,423.0 C 689.0,418.6 687.0,406.0 690.0,403.0 Z M 792.0,400.0 C 796.0,396.0 803.5,404.3 807.0,406.0 C 821.0,413.0 834.2,423.1 848.0,430.0 C 860.7,436.4 873.4,443.7 886.0,450.0 C 888.0,451.0 898.0,457.1 897.0,459.0 C 895.4,462.2 889.7,463.7 887.0,465.0 C 882.6,467.2 879.5,471.7 875.0,474.0 C 868.5,477.2 861.5,480.7 855.0,484.0 C 847.2,487.9 839.2,495.4 832.0,499.0 C 805.4,512.3 780.6,529.7 754.0,543.0 C 752.2,543.9 748.5,539.7 747.0,539.0 C 741.7,536.3 737.4,531.7 732.0,529.0 C 720.7,523.4 710.4,515.7 699.0,510.0 C 696.4,508.7 691.7,509.3 690.0,506.0 C 687.9,501.8 689.0,494.9 689.0,490.0 C 689.0,487.1 687.7,480.5 689.0,478.0 C 693.3,469.4 708.7,483.3 714.0,486.0 C 734.4,496.2 755.5,516.3 780.0,504.0 C 786.7,500.6 787.4,492.3 790.0,487.0 C 791.8,483.4 790.0,473.2 790.0,468.0 C 790.0,453.8 791.0,438.3 791.0,425.0 C 791.0,419.9 788.6,404.4 792.0,401.0 Z M 261.0,397.0 C 268.1,389.9 268.0,405.4 268.0,409.0 C 268.0,411.7 269.4,424.2 269.0,425.0 C 268.1,426.8 266.8,432.7 268.0,435.0 C 269.4,437.7 270.0,439.7 270.0,443.0 C 270.0,447.0 267.5,455.9 269.0,459.0 C 271.0,463.1 269.0,468.9 271.0,473.0 C 273.4,477.8 277.7,480.5 280.0,485.0 C 281.5,488.0 299.7,492.6 297.0,498.0 C 294.5,503.1 282.1,507.5 277.0,510.0 C 265.5,515.8 252.6,525.2 239.0,532.0 C 236.9,533.1 223.0,542.5 222.0,542.0 C 217.3,539.6 218.3,532.7 215.0,531.0 C 201.0,524.0 189.0,513.0 175.0,506.0 C 168.8,502.9 162.1,500.1 156.0,497.0 C 150.8,494.4 147.1,489.6 142.0,487.0 C 138.0,485.0 129.4,482.8 127.0,478.0 C 125.7,475.5 131.3,471.8 133.0,471.0 C 141.2,466.9 148.7,461.1 157.0,457.0 C 181.6,444.7 204.4,428.3 229.0,416.0 C 237.3,411.8 244.8,406.1 253.0,402.0 C 255.4,400.8 257.2,398.0 260.0,398.0 Z M 620.0,377.0 C 623.3,373.7 626.7,378.7 629.0,381.0 C 634.8,386.8 641.0,391.5 648.0,395.0 C 657.8,399.9 671.0,395.0 675.0,403.0 C 677.0,407.0 675.0,427.4 675.0,433.0 C 675.0,458.7 675.0,484.3 675.0,510.0 C 675.0,518.0 675.0,526.0 675.0,534.0 C 675.0,536.4 675.5,540.8 673.0,542.0 C 671.4,542.8 665.7,537.4 665.0,536.0 C 660.0,526.0 652.0,517.1 647.0,507.0 C 639.6,492.2 610.4,460.8 602.0,444.0 C 601.3,442.5 605.3,437.4 606.0,436.0 C 608.9,430.3 608.0,421.9 608.0,415.0 C 608.0,409.0 608.5,401.0 606.0,396.0 C 605.2,394.5 602.1,389.8 603.0,388.0 C 605.2,383.7 609.1,382.9 613.0,381.0 C 614.8,380.1 616.9,378.0 619.0,378.0 Z M 542.0,360.0 C 546.4,355.6 569.9,366.8 572.0,371.0 C 573.3,373.6 576.6,373.2 578.0,376.0 C 587.4,394.8 606.1,426.4 577.0,441.0 C 571.0,444.0 563.7,441.8 558.0,439.0 C 539.8,429.9 532.9,420.8 524.0,403.0 C 521.6,398.3 523.4,391.7 521.0,387.0 C 517.1,379.2 532.1,360.0 541.0,360.0 Z M 719.0,316.0 C 721.6,313.4 725.6,316.2 727.0,319.0 C 730.0,325.1 739.3,331.1 745.0,334.0 C 749.4,336.2 754.6,336.8 759.0,339.0 C 762.5,340.7 769.8,336.6 772.0,341.0 C 774.5,346.1 774.0,359.4 774.0,365.0 C 774.0,367.2 772.0,370.1 773.0,372.0 C 776.3,378.6 775.0,388.1 775.0,396.0 C 775.0,413.0 775.0,430.0 775.0,447.0 C 775.0,455.3 775.0,463.7 775.0,472.0 C 775.0,474.4 775.5,478.8 773.0,480.0 C 769.8,481.6 765.1,475.3 764.0,473.0 C 757.5,460.1 745.5,449.9 739.0,437.0 C 729.7,418.4 711.3,404.6 702.0,386.0 C 701.0,384.0 705.2,379.6 706.0,378.0 C 708.6,372.8 709.0,366.2 709.0,360.0 C 709.0,352.4 710.2,342.4 707.0,336.0 C 705.9,333.7 702.5,327.9 704.0,325.0 C 706.5,320.0 714.3,319.7 718.0,316.0 Z M 645.0,300.0 C 646.8,298.2 649.1,300.0 651.0,301.0 C 652.2,301.6 671.4,305.8 675.0,313.0 C 676.6,316.1 681.1,318.3 683.0,322.0 C 692.6,341.3 703.2,368.9 677.0,382.0 C 671.6,384.7 665.1,383.6 660.0,381.0 C 653.8,377.9 637.6,370.2 634.0,363.0 C 631.1,357.3 627.9,351.7 625.0,346.0 C 623.0,342.0 623.0,337.1 621.0,333.0 C 619.2,329.5 621.7,322.6 623.0,320.0 C 627.3,311.3 631.5,300.0 644.0,300.0 Z M 286.0,275.0 C 289.3,271.7 296.5,282.1 298.0,285.0 C 300.4,289.7 305.9,292.8 308.0,297.0 C 314.1,309.2 323.8,318.5 330.0,331.0 C 331.1,333.2 333.9,332.8 335.0,335.0 C 345.6,356.2 364.4,373.7 375.0,395.0 C 376.7,398.3 389.4,411.2 388.0,414.0 C 385.5,419.0 378.0,419.0 374.0,421.0 C 365.1,425.5 354.9,427.6 346.0,432.0 C 332.2,438.9 316.7,442.1 303.0,449.0 C 299.8,450.6 290.0,457.0 286.0,455.0 C 283.1,453.6 284.0,447.8 284.0,445.0 C 284.0,435.0 284.0,425.0 284.0,415.0 C 284.0,380.7 284.0,346.3 284.0,312.0 C 284.0,305.1 282.1,279.9 286.0,276.0 Z M 295.0,250.0 C 298.4,246.6 306.8,254.4 310.0,256.0 C 325.7,263.8 340.2,274.1 356.0,282.0 C 392.6,300.3 426.3,324.7 463.0,343.0 C 473.2,348.1 482.7,354.9 493.0,360.0 C 496.2,361.6 504.2,364.4 506.0,368.0 C 508.2,372.5 503.3,377.6 505.0,381.0 C 509.0,388.9 505.7,402.4 510.0,411.0 C 511.1,413.3 514.5,417.9 513.0,421.0 C 511.1,424.8 505.9,423.5 503.0,425.0 C 495.4,428.8 487.4,431.3 480.0,435.0 C 469.7,440.2 458.2,442.9 448.0,448.0 C 445.5,449.3 439.2,454.6 436.0,453.0 C 432.7,451.3 429.5,444.9 428.0,442.0 C 423.9,433.7 416.1,427.2 412.0,419.0 C 408.5,412.0 401.5,407.0 398.0,400.0 C 385.1,374.2 360.9,353.8 348.0,328.0 C 345.0,322.0 338.0,318.1 335.0,312.0 C 327.5,297.1 311.7,282.4 305.0,269.0 C 303.4,265.8 292.5,253.5 295.0,251.0 Z M 736.0,241.0 C 742.2,234.8 759.2,244.6 764.0,247.0 C 778.5,254.3 799.6,286.9 791.0,304.0 C 789.2,307.5 789.4,314.8 785.0,317.0 C 780.3,319.4 775.6,321.7 771.0,324.0 C 767.3,325.8 760.7,322.4 758.0,321.0 C 739.0,311.5 733.6,306.2 724.0,287.0 C 722.9,284.8 717.1,267.7 718.0,266.0 C 720.5,261.0 720.5,255.0 723.0,250.0 C 725.0,246.0 732.1,243.9 735.0,241.0 Z M 388.0,216.0 C 391.4,212.6 397.6,222.2 399.0,225.0 C 405.4,237.9 417.6,248.1 424.0,261.0 C 431.4,275.7 449.3,291.7 457.0,307.0 C 458.5,310.0 467.9,316.3 466.0,320.0 C 463.8,324.4 458.5,319.3 456.0,318.0 C 450.4,315.2 444.5,312.8 439.0,310.0 C 435.6,308.3 433.4,304.7 430.0,303.0 C 420.2,298.1 409.8,292.9 400.0,288.0 C 398.4,287.2 397.6,284.8 396.0,284.0 C 393.0,282.5 389.1,284.1 387.0,280.0 C 385.2,276.3 388.3,269.7 387.0,267.0 C 384.6,262.2 384.6,258.8 387.0,254.0 C 388.5,251.0 384.5,247.9 387.0,243.0 C 388.0,240.9 385.3,219.7 388.0,217.0 Z M 396.0,191.0 C 400.4,186.6 409.3,195.1 413.0,197.0 C 426.4,203.7 439.7,211.3 453.0,218.0 C 455.7,219.4 457.3,222.7 460.0,224.0 C 502.2,245.1 541.9,271.9 584.0,293.0 C 589.9,295.9 594.2,301.1 600.0,304.0 C 602.0,305.0 605.8,305.5 607.0,308.0 C 607.6,309.2 606.3,331.5 605.0,334.0 C 604.4,335.1 606.6,337.1 607.0,338.0 C 609.2,342.3 607.8,348.6 610.0,353.0 C 610.6,354.1 613.6,357.7 613.0,359.0 C 610.7,363.5 606.9,364.0 603.0,366.0 C 600.9,367.1 599.1,368.9 597.0,370.0 C 592.4,372.3 591.4,366.2 589.0,365.0 C 581.7,361.4 579.3,353.7 572.0,350.0 C 565.0,346.5 556.9,345.5 550.0,342.0 C 549.5,341.8 546.2,343.0 545.0,343.0 C 538.4,343.0 532.4,343.3 527.0,346.0 C 521.3,348.9 519.2,355.6 512.0,352.0 C 503.3,347.6 488.5,325.1 484.0,316.0 C 482.7,313.3 479.2,313.5 478.0,311.0 C 464.3,283.7 438.4,259.7 425.0,233.0 C 419.7,222.4 409.2,214.5 404.0,204.0 C 401.9,199.8 396.0,197.0 396.0,192.0 Z M 489.0,157.0 C 492.2,153.8 497.6,162.2 499.0,165.0 C 504.5,176.0 516.2,186.3 522.0,198.0 C 529.3,212.6 547.6,229.1 555.0,244.0 C 556.2,246.5 566.9,258.3 566.0,260.0 C 563.7,264.5 560.4,260.2 558.0,259.0 C 550.2,255.1 542.9,249.9 535.0,246.0 C 524.6,240.8 514.2,235.1 504.0,230.0 C 502.4,229.2 501.6,226.8 500.0,226.0 C 497.0,224.5 490.8,222.5 489.0,219.0 C 484.5,210.1 487.0,194.5 487.0,184.0 C 487.0,178.9 486.2,160.8 489.0,158.0 Z M 498.0,132.0 C 501.9,128.1 511.4,136.2 515.0,138.0 C 529.6,145.3 543.5,153.8 558.0,161.0 C 559.6,161.8 560.4,164.2 562.0,165.0 C 596.6,182.3 628.3,205.7 663.0,223.0 C 669.2,226.1 675.8,228.9 682.0,232.0 C 684.7,233.4 686.3,236.7 689.0,238.0 C 693.9,240.5 701.9,241.7 705.0,248.0 C 706.2,250.4 701.0,264.1 702.0,266.0 C 705.9,273.8 704.1,284.2 708.0,292.0 C 709.1,294.2 712.5,297.9 711.0,301.0 C 710.4,302.2 693.3,309.2 693.0,309.0 C 687.0,306.0 683.5,296.3 677.0,293.0 C 669.4,289.2 661.4,286.7 654.0,283.0 C 653.5,282.7 646.6,284.0 645.0,284.0 C 631.1,284.0 630.7,287.1 619.0,293.0 C 616.4,294.3 610.1,290.0 608.0,289.0 C 604.7,287.3 601.4,281.8 600.0,279.0 C 595.8,270.7 588.1,264.2 584.0,256.0 C 581.0,249.9 574.0,246.1 571.0,240.0 C 560.1,218.1 532.6,190.1 522.0,169.0 C 517.2,159.5 507.7,152.4 503.0,143.0 C 501.1,139.2 497.0,137.6 497.0,133.0 Z"/>
</g>
<g fill="#2072bd" fill-rule="evenodd" stroke="none">
  <path d="M 906.0,475.0 C 853.8,509.8 794.2,537.5 741.0,573.0 C 737.7,575.2 732.6,576.2 729.0,578.0 C 721.4,581.8 715.4,588.3 708.0,592.0 C 699.2,596.4 689.2,600.5 681.0,606.0 C 658.2,621.2 633.6,635.7 609.0,648.0 C 590.5,657.2 564.0,679.0 546.0,685.0 C 541.4,686.5 537.9,691.4 534.0,694.0 C 527.9,698.1 513.7,699.9 511.0,708.0 C 508.9,714.4 511.0,725.2 511.0,732.0 C 511.0,752.0 511.0,772.0 511.0,792.0 C 511.0,807.0 511.0,822.0 511.0,837.0 C 511.0,839.5 509.3,851.8 515.0,849.0 C 522.4,845.3 528.8,839.8 536.0,835.0 C 540.2,832.2 546.4,830.3 551.0,828.0 C 571.7,817.7 591.9,803.7 611.0,791.0 C 618.2,786.2 627.8,783.8 635.0,779.0 C 671.1,754.9 709.9,736.0 746.0,712.0 C 753.4,707.1 762.1,704.0 770.0,700.0 C 783.0,693.5 794.1,684.9 806.0,677.0 C 809.3,674.8 814.4,673.8 818.0,672.0 C 824.5,668.7 829.7,663.2 836.0,660.0 C 850.8,652.6 864.2,644.2 878.0,635.0 C 887.3,628.8 899.1,626.2 908.0,619.0 C 914.2,614.1 911.0,597.3 911.0,590.0 C 911.0,562.0 911.0,534.0 911.0,506.0 C 911.0,499.0 911.0,492.0 911.0,485.0 C 911.0,483.5 911.9,477.2 911.0,476.0 C 910.4,475.2 909.0,475.3 908.0,475.0 Z"/>
</g>
<g fill="#50a9f8" fill-rule="evenodd" stroke="none">
  <path d="M 114.0,494.0 C 110.5,504.4 113.0,519.0 113.0,530.0 C 113.0,554.0 113.0,578.0 113.0,602.0 C 113.0,611.0 113.0,620.0 113.0,629.0 C 113.0,631.3 112.1,636.1 114.0,638.0 C 119.4,643.4 131.1,647.6 138.0,651.0 C 157.6,660.8 175.4,674.2 195.0,684.0 C 210.6,691.8 224.4,703.2 240.0,711.0 C 280.1,731.1 316.9,757.9 357.0,778.0 C 390.8,794.9 422.1,818.0 456.0,835.0 C 464.3,839.1 471.7,844.9 480.0,849.0 C 482.3,850.1 486.1,854.6 489.0,854.0 C 492.2,853.4 491.0,848.0 491.0,846.0 C 491.0,836.0 491.0,826.0 491.0,816.0 C 491.0,790.0 491.0,764.0 491.0,738.0 C 491.0,730.3 494.0,714.7 490.0,708.0 C 487.7,704.2 479.9,699.9 476.0,698.0 C 460.5,690.3 446.5,679.7 431.0,672.0 C 428.0,670.5 419.6,663.9 416.0,666.0 C 412.7,668.0 412.6,674.9 411.0,678.0 C 405.2,689.5 402.2,703.3 395.0,714.0 C 391.8,718.8 386.7,721.9 381.0,719.0 C 345.8,701.4 314.2,676.6 279.0,659.0 C 267.7,653.3 257.3,645.7 246.0,640.0 C 239.6,636.8 229.6,632.5 225.0,627.0 C 220.5,621.7 219.1,612.5 218.0,606.0 C 216.3,595.8 210.7,586.2 209.0,576.0 C 207.6,567.6 204.3,550.2 200.0,543.0 C 196.1,536.5 183.4,532.2 177.0,529.0 C 161.2,521.1 131.8,503.8 117.0,494.0 Z"/>
</g>
<g fill="#f0d9ba" fill-rule="evenodd" stroke="none">
  <path d="M 315.0,509.0 C 293.7,523.2 270.2,533.9 249.0,548.0 C 244.4,551.1 227.4,558.7 226.0,563.0 C 224.9,566.4 232.5,588.5 234.0,593.0 C 236.0,599.0 235.9,608.9 240.0,614.0 C 244.8,620.0 257.3,624.6 264.0,628.0 C 276.6,634.3 321.3,660.2 333.0,668.0 C 343.4,675.0 354.8,681.4 366.0,687.0 C 369.4,688.7 377.0,695.8 381.0,695.0 C 384.6,694.3 386.6,683.8 388.0,681.0 C 393.3,670.3 396.3,658.0 403.0,648.0 C 405.7,643.9 408.5,640.1 414.0,641.0 C 421.5,642.2 428.3,649.7 435.0,653.0 C 451.4,661.2 466.6,671.8 483.0,680.0 C 487.3,682.2 495.9,690.9 501.0,690.0 C 505.8,689.2 512.0,683.7 516.0,681.0 C 525.3,674.8 535.9,668.0 546.0,663.0 C 585.2,643.4 620.8,616.6 660.0,597.0 C 667.3,593.3 673.7,587.7 681.0,584.0 C 693.4,577.8 704.6,569.2 717.0,563.0 C 719.2,561.9 733.6,554.5 734.0,553.0 C 734.5,550.8 728.3,547.7 727.0,547.0 C 719.0,543.0 710.5,539.0 703.0,534.0 C 701.1,532.7 696.6,528.5 694.0,529.0 C 691.5,529.5 691.5,545.9 691.0,549.0 C 689.4,558.3 677.1,567.5 668.0,569.0 C 653.2,571.5 626.1,554.1 614.0,546.0 C 609.3,542.9 604.0,540.5 599.0,538.0 C 598.4,537.7 594.3,534.4 593.0,535.0 C 591.7,535.7 592.0,540.1 592.0,541.0 C 592.0,548.0 592.0,555.0 592.0,562.0 C 592.0,576.2 595.1,606.8 591.0,619.0 C 586.0,634.0 565.5,646.2 550.0,641.0 C 534.0,635.7 520.0,622.5 505.0,615.0 C 460.9,592.9 420.1,564.1 376.0,542.0 C 362.7,535.3 350.3,526.7 337.0,520.0 C 330.7,516.8 323.1,509.0 316.0,509.0 Z"/>
</g>
<g fill="#2b83d2" fill-rule="evenodd" stroke="none">
  <path d="M 263.0,397.0 C 256.7,403.3 241.1,409.9 233.0,414.0 C 228.3,416.4 224.8,420.6 220.0,423.0 C 204.1,430.9 188.9,441.1 173.0,449.0 C 170.0,450.5 168.0,453.5 165.0,455.0 C 156.6,459.2 148.6,464.7 140.0,469.0 C 137.1,470.4 129.6,472.8 128.0,476.0 C 126.6,478.7 136.1,483.0 138.0,484.0 C 151.6,490.8 164.4,499.2 178.0,506.0 C 189.8,511.9 200.3,520.2 212.0,526.0 C 217.5,528.7 218.5,542.3 225.0,539.0 C 247.7,527.7 268.3,512.3 291.0,501.0 C 302.0,495.5 281.1,490.1 279.0,486.0 C 277.6,483.2 274.3,482.6 273.0,480.0 C 270.0,474.0 269.0,467.0 266.0,461.0 C 264.5,458.0 266.0,450.4 266.0,447.0 C 266.0,435.3 266.0,423.7 266.0,412.0 C 266.0,409.1 267.5,397.0 264.0,397.0 Z"/>
  <path d="M 793.0,400.0 C 789.6,403.4 792.0,418.9 792.0,424.0 C 792.0,440.0 792.0,456.0 792.0,472.0 C 792.0,479.2 793.9,487.2 791.0,493.0 C 788.4,498.2 785.2,502.4 780.0,505.0 C 778.4,505.8 777.6,508.2 776.0,509.0 C 772.7,510.7 768.4,510.3 765.0,512.0 C 761.1,514.0 753.1,508.5 750.0,507.0 C 739.7,501.8 729.4,496.2 719.0,491.0 C 714.0,488.5 710.0,484.5 705.0,482.0 C 702.9,480.9 700.1,481.0 698.0,480.0 C 696.6,479.3 694.6,474.8 693.0,478.0 C 692.7,478.7 692.7,504.3 693.0,505.0 C 694.8,508.7 709.2,514.1 713.0,516.0 C 716.4,517.7 718.6,521.3 722.0,523.0 C 732.7,528.3 743.3,534.6 754.0,540.0 C 755.3,540.6 768.8,532.1 771.0,531.0 C 786.9,523.1 802.1,512.9 818.0,505.0 C 821.0,503.5 823.0,500.5 826.0,499.0 C 844.5,489.8 861.5,477.2 880.0,468.0 C 891.0,462.5 895.0,459.9 895.0,459.0 C 895.0,455.0 881.9,451.5 879.0,450.0 C 875.6,448.3 873.4,444.7 870.0,443.0 C 860.0,438.0 850.1,432.0 840.0,427.0 C 829.3,421.6 819.6,414.3 809.0,409.0 C 804.3,406.7 799.4,400.0 794.0,400.0 Z"/>
</g>
<g fill="#fd6b5d" fill-rule="evenodd" stroke="none">
  <path d="M 738.0,241.0 C 734.6,244.4 727.9,244.2 725.0,250.0 C 722.6,254.8 722.3,260.3 720.0,265.0 C 718.3,268.4 723.5,283.0 725.0,286.0 C 728.0,292.0 731.9,297.9 735.0,304.0 C 740.2,314.4 766.0,326.5 777.0,321.0 C 789.3,314.8 795.4,296.8 789.0,284.0 C 786.5,279.0 785.5,273.1 783.0,268.0 C 774.5,251.0 757.6,241.0 739.0,241.0 Z"/>
  <path d="M 644.0,301.0 C 641.8,303.2 635.9,303.6 633.0,305.0 C 626.0,308.5 625.7,316.6 623.0,322.0 C 620.3,327.3 624.0,338.9 626.0,343.0 C 628.0,347.0 628.9,351.9 631.0,356.0 C 640.4,374.7 663.7,387.1 682.0,378.0 C 690.7,373.7 695.7,355.4 691.0,346.0 C 689.6,343.1 690.4,338.9 689.0,336.0 C 680.5,319.0 666.0,301.0 645.0,301.0 Z"/>
  <path d="M 541.0,361.0 C 539.0,363.0 534.5,363.7 532.0,365.0 C 526.8,367.6 525.1,374.8 523.0,379.0 C 520.8,383.5 523.2,395.5 525.0,399.0 C 526.2,401.3 525.8,404.7 527.0,407.0 C 533.4,419.8 543.1,430.5 556.0,437.0 C 561.1,439.5 570.2,442.9 576.0,440.0 C 589.0,433.5 596.1,416.2 589.0,402.0 C 587.8,399.7 588.2,396.3 587.0,394.0 C 578.0,375.9 563.6,361.0 542.0,361.0 Z"/>
</g>
</svg>