<svg xmlns="http://www.w3.org/2000/svg" viewBox="0 0 1024 1024" width="1024" height="1024">
<g fill="none" stroke="#000000" stroke-width="4.0" stroke-linecap="round" stroke-linejoin="round">
  <path d="M 272.7,277.3 C 296.1,264.3 379.1,206.1 413.0,198.8 C 446.9,191.6 460.7,215.5 476.3,234.0 C 491.8,252.5 501.3,297.3 506.3,310.0"/>
  <path d="M 514.6,310.0 C 533.0,293.9 595.3,227.0 625.0,213.4 C 654.7,199.8 672.4,216.4 693.0,228.6 C 713.6,240.8 758.2,280.9 748.5,286.7 C 738.8,292.5 673.6,259.1 635.0,263.4 C 596.4,267.8 536.7,304.7 517.0,312.9"/>
  <path d="M 284.4,275.2 C 301.3,270.9 349.4,243.1 386.0,249.1 C 422.6,255.2 484.3,301.3 504.0,311.7"/>
  <path d="M 285.0,277.1 C 299.9,278.0 350.4,274.0 374.0,282.5 C 397.6,291.0 417.7,320.4 426.4,328.0"/>
  <path d="M 272.3,282.8 C 263.3,302.0 212.9,390.2 217.8,398.2 C 222.8,406.3 267.8,342.5 302.0,331.3 C 336.2,320.0 402.8,330.8 423.0,330.7"/>
  <path d="M 598.3,322.0 C 592.5,313.0 650.7,298.6 677.0,297.2 C 703.3,295.7 736.2,303.1 756.0,313.2 C 775.8,323.4 787.6,338.8 795.6,358.0 C 803.6,377.2 817.9,429.6 804.0,428.4 C 790.1,427.2 746.3,368.6 712.0,350.9 C 677.7,333.2 604.1,330.9 598.3,322.0 Z"/>
  <path d="M 586.0,329.9 C 575.6,333.1 536.7,347.2 524.0,349.5 C 511.3,351.9 512.2,344.8 509.8,343.9"/>
  <path d="M 587.7,332.0 C 620.9,351.4 752.1,416.3 787.1,448.0 C 822.2,479.7 803.3,501.1 798.0,522.0 C 792.6,542.9 762.2,564.9 755.0,573.5"/>
  <path d="M 428.0,332.9 C 435.9,336.0 463.3,345.7 475.0,351.5 C 486.7,357.2 494.1,364.7 498.0,367.4"/>
  <path d="M 409.7,398.0 C 403.8,393.2 401.3,368.2 374.0,369.2 C 346.7,370.2 272.6,390.3 246.0,404.0 C 219.4,417.6 217.7,431.3 214.6,451.0 C 211.5,470.7 214.5,524.7 227.5,521.9 C 240.6,519.2 264.3,454.6 293.0,434.8 C 321.7,414.9 382.1,408.1 400.0,402.7"/>
  <path d="M 503.0,382.9 C 517.5,384.8 560.2,385.0 590.0,394.4 C 619.8,403.8 657.4,421.3 682.0,439.0 C 706.6,456.8 725.7,479.3 737.6,501.0 C 749.4,522.7 750.6,557.6 753.2,569.0"/>
  <path d="M 497.0,384.4 C 491.1,386.0 476.2,391.2 462.0,394.0 C 447.8,396.7 420.4,399.8 412.0,401.0"/>
  <path d="M 400.3,405.8 C 384.3,416.5 328.9,448.8 304.0,469.9 C 279.1,490.9 259.5,511.3 250.8,532.0 C 242.2,552.7 245.0,577.9 252.3,594.0 C 259.7,610.1 287.9,623.0 295.0,628.8"/>
  <path d="M 573.7,462.0 C 572.6,456.1 558.7,429.9 567.1,426.5 C 575.4,423.1 593.5,417.2 624.0,441.3 C 654.5,465.4 729.0,549.5 750.0,571.1"/>
  <path d="M 499.0,437.1 C 501.4,437.6 500.8,435.7 513.0,440.3 C 525.2,444.9 562.1,460.7 572.0,464.8"/>
  <path d="M 492.1,446.4 C 487.9,449.8 478.3,459.6 467.0,466.7 C 455.7,473.8 431.2,485.3 424.0,489.0"/>
  <path d="M 494.5,447.0 C 494.5,448.2 495.1,444.8 494.8,454.1 C 494.4,463.4 492.7,494.8 492.2,503.0"/>
  <path d="M 421.4,487.0 C 419.3,481.8 422.6,453.7 409.0,456.0 C 395.4,458.4 358.8,474.3 340.1,501.0 C 321.4,527.7 304.2,596.8 297.0,616.0"/>
  <path d="M 595.0,475.3 C 616.4,491.0 702.2,543.7 723.5,569.0 C 744.7,594.3 731.3,609.2 722.4,627.0 C 713.5,644.8 678.8,667.6 670.0,675.7"/>
  <path d="M 593.3,478.0 C 605.8,495.5 656.0,550.5 668.4,583.0 C 680.8,615.5 667.7,658.0 667.5,673.0"/>
  <path d="M 410.0,497.7 C 398.8,505.7 361.7,526.3 343.3,546.0 C 324.9,565.7 306.9,604.3 299.6,616.0"/>
  <path d="M 411.9,500.0 C 399.8,517.4 352.9,576.2 338.9,604.0 C 324.9,631.8 329.7,656.5 327.9,667.0"/>
  <path d="M 548.2,534.0 C 548.2,528.9 542.4,506.8 548.2,503.8 C 554.0,500.9 570.4,499.4 582.9,516.3 C 595.5,533.1 616.9,590.2 623.7,605.0"/>
  <path d="M 495.0,506.2 C 497.7,507.2 502.5,507.3 511.0,512.3 C 519.5,517.3 540.1,532.3 546.0,536.3"/>
  <path d="M 488.3,517.7 C 485.2,522.9 475.5,540.5 469.4,549.0 C 463.4,557.5 454.9,565.4 452.0,568.7"/>
  <path d="M 491.4,518.0 C 492.3,540.5 491.3,613.0 496.9,653.0 C 502.4,693.0 520.0,740.5 524.6,758.0"/>
  <path d="M 449.0,567.0 C 446.3,564.1 442.2,546.6 433.0,550.1 C 423.8,553.6 402.0,566.5 393.6,588.0 C 385.3,609.5 384.7,663.8 382.9,679.0"/>
  <path d="M 572.0,559.0 C 576.5,563.2 591.0,575.8 598.9,584.0 C 606.7,592.2 615.8,604.0 619.1,608.0"/>
  <path d="M 569.1,562.0 C 575.7,575.9 603.2,620.3 608.8,645.0 C 614.4,669.7 603.8,699.1 602.8,710.0"/>
  <path d="M 441.0,582.3 C 436.4,588.2 422.6,601.9 413.5,618.0 C 404.4,634.1 391.0,668.8 386.5,679.0"/>
  <path d="M 443.7,584.0 C 438.3,597.9 416.7,645.5 411.1,667.0 C 405.4,688.5 410.0,705.3 409.7,713.0"/>
  <path d="M 624.7,613.0 C 626.7,617.7 633.7,632.8 637.0,641.0 C 640.3,649.2 643.1,658.5 644.3,662.0"/>
  <path d="M 299.1,630.0 C 301.0,633.7 306.5,645.6 310.8,652.0 C 315.1,658.4 322.6,665.6 325.0,668.3"/>
  <path d="M 644.0,668.0 C 642.5,672.5 641.9,687.4 635.4,694.8 C 628.9,702.3 610.1,709.7 605.0,712.7"/>
  <path d="M 647.6,666.4 C 649.2,667.7 654.3,672.9 657.0,674.6 C 659.8,676.3 663.1,676.1 664.3,676.4"/>
  <path d="M 329.4,672.0 C 334.3,675.3 350.4,689.0 359.0,691.9 C 367.6,694.8 377.3,689.7 381.0,689.3"/>
  <path d="M 386.2,690.0 C 387.8,692.4 392.3,699.9 395.7,704.0 C 399.2,708.1 405.1,712.9 407.0,714.7"/>
  <path d="M 599.0,714.2 C 591.3,717.8 564.9,728.3 553.0,735.7 C 541.1,743.0 531.9,754.6 527.7,758.3"/>
  <path d="M 412.0,717.9 C 424.5,724.4 469.5,746.7 487.0,756.8 C 504.5,766.9 512.0,774.9 517.0,778.5"/>
  <path d="M 525.1,767.8 C 524.7,768.4 523.6,769.5 522.9,771.1 C 522.1,772.8 521.0,776.8 520.6,777.9"/>
  <path d="M 526.9,768.7 C 527.0,770.2 528.3,775.6 527.5,777.7 C 526.6,779.8 522.7,780.8 521.7,781.5"/>
</g>
</svg>