<?xml version="1.0" standalone="no"?>
<!DOCTYPE svg PUBLIC "-//W3C//DTD SVG 20010904//EN"
 "http://www.w3.org/TR/2001/REC-SVG-20010904/DTD/svg10.dtd">
<svg version="1.0" xmlns="http://www.w3.org/2000/svg"
 width="1024.000000pt" height="1024.000000pt" viewBox="0 0 1024.000000 1024.000000"
 preserveAspectRatio="xMidYMid meet">
<metadata>
Created by potrace 1.16, written by Peter Selinger 2001-2019
</metadata>
<g transform="translate(0.000000,1024.000000) scale(0.100000,-0.100000)"
fill="#000000" stroke="none">
<path d="M4885 9087 c-82 -44 -160 -121 -174 -172 -7 -25 -11 -171 -11 -398
l0 -357 -37 24 c-65 41 -536 308 -578 327 -76 35 -150 20 -253 -50 -74 -50
-118 -100 -131 -148 -7 -23 -11 -177 -11 -395 l0 -356 -152 87 c-399 228 -507
283 -556 284 -91 1 -240 -92 -281 -175 -21 -44 -21 -53 -21 -646 l0 -601 -32
-17 c-27 -14 -344 -197 -648 -374 -36 -21 -135 -78 -220 -128 -639 -370 -768
-447 -793 -471 -16 -15 -32 -45 -37 -67 -14 -58 -13 -1595 1 -1649 6 -24 21
-52 32 -63 12 -10 87 -57 167 -102 201 -116 421 -243 945 -547 248 -143 698
-403 1000 -578 303 -175 674 -390 825 -478 489 -285 954 -554 987 -571 42 -21
95 -20 141 3 36 19 127 71 1092 636 652 381 790 461 1055 617 127 74 509 298
850 498 341 200 754 442 918 538 164 96 305 185 313 198 23 34 21 1671 -1
1714 -16 31 -8 26 -485 302 -631 366 -797 462 -832 485 l-38 23 0 196 0 197
54 51 c29 29 65 74 78 102 168 334 -105 876 -492 979 -124 33 -269 7 -357 -63
-23 -18 -44 -27 -49 -23 -5 5 -211 125 -459 266 -247 142 -682 391 -965 554
-283 162 -553 315 -598 338 -108 55 -159 57 -247 10z m398 -313 c133 -76 553
-315 932 -533 380 -217 723 -413 763 -435 62 -34 72 -43 67 -61 -19 -66 -27
-139 -22 -206 7 -81 45 -214 77 -266 l20 -33 -83 -42 c-45 -24 -85 -44 -88
-46 -3 -1 -44 35 -90 81 -139 137 -294 199 -446 178 -71 -11 -144 -40 -193
-80 l-35 -28 -60 32 c-63 35 -60 30 -279 342 -125 176 -630 884 -754 1056 -67
92 -122 173 -122 179 0 28 89 -11 313 -138z m-306 -179 c213 -298 533 -742
702 -976 7 -10 9 -19 4 -19 -5 0 -96 50 -203 110 -107 61 -284 161 -392 223
l-198 112 0 334 c0 184 2 332 4 330 2 -2 39 -53 83 -114z m-924 -291 c60 -30
405 -226 677 -384 102 -59 444 -255 760 -435 316 -180 578 -330 582 -334 4 -3
1 -24 -7 -46 -19 -53 -19 -213 0 -291 8 -34 26 -88 40 -120 14 -31 22 -61 18
-64 -5 -4 -46 -28 -93 -53 l-85 -46 -38 46 c-163 201 -417 294 -600 219 -31
-13 -69 -32 -84 -42 -14 -11 -32 -23 -40 -29 -10 -7 -29 -2 -68 20 -51 29 -72
56 -456 595 -419 588 -546 765 -636 888 -30 40 -56 79 -59 87 -9 23 30 18 89
-11z m598 -1250 c22 -28 39 -54 39 -57 0 -4 -15 2 -32 12 -18 10 -85 48 -148
83 -123 70 -389 220 -535 303 l-90 51 -3 343 -2 342 366 -513 c202 -282 384
-536 405 -564z m-1567 629 c55 -31 304 -172 551 -313 248 -141 672 -382 943
-536 l493 -279 -6 -30 c-14 -68 -16 -198 -5 -263 6 -38 27 -104 45 -147 19
-43 33 -80 32 -81 -6 -6 -473 -204 -661 -280 -60 -25 -113 -41 -117 -37 -3 5
-75 107 -160 228 -234 337 -623 887 -939 1330 -288 404 -320 450 -320 460 0
17 55 -2 144 -52z m276 -843 c64 -91 186 -263 271 -383 85 -120 178 -252 207
-293 l52 -74 -37 -15 c-21 -9 -117 -47 -213 -85 -96 -37 -307 -121 -468 -185
-162 -64 -296 -114 -299 -111 -3 3 -8 420 -10 928 l-6 923 193 -270 c106 -148
246 -344 310 -435z m3941 167 c114 -113 247 -177 369 -177 l60 0 0 -711 c0
-694 0 -711 -18 -688 -21 26 -391 543 -569 793 l-113 159 24 41 c84 147 82
335 -8 547 -5 11 14 26 81 62 48 25 91 47 94 47 4 0 40 -33 80 -73z m-882
-691 c73 -46 169 -78 242 -79 l67 -2 5 -65 c3 -36 6 -360 6 -720 1 -651 0
-655 -19 -630 -11 14 -104 147 -208 295 -103 149 -254 363 -335 477 l-146 207
28 54 c57 109 62 277 11 422 -34 96 -35 93 62 144 48 26 90 50 94 54 4 4 39
-24 78 -61 39 -38 91 -81 115 -96z m536 -128 c51 -77 541 -755 568 -785 32
-36 10 -40 -46 -9 -107 60 -306 172 -427 241 l-125 72 -3 262 c-1 143 -1 261
2 261 2 0 16 -19 31 -42z m-2821 -449 c103 -147 129 -178 166 -196 24 -13 58
-23 75 -23 17 0 82 21 144 46 63 25 117 42 121 37 5 -4 118 -170 252 -368 251
-369 617 -903 741 -1079 74 -105 74 -100 13 -132 -40 -22 -89 -13 -161 29 -33
19 -485 278 -1005 575 -520 297 -1060 606 -1200 687 -140 81 -272 157 -292
169 -21 11 -38 23 -38 26 0 3 126 55 281 115 154 61 389 153 522 206 133 53
246 93 250 89 5 -5 64 -86 131 -181z m1301 -18 c74 -45 151 -70 231 -78 l64
-6 1 -576 c0 -317 3 -613 5 -658 3 -46 2 -83 -3 -83 -4 0 -17 14 -28 30 -11
16 -123 180 -248 362 -343 499 -657 962 -657 968 0 3 60 30 133 59 72 30 174
73 225 96 l93 41 63 -60 c35 -34 89 -77 121 -95z m813 -530 c166 -233 301
-425 300 -426 -2 -2 -568 322 -615 352 -10 6 -14 78 -18 278 -5 260 -5 269 12
245 10 -13 154 -215 321 -449z m-4973 47 c6 -6 -25 7 -67 28 -42 22 -77 43
-77 47 -1 9 126 -58 144 -75z m-65 -1408 c39 -23 70 -43 70 -46 0 -5 -71 33
-132 70 -17 10 -18 54 -16 721 l3 710 2 -707 3 -707 70 -41z m263 1296 c75
-43 137 -80 137 -82 0 -3 -26 9 -57 27 -178 100 -249 142 -258 152 -5 6 1 4
15 -4 14 -9 87 -50 163 -93z m1922 -94 c83 -46 584 -332 1114 -635 530 -303
983 -557 1005 -565 121 -42 306 44 374 172 l27 51 3 426 3 427 82 -47 c190
-110 469 -263 522 -287 104 -48 209 -27 313 62 60 51 74 89 79 220 l5 110 217
-123 c119 -67 221 -125 226 -128 7 -3 7 -7 0 -10 -39 -19 -1680 -980 -2096
-1226 -118 -70 -227 -133 -241 -139 -23 -11 -45 0 -274 133 -137 79 -328 190
-424 246 -96 55 -185 101 -198 101 -37 0 -78 -27 -95 -62 -9 -19 -59 -135
-112 -258 -53 -124 -98 -226 -100 -229 -3 -2 -58 27 -122 64 -65 38 -291 168
-503 290 -622 357 -789 456 -797 468 -8 12 -153 520 -150 524 1 1 146 86 322
189 176 102 383 224 460 270 l140 82 35 -20 c19 -11 103 -59 185 -106z m-1574
-106 l186 -106 18 -61 c9 -33 15 -63 12 -65 -2 -2 -12 24 -21 58 l-17 63 -189
108 c-105 60 -190 111 -190 113 0 3 3 3 8 1 4 -2 91 -52 193 -111z m226 -268
c-3 -8 -6 -5 -6 6 -1 11 2 17 5 13 3 -3 4 -12 1 -19z m27 -88 c4 -24 3 -29 -3
-15 -4 11 -11 36 -15 55 -4 24 -3 29 3 15 4 -11 11 -36 15 -55z m86 -310 c40
-146 76 -272 80 -281 10 -17 170 -114 615 -369 165 -95 305 -177 310 -183 13
-13 25 -19 -185 100 -233 133 -645 373 -697 406 -23 15 -46 35 -52 45 -9 17
-151 530 -151 546 0 25 13 -19 80 -264z m-745 -553 c6 -5 -17 5 -50 23 -33 18
-64 38 -70 43 -5 6 17 -4 50 -22 33 -18 65 -38 70 -44z m75 -43 c0 -2 -13 2
-30 11 -16 9 -30 18 -30 21 0 2 14 -2 30 -11 17 -9 30 -18 30 -21z m365 -207
c699 -406 860 -500 870 -510 16 -15 -25 8 -265 148 -124 72 -387 225 -585 340
-198 114 -364 212 -370 218 -17 16 26 -8 350 -196z m3017 -266 l48 -26 0 -747
0 -748 -62 38 c-35 21 -120 71 -190 111 -71 40 -128 75 -128 77 0 3 3 3 8 1 4
-2 72 -41 152 -87 80 -45 160 -91 178 -102 l32 -20 0 734 0 734 -77 46 c-147
87 -652 378 -657 378 -2 0 -49 -109 -106 -242 -78 -187 -110 -251 -136 -275
-37 -36 -80 -43 -124 -19 -76 41 -617 360 -625 368 -16 17 27 -7 305 -170 146
-86 283 -166 305 -179 55 -31 100 -30 134 5 23 23 77 141 227 499 l14 31 327
-190 c181 -105 349 -202 375 -217z m-1902 -381 c118 -67 267 -153 330 -190 63
-37 163 -95 223 -130 59 -35 107 -65 107 -67 0 -6 -22 7 -280 157 -129 75
-319 185 -422 244 -104 59 -188 110 -188 113 0 2 3 2 8 0 4 -3 104 -60 222
-127z m915 -530 c127 -72 235 -136 240 -142 13 -14 24 -20 -240 132 -126 73
-234 137 -240 143 -13 13 -27 21 240 -133z m500 -287 c72 -41 135 -79 140 -85
6 -6 -8 -1 -30 11 -22 13 -111 64 -197 113 -87 49 -158 91 -158 94 0 6 22 -6
245 -133z"/>
</g>
</svg>
